<?xml version="1.0" encoding="utf-8"?>
<svg xmlns="http://www.w3.org/2000/svg" xmlns:xlink="http://www.w3.org/1999/xlink" width="600" height="400" viewBox="0 0 2400 1600">
<defs>
  <clipPath id="clip620">
    <rect x="0" y="0" width="2400" height="1600"/>
  </clipPath>
</defs>
<path clip-path="url(#clip620)" d="
M0 1600 L2400 1600 L2400 0 L0 0  Z
  " fill="#ffffff" fill-rule="evenodd" fill-opacity="1"/>
<defs>
  <clipPath id="clip621">
    <rect x="480" y="0" width="1681" height="1600"/>
  </clipPath>
</defs>
<path clip-path="url(#clip620)" d="
M240.352 1423.18 L2352.76 1423.18 L2352.76 47.2441 L240.352 47.2441  Z
  " fill="#ffffff" fill-rule="evenodd" fill-opacity="1"/>
<defs>
  <clipPath id="clip622">
    <rect x="240" y="47" width="2113" height="1377"/>
  </clipPath>
</defs>
<polyline clip-path="url(#clip622)" style="stroke:#000000; stroke-linecap:butt; stroke-linejoin:round; stroke-width:2; stroke-opacity:0.1; fill:none" points="
  292.838,1423.18 292.838,47.2441 
  "/>
<polyline clip-path="url(#clip622)" style="stroke:#000000; stroke-linecap:butt; stroke-linejoin:round; stroke-width:2; stroke-opacity:0.1; fill:none" points="
  738.123,1423.18 738.123,47.2441 
  "/>
<polyline clip-path="url(#clip622)" style="stroke:#000000; stroke-linecap:butt; stroke-linejoin:round; stroke-width:2; stroke-opacity:0.1; fill:none" points="
  1183.41,1423.18 1183.41,47.2441 
  "/>
<polyline clip-path="url(#clip622)" style="stroke:#000000; stroke-linecap:butt; stroke-linejoin:round; stroke-width:2; stroke-opacity:0.1; fill:none" points="
  1628.69,1423.18 1628.69,47.2441 
  "/>
<polyline clip-path="url(#clip622)" style="stroke:#000000; stroke-linecap:butt; stroke-linejoin:round; stroke-width:2; stroke-opacity:0.1; fill:none" points="
  2073.98,1423.18 2073.98,47.2441 
  "/>
<polyline clip-path="url(#clip620)" style="stroke:#000000; stroke-linecap:butt; stroke-linejoin:round; stroke-width:4; stroke-opacity:1; fill:none" points="
  240.352,1423.18 2352.76,1423.18 
  "/>
<polyline clip-path="url(#clip620)" style="stroke:#000000; stroke-linecap:butt; stroke-linejoin:round; stroke-width:4; stroke-opacity:1; fill:none" points="
  292.838,1423.18 292.838,1404.28 
  "/>
<polyline clip-path="url(#clip620)" style="stroke:#000000; stroke-linecap:butt; stroke-linejoin:round; stroke-width:4; stroke-opacity:1; fill:none" points="
  738.123,1423.18 738.123,1404.28 
  "/>
<polyline clip-path="url(#clip620)" style="stroke:#000000; stroke-linecap:butt; stroke-linejoin:round; stroke-width:4; stroke-opacity:1; fill:none" points="
  1183.41,1423.18 1183.41,1404.28 
  "/>
<polyline clip-path="url(#clip620)" style="stroke:#000000; stroke-linecap:butt; stroke-linejoin:round; stroke-width:4; stroke-opacity:1; fill:none" points="
  1628.69,1423.18 1628.69,1404.28 
  "/>
<polyline clip-path="url(#clip620)" style="stroke:#000000; stroke-linecap:butt; stroke-linejoin:round; stroke-width:4; stroke-opacity:1; fill:none" points="
  2073.98,1423.18 2073.98,1404.28 
  "/>
<path clip-path="url(#clip620)" d="M164.632 1481.64 L180.952 1481.64 L180.952 1485.58 L159.007 1485.58 L159.007 1481.64 Q161.669 1478.89 166.253 1474.26 Q170.859 1469.61 172.04 1468.27 Q174.285 1465.74 175.165 1464.01 Q176.067 1462.25 176.067 1460.56 Q176.067 1457.8 174.123 1456.07 Q172.202 1454.33 169.1 1454.33 Q166.901 1454.33 164.447 1455.09 Q162.016 1455.86 159.239 1457.41 L159.239 1452.69 Q162.063 1451.55 164.516 1450.97 Q166.97 1450.39 169.007 1450.39 Q174.378 1450.39 177.572 1453.08 Q180.766 1455.77 180.766 1460.26 Q180.766 1462.39 179.956 1464.31 Q179.169 1466.2 177.063 1468.8 Q176.484 1469.47 173.382 1472.69 Q170.28 1475.88 164.632 1481.64 Z" fill="#000000" fill-rule="evenodd" fill-opacity="1" /><path clip-path="url(#clip620)" d="M200.766 1454.1 Q197.155 1454.1 195.326 1457.66 Q193.521 1461.2 193.521 1468.33 Q193.521 1475.44 195.326 1479.01 Q197.155 1482.55 200.766 1482.55 Q204.4 1482.55 206.206 1479.01 Q208.035 1475.44 208.035 1468.33 Q208.035 1461.2 206.206 1457.66 Q204.4 1454.1 200.766 1454.1 M200.766 1450.39 Q206.576 1450.39 209.632 1455 Q212.711 1459.58 212.711 1468.33 Q212.711 1477.06 209.632 1481.67 Q206.576 1486.25 200.766 1486.25 Q194.956 1486.25 191.877 1481.67 Q188.822 1477.06 188.822 1468.33 Q188.822 1459.58 191.877 1455 Q194.956 1450.39 200.766 1450.39 Z" fill="#000000" fill-rule="evenodd" fill-opacity="1" /><path clip-path="url(#clip620)" d="M224.956 1481.64 L241.275 1481.64 L241.275 1485.58 L219.331 1485.58 L219.331 1481.64 Q221.993 1478.89 226.576 1474.26 Q231.183 1469.61 232.363 1468.27 Q234.609 1465.74 235.488 1464.01 Q236.391 1462.25 236.391 1460.56 Q236.391 1457.8 234.447 1456.07 Q232.525 1454.33 229.424 1454.33 Q227.224 1454.33 224.771 1455.09 Q222.34 1455.86 219.562 1457.41 L219.562 1452.69 Q222.387 1451.55 224.84 1450.97 Q227.294 1450.39 229.331 1450.39 Q234.701 1450.39 237.896 1453.08 Q241.09 1455.77 241.09 1460.26 Q241.09 1462.39 240.28 1464.31 Q239.493 1466.2 237.386 1468.8 Q236.808 1469.47 233.706 1472.69 Q230.604 1475.88 224.956 1481.64 Z" fill="#000000" fill-rule="evenodd" fill-opacity="1" /><path clip-path="url(#clip620)" d="M261.09 1454.1 Q257.479 1454.1 255.65 1457.66 Q253.845 1461.2 253.845 1468.33 Q253.845 1475.44 255.65 1479.01 Q257.479 1482.55 261.09 1482.55 Q264.724 1482.55 266.53 1479.01 Q268.358 1475.44 268.358 1468.33 Q268.358 1461.2 266.53 1457.66 Q264.724 1454.1 261.09 1454.1 M261.09 1450.39 Q266.9 1450.39 269.956 1455 Q273.034 1459.58 273.034 1468.33 Q273.034 1477.06 269.956 1481.67 Q266.9 1486.25 261.09 1486.25 Q255.28 1486.25 252.201 1481.67 Q249.146 1477.06 249.146 1468.33 Q249.146 1459.58 252.201 1455 Q255.28 1450.39 261.09 1450.39 Z" fill="#000000" fill-rule="evenodd" fill-opacity="1" /><path clip-path="url(#clip620)" d="M278.497 1470.7 L290.974 1470.7 L290.974 1474.49 L278.497 1474.49 L278.497 1470.7 Z" fill="#000000" fill-rule="evenodd" fill-opacity="1" /><path clip-path="url(#clip620)" d="M308.358 1454.1 Q304.747 1454.1 302.918 1457.66 Q301.113 1461.2 301.113 1468.33 Q301.113 1475.44 302.918 1479.01 Q304.747 1482.55 308.358 1482.55 Q311.993 1482.55 313.798 1479.01 Q315.627 1475.44 315.627 1468.33 Q315.627 1461.2 313.798 1457.66 Q311.993 1454.1 308.358 1454.1 M308.358 1450.39 Q314.168 1450.39 317.224 1455 Q320.303 1459.58 320.303 1468.33 Q320.303 1477.06 317.224 1481.67 Q314.168 1486.25 308.358 1486.25 Q302.548 1486.25 299.469 1481.67 Q296.414 1477.06 296.414 1468.33 Q296.414 1459.58 299.469 1455 Q302.548 1450.39 308.358 1450.39 Z" fill="#000000" fill-rule="evenodd" fill-opacity="1" /><path clip-path="url(#clip620)" d="M341.367 1455.09 L329.562 1473.54 L341.367 1473.54 L341.367 1455.09 M340.141 1451.02 L346.02 1451.02 L346.02 1473.54 L350.951 1473.54 L350.951 1477.43 L346.02 1477.43 L346.02 1485.58 L341.367 1485.58 L341.367 1477.43 L325.766 1477.43 L325.766 1472.92 L340.141 1451.02 Z" fill="#000000" fill-rule="evenodd" fill-opacity="1" /><path clip-path="url(#clip620)" d="M355.927 1470.7 L368.404 1470.7 L368.404 1474.49 L355.927 1474.49 L355.927 1470.7 Z" fill="#000000" fill-rule="evenodd" fill-opacity="1" /><path clip-path="url(#clip620)" d="M385.788 1454.1 Q382.177 1454.1 380.349 1457.66 Q378.543 1461.2 378.543 1468.33 Q378.543 1475.44 380.349 1479.01 Q382.177 1482.55 385.788 1482.55 Q389.423 1482.55 391.228 1479.01 Q393.057 1475.44 393.057 1468.33 Q393.057 1461.2 391.228 1457.66 Q389.423 1454.1 385.788 1454.1 M385.788 1450.39 Q391.599 1450.39 394.654 1455 Q397.733 1459.58 397.733 1468.33 Q397.733 1477.06 394.654 1481.67 Q391.599 1486.25 385.788 1486.25 Q379.978 1486.25 376.9 1481.67 Q373.844 1477.06 373.844 1468.33 Q373.844 1459.58 376.9 1455 Q379.978 1450.39 385.788 1450.39 Z" fill="#000000" fill-rule="evenodd" fill-opacity="1" /><path clip-path="url(#clip620)" d="M406.761 1481.64 L414.399 1481.64 L414.399 1455.28 L406.089 1456.95 L406.089 1452.69 L414.353 1451.02 L419.029 1451.02 L419.029 1481.64 L426.668 1481.64 L426.668 1485.58 L406.761 1485.58 L406.761 1481.64 Z" fill="#000000" fill-rule="evenodd" fill-opacity="1" /><path clip-path="url(#clip620)" d="M609.917 1481.64 L626.237 1481.64 L626.237 1485.58 L604.292 1485.58 L604.292 1481.64 Q606.954 1478.89 611.538 1474.26 Q616.144 1469.61 617.325 1468.27 Q619.57 1465.74 620.45 1464.01 Q621.352 1462.25 621.352 1460.56 Q621.352 1457.8 619.408 1456.07 Q617.487 1454.33 614.385 1454.33 Q612.186 1454.33 609.732 1455.09 Q607.302 1455.86 604.524 1457.41 L604.524 1452.69 Q607.348 1451.55 609.802 1450.97 Q612.255 1450.39 614.292 1450.39 Q619.663 1450.39 622.857 1453.08 Q626.052 1455.77 626.052 1460.26 Q626.052 1462.39 625.241 1464.31 Q624.454 1466.2 622.348 1468.8 Q621.769 1469.47 618.667 1472.69 Q615.565 1475.88 609.917 1481.64 Z" fill="#000000" fill-rule="evenodd" fill-opacity="1" /><path clip-path="url(#clip620)" d="M646.051 1454.1 Q642.44 1454.1 640.612 1457.66 Q638.806 1461.2 638.806 1468.33 Q638.806 1475.44 640.612 1479.01 Q642.44 1482.55 646.051 1482.55 Q649.686 1482.55 651.491 1479.01 Q653.32 1475.44 653.32 1468.33 Q653.32 1461.2 651.491 1457.66 Q649.686 1454.1 646.051 1454.1 M646.051 1450.39 Q651.862 1450.39 654.917 1455 Q657.996 1459.58 657.996 1468.33 Q657.996 1477.06 654.917 1481.67 Q651.862 1486.25 646.051 1486.25 Q640.241 1486.25 637.163 1481.67 Q634.107 1477.06 634.107 1468.33 Q634.107 1459.58 637.163 1455 Q640.241 1450.39 646.051 1450.39 Z" fill="#000000" fill-rule="evenodd" fill-opacity="1" /><path clip-path="url(#clip620)" d="M670.241 1481.64 L686.56 1481.64 L686.56 1485.58 L664.616 1485.58 L664.616 1481.64 Q667.278 1478.89 671.861 1474.26 Q676.468 1469.61 677.648 1468.27 Q679.894 1465.74 680.773 1464.01 Q681.676 1462.25 681.676 1460.56 Q681.676 1457.8 679.732 1456.07 Q677.811 1454.33 674.709 1454.33 Q672.51 1454.33 670.056 1455.09 Q667.625 1455.86 664.848 1457.41 L664.848 1452.69 Q667.672 1451.55 670.125 1450.97 Q672.579 1450.39 674.616 1450.39 Q679.986 1450.39 683.181 1453.08 Q686.375 1455.77 686.375 1460.26 Q686.375 1462.39 685.565 1464.31 Q684.778 1466.2 682.672 1468.8 Q682.093 1469.47 678.991 1472.69 Q675.889 1475.88 670.241 1481.64 Z" fill="#000000" fill-rule="evenodd" fill-opacity="1" /><path clip-path="url(#clip620)" d="M706.375 1454.1 Q702.764 1454.1 700.935 1457.66 Q699.13 1461.2 699.13 1468.33 Q699.13 1475.44 700.935 1479.01 Q702.764 1482.55 706.375 1482.55 Q710.009 1482.55 711.815 1479.01 Q713.644 1475.44 713.644 1468.33 Q713.644 1461.2 711.815 1457.66 Q710.009 1454.1 706.375 1454.1 M706.375 1450.39 Q712.185 1450.39 715.241 1455 Q718.32 1459.58 718.32 1468.33 Q718.32 1477.06 715.241 1481.67 Q712.185 1486.25 706.375 1486.25 Q700.565 1486.25 697.486 1481.67 Q694.431 1477.06 694.431 1468.33 Q694.431 1459.58 697.486 1455 Q700.565 1450.39 706.375 1450.39 Z" fill="#000000" fill-rule="evenodd" fill-opacity="1" /><path clip-path="url(#clip620)" d="M723.782 1470.7 L736.259 1470.7 L736.259 1474.49 L723.782 1474.49 L723.782 1470.7 Z" fill="#000000" fill-rule="evenodd" fill-opacity="1" /><path clip-path="url(#clip620)" d="M753.643 1454.1 Q750.032 1454.1 748.204 1457.66 Q746.398 1461.2 746.398 1468.33 Q746.398 1475.44 748.204 1479.01 Q750.032 1482.55 753.643 1482.55 Q757.278 1482.55 759.083 1479.01 Q760.912 1475.44 760.912 1468.33 Q760.912 1461.2 759.083 1457.66 Q757.278 1454.1 753.643 1454.1 M753.643 1450.39 Q759.454 1450.39 762.509 1455 Q765.588 1459.58 765.588 1468.33 Q765.588 1477.06 762.509 1481.67 Q759.454 1486.25 753.643 1486.25 Q747.833 1486.25 744.755 1481.67 Q741.699 1477.06 741.699 1468.33 Q741.699 1459.58 744.755 1455 Q747.833 1450.39 753.643 1450.39 Z" fill="#000000" fill-rule="evenodd" fill-opacity="1" /><path clip-path="url(#clip620)" d="M784.384 1466.44 Q781.236 1466.44 779.384 1468.59 Q777.555 1470.74 777.555 1474.49 Q777.555 1478.22 779.384 1480.39 Q781.236 1482.55 784.384 1482.55 Q787.532 1482.55 789.361 1480.39 Q791.213 1478.22 791.213 1474.49 Q791.213 1470.74 789.361 1468.59 Q787.532 1466.44 784.384 1466.44 M793.666 1451.78 L793.666 1456.04 Q791.907 1455.21 790.102 1454.77 Q788.319 1454.33 786.56 1454.33 Q781.93 1454.33 779.477 1457.45 Q777.046 1460.58 776.699 1466.9 Q778.065 1464.89 780.125 1463.82 Q782.185 1462.73 784.662 1462.73 Q789.87 1462.73 792.879 1465.9 Q795.912 1469.05 795.912 1474.49 Q795.912 1479.82 792.764 1483.03 Q789.615 1486.25 784.384 1486.25 Q778.389 1486.25 775.217 1481.67 Q772.046 1477.06 772.046 1468.33 Q772.046 1460.14 775.935 1455.28 Q779.824 1450.39 786.375 1450.39 Q788.134 1450.39 789.916 1450.74 Q791.722 1451.09 793.666 1451.78 Z" fill="#000000" fill-rule="evenodd" fill-opacity="1" /><path clip-path="url(#clip620)" d="M801.213 1470.7 L813.689 1470.7 L813.689 1474.49 L801.213 1474.49 L801.213 1470.7 Z" fill="#000000" fill-rule="evenodd" fill-opacity="1" /><path clip-path="url(#clip620)" d="M831.074 1454.1 Q827.462 1454.1 825.634 1457.66 Q823.828 1461.2 823.828 1468.33 Q823.828 1475.44 825.634 1479.01 Q827.462 1482.55 831.074 1482.55 Q834.708 1482.55 836.513 1479.01 Q838.342 1475.44 838.342 1468.33 Q838.342 1461.2 836.513 1457.66 Q834.708 1454.1 831.074 1454.1 M831.074 1450.39 Q836.884 1450.39 839.939 1455 Q843.018 1459.58 843.018 1468.33 Q843.018 1477.06 839.939 1481.67 Q836.884 1486.25 831.074 1486.25 Q825.263 1486.25 822.185 1481.67 Q819.129 1477.06 819.129 1468.33 Q819.129 1459.58 822.185 1455 Q825.263 1450.39 831.074 1450.39 Z" fill="#000000" fill-rule="evenodd" fill-opacity="1" /><path clip-path="url(#clip620)" d="M852.046 1481.64 L859.685 1481.64 L859.685 1455.28 L851.374 1456.95 L851.374 1452.69 L859.638 1451.02 L864.314 1451.02 L864.314 1481.64 L871.953 1481.64 L871.953 1485.58 L852.046 1485.58 L852.046 1481.64 Z" fill="#000000" fill-rule="evenodd" fill-opacity="1" /><path clip-path="url(#clip620)" d="M1055.2 1481.64 L1071.52 1481.64 L1071.52 1485.58 L1049.58 1485.58 L1049.58 1481.64 Q1052.24 1478.89 1056.82 1474.26 Q1061.43 1469.61 1062.61 1468.27 Q1064.86 1465.74 1065.73 1464.01 Q1066.64 1462.25 1066.64 1460.56 Q1066.64 1457.8 1064.69 1456.07 Q1062.77 1454.33 1059.67 1454.33 Q1057.47 1454.33 1055.02 1455.09 Q1052.59 1455.86 1049.81 1457.41 L1049.81 1452.69 Q1052.63 1451.55 1055.09 1450.97 Q1057.54 1450.39 1059.58 1450.39 Q1064.95 1450.39 1068.14 1453.08 Q1071.34 1455.77 1071.34 1460.26 Q1071.34 1462.39 1070.53 1464.31 Q1069.74 1466.2 1067.63 1468.8 Q1067.05 1469.47 1063.95 1472.69 Q1060.85 1475.88 1055.2 1481.64 Z" fill="#000000" fill-rule="evenodd" fill-opacity="1" /><path clip-path="url(#clip620)" d="M1091.34 1454.1 Q1087.73 1454.1 1085.9 1457.66 Q1084.09 1461.2 1084.09 1468.33 Q1084.09 1475.44 1085.9 1479.01 Q1087.73 1482.55 1091.34 1482.55 Q1094.97 1482.55 1096.78 1479.01 Q1098.61 1475.44 1098.61 1468.33 Q1098.61 1461.2 1096.78 1457.66 Q1094.97 1454.1 1091.34 1454.1 M1091.34 1450.39 Q1097.15 1450.39 1100.2 1455 Q1103.28 1459.58 1103.28 1468.33 Q1103.28 1477.06 1100.2 1481.67 Q1097.15 1486.25 1091.34 1486.25 Q1085.53 1486.25 1082.45 1481.67 Q1079.39 1477.06 1079.39 1468.33 Q1079.39 1459.58 1082.45 1455 Q1085.53 1450.39 1091.34 1450.39 Z" fill="#000000" fill-rule="evenodd" fill-opacity="1" /><path clip-path="url(#clip620)" d="M1115.53 1481.64 L1131.85 1481.64 L1131.85 1485.58 L1109.9 1485.58 L1109.9 1481.64 Q1112.56 1478.89 1117.15 1474.26 Q1121.75 1469.61 1122.93 1468.27 Q1125.18 1465.74 1126.06 1464.01 Q1126.96 1462.25 1126.96 1460.56 Q1126.96 1457.8 1125.02 1456.07 Q1123.1 1454.33 1119.99 1454.33 Q1117.79 1454.33 1115.34 1455.09 Q1112.91 1455.86 1110.13 1457.41 L1110.13 1452.69 Q1112.96 1451.55 1115.41 1450.97 Q1117.86 1450.39 1119.9 1450.39 Q1125.27 1450.39 1128.47 1453.08 Q1131.66 1455.77 1131.66 1460.26 Q1131.66 1462.39 1130.85 1464.31 Q1130.06 1466.2 1127.96 1468.8 Q1127.38 1469.47 1124.28 1472.69 Q1121.17 1475.88 1115.53 1481.64 Z" fill="#000000" fill-rule="evenodd" fill-opacity="1" /><path clip-path="url(#clip620)" d="M1151.66 1454.1 Q1148.05 1454.1 1146.22 1457.66 Q1144.42 1461.2 1144.42 1468.33 Q1144.42 1475.44 1146.22 1479.01 Q1148.05 1482.55 1151.66 1482.55 Q1155.29 1482.55 1157.1 1479.01 Q1158.93 1475.44 1158.93 1468.33 Q1158.93 1461.2 1157.1 1457.66 Q1155.29 1454.1 1151.66 1454.1 M1151.66 1450.39 Q1157.47 1450.39 1160.53 1455 Q1163.6 1459.58 1163.6 1468.33 Q1163.6 1477.06 1160.53 1481.67 Q1157.47 1486.25 1151.66 1486.25 Q1145.85 1486.25 1142.77 1481.67 Q1139.72 1477.06 1139.72 1468.33 Q1139.72 1459.58 1142.77 1455 Q1145.85 1450.39 1151.66 1450.39 Z" fill="#000000" fill-rule="evenodd" fill-opacity="1" /><path clip-path="url(#clip620)" d="M1169.07 1470.7 L1181.54 1470.7 L1181.54 1474.49 L1169.07 1474.49 L1169.07 1470.7 Z" fill="#000000" fill-rule="evenodd" fill-opacity="1" /><path clip-path="url(#clip620)" d="M1198.93 1454.1 Q1195.32 1454.1 1193.49 1457.66 Q1191.68 1461.2 1191.68 1468.33 Q1191.68 1475.44 1193.49 1479.01 Q1195.32 1482.55 1198.93 1482.55 Q1202.56 1482.55 1204.37 1479.01 Q1206.2 1475.44 1206.2 1468.33 Q1206.2 1461.2 1204.37 1457.66 Q1202.56 1454.1 1198.93 1454.1 M1198.93 1450.39 Q1204.74 1450.39 1207.79 1455 Q1210.87 1459.58 1210.87 1468.33 Q1210.87 1477.06 1207.79 1481.67 Q1204.74 1486.25 1198.93 1486.25 Q1193.12 1486.25 1190.04 1481.67 Q1186.98 1477.06 1186.98 1468.33 Q1186.98 1459.58 1190.04 1455 Q1193.12 1450.39 1198.93 1450.39 Z" fill="#000000" fill-rule="evenodd" fill-opacity="1" /><path clip-path="url(#clip620)" d="M1229.09 1469.17 Q1225.76 1469.17 1223.84 1470.95 Q1221.94 1472.73 1221.94 1475.86 Q1221.94 1478.98 1223.84 1480.77 Q1225.76 1482.55 1229.09 1482.55 Q1232.42 1482.55 1234.35 1480.77 Q1236.27 1478.96 1236.27 1475.86 Q1236.27 1472.73 1234.35 1470.95 Q1232.45 1469.17 1229.09 1469.17 M1224.41 1467.18 Q1221.41 1466.44 1219.72 1464.38 Q1218.05 1462.32 1218.05 1459.35 Q1218.05 1455.21 1220.99 1452.8 Q1223.95 1450.39 1229.09 1450.39 Q1234.25 1450.39 1237.19 1452.8 Q1240.13 1455.21 1240.13 1459.35 Q1240.13 1462.32 1238.44 1464.38 Q1236.78 1466.44 1233.79 1467.18 Q1237.17 1467.96 1239.04 1470.26 Q1240.94 1472.55 1240.94 1475.86 Q1240.94 1480.88 1237.86 1483.57 Q1234.81 1486.25 1229.09 1486.25 Q1223.37 1486.25 1220.29 1483.57 Q1217.24 1480.88 1217.24 1475.86 Q1217.24 1472.55 1219.14 1470.26 Q1221.03 1467.96 1224.41 1467.18 M1222.7 1459.79 Q1222.7 1462.48 1224.37 1463.98 Q1226.06 1465.49 1229.09 1465.49 Q1232.1 1465.49 1233.79 1463.98 Q1235.5 1462.48 1235.5 1459.79 Q1235.5 1457.11 1233.79 1455.6 Q1232.1 1454.1 1229.09 1454.1 Q1226.06 1454.1 1224.37 1455.6 Q1222.7 1457.11 1222.7 1459.79 Z" fill="#000000" fill-rule="evenodd" fill-opacity="1" /><path clip-path="url(#clip620)" d="M1246.5 1470.7 L1258.97 1470.7 L1258.97 1474.49 L1246.5 1474.49 L1246.5 1470.7 Z" fill="#000000" fill-rule="evenodd" fill-opacity="1" /><path clip-path="url(#clip620)" d="M1276.36 1454.1 Q1272.75 1454.1 1270.92 1457.66 Q1269.11 1461.2 1269.11 1468.33 Q1269.11 1475.44 1270.92 1479.01 Q1272.75 1482.55 1276.36 1482.55 Q1279.99 1482.55 1281.8 1479.01 Q1283.63 1475.44 1283.63 1468.33 Q1283.63 1461.2 1281.8 1457.66 Q1279.99 1454.1 1276.36 1454.1 M1276.36 1450.39 Q1282.17 1450.39 1285.22 1455 Q1288.3 1459.58 1288.3 1468.33 Q1288.3 1477.06 1285.22 1481.67 Q1282.17 1486.25 1276.36 1486.25 Q1270.55 1486.25 1267.47 1481.67 Q1264.41 1477.06 1264.41 1468.33 Q1264.41 1459.58 1267.47 1455 Q1270.55 1450.39 1276.36 1450.39 Z" fill="#000000" fill-rule="evenodd" fill-opacity="1" /><path clip-path="url(#clip620)" d="M1297.33 1481.64 L1304.97 1481.64 L1304.97 1455.28 L1296.66 1456.95 L1296.66 1452.69 L1304.92 1451.02 L1309.6 1451.02 L1309.6 1481.64 L1317.24 1481.64 L1317.24 1485.58 L1297.33 1485.58 L1297.33 1481.64 Z" fill="#000000" fill-rule="evenodd" fill-opacity="1" /><path clip-path="url(#clip620)" d="M1500.49 1481.64 L1516.81 1481.64 L1516.81 1485.58 L1494.86 1485.58 L1494.86 1481.64 Q1497.52 1478.89 1502.11 1474.26 Q1506.71 1469.61 1507.9 1468.27 Q1510.14 1465.74 1511.02 1464.01 Q1511.92 1462.25 1511.92 1460.56 Q1511.92 1457.8 1509.98 1456.07 Q1508.06 1454.33 1504.96 1454.33 Q1502.76 1454.33 1500.3 1455.09 Q1497.87 1455.86 1495.09 1457.41 L1495.09 1452.69 Q1497.92 1451.55 1500.37 1450.97 Q1502.83 1450.39 1504.86 1450.39 Q1510.23 1450.39 1513.43 1453.08 Q1516.62 1455.77 1516.62 1460.26 Q1516.62 1462.39 1515.81 1464.31 Q1515.02 1466.2 1512.92 1468.8 Q1512.34 1469.47 1509.24 1472.69 Q1506.14 1475.88 1500.49 1481.64 Z" fill="#000000" fill-rule="evenodd" fill-opacity="1" /><path clip-path="url(#clip620)" d="M1536.62 1454.1 Q1533.01 1454.1 1531.18 1457.66 Q1529.38 1461.2 1529.38 1468.33 Q1529.38 1475.44 1531.18 1479.01 Q1533.01 1482.55 1536.62 1482.55 Q1540.26 1482.55 1542.06 1479.01 Q1543.89 1475.44 1543.89 1468.33 Q1543.89 1461.2 1542.06 1457.66 Q1540.26 1454.1 1536.62 1454.1 M1536.62 1450.39 Q1542.43 1450.39 1545.49 1455 Q1548.57 1459.58 1548.57 1468.33 Q1548.57 1477.06 1545.49 1481.67 Q1542.43 1486.25 1536.62 1486.25 Q1530.81 1486.25 1527.73 1481.67 Q1524.68 1477.06 1524.68 1468.33 Q1524.68 1459.58 1527.73 1455 Q1530.81 1450.39 1536.62 1450.39 Z" fill="#000000" fill-rule="evenodd" fill-opacity="1" /><path clip-path="url(#clip620)" d="M1560.81 1481.64 L1577.13 1481.64 L1577.13 1485.58 L1555.19 1485.58 L1555.19 1481.64 Q1557.85 1478.89 1562.43 1474.26 Q1567.04 1469.61 1568.22 1468.27 Q1570.46 1465.74 1571.34 1464.01 Q1572.25 1462.25 1572.25 1460.56 Q1572.25 1457.8 1570.3 1456.07 Q1568.38 1454.33 1565.28 1454.33 Q1563.08 1454.33 1560.63 1455.09 Q1558.2 1455.86 1555.42 1457.41 L1555.42 1452.69 Q1558.24 1451.55 1560.7 1450.97 Q1563.15 1450.39 1565.19 1450.39 Q1570.56 1450.39 1573.75 1453.08 Q1576.95 1455.77 1576.95 1460.26 Q1576.95 1462.39 1576.14 1464.31 Q1575.35 1466.2 1573.24 1468.8 Q1572.66 1469.47 1569.56 1472.69 Q1566.46 1475.88 1560.81 1481.64 Z" fill="#000000" fill-rule="evenodd" fill-opacity="1" /><path clip-path="url(#clip620)" d="M1596.95 1454.1 Q1593.33 1454.1 1591.51 1457.66 Q1589.7 1461.2 1589.7 1468.33 Q1589.7 1475.44 1591.51 1479.01 Q1593.33 1482.55 1596.95 1482.55 Q1600.58 1482.55 1602.39 1479.01 Q1604.21 1475.44 1604.21 1468.33 Q1604.21 1461.2 1602.39 1457.66 Q1600.58 1454.1 1596.95 1454.1 M1596.95 1450.39 Q1602.76 1450.39 1605.81 1455 Q1608.89 1459.58 1608.89 1468.33 Q1608.89 1477.06 1605.81 1481.67 Q1602.76 1486.25 1596.95 1486.25 Q1591.14 1486.25 1588.06 1481.67 Q1585 1477.06 1585 1468.33 Q1585 1459.58 1588.06 1455 Q1591.14 1450.39 1596.95 1450.39 Z" fill="#000000" fill-rule="evenodd" fill-opacity="1" /><path clip-path="url(#clip620)" d="M1614.35 1470.7 L1626.83 1470.7 L1626.83 1474.49 L1614.35 1474.49 L1614.35 1470.7 Z" fill="#000000" fill-rule="evenodd" fill-opacity="1" /><path clip-path="url(#clip620)" d="M1635.02 1481.64 L1642.66 1481.64 L1642.66 1455.28 L1634.35 1456.95 L1634.35 1452.69 L1642.62 1451.02 L1647.29 1451.02 L1647.29 1481.64 L1654.93 1481.64 L1654.93 1485.58 L1635.02 1485.58 L1635.02 1481.64 Z" fill="#000000" fill-rule="evenodd" fill-opacity="1" /><path clip-path="url(#clip620)" d="M1674.38 1454.1 Q1670.76 1454.1 1668.94 1457.66 Q1667.13 1461.2 1667.13 1468.33 Q1667.13 1475.44 1668.94 1479.01 Q1670.76 1482.55 1674.38 1482.55 Q1678.01 1482.55 1679.82 1479.01 Q1681.64 1475.44 1681.64 1468.33 Q1681.64 1461.2 1679.82 1457.66 Q1678.01 1454.1 1674.38 1454.1 M1674.38 1450.39 Q1680.19 1450.39 1683.24 1455 Q1686.32 1459.58 1686.32 1468.33 Q1686.32 1477.06 1683.24 1481.67 Q1680.19 1486.25 1674.38 1486.25 Q1668.57 1486.25 1665.49 1481.67 Q1662.43 1477.06 1662.43 1468.33 Q1662.43 1459.58 1665.49 1455 Q1668.57 1450.39 1674.38 1450.39 Z" fill="#000000" fill-rule="evenodd" fill-opacity="1" /><path clip-path="url(#clip620)" d="M1691.78 1470.7 L1704.26 1470.7 L1704.26 1474.49 L1691.78 1474.49 L1691.78 1470.7 Z" fill="#000000" fill-rule="evenodd" fill-opacity="1" /><path clip-path="url(#clip620)" d="M1721.64 1454.1 Q1718.03 1454.1 1716.2 1457.66 Q1714.4 1461.2 1714.4 1468.33 Q1714.4 1475.44 1716.2 1479.01 Q1718.03 1482.55 1721.64 1482.55 Q1725.28 1482.55 1727.08 1479.01 Q1728.91 1475.44 1728.91 1468.33 Q1728.91 1461.2 1727.08 1457.66 Q1725.28 1454.1 1721.64 1454.1 M1721.64 1450.39 Q1727.45 1450.39 1730.51 1455 Q1733.59 1459.58 1733.59 1468.33 Q1733.59 1477.06 1730.51 1481.67 Q1727.45 1486.25 1721.64 1486.25 Q1715.83 1486.25 1712.76 1481.67 Q1709.7 1477.06 1709.7 1468.33 Q1709.7 1459.58 1712.76 1455 Q1715.83 1450.39 1721.64 1450.39 Z" fill="#000000" fill-rule="evenodd" fill-opacity="1" /><path clip-path="url(#clip620)" d="M1742.62 1481.64 L1750.25 1481.64 L1750.25 1455.28 L1741.94 1456.95 L1741.94 1452.69 L1750.21 1451.02 L1754.88 1451.02 L1754.88 1481.64 L1762.52 1481.64 L1762.52 1485.58 L1742.62 1485.58 L1742.62 1481.64 Z" fill="#000000" fill-rule="evenodd" fill-opacity="1" /><path clip-path="url(#clip620)" d="M1945.77 1481.64 L1962.09 1481.64 L1962.09 1485.58 L1940.15 1485.58 L1940.15 1481.64 Q1942.81 1478.89 1947.39 1474.26 Q1952 1469.61 1953.18 1468.27 Q1955.43 1465.74 1956.31 1464.01 Q1957.21 1462.25 1957.21 1460.56 Q1957.21 1457.8 1955.26 1456.07 Q1953.34 1454.33 1950.24 1454.33 Q1948.04 1454.33 1945.59 1455.09 Q1943.16 1455.86 1940.38 1457.41 L1940.38 1452.69 Q1943.2 1451.55 1945.66 1450.97 Q1948.11 1450.39 1950.15 1450.39 Q1955.52 1450.39 1958.71 1453.08 Q1961.91 1455.77 1961.91 1460.26 Q1961.91 1462.39 1961.1 1464.31 Q1960.31 1466.2 1958.2 1468.8 Q1957.62 1469.47 1954.52 1472.69 Q1951.42 1475.88 1945.77 1481.64 Z" fill="#000000" fill-rule="evenodd" fill-opacity="1" /><path clip-path="url(#clip620)" d="M1981.91 1454.1 Q1978.3 1454.1 1976.47 1457.66 Q1974.66 1461.2 1974.66 1468.33 Q1974.66 1475.44 1976.47 1479.01 Q1978.3 1482.55 1981.91 1482.55 Q1985.54 1482.55 1987.35 1479.01 Q1989.18 1475.44 1989.18 1468.33 Q1989.18 1461.2 1987.35 1457.66 Q1985.54 1454.1 1981.91 1454.1 M1981.91 1450.39 Q1987.72 1450.39 1990.77 1455 Q1993.85 1459.58 1993.85 1468.33 Q1993.85 1477.06 1990.77 1481.67 Q1987.72 1486.25 1981.91 1486.25 Q1976.1 1486.25 1973.02 1481.67 Q1969.96 1477.06 1969.96 1468.33 Q1969.96 1459.58 1973.02 1455 Q1976.1 1450.39 1981.91 1450.39 Z" fill="#000000" fill-rule="evenodd" fill-opacity="1" /><path clip-path="url(#clip620)" d="M2006.1 1481.64 L2022.42 1481.64 L2022.42 1485.58 L2000.47 1485.58 L2000.47 1481.64 Q2003.13 1478.89 2007.72 1474.26 Q2012.32 1469.61 2013.5 1468.27 Q2015.75 1465.74 2016.63 1464.01 Q2017.53 1462.25 2017.53 1460.56 Q2017.53 1457.8 2015.59 1456.07 Q2013.67 1454.33 2010.56 1454.33 Q2008.37 1454.33 2005.91 1455.09 Q2003.48 1455.86 2000.7 1457.41 L2000.7 1452.69 Q2003.53 1451.55 2005.98 1450.97 Q2008.43 1450.39 2010.47 1450.39 Q2015.84 1450.39 2019.04 1453.08 Q2022.23 1455.77 2022.23 1460.26 Q2022.23 1462.39 2021.42 1464.31 Q2020.63 1466.2 2018.53 1468.8 Q2017.95 1469.47 2014.85 1472.69 Q2011.74 1475.88 2006.1 1481.64 Z" fill="#000000" fill-rule="evenodd" fill-opacity="1" /><path clip-path="url(#clip620)" d="M2042.23 1454.1 Q2038.62 1454.1 2036.79 1457.66 Q2034.99 1461.2 2034.99 1468.33 Q2034.99 1475.44 2036.79 1479.01 Q2038.62 1482.55 2042.23 1482.55 Q2045.86 1482.55 2047.67 1479.01 Q2049.5 1475.44 2049.5 1468.33 Q2049.5 1461.2 2047.67 1457.66 Q2045.86 1454.1 2042.23 1454.1 M2042.23 1450.39 Q2048.04 1450.39 2051.1 1455 Q2054.18 1459.58 2054.18 1468.33 Q2054.18 1477.06 2051.1 1481.67 Q2048.04 1486.25 2042.23 1486.25 Q2036.42 1486.25 2033.34 1481.67 Q2030.29 1477.06 2030.29 1468.33 Q2030.29 1459.58 2033.34 1455 Q2036.42 1450.39 2042.23 1450.39 Z" fill="#000000" fill-rule="evenodd" fill-opacity="1" /><path clip-path="url(#clip620)" d="M2059.64 1470.7 L2072.11 1470.7 L2072.11 1474.49 L2059.64 1474.49 L2059.64 1470.7 Z" fill="#000000" fill-rule="evenodd" fill-opacity="1" /><path clip-path="url(#clip620)" d="M2080.31 1481.64 L2087.95 1481.64 L2087.95 1455.28 L2079.64 1456.95 L2079.64 1452.69 L2087.9 1451.02 L2092.58 1451.02 L2092.58 1481.64 L2100.22 1481.64 L2100.22 1485.58 L2080.31 1485.58 L2080.31 1481.64 Z" fill="#000000" fill-rule="evenodd" fill-opacity="1" /><path clip-path="url(#clip620)" d="M2113.69 1481.64 L2130.01 1481.64 L2130.01 1485.58 L2108.06 1485.58 L2108.06 1481.64 Q2110.73 1478.89 2115.31 1474.26 Q2119.92 1469.61 2121.1 1468.27 Q2123.34 1465.74 2124.22 1464.01 Q2125.12 1462.25 2125.12 1460.56 Q2125.12 1457.8 2123.18 1456.07 Q2121.26 1454.33 2118.16 1454.33 Q2115.96 1454.33 2113.5 1455.09 Q2111.07 1455.86 2108.3 1457.41 L2108.3 1452.69 Q2111.12 1451.55 2113.57 1450.97 Q2116.03 1450.39 2118.06 1450.39 Q2123.43 1450.39 2126.63 1453.08 Q2129.82 1455.77 2129.82 1460.26 Q2129.82 1462.39 2129.01 1464.31 Q2128.23 1466.2 2126.12 1468.8 Q2125.54 1469.47 2122.44 1472.69 Q2119.34 1475.88 2113.69 1481.64 Z" fill="#000000" fill-rule="evenodd" fill-opacity="1" /><path clip-path="url(#clip620)" d="M2137.07 1470.7 L2149.54 1470.7 L2149.54 1474.49 L2137.07 1474.49 L2137.07 1470.7 Z" fill="#000000" fill-rule="evenodd" fill-opacity="1" /><path clip-path="url(#clip620)" d="M2166.93 1454.1 Q2163.32 1454.1 2161.49 1457.66 Q2159.68 1461.2 2159.68 1468.33 Q2159.68 1475.44 2161.49 1479.01 Q2163.32 1482.55 2166.93 1482.55 Q2170.56 1482.55 2172.37 1479.01 Q2174.2 1475.44 2174.2 1468.33 Q2174.2 1461.2 2172.37 1457.66 Q2170.56 1454.1 2166.93 1454.1 M2166.93 1450.39 Q2172.74 1450.39 2175.79 1455 Q2178.87 1459.58 2178.87 1468.33 Q2178.87 1477.06 2175.79 1481.67 Q2172.74 1486.25 2166.93 1486.25 Q2161.12 1486.25 2158.04 1481.67 Q2154.98 1477.06 2154.98 1468.33 Q2154.98 1459.58 2158.04 1455 Q2161.12 1450.39 2166.93 1450.39 Z" fill="#000000" fill-rule="evenodd" fill-opacity="1" /><path clip-path="url(#clip620)" d="M2187.9 1481.64 L2195.54 1481.64 L2195.54 1455.28 L2187.23 1456.95 L2187.23 1452.69 L2195.49 1451.02 L2200.17 1451.02 L2200.17 1481.64 L2207.81 1481.64 L2207.81 1485.58 L2187.9 1485.58 L2187.9 1481.64 Z" fill="#000000" fill-rule="evenodd" fill-opacity="1" /><path clip-path="url(#clip620)" d="M1305.03 1531.91 Q1305.03 1532.81 1304.61 1533.04 Q1304.19 1533.23 1303.03 1533.23 L1296.84 1533.23 L1291.95 1552.69 Q1291.56 1554.39 1291.56 1555.84 Q1291.56 1557.45 1292.05 1558.16 Q1292.56 1558.87 1293.62 1558.87 Q1295.72 1558.87 1297.97 1556.97 Q1300.26 1555.07 1302.19 1550.43 Q1302.45 1549.82 1302.58 1549.69 Q1302.74 1549.53 1303.16 1549.53 Q1303.96 1549.53 1303.96 1550.17 Q1303.96 1550.4 1303.51 1551.43 Q1303.09 1552.46 1302.16 1553.97 Q1301.26 1555.49 1300.07 1556.9 Q1298.91 1558.32 1297.13 1559.35 Q1295.36 1560.35 1293.46 1560.35 Q1290.79 1560.35 1289.08 1558.64 Q1287.41 1556.94 1287.41 1554.26 Q1287.41 1553.39 1288.08 1550.62 Q1288.76 1547.82 1292.43 1533.23 L1286.6 1533.23 Q1285.8 1533.23 1285.48 1533.2 Q1285.19 1533.17 1284.96 1533.01 Q1284.77 1532.81 1284.77 1532.43 Q1284.77 1531.82 1285.03 1531.56 Q1285.28 1531.27 1285.6 1531.24 Q1285.96 1531.17 1286.76 1531.17 L1292.95 1531.17 L1295.52 1520.71 Q1295.78 1519.67 1296.43 1519.09 Q1297.1 1518.48 1297.49 1518.42 Q1297.88 1518.32 1298.17 1518.32 Q1299.03 1518.32 1299.55 1518.81 Q1300.07 1519.26 1300.07 1520.09 Q1300.07 1520.54 1297.36 1531.17 L1303.16 1531.17 Q1303.9 1531.17 1304.19 1531.2 Q1304.51 1531.24 1304.77 1531.4 Q1305.03 1531.56 1305.03 1531.91 Z" fill="#000000" fill-rule="evenodd" fill-opacity="1" /><polyline clip-path="url(#clip622)" style="stroke:#000000; stroke-linecap:butt; stroke-linejoin:round; stroke-width:2; stroke-opacity:0.1; fill:none" points="
  240.352,1400.31 2352.76,1400.31 
  "/>
<polyline clip-path="url(#clip622)" style="stroke:#000000; stroke-linecap:butt; stroke-linejoin:round; stroke-width:2; stroke-opacity:0.1; fill:none" points="
  240.352,1017.73 2352.76,1017.73 
  "/>
<polyline clip-path="url(#clip622)" style="stroke:#000000; stroke-linecap:butt; stroke-linejoin:round; stroke-width:2; stroke-opacity:0.1; fill:none" points="
  240.352,635.159 2352.76,635.159 
  "/>
<polyline clip-path="url(#clip622)" style="stroke:#000000; stroke-linecap:butt; stroke-linejoin:round; stroke-width:2; stroke-opacity:0.1; fill:none" points="
  240.352,252.586 2352.76,252.586 
  "/>
<polyline clip-path="url(#clip620)" style="stroke:#000000; stroke-linecap:butt; stroke-linejoin:round; stroke-width:4; stroke-opacity:1; fill:none" points="
  240.352,1423.18 240.352,47.2441 
  "/>
<polyline clip-path="url(#clip620)" style="stroke:#000000; stroke-linecap:butt; stroke-linejoin:round; stroke-width:4; stroke-opacity:1; fill:none" points="
  240.352,1400.31 259.25,1400.31 
  "/>
<polyline clip-path="url(#clip620)" style="stroke:#000000; stroke-linecap:butt; stroke-linejoin:round; stroke-width:4; stroke-opacity:1; fill:none" points="
  240.352,1017.73 259.25,1017.73 
  "/>
<polyline clip-path="url(#clip620)" style="stroke:#000000; stroke-linecap:butt; stroke-linejoin:round; stroke-width:4; stroke-opacity:1; fill:none" points="
  240.352,635.159 259.25,635.159 
  "/>
<polyline clip-path="url(#clip620)" style="stroke:#000000; stroke-linecap:butt; stroke-linejoin:round; stroke-width:4; stroke-opacity:1; fill:none" points="
  240.352,252.586 259.25,252.586 
  "/>
<path clip-path="url(#clip620)" d="M157.177 1386.11 Q153.566 1386.11 151.737 1389.67 Q149.931 1393.21 149.931 1400.34 Q149.931 1407.45 151.737 1411.01 Q153.566 1414.55 157.177 1414.55 Q160.811 1414.55 162.616 1411.01 Q164.445 1407.45 164.445 1400.34 Q164.445 1393.21 162.616 1389.67 Q160.811 1386.11 157.177 1386.11 M157.177 1382.4 Q162.987 1382.4 166.042 1387.01 Q169.121 1391.59 169.121 1400.34 Q169.121 1409.07 166.042 1413.67 Q162.987 1418.26 157.177 1418.26 Q151.366 1418.26 148.288 1413.67 Q145.232 1409.07 145.232 1400.34 Q145.232 1391.59 148.288 1387.01 Q151.366 1382.4 157.177 1382.4 Z" fill="#000000" fill-rule="evenodd" fill-opacity="1" /><path clip-path="url(#clip620)" d="M176.922 1383.03 L181.598 1383.03 L181.598 1397.63 L197.107 1383.03 L203.125 1383.03 L185.973 1399.14 L204.352 1417.59 L198.195 1417.59 L181.598 1400.94 L181.598 1417.59 L176.922 1417.59 L176.922 1383.03 Z" fill="#000000" fill-rule="evenodd" fill-opacity="1" /><path clip-path="url(#clip620)" d="M121.043 1031.08 L137.362 1031.08 L137.362 1035.01 L115.418 1035.01 L115.418 1031.08 Q118.08 1028.32 122.663 1023.69 Q127.269 1019.04 128.45 1017.7 Q130.695 1015.18 131.575 1013.44 Q132.478 1011.68 132.478 1009.99 Q132.478 1007.24 130.533 1005.5 Q128.612 1003.76 125.51 1003.76 Q123.311 1003.76 120.857 1004.53 Q118.427 1005.29 115.649 1006.84 L115.649 1002.12 Q118.473 1000.99 120.927 1000.41 Q123.38 999.828 125.418 999.828 Q130.788 999.828 133.982 1002.51 Q137.177 1005.2 137.177 1009.69 Q137.177 1011.82 136.367 1013.74 Q135.579 1015.64 133.473 1018.23 Q132.894 1018.9 129.792 1022.12 Q126.691 1025.31 121.043 1031.08 Z" fill="#000000" fill-rule="evenodd" fill-opacity="1" /><path clip-path="url(#clip620)" d="M157.177 1003.53 Q153.566 1003.53 151.737 1007.1 Q149.931 1010.64 149.931 1017.77 Q149.931 1024.87 151.737 1028.44 Q153.566 1031.98 157.177 1031.98 Q160.811 1031.98 162.616 1028.44 Q164.445 1024.87 164.445 1017.77 Q164.445 1010.64 162.616 1007.1 Q160.811 1003.53 157.177 1003.53 M157.177 999.828 Q162.987 999.828 166.042 1004.43 Q169.121 1009.02 169.121 1017.77 Q169.121 1026.49 166.042 1031.1 Q162.987 1035.68 157.177 1035.68 Q151.366 1035.68 148.288 1031.1 Q145.232 1026.49 145.232 1017.77 Q145.232 1009.02 148.288 1004.43 Q151.366 999.828 157.177 999.828 Z" fill="#000000" fill-rule="evenodd" fill-opacity="1" /><path clip-path="url(#clip620)" d="M176.922 1000.45 L181.598 1000.45 L181.598 1015.06 L197.107 1000.45 L203.125 1000.45 L185.973 1016.56 L204.352 1035.01 L198.195 1035.01 L181.598 1018.37 L181.598 1035.01 L176.922 1035.01 L176.922 1000.45 Z" fill="#000000" fill-rule="evenodd" fill-opacity="1" /><path clip-path="url(#clip620)" d="M129.862 621.953 L118.056 640.402 L129.862 640.402 L129.862 621.953 M128.635 617.879 L134.515 617.879 L134.515 640.402 L139.445 640.402 L139.445 644.291 L134.515 644.291 L134.515 652.439 L129.862 652.439 L129.862 644.291 L114.26 644.291 L114.26 639.777 L128.635 617.879 Z" fill="#000000" fill-rule="evenodd" fill-opacity="1" /><path clip-path="url(#clip620)" d="M157.177 620.958 Q153.566 620.958 151.737 624.523 Q149.931 628.065 149.931 635.194 Q149.931 642.301 151.737 645.865 Q153.566 649.407 157.177 649.407 Q160.811 649.407 162.616 645.865 Q164.445 642.301 164.445 635.194 Q164.445 628.065 162.616 624.523 Q160.811 620.958 157.177 620.958 M157.177 617.254 Q162.987 617.254 166.042 621.861 Q169.121 626.444 169.121 635.194 Q169.121 643.921 166.042 648.527 Q162.987 653.111 157.177 653.111 Q151.366 653.111 148.288 648.527 Q145.232 643.921 145.232 635.194 Q145.232 626.444 148.288 621.861 Q151.366 617.254 157.177 617.254 Z" fill="#000000" fill-rule="evenodd" fill-opacity="1" /><path clip-path="url(#clip620)" d="M176.922 617.879 L181.598 617.879 L181.598 632.486 L197.107 617.879 L203.125 617.879 L185.973 633.99 L204.352 652.439 L198.195 652.439 L181.598 635.796 L181.598 652.439 L176.922 652.439 L176.922 617.879 Z" fill="#000000" fill-rule="evenodd" fill-opacity="1" /><path clip-path="url(#clip620)" d="M127.593 250.723 Q124.445 250.723 122.593 252.875 Q120.765 255.028 120.765 258.778 Q120.765 262.505 122.593 264.681 Q124.445 266.834 127.593 266.834 Q130.742 266.834 132.57 264.681 Q134.422 262.505 134.422 258.778 Q134.422 255.028 132.57 252.875 Q130.742 250.723 127.593 250.723 M136.876 236.07 L136.876 240.329 Q135.117 239.496 133.311 239.056 Q131.529 238.616 129.769 238.616 Q125.14 238.616 122.686 241.741 Q120.255 244.866 119.908 251.186 Q121.274 249.172 123.334 248.107 Q125.394 247.019 127.871 247.019 Q133.08 247.019 136.089 250.19 Q139.121 253.338 139.121 258.778 Q139.121 264.102 135.973 267.32 Q132.825 270.537 127.593 270.537 Q121.598 270.537 118.427 265.954 Q115.256 261.348 115.256 252.621 Q115.256 244.426 119.144 239.565 Q123.033 234.681 129.584 234.681 Q131.343 234.681 133.126 235.028 Q134.931 235.375 136.876 236.07 Z" fill="#000000" fill-rule="evenodd" fill-opacity="1" /><path clip-path="url(#clip620)" d="M157.177 238.385 Q153.566 238.385 151.737 241.949 Q149.931 245.491 149.931 252.621 Q149.931 259.727 151.737 263.292 Q153.566 266.834 157.177 266.834 Q160.811 266.834 162.616 263.292 Q164.445 259.727 164.445 252.621 Q164.445 245.491 162.616 241.949 Q160.811 238.385 157.177 238.385 M157.177 234.681 Q162.987 234.681 166.042 239.287 Q169.121 243.871 169.121 252.621 Q169.121 261.348 166.042 265.954 Q162.987 270.537 157.177 270.537 Q151.366 270.537 148.288 265.954 Q145.232 261.348 145.232 252.621 Q145.232 243.871 148.288 239.287 Q151.366 234.681 157.177 234.681 Z" fill="#000000" fill-rule="evenodd" fill-opacity="1" /><path clip-path="url(#clip620)" d="M176.922 235.306 L181.598 235.306 L181.598 249.912 L197.107 235.306 L203.125 235.306 L185.973 251.417 L204.352 269.866 L198.195 269.866 L181.598 253.223 L181.598 269.866 L176.922 269.866 L176.922 235.306 Z" fill="#000000" fill-rule="evenodd" fill-opacity="1" /><path clip-path="url(#clip620)" d="M28.3562 952.267 L28.3562 946.41 L64.0042 946.41 L64.0042 952.267 L28.3562 952.267 M14.479 952.267 L14.479 946.41 L21.895 946.41 L21.895 952.267 L14.479 952.267 Z" fill="#000000" fill-rule="evenodd" fill-opacity="1" /><path clip-path="url(#clip620)" d="M42.4881 904.524 L64.0042 904.524 L64.0042 910.38 L42.679 910.38 Q37.6183 910.38 35.1038 912.354 Q32.5894 914.327 32.5894 918.274 Q32.5894 923.016 35.6131 925.753 Q38.6368 928.491 43.8567 928.491 L64.0042 928.491 L64.0042 934.379 L28.3562 934.379 L28.3562 928.491 L33.8944 928.491 Q30.6797 926.39 29.0883 923.557 Q27.4968 920.693 27.4968 916.969 Q27.4968 910.826 31.3163 907.675 Q35.1038 904.524 42.4881 904.524 Z" fill="#000000" fill-rule="evenodd" fill-opacity="1" /><path clip-path="url(#clip620)" d="M14.479 874.796 L19.3487 874.796 L19.3487 880.398 Q19.3487 883.549 20.6219 884.79 Q21.895 886 25.2052 886 L28.3562 886 L28.3562 876.356 L32.9077 876.356 L32.9077 886 L64.0042 886 L64.0042 891.888 L32.9077 891.888 L32.9077 897.49 L28.3562 897.49 L28.3562 891.888 L25.8736 891.888 Q19.9216 891.888 17.2162 889.119 Q14.479 886.35 14.479 880.334 L14.479 874.796 Z" fill="#000000" fill-rule="evenodd" fill-opacity="1" /><path clip-path="url(#clip620)" d="M44.7161 839.403 L47.5806 839.403 L47.5806 866.33 Q53.6281 865.948 56.8109 862.701 Q59.9619 859.423 59.9619 853.598 Q59.9619 850.224 59.1344 847.073 Q58.3069 843.89 56.6518 840.771 L62.1899 840.771 Q63.5267 843.922 64.227 847.232 Q64.9272 850.543 64.9272 853.948 Q64.9272 862.478 59.9619 867.475 Q54.9967 872.441 46.5303 872.441 Q37.7774 872.441 32.6531 867.73 Q27.4968 862.988 27.4968 854.967 Q27.4968 847.774 32.1438 843.604 Q36.7589 839.403 44.7161 839.403 M42.9973 845.259 Q38.1912 845.323 35.3266 847.965 Q32.4621 850.574 32.4621 854.903 Q32.4621 859.805 35.2312 862.765 Q38.0002 865.693 43.0292 866.139 L42.9973 845.259 Z" fill="#000000" fill-rule="evenodd" fill-opacity="1" /><path clip-path="url(#clip620)" d="M29.7248 804.137 L35.1993 804.137 Q33.8307 806.619 33.1623 809.134 Q32.4621 811.616 32.4621 814.163 Q32.4621 819.86 36.0905 823.011 Q39.6872 826.162 46.212 826.162 Q52.7369 826.162 56.3653 823.011 Q59.9619 819.86 59.9619 814.163 Q59.9619 811.616 59.2935 809.134 Q58.5933 806.619 57.2247 804.137 L62.6355 804.137 Q63.7814 806.587 64.3543 809.229 Q64.9272 811.839 64.9272 814.799 Q64.9272 822.852 59.8664 827.594 Q54.8057 832.337 46.212 832.337 Q37.491 832.337 32.4939 827.562 Q27.4968 822.756 27.4968 814.417 Q27.4968 811.712 28.0697 809.134 Q28.6108 806.556 29.7248 804.137 Z" fill="#000000" fill-rule="evenodd" fill-opacity="1" /><path clip-path="url(#clip620)" d="M18.2347 788.159 L28.3562 788.159 L28.3562 776.096 L32.9077 776.096 L32.9077 788.159 L52.2594 788.159 Q56.6199 788.159 57.8613 786.981 Q59.1026 785.772 59.1026 782.111 L59.1026 776.096 L64.0042 776.096 L64.0042 782.111 Q64.0042 788.891 61.4897 791.469 Q58.9434 794.047 52.2594 794.047 L32.9077 794.047 L32.9077 798.344 L28.3562 798.344 L28.3562 794.047 L18.2347 794.047 L18.2347 788.159 Z" fill="#000000" fill-rule="evenodd" fill-opacity="1" /><path clip-path="url(#clip620)" d="M44.7161 737.901 L47.5806 737.901 L47.5806 764.828 Q53.6281 764.446 56.8109 761.2 Q59.9619 757.922 59.9619 752.097 Q59.9619 748.723 59.1344 745.572 Q58.3069 742.389 56.6518 739.27 L62.1899 739.27 Q63.5267 742.421 64.227 745.731 Q64.9272 749.041 64.9272 752.447 Q64.9272 760.977 59.9619 765.974 Q54.9967 770.939 46.5303 770.939 Q37.7774 770.939 32.6531 766.229 Q27.4968 761.486 27.4968 753.466 Q27.4968 746.272 32.1438 742.103 Q36.7589 737.901 44.7161 737.901 M42.9973 743.758 Q38.1912 743.822 35.3266 746.463 Q32.4621 749.073 32.4621 753.402 Q32.4621 758.304 35.2312 761.264 Q38.0002 764.192 43.0292 764.637 L42.9973 743.758 Z" fill="#000000" fill-rule="evenodd" fill-opacity="1" /><path clip-path="url(#clip620)" d="M33.7671 704.832 L14.479 704.832 L14.479 698.975 L64.0042 698.975 L64.0042 704.832 L58.657 704.832 Q61.8398 706.678 63.3994 709.51 Q64.9272 712.311 64.9272 716.258 Q64.9272 722.719 59.771 726.793 Q54.6147 730.836 46.212 730.836 Q37.8093 730.836 32.6531 726.793 Q27.4968 722.719 27.4968 716.258 Q27.4968 712.311 29.0564 709.51 Q30.5842 706.678 33.7671 704.832 M46.212 724.788 Q52.6732 724.788 56.3653 722.146 Q60.0256 719.473 60.0256 714.826 Q60.0256 710.179 56.3653 707.505 Q52.6732 704.832 46.212 704.832 Q39.7508 704.832 36.0905 707.505 Q32.3984 710.179 32.3984 714.826 Q32.3984 719.473 36.0905 722.146 Q39.7508 724.788 46.212 724.788 Z" fill="#000000" fill-rule="evenodd" fill-opacity="1" /><path clip-path="url(#clip620)" d="M33.7671 642.734 L14.479 642.734 L14.479 636.878 L64.0042 636.878 L64.0042 642.734 L58.657 642.734 Q61.8398 644.58 63.3994 647.413 Q64.9272 650.214 64.9272 654.161 Q64.9272 660.622 59.771 664.696 Q54.6147 668.738 46.212 668.738 Q37.8093 668.738 32.6531 664.696 Q27.4968 660.622 27.4968 654.161 Q27.4968 650.214 29.0564 647.413 Q30.5842 644.58 33.7671 642.734 M46.212 662.691 Q52.6732 662.691 56.3653 660.049 Q60.0256 657.375 60.0256 652.728 Q60.0256 648.081 56.3653 645.408 Q52.6732 642.734 46.212 642.734 Q39.7508 642.734 36.0905 645.408 Q32.3984 648.081 32.3984 652.728 Q32.3984 657.375 36.0905 660.049 Q39.7508 662.691 46.212 662.691 Z" fill="#000000" fill-rule="evenodd" fill-opacity="1" /><path clip-path="url(#clip620)" d="M46.0847 608.614 Q46.0847 615.712 47.7079 618.449 Q49.3312 621.186 53.2461 621.186 Q56.3653 621.186 58.2114 619.149 Q60.0256 617.08 60.0256 613.547 Q60.0256 608.678 56.5881 605.749 Q53.1188 602.789 47.3897 602.789 L46.0847 602.789 L46.0847 608.614 M43.6657 596.933 L64.0042 596.933 L64.0042 602.789 L58.5933 602.789 Q61.8398 604.795 63.3994 607.786 Q64.9272 610.778 64.9272 615.107 Q64.9272 620.582 61.8716 623.828 Q58.7843 627.043 53.6281 627.043 Q47.6125 627.043 44.5569 623.032 Q41.5014 618.99 41.5014 611.001 L41.5014 602.789 L40.9285 602.789 Q36.8862 602.789 34.6901 605.463 Q32.4621 608.105 32.4621 612.911 Q32.4621 615.966 33.1941 618.863 Q33.9262 621.759 35.3903 624.433 L29.9795 624.433 Q28.7381 621.218 28.1334 618.194 Q27.4968 615.171 27.4968 612.306 Q27.4968 604.572 31.5072 600.752 Q35.5176 596.933 43.6657 596.933 Z" fill="#000000" fill-rule="evenodd" fill-opacity="1" /><path clip-path="url(#clip620)" d="M28.3562 584.87 L28.3562 579.013 L64.0042 579.013 L64.0042 584.87 L28.3562 584.87 M14.479 584.87 L14.479 579.013 L21.895 579.013 L21.895 584.87 L14.479 584.87 Z" fill="#000000" fill-rule="evenodd" fill-opacity="1" /><path clip-path="url(#clip620)" d="M14.479 566.759 L14.479 560.903 L64.0042 560.903 L64.0042 566.759 L14.479 566.759 Z" fill="#000000" fill-rule="evenodd" fill-opacity="1" /><path clip-path="url(#clip620)" d="M67.3143 533.817 Q73.68 536.3 75.6216 538.655 Q77.5631 541.01 77.5631 544.957 L77.5631 549.636 L72.6615 549.636 L72.6615 546.198 Q72.6615 543.779 71.5157 542.442 Q70.3699 541.106 66.1048 539.482 L63.4312 538.432 L28.3562 552.85 L28.3562 546.644 L56.238 535.504 L28.3562 524.364 L28.3562 518.157 L67.3143 533.817 Z" fill="#000000" fill-rule="evenodd" fill-opacity="1" /><polyline clip-path="url(#clip622)" style="stroke:#009af9; stroke-linecap:butt; stroke-linejoin:round; stroke-width:4; stroke-opacity:1; fill:none" points="
  300.137,1377.98 307.437,1379 314.737,1377.94 322.037,1380.41 329.336,1384.24 336.636,1365.47 343.936,1358.74 351.236,1363.56 358.535,1366.62 365.835,1380.14 
  373.135,1372.28 380.435,1373.51 387.734,1363.62 395.034,1338.27 402.334,1360.46 409.634,1337.26 416.933,1347.17 424.233,1363.39 431.533,1365.57 438.833,1348.22 
  446.132,1347.15 453.432,1326.22 460.732,1325.46 468.032,1298.98 475.331,1329.24 482.631,1321.02 489.931,1281.06 497.231,1283.35 504.53,1258.52 511.83,1295.94 
  519.13,1304.72 526.43,1319.26 533.729,1267.15 541.029,1254.26 548.329,1198.59 555.629,1214.15 562.929,1201.29 570.228,1206.05 577.528,1280.54 584.828,1281.25 
  592.128,1216.44 599.427,1176.63 606.727,1129.94 614.027,1104.83 621.327,1131.38 628.626,1253.7 635.926,1121.81 643.226,1065.75 650.526,1014.81 657.825,1057.94 
  665.125,977.276 672.425,1075.04 679.725,1123.5 687.024,1155.33 694.324,1087.99 701.624,1013.91 708.924,858.257 716.223,885.936 723.523,782.068 730.823,1148.17 
  738.123,1114.1 745.422,789.968 752.722,901.335 760.022,789.107 767.322,786.219 774.621,945.235 781.921,1056.24 789.221,1068.67 796.521,793.927 803.82,753.949 
  811.12,851.581 818.42,935.709 825.72,996.73 833.02,1076.55 840.319,930.104 847.619,692.182 854.919,808.752 862.219,919.794 869.518,326.958 876.818,847.947 
  884.118,1083.34 891.418,893.224 898.717,643.461 906.017,615.227 913.317,602.22 920.617,541.716 927.916,694.076 935.216,771.929 942.516,987.471 949.816,641.261 
  957.115,504.606 964.415,550.974 971.715,580.566 979.015,763.379 986.314,909.694 993.614,932.457 1000.91,507.112 1008.21,534.696 1015.51,578.5 1022.81,552.696 
  1030.11,731.817 1037.41,947.76 1044.71,962.394 1052.01,579.265 1059.31,632.443 1066.61,564.709 1073.91,738.11 1081.21,908.202 1088.51,951.949 1095.81,965.072 
  1103.11,502.559 1110.41,134.945 1117.71,303.736 1125.01,311.827 1132.31,491.025 1139.61,997.724 1146.91,833.371 1154.21,367.282 1161.51,339.602 1168.81,289.791 
  1176.11,381.437 1183.41,605.682 1190.71,939.956 1198.01,1015.71 1205.31,323.706 1212.61,326.461 1219.91,366.975 1227.21,463.652 1234.51,504.568 1241.81,965.512 
  1249.11,923.122 1256.41,426.102 1263.71,327.092 1271,238.947 1278.3,457.664 1285.6,692.373 1292.9,963.178 1300.2,930.678 1307.5,457.951 1314.8,470.595 
  1322.1,578.271 1329.4,781.953 1336.7,522.147 1344,981.981 1351.3,950.457 1358.6,514.515 1365.9,479.223 1373.2,591.929 1380.5,556.961 1387.8,686.979 
  1395.1,1122.29 1402.4,439.569 1409.7,552.351 1417,511.722 1424.3,504.912 1431.6,649.276 1438.9,747.368 1446.2,1126.02 1453.5,1211.91 1460.8,1043.35 
  1468.1,689.447 1475.4,621.559 1482.7,603.922 1490,811.143 1497.3,1132.12 1504.6,1006.05 1511.9,739.372 1519.2,686.864 1526.5,703.927 1533.8,640.305 
  1541.1,834.901 1548.4,1104.92 1555.7,1062.97 1563,731.434 1570.29,774.301 1577.59,787.921 1584.89,782.24 1592.19,927.503 1599.49,1136.75 1606.79,1077.4 
  1614.09,771.968 1621.39,770.954 1628.69,716.361 1635.99,772.006 1643.29,960.194 1650.59,1233.6 1657.89,901.947 1665.19,797.256 1672.49,808.503 1679.79,887.084 
  1687.09,869.811 1694.39,946.115 1701.69,1167.11 1708.99,1235.11 1716.29,1144.82 1723.59,867.63 1730.89,818.297 1738.19,853.303 1745.49,1002.89 1752.79,1169.79 
  1760.09,1083.17 1767.39,945.694 1774.69,905.964 1781.99,926.355 1789.29,826.427 1796.59,922.434 1803.89,1176.56 1811.19,1033.61 1818.49,826.79 1825.79,857.989 
  1833.09,889.571 1840.39,934.466 1847.69,1148.38 1854.99,1205.42 1862.29,1242.51 1869.58,1146.51 1876.88,929.167 1884.18,944.183 1891.48,1013.98 1898.78,1060.81 
  1906.08,1199.42 1913.38,1143.71 1920.68,512.277 1927.98,898.293 1935.28,751.424 1942.58,659.682 1949.88,897.643 1957.18,1134.3 1964.48,1099.14 1971.78,721.43 
  1979.08,735.547 1986.38,714.314 1993.68,658.688 2000.98,822.2 2008.28,1057.41 2015.58,1052.97 2022.88,739.736 2030.18,546.957 2037.48,617.905 2044.78,759.343 
  2052.08,415.467 2059.38,998.375 2066.68,947.052 2073.98,405.902 2081.28,473.044 2088.58,441.214 2095.88,488.423 2103.18,629.765 2110.48,894.736 2117.78,883.373 
  2125.08,486.032 2132.38,356.053 2139.68,375.966 2146.98,395.114 2154.28,590.685 2161.58,978.921 2168.88,876.563 2176.17,481.518 2183.47,135.442 2190.77,86.1857 
  2198.07,389.299 2205.37,477.501 2212.67,931.96 2219.97,871.494 2227.27,316.38 2234.57,526.528 2241.87,286.807 2249.17,995.104 2256.47,1064.92 2263.77,1063.37 
  2271.07,875.473 2278.37,322.004 2285.67,336.752 2292.97,358.387 
  "/>
</svg>
