<?xml version="1.0" encoding="utf-8"?>
<svg xmlns="http://www.w3.org/2000/svg" xmlns:xlink="http://www.w3.org/1999/xlink" width="600" height="400" viewBox="0 0 2400 1600">
<defs>
  <clipPath id="clip710">
    <rect x="0" y="0" width="2400" height="1600"/>
  </clipPath>
</defs>
<path clip-path="url(#clip710)" d="
M0 1600 L2400 1600 L2400 0 L0 0  Z
  " fill="#ffffff" fill-rule="evenodd" fill-opacity="1"/>
<defs>
  <clipPath id="clip711">
    <rect x="480" y="0" width="1681" height="1600"/>
  </clipPath>
</defs>
<defs>
  <clipPath id="clip712">
    <rect x="249" y="47" width="2104" height="1377"/>
  </clipPath>
</defs>
<path clip-path="url(#clip710)" d="
M219.866 1423.18 L2352.76 1423.18 L2352.76 47.2441 L219.866 47.2441  Z
  " fill="#ffffff" fill-rule="evenodd" fill-opacity="1"/>
<defs>
  <clipPath id="clip713">
    <rect x="219" y="47" width="2134" height="1377"/>
  </clipPath>
</defs>
<polyline clip-path="url(#clip713)" style="stroke:#000000; stroke-linecap:butt; stroke-linejoin:round; stroke-width:2; stroke-opacity:0.1; fill:none" points="
  280.231,1423.18 280.231,47.2441 
  "/>
<polyline clip-path="url(#clip713)" style="stroke:#000000; stroke-linecap:butt; stroke-linejoin:round; stroke-width:2; stroke-opacity:0.1; fill:none" points="
  783.271,1423.18 783.271,47.2441 
  "/>
<polyline clip-path="url(#clip713)" style="stroke:#000000; stroke-linecap:butt; stroke-linejoin:round; stroke-width:2; stroke-opacity:0.1; fill:none" points="
  1286.31,1423.18 1286.31,47.2441 
  "/>
<polyline clip-path="url(#clip713)" style="stroke:#000000; stroke-linecap:butt; stroke-linejoin:round; stroke-width:2; stroke-opacity:0.1; fill:none" points="
  1789.35,1423.18 1789.35,47.2441 
  "/>
<polyline clip-path="url(#clip713)" style="stroke:#000000; stroke-linecap:butt; stroke-linejoin:round; stroke-width:2; stroke-opacity:0.1; fill:none" points="
  2292.39,1423.18 2292.39,47.2441 
  "/>
<polyline clip-path="url(#clip710)" style="stroke:#000000; stroke-linecap:butt; stroke-linejoin:round; stroke-width:4; stroke-opacity:1; fill:none" points="
  219.866,1423.18 2352.76,1423.18 
  "/>
<polyline clip-path="url(#clip710)" style="stroke:#000000; stroke-linecap:butt; stroke-linejoin:round; stroke-width:4; stroke-opacity:1; fill:none" points="
  280.231,1423.18 280.231,1404.28 
  "/>
<polyline clip-path="url(#clip710)" style="stroke:#000000; stroke-linecap:butt; stroke-linejoin:round; stroke-width:4; stroke-opacity:1; fill:none" points="
  783.271,1423.18 783.271,1404.28 
  "/>
<polyline clip-path="url(#clip710)" style="stroke:#000000; stroke-linecap:butt; stroke-linejoin:round; stroke-width:4; stroke-opacity:1; fill:none" points="
  1286.31,1423.18 1286.31,1404.28 
  "/>
<polyline clip-path="url(#clip710)" style="stroke:#000000; stroke-linecap:butt; stroke-linejoin:round; stroke-width:4; stroke-opacity:1; fill:none" points="
  1789.35,1423.18 1789.35,1404.28 
  "/>
<polyline clip-path="url(#clip710)" style="stroke:#000000; stroke-linecap:butt; stroke-linejoin:round; stroke-width:4; stroke-opacity:1; fill:none" points="
  2292.39,1423.18 2292.39,1404.28 
  "/>
<path clip-path="url(#clip710)" d="M242.535 1454.1 Q238.923 1454.1 237.095 1457.66 Q235.289 1461.2 235.289 1468.33 Q235.289 1475.44 237.095 1479.01 Q238.923 1482.55 242.535 1482.55 Q246.169 1482.55 247.974 1479.01 Q249.803 1475.44 249.803 1468.33 Q249.803 1461.2 247.974 1457.66 Q246.169 1454.1 242.535 1454.1 M242.535 1450.39 Q248.345 1450.39 251.4 1455 Q254.479 1459.58 254.479 1468.33 Q254.479 1477.06 251.4 1481.67 Q248.345 1486.25 242.535 1486.25 Q236.724 1486.25 233.646 1481.67 Q230.59 1477.06 230.59 1468.33 Q230.59 1459.58 233.646 1455 Q236.724 1450.39 242.535 1450.39 Z" fill="#000000" fill-rule="evenodd" fill-opacity="1" /><path clip-path="url(#clip710)" d="M262.696 1479.7 L267.581 1479.7 L267.581 1485.58 L262.696 1485.58 L262.696 1479.7 Z" fill="#000000" fill-rule="evenodd" fill-opacity="1" /><path clip-path="url(#clip710)" d="M287.766 1454.1 Q284.155 1454.1 282.326 1457.66 Q280.52 1461.2 280.52 1468.33 Q280.52 1475.44 282.326 1479.01 Q284.155 1482.55 287.766 1482.55 Q291.4 1482.55 293.206 1479.01 Q295.034 1475.44 295.034 1468.33 Q295.034 1461.2 293.206 1457.66 Q291.4 1454.1 287.766 1454.1 M287.766 1450.39 Q293.576 1450.39 296.631 1455 Q299.71 1459.58 299.71 1468.33 Q299.71 1477.06 296.631 1481.67 Q293.576 1486.25 287.766 1486.25 Q281.956 1486.25 278.877 1481.67 Q275.821 1477.06 275.821 1468.33 Q275.821 1459.58 278.877 1455 Q281.956 1450.39 287.766 1450.39 Z" fill="#000000" fill-rule="evenodd" fill-opacity="1" /><path clip-path="url(#clip710)" d="M317.928 1454.1 Q314.317 1454.1 312.488 1457.66 Q310.682 1461.2 310.682 1468.33 Q310.682 1475.44 312.488 1479.01 Q314.317 1482.55 317.928 1482.55 Q321.562 1482.55 323.367 1479.01 Q325.196 1475.44 325.196 1468.33 Q325.196 1461.2 323.367 1457.66 Q321.562 1454.1 317.928 1454.1 M317.928 1450.39 Q323.738 1450.39 326.793 1455 Q329.872 1459.58 329.872 1468.33 Q329.872 1477.06 326.793 1481.67 Q323.738 1486.25 317.928 1486.25 Q312.117 1486.25 309.039 1481.67 Q305.983 1477.06 305.983 1468.33 Q305.983 1459.58 309.039 1455 Q312.117 1450.39 317.928 1450.39 Z" fill="#000000" fill-rule="evenodd" fill-opacity="1" /><path clip-path="url(#clip710)" d="M746.072 1454.1 Q742.461 1454.1 740.632 1457.66 Q738.827 1461.2 738.827 1468.33 Q738.827 1475.44 740.632 1479.01 Q742.461 1482.55 746.072 1482.55 Q749.706 1482.55 751.512 1479.01 Q753.341 1475.44 753.341 1468.33 Q753.341 1461.2 751.512 1457.66 Q749.706 1454.1 746.072 1454.1 M746.072 1450.39 Q751.882 1450.39 754.938 1455 Q758.017 1459.58 758.017 1468.33 Q758.017 1477.06 754.938 1481.67 Q751.882 1486.25 746.072 1486.25 Q740.262 1486.25 737.183 1481.67 Q734.128 1477.06 734.128 1468.33 Q734.128 1459.58 737.183 1455 Q740.262 1450.39 746.072 1450.39 Z" fill="#000000" fill-rule="evenodd" fill-opacity="1" /><path clip-path="url(#clip710)" d="M766.234 1479.7 L771.118 1479.7 L771.118 1485.58 L766.234 1485.58 L766.234 1479.7 Z" fill="#000000" fill-rule="evenodd" fill-opacity="1" /><path clip-path="url(#clip710)" d="M785.331 1481.64 L801.651 1481.64 L801.651 1485.58 L779.706 1485.58 L779.706 1481.64 Q782.368 1478.89 786.952 1474.26 Q791.558 1469.61 792.739 1468.27 Q794.984 1465.74 795.864 1464.01 Q796.766 1462.25 796.766 1460.56 Q796.766 1457.8 794.822 1456.07 Q792.901 1454.33 789.799 1454.33 Q787.6 1454.33 785.146 1455.09 Q782.716 1455.86 779.938 1457.41 L779.938 1452.69 Q782.762 1451.55 785.216 1450.97 Q787.669 1450.39 789.706 1450.39 Q795.077 1450.39 798.271 1453.08 Q801.465 1455.77 801.465 1460.26 Q801.465 1462.39 800.655 1464.31 Q799.868 1466.2 797.762 1468.8 Q797.183 1469.47 794.081 1472.69 Q790.979 1475.88 785.331 1481.64 Z" fill="#000000" fill-rule="evenodd" fill-opacity="1" /><path clip-path="url(#clip710)" d="M811.512 1451.02 L829.868 1451.02 L829.868 1454.96 L815.794 1454.96 L815.794 1463.43 Q816.813 1463.08 817.831 1462.92 Q818.85 1462.73 819.868 1462.73 Q825.655 1462.73 829.035 1465.9 Q832.414 1469.08 832.414 1474.49 Q832.414 1480.07 828.942 1483.17 Q825.47 1486.25 819.151 1486.25 Q816.975 1486.25 814.706 1485.88 Q812.461 1485.51 810.053 1484.77 L810.053 1480.07 Q812.137 1481.2 814.359 1481.76 Q816.581 1482.32 819.058 1482.32 Q823.063 1482.32 825.4 1480.21 Q827.738 1478.1 827.738 1474.49 Q827.738 1470.88 825.4 1468.77 Q823.063 1466.67 819.058 1466.67 Q817.183 1466.67 815.308 1467.08 Q813.456 1467.5 811.512 1468.38 L811.512 1451.02 Z" fill="#000000" fill-rule="evenodd" fill-opacity="1" /><path clip-path="url(#clip710)" d="M1248.61 1454.1 Q1245 1454.1 1243.17 1457.66 Q1241.37 1461.2 1241.37 1468.33 Q1241.37 1475.44 1243.17 1479.01 Q1245 1482.55 1248.61 1482.55 Q1252.25 1482.55 1254.05 1479.01 Q1255.88 1475.44 1255.88 1468.33 Q1255.88 1461.2 1254.05 1457.66 Q1252.25 1454.1 1248.61 1454.1 M1248.61 1450.39 Q1254.42 1450.39 1257.48 1455 Q1260.56 1459.58 1260.56 1468.33 Q1260.56 1477.06 1257.48 1481.67 Q1254.42 1486.25 1248.61 1486.25 Q1242.8 1486.25 1239.73 1481.67 Q1236.67 1477.06 1236.67 1468.33 Q1236.67 1459.58 1239.73 1455 Q1242.8 1450.39 1248.61 1450.39 Z" fill="#000000" fill-rule="evenodd" fill-opacity="1" /><path clip-path="url(#clip710)" d="M1268.78 1479.7 L1273.66 1479.7 L1273.66 1485.58 L1268.78 1485.58 L1268.78 1479.7 Z" fill="#000000" fill-rule="evenodd" fill-opacity="1" /><path clip-path="url(#clip710)" d="M1283.89 1451.02 L1302.25 1451.02 L1302.25 1454.96 L1288.17 1454.96 L1288.17 1463.43 Q1289.19 1463.08 1290.21 1462.92 Q1291.23 1462.73 1292.25 1462.73 Q1298.04 1462.73 1301.42 1465.9 Q1304.79 1469.08 1304.79 1474.49 Q1304.79 1480.07 1301.32 1483.17 Q1297.85 1486.25 1291.53 1486.25 Q1289.36 1486.25 1287.09 1485.88 Q1284.84 1485.51 1282.43 1484.77 L1282.43 1480.07 Q1284.52 1481.2 1286.74 1481.76 Q1288.96 1482.32 1291.44 1482.32 Q1295.44 1482.32 1297.78 1480.21 Q1300.12 1478.1 1300.12 1474.49 Q1300.12 1470.88 1297.78 1468.77 Q1295.44 1466.67 1291.44 1466.67 Q1289.56 1466.67 1287.69 1467.08 Q1285.84 1467.5 1283.89 1468.38 L1283.89 1451.02 Z" fill="#000000" fill-rule="evenodd" fill-opacity="1" /><path clip-path="url(#clip710)" d="M1324.01 1454.1 Q1320.4 1454.1 1318.57 1457.66 Q1316.76 1461.2 1316.76 1468.33 Q1316.76 1475.44 1318.57 1479.01 Q1320.4 1482.55 1324.01 1482.55 Q1327.64 1482.55 1329.45 1479.01 Q1331.28 1475.44 1331.28 1468.33 Q1331.28 1461.2 1329.45 1457.66 Q1327.64 1454.1 1324.01 1454.1 M1324.01 1450.39 Q1329.82 1450.39 1332.87 1455 Q1335.95 1459.58 1335.95 1468.33 Q1335.95 1477.06 1332.87 1481.67 Q1329.82 1486.25 1324.01 1486.25 Q1318.2 1486.25 1315.12 1481.67 Q1312.06 1477.06 1312.06 1468.33 Q1312.06 1459.58 1315.12 1455 Q1318.2 1450.39 1324.01 1450.39 Z" fill="#000000" fill-rule="evenodd" fill-opacity="1" /><path clip-path="url(#clip710)" d="M1752.15 1454.1 Q1748.54 1454.1 1746.71 1457.66 Q1744.91 1461.2 1744.91 1468.33 Q1744.91 1475.44 1746.71 1479.01 Q1748.54 1482.55 1752.15 1482.55 Q1755.79 1482.55 1757.59 1479.01 Q1759.42 1475.44 1759.42 1468.33 Q1759.42 1461.2 1757.59 1457.66 Q1755.79 1454.1 1752.15 1454.1 M1752.15 1450.39 Q1757.96 1450.39 1761.02 1455 Q1764.1 1459.58 1764.1 1468.33 Q1764.1 1477.06 1761.02 1481.67 Q1757.96 1486.25 1752.15 1486.25 Q1746.34 1486.25 1743.26 1481.67 Q1740.21 1477.06 1740.21 1468.33 Q1740.21 1459.58 1743.26 1455 Q1746.34 1450.39 1752.15 1450.39 Z" fill="#000000" fill-rule="evenodd" fill-opacity="1" /><path clip-path="url(#clip710)" d="M1772.31 1479.7 L1777.2 1479.7 L1777.2 1485.58 L1772.31 1485.58 L1772.31 1479.7 Z" fill="#000000" fill-rule="evenodd" fill-opacity="1" /><path clip-path="url(#clip710)" d="M1786.2 1451.02 L1808.43 1451.02 L1808.43 1453.01 L1795.88 1485.58 L1790.99 1485.58 L1802.8 1454.96 L1786.2 1454.96 L1786.2 1451.02 Z" fill="#000000" fill-rule="evenodd" fill-opacity="1" /><path clip-path="url(#clip710)" d="M1817.59 1451.02 L1835.95 1451.02 L1835.95 1454.96 L1821.87 1454.96 L1821.87 1463.43 Q1822.89 1463.08 1823.91 1462.92 Q1824.93 1462.73 1825.95 1462.73 Q1831.74 1462.73 1835.11 1465.9 Q1838.49 1469.08 1838.49 1474.49 Q1838.49 1480.07 1835.02 1483.17 Q1831.55 1486.25 1825.23 1486.25 Q1823.05 1486.25 1820.79 1485.88 Q1818.54 1485.51 1816.13 1484.77 L1816.13 1480.07 Q1818.22 1481.2 1820.44 1481.76 Q1822.66 1482.32 1825.14 1482.32 Q1829.14 1482.32 1831.48 1480.21 Q1833.82 1478.1 1833.82 1474.49 Q1833.82 1470.88 1831.48 1468.77 Q1829.14 1466.67 1825.14 1466.67 Q1823.26 1466.67 1821.39 1467.08 Q1819.54 1467.5 1817.59 1468.38 L1817.59 1451.02 Z" fill="#000000" fill-rule="evenodd" fill-opacity="1" /><path clip-path="url(#clip710)" d="M2244.46 1481.64 L2252.1 1481.64 L2252.1 1455.28 L2243.79 1456.95 L2243.79 1452.69 L2252.06 1451.02 L2256.73 1451.02 L2256.73 1481.64 L2264.37 1481.64 L2264.37 1485.58 L2244.46 1485.58 L2244.46 1481.64 Z" fill="#000000" fill-rule="evenodd" fill-opacity="1" /><path clip-path="url(#clip710)" d="M2273.81 1479.7 L2278.7 1479.7 L2278.7 1485.58 L2273.81 1485.58 L2273.81 1479.7 Z" fill="#000000" fill-rule="evenodd" fill-opacity="1" /><path clip-path="url(#clip710)" d="M2298.88 1454.1 Q2295.27 1454.1 2293.44 1457.66 Q2291.64 1461.2 2291.64 1468.33 Q2291.64 1475.44 2293.44 1479.01 Q2295.27 1482.55 2298.88 1482.55 Q2302.52 1482.55 2304.32 1479.01 Q2306.15 1475.44 2306.15 1468.33 Q2306.15 1461.2 2304.32 1457.66 Q2302.52 1454.1 2298.88 1454.1 M2298.88 1450.39 Q2304.69 1450.39 2307.75 1455 Q2310.83 1459.58 2310.83 1468.33 Q2310.83 1477.06 2307.75 1481.67 Q2304.69 1486.25 2298.88 1486.25 Q2293.07 1486.25 2290 1481.67 Q2286.94 1477.06 2286.94 1468.33 Q2286.94 1459.58 2290 1455 Q2293.07 1450.39 2298.88 1450.39 Z" fill="#000000" fill-rule="evenodd" fill-opacity="1" /><path clip-path="url(#clip710)" d="M2329.05 1454.1 Q2325.43 1454.1 2323.61 1457.66 Q2321.8 1461.2 2321.8 1468.33 Q2321.8 1475.44 2323.61 1479.01 Q2325.43 1482.55 2329.05 1482.55 Q2332.68 1482.55 2334.49 1479.01 Q2336.31 1475.44 2336.31 1468.33 Q2336.31 1461.2 2334.49 1457.66 Q2332.68 1454.1 2329.05 1454.1 M2329.05 1450.39 Q2334.86 1450.39 2337.91 1455 Q2340.99 1459.58 2340.99 1468.33 Q2340.99 1477.06 2337.91 1481.67 Q2334.86 1486.25 2329.05 1486.25 Q2323.24 1486.25 2320.16 1481.67 Q2317.1 1477.06 2317.1 1468.33 Q2317.1 1459.58 2320.16 1455 Q2323.24 1450.39 2329.05 1450.39 Z" fill="#000000" fill-rule="evenodd" fill-opacity="1" /><path clip-path="url(#clip710)" d="M1298.25 1529.22 Q1298.25 1534.63 1296.51 1540.71 Q1294.8 1546.77 1292.09 1551.66 Q1289.39 1556.53 1285.85 1559.75 Q1282.3 1562.94 1278.92 1562.94 Q1276.76 1562.94 1275.15 1561.75 Q1273.58 1560.52 1272.71 1558.49 Q1271.84 1556.43 1271.42 1554.18 Q1271 1551.89 1271 1549.41 Q1271 1545.71 1271.8 1541.68 Q1272.61 1537.62 1273.96 1533.95 Q1275.32 1530.25 1277.22 1526.9 Q1279.12 1523.52 1281.21 1521.07 Q1283.33 1518.59 1285.72 1517.14 Q1288.1 1515.69 1290.32 1515.69 Q1291.93 1515.69 1293.22 1516.4 Q1294.54 1517.08 1295.38 1518.27 Q1296.22 1519.43 1296.8 1520.81 Q1297.41 1522.2 1297.7 1523.81 Q1297.99 1525.38 1298.12 1526.71 Q1298.25 1527.99 1298.25 1529.22 M1293.9 1525.13 Q1293.9 1523.48 1293.77 1522.26 Q1293.64 1521 1293.29 1519.75 Q1292.93 1518.49 1292.16 1517.82 Q1291.42 1517.14 1290.26 1517.14 Q1286.88 1517.14 1283.08 1524.06 Q1281.85 1526.22 1280.76 1529.15 Q1279.66 1532.08 1279.28 1533.47 Q1278.89 1534.85 1277.99 1538.27 L1291.77 1538.27 Q1293.9 1529.47 1293.9 1525.13 M1291.19 1540.36 L1277.47 1540.36 Q1275.35 1548.41 1275.35 1553.44 Q1275.35 1557.82 1276.25 1559.65 Q1277.18 1561.46 1278.92 1561.46 Q1280.92 1561.46 1282.79 1559.46 Q1284.66 1557.43 1286.56 1553.76 Q1289.07 1548.99 1291.19 1540.36 Z" fill="#000000" fill-rule="evenodd" fill-opacity="1" /><polyline clip-path="url(#clip713)" style="stroke:#000000; stroke-linecap:butt; stroke-linejoin:round; stroke-width:2; stroke-opacity:0.1; fill:none" points="
  219.866,1423.18 2352.76,1423.18 
  "/>
<polyline clip-path="url(#clip713)" style="stroke:#000000; stroke-linecap:butt; stroke-linejoin:round; stroke-width:2; stroke-opacity:0.1; fill:none" points="
  219.866,1147.99 2352.76,1147.99 
  "/>
<polyline clip-path="url(#clip713)" style="stroke:#000000; stroke-linecap:butt; stroke-linejoin:round; stroke-width:2; stroke-opacity:0.1; fill:none" points="
  219.866,872.806 2352.76,872.806 
  "/>
<polyline clip-path="url(#clip713)" style="stroke:#000000; stroke-linecap:butt; stroke-linejoin:round; stroke-width:2; stroke-opacity:0.1; fill:none" points="
  219.866,597.618 2352.76,597.618 
  "/>
<polyline clip-path="url(#clip713)" style="stroke:#000000; stroke-linecap:butt; stroke-linejoin:round; stroke-width:2; stroke-opacity:0.1; fill:none" points="
  219.866,322.431 2352.76,322.431 
  "/>
<polyline clip-path="url(#clip713)" style="stroke:#000000; stroke-linecap:butt; stroke-linejoin:round; stroke-width:2; stroke-opacity:0.1; fill:none" points="
  219.866,47.2441 2352.76,47.2441 
  "/>
<polyline clip-path="url(#clip710)" style="stroke:#000000; stroke-linecap:butt; stroke-linejoin:round; stroke-width:4; stroke-opacity:1; fill:none" points="
  219.866,1423.18 219.866,47.2441 
  "/>
<polyline clip-path="url(#clip710)" style="stroke:#000000; stroke-linecap:butt; stroke-linejoin:round; stroke-width:4; stroke-opacity:1; fill:none" points="
  219.866,1423.18 238.764,1423.18 
  "/>
<polyline clip-path="url(#clip710)" style="stroke:#000000; stroke-linecap:butt; stroke-linejoin:round; stroke-width:4; stroke-opacity:1; fill:none" points="
  219.866,1147.99 238.764,1147.99 
  "/>
<polyline clip-path="url(#clip710)" style="stroke:#000000; stroke-linecap:butt; stroke-linejoin:round; stroke-width:4; stroke-opacity:1; fill:none" points="
  219.866,872.806 238.764,872.806 
  "/>
<polyline clip-path="url(#clip710)" style="stroke:#000000; stroke-linecap:butt; stroke-linejoin:round; stroke-width:4; stroke-opacity:1; fill:none" points="
  219.866,597.618 238.764,597.618 
  "/>
<polyline clip-path="url(#clip710)" style="stroke:#000000; stroke-linecap:butt; stroke-linejoin:round; stroke-width:4; stroke-opacity:1; fill:none" points="
  219.866,322.431 238.764,322.431 
  "/>
<polyline clip-path="url(#clip710)" style="stroke:#000000; stroke-linecap:butt; stroke-linejoin:round; stroke-width:4; stroke-opacity:1; fill:none" points="
  219.866,47.2441 238.764,47.2441 
  "/>
<path clip-path="url(#clip710)" d="M126.691 1408.98 Q123.08 1408.98 121.251 1412.54 Q119.445 1416.08 119.445 1423.21 Q119.445 1430.32 121.251 1433.89 Q123.08 1437.43 126.691 1437.43 Q130.325 1437.43 132.13 1433.89 Q133.959 1430.32 133.959 1423.21 Q133.959 1416.08 132.13 1412.54 Q130.325 1408.98 126.691 1408.98 M126.691 1405.27 Q132.501 1405.27 135.556 1409.88 Q138.635 1414.46 138.635 1423.21 Q138.635 1431.94 135.556 1436.55 Q132.501 1441.13 126.691 1441.13 Q120.88 1441.13 117.802 1436.55 Q114.746 1431.94 114.746 1423.21 Q114.746 1414.46 117.802 1409.88 Q120.88 1405.27 126.691 1405.27 Z" fill="#000000" fill-rule="evenodd" fill-opacity="1" /><path clip-path="url(#clip710)" d="M146.853 1434.58 L151.737 1434.58 L151.737 1440.46 L146.853 1440.46 L146.853 1434.58 Z" fill="#000000" fill-rule="evenodd" fill-opacity="1" /><path clip-path="url(#clip710)" d="M171.922 1408.98 Q168.311 1408.98 166.482 1412.54 Q164.677 1416.08 164.677 1423.21 Q164.677 1430.32 166.482 1433.89 Q168.311 1437.43 171.922 1437.43 Q175.556 1437.43 177.362 1433.89 Q179.19 1430.32 179.19 1423.21 Q179.19 1416.08 177.362 1412.54 Q175.556 1408.98 171.922 1408.98 M171.922 1405.27 Q177.732 1405.27 180.788 1409.88 Q183.866 1414.46 183.866 1423.21 Q183.866 1431.94 180.788 1436.55 Q177.732 1441.13 171.922 1441.13 Q166.112 1441.13 163.033 1436.55 Q159.978 1431.94 159.978 1423.21 Q159.978 1414.46 163.033 1409.88 Q166.112 1405.27 171.922 1405.27 Z" fill="#000000" fill-rule="evenodd" fill-opacity="1" /><path clip-path="url(#clip710)" d="M128.288 1133.79 Q124.677 1133.79 122.848 1137.36 Q121.043 1140.9 121.043 1148.03 Q121.043 1155.13 122.848 1158.7 Q124.677 1162.24 128.288 1162.24 Q131.922 1162.24 133.728 1158.7 Q135.556 1155.13 135.556 1148.03 Q135.556 1140.9 133.728 1137.36 Q131.922 1133.79 128.288 1133.79 M128.288 1130.09 Q134.098 1130.09 137.154 1134.69 Q140.232 1139.28 140.232 1148.03 Q140.232 1156.75 137.154 1161.36 Q134.098 1165.94 128.288 1165.94 Q122.478 1165.94 119.399 1161.36 Q116.343 1156.75 116.343 1148.03 Q116.343 1139.28 119.399 1134.69 Q122.478 1130.09 128.288 1130.09 Z" fill="#000000" fill-rule="evenodd" fill-opacity="1" /><path clip-path="url(#clip710)" d="M148.45 1159.39 L153.334 1159.39 L153.334 1165.27 L148.45 1165.27 L148.45 1159.39 Z" fill="#000000" fill-rule="evenodd" fill-opacity="1" /><path clip-path="url(#clip710)" d="M167.547 1161.34 L183.866 1161.34 L183.866 1165.27 L161.922 1165.27 L161.922 1161.34 Q164.584 1158.58 169.167 1153.95 Q173.774 1149.3 174.954 1147.96 Q177.2 1145.43 178.079 1143.7 Q178.982 1141.94 178.982 1140.25 Q178.982 1137.5 177.038 1135.76 Q175.116 1134.02 172.014 1134.02 Q169.815 1134.02 167.362 1134.79 Q164.931 1135.55 162.153 1137.1 L162.153 1132.38 Q164.977 1131.25 167.431 1130.67 Q169.885 1130.09 171.922 1130.09 Q177.292 1130.09 180.487 1132.77 Q183.681 1135.46 183.681 1139.95 Q183.681 1142.08 182.871 1144 Q182.084 1145.9 179.977 1148.49 Q179.399 1149.16 176.297 1152.38 Q173.195 1155.57 167.547 1161.34 Z" fill="#000000" fill-rule="evenodd" fill-opacity="1" /><path clip-path="url(#clip710)" d="M126.205 858.604 Q122.593 858.604 120.765 862.169 Q118.959 865.711 118.959 872.84 Q118.959 879.947 120.765 883.512 Q122.593 887.053 126.205 887.053 Q129.839 887.053 131.644 883.512 Q133.473 879.947 133.473 872.84 Q133.473 865.711 131.644 862.169 Q129.839 858.604 126.205 858.604 M126.205 854.901 Q132.015 854.901 135.07 859.507 Q138.149 864.09 138.149 872.84 Q138.149 881.567 135.07 886.174 Q132.015 890.757 126.205 890.757 Q120.394 890.757 117.316 886.174 Q114.26 881.567 114.26 872.84 Q114.26 864.09 117.316 859.507 Q120.394 854.901 126.205 854.901 Z" fill="#000000" fill-rule="evenodd" fill-opacity="1" /><path clip-path="url(#clip710)" d="M146.366 884.206 L151.251 884.206 L151.251 890.086 L146.366 890.086 L146.366 884.206 Z" fill="#000000" fill-rule="evenodd" fill-opacity="1" /><path clip-path="url(#clip710)" d="M174.283 859.6 L162.477 878.049 L174.283 878.049 L174.283 859.6 M173.056 855.526 L178.936 855.526 L178.936 878.049 L183.866 878.049 L183.866 881.937 L178.936 881.937 L178.936 890.086 L174.283 890.086 L174.283 881.937 L158.681 881.937 L158.681 877.424 L173.056 855.526 Z" fill="#000000" fill-rule="evenodd" fill-opacity="1" /><path clip-path="url(#clip710)" d="M126.529 583.417 Q122.918 583.417 121.089 586.982 Q119.283 590.524 119.283 597.653 Q119.283 604.76 121.089 608.324 Q122.918 611.866 126.529 611.866 Q130.163 611.866 131.968 608.324 Q133.797 604.76 133.797 597.653 Q133.797 590.524 131.968 586.982 Q130.163 583.417 126.529 583.417 M126.529 579.713 Q132.339 579.713 135.394 584.32 Q138.473 588.903 138.473 597.653 Q138.473 606.38 135.394 610.986 Q132.339 615.57 126.529 615.57 Q120.718 615.57 117.64 610.986 Q114.584 606.38 114.584 597.653 Q114.584 588.903 117.64 584.32 Q120.718 579.713 126.529 579.713 Z" fill="#000000" fill-rule="evenodd" fill-opacity="1" /><path clip-path="url(#clip710)" d="M146.691 609.019 L151.575 609.019 L151.575 614.898 L146.691 614.898 L146.691 609.019 Z" fill="#000000" fill-rule="evenodd" fill-opacity="1" /><path clip-path="url(#clip710)" d="M172.339 595.755 Q169.19 595.755 167.339 597.908 Q165.51 600.061 165.51 603.81 Q165.51 607.537 167.339 609.713 Q169.19 611.866 172.339 611.866 Q175.487 611.866 177.315 609.713 Q179.167 607.537 179.167 603.81 Q179.167 600.061 177.315 597.908 Q175.487 595.755 172.339 595.755 M181.621 581.102 L181.621 585.362 Q179.862 584.528 178.056 584.088 Q176.274 583.649 174.514 583.649 Q169.885 583.649 167.431 586.774 Q165.001 589.899 164.653 596.218 Q166.019 594.204 168.079 593.139 Q170.139 592.051 172.616 592.051 Q177.825 592.051 180.834 595.223 Q183.866 598.371 183.866 603.81 Q183.866 609.135 180.718 612.352 Q177.57 615.57 172.339 615.57 Q166.343 615.57 163.172 610.986 Q160.001 606.38 160.001 597.653 Q160.001 589.459 163.89 584.598 Q167.778 579.713 174.329 579.713 Q176.089 579.713 177.871 580.061 Q179.676 580.408 181.621 581.102 Z" fill="#000000" fill-rule="evenodd" fill-opacity="1" /><path clip-path="url(#clip710)" d="M126.783 308.23 Q123.172 308.23 121.343 311.795 Q119.538 315.336 119.538 322.466 Q119.538 329.572 121.343 333.137 Q123.172 336.679 126.783 336.679 Q130.417 336.679 132.223 333.137 Q134.052 329.572 134.052 322.466 Q134.052 315.336 132.223 311.795 Q130.417 308.23 126.783 308.23 M126.783 304.526 Q132.593 304.526 135.649 309.133 Q138.728 313.716 138.728 322.466 Q138.728 331.193 135.649 335.799 Q132.593 340.383 126.783 340.383 Q120.973 340.383 117.894 335.799 Q114.839 331.193 114.839 322.466 Q114.839 313.716 117.894 309.133 Q120.973 304.526 126.783 304.526 Z" fill="#000000" fill-rule="evenodd" fill-opacity="1" /><path clip-path="url(#clip710)" d="M146.945 333.832 L151.829 333.832 L151.829 339.711 L146.945 339.711 L146.945 333.832 Z" fill="#000000" fill-rule="evenodd" fill-opacity="1" /><path clip-path="url(#clip710)" d="M172.014 323.299 Q168.681 323.299 166.76 325.082 Q164.862 326.864 164.862 329.989 Q164.862 333.114 166.76 334.896 Q168.681 336.679 172.014 336.679 Q175.348 336.679 177.269 334.896 Q179.19 333.091 179.19 329.989 Q179.19 326.864 177.269 325.082 Q175.371 323.299 172.014 323.299 M167.339 321.309 Q164.329 320.568 162.64 318.508 Q160.973 316.447 160.973 313.485 Q160.973 309.341 163.913 306.934 Q166.876 304.526 172.014 304.526 Q177.176 304.526 180.116 306.934 Q183.056 309.341 183.056 313.485 Q183.056 316.447 181.366 318.508 Q179.7 320.568 176.714 321.309 Q180.093 322.096 181.968 324.387 Q183.866 326.679 183.866 329.989 Q183.866 335.012 180.788 337.697 Q177.732 340.383 172.014 340.383 Q166.297 340.383 163.218 337.697 Q160.163 335.012 160.163 329.989 Q160.163 326.679 162.061 324.387 Q163.959 322.096 167.339 321.309 M165.626 313.924 Q165.626 316.61 167.292 318.114 Q168.982 319.619 172.014 319.619 Q175.024 319.619 176.714 318.114 Q178.426 316.61 178.426 313.924 Q178.426 311.239 176.714 309.735 Q175.024 308.23 172.014 308.23 Q168.982 308.23 167.292 309.735 Q165.626 311.239 165.626 313.924 Z" fill="#000000" fill-rule="evenodd" fill-opacity="1" /><path clip-path="url(#clip710)" d="M117.501 60.5889 L125.14 60.5889 L125.14 34.2233 L116.83 35.89 L116.83 31.6308 L125.093 29.9641 L129.769 29.9641 L129.769 60.5889 L137.408 60.5889 L137.408 64.5241 L117.501 64.5241 L117.501 60.5889 Z" fill="#000000" fill-rule="evenodd" fill-opacity="1" /><path clip-path="url(#clip710)" d="M146.853 58.6445 L151.737 58.6445 L151.737 64.5241 L146.853 64.5241 L146.853 58.6445 Z" fill="#000000" fill-rule="evenodd" fill-opacity="1" /><path clip-path="url(#clip710)" d="M171.922 33.0428 Q168.311 33.0428 166.482 36.6076 Q164.677 40.1492 164.677 47.2788 Q164.677 54.3853 166.482 57.9501 Q168.311 61.4917 171.922 61.4917 Q175.556 61.4917 177.362 57.9501 Q179.19 54.3853 179.19 47.2788 Q179.19 40.1492 177.362 36.6076 Q175.556 33.0428 171.922 33.0428 M171.922 29.3391 Q177.732 29.3391 180.788 33.9456 Q183.866 38.5289 183.866 47.2788 Q183.866 56.0056 180.788 60.6121 Q177.732 65.1954 171.922 65.1954 Q166.112 65.1954 163.033 60.6121 Q159.978 56.0056 159.978 47.2788 Q159.978 38.5289 163.033 33.9456 Q166.112 29.3391 171.922 29.3391 Z" fill="#000000" fill-rule="evenodd" fill-opacity="1" /><path clip-path="url(#clip710)" d="M16.4842 812.476 L16.4842 802.895 L48.8219 790.769 L16.4842 778.578 L16.4842 768.998 L64.0042 768.998 L64.0042 775.268 L22.277 775.268 L54.8694 787.522 L54.8694 793.983 L22.277 806.237 L64.0042 806.237 L64.0042 812.476 L16.4842 812.476 Z" fill="#000000" fill-rule="evenodd" fill-opacity="1" /><path clip-path="url(#clip710)" d="M46.0847 740.289 Q46.0847 747.386 47.7079 750.124 Q49.3312 752.861 53.2461 752.861 Q56.3653 752.861 58.2114 750.824 Q60.0256 748.755 60.0256 745.222 Q60.0256 740.352 56.5881 737.424 Q53.1188 734.464 47.3897 734.464 L46.0847 734.464 L46.0847 740.289 M43.6657 728.608 L64.0042 728.608 L64.0042 734.464 L58.5933 734.464 Q61.8398 736.469 63.3994 739.461 Q64.9272 742.453 64.9272 746.782 Q64.9272 752.256 61.8716 755.503 Q58.7843 758.717 53.6281 758.717 Q47.6125 758.717 44.5569 754.707 Q41.5014 750.665 41.5014 742.676 L41.5014 734.464 L40.9285 734.464 Q36.8862 734.464 34.6901 737.138 Q32.4621 739.779 32.4621 744.585 Q32.4621 747.641 33.1941 750.537 Q33.9262 753.434 35.3903 756.107 L29.9795 756.107 Q28.7381 752.893 28.1334 749.869 Q27.4968 746.845 27.4968 743.981 Q27.4968 736.246 31.5072 732.427 Q35.5176 728.608 43.6657 728.608 Z" fill="#000000" fill-rule="evenodd" fill-opacity="1" /><path clip-path="url(#clip710)" d="M29.4065 693.819 L34.9447 693.819 Q33.6716 696.302 33.035 698.975 Q32.3984 701.649 32.3984 704.513 Q32.3984 708.874 33.7352 711.07 Q35.072 713.234 37.7456 713.234 Q39.7826 713.234 40.9603 711.675 Q42.1061 710.115 43.1565 705.405 L43.6021 703.399 Q44.9389 697.161 47.3897 694.551 Q49.8086 691.909 54.1691 691.909 Q59.1344 691.909 62.0308 695.856 Q64.9272 699.771 64.9272 706.646 Q64.9272 709.51 64.3543 712.63 Q63.8132 715.717 62.6992 719.154 L56.6518 719.154 Q58.3387 715.908 59.198 712.757 Q60.0256 709.606 60.0256 706.519 Q60.0256 702.381 58.6251 700.153 Q57.1929 697.925 54.6147 697.925 Q52.2276 697.925 50.9545 699.548 Q49.6813 701.14 48.5037 706.582 L48.0262 708.619 Q46.8804 714.062 44.5251 716.481 Q42.138 718.9 38.0002 718.9 Q32.9713 718.9 30.2341 715.335 Q27.4968 711.77 27.4968 705.214 Q27.4968 701.967 27.9743 699.102 Q28.4517 696.238 29.4065 693.819 Z" fill="#000000" fill-rule="evenodd" fill-opacity="1" /><path clip-path="url(#clip710)" d="M29.4065 659.858 L34.9447 659.858 Q33.6716 662.341 33.035 665.014 Q32.3984 667.688 32.3984 670.552 Q32.3984 674.913 33.7352 677.109 Q35.072 679.273 37.7456 679.273 Q39.7826 679.273 40.9603 677.714 Q42.1061 676.154 43.1565 671.444 L43.6021 669.438 Q44.9389 663.2 47.3897 660.59 Q49.8086 657.948 54.1691 657.948 Q59.1344 657.948 62.0308 661.895 Q64.9272 665.81 64.9272 672.685 Q64.9272 675.549 64.3543 678.669 Q63.8132 681.756 62.6992 685.193 L56.6518 685.193 Q58.3387 681.947 59.198 678.796 Q60.0256 675.645 60.0256 672.558 Q60.0256 668.42 58.6251 666.192 Q57.1929 663.964 54.6147 663.964 Q52.2276 663.964 50.9545 665.587 Q49.6813 667.178 48.5037 672.621 L48.0262 674.658 Q46.8804 680.101 44.5251 682.52 Q42.138 684.939 38.0002 684.939 Q32.9713 684.939 30.2341 681.374 Q27.4968 677.809 27.4968 671.253 Q27.4968 668.006 27.9743 665.141 Q28.4517 662.277 29.4065 659.858 Z" fill="#000000" fill-rule="evenodd" fill-opacity="1" /><circle clip-path="url(#clip713)" cx="280.231" cy="735.212" r="14.4" fill="#009af9" fill-rule="evenodd" fill-opacity="0.5" stroke="#000000" stroke-opacity="0.5" stroke-width="3.2"/>
<circle clip-path="url(#clip713)" cx="2292.39" cy="735.212" r="14.4" fill="#009af9" fill-rule="evenodd" fill-opacity="0.5" stroke="#000000" stroke-opacity="0.5" stroke-width="3.2"/>
<polyline clip-path="url(#clip713)" style="stroke:#009af9; stroke-linecap:butt; stroke-linejoin:round; stroke-width:4; stroke-opacity:0.5; fill:none" points="
  280.231,1423.18 280.231,735.212 
  "/>
<polyline clip-path="url(#clip713)" style="stroke:#009af9; stroke-linecap:butt; stroke-linejoin:round; stroke-width:4; stroke-opacity:0.5; fill:none" points="
  2292.39,1423.18 2292.39,735.212 
  "/>
<circle clip-path="url(#clip713)" cx="280.231" cy="322.431" r="14.4" fill="#e26f46" fill-rule="evenodd" fill-opacity="0.5" stroke="#000000" stroke-opacity="0.5" stroke-width="3.2"/>
<circle clip-path="url(#clip713)" cx="2292.39" cy="1147.99" r="14.4" fill="#e26f46" fill-rule="evenodd" fill-opacity="0.5" stroke="#000000" stroke-opacity="0.5" stroke-width="3.2"/>
<polyline clip-path="url(#clip713)" style="stroke:#e26f46; stroke-linecap:butt; stroke-linejoin:round; stroke-width:4; stroke-opacity:0.5; fill:none" points="
  280.231,1423.18 280.231,322.431 
  "/>
<polyline clip-path="url(#clip713)" style="stroke:#e26f46; stroke-linecap:butt; stroke-linejoin:round; stroke-width:4; stroke-opacity:0.5; fill:none" points="
  2292.39,1423.18 2292.39,1147.99 
  "/>
<path clip-path="url(#clip710)" d="
M1896.53 248.629 L2281.66 248.629 L2281.66 93.1086 L1896.53 93.1086  Z
  " fill="#ffffff" fill-rule="evenodd" fill-opacity="1"/>
<polyline clip-path="url(#clip710)" style="stroke:#000000; stroke-linecap:butt; stroke-linejoin:round; stroke-width:4; stroke-opacity:1; fill:none" points="
  1896.53,248.629 2281.66,248.629 2281.66,93.1086 1896.53,93.1086 1896.53,248.629 
  "/>
<circle clip-path="url(#clip710)" cx="1991.32" cy="144.949" r="23.04" fill="#009af9" fill-rule="evenodd" fill-opacity="0.5" stroke="#000000" stroke-opacity="0.5" stroke-width="5.12"/>
<path clip-path="url(#clip710)" d="M2111.18 142.629 Q2111.18 146.049 2109.45 149.351 Q2107.74 152.654 2105.04 154.692 Q2102.35 156.706 2099.61 156.706 Q2097.97 156.706 2096.87 155.816 Q2095.79 154.903 2095.21 153.614 Q2094.76 155.207 2093.8 159.025 Q2092.84 162.843 2092.84 163.218 Q2092.84 163.428 2092.89 163.522 Q2092.94 163.616 2093.15 163.733 Q2093.36 163.873 2093.87 163.92 Q2094.39 163.99 2095.25 163.99 Q2095.7 163.99 2095.86 163.99 Q2096.05 164.014 2096.21 164.131 Q2096.4 164.248 2096.4 164.506 Q2096.4 165.466 2095.54 165.466 Q2094.76 165.466 2093.17 165.396 Q2091.58 165.326 2090.78 165.326 Q2090.1 165.326 2088.74 165.396 Q2087.38 165.466 2086.75 165.466 Q2086.12 165.466 2086.12 164.904 Q2086.12 164.576 2086.21 164.365 Q2086.28 164.178 2086.47 164.084 Q2086.66 164.014 2086.82 163.99 Q2086.96 163.99 2087.24 163.99 Q2088.32 163.99 2088.79 163.803 Q2089.26 163.639 2089.42 163.288 Q2089.61 162.96 2089.82 162.023 L2095.21 140.662 Q2095.54 139.233 2095.54 138.226 Q2095.54 136.961 2095.14 136.493 Q2094.74 136.024 2094.04 136.024 Q2092.82 136.024 2092.02 137.476 Q2091.23 138.928 2090.55 141.739 Q2090.34 142.512 2090.19 142.676 Q2090.08 142.84 2089.73 142.84 Q2089.14 142.817 2089.14 142.348 Q2089.14 142.231 2089.33 141.481 Q2089.52 140.709 2089.87 139.584 Q2090.24 138.437 2090.64 137.71 Q2090.87 137.219 2091.08 136.891 Q2091.3 136.563 2091.72 136.047 Q2092.16 135.532 2092.79 135.251 Q2093.43 134.97 2094.2 134.97 Q2095.7 134.97 2096.94 135.86 Q2098.18 136.75 2098.51 138.554 Q2099.84 136.984 2101.48 135.977 Q2103.12 134.97 2104.79 134.97 Q2107.55 134.97 2109.35 137.125 Q2111.18 139.256 2111.18 142.629 M2107.71 140.521 Q2107.71 138.39 2106.9 137.219 Q2106.1 136.024 2104.65 136.024 Q2102.84 136.024 2100.76 137.851 Q2098.7 139.584 2098.28 141.2 L2095.91 150.593 L2095.77 151.366 Q2095.77 151.506 2095.84 151.928 Q2095.93 152.326 2096.19 152.982 Q2096.47 153.638 2096.85 154.223 Q2097.25 154.785 2097.95 155.207 Q2098.67 155.629 2099.56 155.629 Q2100.99 155.629 2102.54 154.364 Q2104.11 153.099 2105.28 150.71 Q2106.01 149.164 2106.85 145.838 Q2107.71 142.489 2107.71 140.521 Z" fill="#000000" fill-rule="evenodd" fill-opacity="1" /><path clip-path="url(#clip710)" d="M2123.31 148.883 Q2123.36 148.297 2124.27 148.297 L2153.67 148.297 Q2155.05 148.297 2155.07 148.836 Q2155.07 149.422 2153.76 149.398 L2124.6 149.398 Q2123.31 149.422 2123.31 148.883 M2123.31 139.514 Q2123.31 138.928 2124.32 138.952 L2153.62 138.952 Q2155.05 138.952 2155.07 139.514 Q2155.07 140.053 2153.86 140.053 L2124.27 140.053 Q2123.31 140.053 2123.31 139.514 Z" fill="#000000" fill-rule="evenodd" fill-opacity="1" /><path clip-path="url(#clip710)" d="M2173.57 140.826 Q2173.57 133.776 2175.35 129.934 Q2177.83 124.219 2183.68 124.219 Q2184.92 124.219 2186.21 124.57 Q2187.52 124.898 2189.16 126.187 Q2190.83 127.475 2191.83 129.583 Q2193.76 133.658 2193.76 140.826 Q2193.76 147.829 2191.98 151.647 Q2189.38 157.221 2183.64 157.221 Q2181.48 157.221 2179.28 156.121 Q2177.1 155.02 2175.72 152.373 Q2173.57 148.415 2173.57 140.826 M2177.55 140.24 Q2177.55 147.478 2178.06 150.359 Q2178.65 153.474 2180.24 154.832 Q2181.86 156.167 2183.64 156.167 Q2185.56 156.167 2187.15 154.739 Q2188.77 153.286 2189.26 150.171 Q2189.8 147.103 2189.77 140.24 Q2189.77 133.565 2189.3 130.895 Q2188.67 127.779 2186.99 126.538 Q2185.32 125.273 2183.64 125.273 Q2183 125.273 2182.33 125.461 Q2181.67 125.648 2180.71 126.187 Q2179.75 126.725 2179 128.06 Q2178.27 129.396 2177.92 131.41 Q2177.55 134.01 2177.55 140.24 Z" fill="#000000" fill-rule="evenodd" fill-opacity="1" /><path clip-path="url(#clip710)" d="M2198.04 155.394 Q2197.32 154.621 2197.32 153.614 Q2197.32 152.607 2198.04 151.881 Q2198.77 151.132 2199.87 151.132 Q2200.92 151.132 2201.62 151.834 Q2202.35 152.513 2202.35 153.638 Q2202.35 154.739 2201.58 155.465 Q2200.83 156.167 2199.87 156.167 Q2198.77 156.167 2198.04 155.394 Z" fill="#000000" fill-rule="evenodd" fill-opacity="1" /><path clip-path="url(#clip710)" d="M2210.51 148.438 Q2210.51 147.009 2211.28 146.47 Q2212.06 145.908 2212.88 145.908 Q2213.98 145.908 2214.61 146.611 Q2215.27 147.29 2215.27 148.251 Q2215.27 149.211 2214.61 149.914 Q2213.98 150.593 2212.88 150.593 Q2212.34 150.593 2212.06 150.499 Q2212.69 152.701 2214.61 154.294 Q2216.56 155.886 2219.11 155.886 Q2222.32 155.886 2224.24 152.771 Q2225.39 150.757 2225.39 146.189 Q2225.39 142.161 2224.52 140.146 Q2223.18 137.078 2220.44 137.078 Q2216.56 137.078 2214.26 140.427 Q2213.98 140.849 2213.65 140.873 Q2213.18 140.873 2213.07 140.615 Q2212.97 140.334 2212.97 139.608 L2212.97 125.414 Q2212.97 124.266 2213.44 124.266 Q2213.63 124.266 2214.03 124.407 Q2217.05 125.742 2220.4 125.765 Q2223.84 125.765 2226.93 124.36 Q2227.17 124.219 2227.31 124.219 Q2227.77 124.219 2227.8 124.758 Q2227.8 124.945 2227.4 125.507 Q2227.02 126.046 2226.21 126.772 Q2225.39 127.475 2224.33 128.154 Q2223.28 128.833 2221.73 129.302 Q2220.21 129.747 2218.52 129.747 Q2216.51 129.747 2214.45 129.114 L2214.45 138.46 Q2216.93 136.024 2220.54 136.024 Q2224.38 136.024 2227.02 139.116 Q2229.67 142.208 2229.67 146.517 Q2229.67 151.038 2226.53 154.13 Q2223.42 157.221 2219.2 157.221 Q2215.36 157.221 2212.92 154.481 Q2210.51 151.741 2210.51 148.438 Z" fill="#000000" fill-rule="evenodd" fill-opacity="1" /><circle clip-path="url(#clip710)" cx="1991.32" cy="196.789" r="23.04" fill="#e26f46" fill-rule="evenodd" fill-opacity="0.5" stroke="#000000" stroke-opacity="0.5" stroke-width="5.12"/>
<path clip-path="url(#clip710)" d="M2111.18 194.469 Q2111.18 197.889 2109.45 201.191 Q2107.74 204.494 2105.04 206.532 Q2102.35 208.546 2099.61 208.546 Q2097.97 208.546 2096.87 207.656 Q2095.79 206.743 2095.21 205.454 Q2094.76 207.047 2093.8 210.865 Q2092.84 214.683 2092.84 215.058 Q2092.84 215.268 2092.89 215.362 Q2092.94 215.456 2093.15 215.573 Q2093.36 215.713 2093.87 215.76 Q2094.39 215.83 2095.25 215.83 Q2095.7 215.83 2095.86 215.83 Q2096.05 215.854 2096.21 215.971 Q2096.4 216.088 2096.4 216.346 Q2096.4 217.306 2095.54 217.306 Q2094.76 217.306 2093.17 217.236 Q2091.58 217.166 2090.78 217.166 Q2090.1 217.166 2088.74 217.236 Q2087.38 217.306 2086.75 217.306 Q2086.12 217.306 2086.12 216.744 Q2086.12 216.416 2086.21 216.205 Q2086.28 216.018 2086.47 215.924 Q2086.66 215.854 2086.82 215.83 Q2086.96 215.83 2087.24 215.83 Q2088.32 215.83 2088.79 215.643 Q2089.26 215.479 2089.42 215.128 Q2089.61 214.8 2089.82 213.863 L2095.21 192.502 Q2095.54 191.073 2095.54 190.066 Q2095.54 188.801 2095.14 188.333 Q2094.74 187.864 2094.04 187.864 Q2092.82 187.864 2092.02 189.316 Q2091.23 190.768 2090.55 193.579 Q2090.34 194.352 2090.19 194.516 Q2090.08 194.68 2089.73 194.68 Q2089.14 194.657 2089.14 194.188 Q2089.14 194.071 2089.33 193.321 Q2089.52 192.549 2089.87 191.424 Q2090.24 190.277 2090.64 189.55 Q2090.87 189.059 2091.08 188.731 Q2091.3 188.403 2091.72 187.887 Q2092.16 187.372 2092.79 187.091 Q2093.43 186.81 2094.2 186.81 Q2095.7 186.81 2096.94 187.7 Q2098.18 188.59 2098.51 190.394 Q2099.84 188.824 2101.48 187.817 Q2103.12 186.81 2104.79 186.81 Q2107.55 186.81 2109.35 188.965 Q2111.18 191.096 2111.18 194.469 M2107.71 192.361 Q2107.71 190.23 2106.9 189.059 Q2106.1 187.864 2104.65 187.864 Q2102.84 187.864 2100.76 189.691 Q2098.7 191.424 2098.28 193.04 L2095.91 202.433 L2095.77 203.206 Q2095.77 203.346 2095.84 203.768 Q2095.93 204.166 2096.19 204.822 Q2096.47 205.478 2096.85 206.063 Q2097.25 206.625 2097.95 207.047 Q2098.67 207.469 2099.56 207.469 Q2100.99 207.469 2102.54 206.204 Q2104.11 204.939 2105.28 202.55 Q2106.01 201.004 2106.85 197.678 Q2107.71 194.329 2107.71 192.361 Z" fill="#000000" fill-rule="evenodd" fill-opacity="1" /><path clip-path="url(#clip710)" d="M2123.31 200.723 Q2123.36 200.137 2124.27 200.137 L2153.67 200.137 Q2155.05 200.137 2155.07 200.676 Q2155.07 201.262 2153.76 201.238 L2124.6 201.238 Q2123.31 201.262 2123.31 200.723 M2123.31 191.354 Q2123.31 190.768 2124.32 190.792 L2153.62 190.792 Q2155.05 190.792 2155.07 191.354 Q2155.07 191.893 2153.86 191.893 L2124.27 191.893 Q2123.31 191.893 2123.31 191.354 Z" fill="#000000" fill-rule="evenodd" fill-opacity="1" /><path clip-path="url(#clip710)" d="M2173.57 192.666 Q2173.57 185.616 2175.35 181.774 Q2177.83 176.059 2183.68 176.059 Q2184.92 176.059 2186.21 176.41 Q2187.52 176.738 2189.16 178.027 Q2190.83 179.315 2191.83 181.423 Q2193.76 185.498 2193.76 192.666 Q2193.76 199.669 2191.98 203.487 Q2189.38 209.061 2183.64 209.061 Q2181.48 209.061 2179.28 207.961 Q2177.1 206.86 2175.72 204.213 Q2173.57 200.255 2173.57 192.666 M2177.55 192.08 Q2177.55 199.318 2178.06 202.199 Q2178.65 205.314 2180.24 206.672 Q2181.86 208.007 2183.64 208.007 Q2185.56 208.007 2187.15 206.579 Q2188.77 205.126 2189.26 202.011 Q2189.8 198.943 2189.77 192.08 Q2189.77 185.405 2189.3 182.735 Q2188.67 179.619 2186.99 178.378 Q2185.32 177.113 2183.64 177.113 Q2183 177.113 2182.33 177.301 Q2181.67 177.488 2180.71 178.027 Q2179.75 178.565 2179 179.9 Q2178.27 181.236 2177.92 183.25 Q2177.55 185.85 2177.55 192.08 Z" fill="#000000" fill-rule="evenodd" fill-opacity="1" /><path clip-path="url(#clip710)" d="M2198.04 207.234 Q2197.32 206.461 2197.32 205.454 Q2197.32 204.447 2198.04 203.721 Q2198.77 202.972 2199.87 202.972 Q2200.92 202.972 2201.62 203.674 Q2202.35 204.353 2202.35 205.478 Q2202.35 206.579 2201.58 207.305 Q2200.83 208.007 2199.87 208.007 Q2198.77 208.007 2198.04 207.234 Z" fill="#000000" fill-rule="evenodd" fill-opacity="1" /><path clip-path="url(#clip710)" d="M2210.51 208.007 Q2210.51 207.141 2210.58 206.883 Q2210.68 206.625 2211.05 206.227 L2220.26 195.968 Q2225.29 190.3 2225.29 185.358 Q2225.29 182.149 2223.61 179.854 Q2221.94 177.558 2218.87 177.558 Q2216.77 177.558 2214.99 178.846 Q2213.21 180.135 2212.39 182.43 Q2212.53 182.383 2213.02 182.383 Q2214.21 182.383 2214.87 183.133 Q2215.55 183.882 2215.55 184.889 Q2215.55 186.178 2214.7 186.81 Q2213.88 187.419 2213.07 187.419 Q2212.74 187.419 2212.29 187.349 Q2211.87 187.279 2211.19 186.623 Q2210.51 185.943 2210.51 184.749 Q2210.51 181.399 2213.04 178.729 Q2215.59 176.059 2219.48 176.059 Q2223.89 176.059 2226.77 178.682 Q2229.67 181.282 2229.67 185.358 Q2229.67 186.787 2229.23 188.098 Q2228.8 189.387 2228.22 190.394 Q2227.66 191.401 2226.11 193.017 Q2224.57 194.633 2223.32 195.781 Q2222.08 196.929 2219.3 199.364 L2214.21 204.307 L2222.86 204.307 Q2227.07 204.307 2227.4 203.932 Q2227.87 203.253 2228.45 199.669 L2229.67 199.669 L2228.31 208.007 L2210.51 208.007 Z" fill="#000000" fill-rule="evenodd" fill-opacity="1" /></svg>
