<?xml version="1.0" encoding="utf-8"?>
<svg xmlns="http://www.w3.org/2000/svg" xmlns:xlink="http://www.w3.org/1999/xlink" width="600" height="400" viewBox="0 0 2400 1600">
<defs>
  <clipPath id="clip950">
    <rect x="0" y="0" width="2400" height="1600"/>
  </clipPath>
</defs>
<path clip-path="url(#clip950)" d="
M0 1600 L2400 1600 L2400 0 L0 0  Z
  " fill="#ffffff" fill-rule="evenodd" fill-opacity="1"/>
<defs>
  <clipPath id="clip951">
    <rect x="480" y="0" width="1681" height="1600"/>
  </clipPath>
</defs>
<defs>
  <clipPath id="clip952">
    <rect x="219" y="47" width="2134" height="1377"/>
  </clipPath>
</defs>
<path clip-path="url(#clip950)" d="
M219.38 1423.18 L2352.76 1423.18 L2352.76 47.2441 L219.38 47.2441  Z
  " fill="#ffffff" fill-rule="evenodd" fill-opacity="1"/>
<polyline clip-path="url(#clip952)" style="stroke:#000000; stroke-linecap:butt; stroke-linejoin:round; stroke-width:2; stroke-opacity:0.1; fill:none" points="
  219.38,1423.18 219.38,47.2441 
  "/>
<polyline clip-path="url(#clip952)" style="stroke:#000000; stroke-linecap:butt; stroke-linejoin:round; stroke-width:2; stroke-opacity:0.1; fill:none" points="
  646.055,1423.18 646.055,47.2441 
  "/>
<polyline clip-path="url(#clip952)" style="stroke:#000000; stroke-linecap:butt; stroke-linejoin:round; stroke-width:2; stroke-opacity:0.1; fill:none" points="
  1072.73,1423.18 1072.73,47.2441 
  "/>
<polyline clip-path="url(#clip952)" style="stroke:#000000; stroke-linecap:butt; stroke-linejoin:round; stroke-width:2; stroke-opacity:0.1; fill:none" points="
  1499.41,1423.18 1499.41,47.2441 
  "/>
<polyline clip-path="url(#clip952)" style="stroke:#000000; stroke-linecap:butt; stroke-linejoin:round; stroke-width:2; stroke-opacity:0.1; fill:none" points="
  1926.08,1423.18 1926.08,47.2441 
  "/>
<polyline clip-path="url(#clip952)" style="stroke:#000000; stroke-linecap:butt; stroke-linejoin:round; stroke-width:2; stroke-opacity:0.1; fill:none" points="
  2352.76,1423.18 2352.76,47.2441 
  "/>
<polyline clip-path="url(#clip950)" style="stroke:#000000; stroke-linecap:butt; stroke-linejoin:round; stroke-width:4; stroke-opacity:1; fill:none" points="
  219.38,1423.18 2352.76,1423.18 
  "/>
<polyline clip-path="url(#clip950)" style="stroke:#000000; stroke-linecap:butt; stroke-linejoin:round; stroke-width:4; stroke-opacity:1; fill:none" points="
  219.38,1423.18 219.38,1404.28 
  "/>
<polyline clip-path="url(#clip950)" style="stroke:#000000; stroke-linecap:butt; stroke-linejoin:round; stroke-width:4; stroke-opacity:1; fill:none" points="
  646.055,1423.18 646.055,1404.28 
  "/>
<polyline clip-path="url(#clip950)" style="stroke:#000000; stroke-linecap:butt; stroke-linejoin:round; stroke-width:4; stroke-opacity:1; fill:none" points="
  1072.73,1423.18 1072.73,1404.28 
  "/>
<polyline clip-path="url(#clip950)" style="stroke:#000000; stroke-linecap:butt; stroke-linejoin:round; stroke-width:4; stroke-opacity:1; fill:none" points="
  1499.41,1423.18 1499.41,1404.28 
  "/>
<polyline clip-path="url(#clip950)" style="stroke:#000000; stroke-linecap:butt; stroke-linejoin:round; stroke-width:4; stroke-opacity:1; fill:none" points="
  1926.08,1423.18 1926.08,1404.28 
  "/>
<polyline clip-path="url(#clip950)" style="stroke:#000000; stroke-linecap:butt; stroke-linejoin:round; stroke-width:4; stroke-opacity:1; fill:none" points="
  2352.76,1423.18 2352.76,1404.28 
  "/>
<path clip-path="url(#clip950)" d="M196.765 1454.1 Q193.153 1454.1 191.325 1457.66 Q189.519 1461.2 189.519 1468.33 Q189.519 1475.44 191.325 1479.01 Q193.153 1482.55 196.765 1482.55 Q200.399 1482.55 202.204 1479.01 Q204.033 1475.44 204.033 1468.33 Q204.033 1461.2 202.204 1457.66 Q200.399 1454.1 196.765 1454.1 M196.765 1450.39 Q202.575 1450.39 205.63 1455 Q208.709 1459.58 208.709 1468.33 Q208.709 1477.06 205.63 1481.67 Q202.575 1486.25 196.765 1486.25 Q190.954 1486.25 187.876 1481.67 Q184.82 1477.06 184.82 1468.33 Q184.82 1459.58 187.876 1455 Q190.954 1450.39 196.765 1450.39 Z" fill="#000000" fill-rule="evenodd" fill-opacity="1" /><path clip-path="url(#clip950)" d="M216.926 1479.7 L221.811 1479.7 L221.811 1485.58 L216.926 1485.58 L216.926 1479.7 Z" fill="#000000" fill-rule="evenodd" fill-opacity="1" /><path clip-path="url(#clip950)" d="M241.996 1454.1 Q238.385 1454.1 236.556 1457.66 Q234.75 1461.2 234.75 1468.33 Q234.75 1475.44 236.556 1479.01 Q238.385 1482.55 241.996 1482.55 Q245.63 1482.55 247.436 1479.01 Q249.264 1475.44 249.264 1468.33 Q249.264 1461.2 247.436 1457.66 Q245.63 1454.1 241.996 1454.1 M241.996 1450.39 Q247.806 1450.39 250.861 1455 Q253.94 1459.58 253.94 1468.33 Q253.94 1477.06 250.861 1481.67 Q247.806 1486.25 241.996 1486.25 Q236.186 1486.25 233.107 1481.67 Q230.051 1477.06 230.051 1468.33 Q230.051 1459.58 233.107 1455 Q236.186 1450.39 241.996 1450.39 Z" fill="#000000" fill-rule="evenodd" fill-opacity="1" /><path clip-path="url(#clip950)" d="M624.238 1454.1 Q620.627 1454.1 618.799 1457.66 Q616.993 1461.2 616.993 1468.33 Q616.993 1475.44 618.799 1479.01 Q620.627 1482.55 624.238 1482.55 Q627.873 1482.55 629.678 1479.01 Q631.507 1475.44 631.507 1468.33 Q631.507 1461.2 629.678 1457.66 Q627.873 1454.1 624.238 1454.1 M624.238 1450.39 Q630.048 1450.39 633.104 1455 Q636.183 1459.58 636.183 1468.33 Q636.183 1477.06 633.104 1481.67 Q630.048 1486.25 624.238 1486.25 Q618.428 1486.25 615.349 1481.67 Q612.294 1477.06 612.294 1468.33 Q612.294 1459.58 615.349 1455 Q618.428 1450.39 624.238 1450.39 Z" fill="#000000" fill-rule="evenodd" fill-opacity="1" /><path clip-path="url(#clip950)" d="M644.4 1479.7 L649.284 1479.7 L649.284 1485.58 L644.4 1485.58 L644.4 1479.7 Z" fill="#000000" fill-rule="evenodd" fill-opacity="1" /><path clip-path="url(#clip950)" d="M663.497 1481.64 L679.817 1481.64 L679.817 1485.58 L657.872 1485.58 L657.872 1481.64 Q660.534 1478.89 665.118 1474.26 Q669.724 1469.61 670.905 1468.27 Q673.15 1465.74 674.03 1464.01 Q674.932 1462.25 674.932 1460.56 Q674.932 1457.8 672.988 1456.07 Q671.067 1454.33 667.965 1454.33 Q665.766 1454.33 663.312 1455.09 Q660.882 1455.86 658.104 1457.41 L658.104 1452.69 Q660.928 1451.55 663.382 1450.97 Q665.835 1450.39 667.872 1450.39 Q673.243 1450.39 676.437 1453.08 Q679.632 1455.77 679.632 1460.26 Q679.632 1462.39 678.821 1464.31 Q678.034 1466.2 675.928 1468.8 Q675.349 1469.47 672.247 1472.69 Q669.145 1475.88 663.497 1481.64 Z" fill="#000000" fill-rule="evenodd" fill-opacity="1" /><path clip-path="url(#clip950)" d="M1049.87 1454.1 Q1046.26 1454.1 1044.43 1457.66 Q1042.63 1461.2 1042.63 1468.33 Q1042.63 1475.44 1044.43 1479.01 Q1046.26 1482.55 1049.87 1482.55 Q1053.51 1482.55 1055.31 1479.01 Q1057.14 1475.44 1057.14 1468.33 Q1057.14 1461.2 1055.31 1457.66 Q1053.51 1454.1 1049.87 1454.1 M1049.87 1450.39 Q1055.68 1450.39 1058.74 1455 Q1061.82 1459.58 1061.82 1468.33 Q1061.82 1477.06 1058.74 1481.67 Q1055.68 1486.25 1049.87 1486.25 Q1044.06 1486.25 1040.98 1481.67 Q1037.93 1477.06 1037.93 1468.33 Q1037.93 1459.58 1040.98 1455 Q1044.06 1450.39 1049.87 1450.39 Z" fill="#000000" fill-rule="evenodd" fill-opacity="1" /><path clip-path="url(#clip950)" d="M1070.03 1479.7 L1074.92 1479.7 L1074.92 1485.58 L1070.03 1485.58 L1070.03 1479.7 Z" fill="#000000" fill-rule="evenodd" fill-opacity="1" /><path clip-path="url(#clip950)" d="M1097.95 1455.09 L1086.14 1473.54 L1097.95 1473.54 L1097.95 1455.09 M1096.72 1451.02 L1102.6 1451.02 L1102.6 1473.54 L1107.53 1473.54 L1107.53 1477.43 L1102.6 1477.43 L1102.6 1485.58 L1097.95 1485.58 L1097.95 1477.43 L1082.35 1477.43 L1082.35 1472.92 L1096.72 1451.02 Z" fill="#000000" fill-rule="evenodd" fill-opacity="1" /><path clip-path="url(#clip950)" d="M1476.71 1454.1 Q1473.1 1454.1 1471.27 1457.66 Q1469.46 1461.2 1469.46 1468.33 Q1469.46 1475.44 1471.27 1479.01 Q1473.1 1482.55 1476.71 1482.55 Q1480.34 1482.55 1482.15 1479.01 Q1483.98 1475.44 1483.98 1468.33 Q1483.98 1461.2 1482.15 1457.66 Q1480.34 1454.1 1476.71 1454.1 M1476.71 1450.39 Q1482.52 1450.39 1485.57 1455 Q1488.65 1459.58 1488.65 1468.33 Q1488.65 1477.06 1485.57 1481.67 Q1482.52 1486.25 1476.71 1486.25 Q1470.9 1486.25 1467.82 1481.67 Q1464.76 1477.06 1464.76 1468.33 Q1464.76 1459.58 1467.82 1455 Q1470.9 1450.39 1476.71 1450.39 Z" fill="#000000" fill-rule="evenodd" fill-opacity="1" /><path clip-path="url(#clip950)" d="M1496.87 1479.7 L1501.76 1479.7 L1501.76 1485.58 L1496.87 1485.58 L1496.87 1479.7 Z" fill="#000000" fill-rule="evenodd" fill-opacity="1" /><path clip-path="url(#clip950)" d="M1522.52 1466.44 Q1519.37 1466.44 1517.52 1468.59 Q1515.69 1470.74 1515.69 1474.49 Q1515.69 1478.22 1517.52 1480.39 Q1519.37 1482.55 1522.52 1482.55 Q1525.67 1482.55 1527.5 1480.39 Q1529.35 1478.22 1529.35 1474.49 Q1529.35 1470.74 1527.5 1468.59 Q1525.67 1466.44 1522.52 1466.44 M1531.8 1451.78 L1531.8 1456.04 Q1530.04 1455.21 1528.24 1454.77 Q1526.45 1454.33 1524.69 1454.33 Q1520.07 1454.33 1517.61 1457.45 Q1515.18 1460.58 1514.83 1466.9 Q1516.2 1464.89 1518.26 1463.82 Q1520.32 1462.73 1522.8 1462.73 Q1528 1462.73 1531.01 1465.9 Q1534.05 1469.05 1534.05 1474.49 Q1534.05 1479.82 1530.9 1483.03 Q1527.75 1486.25 1522.52 1486.25 Q1516.52 1486.25 1513.35 1481.67 Q1510.18 1477.06 1510.18 1468.33 Q1510.18 1460.14 1514.07 1455.28 Q1517.96 1450.39 1524.51 1450.39 Q1526.27 1450.39 1528.05 1450.74 Q1529.86 1451.09 1531.8 1451.78 Z" fill="#000000" fill-rule="evenodd" fill-opacity="1" /><path clip-path="url(#clip950)" d="M1903.51 1454.1 Q1899.9 1454.1 1898.07 1457.66 Q1896.27 1461.2 1896.27 1468.33 Q1896.27 1475.44 1898.07 1479.01 Q1899.9 1482.55 1903.51 1482.55 Q1907.15 1482.55 1908.95 1479.01 Q1910.78 1475.44 1910.78 1468.33 Q1910.78 1461.2 1908.95 1457.66 Q1907.15 1454.1 1903.51 1454.1 M1903.51 1450.39 Q1909.32 1450.39 1912.38 1455 Q1915.46 1459.58 1915.46 1468.33 Q1915.46 1477.06 1912.38 1481.67 Q1909.32 1486.25 1903.51 1486.25 Q1897.7 1486.25 1894.62 1481.67 Q1891.57 1477.06 1891.57 1468.33 Q1891.57 1459.58 1894.62 1455 Q1897.7 1450.39 1903.51 1450.39 Z" fill="#000000" fill-rule="evenodd" fill-opacity="1" /><path clip-path="url(#clip950)" d="M1923.67 1479.7 L1928.56 1479.7 L1928.56 1485.58 L1923.67 1485.58 L1923.67 1479.7 Z" fill="#000000" fill-rule="evenodd" fill-opacity="1" /><path clip-path="url(#clip950)" d="M1948.74 1469.17 Q1945.41 1469.17 1943.49 1470.95 Q1941.59 1472.73 1941.59 1475.86 Q1941.59 1478.98 1943.49 1480.77 Q1945.41 1482.55 1948.74 1482.55 Q1952.08 1482.55 1954 1480.77 Q1955.92 1478.96 1955.92 1475.86 Q1955.92 1472.73 1954 1470.95 Q1952.1 1469.17 1948.74 1469.17 M1944.07 1467.18 Q1941.06 1466.44 1939.37 1464.38 Q1937.7 1462.32 1937.7 1459.35 Q1937.7 1455.21 1940.64 1452.8 Q1943.6 1450.39 1948.74 1450.39 Q1953.9 1450.39 1956.84 1452.8 Q1959.78 1455.21 1959.78 1459.35 Q1959.78 1462.32 1958.09 1464.38 Q1956.43 1466.44 1953.44 1467.18 Q1956.82 1467.96 1958.7 1470.26 Q1960.59 1472.55 1960.59 1475.86 Q1960.59 1480.88 1957.52 1483.57 Q1954.46 1486.25 1948.74 1486.25 Q1943.03 1486.25 1939.95 1483.57 Q1936.89 1480.88 1936.89 1475.86 Q1936.89 1472.55 1938.79 1470.26 Q1940.69 1467.96 1944.07 1467.18 M1942.35 1459.79 Q1942.35 1462.48 1944.02 1463.98 Q1945.71 1465.49 1948.74 1465.49 Q1951.75 1465.49 1953.44 1463.98 Q1955.15 1462.48 1955.15 1459.79 Q1955.15 1457.11 1953.44 1455.6 Q1951.75 1454.1 1948.74 1454.1 Q1945.71 1454.1 1944.02 1455.6 Q1942.35 1457.11 1942.35 1459.79 Z" fill="#000000" fill-rule="evenodd" fill-opacity="1" /><path clip-path="url(#clip950)" d="M2319.91 1481.64 L2327.55 1481.64 L2327.55 1455.28 L2319.24 1456.95 L2319.24 1452.69 L2327.5 1451.02 L2332.18 1451.02 L2332.18 1481.64 L2339.82 1481.64 L2339.82 1485.58 L2319.91 1485.58 L2319.91 1481.64 Z" fill="#000000" fill-rule="evenodd" fill-opacity="1" /><path clip-path="url(#clip950)" d="M2349.26 1479.7 L2354.14 1479.7 L2354.14 1485.58 L2349.26 1485.58 L2349.26 1479.7 Z" fill="#000000" fill-rule="evenodd" fill-opacity="1" /><path clip-path="url(#clip950)" d="M2374.33 1454.1 Q2370.72 1454.1 2368.89 1457.66 Q2367.08 1461.2 2367.08 1468.33 Q2367.08 1475.44 2368.89 1479.01 Q2370.72 1482.55 2374.33 1482.55 Q2377.96 1482.55 2379.77 1479.01 Q2381.6 1475.44 2381.6 1468.33 Q2381.6 1461.2 2379.77 1457.66 Q2377.96 1454.1 2374.33 1454.1 M2374.33 1450.39 Q2380.14 1450.39 2383.2 1455 Q2386.27 1459.58 2386.27 1468.33 Q2386.27 1477.06 2383.2 1481.67 Q2380.14 1486.25 2374.33 1486.25 Q2368.52 1486.25 2365.44 1481.67 Q2362.39 1477.06 2362.39 1468.33 Q2362.39 1459.58 2365.44 1455 Q2368.52 1450.39 2374.33 1450.39 Z" fill="#000000" fill-rule="evenodd" fill-opacity="1" /><path clip-path="url(#clip950)" d="M1298 1529.22 Q1298 1534.63 1296.26 1540.71 Q1294.56 1546.77 1291.85 1551.66 Q1289.15 1556.53 1285.6 1559.75 Q1282.06 1562.94 1278.68 1562.94 Q1276.52 1562.94 1274.91 1561.75 Q1273.33 1560.52 1272.46 1558.49 Q1271.59 1556.43 1271.18 1554.18 Q1270.76 1551.89 1270.76 1549.41 Q1270.76 1545.71 1271.56 1541.68 Q1272.37 1537.62 1273.72 1533.95 Q1275.07 1530.25 1276.97 1526.9 Q1278.87 1523.52 1280.97 1521.07 Q1283.09 1518.59 1285.47 1517.14 Q1287.86 1515.69 1290.08 1515.69 Q1291.69 1515.69 1292.98 1516.4 Q1294.3 1517.08 1295.14 1518.27 Q1295.97 1519.43 1296.55 1520.81 Q1297.17 1522.2 1297.46 1523.81 Q1297.75 1525.38 1297.87 1526.71 Q1298 1527.99 1298 1529.22 M1293.66 1525.13 Q1293.66 1523.48 1293.53 1522.26 Q1293.4 1521 1293.04 1519.75 Q1292.69 1518.49 1291.92 1517.82 Q1291.18 1517.14 1290.02 1517.14 Q1286.63 1517.14 1282.83 1524.06 Q1281.61 1526.22 1280.52 1529.15 Q1279.42 1532.08 1279.03 1533.47 Q1278.65 1534.85 1277.75 1538.27 L1291.53 1538.27 Q1293.66 1529.47 1293.66 1525.13 M1290.95 1540.36 L1277.23 1540.36 Q1275.1 1548.41 1275.1 1553.44 Q1275.1 1557.82 1276.01 1559.65 Q1276.94 1561.46 1278.68 1561.46 Q1280.68 1561.46 1282.54 1559.46 Q1284.41 1557.43 1286.31 1553.76 Q1288.82 1548.99 1290.95 1540.36 Z" fill="#000000" fill-rule="evenodd" fill-opacity="1" /><polyline clip-path="url(#clip952)" style="stroke:#000000; stroke-linecap:butt; stroke-linejoin:round; stroke-width:2; stroke-opacity:0.1; fill:none" points="
  219.38,1384.24 2352.76,1384.24 
  "/>
<polyline clip-path="url(#clip952)" style="stroke:#000000; stroke-linecap:butt; stroke-linejoin:round; stroke-width:2; stroke-opacity:0.1; fill:none" points="
  219.38,1019.15 2352.76,1019.15 
  "/>
<polyline clip-path="url(#clip952)" style="stroke:#000000; stroke-linecap:butt; stroke-linejoin:round; stroke-width:2; stroke-opacity:0.1; fill:none" points="
  219.38,654.07 2352.76,654.07 
  "/>
<polyline clip-path="url(#clip952)" style="stroke:#000000; stroke-linecap:butt; stroke-linejoin:round; stroke-width:2; stroke-opacity:0.1; fill:none" points="
  219.38,288.986 2352.76,288.986 
  "/>
<polyline clip-path="url(#clip950)" style="stroke:#000000; stroke-linecap:butt; stroke-linejoin:round; stroke-width:4; stroke-opacity:1; fill:none" points="
  219.38,1423.18 219.38,47.2441 
  "/>
<polyline clip-path="url(#clip950)" style="stroke:#000000; stroke-linecap:butt; stroke-linejoin:round; stroke-width:4; stroke-opacity:1; fill:none" points="
  219.38,1384.24 238.278,1384.24 
  "/>
<polyline clip-path="url(#clip950)" style="stroke:#000000; stroke-linecap:butt; stroke-linejoin:round; stroke-width:4; stroke-opacity:1; fill:none" points="
  219.38,1019.15 238.278,1019.15 
  "/>
<polyline clip-path="url(#clip950)" style="stroke:#000000; stroke-linecap:butt; stroke-linejoin:round; stroke-width:4; stroke-opacity:1; fill:none" points="
  219.38,654.07 238.278,654.07 
  "/>
<polyline clip-path="url(#clip950)" style="stroke:#000000; stroke-linecap:butt; stroke-linejoin:round; stroke-width:4; stroke-opacity:1; fill:none" points="
  219.38,288.986 238.278,288.986 
  "/>
<path clip-path="url(#clip950)" d="M126.205 1370.04 Q122.593 1370.04 120.765 1373.6 Q118.959 1377.14 118.959 1384.27 Q118.959 1391.38 120.765 1394.94 Q122.593 1398.49 126.205 1398.49 Q129.839 1398.49 131.644 1394.94 Q133.473 1391.38 133.473 1384.27 Q133.473 1377.14 131.644 1373.6 Q129.839 1370.04 126.205 1370.04 M126.205 1366.33 Q132.015 1366.33 135.07 1370.94 Q138.149 1375.52 138.149 1384.27 Q138.149 1393 135.07 1397.61 Q132.015 1402.19 126.205 1402.19 Q120.394 1402.19 117.316 1397.61 Q114.26 1393 114.26 1384.27 Q114.26 1375.52 117.316 1370.94 Q120.394 1366.33 126.205 1366.33 Z" fill="#000000" fill-rule="evenodd" fill-opacity="1" /><path clip-path="url(#clip950)" d="M146.366 1395.64 L151.251 1395.64 L151.251 1401.52 L146.366 1401.52 L146.366 1395.64 Z" fill="#000000" fill-rule="evenodd" fill-opacity="1" /><path clip-path="url(#clip950)" d="M171.436 1370.04 Q167.825 1370.04 165.996 1373.6 Q164.19 1377.14 164.19 1384.27 Q164.19 1391.38 165.996 1394.94 Q167.825 1398.49 171.436 1398.49 Q175.07 1398.49 176.876 1394.94 Q178.704 1391.38 178.704 1384.27 Q178.704 1377.14 176.876 1373.6 Q175.07 1370.04 171.436 1370.04 M171.436 1366.33 Q177.246 1366.33 180.301 1370.94 Q183.38 1375.52 183.38 1384.27 Q183.38 1393 180.301 1397.61 Q177.246 1402.19 171.436 1402.19 Q165.626 1402.19 162.547 1397.61 Q159.491 1393 159.491 1384.27 Q159.491 1375.52 162.547 1370.94 Q165.626 1366.33 171.436 1366.33 Z" fill="#000000" fill-rule="evenodd" fill-opacity="1" /><path clip-path="url(#clip950)" d="M127.2 1004.95 Q123.589 1004.95 121.76 1008.52 Q119.955 1012.06 119.955 1019.19 Q119.955 1026.3 121.76 1029.86 Q123.589 1033.4 127.2 1033.4 Q130.834 1033.4 132.64 1029.86 Q134.468 1026.3 134.468 1019.19 Q134.468 1012.06 132.64 1008.52 Q130.834 1004.95 127.2 1004.95 M127.2 1001.25 Q133.01 1001.25 136.066 1005.86 Q139.144 1010.44 139.144 1019.19 Q139.144 1027.92 136.066 1032.52 Q133.01 1037.11 127.2 1037.11 Q121.39 1037.11 118.311 1032.52 Q115.256 1027.92 115.256 1019.19 Q115.256 1010.44 118.311 1005.86 Q121.39 1001.25 127.2 1001.25 Z" fill="#000000" fill-rule="evenodd" fill-opacity="1" /><path clip-path="url(#clip950)" d="M147.362 1030.55 L152.246 1030.55 L152.246 1036.43 L147.362 1036.43 L147.362 1030.55 Z" fill="#000000" fill-rule="evenodd" fill-opacity="1" /><path clip-path="url(#clip950)" d="M162.477 1001.87 L180.834 1001.87 L180.834 1005.81 L166.76 1005.81 L166.76 1014.28 Q167.778 1013.93 168.797 1013.77 Q169.815 1013.59 170.834 1013.59 Q176.621 1013.59 180.001 1016.76 Q183.38 1019.93 183.38 1025.35 Q183.38 1030.93 179.908 1034.03 Q176.436 1037.11 170.116 1037.11 Q167.94 1037.11 165.672 1036.74 Q163.427 1036.36 161.019 1035.62 L161.019 1030.93 Q163.102 1032.06 165.325 1032.61 Q167.547 1033.17 170.024 1033.17 Q174.028 1033.17 176.366 1031.06 Q178.704 1028.96 178.704 1025.35 Q178.704 1021.74 176.366 1019.63 Q174.028 1017.52 170.024 1017.52 Q168.149 1017.52 166.274 1017.94 Q164.422 1018.36 162.477 1019.24 L162.477 1001.87 Z" fill="#000000" fill-rule="evenodd" fill-opacity="1" /><path clip-path="url(#clip950)" d="M117.015 667.415 L124.654 667.415 L124.654 641.05 L116.343 642.716 L116.343 638.457 L124.607 636.79 L129.283 636.79 L129.283 667.415 L136.922 667.415 L136.922 671.35 L117.015 671.35 L117.015 667.415 Z" fill="#000000" fill-rule="evenodd" fill-opacity="1" /><path clip-path="url(#clip950)" d="M146.366 665.471 L151.251 665.471 L151.251 671.35 L146.366 671.35 L146.366 665.471 Z" fill="#000000" fill-rule="evenodd" fill-opacity="1" /><path clip-path="url(#clip950)" d="M171.436 639.869 Q167.825 639.869 165.996 643.434 Q164.19 646.975 164.19 654.105 Q164.19 661.211 165.996 664.776 Q167.825 668.318 171.436 668.318 Q175.07 668.318 176.876 664.776 Q178.704 661.211 178.704 654.105 Q178.704 646.975 176.876 643.434 Q175.07 639.869 171.436 639.869 M171.436 636.165 Q177.246 636.165 180.301 640.772 Q183.38 645.355 183.38 654.105 Q183.38 662.832 180.301 667.438 Q177.246 672.022 171.436 672.022 Q165.626 672.022 162.547 667.438 Q159.491 662.832 159.491 654.105 Q159.491 645.355 162.547 640.772 Q165.626 636.165 171.436 636.165 Z" fill="#000000" fill-rule="evenodd" fill-opacity="1" /><path clip-path="url(#clip950)" d="M118.01 302.331 L125.649 302.331 L125.649 275.966 L117.339 277.632 L117.339 273.373 L125.603 271.706 L130.279 271.706 L130.279 302.331 L137.917 302.331 L137.917 306.266 L118.01 306.266 L118.01 302.331 Z" fill="#000000" fill-rule="evenodd" fill-opacity="1" /><path clip-path="url(#clip950)" d="M147.362 300.387 L152.246 300.387 L152.246 306.266 L147.362 306.266 L147.362 300.387 Z" fill="#000000" fill-rule="evenodd" fill-opacity="1" /><path clip-path="url(#clip950)" d="M162.477 271.706 L180.834 271.706 L180.834 275.642 L166.76 275.642 L166.76 284.114 Q167.778 283.766 168.797 283.604 Q169.815 283.419 170.834 283.419 Q176.621 283.419 180.001 286.591 Q183.38 289.762 183.38 295.178 Q183.38 300.757 179.908 303.859 Q176.436 306.938 170.116 306.938 Q167.94 306.938 165.672 306.567 Q163.427 306.197 161.019 305.456 L161.019 300.757 Q163.102 301.891 165.325 302.447 Q167.547 303.002 170.024 303.002 Q174.028 303.002 176.366 300.896 Q178.704 298.79 178.704 295.178 Q178.704 291.567 176.366 289.461 Q174.028 287.354 170.024 287.354 Q168.149 287.354 166.274 287.771 Q164.422 288.188 162.477 289.067 L162.477 271.706 Z" fill="#000000" fill-rule="evenodd" fill-opacity="1" /><path clip-path="url(#clip950)" d="M21.7677 848.522 L58.7206 848.522 L58.7206 840.755 Q58.7206 830.92 54.2646 826.369 Q49.8086 821.786 40.1964 821.786 Q30.6479 821.786 26.2237 826.369 Q21.7677 830.92 21.7677 840.755 L21.7677 848.522 M16.4842 854.951 L16.4842 841.742 Q16.4842 827.928 22.2451 821.467 Q27.9743 815.006 40.1964 815.006 Q52.4822 815.006 58.2432 821.499 Q64.0042 827.992 64.0042 841.742 L64.0042 854.951 L16.4842 854.951 Z" fill="#000000" fill-rule="evenodd" fill-opacity="1" /><path clip-path="url(#clip950)" d="M44.7161 774.52 L47.5806 774.52 L47.5806 801.447 Q53.6281 801.065 56.8109 797.819 Q59.9619 794.54 59.9619 788.716 Q59.9619 785.342 59.1344 782.191 Q58.3069 779.008 56.6518 775.889 L62.1899 775.889 Q63.5267 779.04 64.227 782.35 Q64.9272 785.66 64.9272 789.066 Q64.9272 797.596 59.9619 802.593 Q54.9967 807.558 46.5303 807.558 Q37.7774 807.558 32.6531 802.848 Q27.4968 798.105 27.4968 790.084 Q27.4968 782.891 32.1438 778.722 Q36.7589 774.52 44.7161 774.52 M42.9973 780.377 Q38.1912 780.44 35.3266 783.082 Q32.4621 785.692 32.4621 790.021 Q32.4621 794.922 35.2312 797.882 Q38.0002 800.811 43.0292 801.256 L42.9973 780.377 Z" fill="#000000" fill-rule="evenodd" fill-opacity="1" /><path clip-path="url(#clip950)" d="M42.4881 735.276 L64.0042 735.276 L64.0042 741.132 L42.679 741.132 Q37.6183 741.132 35.1038 743.105 Q32.5894 745.079 32.5894 749.026 Q32.5894 753.768 35.6131 756.505 Q38.6368 759.243 43.8567 759.243 L64.0042 759.243 L64.0042 765.131 L28.3562 765.131 L28.3562 759.243 L33.8944 759.243 Q30.6797 757.142 29.0883 754.309 Q27.4968 751.445 27.4968 747.721 Q27.4968 741.578 31.3163 738.427 Q35.1038 735.276 42.4881 735.276 Z" fill="#000000" fill-rule="evenodd" fill-opacity="1" /><path clip-path="url(#clip950)" d="M29.4065 700.869 L34.9447 700.869 Q33.6716 703.352 33.035 706.025 Q32.3984 708.699 32.3984 711.563 Q32.3984 715.924 33.7352 718.12 Q35.072 720.284 37.7456 720.284 Q39.7826 720.284 40.9603 718.725 Q42.1061 717.165 43.1565 712.455 L43.6021 710.449 Q44.9389 704.211 47.3897 701.601 Q49.8086 698.959 54.1691 698.959 Q59.1344 698.959 62.0308 702.906 Q64.9272 706.821 64.9272 713.696 Q64.9272 716.56 64.3543 719.68 Q63.8132 722.767 62.6992 726.204 L56.6518 726.204 Q58.3387 722.958 59.198 719.807 Q60.0256 716.656 60.0256 713.569 Q60.0256 709.431 58.6251 707.203 Q57.1929 704.975 54.6147 704.975 Q52.2276 704.975 50.9545 706.598 Q49.6813 708.19 48.5037 713.632 L48.0262 715.669 Q46.8804 721.112 44.5251 723.531 Q42.138 725.95 38.0002 725.95 Q32.9713 725.95 30.2341 722.385 Q27.4968 718.82 27.4968 712.264 Q27.4968 709.017 27.9743 706.153 Q28.4517 703.288 29.4065 700.869 Z" fill="#000000" fill-rule="evenodd" fill-opacity="1" /><path clip-path="url(#clip950)" d="M28.3562 689.634 L28.3562 683.777 L64.0042 683.777 L64.0042 689.634 L28.3562 689.634 M14.479 689.634 L14.479 683.777 L21.895 683.777 L21.895 689.634 L14.479 689.634 Z" fill="#000000" fill-rule="evenodd" fill-opacity="1" /><path clip-path="url(#clip950)" d="M18.2347 665.73 L28.3562 665.73 L28.3562 653.667 L32.9077 653.667 L32.9077 665.73 L52.2594 665.73 Q56.6199 665.73 57.8613 664.553 Q59.1026 663.343 59.1026 659.683 L59.1026 653.667 L64.0042 653.667 L64.0042 659.683 Q64.0042 666.462 61.4897 669.04 Q58.9434 671.619 52.2594 671.619 L32.9077 671.619 L32.9077 675.915 L28.3562 675.915 L28.3562 671.619 L18.2347 671.619 L18.2347 665.73 Z" fill="#000000" fill-rule="evenodd" fill-opacity="1" /><path clip-path="url(#clip950)" d="M67.3143 631.133 Q73.68 633.615 75.6216 635.971 Q77.5631 638.326 77.5631 642.273 L77.5631 646.951 L72.6615 646.951 L72.6615 643.514 Q72.6615 641.095 71.5157 639.758 Q70.3699 638.421 66.1048 636.798 L63.4312 635.748 L28.3562 650.166 L28.3562 643.96 L56.238 632.82 L28.3562 621.68 L28.3562 615.473 L67.3143 631.133 Z" fill="#000000" fill-rule="evenodd" fill-opacity="1" /><polyline clip-path="url(#clip952)" style="stroke:#009af9; stroke-linecap:butt; stroke-linejoin:round; stroke-width:20; stroke-opacity:1; fill:none" points="
  219.38,654.07 233.27,654.07 361.698,654.07 438.877,654.07 504.132,654.07 575.017,654.07 640.366,654.07 710.428,654.07 791.601,654.07 863.738,654.07 
  926.996,654.07 995.964,654.07 1065.34,654.07 1142.05,654.07 1215.03,654.07 1290.92,654.07 1354.8,654.07 1432.79,654.07 1504.23,654.07 1570.22,654.07 
  1637.06,654.07 1711.97,654.07 1779.84,654.07 1857.56,654.07 1929.52,654.07 2000.46,654.07 2069.35,654.07 2139.96,654.07 2217.32,654.07 2329.7,654.07 
  2352.76,654.07 
  "/>
<polyline clip-path="url(#clip952)" style="stroke:#e26f46; stroke-linecap:butt; stroke-linejoin:round; stroke-width:20; stroke-opacity:1; fill:none" points="
  219.38,1384.24 222.853,1384.22 226.325,1384.15 229.797,1384.03 233.27,1383.87 265.377,1380.25 297.484,1372.92 313.537,1367.92 329.591,1362.06 345.644,1355.36 
  361.698,1347.85 380.992,1337.76 400.287,1326.58 419.582,1314.32 438.877,1301.03 471.505,1276.32 504.132,1248.97 539.574,1216.49 575.017,1181.34 607.691,1146.79 
  640.366,1110.37 675.397,1069.47 710.428,1026.88 751.014,975.712 791.601,922.947 863.738,826.339 926.996,740.005 995.964,645.838 1065.34,552.817 1103.69,502.785 
  1142.05,454.133 1178.54,409.402 1215.03,366.459 1252.97,323.987 1290.92,284.029 1322.86,252.559 1354.8,223.256 1374.3,206.509 1393.79,190.675 1413.29,175.795 
  1432.79,161.909 1450.65,150.094 1468.51,139.178 1486.37,129.192 1504.23,120.165 1520.73,112.708 1537.22,106.12 1553.72,100.427 1570.22,95.6516 1586.93,91.7753 
  1603.64,88.8915 1620.35,87.0253 1637.06,86.2021 1655.78,86.5501 1674.51,88.2753 1693.24,91.4133 1711.97,95.9996 1728.94,101.436 1745.91,108.118 1762.87,116.071 
  1779.84,125.321 1799.27,137.541 1818.7,151.535 1838.13,167.346 1857.56,185.011 1875.55,203.056 1893.54,222.758 1911.53,244.146 1929.52,267.254 1947.26,291.749 
  1964.99,317.976 1982.73,345.965 2000.46,375.746 2017.68,406.404 2034.9,438.807 2052.12,472.984 2069.35,508.961 2087,547.741 2104.65,588.472 2122.3,631.184 
  2139.96,675.907 2159.3,727.25 2178.64,781.082 2197.98,837.441 2217.32,896.368 2231.37,940.8 2245.41,986.622 2259.46,1033.85 2273.51,1082.5 2287.56,1132.58 
  2301.61,1184.11 2315.65,1237.11 2329.7,1291.58 2335.46,1314.37 2341.23,1337.4 2346.99,1360.69 2352.76,1384.24 
  "/>
<polyline clip-path="url(#clip952)" style="stroke:#3da44d; stroke-linecap:butt; stroke-linejoin:round; stroke-width:20; stroke-opacity:1; fill:none" points="
  219.38,1384.24 222.853,1370.02 226.325,1355.9 229.797,1341.87 233.27,1327.93 249.323,1264.69 265.377,1203.38 281.43,1144 297.484,1086.52 313.537,1030.91 
  329.591,977.151 345.644,925.226 361.698,875.109 380.992,817.234 400.287,761.901 419.582,709.069 438.877,658.701 455.191,618.009 471.505,579.026 487.818,541.729 
  504.132,506.095 521.853,469.242 539.574,434.294 557.296,401.22 575.017,369.99 591.354,342.805 607.691,317.139 624.029,292.966 640.366,270.265 657.882,247.533 
  675.397,226.435 692.912,206.942 710.428,189.025 730.721,170.199 751.014,153.404 771.308,138.594 791.601,125.726 809.635,115.881 827.669,107.502 845.704,100.557 
  863.738,95.0127 879.552,91.2794 895.367,88.5781 911.181,86.8873 926.996,86.1857 944.238,86.5226 961.48,87.9821 978.722,90.5364 995.964,94.1578 1013.31,98.8492 
  1030.65,104.564 1048,111.274 1065.34,118.951 1084.52,128.53 1103.69,139.219 1122.87,150.978 1142.05,163.771 1160.29,176.867 1178.54,190.83 1196.79,205.628 
  1215.03,221.228 1252.97,256.094 1290.92,293.989 1322.86,328.019 1354.8,363.811 1393.79,409.639 1432.79,457.507 1468.51,502.874 1504.23,549.437 1570.22,637.76 
  1637.06,728.938 1711.97,831.177 1779.84,922.038 1818.7,972.609 1857.56,1021.73 1893.54,1065.65 1929.52,1107.8 1964.99,1147.38 2000.46,1184.76 2034.9,1218.72 
  2069.35,1250.15 2104.65,1279.51 2139.96,1305.76 2159.3,1318.72 2178.64,1330.64 2197.98,1341.46 2217.32,1351.17 2245.41,1363.17 2273.51,1372.6 2301.61,1379.32 
  2329.7,1383.23 2335.46,1383.67 2341.23,1383.98 2346.99,1384.17 2352.76,1384.24 
  "/>
<path clip-path="url(#clip950)" d="
M1803.75 300.469 L2281.64 300.469 L2281.64 93.1086 L1803.75 93.1086  Z
  " fill="#ffffff" fill-rule="evenodd" fill-opacity="1"/>
<polyline clip-path="url(#clip950)" style="stroke:#000000; stroke-linecap:butt; stroke-linejoin:round; stroke-width:4; stroke-opacity:1; fill:none" points="
  1803.75,300.469 2281.64,300.469 2281.64,93.1086 1803.75,93.1086 1803.75,300.469 
  "/>
<polyline clip-path="url(#clip950)" style="stroke:#009af9; stroke-linecap:butt; stroke-linejoin:round; stroke-width:4; stroke-opacity:1; fill:none" points="
  1827.46,144.949 1969.68,144.949 
  "/>
<path clip-path="url(#clip950)" d="M2015.36 154.297 Q2014.72 157.318 2013.9 159.052 Q2012.59 161.698 2010.37 161.698 Q2008.68 161.698 2007.49 160.668 Q2006.29 159.637 2006.01 158.091 Q2002.94 161.698 1999.76 161.698 Q1996.95 161.698 1995.17 159.567 Q1993.39 157.412 1993.39 154.016 Q1993.39 150.596 1995.07 147.317 Q1996.78 144.038 1999.48 142 Q2002.17 139.962 2004.93 139.962 Q2007.86 139.962 2009.36 143.031 Q2009.48 142.187 2010.02 141.555 Q2010.56 140.923 2011.38 140.923 Q2012.01 140.923 2012.38 141.274 Q2012.76 141.602 2012.76 142.211 Q2012.76 142.515 2012.43 143.85 L2010.7 150.549 L2009.64 154.882 Q2009.24 156.475 2009.13 157.061 Q2009.03 157.646 2009.03 158.419 Q2009.03 160.621 2010.46 160.621 Q2011.16 160.621 2011.73 160.176 Q2012.29 159.731 2012.73 158.794 Q2013.18 157.857 2013.46 156.99 Q2013.74 156.1 2014.12 154.695 Q2014.23 154.133 2014.33 153.992 Q2014.44 153.828 2014.77 153.828 Q2015.36 153.828 2015.36 154.297 M2008.78 145.232 Q2008.78 145.021 2008.61 144.436 Q2008.45 143.85 2008.07 143.031 Q2007.7 142.211 2006.88 141.625 Q2006.08 141.016 2005 141.016 Q2003.55 141.016 2002.03 142.258 Q2000.53 143.499 1999.43 145.607 Q1998.59 147.293 1997.67 150.83 Q1996.78 154.367 1996.78 156.124 Q1996.78 157.201 1997.02 158.161 Q1997.27 159.098 1998 159.871 Q1998.73 160.621 1999.85 160.621 Q2002.59 160.621 2005.29 157.225 Q2005.8 156.639 2005.92 156.405 Q2006.06 156.147 2006.25 155.444 L2008.63 146.052 Q2008.78 145.349 2008.78 145.232 Z" fill="#000000" fill-rule="evenodd" fill-opacity="1" /><path clip-path="url(#clip950)" d="M2031.81 153.875 Q2031.86 153.29 2032.77 153.29 L2062.17 153.29 Q2063.55 153.29 2063.57 153.828 Q2063.57 154.414 2062.26 154.39 L2033.1 154.39 Q2031.81 154.414 2031.81 153.875 M2031.81 144.506 Q2031.81 143.921 2032.82 143.944 L2062.12 143.944 Q2063.55 143.944 2063.57 144.506 Q2063.57 145.045 2062.35 145.045 L2032.77 145.045 Q2031.81 145.045 2031.81 144.506 Z" fill="#000000" fill-rule="evenodd" fill-opacity="1" /><path clip-path="url(#clip950)" d="M2099.72 147.621 Q2099.72 150.994 2098.01 154.297 Q2096.33 157.576 2093.61 159.637 Q2090.92 161.698 2088.15 161.698 Q2085.46 161.698 2083.75 159.637 Q2082.06 157.553 2082.06 154.156 Q2082.06 152.962 2082.2 152.118 Q2082.34 151.275 2082.83 149.308 L2086.77 133.662 Q2087.45 130.734 2087.45 130.71 Q2087.45 130.429 2087.33 130.289 Q2087.24 130.125 2086.68 130.008 Q2086.11 129.891 2085.04 129.891 Q2084.59 129.891 2084.38 129.867 Q2084.19 129.844 2084.03 129.727 Q2083.89 129.586 2083.89 129.305 Q2083.89 128.907 2084.05 128.696 Q2084.24 128.462 2084.38 128.415 Q2084.52 128.368 2084.8 128.345 Q2085.2 128.321 2086.54 128.204 Q2087.87 128.064 2089.02 127.97 Q2090.17 127.876 2090.66 127.876 Q2090.94 127.876 2091.08 128.017 Q2091.24 128.134 2091.24 128.274 L2091.27 128.392 L2087.73 142.843 Q2090.52 139.962 2093.35 139.962 Q2096.19 139.962 2097.94 142.141 Q2099.72 144.319 2099.72 147.621 M2096.26 145.513 Q2096.26 143.288 2095.41 142.164 Q2094.59 141.016 2093.23 141.016 Q2092.09 141.016 2090.59 141.883 Q2089.09 142.75 2087.5 144.858 Q2087.19 145.256 2087.07 145.49 Q2086.98 145.724 2086.77 146.521 L2085.72 150.947 Q2084.94 153.969 2084.94 155.796 Q2084.94 158.279 2085.86 159.45 Q2086.77 160.621 2088.15 160.621 Q2089.6 160.621 2091.13 159.333 Q2092.65 158.044 2093.82 155.702 Q2094.55 154.156 2095.39 150.83 Q2096.26 147.481 2096.26 145.513 Z" fill="#000000" fill-rule="evenodd" fill-opacity="1" /><path clip-path="url(#clip950)" d="M2115.73 153.875 Q2115.78 153.29 2116.69 153.29 L2146.09 153.29 Q2147.47 153.29 2147.49 153.828 Q2147.49 154.414 2146.18 154.39 L2117.02 154.39 Q2115.73 154.414 2115.73 153.875 M2115.73 144.506 Q2115.73 143.921 2116.74 143.944 L2146.04 143.944 Q2147.47 143.944 2147.49 144.506 Q2147.49 145.045 2146.27 145.045 L2116.69 145.045 Q2115.73 145.045 2115.73 144.506 Z" fill="#000000" fill-rule="evenodd" fill-opacity="1" /><path clip-path="url(#clip950)" d="M2165.98 133.779 L2165.98 132.28 Q2171.74 132.28 2174.72 129.211 Q2175.54 129.211 2175.68 129.399 Q2175.82 129.586 2175.82 130.453 L2175.82 157.365 Q2175.82 158.794 2176.52 159.239 Q2177.22 159.684 2180.29 159.684 L2181.82 159.684 L2181.82 161.16 Q2180.13 161.019 2174.04 161.019 Q2167.95 161.019 2166.29 161.16 L2166.29 159.684 L2167.81 159.684 Q2170.83 159.684 2171.56 159.262 Q2172.28 158.817 2172.28 157.365 L2172.28 132.514 Q2169.78 133.779 2165.98 133.779 Z" fill="#000000" fill-rule="evenodd" fill-opacity="1" /><polyline clip-path="url(#clip950)" style="stroke:#e26f46; stroke-linecap:butt; stroke-linejoin:round; stroke-width:4; stroke-opacity:1; fill:none" points="
  1827.46,196.789 1969.68,196.789 
  "/>
<path clip-path="url(#clip950)" d="M2015.36 201.824 Q2014.72 204.846 2013.9 206.579 Q2012.59 209.226 2010.37 209.226 Q2008.68 209.226 2007.49 208.195 Q2006.29 207.165 2006.01 205.619 Q2002.94 209.226 1999.76 209.226 Q1996.95 209.226 1995.17 207.094 Q1993.39 204.939 1993.39 201.543 Q1993.39 198.124 1995.07 194.844 Q1996.78 191.565 1999.48 189.527 Q2002.17 187.49 2004.93 187.49 Q2007.86 187.49 2009.36 190.558 Q2009.48 189.715 2010.02 189.082 Q2010.56 188.45 2011.38 188.45 Q2012.01 188.45 2012.38 188.801 Q2012.76 189.129 2012.76 189.738 Q2012.76 190.043 2012.43 191.378 L2010.7 198.077 L2009.64 202.41 Q2009.24 204.003 2009.13 204.588 Q2009.03 205.174 2009.03 205.947 Q2009.03 208.148 2010.46 208.148 Q2011.16 208.148 2011.73 207.703 Q2012.29 207.258 2012.73 206.321 Q2013.18 205.384 2013.46 204.518 Q2013.74 203.628 2014.12 202.222 Q2014.23 201.66 2014.33 201.52 Q2014.44 201.356 2014.77 201.356 Q2015.36 201.356 2015.36 201.824 M2008.78 192.76 Q2008.78 192.549 2008.61 191.963 Q2008.45 191.378 2008.07 190.558 Q2007.7 189.738 2006.88 189.153 Q2006.08 188.544 2005 188.544 Q2003.55 188.544 2002.03 189.785 Q2000.53 191.027 1999.43 193.135 Q1998.59 194.821 1997.67 198.358 Q1996.78 201.895 1996.78 203.651 Q1996.78 204.729 1997.02 205.689 Q1997.27 206.626 1998 207.399 Q1998.73 208.148 1999.85 208.148 Q2002.59 208.148 2005.29 204.752 Q2005.8 204.167 2005.92 203.932 Q2006.06 203.675 2006.25 202.972 L2008.63 193.58 Q2008.78 192.877 2008.78 192.76 Z" fill="#000000" fill-rule="evenodd" fill-opacity="1" /><path clip-path="url(#clip950)" d="M2031.81 201.403 Q2031.86 200.817 2032.77 200.817 L2062.17 200.817 Q2063.55 200.817 2063.57 201.356 Q2063.57 201.941 2062.26 201.918 L2033.1 201.918 Q2031.81 201.941 2031.81 201.403 M2031.81 192.034 Q2031.81 191.448 2032.82 191.472 L2062.12 191.472 Q2063.55 191.472 2063.57 192.034 Q2063.57 192.572 2062.35 192.572 L2032.77 192.572 Q2031.81 192.572 2031.81 192.034 Z" fill="#000000" fill-rule="evenodd" fill-opacity="1" /><path clip-path="url(#clip950)" d="M2082.06 202.222 Q2082.06 200.794 2082.88 200.114 Q2083.7 199.435 2084.76 199.435 Q2085.86 199.435 2086.63 200.161 Q2087.43 200.864 2087.43 202.105 Q2087.43 203.44 2086.49 204.19 Q2085.57 204.939 2084.26 204.752 Q2085.41 206.673 2087.52 207.539 Q2089.65 208.406 2091.62 208.406 Q2093.68 208.406 2095.34 206.626 Q2097.03 204.846 2097.03 200.489 Q2097.03 196.788 2095.58 194.657 Q2094.15 192.526 2091.31 192.526 L2089.21 192.526 Q2088.48 192.526 2088.27 192.455 Q2088.06 192.385 2088.06 191.987 Q2088.06 191.518 2088.78 191.425 Q2089.51 191.425 2090.66 191.284 Q2093.44 191.19 2094.92 188.778 Q2096.26 186.529 2096.26 183.321 Q2096.26 180.393 2094.85 179.175 Q2093.47 177.933 2091.66 177.933 Q2089.98 177.933 2088.13 178.636 Q2086.28 179.339 2085.27 180.908 Q2088.25 180.908 2088.25 183.321 Q2088.25 184.375 2087.57 185.077 Q2086.91 185.756 2085.81 185.756 Q2084.76 185.756 2084.05 185.101 Q2083.35 184.421 2083.35 183.274 Q2083.35 180.533 2085.79 178.636 Q2088.25 176.739 2091.85 176.739 Q2095.41 176.739 2098.04 178.613 Q2100.68 180.486 2100.68 183.367 Q2100.68 186.202 2098.81 188.52 Q2096.93 190.839 2093.96 191.799 Q2097.61 192.526 2099.79 195.008 Q2101.97 197.468 2101.97 200.489 Q2101.97 204.237 2099.02 207.001 Q2096.07 209.741 2091.76 209.741 Q2087.78 209.741 2084.92 207.586 Q2082.06 205.431 2082.06 202.222 Z" fill="#000000" fill-rule="evenodd" fill-opacity="1" /><path clip-path="url(#clip950)" d="M2106.49 207.914 Q2105.81 207.141 2105.81 206.134 Q2105.81 205.127 2106.47 204.377 Q2107.15 203.604 2108.36 203.604 Q2109.79 203.604 2110.61 204.986 Q2111.43 206.345 2111.43 208.64 Q2111.43 211.123 2110.43 213.418 Q2109.42 215.737 2108.43 216.838 Q2107.45 217.939 2107.05 217.939 Q2106.58 217.939 2106.58 217.424 Q2106.58 217.236 2106.91 216.885 Q2110.36 213.184 2110.38 208.64 Q2110.38 207.914 2110.29 207.914 L2110.17 208.008 Q2109.35 208.687 2108.36 208.687 Q2107.17 208.687 2106.49 207.914 Z" fill="#000000" fill-rule="evenodd" fill-opacity="1" /><path clip-path="url(#clip950)" d="M2144.23 195.149 Q2144.23 198.522 2142.52 201.824 Q2140.83 205.103 2138.11 207.165 Q2135.42 209.226 2132.65 209.226 Q2129.96 209.226 2128.25 207.165 Q2126.56 205.08 2126.56 201.684 Q2126.56 200.489 2126.71 199.646 Q2126.85 198.803 2127.34 196.835 L2131.27 181.189 Q2131.95 178.261 2131.95 178.238 Q2131.95 177.957 2131.83 177.816 Q2131.74 177.652 2131.18 177.535 Q2130.62 177.418 2129.54 177.418 Q2129.09 177.418 2128.88 177.395 Q2128.7 177.371 2128.53 177.254 Q2128.39 177.114 2128.39 176.833 Q2128.39 176.434 2128.56 176.224 Q2128.74 175.989 2128.88 175.942 Q2129.02 175.896 2129.31 175.872 Q2129.7 175.849 2131.04 175.732 Q2132.37 175.591 2133.52 175.497 Q2134.67 175.404 2135.16 175.404 Q2135.44 175.404 2135.58 175.544 Q2135.75 175.661 2135.75 175.802 L2135.77 175.919 L2132.23 190.371 Q2135.02 187.49 2137.85 187.49 Q2140.69 187.49 2142.45 189.668 Q2144.23 191.846 2144.23 195.149 M2140.76 193.041 Q2140.76 190.816 2139.92 189.691 Q2139.1 188.544 2137.74 188.544 Q2136.59 188.544 2135.09 189.41 Q2133.59 190.277 2132 192.385 Q2131.69 192.783 2131.58 193.017 Q2131.48 193.252 2131.27 194.048 L2130.22 198.475 Q2129.45 201.496 2129.45 203.323 Q2129.45 205.806 2130.36 206.977 Q2131.27 208.148 2132.65 208.148 Q2134.11 208.148 2135.63 206.86 Q2137.15 205.572 2138.32 203.23 Q2139.05 201.684 2139.89 198.358 Q2140.76 195.008 2140.76 193.041 Z" fill="#000000" fill-rule="evenodd" fill-opacity="1" /><path clip-path="url(#clip950)" d="M2160.23 201.403 Q2160.28 200.817 2161.19 200.817 L2190.59 200.817 Q2191.97 200.817 2191.99 201.356 Q2191.99 201.941 2190.68 201.918 L2161.52 201.918 Q2160.23 201.941 2160.23 201.403 M2160.23 192.034 Q2160.23 191.448 2161.24 191.472 L2190.54 191.472 Q2191.97 191.472 2191.99 192.034 Q2191.99 192.572 2190.78 192.572 L2161.19 192.572 Q2160.23 192.572 2160.23 192.034 Z" fill="#000000" fill-rule="evenodd" fill-opacity="1" /><path clip-path="url(#clip950)" d="M2210.49 208.687 Q2210.49 207.82 2210.56 207.563 Q2210.65 207.305 2211.02 206.907 L2220.23 196.648 Q2225.26 190.98 2225.26 186.038 Q2225.26 182.829 2223.58 180.533 Q2221.92 178.238 2218.85 178.238 Q2216.74 178.238 2214.96 179.526 Q2213.18 180.814 2212.36 183.11 Q2212.5 183.063 2212.99 183.063 Q2214.19 183.063 2214.84 183.812 Q2215.52 184.562 2215.52 185.569 Q2215.52 186.857 2214.68 187.49 Q2213.86 188.099 2213.04 188.099 Q2212.71 188.099 2212.27 188.028 Q2211.84 187.958 2211.16 187.302 Q2210.49 186.623 2210.49 185.429 Q2210.49 182.079 2213.01 179.409 Q2215.57 176.739 2219.46 176.739 Q2223.86 176.739 2226.74 179.362 Q2229.64 181.962 2229.64 186.038 Q2229.64 187.466 2229.2 188.778 Q2228.78 190.066 2228.19 191.073 Q2227.63 192.081 2226.08 193.697 Q2224.54 195.313 2223.3 196.461 Q2222.06 197.608 2219.27 200.044 L2214.19 204.986 L2222.83 204.986 Q2227.04 204.986 2227.37 204.612 Q2227.84 203.932 2228.43 200.349 L2229.64 200.349 L2228.29 208.687 L2210.49 208.687 Z" fill="#000000" fill-rule="evenodd" fill-opacity="1" /><polyline clip-path="url(#clip950)" style="stroke:#3da44d; stroke-linecap:butt; stroke-linejoin:round; stroke-width:4; stroke-opacity:1; fill:none" points="
  1827.46,248.629 1969.68,248.629 
  "/>
<path clip-path="url(#clip950)" d="M2015.36 253.664 Q2014.72 256.686 2013.9 258.419 Q2012.59 261.066 2010.37 261.066 Q2008.68 261.066 2007.49 260.035 Q2006.29 259.005 2006.01 257.459 Q2002.94 261.066 1999.76 261.066 Q1996.95 261.066 1995.17 258.934 Q1993.39 256.779 1993.39 253.383 Q1993.39 249.964 1995.07 246.684 Q1996.78 243.405 1999.48 241.367 Q2002.17 239.33 2004.93 239.33 Q2007.86 239.33 2009.36 242.398 Q2009.48 241.555 2010.02 240.922 Q2010.56 240.29 2011.38 240.29 Q2012.01 240.29 2012.38 240.641 Q2012.76 240.969 2012.76 241.578 Q2012.76 241.883 2012.43 243.218 L2010.7 249.917 L2009.64 254.25 Q2009.24 255.843 2009.13 256.428 Q2009.03 257.014 2009.03 257.787 Q2009.03 259.988 2010.46 259.988 Q2011.16 259.988 2011.73 259.543 Q2012.29 259.098 2012.73 258.161 Q2013.18 257.224 2013.46 256.358 Q2013.74 255.468 2014.12 254.062 Q2014.23 253.5 2014.33 253.36 Q2014.44 253.196 2014.77 253.196 Q2015.36 253.196 2015.36 253.664 M2008.78 244.6 Q2008.78 244.389 2008.61 243.803 Q2008.45 243.218 2008.07 242.398 Q2007.7 241.578 2006.88 240.993 Q2006.08 240.384 2005 240.384 Q2003.55 240.384 2002.03 241.625 Q2000.53 242.867 1999.43 244.975 Q1998.59 246.661 1997.67 250.198 Q1996.78 253.735 1996.78 255.491 Q1996.78 256.569 1997.02 257.529 Q1997.27 258.466 1998 259.239 Q1998.73 259.988 1999.85 259.988 Q2002.59 259.988 2005.29 256.592 Q2005.8 256.007 2005.92 255.772 Q2006.06 255.515 2006.25 254.812 L2008.63 245.42 Q2008.78 244.717 2008.78 244.6 Z" fill="#000000" fill-rule="evenodd" fill-opacity="1" /><path clip-path="url(#clip950)" d="M2031.81 253.243 Q2031.86 252.657 2032.77 252.657 L2062.17 252.657 Q2063.55 252.657 2063.57 253.196 Q2063.57 253.781 2062.26 253.758 L2033.1 253.758 Q2031.81 253.781 2031.81 253.243 M2031.81 243.874 Q2031.81 243.288 2032.82 243.312 L2062.12 243.312 Q2063.55 243.312 2063.57 243.874 Q2063.57 244.412 2062.35 244.412 L2032.77 244.412 Q2031.81 244.412 2031.81 243.874 Z" fill="#000000" fill-rule="evenodd" fill-opacity="1" /><path clip-path="url(#clip950)" d="M2082.06 260.527 Q2082.06 259.66 2082.13 259.403 Q2082.23 259.145 2082.6 258.747 L2091.81 248.488 Q2096.84 242.82 2096.84 237.878 Q2096.84 234.669 2095.15 232.373 Q2093.49 230.078 2090.42 230.078 Q2088.32 230.078 2086.54 231.366 Q2084.76 232.654 2083.94 234.95 Q2084.08 234.903 2084.57 234.903 Q2085.76 234.903 2086.42 235.652 Q2087.1 236.402 2087.1 237.409 Q2087.1 238.697 2086.25 239.33 Q2085.43 239.939 2084.61 239.939 Q2084.29 239.939 2083.84 239.868 Q2083.42 239.798 2082.74 239.142 Q2082.06 238.463 2082.06 237.269 Q2082.06 233.919 2084.59 231.249 Q2087.14 228.579 2091.03 228.579 Q2095.44 228.579 2098.32 231.202 Q2101.22 233.802 2101.22 237.878 Q2101.22 239.306 2100.78 240.618 Q2100.35 241.906 2099.77 242.913 Q2099.21 243.921 2097.66 245.537 Q2096.11 247.153 2094.87 248.301 Q2093.63 249.448 2090.84 251.884 L2085.76 256.826 L2094.41 256.826 Q2098.62 256.826 2098.95 256.452 Q2099.42 255.772 2100 252.189 L2101.22 252.189 L2099.86 260.527 L2082.06 260.527 Z" fill="#000000" fill-rule="evenodd" fill-opacity="1" /><path clip-path="url(#clip950)" d="M2106.49 259.754 Q2105.81 258.981 2105.81 257.974 Q2105.81 256.967 2106.47 256.217 Q2107.15 255.444 2108.36 255.444 Q2109.79 255.444 2110.61 256.826 Q2111.43 258.185 2111.43 260.48 Q2111.43 262.963 2110.43 265.258 Q2109.42 267.577 2108.43 268.678 Q2107.45 269.779 2107.05 269.779 Q2106.58 269.779 2106.58 269.264 Q2106.58 269.076 2106.91 268.725 Q2110.36 265.024 2110.38 260.48 Q2110.38 259.754 2110.29 259.754 L2110.17 259.848 Q2109.35 260.527 2108.36 260.527 Q2107.17 260.527 2106.49 259.754 Z" fill="#000000" fill-rule="evenodd" fill-opacity="1" /><path clip-path="url(#clip950)" d="M2144.23 246.989 Q2144.23 250.362 2142.52 253.664 Q2140.83 256.943 2138.11 259.005 Q2135.42 261.066 2132.65 261.066 Q2129.96 261.066 2128.25 259.005 Q2126.56 256.92 2126.56 253.524 Q2126.56 252.329 2126.71 251.486 Q2126.85 250.643 2127.34 248.675 L2131.27 233.029 Q2131.95 230.101 2131.95 230.078 Q2131.95 229.797 2131.83 229.656 Q2131.74 229.492 2131.18 229.375 Q2130.62 229.258 2129.54 229.258 Q2129.09 229.258 2128.88 229.235 Q2128.7 229.211 2128.53 229.094 Q2128.39 228.954 2128.39 228.673 Q2128.39 228.274 2128.56 228.064 Q2128.74 227.829 2128.88 227.782 Q2129.02 227.736 2129.31 227.712 Q2129.7 227.689 2131.04 227.572 Q2132.37 227.431 2133.52 227.337 Q2134.67 227.244 2135.16 227.244 Q2135.44 227.244 2135.58 227.384 Q2135.75 227.501 2135.75 227.642 L2135.77 227.759 L2132.23 242.211 Q2135.02 239.33 2137.85 239.33 Q2140.69 239.33 2142.45 241.508 Q2144.23 243.686 2144.23 246.989 M2140.76 244.881 Q2140.76 242.656 2139.92 241.531 Q2139.1 240.384 2137.74 240.384 Q2136.59 240.384 2135.09 241.25 Q2133.59 242.117 2132 244.225 Q2131.69 244.623 2131.58 244.857 Q2131.48 245.092 2131.27 245.888 L2130.22 250.315 Q2129.45 253.336 2129.45 255.163 Q2129.45 257.646 2130.36 258.817 Q2131.27 259.988 2132.65 259.988 Q2134.11 259.988 2135.63 258.7 Q2137.15 257.412 2138.32 255.07 Q2139.05 253.524 2139.89 250.198 Q2140.76 246.848 2140.76 244.881 Z" fill="#000000" fill-rule="evenodd" fill-opacity="1" /><path clip-path="url(#clip950)" d="M2160.23 253.243 Q2160.28 252.657 2161.19 252.657 L2190.59 252.657 Q2191.97 252.657 2191.99 253.196 Q2191.99 253.781 2190.68 253.758 L2161.52 253.758 Q2160.23 253.781 2160.23 253.243 M2160.23 243.874 Q2160.23 243.288 2161.24 243.312 L2190.54 243.312 Q2191.97 243.312 2191.99 243.874 Q2191.99 244.412 2190.78 244.412 L2161.19 244.412 Q2160.23 244.412 2160.23 243.874 Z" fill="#000000" fill-rule="evenodd" fill-opacity="1" /><path clip-path="url(#clip950)" d="M2210.49 254.062 Q2210.49 252.634 2211.3 251.954 Q2212.12 251.275 2213.18 251.275 Q2214.28 251.275 2215.05 252.001 Q2215.85 252.704 2215.85 253.945 Q2215.85 255.28 2214.91 256.03 Q2214 256.779 2212.69 256.592 Q2213.83 258.513 2215.94 259.379 Q2218.07 260.246 2220.04 260.246 Q2222.1 260.246 2223.77 258.466 Q2225.45 256.686 2225.45 252.329 Q2225.45 248.628 2224 246.497 Q2222.57 244.366 2219.74 244.366 L2217.63 244.366 Q2216.9 244.366 2216.69 244.295 Q2216.48 244.225 2216.48 243.827 Q2216.48 243.358 2217.21 243.265 Q2217.93 243.265 2219.08 243.124 Q2221.87 243.03 2223.34 240.618 Q2224.68 238.369 2224.68 235.161 Q2224.68 232.233 2223.27 231.015 Q2221.89 229.773 2220.09 229.773 Q2218.4 229.773 2216.55 230.476 Q2214.7 231.179 2213.69 232.748 Q2216.67 232.748 2216.67 235.161 Q2216.67 236.215 2215.99 236.917 Q2215.33 237.596 2214.23 237.596 Q2213.18 237.596 2212.48 236.941 Q2211.77 236.261 2211.77 235.114 Q2211.77 232.373 2214.21 230.476 Q2216.67 228.579 2220.28 228.579 Q2223.84 228.579 2226.46 230.453 Q2229.11 232.326 2229.11 235.207 Q2229.11 238.042 2227.23 240.36 Q2225.36 242.679 2222.38 243.639 Q2226.04 244.366 2228.22 246.848 Q2230.39 249.308 2230.39 252.329 Q2230.39 256.077 2227.44 258.841 Q2224.49 261.581 2220.18 261.581 Q2216.2 261.581 2213.34 259.426 Q2210.49 257.271 2210.49 254.062 Z" fill="#000000" fill-rule="evenodd" fill-opacity="1" /></svg>
