<?xml version="1.0" encoding="utf-8"?>
<svg xmlns="http://www.w3.org/2000/svg" xmlns:xlink="http://www.w3.org/1999/xlink" width="600" height="400" viewBox="0 0 2400 1600">
<defs>
  <clipPath id="clip740">
    <rect x="0" y="0" width="2400" height="1600"/>
  </clipPath>
</defs>
<path clip-path="url(#clip740)" d="
M0 1600 L2400 1600 L2400 0 L0 0  Z
  " fill="#ffffff" fill-rule="evenodd" fill-opacity="1"/>
<defs>
  <clipPath id="clip741">
    <rect x="480" y="0" width="1681" height="1600"/>
  </clipPath>
</defs>
<defs>
  <clipPath id="clip742">
    <rect x="219" y="47" width="2134" height="1377"/>
  </clipPath>
</defs>
<path clip-path="url(#clip740)" d="
M219.866 1423.18 L2352.76 1423.18 L2352.76 47.2441 L219.866 47.2441  Z
  " fill="#ffffff" fill-rule="evenodd" fill-opacity="1"/>
<polyline clip-path="url(#clip742)" style="stroke:#000000; stroke-linecap:butt; stroke-linejoin:round; stroke-width:2; stroke-opacity:0.1; fill:none" points="
  280.231,1423.18 280.231,47.2441 
  "/>
<polyline clip-path="url(#clip742)" style="stroke:#000000; stroke-linecap:butt; stroke-linejoin:round; stroke-width:2; stroke-opacity:0.1; fill:none" points="
  682.663,1423.18 682.663,47.2441 
  "/>
<polyline clip-path="url(#clip742)" style="stroke:#000000; stroke-linecap:butt; stroke-linejoin:round; stroke-width:2; stroke-opacity:0.1; fill:none" points="
  1085.1,1423.18 1085.1,47.2441 
  "/>
<polyline clip-path="url(#clip742)" style="stroke:#000000; stroke-linecap:butt; stroke-linejoin:round; stroke-width:2; stroke-opacity:0.1; fill:none" points="
  1487.53,1423.18 1487.53,47.2441 
  "/>
<polyline clip-path="url(#clip742)" style="stroke:#000000; stroke-linecap:butt; stroke-linejoin:round; stroke-width:2; stroke-opacity:0.1; fill:none" points="
  1889.96,1423.18 1889.96,47.2441 
  "/>
<polyline clip-path="url(#clip742)" style="stroke:#000000; stroke-linecap:butt; stroke-linejoin:round; stroke-width:2; stroke-opacity:0.1; fill:none" points="
  2292.39,1423.18 2292.39,47.2441 
  "/>
<polyline clip-path="url(#clip740)" style="stroke:#000000; stroke-linecap:butt; stroke-linejoin:round; stroke-width:4; stroke-opacity:1; fill:none" points="
  219.866,1423.18 2352.76,1423.18 
  "/>
<polyline clip-path="url(#clip740)" style="stroke:#000000; stroke-linecap:butt; stroke-linejoin:round; stroke-width:4; stroke-opacity:1; fill:none" points="
  280.231,1423.18 280.231,1404.28 
  "/>
<polyline clip-path="url(#clip740)" style="stroke:#000000; stroke-linecap:butt; stroke-linejoin:round; stroke-width:4; stroke-opacity:1; fill:none" points="
  682.663,1423.18 682.663,1404.28 
  "/>
<polyline clip-path="url(#clip740)" style="stroke:#000000; stroke-linecap:butt; stroke-linejoin:round; stroke-width:4; stroke-opacity:1; fill:none" points="
  1085.1,1423.18 1085.1,1404.28 
  "/>
<polyline clip-path="url(#clip740)" style="stroke:#000000; stroke-linecap:butt; stroke-linejoin:round; stroke-width:4; stroke-opacity:1; fill:none" points="
  1487.53,1423.18 1487.53,1404.28 
  "/>
<polyline clip-path="url(#clip740)" style="stroke:#000000; stroke-linecap:butt; stroke-linejoin:round; stroke-width:4; stroke-opacity:1; fill:none" points="
  1889.96,1423.18 1889.96,1404.28 
  "/>
<polyline clip-path="url(#clip740)" style="stroke:#000000; stroke-linecap:butt; stroke-linejoin:round; stroke-width:4; stroke-opacity:1; fill:none" points="
  2292.39,1423.18 2292.39,1404.28 
  "/>
<path clip-path="url(#clip740)" d="M280.231 1454.1 Q276.62 1454.1 274.791 1457.66 Q272.986 1461.2 272.986 1468.33 Q272.986 1475.44 274.791 1479.01 Q276.62 1482.55 280.231 1482.55 Q283.865 1482.55 285.671 1479.01 Q287.5 1475.44 287.5 1468.33 Q287.5 1461.2 285.671 1457.66 Q283.865 1454.1 280.231 1454.1 M280.231 1450.39 Q286.041 1450.39 289.097 1455 Q292.175 1459.58 292.175 1468.33 Q292.175 1477.06 289.097 1481.67 Q286.041 1486.25 280.231 1486.25 Q274.421 1486.25 271.342 1481.67 Q268.287 1477.06 268.287 1468.33 Q268.287 1459.58 271.342 1455 Q274.421 1450.39 280.231 1450.39 Z" fill="#000000" fill-rule="evenodd" fill-opacity="1" /><path clip-path="url(#clip740)" d="M673.045 1481.64 L680.684 1481.64 L680.684 1455.28 L672.374 1456.95 L672.374 1452.69 L680.638 1451.02 L685.314 1451.02 L685.314 1481.64 L692.952 1481.64 L692.952 1485.58 L673.045 1485.58 L673.045 1481.64 Z" fill="#000000" fill-rule="evenodd" fill-opacity="1" /><path clip-path="url(#clip740)" d="M1079.75 1481.64 L1096.07 1481.64 L1096.07 1485.58 L1074.12 1485.58 L1074.12 1481.64 Q1076.78 1478.89 1081.37 1474.26 Q1085.97 1469.61 1087.16 1468.27 Q1089.4 1465.74 1090.28 1464.01 Q1091.18 1462.25 1091.18 1460.56 Q1091.18 1457.8 1089.24 1456.07 Q1087.32 1454.33 1084.22 1454.33 Q1082.02 1454.33 1079.56 1455.09 Q1077.13 1455.86 1074.35 1457.41 L1074.35 1452.69 Q1077.18 1451.55 1079.63 1450.97 Q1082.09 1450.39 1084.12 1450.39 Q1089.49 1450.39 1092.69 1453.08 Q1095.88 1455.77 1095.88 1460.26 Q1095.88 1462.39 1095.07 1464.31 Q1094.28 1466.2 1092.18 1468.8 Q1091.6 1469.47 1088.5 1472.69 Q1085.4 1475.88 1079.75 1481.64 Z" fill="#000000" fill-rule="evenodd" fill-opacity="1" /><path clip-path="url(#clip740)" d="M1491.77 1466.95 Q1495.13 1467.66 1497.01 1469.93 Q1498.9 1472.2 1498.9 1475.53 Q1498.9 1480.65 1495.39 1483.45 Q1491.87 1486.25 1485.39 1486.25 Q1483.21 1486.25 1480.9 1485.81 Q1478.6 1485.39 1476.15 1484.54 L1476.15 1480.02 Q1478.09 1481.16 1480.41 1481.74 Q1482.72 1482.32 1485.25 1482.32 Q1489.65 1482.32 1491.94 1480.58 Q1494.25 1478.84 1494.25 1475.53 Q1494.25 1472.48 1492.1 1470.77 Q1489.97 1469.03 1486.15 1469.03 L1482.12 1469.03 L1482.12 1465.19 L1486.33 1465.19 Q1489.78 1465.19 1491.61 1463.82 Q1493.44 1462.43 1493.44 1459.84 Q1493.44 1457.18 1491.54 1455.77 Q1489.67 1454.33 1486.15 1454.33 Q1484.23 1454.33 1482.03 1454.75 Q1479.83 1455.16 1477.19 1456.04 L1477.19 1451.88 Q1479.85 1451.14 1482.17 1450.77 Q1484.51 1450.39 1486.57 1450.39 Q1491.89 1450.39 1494.99 1452.83 Q1498.09 1455.23 1498.09 1459.35 Q1498.09 1462.22 1496.45 1464.21 Q1494.81 1466.18 1491.77 1466.95 Z" fill="#000000" fill-rule="evenodd" fill-opacity="1" /><path clip-path="url(#clip740)" d="M1892.97 1455.09 L1881.16 1473.54 L1892.97 1473.54 L1892.97 1455.09 M1891.74 1451.02 L1897.62 1451.02 L1897.62 1473.54 L1902.55 1473.54 L1902.55 1477.43 L1897.62 1477.43 L1897.62 1485.58 L1892.97 1485.58 L1892.97 1477.43 L1877.37 1477.43 L1877.37 1472.92 L1891.74 1451.02 Z" fill="#000000" fill-rule="evenodd" fill-opacity="1" /><path clip-path="url(#clip740)" d="M2282.67 1451.02 L2301.03 1451.02 L2301.03 1454.96 L2286.95 1454.96 L2286.95 1463.43 Q2287.97 1463.08 2288.99 1462.92 Q2290.01 1462.73 2291.03 1462.73 Q2296.81 1462.73 2300.19 1465.9 Q2303.57 1469.08 2303.57 1474.49 Q2303.57 1480.07 2300.1 1483.17 Q2296.63 1486.25 2290.31 1486.25 Q2288.13 1486.25 2285.86 1485.88 Q2283.62 1485.51 2281.21 1484.77 L2281.21 1480.07 Q2283.29 1481.2 2285.52 1481.76 Q2287.74 1482.32 2290.22 1482.32 Q2294.22 1482.32 2296.56 1480.21 Q2298.9 1478.1 2298.9 1474.49 Q2298.9 1470.88 2296.56 1468.77 Q2294.22 1466.67 2290.22 1466.67 Q2288.34 1466.67 2286.47 1467.08 Q2284.61 1467.5 2282.67 1468.38 L2282.67 1451.02 Z" fill="#000000" fill-rule="evenodd" fill-opacity="1" /><path clip-path="url(#clip740)" d="M1298.25 1529.22 Q1298.25 1534.63 1296.51 1540.71 Q1294.8 1546.77 1292.09 1551.66 Q1289.39 1556.53 1285.85 1559.75 Q1282.3 1562.94 1278.92 1562.94 Q1276.76 1562.94 1275.15 1561.75 Q1273.58 1560.52 1272.71 1558.49 Q1271.84 1556.43 1271.42 1554.18 Q1271 1551.89 1271 1549.41 Q1271 1545.71 1271.8 1541.68 Q1272.61 1537.62 1273.96 1533.95 Q1275.32 1530.25 1277.22 1526.9 Q1279.12 1523.52 1281.21 1521.07 Q1283.33 1518.59 1285.72 1517.14 Q1288.1 1515.69 1290.32 1515.69 Q1291.93 1515.69 1293.22 1516.4 Q1294.54 1517.08 1295.38 1518.27 Q1296.22 1519.43 1296.8 1520.81 Q1297.41 1522.2 1297.7 1523.81 Q1297.99 1525.38 1298.12 1526.71 Q1298.25 1527.99 1298.25 1529.22 M1293.9 1525.13 Q1293.9 1523.48 1293.77 1522.26 Q1293.64 1521 1293.29 1519.75 Q1292.93 1518.49 1292.16 1517.82 Q1291.42 1517.14 1290.26 1517.14 Q1286.88 1517.14 1283.08 1524.06 Q1281.85 1526.22 1280.76 1529.15 Q1279.66 1532.08 1279.28 1533.47 Q1278.89 1534.85 1277.99 1538.27 L1291.77 1538.27 Q1293.9 1529.47 1293.9 1525.13 M1291.19 1540.36 L1277.47 1540.36 Q1275.35 1548.41 1275.35 1553.44 Q1275.35 1557.82 1276.25 1559.65 Q1277.18 1561.46 1278.92 1561.46 Q1280.92 1561.46 1282.79 1559.46 Q1284.66 1557.43 1286.56 1553.76 Q1289.07 1548.99 1291.19 1540.36 Z" fill="#000000" fill-rule="evenodd" fill-opacity="1" /><polyline clip-path="url(#clip742)" style="stroke:#000000; stroke-linecap:butt; stroke-linejoin:round; stroke-width:2; stroke-opacity:0.1; fill:none" points="
  219.866,1384.24 2352.76,1384.24 
  "/>
<polyline clip-path="url(#clip742)" style="stroke:#000000; stroke-linecap:butt; stroke-linejoin:round; stroke-width:2; stroke-opacity:0.1; fill:none" points="
  219.866,1067.33 2352.76,1067.33 
  "/>
<polyline clip-path="url(#clip742)" style="stroke:#000000; stroke-linecap:butt; stroke-linejoin:round; stroke-width:2; stroke-opacity:0.1; fill:none" points="
  219.866,750.424 2352.76,750.424 
  "/>
<polyline clip-path="url(#clip742)" style="stroke:#000000; stroke-linecap:butt; stroke-linejoin:round; stroke-width:2; stroke-opacity:0.1; fill:none" points="
  219.866,433.516 2352.76,433.516 
  "/>
<polyline clip-path="url(#clip742)" style="stroke:#000000; stroke-linecap:butt; stroke-linejoin:round; stroke-width:2; stroke-opacity:0.1; fill:none" points="
  219.866,116.609 2352.76,116.609 
  "/>
<polyline clip-path="url(#clip740)" style="stroke:#000000; stroke-linecap:butt; stroke-linejoin:round; stroke-width:4; stroke-opacity:1; fill:none" points="
  219.866,1423.18 219.866,47.2441 
  "/>
<polyline clip-path="url(#clip740)" style="stroke:#000000; stroke-linecap:butt; stroke-linejoin:round; stroke-width:4; stroke-opacity:1; fill:none" points="
  219.866,1384.24 238.764,1384.24 
  "/>
<polyline clip-path="url(#clip740)" style="stroke:#000000; stroke-linecap:butt; stroke-linejoin:round; stroke-width:4; stroke-opacity:1; fill:none" points="
  219.866,1067.33 238.764,1067.33 
  "/>
<polyline clip-path="url(#clip740)" style="stroke:#000000; stroke-linecap:butt; stroke-linejoin:round; stroke-width:4; stroke-opacity:1; fill:none" points="
  219.866,750.424 238.764,750.424 
  "/>
<polyline clip-path="url(#clip740)" style="stroke:#000000; stroke-linecap:butt; stroke-linejoin:round; stroke-width:4; stroke-opacity:1; fill:none" points="
  219.866,433.516 238.764,433.516 
  "/>
<polyline clip-path="url(#clip740)" style="stroke:#000000; stroke-linecap:butt; stroke-linejoin:round; stroke-width:4; stroke-opacity:1; fill:none" points="
  219.866,116.609 238.764,116.609 
  "/>
<path clip-path="url(#clip740)" d="M126.691 1370.04 Q123.08 1370.04 121.251 1373.6 Q119.445 1377.14 119.445 1384.27 Q119.445 1391.38 121.251 1394.94 Q123.08 1398.49 126.691 1398.49 Q130.325 1398.49 132.13 1394.94 Q133.959 1391.38 133.959 1384.27 Q133.959 1377.14 132.13 1373.6 Q130.325 1370.04 126.691 1370.04 M126.691 1366.33 Q132.501 1366.33 135.556 1370.94 Q138.635 1375.52 138.635 1384.27 Q138.635 1393 135.556 1397.61 Q132.501 1402.19 126.691 1402.19 Q120.88 1402.19 117.802 1397.61 Q114.746 1393 114.746 1384.27 Q114.746 1375.52 117.802 1370.94 Q120.88 1366.33 126.691 1366.33 Z" fill="#000000" fill-rule="evenodd" fill-opacity="1" /><path clip-path="url(#clip740)" d="M146.853 1395.64 L151.737 1395.64 L151.737 1401.52 L146.853 1401.52 L146.853 1395.64 Z" fill="#000000" fill-rule="evenodd" fill-opacity="1" /><path clip-path="url(#clip740)" d="M171.922 1370.04 Q168.311 1370.04 166.482 1373.6 Q164.677 1377.14 164.677 1384.27 Q164.677 1391.38 166.482 1394.94 Q168.311 1398.49 171.922 1398.49 Q175.556 1398.49 177.362 1394.94 Q179.19 1391.38 179.19 1384.27 Q179.19 1377.14 177.362 1373.6 Q175.556 1370.04 171.922 1370.04 M171.922 1366.33 Q177.732 1366.33 180.788 1370.94 Q183.866 1375.52 183.866 1384.27 Q183.866 1393 180.788 1397.61 Q177.732 1402.19 171.922 1402.19 Q166.112 1402.19 163.033 1397.61 Q159.978 1393 159.978 1384.27 Q159.978 1375.52 163.033 1370.94 Q166.112 1366.33 171.922 1366.33 Z" fill="#000000" fill-rule="evenodd" fill-opacity="1" /><path clip-path="url(#clip740)" d="M127.917 1053.13 Q124.306 1053.13 122.478 1056.69 Q120.672 1060.24 120.672 1067.37 Q120.672 1074.47 122.478 1078.04 Q124.306 1081.58 127.917 1081.58 Q131.552 1081.58 133.357 1078.04 Q135.186 1074.47 135.186 1067.37 Q135.186 1060.24 133.357 1056.69 Q131.552 1053.13 127.917 1053.13 M127.917 1049.43 Q133.728 1049.43 136.783 1054.03 Q139.862 1058.62 139.862 1067.37 Q139.862 1076.09 136.783 1080.7 Q133.728 1085.28 127.917 1085.28 Q122.107 1085.28 119.029 1080.7 Q115.973 1076.09 115.973 1067.37 Q115.973 1058.62 119.029 1054.03 Q122.107 1049.43 127.917 1049.43 Z" fill="#000000" fill-rule="evenodd" fill-opacity="1" /><path clip-path="url(#clip740)" d="M148.079 1078.73 L152.964 1078.73 L152.964 1084.61 L148.079 1084.61 L148.079 1078.73 Z" fill="#000000" fill-rule="evenodd" fill-opacity="1" /><path clip-path="url(#clip740)" d="M163.959 1080.68 L171.598 1080.68 L171.598 1054.31 L163.288 1055.98 L163.288 1051.72 L171.552 1050.05 L176.227 1050.05 L176.227 1080.68 L183.866 1080.68 L183.866 1084.61 L163.959 1084.61 L163.959 1080.68 Z" fill="#000000" fill-rule="evenodd" fill-opacity="1" /><path clip-path="url(#clip740)" d="M128.288 736.222 Q124.677 736.222 122.848 739.787 Q121.043 743.329 121.043 750.458 Q121.043 757.565 122.848 761.129 Q124.677 764.671 128.288 764.671 Q131.922 764.671 133.728 761.129 Q135.556 757.565 135.556 750.458 Q135.556 743.329 133.728 739.787 Q131.922 736.222 128.288 736.222 M128.288 732.519 Q134.098 732.519 137.154 737.125 Q140.232 741.708 140.232 750.458 Q140.232 759.185 137.154 763.792 Q134.098 768.375 128.288 768.375 Q122.478 768.375 119.399 763.792 Q116.343 759.185 116.343 750.458 Q116.343 741.708 119.399 737.125 Q122.478 732.519 128.288 732.519 Z" fill="#000000" fill-rule="evenodd" fill-opacity="1" /><path clip-path="url(#clip740)" d="M148.45 761.824 L153.334 761.824 L153.334 767.704 L148.45 767.704 L148.45 761.824 Z" fill="#000000" fill-rule="evenodd" fill-opacity="1" /><path clip-path="url(#clip740)" d="M167.547 763.768 L183.866 763.768 L183.866 767.704 L161.922 767.704 L161.922 763.768 Q164.584 761.014 169.167 756.384 Q173.774 751.731 174.954 750.389 Q177.2 747.866 178.079 746.13 Q178.982 744.37 178.982 742.681 Q178.982 739.926 177.038 738.19 Q175.116 736.454 172.014 736.454 Q169.815 736.454 167.362 737.218 Q164.931 737.981 162.153 739.532 L162.153 734.81 Q164.977 733.676 167.431 733.097 Q169.885 732.519 171.922 732.519 Q177.292 732.519 180.487 735.204 Q183.681 737.889 183.681 742.38 Q183.681 744.509 182.871 746.43 Q182.084 748.329 179.977 750.921 Q179.399 751.592 176.297 754.81 Q173.195 758.005 167.547 763.768 Z" fill="#000000" fill-rule="evenodd" fill-opacity="1" /><path clip-path="url(#clip740)" d="M127.339 419.315 Q123.728 419.315 121.899 422.88 Q120.093 426.421 120.093 433.551 Q120.093 440.657 121.899 444.222 Q123.728 447.764 127.339 447.764 Q130.973 447.764 132.779 444.222 Q134.607 440.657 134.607 433.551 Q134.607 426.421 132.779 422.88 Q130.973 419.315 127.339 419.315 M127.339 415.611 Q133.149 415.611 136.204 420.218 Q139.283 424.801 139.283 433.551 Q139.283 442.278 136.204 446.884 Q133.149 451.467 127.339 451.467 Q121.529 451.467 118.45 446.884 Q115.394 442.278 115.394 433.551 Q115.394 424.801 118.45 420.218 Q121.529 415.611 127.339 415.611 Z" fill="#000000" fill-rule="evenodd" fill-opacity="1" /><path clip-path="url(#clip740)" d="M147.501 444.917 L152.385 444.917 L152.385 450.796 L147.501 450.796 L147.501 444.917 Z" fill="#000000" fill-rule="evenodd" fill-opacity="1" /><path clip-path="url(#clip740)" d="M176.737 432.162 Q180.093 432.88 181.968 435.148 Q183.866 437.417 183.866 440.75 Q183.866 445.866 180.348 448.667 Q176.829 451.467 170.348 451.467 Q168.172 451.467 165.857 451.028 Q163.565 450.611 161.112 449.754 L161.112 445.241 Q163.056 446.375 165.371 446.954 Q167.686 447.532 170.209 447.532 Q174.607 447.532 176.899 445.796 Q179.214 444.06 179.214 440.75 Q179.214 437.694 177.061 435.981 Q174.931 434.245 171.112 434.245 L167.084 434.245 L167.084 430.403 L171.297 430.403 Q174.746 430.403 176.575 429.037 Q178.403 427.648 178.403 425.056 Q178.403 422.394 176.505 420.981 Q174.63 419.546 171.112 419.546 Q169.19 419.546 166.991 419.963 Q164.792 420.38 162.153 421.259 L162.153 417.093 Q164.815 416.352 167.13 415.982 Q169.468 415.611 171.528 415.611 Q176.852 415.611 179.954 418.042 Q183.056 420.449 183.056 424.569 Q183.056 427.44 181.413 429.431 Q179.769 431.398 176.737 432.162 Z" fill="#000000" fill-rule="evenodd" fill-opacity="1" /><path clip-path="url(#clip740)" d="M126.205 102.407 Q122.593 102.407 120.765 105.972 Q118.959 109.514 118.959 116.644 Q118.959 123.75 120.765 127.315 Q122.593 130.856 126.205 130.856 Q129.839 130.856 131.644 127.315 Q133.473 123.75 133.473 116.644 Q133.473 109.514 131.644 105.972 Q129.839 102.407 126.205 102.407 M126.205 98.7038 Q132.015 98.7038 135.07 103.31 Q138.149 107.894 138.149 116.644 Q138.149 125.37 135.07 129.977 Q132.015 134.56 126.205 134.56 Q120.394 134.56 117.316 129.977 Q114.26 125.37 114.26 116.644 Q114.26 107.894 117.316 103.31 Q120.394 98.7038 126.205 98.7038 Z" fill="#000000" fill-rule="evenodd" fill-opacity="1" /><path clip-path="url(#clip740)" d="M146.366 128.009 L151.251 128.009 L151.251 133.889 L146.366 133.889 L146.366 128.009 Z" fill="#000000" fill-rule="evenodd" fill-opacity="1" /><path clip-path="url(#clip740)" d="M174.283 103.403 L162.477 121.852 L174.283 121.852 L174.283 103.403 M173.056 99.3288 L178.936 99.3288 L178.936 121.852 L183.866 121.852 L183.866 125.741 L178.936 125.741 L178.936 133.889 L174.283 133.889 L174.283 125.741 L158.681 125.741 L158.681 121.227 L173.056 99.3288 Z" fill="#000000" fill-rule="evenodd" fill-opacity="1" /><path clip-path="url(#clip740)" d="M16.4842 812.476 L16.4842 802.895 L48.8219 790.769 L16.4842 778.578 L16.4842 768.998 L64.0042 768.998 L64.0042 775.268 L22.277 775.268 L54.8694 787.522 L54.8694 793.983 L22.277 806.237 L64.0042 806.237 L64.0042 812.476 L16.4842 812.476 Z" fill="#000000" fill-rule="evenodd" fill-opacity="1" /><path clip-path="url(#clip740)" d="M46.0847 740.289 Q46.0847 747.386 47.7079 750.124 Q49.3312 752.861 53.2461 752.861 Q56.3653 752.861 58.2114 750.824 Q60.0256 748.755 60.0256 745.222 Q60.0256 740.352 56.5881 737.424 Q53.1188 734.464 47.3897 734.464 L46.0847 734.464 L46.0847 740.289 M43.6657 728.608 L64.0042 728.608 L64.0042 734.464 L58.5933 734.464 Q61.8398 736.469 63.3994 739.461 Q64.9272 742.453 64.9272 746.782 Q64.9272 752.256 61.8716 755.503 Q58.7843 758.717 53.6281 758.717 Q47.6125 758.717 44.5569 754.707 Q41.5014 750.665 41.5014 742.676 L41.5014 734.464 L40.9285 734.464 Q36.8862 734.464 34.6901 737.138 Q32.4621 739.779 32.4621 744.585 Q32.4621 747.641 33.1941 750.537 Q33.9262 753.434 35.3903 756.107 L29.9795 756.107 Q28.7381 752.893 28.1334 749.869 Q27.4968 746.845 27.4968 743.981 Q27.4968 736.246 31.5072 732.427 Q35.5176 728.608 43.6657 728.608 Z" fill="#000000" fill-rule="evenodd" fill-opacity="1" /><path clip-path="url(#clip740)" d="M29.4065 693.819 L34.9447 693.819 Q33.6716 696.302 33.035 698.975 Q32.3984 701.649 32.3984 704.513 Q32.3984 708.874 33.7352 711.07 Q35.072 713.234 37.7456 713.234 Q39.7826 713.234 40.9603 711.675 Q42.1061 710.115 43.1565 705.405 L43.6021 703.399 Q44.9389 697.161 47.3897 694.551 Q49.8086 691.909 54.1691 691.909 Q59.1344 691.909 62.0308 695.856 Q64.9272 699.771 64.9272 706.646 Q64.9272 709.51 64.3543 712.63 Q63.8132 715.717 62.6992 719.154 L56.6518 719.154 Q58.3387 715.908 59.198 712.757 Q60.0256 709.606 60.0256 706.519 Q60.0256 702.381 58.6251 700.153 Q57.1929 697.925 54.6147 697.925 Q52.2276 697.925 50.9545 699.548 Q49.6813 701.14 48.5037 706.582 L48.0262 708.619 Q46.8804 714.062 44.5251 716.481 Q42.138 718.9 38.0002 718.9 Q32.9713 718.9 30.2341 715.335 Q27.4968 711.77 27.4968 705.214 Q27.4968 701.967 27.9743 699.102 Q28.4517 696.238 29.4065 693.819 Z" fill="#000000" fill-rule="evenodd" fill-opacity="1" /><path clip-path="url(#clip740)" d="M29.4065 659.858 L34.9447 659.858 Q33.6716 662.341 33.035 665.014 Q32.3984 667.688 32.3984 670.552 Q32.3984 674.913 33.7352 677.109 Q35.072 679.273 37.7456 679.273 Q39.7826 679.273 40.9603 677.714 Q42.1061 676.154 43.1565 671.444 L43.6021 669.438 Q44.9389 663.2 47.3897 660.59 Q49.8086 657.948 54.1691 657.948 Q59.1344 657.948 62.0308 661.895 Q64.9272 665.81 64.9272 672.685 Q64.9272 675.549 64.3543 678.669 Q63.8132 681.756 62.6992 685.193 L56.6518 685.193 Q58.3387 681.947 59.198 678.796 Q60.0256 675.645 60.0256 672.558 Q60.0256 668.42 58.6251 666.192 Q57.1929 663.964 54.6147 663.964 Q52.2276 663.964 50.9545 665.587 Q49.6813 667.178 48.5037 672.621 L48.0262 674.658 Q46.8804 680.101 44.5251 682.52 Q42.138 684.939 38.0002 684.939 Q32.9713 684.939 30.2341 681.374 Q27.4968 677.809 27.4968 671.253 Q27.4968 668.006 27.9743 665.141 Q28.4517 662.277 29.4065 659.858 Z" fill="#000000" fill-rule="evenodd" fill-opacity="1" /><circle clip-path="url(#clip742)" cx="280.231" cy="1285.2" r="14.4" fill="#009af9" fill-rule="evenodd" fill-opacity="0.5" stroke="#000000" stroke-opacity="0.5" stroke-width="3.2"/>
<circle clip-path="url(#clip742)" cx="682.663" cy="889.07" r="14.4" fill="#009af9" fill-rule="evenodd" fill-opacity="0.5" stroke="#000000" stroke-opacity="0.5" stroke-width="3.2"/>
<circle clip-path="url(#clip742)" cx="1085.1" cy="393.903" r="14.4" fill="#009af9" fill-rule="evenodd" fill-opacity="0.5" stroke="#000000" stroke-opacity="0.5" stroke-width="3.2"/>
<circle clip-path="url(#clip742)" cx="1487.53" cy="393.903" r="14.4" fill="#009af9" fill-rule="evenodd" fill-opacity="0.5" stroke="#000000" stroke-opacity="0.5" stroke-width="3.2"/>
<circle clip-path="url(#clip742)" cx="1889.96" cy="889.07" r="14.4" fill="#009af9" fill-rule="evenodd" fill-opacity="0.5" stroke="#000000" stroke-opacity="0.5" stroke-width="3.2"/>
<circle clip-path="url(#clip742)" cx="2292.39" cy="1285.2" r="14.4" fill="#009af9" fill-rule="evenodd" fill-opacity="0.5" stroke="#000000" stroke-opacity="0.5" stroke-width="3.2"/>
<polyline clip-path="url(#clip742)" style="stroke:#009af9; stroke-linecap:butt; stroke-linejoin:round; stroke-width:4; stroke-opacity:0.5; fill:none" points="
  280.231,1384.24 280.231,1285.2 
  "/>
<polyline clip-path="url(#clip742)" style="stroke:#009af9; stroke-linecap:butt; stroke-linejoin:round; stroke-width:4; stroke-opacity:0.5; fill:none" points="
  682.663,1384.24 682.663,889.07 
  "/>
<polyline clip-path="url(#clip742)" style="stroke:#009af9; stroke-linecap:butt; stroke-linejoin:round; stroke-width:4; stroke-opacity:0.5; fill:none" points="
  1085.1,1384.24 1085.1,393.903 
  "/>
<polyline clip-path="url(#clip742)" style="stroke:#009af9; stroke-linecap:butt; stroke-linejoin:round; stroke-width:4; stroke-opacity:0.5; fill:none" points="
  1487.53,1384.24 1487.53,393.903 
  "/>
<polyline clip-path="url(#clip742)" style="stroke:#009af9; stroke-linecap:butt; stroke-linejoin:round; stroke-width:4; stroke-opacity:0.5; fill:none" points="
  1889.96,1384.24 1889.96,889.07 
  "/>
<polyline clip-path="url(#clip742)" style="stroke:#009af9; stroke-linecap:butt; stroke-linejoin:round; stroke-width:4; stroke-opacity:0.5; fill:none" points="
  2292.39,1384.24 2292.39,1285.2 
  "/>
<circle clip-path="url(#clip742)" cx="280.231" cy="345.796" r="14.4" fill="#e26f46" fill-rule="evenodd" fill-opacity="0.5" stroke="#000000" stroke-opacity="0.5" stroke-width="3.2"/>
<circle clip-path="url(#clip742)" cx="682.663" cy="86.1857" r="14.4" fill="#e26f46" fill-rule="evenodd" fill-opacity="0.5" stroke="#000000" stroke-opacity="0.5" stroke-width="3.2"/>
<circle clip-path="url(#clip742)" cx="1085.1" cy="735.212" r="14.4" fill="#e26f46" fill-rule="evenodd" fill-opacity="0.5" stroke="#000000" stroke-opacity="0.5" stroke-width="3.2"/>
<circle clip-path="url(#clip742)" cx="1487.53" cy="1221.98" r="14.4" fill="#e26f46" fill-rule="evenodd" fill-opacity="0.5" stroke="#000000" stroke-opacity="0.5" stroke-width="3.2"/>
<circle clip-path="url(#clip742)" cx="1889.96" cy="1363.96" r="14.4" fill="#e26f46" fill-rule="evenodd" fill-opacity="0.5" stroke="#000000" stroke-opacity="0.5" stroke-width="3.2"/>
<circle clip-path="url(#clip742)" cx="2292.39" cy="1383.22" r="14.4" fill="#e26f46" fill-rule="evenodd" fill-opacity="0.5" stroke="#000000" stroke-opacity="0.5" stroke-width="3.2"/>
<polyline clip-path="url(#clip742)" style="stroke:#e26f46; stroke-linecap:butt; stroke-linejoin:round; stroke-width:4; stroke-opacity:0.5; fill:none" points="
  280.231,1384.24 280.231,345.796 
  "/>
<polyline clip-path="url(#clip742)" style="stroke:#e26f46; stroke-linecap:butt; stroke-linejoin:round; stroke-width:4; stroke-opacity:0.5; fill:none" points="
  682.663,1384.24 682.663,86.1857 
  "/>
<polyline clip-path="url(#clip742)" style="stroke:#e26f46; stroke-linecap:butt; stroke-linejoin:round; stroke-width:4; stroke-opacity:0.5; fill:none" points="
  1085.1,1384.24 1085.1,735.212 
  "/>
<polyline clip-path="url(#clip742)" style="stroke:#e26f46; stroke-linecap:butt; stroke-linejoin:round; stroke-width:4; stroke-opacity:0.5; fill:none" points="
  1487.53,1384.24 1487.53,1221.98 
  "/>
<polyline clip-path="url(#clip742)" style="stroke:#e26f46; stroke-linecap:butt; stroke-linejoin:round; stroke-width:4; stroke-opacity:0.5; fill:none" points="
  1889.96,1384.24 1889.96,1363.96 
  "/>
<polyline clip-path="url(#clip742)" style="stroke:#e26f46; stroke-linecap:butt; stroke-linejoin:round; stroke-width:4; stroke-opacity:0.5; fill:none" points="
  2292.39,1384.24 2292.39,1383.22 
  "/>
<path clip-path="url(#clip740)" d="
M1896.53 248.629 L2281.66 248.629 L2281.66 93.1086 L1896.53 93.1086  Z
  " fill="#ffffff" fill-rule="evenodd" fill-opacity="1"/>
<polyline clip-path="url(#clip740)" style="stroke:#000000; stroke-linecap:butt; stroke-linejoin:round; stroke-width:4; stroke-opacity:1; fill:none" points="
  1896.53,248.629 2281.66,248.629 2281.66,93.1086 1896.53,93.1086 1896.53,248.629 
  "/>
<circle clip-path="url(#clip740)" cx="1991.32" cy="144.949" r="23.04" fill="#009af9" fill-rule="evenodd" fill-opacity="0.5" stroke="#000000" stroke-opacity="0.5" stroke-width="5.12"/>
<path clip-path="url(#clip740)" d="M2111.18 142.629 Q2111.18 146.049 2109.45 149.351 Q2107.74 152.654 2105.04 154.692 Q2102.35 156.706 2099.61 156.706 Q2097.97 156.706 2096.87 155.816 Q2095.79 154.903 2095.21 153.614 Q2094.76 155.207 2093.8 159.025 Q2092.84 162.843 2092.84 163.218 Q2092.84 163.428 2092.89 163.522 Q2092.94 163.616 2093.15 163.733 Q2093.36 163.873 2093.87 163.92 Q2094.39 163.99 2095.25 163.99 Q2095.7 163.99 2095.86 163.99 Q2096.05 164.014 2096.21 164.131 Q2096.4 164.248 2096.4 164.506 Q2096.4 165.466 2095.54 165.466 Q2094.76 165.466 2093.17 165.396 Q2091.58 165.326 2090.78 165.326 Q2090.1 165.326 2088.74 165.396 Q2087.38 165.466 2086.75 165.466 Q2086.12 165.466 2086.12 164.904 Q2086.12 164.576 2086.21 164.365 Q2086.28 164.178 2086.47 164.084 Q2086.66 164.014 2086.82 163.99 Q2086.96 163.99 2087.24 163.99 Q2088.32 163.99 2088.79 163.803 Q2089.26 163.639 2089.42 163.288 Q2089.61 162.96 2089.82 162.023 L2095.21 140.662 Q2095.54 139.233 2095.54 138.226 Q2095.54 136.961 2095.14 136.493 Q2094.74 136.024 2094.04 136.024 Q2092.82 136.024 2092.02 137.476 Q2091.23 138.928 2090.55 141.739 Q2090.34 142.512 2090.19 142.676 Q2090.08 142.84 2089.73 142.84 Q2089.14 142.817 2089.14 142.348 Q2089.14 142.231 2089.33 141.481 Q2089.52 140.709 2089.87 139.584 Q2090.24 138.437 2090.64 137.71 Q2090.87 137.219 2091.08 136.891 Q2091.3 136.563 2091.72 136.047 Q2092.16 135.532 2092.79 135.251 Q2093.43 134.97 2094.2 134.97 Q2095.7 134.97 2096.94 135.86 Q2098.18 136.75 2098.51 138.554 Q2099.84 136.984 2101.48 135.977 Q2103.12 134.97 2104.79 134.97 Q2107.55 134.97 2109.35 137.125 Q2111.18 139.256 2111.18 142.629 M2107.71 140.521 Q2107.71 138.39 2106.9 137.219 Q2106.1 136.024 2104.65 136.024 Q2102.84 136.024 2100.76 137.851 Q2098.7 139.584 2098.28 141.2 L2095.91 150.593 L2095.77 151.366 Q2095.77 151.506 2095.84 151.928 Q2095.93 152.326 2096.19 152.982 Q2096.47 153.638 2096.85 154.223 Q2097.25 154.785 2097.95 155.207 Q2098.67 155.629 2099.56 155.629 Q2100.99 155.629 2102.54 154.364 Q2104.11 153.099 2105.28 150.71 Q2106.01 149.164 2106.85 145.838 Q2107.71 142.489 2107.71 140.521 Z" fill="#000000" fill-rule="evenodd" fill-opacity="1" /><path clip-path="url(#clip740)" d="M2123.31 148.883 Q2123.36 148.297 2124.27 148.297 L2153.67 148.297 Q2155.05 148.297 2155.07 148.836 Q2155.07 149.422 2153.76 149.398 L2124.6 149.398 Q2123.31 149.422 2123.31 148.883 M2123.31 139.514 Q2123.31 138.928 2124.32 138.952 L2153.62 138.952 Q2155.05 138.952 2155.07 139.514 Q2155.07 140.053 2153.86 140.053 L2124.27 140.053 Q2123.31 140.053 2123.31 139.514 Z" fill="#000000" fill-rule="evenodd" fill-opacity="1" /><path clip-path="url(#clip740)" d="M2173.57 140.826 Q2173.57 133.776 2175.35 129.934 Q2177.83 124.219 2183.68 124.219 Q2184.92 124.219 2186.21 124.57 Q2187.52 124.898 2189.16 126.187 Q2190.83 127.475 2191.83 129.583 Q2193.76 133.658 2193.76 140.826 Q2193.76 147.829 2191.98 151.647 Q2189.38 157.221 2183.64 157.221 Q2181.48 157.221 2179.28 156.121 Q2177.1 155.02 2175.72 152.373 Q2173.57 148.415 2173.57 140.826 M2177.55 140.24 Q2177.55 147.478 2178.06 150.359 Q2178.65 153.474 2180.24 154.832 Q2181.86 156.167 2183.64 156.167 Q2185.56 156.167 2187.15 154.739 Q2188.77 153.286 2189.26 150.171 Q2189.8 147.103 2189.77 140.24 Q2189.77 133.565 2189.3 130.895 Q2188.67 127.779 2186.99 126.538 Q2185.32 125.273 2183.64 125.273 Q2183 125.273 2182.33 125.461 Q2181.67 125.648 2180.71 126.187 Q2179.75 126.725 2179 128.06 Q2178.27 129.396 2177.92 131.41 Q2177.55 134.01 2177.55 140.24 Z" fill="#000000" fill-rule="evenodd" fill-opacity="1" /><path clip-path="url(#clip740)" d="M2198.04 155.394 Q2197.32 154.621 2197.32 153.614 Q2197.32 152.607 2198.04 151.881 Q2198.77 151.132 2199.87 151.132 Q2200.92 151.132 2201.62 151.834 Q2202.35 152.513 2202.35 153.638 Q2202.35 154.739 2201.58 155.465 Q2200.83 156.167 2199.87 156.167 Q2198.77 156.167 2198.04 155.394 Z" fill="#000000" fill-rule="evenodd" fill-opacity="1" /><path clip-path="url(#clip740)" d="M2210.51 148.438 Q2210.51 147.009 2211.28 146.47 Q2212.06 145.908 2212.88 145.908 Q2213.98 145.908 2214.61 146.611 Q2215.27 147.29 2215.27 148.251 Q2215.27 149.211 2214.61 149.914 Q2213.98 150.593 2212.88 150.593 Q2212.34 150.593 2212.06 150.499 Q2212.69 152.701 2214.61 154.294 Q2216.56 155.886 2219.11 155.886 Q2222.32 155.886 2224.24 152.771 Q2225.39 150.757 2225.39 146.189 Q2225.39 142.161 2224.52 140.146 Q2223.18 137.078 2220.44 137.078 Q2216.56 137.078 2214.26 140.427 Q2213.98 140.849 2213.65 140.873 Q2213.18 140.873 2213.07 140.615 Q2212.97 140.334 2212.97 139.608 L2212.97 125.414 Q2212.97 124.266 2213.44 124.266 Q2213.63 124.266 2214.03 124.407 Q2217.05 125.742 2220.4 125.765 Q2223.84 125.765 2226.93 124.36 Q2227.17 124.219 2227.31 124.219 Q2227.77 124.219 2227.8 124.758 Q2227.8 124.945 2227.4 125.507 Q2227.02 126.046 2226.21 126.772 Q2225.39 127.475 2224.33 128.154 Q2223.28 128.833 2221.73 129.302 Q2220.21 129.747 2218.52 129.747 Q2216.51 129.747 2214.45 129.114 L2214.45 138.46 Q2216.93 136.024 2220.54 136.024 Q2224.38 136.024 2227.02 139.116 Q2229.67 142.208 2229.67 146.517 Q2229.67 151.038 2226.53 154.13 Q2223.42 157.221 2219.2 157.221 Q2215.36 157.221 2212.92 154.481 Q2210.51 151.741 2210.51 148.438 Z" fill="#000000" fill-rule="evenodd" fill-opacity="1" /><circle clip-path="url(#clip740)" cx="1991.32" cy="196.789" r="23.04" fill="#e26f46" fill-rule="evenodd" fill-opacity="0.5" stroke="#000000" stroke-opacity="0.5" stroke-width="5.12"/>
<path clip-path="url(#clip740)" d="M2111.18 194.469 Q2111.18 197.889 2109.45 201.191 Q2107.74 204.494 2105.04 206.532 Q2102.35 208.546 2099.61 208.546 Q2097.97 208.546 2096.87 207.656 Q2095.79 206.743 2095.21 205.454 Q2094.76 207.047 2093.8 210.865 Q2092.84 214.683 2092.84 215.058 Q2092.84 215.268 2092.89 215.362 Q2092.94 215.456 2093.15 215.573 Q2093.36 215.713 2093.87 215.76 Q2094.39 215.83 2095.25 215.83 Q2095.7 215.83 2095.86 215.83 Q2096.05 215.854 2096.21 215.971 Q2096.4 216.088 2096.4 216.346 Q2096.4 217.306 2095.54 217.306 Q2094.76 217.306 2093.17 217.236 Q2091.58 217.166 2090.78 217.166 Q2090.1 217.166 2088.74 217.236 Q2087.38 217.306 2086.75 217.306 Q2086.12 217.306 2086.12 216.744 Q2086.12 216.416 2086.21 216.205 Q2086.28 216.018 2086.47 215.924 Q2086.66 215.854 2086.82 215.83 Q2086.96 215.83 2087.24 215.83 Q2088.32 215.83 2088.79 215.643 Q2089.26 215.479 2089.42 215.128 Q2089.61 214.8 2089.82 213.863 L2095.21 192.502 Q2095.54 191.073 2095.54 190.066 Q2095.54 188.801 2095.14 188.333 Q2094.74 187.864 2094.04 187.864 Q2092.82 187.864 2092.02 189.316 Q2091.23 190.768 2090.55 193.579 Q2090.34 194.352 2090.19 194.516 Q2090.08 194.68 2089.73 194.68 Q2089.14 194.657 2089.14 194.188 Q2089.14 194.071 2089.33 193.321 Q2089.52 192.549 2089.87 191.424 Q2090.24 190.277 2090.64 189.55 Q2090.87 189.059 2091.08 188.731 Q2091.3 188.403 2091.72 187.887 Q2092.16 187.372 2092.79 187.091 Q2093.43 186.81 2094.2 186.81 Q2095.7 186.81 2096.94 187.7 Q2098.18 188.59 2098.51 190.394 Q2099.84 188.824 2101.48 187.817 Q2103.12 186.81 2104.79 186.81 Q2107.55 186.81 2109.35 188.965 Q2111.18 191.096 2111.18 194.469 M2107.71 192.361 Q2107.71 190.23 2106.9 189.059 Q2106.1 187.864 2104.65 187.864 Q2102.84 187.864 2100.76 189.691 Q2098.7 191.424 2098.28 193.04 L2095.91 202.433 L2095.77 203.206 Q2095.77 203.346 2095.84 203.768 Q2095.93 204.166 2096.19 204.822 Q2096.47 205.478 2096.85 206.063 Q2097.25 206.625 2097.95 207.047 Q2098.67 207.469 2099.56 207.469 Q2100.99 207.469 2102.54 206.204 Q2104.11 204.939 2105.28 202.55 Q2106.01 201.004 2106.85 197.678 Q2107.71 194.329 2107.71 192.361 Z" fill="#000000" fill-rule="evenodd" fill-opacity="1" /><path clip-path="url(#clip740)" d="M2123.31 200.723 Q2123.36 200.137 2124.27 200.137 L2153.67 200.137 Q2155.05 200.137 2155.07 200.676 Q2155.07 201.262 2153.76 201.238 L2124.6 201.238 Q2123.31 201.262 2123.31 200.723 M2123.31 191.354 Q2123.31 190.768 2124.32 190.792 L2153.62 190.792 Q2155.05 190.792 2155.07 191.354 Q2155.07 191.893 2153.86 191.893 L2124.27 191.893 Q2123.31 191.893 2123.31 191.354 Z" fill="#000000" fill-rule="evenodd" fill-opacity="1" /><path clip-path="url(#clip740)" d="M2173.57 192.666 Q2173.57 185.616 2175.35 181.774 Q2177.83 176.059 2183.68 176.059 Q2184.92 176.059 2186.21 176.41 Q2187.52 176.738 2189.16 178.027 Q2190.83 179.315 2191.83 181.423 Q2193.76 185.498 2193.76 192.666 Q2193.76 199.669 2191.98 203.487 Q2189.38 209.061 2183.64 209.061 Q2181.48 209.061 2179.28 207.961 Q2177.1 206.86 2175.72 204.213 Q2173.57 200.255 2173.57 192.666 M2177.55 192.08 Q2177.55 199.318 2178.06 202.199 Q2178.65 205.314 2180.24 206.672 Q2181.86 208.007 2183.64 208.007 Q2185.56 208.007 2187.15 206.579 Q2188.77 205.126 2189.26 202.011 Q2189.8 198.943 2189.77 192.08 Q2189.77 185.405 2189.3 182.735 Q2188.67 179.619 2186.99 178.378 Q2185.32 177.113 2183.64 177.113 Q2183 177.113 2182.33 177.301 Q2181.67 177.488 2180.71 178.027 Q2179.75 178.565 2179 179.9 Q2178.27 181.236 2177.92 183.25 Q2177.55 185.85 2177.55 192.08 Z" fill="#000000" fill-rule="evenodd" fill-opacity="1" /><path clip-path="url(#clip740)" d="M2198.04 207.234 Q2197.32 206.461 2197.32 205.454 Q2197.32 204.447 2198.04 203.721 Q2198.77 202.972 2199.87 202.972 Q2200.92 202.972 2201.62 203.674 Q2202.35 204.353 2202.35 205.478 Q2202.35 206.579 2201.58 207.305 Q2200.83 208.007 2199.87 208.007 Q2198.77 208.007 2198.04 207.234 Z" fill="#000000" fill-rule="evenodd" fill-opacity="1" /><path clip-path="url(#clip740)" d="M2210.51 208.007 Q2210.51 207.141 2210.58 206.883 Q2210.68 206.625 2211.05 206.227 L2220.26 195.968 Q2225.29 190.3 2225.29 185.358 Q2225.29 182.149 2223.61 179.854 Q2221.94 177.558 2218.87 177.558 Q2216.77 177.558 2214.99 178.846 Q2213.21 180.135 2212.39 182.43 Q2212.53 182.383 2213.02 182.383 Q2214.21 182.383 2214.87 183.133 Q2215.55 183.882 2215.55 184.889 Q2215.55 186.178 2214.7 186.81 Q2213.88 187.419 2213.07 187.419 Q2212.74 187.419 2212.29 187.349 Q2211.87 187.279 2211.19 186.623 Q2210.51 185.943 2210.51 184.749 Q2210.51 181.399 2213.04 178.729 Q2215.59 176.059 2219.48 176.059 Q2223.89 176.059 2226.77 178.682 Q2229.67 181.282 2229.67 185.358 Q2229.67 186.787 2229.23 188.098 Q2228.8 189.387 2228.22 190.394 Q2227.66 191.401 2226.11 193.017 Q2224.57 194.633 2223.32 195.781 Q2222.08 196.929 2219.3 199.364 L2214.21 204.307 L2222.86 204.307 Q2227.07 204.307 2227.4 203.932 Q2227.87 203.253 2228.45 199.669 L2229.67 199.669 L2228.31 208.007 L2210.51 208.007 Z" fill="#000000" fill-rule="evenodd" fill-opacity="1" /></svg>
