<?xml version="1.0" encoding="utf-8"?>
<svg xmlns="http://www.w3.org/2000/svg" xmlns:xlink="http://www.w3.org/1999/xlink" width="600" height="400" viewBox="0 0 2400 1600">
<defs>
  <clipPath id="clip680">
    <rect x="0" y="0" width="2400" height="1600"/>
  </clipPath>
</defs>
<path clip-path="url(#clip680)" d="
M0 1600 L2400 1600 L2400 0 L0 0  Z
  " fill="#ffffff" fill-rule="evenodd" fill-opacity="1"/>
<defs>
  <clipPath id="clip681">
    <rect x="480" y="0" width="1681" height="1600"/>
  </clipPath>
</defs>
<defs>
  <clipPath id="clip682">
    <rect x="292" y="123" width="2062" height="1301"/>
  </clipPath>
</defs>
<path clip-path="url(#clip680)" d="
M249.542 1423.18 L2352.76 1423.18 L2352.76 47.2441 L249.542 47.2441  Z
  " fill="#ffffff" fill-rule="evenodd" fill-opacity="1"/>
<defs>
  <clipPath id="clip683">
    <rect x="249" y="47" width="2104" height="1377"/>
  </clipPath>
</defs>
<polyline clip-path="url(#clip683)" style="stroke:#000000; stroke-linecap:butt; stroke-linejoin:round; stroke-width:2; stroke-opacity:0.1; fill:none" points="
  309.067,1423.18 309.067,47.2441 
  "/>
<polyline clip-path="url(#clip683)" style="stroke:#000000; stroke-linecap:butt; stroke-linejoin:round; stroke-width:2; stroke-opacity:0.1; fill:none" points="
  705.9,1423.18 705.9,47.2441 
  "/>
<polyline clip-path="url(#clip683)" style="stroke:#000000; stroke-linecap:butt; stroke-linejoin:round; stroke-width:2; stroke-opacity:0.1; fill:none" points="
  1102.73,1423.18 1102.73,47.2441 
  "/>
<polyline clip-path="url(#clip683)" style="stroke:#000000; stroke-linecap:butt; stroke-linejoin:round; stroke-width:2; stroke-opacity:0.1; fill:none" points="
  1499.57,1423.18 1499.57,47.2441 
  "/>
<polyline clip-path="url(#clip683)" style="stroke:#000000; stroke-linecap:butt; stroke-linejoin:round; stroke-width:2; stroke-opacity:0.1; fill:none" points="
  1896.4,1423.18 1896.4,47.2441 
  "/>
<polyline clip-path="url(#clip683)" style="stroke:#000000; stroke-linecap:butt; stroke-linejoin:round; stroke-width:2; stroke-opacity:0.1; fill:none" points="
  2293.23,1423.18 2293.23,47.2441 
  "/>
<polyline clip-path="url(#clip680)" style="stroke:#000000; stroke-linecap:butt; stroke-linejoin:round; stroke-width:4; stroke-opacity:1; fill:none" points="
  249.542,1423.18 2352.76,1423.18 
  "/>
<polyline clip-path="url(#clip680)" style="stroke:#000000; stroke-linecap:butt; stroke-linejoin:round; stroke-width:4; stroke-opacity:1; fill:none" points="
  309.067,1423.18 309.067,1404.28 
  "/>
<polyline clip-path="url(#clip680)" style="stroke:#000000; stroke-linecap:butt; stroke-linejoin:round; stroke-width:4; stroke-opacity:1; fill:none" points="
  705.9,1423.18 705.9,1404.28 
  "/>
<polyline clip-path="url(#clip680)" style="stroke:#000000; stroke-linecap:butt; stroke-linejoin:round; stroke-width:4; stroke-opacity:1; fill:none" points="
  1102.73,1423.18 1102.73,1404.28 
  "/>
<polyline clip-path="url(#clip680)" style="stroke:#000000; stroke-linecap:butt; stroke-linejoin:round; stroke-width:4; stroke-opacity:1; fill:none" points="
  1499.57,1423.18 1499.57,1404.28 
  "/>
<polyline clip-path="url(#clip680)" style="stroke:#000000; stroke-linecap:butt; stroke-linejoin:round; stroke-width:4; stroke-opacity:1; fill:none" points="
  1896.4,1423.18 1896.4,1404.28 
  "/>
<polyline clip-path="url(#clip680)" style="stroke:#000000; stroke-linecap:butt; stroke-linejoin:round; stroke-width:4; stroke-opacity:1; fill:none" points="
  2293.23,1423.18 2293.23,1404.28 
  "/>
<path clip-path="url(#clip680)" d="M299.449 1481.64 L307.088 1481.64 L307.088 1455.28 L298.778 1456.95 L298.778 1452.69 L307.042 1451.02 L311.717 1451.02 L311.717 1481.64 L319.356 1481.64 L319.356 1485.58 L299.449 1485.58 L299.449 1481.64 Z" fill="#000000" fill-rule="evenodd" fill-opacity="1" /><path clip-path="url(#clip680)" d="M700.553 1481.64 L716.872 1481.64 L716.872 1485.58 L694.928 1485.58 L694.928 1481.64 Q697.59 1478.89 702.173 1474.26 Q706.779 1469.61 707.96 1468.27 Q710.205 1465.74 711.085 1464.01 Q711.988 1462.25 711.988 1460.56 Q711.988 1457.8 710.043 1456.07 Q708.122 1454.33 705.02 1454.33 Q702.821 1454.33 700.367 1455.09 Q697.937 1455.86 695.159 1457.41 L695.159 1452.69 Q697.983 1451.55 700.437 1450.97 Q702.891 1450.39 704.928 1450.39 Q710.298 1450.39 713.492 1453.08 Q716.687 1455.77 716.687 1460.26 Q716.687 1462.39 715.877 1464.31 Q715.09 1466.2 712.983 1468.8 Q712.404 1469.47 709.303 1472.69 Q706.201 1475.88 700.553 1481.64 Z" fill="#000000" fill-rule="evenodd" fill-opacity="1" /><path clip-path="url(#clip680)" d="M1106.98 1466.95 Q1110.34 1467.66 1112.21 1469.93 Q1114.11 1472.2 1114.11 1475.53 Q1114.11 1480.65 1110.59 1483.45 Q1107.07 1486.25 1100.59 1486.25 Q1098.42 1486.25 1096.1 1485.81 Q1093.81 1485.39 1091.36 1484.54 L1091.36 1480.02 Q1093.3 1481.16 1095.61 1481.74 Q1097.93 1482.32 1100.45 1482.32 Q1104.85 1482.32 1107.14 1480.58 Q1109.46 1478.84 1109.46 1475.53 Q1109.46 1472.48 1107.3 1470.77 Q1105.17 1469.03 1101.36 1469.03 L1097.33 1469.03 L1097.33 1465.19 L1101.54 1465.19 Q1104.99 1465.19 1106.82 1463.82 Q1108.65 1462.43 1108.65 1459.84 Q1108.65 1457.18 1106.75 1455.77 Q1104.87 1454.33 1101.36 1454.33 Q1099.43 1454.33 1097.23 1454.75 Q1095.04 1455.16 1092.4 1456.04 L1092.4 1451.88 Q1095.06 1451.14 1097.37 1450.77 Q1099.71 1450.39 1101.77 1450.39 Q1107.1 1450.39 1110.2 1452.83 Q1113.3 1455.23 1113.3 1459.35 Q1113.3 1462.22 1111.66 1464.21 Q1110.01 1466.18 1106.98 1466.95 Z" fill="#000000" fill-rule="evenodd" fill-opacity="1" /><path clip-path="url(#clip680)" d="M1502.57 1455.09 L1490.77 1473.54 L1502.57 1473.54 L1502.57 1455.09 M1501.35 1451.02 L1507.23 1451.02 L1507.23 1473.54 L1512.16 1473.54 L1512.16 1477.43 L1507.23 1477.43 L1507.23 1485.58 L1502.57 1485.58 L1502.57 1477.43 L1486.97 1477.43 L1486.97 1472.92 L1501.35 1451.02 Z" fill="#000000" fill-rule="evenodd" fill-opacity="1" /><path clip-path="url(#clip680)" d="M1886.68 1451.02 L1905.03 1451.02 L1905.03 1454.96 L1890.96 1454.96 L1890.96 1463.43 Q1891.98 1463.08 1893 1462.92 Q1894.01 1462.73 1895.03 1462.73 Q1900.82 1462.73 1904.2 1465.9 Q1907.58 1469.08 1907.58 1474.49 Q1907.58 1480.07 1904.11 1483.17 Q1900.63 1486.25 1894.31 1486.25 Q1892.14 1486.25 1889.87 1485.88 Q1887.63 1485.51 1885.22 1484.77 L1885.22 1480.07 Q1887.3 1481.2 1889.52 1481.76 Q1891.75 1482.32 1894.22 1482.32 Q1898.23 1482.32 1900.56 1480.21 Q1902.9 1478.1 1902.9 1474.49 Q1902.9 1470.88 1900.56 1468.77 Q1898.23 1466.67 1894.22 1466.67 Q1892.35 1466.67 1890.47 1467.08 Q1888.62 1467.5 1886.68 1468.38 L1886.68 1451.02 Z" fill="#000000" fill-rule="evenodd" fill-opacity="1" /><path clip-path="url(#clip680)" d="M2293.64 1466.44 Q2290.49 1466.44 2288.64 1468.59 Q2286.81 1470.74 2286.81 1474.49 Q2286.81 1478.22 2288.64 1480.39 Q2290.49 1482.55 2293.64 1482.55 Q2296.78 1482.55 2298.61 1480.39 Q2300.46 1478.22 2300.46 1474.49 Q2300.46 1470.74 2298.61 1468.59 Q2296.78 1466.44 2293.64 1466.44 M2302.92 1451.78 L2302.92 1456.04 Q2301.16 1455.21 2299.35 1454.77 Q2297.57 1454.33 2295.81 1454.33 Q2291.18 1454.33 2288.73 1457.45 Q2286.3 1460.58 2285.95 1466.9 Q2287.32 1464.89 2289.38 1463.82 Q2291.44 1462.73 2293.91 1462.73 Q2299.12 1462.73 2302.13 1465.9 Q2305.16 1469.05 2305.16 1474.49 Q2305.16 1479.82 2302.02 1483.03 Q2298.87 1486.25 2293.64 1486.25 Q2287.64 1486.25 2284.47 1481.67 Q2281.3 1477.06 2281.3 1468.33 Q2281.3 1460.14 2285.19 1455.28 Q2289.08 1450.39 2295.63 1450.39 Q2297.39 1450.39 2299.17 1450.74 Q2300.97 1451.09 2302.92 1451.78 Z" fill="#000000" fill-rule="evenodd" fill-opacity="1" /><path clip-path="url(#clip680)" d="M1313.08 1529.22 Q1313.08 1534.63 1311.34 1540.71 Q1309.64 1546.77 1306.93 1551.66 Q1304.23 1556.53 1300.68 1559.75 Q1297.14 1562.94 1293.76 1562.94 Q1291.6 1562.94 1289.99 1561.75 Q1288.41 1560.52 1287.54 1558.49 Q1286.68 1556.43 1286.26 1554.18 Q1285.84 1551.89 1285.84 1549.41 Q1285.84 1545.71 1286.64 1541.68 Q1287.45 1537.62 1288.8 1533.95 Q1290.15 1530.25 1292.05 1526.9 Q1293.95 1523.52 1296.05 1521.07 Q1298.17 1518.59 1300.56 1517.14 Q1302.94 1515.69 1305.16 1515.69 Q1306.77 1515.69 1308.06 1516.4 Q1309.38 1517.08 1310.22 1518.27 Q1311.05 1519.43 1311.63 1520.81 Q1312.25 1522.2 1312.54 1523.81 Q1312.83 1525.38 1312.96 1526.71 Q1313.08 1527.99 1313.08 1529.22 M1308.74 1525.13 Q1308.74 1523.48 1308.61 1522.26 Q1308.48 1521 1308.12 1519.75 Q1307.77 1518.49 1307 1517.82 Q1306.26 1517.14 1305.1 1517.14 Q1301.72 1517.14 1297.91 1524.06 Q1296.69 1526.22 1295.6 1529.15 Q1294.5 1532.08 1294.11 1533.47 Q1293.73 1534.85 1292.83 1538.27 L1306.61 1538.27 Q1308.74 1529.47 1308.74 1525.13 M1306.03 1540.36 L1292.31 1540.36 Q1290.19 1548.41 1290.19 1553.44 Q1290.19 1557.82 1291.09 1559.65 Q1292.02 1561.46 1293.76 1561.46 Q1295.76 1561.46 1297.63 1559.46 Q1299.49 1557.43 1301.39 1553.76 Q1303.91 1548.99 1306.03 1540.36 Z" fill="#000000" fill-rule="evenodd" fill-opacity="1" /><polyline clip-path="url(#clip683)" style="stroke:#000000; stroke-linecap:butt; stroke-linejoin:round; stroke-width:2; stroke-opacity:0.1; fill:none" points="
  249.542,1423.18 2352.76,1423.18 
  "/>
<polyline clip-path="url(#clip683)" style="stroke:#000000; stroke-linecap:butt; stroke-linejoin:round; stroke-width:2; stroke-opacity:0.1; fill:none" points="
  249.542,1193.86 2352.76,1193.86 
  "/>
<polyline clip-path="url(#clip683)" style="stroke:#000000; stroke-linecap:butt; stroke-linejoin:round; stroke-width:2; stroke-opacity:0.1; fill:none" points="
  249.542,964.535 2352.76,964.535 
  "/>
<polyline clip-path="url(#clip683)" style="stroke:#000000; stroke-linecap:butt; stroke-linejoin:round; stroke-width:2; stroke-opacity:0.1; fill:none" points="
  249.542,735.212 2352.76,735.212 
  "/>
<polyline clip-path="url(#clip683)" style="stroke:#000000; stroke-linecap:butt; stroke-linejoin:round; stroke-width:2; stroke-opacity:0.1; fill:none" points="
  249.542,505.889 2352.76,505.889 
  "/>
<polyline clip-path="url(#clip683)" style="stroke:#000000; stroke-linecap:butt; stroke-linejoin:round; stroke-width:2; stroke-opacity:0.1; fill:none" points="
  249.542,276.567 2352.76,276.567 
  "/>
<polyline clip-path="url(#clip680)" style="stroke:#000000; stroke-linecap:butt; stroke-linejoin:round; stroke-width:4; stroke-opacity:1; fill:none" points="
  249.542,1423.18 249.542,47.2441 
  "/>
<polyline clip-path="url(#clip680)" style="stroke:#000000; stroke-linecap:butt; stroke-linejoin:round; stroke-width:4; stroke-opacity:1; fill:none" points="
  249.542,1423.18 268.44,1423.18 
  "/>
<polyline clip-path="url(#clip680)" style="stroke:#000000; stroke-linecap:butt; stroke-linejoin:round; stroke-width:4; stroke-opacity:1; fill:none" points="
  249.542,1193.86 268.44,1193.86 
  "/>
<polyline clip-path="url(#clip680)" style="stroke:#000000; stroke-linecap:butt; stroke-linejoin:round; stroke-width:4; stroke-opacity:1; fill:none" points="
  249.542,964.535 268.44,964.535 
  "/>
<polyline clip-path="url(#clip680)" style="stroke:#000000; stroke-linecap:butt; stroke-linejoin:round; stroke-width:4; stroke-opacity:1; fill:none" points="
  249.542,735.212 268.44,735.212 
  "/>
<polyline clip-path="url(#clip680)" style="stroke:#000000; stroke-linecap:butt; stroke-linejoin:round; stroke-width:4; stroke-opacity:1; fill:none" points="
  249.542,505.889 268.44,505.889 
  "/>
<polyline clip-path="url(#clip680)" style="stroke:#000000; stroke-linecap:butt; stroke-linejoin:round; stroke-width:4; stroke-opacity:1; fill:none" points="
  249.542,276.567 268.44,276.567 
  "/>
<path clip-path="url(#clip680)" d="M126.205 1408.98 Q122.593 1408.98 120.765 1412.54 Q118.959 1416.08 118.959 1423.21 Q118.959 1430.32 120.765 1433.89 Q122.593 1437.43 126.205 1437.43 Q129.839 1437.43 131.644 1433.89 Q133.473 1430.32 133.473 1423.21 Q133.473 1416.08 131.644 1412.54 Q129.839 1408.98 126.205 1408.98 M126.205 1405.27 Q132.015 1405.27 135.07 1409.88 Q138.149 1414.46 138.149 1423.21 Q138.149 1431.94 135.07 1436.55 Q132.015 1441.13 126.205 1441.13 Q120.394 1441.13 117.316 1436.55 Q114.26 1431.94 114.26 1423.21 Q114.26 1414.46 117.316 1409.88 Q120.394 1405.27 126.205 1405.27 Z" fill="#000000" fill-rule="evenodd" fill-opacity="1" /><path clip-path="url(#clip680)" d="M146.366 1434.58 L151.251 1434.58 L151.251 1440.46 L146.366 1440.46 L146.366 1434.58 Z" fill="#000000" fill-rule="evenodd" fill-opacity="1" /><path clip-path="url(#clip680)" d="M171.436 1408.98 Q167.825 1408.98 165.996 1412.54 Q164.19 1416.08 164.19 1423.21 Q164.19 1430.32 165.996 1433.89 Q167.825 1437.43 171.436 1437.43 Q175.07 1437.43 176.876 1433.89 Q178.704 1430.32 178.704 1423.21 Q178.704 1416.08 176.876 1412.54 Q175.07 1408.98 171.436 1408.98 M171.436 1405.27 Q177.246 1405.27 180.301 1409.88 Q183.38 1414.46 183.38 1423.21 Q183.38 1431.94 180.301 1436.55 Q177.246 1441.13 171.436 1441.13 Q165.626 1441.13 162.547 1436.55 Q159.491 1431.94 159.491 1423.21 Q159.491 1414.46 162.547 1409.88 Q165.626 1405.27 171.436 1405.27 Z" fill="#000000" fill-rule="evenodd" fill-opacity="1" /><path clip-path="url(#clip680)" d="M201.598 1408.98 Q197.987 1408.98 196.158 1412.54 Q194.352 1416.08 194.352 1423.21 Q194.352 1430.32 196.158 1433.89 Q197.987 1437.43 201.598 1437.43 Q205.232 1437.43 207.037 1433.89 Q208.866 1430.32 208.866 1423.21 Q208.866 1416.08 207.037 1412.54 Q205.232 1408.98 201.598 1408.98 M201.598 1405.27 Q207.408 1405.27 210.463 1409.88 Q213.542 1414.46 213.542 1423.21 Q213.542 1431.94 210.463 1436.55 Q207.408 1441.13 201.598 1441.13 Q195.787 1441.13 192.709 1436.55 Q189.653 1431.94 189.653 1423.21 Q189.653 1414.46 192.709 1409.88 Q195.787 1405.27 201.598 1405.27 Z" fill="#000000" fill-rule="evenodd" fill-opacity="1" /><path clip-path="url(#clip680)" d="M127.2 1179.66 Q123.589 1179.66 121.76 1183.22 Q119.955 1186.76 119.955 1193.89 Q119.955 1201 121.76 1204.56 Q123.589 1208.1 127.2 1208.1 Q130.834 1208.1 132.64 1204.56 Q134.468 1201 134.468 1193.89 Q134.468 1186.76 132.64 1183.22 Q130.834 1179.66 127.2 1179.66 M127.2 1175.95 Q133.01 1175.95 136.066 1180.56 Q139.144 1185.14 139.144 1193.89 Q139.144 1202.62 136.066 1207.23 Q133.01 1211.81 127.2 1211.81 Q121.39 1211.81 118.311 1207.23 Q115.256 1202.62 115.256 1193.89 Q115.256 1185.14 118.311 1180.56 Q121.39 1175.95 127.2 1175.95 Z" fill="#000000" fill-rule="evenodd" fill-opacity="1" /><path clip-path="url(#clip680)" d="M147.362 1205.26 L152.246 1205.26 L152.246 1211.14 L147.362 1211.14 L147.362 1205.26 Z" fill="#000000" fill-rule="evenodd" fill-opacity="1" /><path clip-path="url(#clip680)" d="M172.431 1179.66 Q168.82 1179.66 166.991 1183.22 Q165.186 1186.76 165.186 1193.89 Q165.186 1201 166.991 1204.56 Q168.82 1208.1 172.431 1208.1 Q176.065 1208.1 177.871 1204.56 Q179.7 1201 179.7 1193.89 Q179.7 1186.76 177.871 1183.22 Q176.065 1179.66 172.431 1179.66 M172.431 1175.95 Q178.241 1175.95 181.297 1180.56 Q184.376 1185.14 184.376 1193.89 Q184.376 1202.62 181.297 1207.23 Q178.241 1211.81 172.431 1211.81 Q166.621 1211.81 163.542 1207.23 Q160.487 1202.62 160.487 1193.89 Q160.487 1185.14 163.542 1180.56 Q166.621 1175.95 172.431 1175.95 Z" fill="#000000" fill-rule="evenodd" fill-opacity="1" /><path clip-path="url(#clip680)" d="M192.639 1176.58 L210.996 1176.58 L210.996 1180.51 L196.922 1180.51 L196.922 1188.98 Q197.94 1188.64 198.959 1188.48 Q199.977 1188.29 200.996 1188.29 Q206.783 1188.29 210.162 1191.46 Q213.542 1194.63 213.542 1200.05 Q213.542 1205.63 210.07 1208.73 Q206.598 1211.81 200.278 1211.81 Q198.102 1211.81 195.834 1211.44 Q193.588 1211.07 191.181 1210.33 L191.181 1205.63 Q193.264 1206.76 195.487 1207.32 Q197.709 1207.87 200.186 1207.87 Q204.19 1207.87 206.528 1205.77 Q208.866 1203.66 208.866 1200.05 Q208.866 1196.44 206.528 1194.33 Q204.19 1192.23 200.186 1192.23 Q198.311 1192.23 196.436 1192.64 Q194.584 1193.06 192.639 1193.94 L192.639 1176.58 Z" fill="#000000" fill-rule="evenodd" fill-opacity="1" /><path clip-path="url(#clip680)" d="M126.205 950.333 Q122.593 950.333 120.765 953.898 Q118.959 957.44 118.959 964.569 Q118.959 971.676 120.765 975.241 Q122.593 978.782 126.205 978.782 Q129.839 978.782 131.644 975.241 Q133.473 971.676 133.473 964.569 Q133.473 957.44 131.644 953.898 Q129.839 950.333 126.205 950.333 M126.205 946.63 Q132.015 946.63 135.07 951.236 Q138.149 955.819 138.149 964.569 Q138.149 973.296 135.07 977.903 Q132.015 982.486 126.205 982.486 Q120.394 982.486 117.316 977.903 Q114.26 973.296 114.26 964.569 Q114.26 955.819 117.316 951.236 Q120.394 946.63 126.205 946.63 Z" fill="#000000" fill-rule="evenodd" fill-opacity="1" /><path clip-path="url(#clip680)" d="M146.366 975.935 L151.251 975.935 L151.251 981.815 L146.366 981.815 L146.366 975.935 Z" fill="#000000" fill-rule="evenodd" fill-opacity="1" /><path clip-path="url(#clip680)" d="M162.246 977.879 L169.885 977.879 L169.885 951.514 L161.575 953.18 L161.575 948.921 L169.839 947.255 L174.514 947.255 L174.514 977.879 L182.153 977.879 L182.153 981.815 L162.246 981.815 L162.246 977.879 Z" fill="#000000" fill-rule="evenodd" fill-opacity="1" /><path clip-path="url(#clip680)" d="M201.598 950.333 Q197.987 950.333 196.158 953.898 Q194.352 957.44 194.352 964.569 Q194.352 971.676 196.158 975.241 Q197.987 978.782 201.598 978.782 Q205.232 978.782 207.037 975.241 Q208.866 971.676 208.866 964.569 Q208.866 957.44 207.037 953.898 Q205.232 950.333 201.598 950.333 M201.598 946.63 Q207.408 946.63 210.463 951.236 Q213.542 955.819 213.542 964.569 Q213.542 973.296 210.463 977.903 Q207.408 982.486 201.598 982.486 Q195.787 982.486 192.709 977.903 Q189.653 973.296 189.653 964.569 Q189.653 955.819 192.709 951.236 Q195.787 946.63 201.598 946.63 Z" fill="#000000" fill-rule="evenodd" fill-opacity="1" /><path clip-path="url(#clip680)" d="M127.2 721.011 Q123.589 721.011 121.76 724.575 Q119.955 728.117 119.955 735.247 Q119.955 742.353 121.76 745.918 Q123.589 749.46 127.2 749.46 Q130.834 749.46 132.64 745.918 Q134.468 742.353 134.468 735.247 Q134.468 728.117 132.64 724.575 Q130.834 721.011 127.2 721.011 M127.2 717.307 Q133.01 717.307 136.066 721.913 Q139.144 726.497 139.144 735.247 Q139.144 743.973 136.066 748.58 Q133.01 753.163 127.2 753.163 Q121.39 753.163 118.311 748.58 Q115.256 743.973 115.256 735.247 Q115.256 726.497 118.311 721.913 Q121.39 717.307 127.2 717.307 Z" fill="#000000" fill-rule="evenodd" fill-opacity="1" /><path clip-path="url(#clip680)" d="M147.362 746.612 L152.246 746.612 L152.246 752.492 L147.362 752.492 L147.362 746.612 Z" fill="#000000" fill-rule="evenodd" fill-opacity="1" /><path clip-path="url(#clip680)" d="M163.241 748.557 L170.88 748.557 L170.88 722.191 L162.57 723.858 L162.57 719.599 L170.834 717.932 L175.51 717.932 L175.51 748.557 L183.149 748.557 L183.149 752.492 L163.241 752.492 L163.241 748.557 Z" fill="#000000" fill-rule="evenodd" fill-opacity="1" /><path clip-path="url(#clip680)" d="M192.639 717.932 L210.996 717.932 L210.996 721.867 L196.922 721.867 L196.922 730.339 Q197.94 729.992 198.959 729.83 Q199.977 729.645 200.996 729.645 Q206.783 729.645 210.162 732.816 Q213.542 735.987 213.542 741.404 Q213.542 746.983 210.07 750.085 Q206.598 753.163 200.278 753.163 Q198.102 753.163 195.834 752.793 Q193.588 752.423 191.181 751.682 L191.181 746.983 Q193.264 748.117 195.487 748.673 Q197.709 749.228 200.186 749.228 Q204.19 749.228 206.528 747.122 Q208.866 745.015 208.866 741.404 Q208.866 737.793 206.528 735.687 Q204.19 733.58 200.186 733.58 Q198.311 733.58 196.436 733.997 Q194.584 734.413 192.639 735.293 L192.639 717.932 Z" fill="#000000" fill-rule="evenodd" fill-opacity="1" /><path clip-path="url(#clip680)" d="M126.205 491.688 Q122.593 491.688 120.765 495.253 Q118.959 498.794 118.959 505.924 Q118.959 513.031 120.765 516.595 Q122.593 520.137 126.205 520.137 Q129.839 520.137 131.644 516.595 Q133.473 513.031 133.473 505.924 Q133.473 498.794 131.644 495.253 Q129.839 491.688 126.205 491.688 M126.205 487.984 Q132.015 487.984 135.07 492.591 Q138.149 497.174 138.149 505.924 Q138.149 514.651 135.07 519.257 Q132.015 523.841 126.205 523.841 Q120.394 523.841 117.316 519.257 Q114.26 514.651 114.26 505.924 Q114.26 497.174 117.316 492.591 Q120.394 487.984 126.205 487.984 Z" fill="#000000" fill-rule="evenodd" fill-opacity="1" /><path clip-path="url(#clip680)" d="M146.366 517.29 L151.251 517.29 L151.251 523.169 L146.366 523.169 L146.366 517.29 Z" fill="#000000" fill-rule="evenodd" fill-opacity="1" /><path clip-path="url(#clip680)" d="M165.464 519.234 L181.783 519.234 L181.783 523.169 L159.839 523.169 L159.839 519.234 Q162.501 516.48 167.084 511.85 Q171.69 507.197 172.871 505.855 Q175.116 503.331 175.996 501.595 Q176.899 499.836 176.899 498.146 Q176.899 495.392 174.954 493.656 Q173.033 491.92 169.931 491.92 Q167.732 491.92 165.278 492.683 Q162.848 493.447 160.07 494.998 L160.07 490.276 Q162.894 489.142 165.348 488.563 Q167.802 487.984 169.839 487.984 Q175.209 487.984 178.403 490.67 Q181.598 493.355 181.598 497.845 Q181.598 499.975 180.788 501.896 Q180.001 503.794 177.894 506.387 Q177.315 507.058 174.214 510.276 Q171.112 513.47 165.464 519.234 Z" fill="#000000" fill-rule="evenodd" fill-opacity="1" /><path clip-path="url(#clip680)" d="M201.598 491.688 Q197.987 491.688 196.158 495.253 Q194.352 498.794 194.352 505.924 Q194.352 513.031 196.158 516.595 Q197.987 520.137 201.598 520.137 Q205.232 520.137 207.037 516.595 Q208.866 513.031 208.866 505.924 Q208.866 498.794 207.037 495.253 Q205.232 491.688 201.598 491.688 M201.598 487.984 Q207.408 487.984 210.463 492.591 Q213.542 497.174 213.542 505.924 Q213.542 514.651 210.463 519.257 Q207.408 523.841 201.598 523.841 Q195.787 523.841 192.709 519.257 Q189.653 514.651 189.653 505.924 Q189.653 497.174 192.709 492.591 Q195.787 487.984 201.598 487.984 Z" fill="#000000" fill-rule="evenodd" fill-opacity="1" /><path clip-path="url(#clip680)" d="M127.2 262.365 Q123.589 262.365 121.76 265.93 Q119.955 269.472 119.955 276.601 Q119.955 283.708 121.76 287.273 Q123.589 290.814 127.2 290.814 Q130.834 290.814 132.64 287.273 Q134.468 283.708 134.468 276.601 Q134.468 269.472 132.64 265.93 Q130.834 262.365 127.2 262.365 M127.2 258.662 Q133.01 258.662 136.066 263.268 Q139.144 267.851 139.144 276.601 Q139.144 285.328 136.066 289.935 Q133.01 294.518 127.2 294.518 Q121.39 294.518 118.311 289.935 Q115.256 285.328 115.256 276.601 Q115.256 267.851 118.311 263.268 Q121.39 258.662 127.2 258.662 Z" fill="#000000" fill-rule="evenodd" fill-opacity="1" /><path clip-path="url(#clip680)" d="M147.362 287.967 L152.246 287.967 L152.246 293.847 L147.362 293.847 L147.362 287.967 Z" fill="#000000" fill-rule="evenodd" fill-opacity="1" /><path clip-path="url(#clip680)" d="M166.459 289.912 L182.778 289.912 L182.778 293.847 L160.834 293.847 L160.834 289.912 Q163.496 287.157 168.079 282.527 Q172.686 277.875 173.866 276.532 Q176.112 274.009 176.991 272.273 Q177.894 270.514 177.894 268.824 Q177.894 266.069 175.95 264.333 Q174.028 262.597 170.927 262.597 Q168.727 262.597 166.274 263.361 Q163.843 264.125 161.065 265.676 L161.065 260.953 Q163.89 259.819 166.343 259.24 Q168.797 258.662 170.834 258.662 Q176.204 258.662 179.399 261.347 Q182.593 264.032 182.593 268.523 Q182.593 270.652 181.783 272.574 Q180.996 274.472 178.889 277.064 Q178.311 277.736 175.209 280.953 Q172.107 284.148 166.459 289.912 Z" fill="#000000" fill-rule="evenodd" fill-opacity="1" /><path clip-path="url(#clip680)" d="M192.639 259.287 L210.996 259.287 L210.996 263.222 L196.922 263.222 L196.922 271.694 Q197.94 271.347 198.959 271.185 Q199.977 271 200.996 271 Q206.783 271 210.162 274.171 Q213.542 277.342 213.542 282.759 Q213.542 288.337 210.07 291.439 Q206.598 294.518 200.278 294.518 Q198.102 294.518 195.834 294.148 Q193.588 293.777 191.181 293.037 L191.181 288.337 Q193.264 289.472 195.487 290.027 Q197.709 290.583 200.186 290.583 Q204.19 290.583 206.528 288.476 Q208.866 286.37 208.866 282.759 Q208.866 279.148 206.528 277.041 Q204.19 274.935 200.186 274.935 Q198.311 274.935 196.436 275.351 Q194.584 275.768 192.639 276.648 L192.639 259.287 Z" fill="#000000" fill-rule="evenodd" fill-opacity="1" /><path clip-path="url(#clip680)" d="M16.4842 812.476 L16.4842 802.895 L48.8219 790.769 L16.4842 778.578 L16.4842 768.998 L64.0042 768.998 L64.0042 775.268 L22.277 775.268 L54.8694 787.522 L54.8694 793.983 L22.277 806.237 L64.0042 806.237 L64.0042 812.476 L16.4842 812.476 Z" fill="#000000" fill-rule="evenodd" fill-opacity="1" /><path clip-path="url(#clip680)" d="M46.0847 740.289 Q46.0847 747.386 47.7079 750.124 Q49.3312 752.861 53.2461 752.861 Q56.3653 752.861 58.2114 750.824 Q60.0256 748.755 60.0256 745.222 Q60.0256 740.352 56.5881 737.424 Q53.1188 734.464 47.3897 734.464 L46.0847 734.464 L46.0847 740.289 M43.6657 728.608 L64.0042 728.608 L64.0042 734.464 L58.5933 734.464 Q61.8398 736.469 63.3994 739.461 Q64.9272 742.453 64.9272 746.782 Q64.9272 752.256 61.8716 755.503 Q58.7843 758.717 53.6281 758.717 Q47.6125 758.717 44.5569 754.707 Q41.5014 750.665 41.5014 742.676 L41.5014 734.464 L40.9285 734.464 Q36.8862 734.464 34.6901 737.138 Q32.4621 739.779 32.4621 744.585 Q32.4621 747.641 33.1941 750.537 Q33.9262 753.434 35.3903 756.107 L29.9795 756.107 Q28.7381 752.893 28.1334 749.869 Q27.4968 746.845 27.4968 743.981 Q27.4968 736.246 31.5072 732.427 Q35.5176 728.608 43.6657 728.608 Z" fill="#000000" fill-rule="evenodd" fill-opacity="1" /><path clip-path="url(#clip680)" d="M29.4065 693.819 L34.9447 693.819 Q33.6716 696.302 33.035 698.975 Q32.3984 701.649 32.3984 704.513 Q32.3984 708.874 33.7352 711.07 Q35.072 713.234 37.7456 713.234 Q39.7826 713.234 40.9603 711.675 Q42.1061 710.115 43.1565 705.405 L43.6021 703.399 Q44.9389 697.161 47.3897 694.551 Q49.8086 691.909 54.1691 691.909 Q59.1344 691.909 62.0308 695.856 Q64.9272 699.771 64.9272 706.646 Q64.9272 709.51 64.3543 712.63 Q63.8132 715.717 62.6992 719.154 L56.6518 719.154 Q58.3387 715.908 59.198 712.757 Q60.0256 709.606 60.0256 706.519 Q60.0256 702.381 58.6251 700.153 Q57.1929 697.925 54.6147 697.925 Q52.2276 697.925 50.9545 699.548 Q49.6813 701.14 48.5037 706.582 L48.0262 708.619 Q46.8804 714.062 44.5251 716.481 Q42.138 718.9 38.0002 718.9 Q32.9713 718.9 30.2341 715.335 Q27.4968 711.77 27.4968 705.214 Q27.4968 701.967 27.9743 699.102 Q28.4517 696.238 29.4065 693.819 Z" fill="#000000" fill-rule="evenodd" fill-opacity="1" /><path clip-path="url(#clip680)" d="M29.4065 659.858 L34.9447 659.858 Q33.6716 662.341 33.035 665.014 Q32.3984 667.688 32.3984 670.552 Q32.3984 674.913 33.7352 677.109 Q35.072 679.273 37.7456 679.273 Q39.7826 679.273 40.9603 677.714 Q42.1061 676.154 43.1565 671.444 L43.6021 669.438 Q44.9389 663.2 47.3897 660.59 Q49.8086 657.948 54.1691 657.948 Q59.1344 657.948 62.0308 661.895 Q64.9272 665.81 64.9272 672.685 Q64.9272 675.549 64.3543 678.669 Q63.8132 681.756 62.6992 685.193 L56.6518 685.193 Q58.3387 681.947 59.198 678.796 Q60.0256 675.645 60.0256 672.558 Q60.0256 668.42 58.6251 666.192 Q57.1929 663.964 54.6147 663.964 Q52.2276 663.964 50.9545 665.587 Q49.6813 667.178 48.5037 672.621 L48.0262 674.658 Q46.8804 680.101 44.5251 682.52 Q42.138 684.939 38.0002 684.939 Q32.9713 684.939 30.2341 681.374 Q27.4968 677.809 27.4968 671.253 Q27.4968 668.006 27.9743 665.141 Q28.4517 662.277 29.4065 659.858 Z" fill="#000000" fill-rule="evenodd" fill-opacity="1" /><circle clip-path="url(#clip683)" cx="309.067" cy="658.771" r="14.4" fill="#009af9" fill-rule="evenodd" fill-opacity="1" stroke="#000000" stroke-opacity="1" stroke-width="3.2"/>
<circle clip-path="url(#clip683)" cx="705.9" cy="658.771" r="14.4" fill="#009af9" fill-rule="evenodd" fill-opacity="1" stroke="#000000" stroke-opacity="1" stroke-width="3.2"/>
<circle clip-path="url(#clip683)" cx="1102.73" cy="658.771" r="14.4" fill="#009af9" fill-rule="evenodd" fill-opacity="1" stroke="#000000" stroke-opacity="1" stroke-width="3.2"/>
<circle clip-path="url(#clip683)" cx="1499.57" cy="658.771" r="14.4" fill="#009af9" fill-rule="evenodd" fill-opacity="1" stroke="#000000" stroke-opacity="1" stroke-width="3.2"/>
<circle clip-path="url(#clip683)" cx="1896.4" cy="658.771" r="14.4" fill="#009af9" fill-rule="evenodd" fill-opacity="1" stroke="#000000" stroke-opacity="1" stroke-width="3.2"/>
<circle clip-path="url(#clip683)" cx="2293.23" cy="658.771" r="14.4" fill="#009af9" fill-rule="evenodd" fill-opacity="1" stroke="#000000" stroke-opacity="1" stroke-width="3.2"/>
<polyline clip-path="url(#clip683)" style="stroke:#009af9; stroke-linecap:butt; stroke-linejoin:round; stroke-width:4; stroke-opacity:1; fill:none" points="
  309.067,1423.18 309.067,658.771 
  "/>
<polyline clip-path="url(#clip683)" style="stroke:#009af9; stroke-linecap:butt; stroke-linejoin:round; stroke-width:4; stroke-opacity:1; fill:none" points="
  705.9,1423.18 705.9,658.771 
  "/>
<polyline clip-path="url(#clip683)" style="stroke:#009af9; stroke-linecap:butt; stroke-linejoin:round; stroke-width:4; stroke-opacity:1; fill:none" points="
  1102.73,1423.18 1102.73,658.771 
  "/>
<polyline clip-path="url(#clip683)" style="stroke:#009af9; stroke-linecap:butt; stroke-linejoin:round; stroke-width:4; stroke-opacity:1; fill:none" points="
  1499.57,1423.18 1499.57,658.771 
  "/>
<polyline clip-path="url(#clip683)" style="stroke:#009af9; stroke-linecap:butt; stroke-linejoin:round; stroke-width:4; stroke-opacity:1; fill:none" points="
  1896.4,1423.18 1896.4,658.771 
  "/>
<polyline clip-path="url(#clip683)" style="stroke:#009af9; stroke-linecap:butt; stroke-linejoin:round; stroke-width:4; stroke-opacity:1; fill:none" points="
  2293.23,1423.18 2293.23,658.771 
  "/>
<path clip-path="url(#clip680)" d="
M1760.33 196.789 L2282.65 196.789 L2282.65 93.1086 L1760.33 93.1086  Z
  " fill="#ffffff" fill-rule="evenodd" fill-opacity="1"/>
<polyline clip-path="url(#clip680)" style="stroke:#000000; stroke-linecap:butt; stroke-linejoin:round; stroke-width:4; stroke-opacity:1; fill:none" points="
  1760.33,196.789 2282.65,196.789 2282.65,93.1086 1760.33,93.1086 1760.33,196.789 
  "/>
<circle clip-path="url(#clip680)" cx="1853.8" cy="144.949" r="23.04" fill="#009af9" fill-rule="evenodd" fill-opacity="1" stroke="#000000" stroke-opacity="1" stroke-width="5.12"/>
<path clip-path="url(#clip680)" d="M1959.62 143.085 Q1956.47 143.085 1954.62 145.238 Q1952.79 147.391 1952.79 151.141 Q1952.79 154.868 1954.62 157.043 Q1956.47 159.196 1959.62 159.196 Q1962.76 159.196 1964.59 157.043 Q1966.44 154.868 1966.44 151.141 Q1966.44 147.391 1964.59 145.238 Q1962.76 143.085 1959.62 143.085 M1968.9 128.433 L1968.9 132.692 Q1967.14 131.858 1965.33 131.419 Q1963.55 130.979 1961.79 130.979 Q1957.16 130.979 1954.71 134.104 Q1952.28 137.229 1951.93 143.548 Q1953.3 141.534 1955.36 140.469 Q1957.42 139.382 1959.89 139.382 Q1965.1 139.382 1968.11 142.553 Q1971.14 145.701 1971.14 151.141 Q1971.14 156.465 1968 159.682 Q1964.85 162.9 1959.62 162.9 Q1953.62 162.9 1950.45 158.317 Q1947.28 153.71 1947.28 144.983 Q1947.28 136.789 1951.17 131.928 Q1955.06 127.044 1961.61 127.044 Q1963.37 127.044 1965.15 127.391 Q1966.95 127.738 1968.9 128.433 Z" fill="#000000" fill-rule="evenodd" fill-opacity="1" /><path clip-path="url(#clip680)" d="M1976.44 147.344 L1988.92 147.344 L1988.92 151.141 L1976.44 151.141 L1976.44 147.344 Z" fill="#000000" fill-rule="evenodd" fill-opacity="1" /><path clip-path="url(#clip680)" d="M2012.23 137.067 L2012.23 141.094 Q2010.43 140.169 2008.48 139.706 Q2006.54 139.243 2004.45 139.243 Q2001.28 139.243 1999.69 140.215 Q1998.11 141.187 1998.11 143.131 Q1998.11 144.613 1999.25 145.469 Q2000.38 146.303 2003.81 147.067 L2005.26 147.391 Q2009.8 148.363 2011.7 150.145 Q2013.62 151.905 2013.62 155.076 Q2013.62 158.687 2010.75 160.793 Q2007.9 162.9 2002.9 162.9 Q2000.82 162.9 1998.55 162.483 Q1996.31 162.09 1993.81 161.28 L1993.81 156.881 Q1996.17 158.108 1998.46 158.733 Q2000.75 159.335 2003 159.335 Q2006 159.335 2007.62 158.317 Q2009.25 157.275 2009.25 155.4 Q2009.25 153.664 2008.06 152.738 Q2006.91 151.812 2002.95 150.956 L2001.47 150.608 Q1997.51 149.775 1995.75 148.062 Q1993.99 146.326 1993.99 143.317 Q1993.99 139.659 1996.58 137.669 Q1999.18 135.678 2003.94 135.678 Q2006.31 135.678 2008.39 136.025 Q2010.47 136.372 2012.23 137.067 Z" fill="#000000" fill-rule="evenodd" fill-opacity="1" /><path clip-path="url(#clip680)" d="M2020.4 136.303 L2024.66 136.303 L2024.66 162.229 L2020.4 162.229 L2020.4 136.303 M2020.4 126.21 L2024.66 126.21 L2024.66 131.604 L2020.4 131.604 L2020.4 126.21 Z" fill="#000000" fill-rule="evenodd" fill-opacity="1" /><path clip-path="url(#clip680)" d="M2050.63 140.238 L2050.63 126.21 L2054.89 126.21 L2054.89 162.229 L2050.63 162.229 L2050.63 158.34 Q2049.29 160.655 2047.23 161.789 Q2045.19 162.9 2042.32 162.9 Q2037.62 162.9 2034.66 159.15 Q2031.72 155.4 2031.72 149.289 Q2031.72 143.178 2034.66 139.428 Q2037.62 135.678 2042.32 135.678 Q2045.19 135.678 2047.23 136.812 Q2049.29 137.923 2050.63 140.238 M2036.12 149.289 Q2036.12 153.988 2038.04 156.673 Q2039.99 159.335 2043.37 159.335 Q2046.75 159.335 2048.69 156.673 Q2050.63 153.988 2050.63 149.289 Q2050.63 144.59 2048.69 141.928 Q2046.75 139.243 2043.37 139.243 Q2039.99 139.243 2038.04 141.928 Q2036.12 144.59 2036.12 149.289 Z" fill="#000000" fill-rule="evenodd" fill-opacity="1" /><path clip-path="url(#clip680)" d="M2085.84 148.201 L2085.84 150.284 L2066.26 150.284 Q2066.54 154.682 2068.9 156.997 Q2071.28 159.289 2075.52 159.289 Q2077.97 159.289 2080.26 158.687 Q2082.58 158.085 2084.85 156.881 L2084.85 160.909 Q2082.56 161.881 2080.15 162.391 Q2077.74 162.9 2075.26 162.9 Q2069.06 162.9 2065.43 159.289 Q2061.81 155.678 2061.81 149.52 Q2061.81 143.155 2065.24 139.428 Q2068.69 135.678 2074.52 135.678 Q2079.75 135.678 2082.79 139.057 Q2085.84 142.414 2085.84 148.201 M2081.58 146.951 Q2081.54 143.456 2079.62 141.372 Q2077.72 139.289 2074.57 139.289 Q2071 139.289 2068.85 141.303 Q2066.72 143.317 2066.4 146.974 L2081.58 146.951 Z" fill="#000000" fill-rule="evenodd" fill-opacity="1" /><path clip-path="url(#clip680)" d="M2109.89 140.238 L2109.89 126.21 L2114.15 126.21 L2114.15 162.229 L2109.89 162.229 L2109.89 158.34 Q2108.55 160.655 2106.49 161.789 Q2104.45 162.9 2101.58 162.9 Q2096.88 162.9 2093.92 159.15 Q2090.98 155.4 2090.98 149.289 Q2090.98 143.178 2093.92 139.428 Q2096.88 135.678 2101.58 135.678 Q2104.45 135.678 2106.49 136.812 Q2108.55 137.923 2109.89 140.238 M2095.38 149.289 Q2095.38 153.988 2097.3 156.673 Q2099.24 159.335 2102.62 159.335 Q2106 159.335 2107.95 156.673 Q2109.89 153.988 2109.89 149.289 Q2109.89 144.59 2107.95 141.928 Q2106 139.243 2102.62 139.243 Q2099.24 139.243 2097.3 141.928 Q2095.38 144.59 2095.38 149.289 Z" fill="#000000" fill-rule="evenodd" fill-opacity="1" /><path clip-path="url(#clip680)" d="M2142.86 131.511 L2142.86 158.386 L2148.5 158.386 Q2155.66 158.386 2158.97 155.145 Q2162.3 151.905 2162.3 144.914 Q2162.3 137.969 2158.97 134.752 Q2155.66 131.511 2148.5 131.511 L2142.86 131.511 M2138.18 127.669 L2147.79 127.669 Q2157.83 127.669 2162.53 131.858 Q2167.23 136.025 2167.23 144.914 Q2167.23 153.849 2162.51 158.039 Q2157.79 162.229 2147.79 162.229 L2138.18 162.229 L2138.18 127.669 Z" fill="#000000" fill-rule="evenodd" fill-opacity="1" /><path clip-path="url(#clip680)" d="M2174.5 136.303 L2178.76 136.303 L2178.76 162.229 L2174.5 162.229 L2174.5 136.303 M2174.5 126.21 L2178.76 126.21 L2178.76 131.604 L2174.5 131.604 L2174.5 126.21 Z" fill="#000000" fill-rule="evenodd" fill-opacity="1" /><path clip-path="url(#clip680)" d="M2206.33 137.298 L2206.33 141.28 Q2204.52 140.284 2202.69 139.798 Q2200.89 139.289 2199.04 139.289 Q2194.89 139.289 2192.6 141.928 Q2190.31 144.544 2190.31 149.289 Q2190.31 154.034 2192.6 156.673 Q2194.89 159.289 2199.04 159.289 Q2200.89 159.289 2202.69 158.803 Q2204.52 158.293 2206.33 157.298 L2206.33 161.233 Q2204.55 162.067 2202.62 162.483 Q2200.73 162.9 2198.57 162.9 Q2192.72 162.9 2189.27 159.219 Q2185.82 155.539 2185.82 149.289 Q2185.82 142.946 2189.29 139.312 Q2192.79 135.678 2198.85 135.678 Q2200.82 135.678 2202.69 136.095 Q2204.57 136.488 2206.33 137.298 Z" fill="#000000" fill-rule="evenodd" fill-opacity="1" /><path clip-path="url(#clip680)" d="M2235.91 148.201 L2235.91 150.284 L2216.33 150.284 Q2216.61 154.682 2218.97 156.997 Q2221.35 159.289 2225.59 159.289 Q2228.04 159.289 2230.33 158.687 Q2232.65 158.085 2234.92 156.881 L2234.92 160.909 Q2232.62 161.881 2230.22 162.391 Q2227.81 162.9 2225.33 162.9 Q2219.13 162.9 2215.49 159.289 Q2211.88 155.678 2211.88 149.52 Q2211.88 143.155 2215.31 139.428 Q2218.76 135.678 2224.59 135.678 Q2229.82 135.678 2232.86 139.057 Q2235.91 142.414 2235.91 148.201 M2231.65 146.951 Q2231.61 143.456 2229.68 141.372 Q2227.79 139.289 2224.64 139.289 Q2221.07 139.289 2218.92 141.303 Q2216.79 143.317 2216.47 146.974 L2231.65 146.951 Z" fill="#000000" fill-rule="evenodd" fill-opacity="1" /></svg>
