<?xml version="1.0" encoding="utf-8"?>
<svg xmlns="http://www.w3.org/2000/svg" xmlns:xlink="http://www.w3.org/1999/xlink" width="600" height="400" viewBox="0 0 2400 1600">
<defs>
  <clipPath id="clip890">
    <rect x="0" y="0" width="2400" height="1600"/>
  </clipPath>
</defs>
<path clip-path="url(#clip890)" d="
M0 1600 L2400 1600 L2400 0 L0 0  Z
  " fill="#ffffff" fill-rule="evenodd" fill-opacity="1"/>
<defs>
  <clipPath id="clip891">
    <rect x="480" y="0" width="1681" height="1600"/>
  </clipPath>
</defs>
<defs>
  <clipPath id="clip892">
    <rect x="219" y="47" width="2134" height="1377"/>
  </clipPath>
</defs>
<path clip-path="url(#clip890)" d="
M219.38 1423.18 L2352.76 1423.18 L2352.76 47.2441 L219.38 47.2441  Z
  " fill="#ffffff" fill-rule="evenodd" fill-opacity="1"/>
<polyline clip-path="url(#clip892)" style="stroke:#000000; stroke-linecap:butt; stroke-linejoin:round; stroke-width:2; stroke-opacity:0.1; fill:none" points="
  219.38,1423.18 219.38,47.2441 
  "/>
<polyline clip-path="url(#clip892)" style="stroke:#000000; stroke-linecap:butt; stroke-linejoin:round; stroke-width:2; stroke-opacity:0.1; fill:none" points="
  693.464,1423.18 693.464,47.2441 
  "/>
<polyline clip-path="url(#clip892)" style="stroke:#000000; stroke-linecap:butt; stroke-linejoin:round; stroke-width:2; stroke-opacity:0.1; fill:none" points="
  1167.55,1423.18 1167.55,47.2441 
  "/>
<polyline clip-path="url(#clip892)" style="stroke:#000000; stroke-linecap:butt; stroke-linejoin:round; stroke-width:2; stroke-opacity:0.1; fill:none" points="
  1641.63,1423.18 1641.63,47.2441 
  "/>
<polyline clip-path="url(#clip892)" style="stroke:#000000; stroke-linecap:butt; stroke-linejoin:round; stroke-width:2; stroke-opacity:0.1; fill:none" points="
  2115.71,1423.18 2115.71,47.2441 
  "/>
<polyline clip-path="url(#clip890)" style="stroke:#000000; stroke-linecap:butt; stroke-linejoin:round; stroke-width:4; stroke-opacity:1; fill:none" points="
  219.38,1423.18 2352.76,1423.18 
  "/>
<polyline clip-path="url(#clip890)" style="stroke:#000000; stroke-linecap:butt; stroke-linejoin:round; stroke-width:4; stroke-opacity:1; fill:none" points="
  219.38,1423.18 219.38,1404.28 
  "/>
<polyline clip-path="url(#clip890)" style="stroke:#000000; stroke-linecap:butt; stroke-linejoin:round; stroke-width:4; stroke-opacity:1; fill:none" points="
  693.464,1423.18 693.464,1404.28 
  "/>
<polyline clip-path="url(#clip890)" style="stroke:#000000; stroke-linecap:butt; stroke-linejoin:round; stroke-width:4; stroke-opacity:1; fill:none" points="
  1167.55,1423.18 1167.55,1404.28 
  "/>
<polyline clip-path="url(#clip890)" style="stroke:#000000; stroke-linecap:butt; stroke-linejoin:round; stroke-width:4; stroke-opacity:1; fill:none" points="
  1641.63,1423.18 1641.63,1404.28 
  "/>
<polyline clip-path="url(#clip890)" style="stroke:#000000; stroke-linecap:butt; stroke-linejoin:round; stroke-width:4; stroke-opacity:1; fill:none" points="
  2115.71,1423.18 2115.71,1404.28 
  "/>
<path clip-path="url(#clip890)" d="M219.38 1454.1 Q215.769 1454.1 213.94 1457.66 Q212.135 1461.2 212.135 1468.33 Q212.135 1475.44 213.94 1479.01 Q215.769 1482.55 219.38 1482.55 Q223.014 1482.55 224.82 1479.01 Q226.649 1475.44 226.649 1468.33 Q226.649 1461.2 224.82 1457.66 Q223.014 1454.1 219.38 1454.1 M219.38 1450.39 Q225.19 1450.39 228.246 1455 Q231.325 1459.58 231.325 1468.33 Q231.325 1477.06 228.246 1481.67 Q225.19 1486.25 219.38 1486.25 Q213.57 1486.25 210.491 1481.67 Q207.436 1477.06 207.436 1468.33 Q207.436 1459.58 210.491 1455 Q213.57 1450.39 219.38 1450.39 Z" fill="#000000" fill-rule="evenodd" fill-opacity="1" /><path clip-path="url(#clip890)" d="M683.846 1481.64 L691.485 1481.64 L691.485 1455.28 L683.174 1456.95 L683.174 1452.69 L691.438 1451.02 L696.114 1451.02 L696.114 1481.64 L703.753 1481.64 L703.753 1485.58 L683.846 1485.58 L683.846 1481.64 Z" fill="#000000" fill-rule="evenodd" fill-opacity="1" /><path clip-path="url(#clip890)" d="M1162.2 1481.64 L1178.52 1481.64 L1178.52 1485.58 L1156.57 1485.58 L1156.57 1481.64 Q1159.24 1478.89 1163.82 1474.26 Q1168.43 1469.61 1169.61 1468.27 Q1171.85 1465.74 1172.73 1464.01 Q1173.64 1462.25 1173.64 1460.56 Q1173.64 1457.8 1171.69 1456.07 Q1169.77 1454.33 1166.67 1454.33 Q1164.47 1454.33 1162.01 1455.09 Q1159.58 1455.86 1156.81 1457.41 L1156.81 1452.69 Q1159.63 1451.55 1162.08 1450.97 Q1164.54 1450.39 1166.57 1450.39 Q1171.95 1450.39 1175.14 1453.08 Q1178.33 1455.77 1178.33 1460.26 Q1178.33 1462.39 1177.52 1464.31 Q1176.74 1466.2 1174.63 1468.8 Q1174.05 1469.47 1170.95 1472.69 Q1167.85 1475.88 1162.2 1481.64 Z" fill="#000000" fill-rule="evenodd" fill-opacity="1" /><path clip-path="url(#clip890)" d="M1645.88 1466.95 Q1649.23 1467.66 1651.11 1469.93 Q1653.01 1472.2 1653.01 1475.53 Q1653.01 1480.65 1649.49 1483.45 Q1645.97 1486.25 1639.49 1486.25 Q1637.31 1486.25 1635 1485.81 Q1632.71 1485.39 1630.25 1484.54 L1630.25 1480.02 Q1632.2 1481.16 1634.51 1481.74 Q1636.83 1482.32 1639.35 1482.32 Q1643.75 1482.32 1646.04 1480.58 Q1648.36 1478.84 1648.36 1475.53 Q1648.36 1472.48 1646.2 1470.77 Q1644.07 1469.03 1640.25 1469.03 L1636.23 1469.03 L1636.23 1465.19 L1640.44 1465.19 Q1643.89 1465.19 1645.72 1463.82 Q1647.54 1462.43 1647.54 1459.84 Q1647.54 1457.18 1645.65 1455.77 Q1643.77 1454.33 1640.25 1454.33 Q1638.33 1454.33 1636.13 1454.75 Q1633.93 1455.16 1631.3 1456.04 L1631.3 1451.88 Q1633.96 1451.14 1636.27 1450.77 Q1638.61 1450.39 1640.67 1450.39 Q1645.99 1450.39 1649.1 1452.83 Q1652.2 1455.23 1652.2 1459.35 Q1652.2 1462.22 1650.55 1464.21 Q1648.91 1466.18 1645.88 1466.95 Z" fill="#000000" fill-rule="evenodd" fill-opacity="1" /><path clip-path="url(#clip890)" d="M2118.72 1455.09 L2106.92 1473.54 L2118.72 1473.54 L2118.72 1455.09 M2117.5 1451.02 L2123.38 1451.02 L2123.38 1473.54 L2128.31 1473.54 L2128.31 1477.43 L2123.38 1477.43 L2123.38 1485.58 L2118.72 1485.58 L2118.72 1477.43 L2103.12 1477.43 L2103.12 1472.92 L2117.5 1451.02 Z" fill="#000000" fill-rule="evenodd" fill-opacity="1" /><path clip-path="url(#clip890)" d="M1298 1529.22 Q1298 1534.63 1296.26 1540.71 Q1294.56 1546.77 1291.85 1551.66 Q1289.15 1556.53 1285.6 1559.75 Q1282.06 1562.94 1278.68 1562.94 Q1276.52 1562.94 1274.91 1561.75 Q1273.33 1560.52 1272.46 1558.49 Q1271.59 1556.43 1271.18 1554.18 Q1270.76 1551.89 1270.76 1549.41 Q1270.76 1545.71 1271.56 1541.68 Q1272.37 1537.62 1273.72 1533.95 Q1275.07 1530.25 1276.97 1526.9 Q1278.87 1523.52 1280.97 1521.07 Q1283.09 1518.59 1285.47 1517.14 Q1287.86 1515.69 1290.08 1515.69 Q1291.69 1515.69 1292.98 1516.4 Q1294.3 1517.08 1295.14 1518.27 Q1295.97 1519.43 1296.55 1520.81 Q1297.17 1522.2 1297.46 1523.81 Q1297.75 1525.38 1297.87 1526.71 Q1298 1527.99 1298 1529.22 M1293.66 1525.13 Q1293.66 1523.48 1293.53 1522.26 Q1293.4 1521 1293.04 1519.75 Q1292.69 1518.49 1291.92 1517.82 Q1291.18 1517.14 1290.02 1517.14 Q1286.63 1517.14 1282.83 1524.06 Q1281.61 1526.22 1280.52 1529.15 Q1279.42 1532.08 1279.03 1533.47 Q1278.65 1534.85 1277.75 1538.27 L1291.53 1538.27 Q1293.66 1529.47 1293.66 1525.13 M1290.95 1540.36 L1277.23 1540.36 Q1275.1 1548.41 1275.1 1553.44 Q1275.1 1557.82 1276.01 1559.65 Q1276.94 1561.46 1278.68 1561.46 Q1280.68 1561.46 1282.54 1559.46 Q1284.41 1557.43 1286.31 1553.76 Q1288.82 1548.99 1290.95 1540.36 Z" fill="#000000" fill-rule="evenodd" fill-opacity="1" /><polyline clip-path="url(#clip892)" style="stroke:#000000; stroke-linecap:butt; stroke-linejoin:round; stroke-width:2; stroke-opacity:0.1; fill:none" points="
  219.38,1384.28 2352.76,1384.28 
  "/>
<polyline clip-path="url(#clip892)" style="stroke:#000000; stroke-linecap:butt; stroke-linejoin:round; stroke-width:2; stroke-opacity:0.1; fill:none" points="
  219.38,1059.76 2352.76,1059.76 
  "/>
<polyline clip-path="url(#clip892)" style="stroke:#000000; stroke-linecap:butt; stroke-linejoin:round; stroke-width:2; stroke-opacity:0.1; fill:none" points="
  219.38,735.234 2352.76,735.234 
  "/>
<polyline clip-path="url(#clip892)" style="stroke:#000000; stroke-linecap:butt; stroke-linejoin:round; stroke-width:2; stroke-opacity:0.1; fill:none" points="
  219.38,410.71 2352.76,410.71 
  "/>
<polyline clip-path="url(#clip892)" style="stroke:#000000; stroke-linecap:butt; stroke-linejoin:round; stroke-width:2; stroke-opacity:0.1; fill:none" points="
  219.38,86.1857 2352.76,86.1857 
  "/>
<polyline clip-path="url(#clip890)" style="stroke:#000000; stroke-linecap:butt; stroke-linejoin:round; stroke-width:4; stroke-opacity:1; fill:none" points="
  219.38,1423.18 219.38,47.2441 
  "/>
<polyline clip-path="url(#clip890)" style="stroke:#000000; stroke-linecap:butt; stroke-linejoin:round; stroke-width:4; stroke-opacity:1; fill:none" points="
  219.38,1384.28 238.278,1384.28 
  "/>
<polyline clip-path="url(#clip890)" style="stroke:#000000; stroke-linecap:butt; stroke-linejoin:round; stroke-width:4; stroke-opacity:1; fill:none" points="
  219.38,1059.76 238.278,1059.76 
  "/>
<polyline clip-path="url(#clip890)" style="stroke:#000000; stroke-linecap:butt; stroke-linejoin:round; stroke-width:4; stroke-opacity:1; fill:none" points="
  219.38,735.234 238.278,735.234 
  "/>
<polyline clip-path="url(#clip890)" style="stroke:#000000; stroke-linecap:butt; stroke-linejoin:round; stroke-width:4; stroke-opacity:1; fill:none" points="
  219.38,410.71 238.278,410.71 
  "/>
<polyline clip-path="url(#clip890)" style="stroke:#000000; stroke-linecap:butt; stroke-linejoin:round; stroke-width:4; stroke-opacity:1; fill:none" points="
  219.38,86.1857 238.278,86.1857 
  "/>
<path clip-path="url(#clip890)" d="M126.205 1370.08 Q122.593 1370.08 120.765 1373.65 Q118.959 1377.19 118.959 1384.32 Q118.959 1391.42 120.765 1394.99 Q122.593 1398.53 126.205 1398.53 Q129.839 1398.53 131.644 1394.99 Q133.473 1391.42 133.473 1384.32 Q133.473 1377.19 131.644 1373.65 Q129.839 1370.08 126.205 1370.08 M126.205 1366.38 Q132.015 1366.38 135.07 1370.98 Q138.149 1375.57 138.149 1384.32 Q138.149 1393.04 135.07 1397.65 Q132.015 1402.23 126.205 1402.23 Q120.394 1402.23 117.316 1397.65 Q114.26 1393.04 114.26 1384.32 Q114.26 1375.57 117.316 1370.98 Q120.394 1366.38 126.205 1366.38 Z" fill="#000000" fill-rule="evenodd" fill-opacity="1" /><path clip-path="url(#clip890)" d="M146.366 1395.68 L151.251 1395.68 L151.251 1401.56 L146.366 1401.56 L146.366 1395.68 Z" fill="#000000" fill-rule="evenodd" fill-opacity="1" /><path clip-path="url(#clip890)" d="M171.436 1370.08 Q167.825 1370.08 165.996 1373.65 Q164.19 1377.19 164.19 1384.32 Q164.19 1391.42 165.996 1394.99 Q167.825 1398.53 171.436 1398.53 Q175.07 1398.53 176.876 1394.99 Q178.704 1391.42 178.704 1384.32 Q178.704 1377.19 176.876 1373.65 Q175.07 1370.08 171.436 1370.08 M171.436 1366.38 Q177.246 1366.38 180.301 1370.98 Q183.38 1375.57 183.38 1384.32 Q183.38 1393.04 180.301 1397.65 Q177.246 1402.23 171.436 1402.23 Q165.626 1402.23 162.547 1397.65 Q159.491 1393.04 159.491 1384.32 Q159.491 1375.57 162.547 1370.98 Q165.626 1366.38 171.436 1366.38 Z" fill="#000000" fill-rule="evenodd" fill-opacity="1" /><path clip-path="url(#clip890)" d="M127.2 1045.56 Q123.589 1045.56 121.76 1049.12 Q119.955 1052.66 119.955 1059.79 Q119.955 1066.9 121.76 1070.46 Q123.589 1074.01 127.2 1074.01 Q130.834 1074.01 132.64 1070.46 Q134.468 1066.9 134.468 1059.79 Q134.468 1052.66 132.64 1049.12 Q130.834 1045.56 127.2 1045.56 M127.2 1041.85 Q133.01 1041.85 136.066 1046.46 Q139.144 1051.04 139.144 1059.79 Q139.144 1068.52 136.066 1073.13 Q133.01 1077.71 127.2 1077.71 Q121.39 1077.71 118.311 1073.13 Q115.256 1068.52 115.256 1059.79 Q115.256 1051.04 118.311 1046.46 Q121.39 1041.85 127.2 1041.85 Z" fill="#000000" fill-rule="evenodd" fill-opacity="1" /><path clip-path="url(#clip890)" d="M147.362 1071.16 L152.246 1071.16 L152.246 1077.04 L147.362 1077.04 L147.362 1071.16 Z" fill="#000000" fill-rule="evenodd" fill-opacity="1" /><path clip-path="url(#clip890)" d="M162.477 1042.48 L180.834 1042.48 L180.834 1046.41 L166.76 1046.41 L166.76 1054.88 Q167.778 1054.54 168.797 1054.38 Q169.815 1054.19 170.834 1054.19 Q176.621 1054.19 180.001 1057.36 Q183.38 1060.53 183.38 1065.95 Q183.38 1071.53 179.908 1074.63 Q176.436 1077.71 170.116 1077.71 Q167.94 1077.71 165.672 1077.34 Q163.427 1076.97 161.019 1076.23 L161.019 1071.53 Q163.102 1072.66 165.325 1073.22 Q167.547 1073.77 170.024 1073.77 Q174.028 1073.77 176.366 1071.67 Q178.704 1069.56 178.704 1065.95 Q178.704 1062.34 176.366 1060.23 Q174.028 1058.13 170.024 1058.13 Q168.149 1058.13 166.274 1058.54 Q164.422 1058.96 162.477 1059.84 L162.477 1042.48 Z" fill="#000000" fill-rule="evenodd" fill-opacity="1" /><path clip-path="url(#clip890)" d="M117.015 748.578 L124.654 748.578 L124.654 722.213 L116.343 723.879 L116.343 719.62 L124.607 717.954 L129.283 717.954 L129.283 748.578 L136.922 748.578 L136.922 752.514 L117.015 752.514 L117.015 748.578 Z" fill="#000000" fill-rule="evenodd" fill-opacity="1" /><path clip-path="url(#clip890)" d="M146.366 746.634 L151.251 746.634 L151.251 752.514 L146.366 752.514 L146.366 746.634 Z" fill="#000000" fill-rule="evenodd" fill-opacity="1" /><path clip-path="url(#clip890)" d="M171.436 721.032 Q167.825 721.032 165.996 724.597 Q164.19 728.139 164.19 735.268 Q164.19 742.375 165.996 745.94 Q167.825 749.481 171.436 749.481 Q175.07 749.481 176.876 745.94 Q178.704 742.375 178.704 735.268 Q178.704 728.139 176.876 724.597 Q175.07 721.032 171.436 721.032 M171.436 717.329 Q177.246 717.329 180.301 721.935 Q183.38 726.518 183.38 735.268 Q183.38 743.995 180.301 748.602 Q177.246 753.185 171.436 753.185 Q165.626 753.185 162.547 748.602 Q159.491 743.995 159.491 735.268 Q159.491 726.518 162.547 721.935 Q165.626 717.329 171.436 717.329 Z" fill="#000000" fill-rule="evenodd" fill-opacity="1" /><path clip-path="url(#clip890)" d="M118.01 424.054 L125.649 424.054 L125.649 397.689 L117.339 399.356 L117.339 395.096 L125.603 393.43 L130.279 393.43 L130.279 424.054 L137.917 424.054 L137.917 427.99 L118.01 427.99 L118.01 424.054 Z" fill="#000000" fill-rule="evenodd" fill-opacity="1" /><path clip-path="url(#clip890)" d="M147.362 422.11 L152.246 422.11 L152.246 427.99 L147.362 427.99 L147.362 422.11 Z" fill="#000000" fill-rule="evenodd" fill-opacity="1" /><path clip-path="url(#clip890)" d="M162.477 393.43 L180.834 393.43 L180.834 397.365 L166.76 397.365 L166.76 405.837 Q167.778 405.49 168.797 405.328 Q169.815 405.143 170.834 405.143 Q176.621 405.143 180.001 408.314 Q183.38 411.485 183.38 416.902 Q183.38 422.48 179.908 425.582 Q176.436 428.661 170.116 428.661 Q167.94 428.661 165.672 428.291 Q163.427 427.92 161.019 427.179 L161.019 422.48 Q163.102 423.615 165.325 424.17 Q167.547 424.726 170.024 424.726 Q174.028 424.726 176.366 422.619 Q178.704 420.513 178.704 416.902 Q178.704 413.291 176.366 411.184 Q174.028 409.078 170.024 409.078 Q168.149 409.078 166.274 409.494 Q164.422 409.911 162.477 410.791 L162.477 393.43 Z" fill="#000000" fill-rule="evenodd" fill-opacity="1" /><path clip-path="url(#clip890)" d="M120.232 99.5305 L136.552 99.5305 L136.552 103.466 L114.607 103.466 L114.607 99.5305 Q117.269 96.7759 121.853 92.1463 Q126.459 87.4935 127.64 86.151 Q129.885 83.6278 130.765 81.8917 Q131.667 80.1325 131.667 78.4427 Q131.667 75.688 129.723 73.9519 Q127.802 72.2158 124.7 72.2158 Q122.501 72.2158 120.047 72.9797 Q117.617 73.7436 114.839 75.2945 L114.839 70.5723 Q117.663 69.4381 120.117 68.8594 Q122.57 68.2807 124.607 68.2807 Q129.978 68.2807 133.172 70.9658 Q136.367 73.651 136.367 78.1417 Q136.367 80.2714 135.556 82.1926 Q134.769 84.0908 132.663 86.6834 Q132.084 87.3546 128.982 90.5722 Q125.88 93.7667 120.232 99.5305 Z" fill="#000000" fill-rule="evenodd" fill-opacity="1" /><path clip-path="url(#clip890)" d="M146.366 97.5861 L151.251 97.5861 L151.251 103.466 L146.366 103.466 L146.366 97.5861 Z" fill="#000000" fill-rule="evenodd" fill-opacity="1" /><path clip-path="url(#clip890)" d="M171.436 71.9844 Q167.825 71.9844 165.996 75.5492 Q164.19 79.0908 164.19 86.2204 Q164.19 93.3268 165.996 96.8916 Q167.825 100.433 171.436 100.433 Q175.07 100.433 176.876 96.8916 Q178.704 93.3268 178.704 86.2204 Q178.704 79.0908 176.876 75.5492 Q175.07 71.9844 171.436 71.9844 M171.436 68.2807 Q177.246 68.2807 180.301 72.8871 Q183.38 77.4704 183.38 86.2204 Q183.38 94.9472 180.301 99.5537 Q177.246 104.137 171.436 104.137 Q165.626 104.137 162.547 99.5537 Q159.491 94.9472 159.491 86.2204 Q159.491 77.4704 162.547 72.8871 Q165.626 68.2807 171.436 68.2807 Z" fill="#000000" fill-rule="evenodd" fill-opacity="1" /><path clip-path="url(#clip890)" d="M21.7677 848.522 L58.7206 848.522 L58.7206 840.755 Q58.7206 830.92 54.2646 826.369 Q49.8086 821.786 40.1964 821.786 Q30.6479 821.786 26.2237 826.369 Q21.7677 830.92 21.7677 840.755 L21.7677 848.522 M16.4842 854.951 L16.4842 841.742 Q16.4842 827.928 22.2451 821.467 Q27.9743 815.006 40.1964 815.006 Q52.4822 815.006 58.2432 821.499 Q64.0042 827.992 64.0042 841.742 L64.0042 854.951 L16.4842 854.951 Z" fill="#000000" fill-rule="evenodd" fill-opacity="1" /><path clip-path="url(#clip890)" d="M44.7161 774.52 L47.5806 774.52 L47.5806 801.447 Q53.6281 801.065 56.8109 797.819 Q59.9619 794.54 59.9619 788.716 Q59.9619 785.342 59.1344 782.191 Q58.3069 779.008 56.6518 775.889 L62.1899 775.889 Q63.5267 779.04 64.227 782.35 Q64.9272 785.66 64.9272 789.066 Q64.9272 797.596 59.9619 802.593 Q54.9967 807.558 46.5303 807.558 Q37.7774 807.558 32.6531 802.848 Q27.4968 798.105 27.4968 790.084 Q27.4968 782.891 32.1438 778.722 Q36.7589 774.52 44.7161 774.52 M42.9973 780.377 Q38.1912 780.44 35.3266 783.082 Q32.4621 785.692 32.4621 790.021 Q32.4621 794.922 35.2312 797.882 Q38.0002 800.811 43.0292 801.256 L42.9973 780.377 Z" fill="#000000" fill-rule="evenodd" fill-opacity="1" /><path clip-path="url(#clip890)" d="M42.4881 735.276 L64.0042 735.276 L64.0042 741.132 L42.679 741.132 Q37.6183 741.132 35.1038 743.105 Q32.5894 745.079 32.5894 749.026 Q32.5894 753.768 35.6131 756.505 Q38.6368 759.243 43.8567 759.243 L64.0042 759.243 L64.0042 765.131 L28.3562 765.131 L28.3562 759.243 L33.8944 759.243 Q30.6797 757.142 29.0883 754.309 Q27.4968 751.445 27.4968 747.721 Q27.4968 741.578 31.3163 738.427 Q35.1038 735.276 42.4881 735.276 Z" fill="#000000" fill-rule="evenodd" fill-opacity="1" /><path clip-path="url(#clip890)" d="M29.4065 700.869 L34.9447 700.869 Q33.6716 703.352 33.035 706.025 Q32.3984 708.699 32.3984 711.563 Q32.3984 715.924 33.7352 718.12 Q35.072 720.284 37.7456 720.284 Q39.7826 720.284 40.9603 718.725 Q42.1061 717.165 43.1565 712.455 L43.6021 710.449 Q44.9389 704.211 47.3897 701.601 Q49.8086 698.959 54.1691 698.959 Q59.1344 698.959 62.0308 702.906 Q64.9272 706.821 64.9272 713.696 Q64.9272 716.56 64.3543 719.68 Q63.8132 722.767 62.6992 726.204 L56.6518 726.204 Q58.3387 722.958 59.198 719.807 Q60.0256 716.656 60.0256 713.569 Q60.0256 709.431 58.6251 707.203 Q57.1929 704.975 54.6147 704.975 Q52.2276 704.975 50.9545 706.598 Q49.6813 708.19 48.5037 713.632 L48.0262 715.669 Q46.8804 721.112 44.5251 723.531 Q42.138 725.95 38.0002 725.95 Q32.9713 725.95 30.2341 722.385 Q27.4968 718.82 27.4968 712.264 Q27.4968 709.017 27.9743 706.153 Q28.4517 703.288 29.4065 700.869 Z" fill="#000000" fill-rule="evenodd" fill-opacity="1" /><path clip-path="url(#clip890)" d="M28.3562 689.634 L28.3562 683.777 L64.0042 683.777 L64.0042 689.634 L28.3562 689.634 M14.479 689.634 L14.479 683.777 L21.895 683.777 L21.895 689.634 L14.479 689.634 Z" fill="#000000" fill-rule="evenodd" fill-opacity="1" /><path clip-path="url(#clip890)" d="M18.2347 665.73 L28.3562 665.73 L28.3562 653.667 L32.9077 653.667 L32.9077 665.73 L52.2594 665.73 Q56.6199 665.73 57.8613 664.553 Q59.1026 663.343 59.1026 659.683 L59.1026 653.667 L64.0042 653.667 L64.0042 659.683 Q64.0042 666.462 61.4897 669.04 Q58.9434 671.619 52.2594 671.619 L32.9077 671.619 L32.9077 675.915 L28.3562 675.915 L28.3562 671.619 L18.2347 671.619 L18.2347 665.73 Z" fill="#000000" fill-rule="evenodd" fill-opacity="1" /><path clip-path="url(#clip890)" d="M67.3143 631.133 Q73.68 633.615 75.6216 635.971 Q77.5631 638.326 77.5631 642.273 L77.5631 646.951 L72.6615 646.951 L72.6615 643.514 Q72.6615 641.095 71.5157 639.758 Q70.3699 638.421 66.1048 636.798 L63.4312 635.748 L28.3562 650.166 L28.3562 643.96 L56.238 632.82 L28.3562 621.68 L28.3562 615.473 L67.3143 631.133 Z" fill="#000000" fill-rule="evenodd" fill-opacity="1" /><polyline clip-path="url(#clip892)" style="stroke:#009af9; stroke-linecap:butt; stroke-linejoin:round; stroke-width:20; stroke-opacity:1; fill:none" points="
  219.38,735.234 226.487,744.891 233.594,754.405 240.701,763.777 247.808,773.009 264.237,793.829 280.666,813.94 297.094,833.366 313.523,852.13 329.952,870.255 
  346.38,887.763 362.809,904.674 379.238,921.01 395.666,936.789 412.095,952.03 428.524,966.753 444.952,980.974 461.381,994.711 477.81,1007.98 494.238,1020.8 
  510.667,1033.18 530.413,1047.5 550.159,1061.24 569.905,1074.42 589.651,1087.06 609.397,1099.18 629.143,1110.81 648.888,1121.97 668.634,1132.67 702.024,1149.78 
  735.414,1165.73 768.804,1180.59 802.194,1194.45 838.464,1208.43 874.735,1221.38 911.006,1233.38 947.277,1244.49 980.715,1254.01 1014.15,1262.88 1047.59,1271.15 
  1081.03,1278.86 1116.88,1286.53 1152.73,1293.65 1188.58,1300.25 1224.43,1306.37 1265.96,1312.91 1307.5,1318.9 1349.03,1324.38 1390.57,1329.41 1464.39,1337.32 
  1538.21,1344.09 1602.95,1349.22 1667.69,1353.7 1738.27,1357.93 1808.85,1361.57 1879.85,1364.73 1950.85,1367.45 2107.84,1372.19 2257.22,1375.46 2412.54,1377.93 
  2543.29,1379.46 2702.91,1380.84 2849.14,1381.75 2984.19,1382.38 3121,1382.86 3274.32,1383.25 3413.25,1383.51 3572.32,1383.73 3719.6,1383.88 3864.8,1383.98 
  4005.78,1384.06 4150.3,1384.12 4308.65,1384.17 4538.66,1384.21 4585.85,1384.22 
  "/>
<polyline clip-path="url(#clip892)" style="stroke:#e26f46; stroke-linecap:butt; stroke-linejoin:round; stroke-width:20; stroke-opacity:1; fill:none" points="
  219.38,86.1857 222.934,105.5 226.487,124.528 230.041,143.272 233.594,161.737 241.809,203.377 250.023,243.599 258.237,282.45 266.452,319.979 274.666,356.229 
  282.88,391.244 291.095,425.067 299.309,457.738 307.523,489.296 315.738,519.779 323.952,549.224 332.166,577.666 340.381,605.14 348.595,631.677 356.809,657.311 
  365.024,682.072 374.897,710.718 384.77,738.197 394.643,764.554 404.515,789.836 414.388,814.086 424.261,837.347 434.134,859.66 444.007,881.062 460.702,915.284 
  477.397,947.18 494.092,976.906 510.787,1004.61 528.922,1032.57 547.058,1058.48 565.193,1082.48 583.328,1104.7 600.048,1123.74 616.767,1141.49 633.486,1158.02 
  650.205,1173.43 668.13,1188.79 686.055,1203.03 703.979,1216.23 721.904,1228.47 742.672,1241.54 763.439,1253.51 784.207,1264.48 804.974,1274.53 841.886,1290.36 
  878.797,1303.9 911.165,1314.16 943.534,1323.11 978.823,1331.57 1014.11,1338.86 1049.61,1345.18 1085.11,1350.62 1163.61,1360.11 1238.3,1366.64 1315.96,1371.57 
  1381.33,1374.63 1461.15,1377.39 1534.26,1379.22 1601.79,1380.47 1670.19,1381.43 1746.85,1382.22 1816.31,1382.74 1895.85,1383.18 1969.49,1383.47 2042.09,1383.69 
  2112.58,1383.84 2184.84,1383.96 2264.01,1384.05 2379.02,1384.14 2402.62,1384.15 
  "/>
<polyline clip-path="url(#clip892)" style="stroke:#3da44d; stroke-linecap:butt; stroke-linejoin:round; stroke-width:20; stroke-opacity:1; fill:none" points="
  219.38,951.583 230.041,958.021 240.701,964.364 251.362,970.612 262.022,976.767 286.665,990.647 311.308,1004.05 335.951,1017 360.594,1029.51 385.237,1041.6 
  409.88,1053.27 434.523,1064.54 459.166,1075.43 483.81,1085.95 508.453,1096.11 533.096,1105.93 557.739,1115.41 582.382,1124.57 607.025,1133.41 631.668,1141.96 
  656.311,1150.21 685.93,1159.76 715.548,1168.92 745.167,1177.71 774.786,1186.13 804.405,1194.22 834.024,1201.97 863.643,1209.41 893.262,1216.54 943.346,1227.95 
  993.431,1238.58 1043.52,1248.49 1093.6,1257.72 1148.01,1267.05 1202.41,1275.68 1256.82,1283.68 1311.22,1291.09 1361.38,1297.44 1411.54,1303.35 1461.7,1308.86 
  1511.85,1314 1565.63,1319.12 1619.4,1323.86 1673.18,1328.26 1726.95,1332.34 1789.25,1336.7 1851.56,1340.69 1913.86,1344.35 1976.16,1347.7 2086.9,1352.97 
  2197.63,1357.49 2294.74,1360.91 2391.84,1363.89 2497.71,1366.71 2603.58,1369.14 2710.08,1371.25 2816.58,1373.06 3052.07,1376.22 3276.14,1378.4 3509.12,1380.04 
  3705.24,1381.07 3944.68,1381.98 4164.02,1382.59 4366.6,1383.01 4571.81,1383.33 4801.79,1383.59 5010.18,1383.77 5248.78,1383.91 5469.71,1384.01 5687.51,1384.08 
  5898.98,1384.13 6115.77,1384.17 6353.28,1384.2 6698.3,1384.23 6769.09,1384.24 
  "/>
<path clip-path="url(#clip890)" d="
M1892.68 300.469 L2281.64 300.469 L2281.64 93.1086 L1892.68 93.1086  Z
  " fill="#ffffff" fill-rule="evenodd" fill-opacity="1"/>
<polyline clip-path="url(#clip890)" style="stroke:#000000; stroke-linecap:butt; stroke-linejoin:round; stroke-width:4; stroke-opacity:1; fill:none" points="
  1892.68,300.469 2281.64,300.469 2281.64,93.1086 1892.68,93.1086 1892.68,300.469 
  "/>
<polyline clip-path="url(#clip890)" style="stroke:#009af9; stroke-linecap:butt; stroke-linejoin:round; stroke-width:4; stroke-opacity:1; fill:none" points="
  1916.38,144.949 2058.61,144.949 
  "/>
<path clip-path="url(#clip890)" d="M2106.04 161.16 Q2106.04 161.605 2105.52 161.651 L2104.47 161.651 Q2103.39 161.651 2102.92 161.487 Q2102.46 161.323 2101.92 160.574 Q2101.59 160.106 2100.77 157.927 Q2099.97 155.726 2098.8 152.4 Q2097.65 149.074 2096.88 147.106 L2085.33 160.738 Q2084.54 161.745 2083.74 161.745 Q2083.16 161.745 2082.73 161.347 Q2082.31 160.949 2082.31 160.34 Q2082.31 159.895 2082.48 159.637 Q2082.66 159.379 2083.16 158.864 L2096.41 145.724 L2091.75 132.678 Q2090.86 130.265 2090.35 129.656 Q2089.85 129.047 2088.64 128.837 Q2088.19 128.719 2088.19 128.345 Q2088.19 127.829 2089.06 127.829 Q2093.7 127.829 2094.91 131.226 L2104.7 158.513 Q2105.24 160.082 2105.8 160.738 Q2106.04 161.042 2106.04 161.16 Z" fill="#000000" fill-rule="evenodd" fill-opacity="1" /><path clip-path="url(#clip890)" d="M2123.29 153.828 Q2123.33 153.243 2124.25 153.243 L2153.64 153.243 Q2155.02 153.243 2155.05 153.781 Q2155.05 154.367 2153.74 154.344 L2124.57 154.344 Q2123.29 154.367 2123.29 153.828 M2123.29 144.459 Q2123.29 143.874 2124.29 143.897 L2153.59 143.897 Q2155.02 143.897 2155.05 144.459 Q2155.05 144.998 2153.83 144.998 L2124.25 144.998 Q2123.29 144.998 2123.29 144.459 Z" fill="#000000" fill-rule="evenodd" fill-opacity="1" /><path clip-path="url(#clip890)" d="M2173.54 133.732 L2173.54 132.233 Q2179.3 132.233 2182.27 129.164 Q2183.09 129.164 2183.23 129.352 Q2183.38 129.539 2183.38 130.406 L2183.38 157.318 Q2183.38 158.747 2184.08 159.192 Q2184.78 159.637 2187.85 159.637 L2189.37 159.637 L2189.37 161.113 Q2187.69 160.972 2181.6 160.972 Q2175.51 160.972 2173.84 161.113 L2173.84 159.637 L2175.36 159.637 Q2178.39 159.637 2179.11 159.215 Q2179.84 158.77 2179.84 157.318 L2179.84 132.467 Q2177.33 133.732 2173.54 133.732 Z" fill="#000000" fill-rule="evenodd" fill-opacity="1" /><polyline clip-path="url(#clip890)" style="stroke:#e26f46; stroke-linecap:butt; stroke-linejoin:round; stroke-width:4; stroke-opacity:1; fill:none" points="
  1916.38,196.789 2058.61,196.789 
  "/>
<path clip-path="url(#clip890)" d="M2106.04 212.789 Q2106.04 213.234 2105.52 213.28 L2104.47 213.28 Q2103.39 213.28 2102.92 213.117 Q2102.46 212.953 2101.92 212.203 Q2101.59 211.735 2100.77 209.556 Q2099.97 207.355 2098.8 204.029 Q2097.65 200.703 2096.88 198.735 L2085.33 212.367 Q2084.54 213.374 2083.74 213.374 Q2083.16 213.374 2082.73 212.976 Q2082.31 212.578 2082.31 211.969 Q2082.31 211.524 2082.48 211.266 Q2082.66 211.008 2083.16 210.493 L2096.41 197.353 L2091.75 184.307 Q2090.86 181.894 2090.35 181.285 Q2089.85 180.676 2088.64 180.466 Q2088.19 180.349 2088.19 179.974 Q2088.19 179.458 2089.06 179.458 Q2093.7 179.458 2094.91 182.855 L2104.7 210.142 Q2105.24 211.711 2105.8 212.367 Q2106.04 212.671 2106.04 212.789 Z" fill="#000000" fill-rule="evenodd" fill-opacity="1" /><path clip-path="url(#clip890)" d="M2123.29 205.457 Q2123.33 204.872 2124.25 204.872 L2153.64 204.872 Q2155.02 204.872 2155.05 205.411 Q2155.05 205.996 2153.74 205.973 L2124.57 205.973 Q2123.29 205.996 2123.29 205.457 M2123.29 196.088 Q2123.29 195.503 2124.29 195.526 L2153.59 195.526 Q2155.02 195.526 2155.05 196.088 Q2155.05 196.627 2153.83 196.627 L2124.25 196.627 Q2123.29 196.627 2123.29 196.088 Z" fill="#000000" fill-rule="evenodd" fill-opacity="1" /><path clip-path="url(#clip890)" d="M2173.54 197.4 Q2173.54 190.35 2175.32 186.509 Q2177.8 180.794 2183.66 180.794 Q2184.9 180.794 2186.19 181.145 Q2187.5 181.473 2189.14 182.761 Q2190.8 184.049 2191.81 186.157 Q2193.73 190.233 2193.73 197.4 Q2193.73 204.403 2191.95 208.221 Q2189.35 213.796 2183.61 213.796 Q2181.45 213.796 2179.25 212.695 Q2177.07 211.594 2175.69 208.947 Q2173.54 204.989 2173.54 197.4 M2177.52 196.814 Q2177.52 204.052 2178.04 206.933 Q2178.62 210.048 2180.21 211.407 Q2181.83 212.742 2183.61 212.742 Q2185.53 212.742 2187.12 211.313 Q2188.74 209.861 2189.23 206.746 Q2189.77 203.677 2189.75 196.814 Q2189.75 190.139 2189.28 187.469 Q2188.65 184.354 2186.96 183.112 Q2185.3 181.848 2183.61 181.848 Q2182.98 181.848 2182.3 182.035 Q2181.64 182.222 2180.68 182.761 Q2179.72 183.3 2178.97 184.635 Q2178.25 185.97 2177.89 187.984 Q2177.52 190.584 2177.52 196.814 Z" fill="#000000" fill-rule="evenodd" fill-opacity="1" /><path clip-path="url(#clip890)" d="M2198.01 211.969 Q2197.29 211.196 2197.29 210.189 Q2197.29 209.182 2198.01 208.455 Q2198.74 207.706 2199.84 207.706 Q2200.9 207.706 2201.6 208.409 Q2202.32 209.088 2202.32 210.212 Q2202.32 211.313 2201.55 212.039 Q2200.8 212.742 2199.84 212.742 Q2198.74 212.742 2198.01 211.969 Z" fill="#000000" fill-rule="evenodd" fill-opacity="1" /><path clip-path="url(#clip890)" d="M2210.49 205.012 Q2210.49 203.584 2211.26 203.045 Q2212.03 202.483 2212.85 202.483 Q2213.95 202.483 2214.58 203.185 Q2215.24 203.865 2215.24 204.825 Q2215.24 205.785 2214.58 206.488 Q2213.95 207.167 2212.85 207.167 Q2212.31 207.167 2212.03 207.074 Q2212.66 209.275 2214.58 210.868 Q2216.53 212.461 2219.08 212.461 Q2222.29 212.461 2224.21 209.345 Q2225.36 207.331 2225.36 202.764 Q2225.36 198.735 2224.49 196.721 Q2223.16 193.652 2220.42 193.652 Q2216.53 193.652 2214.23 197.002 Q2213.95 197.423 2213.62 197.447 Q2213.16 197.447 2213.04 197.189 Q2212.94 196.908 2212.94 196.182 L2212.94 181.988 Q2212.94 180.84 2213.41 180.84 Q2213.6 180.84 2214 180.981 Q2217.02 182.316 2220.37 182.339 Q2223.81 182.339 2226.9 180.934 Q2227.14 180.794 2227.28 180.794 Q2227.75 180.794 2227.77 181.332 Q2227.77 181.52 2227.37 182.082 Q2227 182.62 2226.18 183.347 Q2225.36 184.049 2224.3 184.729 Q2223.25 185.408 2221.7 185.876 Q2220.18 186.321 2218.5 186.321 Q2216.48 186.321 2214.42 185.689 L2214.42 195.034 Q2216.9 192.598 2220.51 192.598 Q2224.35 192.598 2227 195.69 Q2229.64 198.782 2229.64 203.092 Q2229.64 207.612 2226.51 210.704 Q2223.39 213.796 2219.17 213.796 Q2215.33 213.796 2212.9 211.055 Q2210.49 208.315 2210.49 205.012 Z" fill="#000000" fill-rule="evenodd" fill-opacity="1" /><polyline clip-path="url(#clip890)" style="stroke:#3da44d; stroke-linecap:butt; stroke-linejoin:round; stroke-width:4; stroke-opacity:1; fill:none" points="
  1916.38,248.629 2058.61,248.629 
  "/>
<path clip-path="url(#clip890)" d="M2106.04 264.84 Q2106.04 265.285 2105.52 265.331 L2104.47 265.331 Q2103.39 265.331 2102.92 265.167 Q2102.46 265.003 2101.92 264.254 Q2101.59 263.786 2100.77 261.607 Q2099.97 259.406 2098.8 256.08 Q2097.65 252.754 2096.88 250.786 L2085.33 264.418 Q2084.54 265.425 2083.74 265.425 Q2083.16 265.425 2082.73 265.027 Q2082.31 264.629 2082.31 264.02 Q2082.31 263.575 2082.48 263.317 Q2082.66 263.059 2083.16 262.544 L2096.41 249.404 L2091.75 236.358 Q2090.86 233.945 2090.35 233.336 Q2089.85 232.727 2088.64 232.517 Q2088.19 232.399 2088.19 232.025 Q2088.19 231.509 2089.06 231.509 Q2093.7 231.509 2094.91 234.906 L2104.7 262.193 Q2105.24 263.762 2105.8 264.418 Q2106.04 264.722 2106.04 264.84 Z" fill="#000000" fill-rule="evenodd" fill-opacity="1" /><path clip-path="url(#clip890)" d="M2123.29 257.508 Q2123.33 256.923 2124.25 256.923 L2153.64 256.923 Q2155.02 256.923 2155.05 257.461 Q2155.05 258.047 2153.74 258.024 L2124.57 258.024 Q2123.29 258.047 2123.29 257.508 M2123.29 248.139 Q2123.29 247.554 2124.29 247.577 L2153.59 247.577 Q2155.02 247.577 2155.05 248.139 Q2155.05 248.678 2153.83 248.678 L2124.25 248.678 Q2123.29 248.678 2123.29 248.139 Z" fill="#000000" fill-rule="evenodd" fill-opacity="1" /><path clip-path="url(#clip890)" d="M2173.54 264.793 Q2173.54 263.926 2173.61 263.668 Q2173.7 263.411 2174.08 263.013 L2183.28 252.754 Q2188.32 247.085 2188.32 242.143 Q2188.32 238.934 2186.63 236.639 Q2184.97 234.344 2181.9 234.344 Q2179.79 234.344 2178.01 235.632 Q2176.23 236.92 2175.41 239.215 Q2175.55 239.169 2176.04 239.169 Q2177.24 239.169 2177.89 239.918 Q2178.57 240.668 2178.57 241.675 Q2178.57 242.963 2177.73 243.595 Q2176.91 244.204 2176.09 244.204 Q2175.76 244.204 2175.32 244.134 Q2174.9 244.064 2174.22 243.408 Q2173.54 242.729 2173.54 241.534 Q2173.54 238.185 2176.07 235.515 Q2178.62 232.844 2182.51 232.844 Q2186.91 232.844 2189.79 235.468 Q2192.7 238.068 2192.7 242.143 Q2192.7 243.572 2192.25 244.884 Q2191.83 246.172 2191.25 247.179 Q2190.68 248.186 2189.14 249.802 Q2187.59 251.418 2186.35 252.566 Q2185.11 253.714 2182.32 256.15 L2177.24 261.092 L2185.88 261.092 Q2190.1 261.092 2190.43 260.717 Q2190.89 260.038 2191.48 256.454 L2192.7 256.454 L2191.34 264.793 L2173.54 264.793 Z" fill="#000000" fill-rule="evenodd" fill-opacity="1" /></svg>
