<?xml version="1.0" encoding="utf-8"?>
<svg xmlns="http://www.w3.org/2000/svg" xmlns:xlink="http://www.w3.org/1999/xlink" width="600" height="400" viewBox="0 0 2400 1600">
<defs>
  <clipPath id="clip860">
    <rect x="0" y="0" width="2400" height="1600"/>
  </clipPath>
</defs>
<path clip-path="url(#clip860)" d="
M0 1600 L2400 1600 L2400 0 L0 0  Z
  " fill="#ffffff" fill-rule="evenodd" fill-opacity="1"/>
<defs>
  <clipPath id="clip861">
    <rect x="480" y="0" width="1681" height="1600"/>
  </clipPath>
</defs>
<defs>
  <clipPath id="clip862">
    <rect x="219" y="47" width="2134" height="1377"/>
  </clipPath>
</defs>
<path clip-path="url(#clip860)" d="
M219.38 1423.18 L2352.76 1423.18 L2352.76 47.2441 L219.38 47.2441  Z
  " fill="#ffffff" fill-rule="evenodd" fill-opacity="1"/>
<polyline clip-path="url(#clip862)" style="stroke:#000000; stroke-linecap:butt; stroke-linejoin:round; stroke-width:2; stroke-opacity:0.1; fill:none" points="
  219.38,1423.18 219.38,47.2441 
  "/>
<polyline clip-path="url(#clip862)" style="stroke:#000000; stroke-linecap:butt; stroke-linejoin:round; stroke-width:2; stroke-opacity:0.1; fill:none" points="
  930.505,1423.18 930.505,47.2441 
  "/>
<polyline clip-path="url(#clip862)" style="stroke:#000000; stroke-linecap:butt; stroke-linejoin:round; stroke-width:2; stroke-opacity:0.1; fill:none" points="
  1641.63,1423.18 1641.63,47.2441 
  "/>
<polyline clip-path="url(#clip862)" style="stroke:#000000; stroke-linecap:butt; stroke-linejoin:round; stroke-width:2; stroke-opacity:0.1; fill:none" points="
  2352.76,1423.18 2352.76,47.2441 
  "/>
<polyline clip-path="url(#clip860)" style="stroke:#000000; stroke-linecap:butt; stroke-linejoin:round; stroke-width:4; stroke-opacity:1; fill:none" points="
  219.38,1423.18 2352.76,1423.18 
  "/>
<polyline clip-path="url(#clip860)" style="stroke:#000000; stroke-linecap:butt; stroke-linejoin:round; stroke-width:4; stroke-opacity:1; fill:none" points="
  219.38,1423.18 219.38,1404.28 
  "/>
<polyline clip-path="url(#clip860)" style="stroke:#000000; stroke-linecap:butt; stroke-linejoin:round; stroke-width:4; stroke-opacity:1; fill:none" points="
  930.505,1423.18 930.505,1404.28 
  "/>
<polyline clip-path="url(#clip860)" style="stroke:#000000; stroke-linecap:butt; stroke-linejoin:round; stroke-width:4; stroke-opacity:1; fill:none" points="
  1641.63,1423.18 1641.63,1404.28 
  "/>
<polyline clip-path="url(#clip860)" style="stroke:#000000; stroke-linecap:butt; stroke-linejoin:round; stroke-width:4; stroke-opacity:1; fill:none" points="
  2352.76,1423.18 2352.76,1404.28 
  "/>
<path clip-path="url(#clip860)" d="M219.38 1454.1 Q215.769 1454.1 213.94 1457.66 Q212.135 1461.2 212.135 1468.33 Q212.135 1475.44 213.94 1479.01 Q215.769 1482.55 219.38 1482.55 Q223.014 1482.55 224.82 1479.01 Q226.649 1475.44 226.649 1468.33 Q226.649 1461.2 224.82 1457.66 Q223.014 1454.1 219.38 1454.1 M219.38 1450.39 Q225.19 1450.39 228.246 1455 Q231.325 1459.58 231.325 1468.33 Q231.325 1477.06 228.246 1481.67 Q225.19 1486.25 219.38 1486.25 Q213.57 1486.25 210.491 1481.67 Q207.436 1477.06 207.436 1468.33 Q207.436 1459.58 210.491 1455 Q213.57 1450.39 219.38 1450.39 Z" fill="#000000" fill-rule="evenodd" fill-opacity="1" /><path clip-path="url(#clip860)" d="M920.887 1481.64 L928.526 1481.64 L928.526 1455.28 L920.216 1456.95 L920.216 1452.69 L928.48 1451.02 L933.156 1451.02 L933.156 1481.64 L940.795 1481.64 L940.795 1485.58 L920.887 1485.58 L920.887 1481.64 Z" fill="#000000" fill-rule="evenodd" fill-opacity="1" /><path clip-path="url(#clip860)" d="M1636.28 1481.64 L1652.6 1481.64 L1652.6 1485.58 L1630.66 1485.58 L1630.66 1481.64 Q1633.32 1478.89 1637.9 1474.26 Q1642.51 1469.61 1643.69 1468.27 Q1645.94 1465.74 1646.82 1464.01 Q1647.72 1462.25 1647.72 1460.56 Q1647.72 1457.8 1645.77 1456.07 Q1643.85 1454.33 1640.75 1454.33 Q1638.55 1454.33 1636.1 1455.09 Q1633.67 1455.86 1630.89 1457.41 L1630.89 1452.69 Q1633.71 1451.55 1636.17 1450.97 Q1638.62 1450.39 1640.66 1450.39 Q1646.03 1450.39 1649.22 1453.08 Q1652.42 1455.77 1652.42 1460.26 Q1652.42 1462.39 1651.61 1464.31 Q1650.82 1466.2 1648.71 1468.8 Q1648.14 1469.47 1645.03 1472.69 Q1641.93 1475.88 1636.28 1481.64 Z" fill="#000000" fill-rule="evenodd" fill-opacity="1" /><path clip-path="url(#clip860)" d="M2357 1466.95 Q2360.36 1467.66 2362.24 1469.93 Q2364.13 1472.2 2364.13 1475.53 Q2364.13 1480.65 2360.61 1483.45 Q2357.1 1486.25 2350.61 1486.25 Q2348.44 1486.25 2346.12 1485.81 Q2343.83 1485.39 2341.38 1484.54 L2341.38 1480.02 Q2343.32 1481.16 2345.64 1481.74 Q2347.95 1482.32 2350.48 1482.32 Q2354.87 1482.32 2357.17 1480.58 Q2359.48 1478.84 2359.48 1475.53 Q2359.48 1472.48 2357.33 1470.77 Q2355.2 1469.03 2351.38 1469.03 L2347.35 1469.03 L2347.35 1465.19 L2351.56 1465.19 Q2355.01 1465.19 2356.84 1463.82 Q2358.67 1462.43 2358.67 1459.84 Q2358.67 1457.18 2356.77 1455.77 Q2354.9 1454.33 2351.38 1454.33 Q2349.46 1454.33 2347.26 1454.75 Q2345.06 1455.16 2342.42 1456.04 L2342.42 1451.88 Q2345.08 1451.14 2347.4 1450.77 Q2349.74 1450.39 2351.8 1450.39 Q2357.12 1450.39 2360.22 1452.83 Q2363.32 1455.23 2363.32 1459.35 Q2363.32 1462.22 2361.68 1464.21 Q2360.04 1466.18 2357 1466.95 Z" fill="#000000" fill-rule="evenodd" fill-opacity="1" /><path clip-path="url(#clip860)" d="M1298 1529.22 Q1298 1534.63 1296.26 1540.71 Q1294.56 1546.77 1291.85 1551.66 Q1289.15 1556.53 1285.6 1559.75 Q1282.06 1562.94 1278.68 1562.94 Q1276.52 1562.94 1274.91 1561.75 Q1273.33 1560.52 1272.46 1558.49 Q1271.59 1556.43 1271.18 1554.18 Q1270.76 1551.89 1270.76 1549.41 Q1270.76 1545.71 1271.56 1541.68 Q1272.37 1537.62 1273.72 1533.95 Q1275.07 1530.25 1276.97 1526.9 Q1278.87 1523.52 1280.97 1521.07 Q1283.09 1518.59 1285.47 1517.14 Q1287.86 1515.69 1290.08 1515.69 Q1291.69 1515.69 1292.98 1516.4 Q1294.3 1517.08 1295.14 1518.27 Q1295.97 1519.43 1296.55 1520.81 Q1297.17 1522.2 1297.46 1523.81 Q1297.75 1525.38 1297.87 1526.71 Q1298 1527.99 1298 1529.22 M1293.66 1525.13 Q1293.66 1523.48 1293.53 1522.26 Q1293.4 1521 1293.04 1519.75 Q1292.69 1518.49 1291.92 1517.82 Q1291.18 1517.14 1290.02 1517.14 Q1286.63 1517.14 1282.83 1524.06 Q1281.61 1526.22 1280.52 1529.15 Q1279.42 1532.08 1279.03 1533.47 Q1278.65 1534.85 1277.75 1538.27 L1291.53 1538.27 Q1293.66 1529.47 1293.66 1525.13 M1290.95 1540.36 L1277.23 1540.36 Q1275.1 1548.41 1275.1 1553.44 Q1275.1 1557.82 1276.01 1559.65 Q1276.94 1561.46 1278.68 1561.46 Q1280.68 1561.46 1282.54 1559.46 Q1284.41 1557.43 1286.31 1553.76 Q1288.82 1548.99 1290.95 1540.36 Z" fill="#000000" fill-rule="evenodd" fill-opacity="1" /><polyline clip-path="url(#clip862)" style="stroke:#000000; stroke-linecap:butt; stroke-linejoin:round; stroke-width:2; stroke-opacity:0.1; fill:none" points="
  219.38,1384.24 2352.76,1384.24 
  "/>
<polyline clip-path="url(#clip862)" style="stroke:#000000; stroke-linecap:butt; stroke-linejoin:round; stroke-width:2; stroke-opacity:0.1; fill:none" points="
  219.38,989.99 2352.76,989.99 
  "/>
<polyline clip-path="url(#clip862)" style="stroke:#000000; stroke-linecap:butt; stroke-linejoin:round; stroke-width:2; stroke-opacity:0.1; fill:none" points="
  219.38,595.741 2352.76,595.741 
  "/>
<polyline clip-path="url(#clip862)" style="stroke:#000000; stroke-linecap:butt; stroke-linejoin:round; stroke-width:2; stroke-opacity:0.1; fill:none" points="
  219.38,201.492 2352.76,201.492 
  "/>
<polyline clip-path="url(#clip860)" style="stroke:#000000; stroke-linecap:butt; stroke-linejoin:round; stroke-width:4; stroke-opacity:1; fill:none" points="
  219.38,1423.18 219.38,47.2441 
  "/>
<polyline clip-path="url(#clip860)" style="stroke:#000000; stroke-linecap:butt; stroke-linejoin:round; stroke-width:4; stroke-opacity:1; fill:none" points="
  219.38,1384.24 238.278,1384.24 
  "/>
<polyline clip-path="url(#clip860)" style="stroke:#000000; stroke-linecap:butt; stroke-linejoin:round; stroke-width:4; stroke-opacity:1; fill:none" points="
  219.38,989.99 238.278,989.99 
  "/>
<polyline clip-path="url(#clip860)" style="stroke:#000000; stroke-linecap:butt; stroke-linejoin:round; stroke-width:4; stroke-opacity:1; fill:none" points="
  219.38,595.741 238.278,595.741 
  "/>
<polyline clip-path="url(#clip860)" style="stroke:#000000; stroke-linecap:butt; stroke-linejoin:round; stroke-width:4; stroke-opacity:1; fill:none" points="
  219.38,201.492 238.278,201.492 
  "/>
<path clip-path="url(#clip860)" d="M126.205 1370.04 Q122.593 1370.04 120.765 1373.6 Q118.959 1377.14 118.959 1384.27 Q118.959 1391.38 120.765 1394.94 Q122.593 1398.49 126.205 1398.49 Q129.839 1398.49 131.644 1394.94 Q133.473 1391.38 133.473 1384.27 Q133.473 1377.14 131.644 1373.6 Q129.839 1370.04 126.205 1370.04 M126.205 1366.33 Q132.015 1366.33 135.07 1370.94 Q138.149 1375.52 138.149 1384.27 Q138.149 1393 135.07 1397.61 Q132.015 1402.19 126.205 1402.19 Q120.394 1402.19 117.316 1397.61 Q114.26 1393 114.26 1384.27 Q114.26 1375.52 117.316 1370.94 Q120.394 1366.33 126.205 1366.33 Z" fill="#000000" fill-rule="evenodd" fill-opacity="1" /><path clip-path="url(#clip860)" d="M146.366 1395.64 L151.251 1395.64 L151.251 1401.52 L146.366 1401.52 L146.366 1395.64 Z" fill="#000000" fill-rule="evenodd" fill-opacity="1" /><path clip-path="url(#clip860)" d="M171.436 1370.04 Q167.825 1370.04 165.996 1373.6 Q164.19 1377.14 164.19 1384.27 Q164.19 1391.38 165.996 1394.94 Q167.825 1398.49 171.436 1398.49 Q175.07 1398.49 176.876 1394.94 Q178.704 1391.38 178.704 1384.27 Q178.704 1377.14 176.876 1373.6 Q175.07 1370.04 171.436 1370.04 M171.436 1366.33 Q177.246 1366.33 180.301 1370.94 Q183.38 1375.52 183.38 1384.27 Q183.38 1393 180.301 1397.61 Q177.246 1402.19 171.436 1402.19 Q165.626 1402.19 162.547 1397.61 Q159.491 1393 159.491 1384.27 Q159.491 1375.52 162.547 1370.94 Q165.626 1366.33 171.436 1366.33 Z" fill="#000000" fill-rule="evenodd" fill-opacity="1" /><path clip-path="url(#clip860)" d="M127.2 975.788 Q123.589 975.788 121.76 979.353 Q119.955 982.895 119.955 990.024 Q119.955 997.131 121.76 1000.7 Q123.589 1004.24 127.2 1004.24 Q130.834 1004.24 132.64 1000.7 Q134.468 997.131 134.468 990.024 Q134.468 982.895 132.64 979.353 Q130.834 975.788 127.2 975.788 M127.2 972.085 Q133.01 972.085 136.066 976.691 Q139.144 981.274 139.144 990.024 Q139.144 998.751 136.066 1003.36 Q133.01 1007.94 127.2 1007.94 Q121.39 1007.94 118.311 1003.36 Q115.256 998.751 115.256 990.024 Q115.256 981.274 118.311 976.691 Q121.39 972.085 127.2 972.085 Z" fill="#000000" fill-rule="evenodd" fill-opacity="1" /><path clip-path="url(#clip860)" d="M147.362 1001.39 L152.246 1001.39 L152.246 1007.27 L147.362 1007.27 L147.362 1001.39 Z" fill="#000000" fill-rule="evenodd" fill-opacity="1" /><path clip-path="url(#clip860)" d="M162.477 972.71 L180.834 972.71 L180.834 976.645 L166.76 976.645 L166.76 985.117 Q167.778 984.77 168.797 984.608 Q169.815 984.422 170.834 984.422 Q176.621 984.422 180.001 987.594 Q183.38 990.765 183.38 996.182 Q183.38 1001.76 179.908 1004.86 Q176.436 1007.94 170.116 1007.94 Q167.94 1007.94 165.672 1007.57 Q163.427 1007.2 161.019 1006.46 L161.019 1001.76 Q163.102 1002.89 165.325 1003.45 Q167.547 1004.01 170.024 1004.01 Q174.028 1004.01 176.366 1001.9 Q178.704 999.793 178.704 996.182 Q178.704 992.571 176.366 990.464 Q174.028 988.358 170.024 988.358 Q168.149 988.358 166.274 988.774 Q164.422 989.191 162.477 990.071 L162.477 972.71 Z" fill="#000000" fill-rule="evenodd" fill-opacity="1" /><path clip-path="url(#clip860)" d="M117.015 609.086 L124.654 609.086 L124.654 582.72 L116.343 584.387 L116.343 580.127 L124.607 578.461 L129.283 578.461 L129.283 609.086 L136.922 609.086 L136.922 613.021 L117.015 613.021 L117.015 609.086 Z" fill="#000000" fill-rule="evenodd" fill-opacity="1" /><path clip-path="url(#clip860)" d="M146.366 607.141 L151.251 607.141 L151.251 613.021 L146.366 613.021 L146.366 607.141 Z" fill="#000000" fill-rule="evenodd" fill-opacity="1" /><path clip-path="url(#clip860)" d="M171.436 581.539 Q167.825 581.539 165.996 585.104 Q164.19 588.646 164.19 595.775 Q164.19 602.882 165.996 606.447 Q167.825 609.988 171.436 609.988 Q175.07 609.988 176.876 606.447 Q178.704 602.882 178.704 595.775 Q178.704 588.646 176.876 585.104 Q175.07 581.539 171.436 581.539 M171.436 577.836 Q177.246 577.836 180.301 582.442 Q183.38 587.026 183.38 595.775 Q183.38 604.502 180.301 609.109 Q177.246 613.692 171.436 613.692 Q165.626 613.692 162.547 609.109 Q159.491 604.502 159.491 595.775 Q159.491 587.026 162.547 582.442 Q165.626 577.836 171.436 577.836 Z" fill="#000000" fill-rule="evenodd" fill-opacity="1" /><path clip-path="url(#clip860)" d="M118.01 214.837 L125.649 214.837 L125.649 188.471 L117.339 190.138 L117.339 185.879 L125.603 184.212 L130.279 184.212 L130.279 214.837 L137.917 214.837 L137.917 218.772 L118.01 218.772 L118.01 214.837 Z" fill="#000000" fill-rule="evenodd" fill-opacity="1" /><path clip-path="url(#clip860)" d="M147.362 212.892 L152.246 212.892 L152.246 218.772 L147.362 218.772 L147.362 212.892 Z" fill="#000000" fill-rule="evenodd" fill-opacity="1" /><path clip-path="url(#clip860)" d="M162.477 184.212 L180.834 184.212 L180.834 188.147 L166.76 188.147 L166.76 196.619 Q167.778 196.272 168.797 196.11 Q169.815 195.925 170.834 195.925 Q176.621 195.925 180.001 199.096 Q183.38 202.267 183.38 207.684 Q183.38 213.263 179.908 216.365 Q176.436 219.443 170.116 219.443 Q167.94 219.443 165.672 219.073 Q163.427 218.703 161.019 217.962 L161.019 213.263 Q163.102 214.397 165.325 214.953 Q167.547 215.508 170.024 215.508 Q174.028 215.508 176.366 213.402 Q178.704 211.295 178.704 207.684 Q178.704 204.073 176.366 201.967 Q174.028 199.86 170.024 199.86 Q168.149 199.86 166.274 200.277 Q164.422 200.693 162.477 201.573 L162.477 184.212 Z" fill="#000000" fill-rule="evenodd" fill-opacity="1" /><path clip-path="url(#clip860)" d="M21.7677 848.522 L58.7206 848.522 L58.7206 840.755 Q58.7206 830.92 54.2646 826.369 Q49.8086 821.786 40.1964 821.786 Q30.6479 821.786 26.2237 826.369 Q21.7677 830.92 21.7677 840.755 L21.7677 848.522 M16.4842 854.951 L16.4842 841.742 Q16.4842 827.928 22.2451 821.467 Q27.9743 815.006 40.1964 815.006 Q52.4822 815.006 58.2432 821.499 Q64.0042 827.992 64.0042 841.742 L64.0042 854.951 L16.4842 854.951 Z" fill="#000000" fill-rule="evenodd" fill-opacity="1" /><path clip-path="url(#clip860)" d="M44.7161 774.52 L47.5806 774.52 L47.5806 801.447 Q53.6281 801.065 56.8109 797.819 Q59.9619 794.54 59.9619 788.716 Q59.9619 785.342 59.1344 782.191 Q58.3069 779.008 56.6518 775.889 L62.1899 775.889 Q63.5267 779.04 64.227 782.35 Q64.9272 785.66 64.9272 789.066 Q64.9272 797.596 59.9619 802.593 Q54.9967 807.558 46.5303 807.558 Q37.7774 807.558 32.6531 802.848 Q27.4968 798.105 27.4968 790.084 Q27.4968 782.891 32.1438 778.722 Q36.7589 774.52 44.7161 774.52 M42.9973 780.377 Q38.1912 780.44 35.3266 783.082 Q32.4621 785.692 32.4621 790.021 Q32.4621 794.922 35.2312 797.882 Q38.0002 800.811 43.0292 801.256 L42.9973 780.377 Z" fill="#000000" fill-rule="evenodd" fill-opacity="1" /><path clip-path="url(#clip860)" d="M42.4881 735.276 L64.0042 735.276 L64.0042 741.132 L42.679 741.132 Q37.6183 741.132 35.1038 743.105 Q32.5894 745.079 32.5894 749.026 Q32.5894 753.768 35.6131 756.505 Q38.6368 759.243 43.8567 759.243 L64.0042 759.243 L64.0042 765.131 L28.3562 765.131 L28.3562 759.243 L33.8944 759.243 Q30.6797 757.142 29.0883 754.309 Q27.4968 751.445 27.4968 747.721 Q27.4968 741.578 31.3163 738.427 Q35.1038 735.276 42.4881 735.276 Z" fill="#000000" fill-rule="evenodd" fill-opacity="1" /><path clip-path="url(#clip860)" d="M29.4065 700.869 L34.9447 700.869 Q33.6716 703.352 33.035 706.025 Q32.3984 708.699 32.3984 711.563 Q32.3984 715.924 33.7352 718.12 Q35.072 720.284 37.7456 720.284 Q39.7826 720.284 40.9603 718.725 Q42.1061 717.165 43.1565 712.455 L43.6021 710.449 Q44.9389 704.211 47.3897 701.601 Q49.8086 698.959 54.1691 698.959 Q59.1344 698.959 62.0308 702.906 Q64.9272 706.821 64.9272 713.696 Q64.9272 716.56 64.3543 719.68 Q63.8132 722.767 62.6992 726.204 L56.6518 726.204 Q58.3387 722.958 59.198 719.807 Q60.0256 716.656 60.0256 713.569 Q60.0256 709.431 58.6251 707.203 Q57.1929 704.975 54.6147 704.975 Q52.2276 704.975 50.9545 706.598 Q49.6813 708.19 48.5037 713.632 L48.0262 715.669 Q46.8804 721.112 44.5251 723.531 Q42.138 725.95 38.0002 725.95 Q32.9713 725.95 30.2341 722.385 Q27.4968 718.82 27.4968 712.264 Q27.4968 709.017 27.9743 706.153 Q28.4517 703.288 29.4065 700.869 Z" fill="#000000" fill-rule="evenodd" fill-opacity="1" /><path clip-path="url(#clip860)" d="M28.3562 689.634 L28.3562 683.777 L64.0042 683.777 L64.0042 689.634 L28.3562 689.634 M14.479 689.634 L14.479 683.777 L21.895 683.777 L21.895 689.634 L14.479 689.634 Z" fill="#000000" fill-rule="evenodd" fill-opacity="1" /><path clip-path="url(#clip860)" d="M18.2347 665.73 L28.3562 665.73 L28.3562 653.667 L32.9077 653.667 L32.9077 665.73 L52.2594 665.73 Q56.6199 665.73 57.8613 664.553 Q59.1026 663.343 59.1026 659.683 L59.1026 653.667 L64.0042 653.667 L64.0042 659.683 Q64.0042 666.462 61.4897 669.04 Q58.9434 671.619 52.2594 671.619 L32.9077 671.619 L32.9077 675.915 L28.3562 675.915 L28.3562 671.619 L18.2347 671.619 L18.2347 665.73 Z" fill="#000000" fill-rule="evenodd" fill-opacity="1" /><path clip-path="url(#clip860)" d="M67.3143 631.133 Q73.68 633.615 75.6216 635.971 Q77.5631 638.326 77.5631 642.273 L77.5631 646.951 L72.6615 646.951 L72.6615 643.514 Q72.6615 641.095 71.5157 639.758 Q70.3699 638.421 66.1048 636.798 L63.4312 635.748 L28.3562 650.166 L28.3562 643.96 L56.238 632.82 L28.3562 621.68 L28.3562 615.473 L67.3143 631.133 Z" fill="#000000" fill-rule="evenodd" fill-opacity="1" /><polyline clip-path="url(#clip862)" style="stroke:#009af9; stroke-linecap:butt; stroke-linejoin:round; stroke-width:20; stroke-opacity:1; fill:none" points="
  219.38,1384.24 222.362,1384.21 225.344,1383.83 228.327,1382.5 231.309,1379.83 232.8,1377.94 234.291,1375.67 235.782,1373.03 237.273,1370.04 240.255,1363.02 
  243.237,1354.76 246.22,1345.42 249.202,1335.17 252.184,1324.16 255.166,1312.53 261.13,1287.95 267.095,1262.31 273.059,1236.28 279.023,1210.38 284.988,1184.97 
  290.952,1160.34 296.916,1136.66 302.881,1114.05 308.845,1092.6 314.809,1072.34 320.774,1053.28 326.738,1035.43 332.702,1018.75 338.667,1003.23 344.631,988.816 
  350.595,975.476 356.56,963.16 362.524,951.822 368.488,941.415 374.453,931.891 380.417,923.203 386.381,915.306 392.346,908.154 398.31,901.707 401.292,898.734 
  404.274,895.922 407.257,893.265 410.239,890.76 424.026,881.012 437.813,873.976 451.6,869.277 465.388,866.588 479.175,865.621 492.962,866.127 506.749,867.891 
  520.537,870.722 534.324,874.459 548.111,878.96 561.898,884.101 575.685,889.777 589.473,895.895 603.26,902.374 617.047,909.146 630.834,916.151 685.983,945.552 
  741.132,975.57 768.706,990.367 796.281,1004.88 823.855,1019.03 851.43,1032.77 879.004,1046.07 906.579,1058.91 934.153,1071.28 961.728,1083.18 989.302,1094.61 
  1016.88,1105.58 1044.45,1116.09 1072.03,1126.17 1099.6,1135.82 1127.17,1145.06 1154.75,1153.9 1182.32,1162.37 1209.9,1170.47 1237.47,1178.22 1265.05,1185.64 
  1292.62,1192.74 1347.77,1206.04 1402.92,1218.23 1458.07,1229.42 1513.22,1239.7 1568.37,1249.14 1623.51,1257.84 1678.66,1265.85 1733.81,1273.24 1788.96,1280.06 
  1844.11,1286.37 1899.26,1292.21 1954.41,1297.62 2064.7,1307.3 2175,1315.67 2241.29,1320.15 2307.57,1324.27 2373.86,1328.07 2440.14,1331.57 2572.71,1337.79 
  2705.28,1343.12 2837.85,1347.71 2970.41,1351.68 3102.98,1355.12 3235.55,1358.13 3459.72,1362.38 3683.89,1365.81 3908.06,1368.59 4132.23,1370.88 4619.26,1374.58 
  5106.28,1377.1 5555.27,1378.74 6004.27,1379.94 6967,1381.6 8082.42,1382.65 9073.68,1383.19 9942.92,1383.49 10890.6,1383.7 11844,1383.85 12898,1383.96 
  13900.9,1384.03 14943.7,1384.08 15821.5,1384.12 16893.2,1384.15 17874.9,1384.17 18781.6,1384.18 19700.1,1384.19 20729.4,1384.2 21662.2,1384.21 22730.1,1384.21 
  23718.9,1384.22 24693.8,1384.22 25640.3,1384.22 26610.5,1384.23 27673.6,1384.23 29217.9,1384.23 29534.7,1384.23 
  "/>
<polyline clip-path="url(#clip862)" style="stroke:#e26f46; stroke-linecap:butt; stroke-linejoin:round; stroke-width:20; stroke-opacity:1; fill:none" points="
  219.38,1384.24 231.112,1384.24 339.585,1384.24 404.774,1384.24 459.89,1383.93 474.858,1383.44 489.825,1382.37 504.793,1380.25 519.761,1376.41 526.66,1373.82 
  533.56,1370.56 540.459,1366.52 547.359,1361.59 554.259,1355.64 561.158,1348.52 568.058,1340.13 574.957,1330.32 582.354,1318.1 589.751,1303.97 597.148,1287.8 
  604.545,1269.49 611.942,1248.94 619.339,1226.1 626.736,1200.92 634.133,1173.41 642.703,1138.64 651.273,1100.86 659.843,1060.22 668.414,1016.91 676.984,971.186 
  685.554,923.356 694.124,873.755 702.694,822.759 717.926,729.934 733.159,636.353 748.391,544.445 763.623,456.555 770.302,419.847 776.981,384.495 783.659,350.653 
  790.338,318.461 797.017,288.047 803.695,259.524 810.374,232.992 817.053,208.533 824.334,184.311 831.616,162.707 838.897,143.771 846.179,127.532 853.46,114.001 
  860.742,103.173 868.023,95.0227 875.305,89.5111 882.63,86.5747 889.955,86.1857 897.279,88.2639 904.604,92.7185 911.929,99.4494 919.254,108.349 926.579,119.302 
  933.903,132.19 942.002,148.542 950.1,166.937 958.199,187.201 966.297,209.162 974.396,232.647 982.495,257.484 990.593,283.506 998.692,310.551 1014.1,364.281 
  1029.51,420.129 1044.92,477.17 1060.34,534.58 1076.36,593.896 1092.38,652.154 1108.41,708.791 1124.43,763.356 1137.92,807.426 1151.41,849.626 1164.9,889.846 
  1178.39,928.01 1194.85,971.762 1211.32,1012.37 1227.79,1049.88 1244.26,1084.36 1259.35,1113.37 1274.43,1140.04 1289.52,1164.48 1304.6,1186.8 1318.54,1205.65 
  1332.47,1222.9 1346.4,1238.67 1360.34,1253.05 1374.45,1266.31 1388.56,1278.34 1402.68,1289.24 1416.79,1299.1 1432.61,1309.02 1448.43,1317.86 1464.24,1325.72 
  1480.06,1332.7 1508.73,1343.39 1537.39,1351.95 1570.21,1359.65 1603.04,1365.56 1633.43,1369.79 1663.81,1373.09 1723.74,1377.57 1781.91,1380.21 1841.55,1381.85 
  1906.9,1382.89 2001.82,1383.65 2021.29,1383.75 
  "/>
<polyline clip-path="url(#clip862)" style="stroke:#3da44d; stroke-linecap:butt; stroke-linejoin:round; stroke-width:20; stroke-opacity:1; fill:none" points="
  219.38,1384.24 226.812,1384.24 234.243,1384.24 241.675,1384.24 249.106,1384.24 266.285,1384.23 283.464,1384.17 300.643,1383.79 317.821,1382.41 326.411,1381.03 
  335,1378.97 343.59,1376.07 352.179,1372.17 360.768,1367.1 369.358,1360.76 377.947,1353.02 386.537,1343.82 395.126,1333.11 403.715,1320.87 412.305,1307.13 
  420.894,1291.93 429.483,1275.34 438.073,1257.44 446.662,1238.36 455.252,1218.2 463.841,1197.12 472.43,1175.24 481.02,1152.71 489.609,1129.69 506.788,1082.73 
  523.967,1035.48 534.291,1007.38 544.614,979.741 554.938,952.756 565.262,926.58 575.585,901.356 585.909,877.204 596.233,854.228 606.557,832.51 616.88,812.117 
  627.204,793.1 637.528,775.493 647.852,759.317 658.175,744.582 668.499,731.284 678.823,719.413 689.147,708.948 697.875,701.175 706.604,694.367 715.332,688.499 
  724.061,683.546 732.789,679.48 741.518,676.273 750.247,673.892 758.975,672.306 767.704,671.483 776.432,671.389 785.161,671.991 793.89,673.255 802.618,675.148 
  811.347,677.637 820.075,680.689 828.804,684.271 838.286,688.725 847.767,693.728 857.249,699.241 866.731,705.225 885.694,718.463 904.657,733.166 923.621,749.078 
  942.584,765.967 961.548,783.619 980.511,801.846 1015.48,836.396 1050.44,871.43 1085.41,906.243 1120.37,940.299 1157.86,975.525 1195.34,1009.09 1214.09,1025.18 
  1232.83,1040.78 1251.57,1055.88 1270.32,1070.48 1292.03,1086.75 1313.75,1102.33 1335.46,1117.23 1357.18,1131.46 1378.9,1145.02 1400.61,1157.94 1422.33,1170.24 
  1444.04,1181.92 1463.34,1191.81 1482.64,1201.25 1501.94,1210.26 1521.24,1218.85 1559.83,1234.82 1598.43,1249.31 1632.28,1260.88 1666.12,1271.48 1699.97,1281.17 
  1733.81,1290.03 1770.72,1298.83 1807.62,1306.8 1844.52,1314.02 1881.42,1320.55 1918.54,1326.5 1955.66,1331.88 1992.78,1336.75 2029.9,1341.15 2111.98,1349.45 
  2194.07,1356.11 2272.17,1361.21 2350.27,1365.36 2512.68,1371.67 2649.39,1375.25 2816.31,1378.23 2969.21,1380.04 3110.43,1381.21 3253.48,1382.05 3413.8,1382.7 
  3559.08,1383.12 3725.41,1383.45 3879.41,1383.67 4031.24,1383.82 4178.66,1383.93 4329.78,1384.01 4495.35,1384.07 4735.87,1384.13 4785.22,1384.14 
  "/>
<path clip-path="url(#clip860)" d="
M1869.29 300.469 L2281.64 300.469 L2281.64 93.1086 L1869.29 93.1086  Z
  " fill="#ffffff" fill-rule="evenodd" fill-opacity="1"/>
<polyline clip-path="url(#clip860)" style="stroke:#000000; stroke-linecap:butt; stroke-linejoin:round; stroke-width:4; stroke-opacity:1; fill:none" points="
  1869.29,300.469 2281.64,300.469 2281.64,93.1086 1869.29,93.1086 1869.29,300.469 
  "/>
<polyline clip-path="url(#clip860)" style="stroke:#009af9; stroke-linecap:butt; stroke-linejoin:round; stroke-width:4; stroke-opacity:1; fill:none" points="
  1893,144.949 2035.22,144.949 
  "/>
<path clip-path="url(#clip860)" d="M2084.29 140.969 Q2084.29 142.609 2081.95 142.609 L2076.68 142.609 Q2078.16 144.717 2078.16 147.832 Q2078.16 150.502 2077.06 153.008 Q2075.98 155.491 2074.24 157.224 Q2072.53 158.957 2070.38 160.011 Q2068.23 161.042 2066.12 161.042 Q2062.91 161.042 2060.92 158.864 Q2058.93 156.685 2058.93 153.453 Q2058.93 151.743 2059.51 149.846 Q2060.12 147.949 2061.27 146.192 Q2062.42 144.412 2063.92 142.983 Q2065.44 141.555 2067.41 140.688 Q2069.4 139.821 2071.48 139.821 L2082.42 139.821 Q2083 139.821 2083.31 139.868 Q2083.64 139.892 2083.97 140.173 Q2084.29 140.43 2084.29 140.969 M2075.09 147.27 Q2075.09 146.707 2075.02 146.216 Q2074.95 145.7 2074.69 145.021 Q2074.43 144.318 2073.99 143.827 Q2073.54 143.311 2072.68 142.96 Q2071.83 142.609 2070.68 142.609 Q2069.07 142.609 2067.29 143.499 Q2065.51 144.389 2064.15 146.59 Q2063.03 148.464 2062.46 150.9 Q2061.9 153.336 2061.9 154.788 Q2061.9 157.271 2063.1 158.63 Q2064.31 159.965 2066.16 159.965 Q2067.69 159.965 2069.42 158.934 Q2071.15 157.88 2072.49 155.889 Q2073.66 154.156 2074.36 151.626 Q2075.09 149.097 2075.09 147.27 Z" fill="#000000" fill-rule="evenodd" fill-opacity="1" /><path clip-path="url(#clip860)" d="M2099.34 153.219 Q2099.39 152.633 2100.3 152.633 L2129.7 152.633 Q2131.08 152.633 2131.11 153.172 Q2131.11 153.758 2129.79 153.734 L2100.63 153.734 Q2099.34 153.758 2099.34 153.219 M2099.34 143.85 Q2099.34 143.264 2100.35 143.288 L2129.65 143.288 Q2131.08 143.288 2131.11 143.85 Q2131.11 144.389 2129.89 144.389 L2100.3 144.389 Q2099.34 144.389 2099.34 143.85 Z" fill="#000000" fill-rule="evenodd" fill-opacity="1" /><path clip-path="url(#clip860)" d="M2149.6 133.122 L2149.6 131.623 Q2155.36 131.623 2158.33 128.555 Q2159.15 128.555 2159.29 128.742 Q2159.43 128.93 2159.43 129.796 L2159.43 156.709 Q2159.43 158.138 2160.14 158.583 Q2160.84 159.028 2163.91 159.028 L2165.43 159.028 L2165.43 160.503 Q2163.74 160.363 2157.65 160.363 Q2151.56 160.363 2149.9 160.503 L2149.9 159.028 L2151.42 159.028 Q2154.44 159.028 2155.17 158.606 Q2155.9 158.161 2155.9 156.709 L2155.9 131.858 Q2153.39 133.122 2149.6 133.122 Z" fill="#000000" fill-rule="evenodd" fill-opacity="1" /><polyline clip-path="url(#clip860)" style="stroke:#e26f46; stroke-linecap:butt; stroke-linejoin:round; stroke-width:4; stroke-opacity:1; fill:none" points="
  1893,196.789 2035.22,196.789 
  "/>
<path clip-path="url(#clip860)" d="M2084.29 192.551 Q2084.29 194.191 2081.95 194.191 L2076.68 194.191 Q2078.16 196.299 2078.16 199.414 Q2078.16 202.084 2077.06 204.59 Q2075.98 207.073 2074.24 208.806 Q2072.53 210.54 2070.38 211.594 Q2068.23 212.624 2066.12 212.624 Q2062.91 212.624 2060.92 210.446 Q2058.93 208.268 2058.93 205.035 Q2058.93 203.326 2059.51 201.428 Q2060.12 199.531 2061.27 197.774 Q2062.42 195.994 2063.92 194.566 Q2065.44 193.137 2067.41 192.27 Q2069.4 191.403 2071.48 191.403 L2082.42 191.403 Q2083 191.403 2083.31 191.45 Q2083.64 191.474 2083.97 191.755 Q2084.29 192.012 2084.29 192.551 M2075.09 198.852 Q2075.09 198.29 2075.02 197.798 Q2074.95 197.283 2074.69 196.603 Q2074.43 195.901 2073.99 195.409 Q2073.54 194.893 2072.68 194.542 Q2071.83 194.191 2070.68 194.191 Q2069.07 194.191 2067.29 195.081 Q2065.51 195.971 2064.15 198.173 Q2063.03 200.046 2062.46 202.482 Q2061.9 204.918 2061.9 206.37 Q2061.9 208.853 2063.1 210.212 Q2064.31 211.547 2066.16 211.547 Q2067.69 211.547 2069.42 210.516 Q2071.15 209.462 2072.49 207.471 Q2073.66 205.738 2074.36 203.208 Q2075.09 200.679 2075.09 198.852 Z" fill="#000000" fill-rule="evenodd" fill-opacity="1" /><path clip-path="url(#clip860)" d="M2099.34 204.801 Q2099.39 204.216 2100.3 204.216 L2129.7 204.216 Q2131.08 204.216 2131.11 204.754 Q2131.11 205.34 2129.79 205.316 L2100.63 205.316 Q2099.34 205.34 2099.34 204.801 M2099.34 195.432 Q2099.34 194.847 2100.35 194.87 L2129.65 194.87 Q2131.08 194.87 2131.11 195.432 Q2131.11 195.971 2129.89 195.971 L2100.3 195.971 Q2099.34 195.971 2099.34 195.432 Z" fill="#000000" fill-rule="evenodd" fill-opacity="1" /><path clip-path="url(#clip860)" d="M2149.6 196.744 Q2149.6 189.694 2151.38 185.852 Q2153.86 180.137 2159.71 180.137 Q2160.96 180.137 2162.24 180.489 Q2163.56 180.817 2165.2 182.105 Q2166.86 183.393 2167.87 185.501 Q2169.79 189.577 2169.79 196.744 Q2169.79 203.747 2168.01 207.565 Q2165.41 213.14 2159.67 213.14 Q2157.51 213.14 2155.31 212.039 Q2153.13 210.938 2151.75 208.291 Q2149.6 204.333 2149.6 196.744 M2153.58 196.158 Q2153.58 203.396 2154.09 206.277 Q2154.68 209.392 2156.27 210.75 Q2157.89 212.085 2159.67 212.085 Q2161.59 212.085 2163.18 210.657 Q2164.8 209.205 2165.29 206.089 Q2165.83 203.021 2165.8 196.158 Q2165.8 189.483 2165.34 186.813 Q2164.7 183.697 2163.02 182.456 Q2161.35 181.191 2159.67 181.191 Q2159.04 181.191 2158.36 181.379 Q2157.7 181.566 2156.74 182.105 Q2155.78 182.643 2155.03 183.979 Q2154.3 185.314 2153.95 187.328 Q2153.58 189.928 2153.58 196.158 Z" fill="#000000" fill-rule="evenodd" fill-opacity="1" /><path clip-path="url(#clip860)" d="M2174.07 211.313 Q2173.35 210.54 2173.35 209.532 Q2173.35 208.525 2174.07 207.799 Q2174.8 207.05 2175.9 207.05 Q2176.95 207.05 2177.66 207.752 Q2178.38 208.432 2178.38 209.556 Q2178.38 210.657 2177.61 211.383 Q2176.86 212.085 2175.9 212.085 Q2174.8 212.085 2174.07 211.313 Z" fill="#000000" fill-rule="evenodd" fill-opacity="1" /><path clip-path="url(#clip860)" d="M2186.54 212.085 Q2186.54 211.219 2186.61 210.961 Q2186.71 210.704 2187.08 210.305 L2196.29 200.046 Q2201.32 194.378 2201.32 189.436 Q2201.32 186.227 2199.64 183.932 Q2197.97 181.636 2194.9 181.636 Q2192.8 181.636 2191.02 182.925 Q2189.24 184.213 2188.42 186.508 Q2188.56 186.461 2189.05 186.461 Q2190.24 186.461 2190.9 187.211 Q2191.58 187.96 2191.58 188.968 Q2191.58 190.256 2190.74 190.888 Q2189.92 191.497 2189.1 191.497 Q2188.77 191.497 2188.32 191.427 Q2187.9 191.357 2187.22 190.701 Q2186.54 190.022 2186.54 188.827 Q2186.54 185.478 2189.07 182.807 Q2191.63 180.137 2195.51 180.137 Q2199.92 180.137 2202.8 182.761 Q2205.7 185.36 2205.7 189.436 Q2205.7 190.865 2205.26 192.176 Q2204.84 193.465 2204.25 194.472 Q2203.69 195.479 2202.14 197.095 Q2200.6 198.711 2199.36 199.859 Q2198.11 201.007 2195.33 203.443 L2190.24 208.385 L2198.89 208.385 Q2203.1 208.385 2203.43 208.01 Q2203.9 207.331 2204.48 203.747 L2205.7 203.747 L2204.34 212.085 L2186.54 212.085 Z" fill="#000000" fill-rule="evenodd" fill-opacity="1" /><path clip-path="url(#clip860)" d="M2210.49 204.356 Q2210.49 202.927 2211.26 202.389 Q2212.03 201.826 2212.85 201.826 Q2213.95 201.826 2214.58 202.529 Q2215.24 203.208 2215.24 204.169 Q2215.24 205.129 2214.58 205.832 Q2213.95 206.511 2212.85 206.511 Q2212.31 206.511 2212.03 206.417 Q2212.66 208.619 2214.58 210.212 Q2216.53 211.804 2219.08 211.804 Q2222.29 211.804 2224.21 208.689 Q2225.36 206.675 2225.36 202.108 Q2225.36 198.079 2224.49 196.065 Q2223.16 192.996 2220.42 192.996 Q2216.53 192.996 2214.23 196.346 Q2213.95 196.767 2213.62 196.791 Q2213.16 196.791 2213.04 196.533 Q2212.94 196.252 2212.94 195.526 L2212.94 181.332 Q2212.94 180.184 2213.41 180.184 Q2213.6 180.184 2214 180.325 Q2217.02 181.66 2220.37 181.683 Q2223.81 181.683 2226.9 180.278 Q2227.14 180.137 2227.28 180.137 Q2227.75 180.137 2227.77 180.676 Q2227.77 180.863 2227.37 181.426 Q2227 181.964 2226.18 182.69 Q2225.36 183.393 2224.3 184.072 Q2223.25 184.752 2221.7 185.22 Q2220.18 185.665 2218.5 185.665 Q2216.48 185.665 2214.42 185.033 L2214.42 194.378 Q2216.9 191.942 2220.51 191.942 Q2224.35 191.942 2227 195.034 Q2229.64 198.126 2229.64 202.435 Q2229.64 206.956 2226.51 210.048 Q2223.39 213.14 2219.17 213.14 Q2215.33 213.14 2212.9 210.399 Q2210.49 207.659 2210.49 204.356 Z" fill="#000000" fill-rule="evenodd" fill-opacity="1" /><polyline clip-path="url(#clip860)" style="stroke:#3da44d; stroke-linecap:butt; stroke-linejoin:round; stroke-width:4; stroke-opacity:1; fill:none" points="
  1893,248.629 2035.22,248.629 
  "/>
<path clip-path="url(#clip860)" d="M2084.29 244.391 Q2084.29 246.031 2081.95 246.031 L2076.68 246.031 Q2078.16 248.139 2078.16 251.254 Q2078.16 253.924 2077.06 256.43 Q2075.98 258.913 2074.24 260.646 Q2072.53 262.38 2070.38 263.434 Q2068.23 264.464 2066.12 264.464 Q2062.91 264.464 2060.92 262.286 Q2058.93 260.108 2058.93 256.875 Q2058.93 255.166 2059.51 253.268 Q2060.12 251.371 2061.27 249.614 Q2062.42 247.834 2063.92 246.406 Q2065.44 244.977 2067.41 244.11 Q2069.4 243.243 2071.48 243.243 L2082.42 243.243 Q2083 243.243 2083.31 243.29 Q2083.64 243.314 2083.97 243.595 Q2084.29 243.852 2084.29 244.391 M2075.09 250.692 Q2075.09 250.13 2075.02 249.638 Q2074.95 249.123 2074.69 248.443 Q2074.43 247.741 2073.99 247.249 Q2073.54 246.733 2072.68 246.382 Q2071.83 246.031 2070.68 246.031 Q2069.07 246.031 2067.29 246.921 Q2065.51 247.811 2064.15 250.013 Q2063.03 251.886 2062.46 254.322 Q2061.9 256.758 2061.9 258.21 Q2061.9 260.693 2063.1 262.052 Q2064.31 263.387 2066.16 263.387 Q2067.69 263.387 2069.42 262.356 Q2071.15 261.302 2072.49 259.311 Q2073.66 257.578 2074.36 255.048 Q2075.09 252.519 2075.09 250.692 Z" fill="#000000" fill-rule="evenodd" fill-opacity="1" /><path clip-path="url(#clip860)" d="M2099.34 256.641 Q2099.39 256.056 2100.3 256.056 L2129.7 256.056 Q2131.08 256.056 2131.11 256.594 Q2131.11 257.18 2129.79 257.156 L2100.63 257.156 Q2099.34 257.18 2099.34 256.641 M2099.34 247.272 Q2099.34 246.687 2100.35 246.71 L2129.65 246.71 Q2131.08 246.71 2131.11 247.272 Q2131.11 247.811 2129.89 247.811 L2100.3 247.811 Q2099.34 247.811 2099.34 247.272 Z" fill="#000000" fill-rule="evenodd" fill-opacity="1" /><path clip-path="url(#clip860)" d="M2149.6 248.584 Q2149.6 241.534 2151.38 237.692 Q2153.86 231.977 2159.71 231.977 Q2160.96 231.977 2162.24 232.329 Q2163.56 232.657 2165.2 233.945 Q2166.86 235.233 2167.87 237.341 Q2169.79 241.417 2169.79 248.584 Q2169.79 255.587 2168.01 259.405 Q2165.41 264.98 2159.67 264.98 Q2157.51 264.98 2155.31 263.879 Q2153.13 262.778 2151.75 260.131 Q2149.6 256.173 2149.6 248.584 M2153.58 247.998 Q2153.58 255.236 2154.09 258.117 Q2154.68 261.232 2156.27 262.59 Q2157.89 263.925 2159.67 263.925 Q2161.59 263.925 2163.18 262.497 Q2164.8 261.045 2165.29 257.929 Q2165.83 254.861 2165.8 247.998 Q2165.8 241.323 2165.34 238.653 Q2164.7 235.537 2163.02 234.296 Q2161.35 233.031 2159.67 233.031 Q2159.04 233.031 2158.36 233.219 Q2157.7 233.406 2156.74 233.945 Q2155.78 234.483 2155.03 235.819 Q2154.3 237.154 2153.95 239.168 Q2153.58 241.768 2153.58 247.998 Z" fill="#000000" fill-rule="evenodd" fill-opacity="1" /><path clip-path="url(#clip860)" d="M2174.07 263.153 Q2173.35 262.38 2173.35 261.372 Q2173.35 260.365 2174.07 259.639 Q2174.8 258.89 2175.9 258.89 Q2176.95 258.89 2177.66 259.592 Q2178.38 260.272 2178.38 261.396 Q2178.38 262.497 2177.61 263.223 Q2176.86 263.925 2175.9 263.925 Q2174.8 263.925 2174.07 263.153 Z" fill="#000000" fill-rule="evenodd" fill-opacity="1" /><path clip-path="url(#clip860)" d="M2186.54 256.196 Q2186.54 254.767 2187.32 254.229 Q2188.09 253.666 2188.91 253.666 Q2190.01 253.666 2190.64 254.369 Q2191.3 255.048 2191.3 256.009 Q2191.3 256.969 2190.64 257.672 Q2190.01 258.351 2188.91 258.351 Q2188.37 258.351 2188.09 258.257 Q2188.72 260.459 2190.64 262.052 Q2192.59 263.644 2195.14 263.644 Q2198.35 263.644 2200.27 260.529 Q2201.42 258.515 2201.42 253.948 Q2201.42 249.919 2200.55 247.905 Q2199.21 244.836 2196.47 244.836 Q2192.59 244.836 2190.29 248.186 Q2190.01 248.607 2189.68 248.631 Q2189.21 248.631 2189.1 248.373 Q2189 248.092 2189 247.366 L2189 233.172 Q2189 232.024 2189.47 232.024 Q2189.66 232.024 2190.06 232.165 Q2193.08 233.5 2196.43 233.523 Q2199.87 233.523 2202.96 232.118 Q2203.2 231.977 2203.34 231.977 Q2203.81 231.977 2203.83 232.516 Q2203.83 232.703 2203.43 233.266 Q2203.06 233.804 2202.24 234.53 Q2201.42 235.233 2200.36 235.912 Q2199.31 236.592 2197.76 237.06 Q2196.24 237.505 2194.55 237.505 Q2192.54 237.505 2190.48 236.873 L2190.48 246.218 Q2192.96 243.782 2196.57 243.782 Q2200.41 243.782 2203.06 246.874 Q2205.7 249.966 2205.7 254.275 Q2205.7 258.796 2202.56 261.888 Q2199.45 264.98 2195.23 264.98 Q2191.39 264.98 2188.96 262.239 Q2186.54 259.499 2186.54 256.196 Z" fill="#000000" fill-rule="evenodd" fill-opacity="1" /></svg>
