<?xml version="1.0" encoding="utf-8"?>
<svg xmlns="http://www.w3.org/2000/svg" xmlns:xlink="http://www.w3.org/1999/xlink" width="600" height="400" viewBox="0 0 2400 1600">
<defs>
  <clipPath id="clip770">
    <rect x="0" y="0" width="2400" height="1600"/>
  </clipPath>
</defs>
<path clip-path="url(#clip770)" d="
M0 1600 L2400 1600 L2400 0 L0 0  Z
  " fill="#ffffff" fill-rule="evenodd" fill-opacity="1"/>
<defs>
  <clipPath id="clip771">
    <rect x="480" y="0" width="1681" height="1600"/>
  </clipPath>
</defs>
<defs>
  <clipPath id="clip772">
    <rect x="219" y="47" width="2134" height="1377"/>
  </clipPath>
</defs>
<path clip-path="url(#clip770)" d="
M219.38 1423.18 L2352.76 1423.18 L2352.76 47.2441 L219.38 47.2441  Z
  " fill="#ffffff" fill-rule="evenodd" fill-opacity="1"/>
<polyline clip-path="url(#clip772)" style="stroke:#000000; stroke-linecap:butt; stroke-linejoin:round; stroke-width:2; stroke-opacity:0.1; fill:none" points="
  279.759,1423.18 279.759,47.2441 
  "/>
<polyline clip-path="url(#clip772)" style="stroke:#000000; stroke-linecap:butt; stroke-linejoin:round; stroke-width:2; stroke-opacity:0.1; fill:none" points="
  589.392,1423.18 589.392,47.2441 
  "/>
<polyline clip-path="url(#clip772)" style="stroke:#000000; stroke-linecap:butt; stroke-linejoin:round; stroke-width:2; stroke-opacity:0.1; fill:none" points="
  899.026,1423.18 899.026,47.2441 
  "/>
<polyline clip-path="url(#clip772)" style="stroke:#000000; stroke-linecap:butt; stroke-linejoin:round; stroke-width:2; stroke-opacity:0.1; fill:none" points="
  1208.66,1423.18 1208.66,47.2441 
  "/>
<polyline clip-path="url(#clip772)" style="stroke:#000000; stroke-linecap:butt; stroke-linejoin:round; stroke-width:2; stroke-opacity:0.1; fill:none" points="
  1518.29,1423.18 1518.29,47.2441 
  "/>
<polyline clip-path="url(#clip772)" style="stroke:#000000; stroke-linecap:butt; stroke-linejoin:round; stroke-width:2; stroke-opacity:0.1; fill:none" points="
  1827.93,1423.18 1827.93,47.2441 
  "/>
<polyline clip-path="url(#clip772)" style="stroke:#000000; stroke-linecap:butt; stroke-linejoin:round; stroke-width:2; stroke-opacity:0.1; fill:none" points="
  2137.56,1423.18 2137.56,47.2441 
  "/>
<polyline clip-path="url(#clip770)" style="stroke:#000000; stroke-linecap:butt; stroke-linejoin:round; stroke-width:4; stroke-opacity:1; fill:none" points="
  219.38,1423.18 2352.76,1423.18 
  "/>
<polyline clip-path="url(#clip770)" style="stroke:#000000; stroke-linecap:butt; stroke-linejoin:round; stroke-width:4; stroke-opacity:1; fill:none" points="
  279.759,1423.18 279.759,1404.28 
  "/>
<polyline clip-path="url(#clip770)" style="stroke:#000000; stroke-linecap:butt; stroke-linejoin:round; stroke-width:4; stroke-opacity:1; fill:none" points="
  589.392,1423.18 589.392,1404.28 
  "/>
<polyline clip-path="url(#clip770)" style="stroke:#000000; stroke-linecap:butt; stroke-linejoin:round; stroke-width:4; stroke-opacity:1; fill:none" points="
  899.026,1423.18 899.026,1404.28 
  "/>
<polyline clip-path="url(#clip770)" style="stroke:#000000; stroke-linecap:butt; stroke-linejoin:round; stroke-width:4; stroke-opacity:1; fill:none" points="
  1208.66,1423.18 1208.66,1404.28 
  "/>
<polyline clip-path="url(#clip770)" style="stroke:#000000; stroke-linecap:butt; stroke-linejoin:round; stroke-width:4; stroke-opacity:1; fill:none" points="
  1518.29,1423.18 1518.29,1404.28 
  "/>
<polyline clip-path="url(#clip770)" style="stroke:#000000; stroke-linecap:butt; stroke-linejoin:round; stroke-width:4; stroke-opacity:1; fill:none" points="
  1827.93,1423.18 1827.93,1404.28 
  "/>
<polyline clip-path="url(#clip770)" style="stroke:#000000; stroke-linecap:butt; stroke-linejoin:round; stroke-width:4; stroke-opacity:1; fill:none" points="
  2137.56,1423.18 2137.56,1404.28 
  "/>
<path clip-path="url(#clip770)" d="M279.759 1454.1 Q276.148 1454.1 274.319 1457.66 Q272.513 1461.2 272.513 1468.33 Q272.513 1475.44 274.319 1479.01 Q276.148 1482.55 279.759 1482.55 Q283.393 1482.55 285.199 1479.01 Q287.027 1475.44 287.027 1468.33 Q287.027 1461.2 285.199 1457.66 Q283.393 1454.1 279.759 1454.1 M279.759 1450.39 Q285.569 1450.39 288.624 1455 Q291.703 1459.58 291.703 1468.33 Q291.703 1477.06 288.624 1481.67 Q285.569 1486.25 279.759 1486.25 Q273.949 1486.25 270.87 1481.67 Q267.814 1477.06 267.814 1468.33 Q267.814 1459.58 270.87 1455 Q273.949 1450.39 279.759 1450.39 Z" fill="#000000" fill-rule="evenodd" fill-opacity="1" /><path clip-path="url(#clip770)" d="M584.045 1481.64 L600.365 1481.64 L600.365 1485.58 L578.42 1485.58 L578.42 1481.64 Q581.082 1478.89 585.666 1474.26 Q590.272 1469.61 591.453 1468.27 Q593.698 1465.74 594.578 1464.01 Q595.48 1462.25 595.48 1460.56 Q595.48 1457.8 593.536 1456.07 Q591.615 1454.33 588.513 1454.33 Q586.314 1454.33 583.86 1455.09 Q581.429 1455.86 578.652 1457.41 L578.652 1452.69 Q581.476 1451.55 583.929 1450.97 Q586.383 1450.39 588.42 1450.39 Q593.79 1450.39 596.985 1453.08 Q600.179 1455.77 600.179 1460.26 Q600.179 1462.39 599.369 1464.31 Q598.582 1466.2 596.476 1468.8 Q595.897 1469.47 592.795 1472.69 Q589.693 1475.88 584.045 1481.64 Z" fill="#000000" fill-rule="evenodd" fill-opacity="1" /><path clip-path="url(#clip770)" d="M902.035 1455.09 L890.23 1473.54 L902.035 1473.54 L902.035 1455.09 M900.808 1451.02 L906.688 1451.02 L906.688 1473.54 L911.619 1473.54 L911.619 1477.43 L906.688 1477.43 L906.688 1485.58 L902.035 1485.58 L902.035 1477.43 L886.433 1477.43 L886.433 1472.92 L900.808 1451.02 Z" fill="#000000" fill-rule="evenodd" fill-opacity="1" /><path clip-path="url(#clip770)" d="M1209.06 1466.44 Q1205.92 1466.44 1204.06 1468.59 Q1202.24 1470.74 1202.24 1474.49 Q1202.24 1478.22 1204.06 1480.39 Q1205.92 1482.55 1209.06 1482.55 Q1212.21 1482.55 1214.04 1480.39 Q1215.89 1478.22 1215.89 1474.49 Q1215.89 1470.74 1214.04 1468.59 Q1212.21 1466.44 1209.06 1466.44 M1218.35 1451.78 L1218.35 1456.04 Q1216.59 1455.21 1214.78 1454.77 Q1213 1454.33 1211.24 1454.33 Q1206.61 1454.33 1204.16 1457.45 Q1201.73 1460.58 1201.38 1466.9 Q1202.75 1464.89 1204.81 1463.82 Q1206.87 1462.73 1209.34 1462.73 Q1214.55 1462.73 1217.56 1465.9 Q1220.59 1469.05 1220.59 1474.49 Q1220.59 1479.82 1217.44 1483.03 Q1214.3 1486.25 1209.06 1486.25 Q1203.07 1486.25 1199.9 1481.67 Q1196.73 1477.06 1196.73 1468.33 Q1196.73 1460.14 1200.62 1455.28 Q1204.5 1450.39 1211.06 1450.39 Q1212.81 1450.39 1214.6 1450.74 Q1216.4 1451.09 1218.35 1451.78 Z" fill="#000000" fill-rule="evenodd" fill-opacity="1" /><path clip-path="url(#clip770)" d="M1518.29 1469.17 Q1514.96 1469.17 1513.04 1470.95 Q1511.14 1472.73 1511.14 1475.86 Q1511.14 1478.98 1513.04 1480.77 Q1514.96 1482.55 1518.29 1482.55 Q1521.63 1482.55 1523.55 1480.77 Q1525.47 1478.96 1525.47 1475.86 Q1525.47 1472.73 1523.55 1470.95 Q1521.65 1469.17 1518.29 1469.17 M1513.62 1467.18 Q1510.61 1466.44 1508.92 1464.38 Q1507.25 1462.32 1507.25 1459.35 Q1507.25 1455.21 1510.19 1452.8 Q1513.15 1450.39 1518.29 1450.39 Q1523.46 1450.39 1526.4 1452.8 Q1529.33 1455.21 1529.33 1459.35 Q1529.33 1462.32 1527.65 1464.38 Q1525.98 1466.44 1522.99 1467.18 Q1526.37 1467.96 1528.25 1470.26 Q1530.15 1472.55 1530.15 1475.86 Q1530.15 1480.88 1527.07 1483.57 Q1524.01 1486.25 1518.29 1486.25 Q1512.58 1486.25 1509.5 1483.57 Q1506.44 1480.88 1506.44 1475.86 Q1506.44 1472.55 1508.34 1470.26 Q1510.24 1467.96 1513.62 1467.18 M1511.9 1459.79 Q1511.9 1462.48 1513.57 1463.98 Q1515.26 1465.49 1518.29 1465.49 Q1521.3 1465.49 1522.99 1463.98 Q1524.71 1462.48 1524.71 1459.79 Q1524.71 1457.11 1522.99 1455.6 Q1521.3 1454.1 1518.29 1454.1 Q1515.26 1454.1 1513.57 1455.6 Q1511.9 1457.11 1511.9 1459.79 Z" fill="#000000" fill-rule="evenodd" fill-opacity="1" /><path clip-path="url(#clip770)" d="M1802.61 1481.64 L1810.25 1481.64 L1810.25 1455.28 L1801.94 1456.95 L1801.94 1452.69 L1810.21 1451.02 L1814.88 1451.02 L1814.88 1481.64 L1822.52 1481.64 L1822.52 1485.58 L1802.61 1485.58 L1802.61 1481.64 Z" fill="#000000" fill-rule="evenodd" fill-opacity="1" /><path clip-path="url(#clip770)" d="M1841.97 1454.1 Q1838.36 1454.1 1836.53 1457.66 Q1834.72 1461.2 1834.72 1468.33 Q1834.72 1475.44 1836.53 1479.01 Q1838.36 1482.55 1841.97 1482.55 Q1845.6 1482.55 1847.41 1479.01 Q1849.23 1475.44 1849.23 1468.33 Q1849.23 1461.2 1847.41 1457.66 Q1845.6 1454.1 1841.97 1454.1 M1841.97 1450.39 Q1847.78 1450.39 1850.83 1455 Q1853.91 1459.58 1853.91 1468.33 Q1853.91 1477.06 1850.83 1481.67 Q1847.78 1486.25 1841.97 1486.25 Q1836.16 1486.25 1833.08 1481.67 Q1830.02 1477.06 1830.02 1468.33 Q1830.02 1459.58 1833.08 1455 Q1836.16 1450.39 1841.97 1450.39 Z" fill="#000000" fill-rule="evenodd" fill-opacity="1" /><path clip-path="url(#clip770)" d="M2113.05 1481.64 L2120.69 1481.64 L2120.69 1455.28 L2112.38 1456.95 L2112.38 1452.69 L2120.64 1451.02 L2125.32 1451.02 L2125.32 1481.64 L2132.95 1481.64 L2132.95 1485.58 L2113.05 1485.58 L2113.05 1481.64 Z" fill="#000000" fill-rule="evenodd" fill-opacity="1" /><path clip-path="url(#clip770)" d="M2146.43 1481.64 L2162.75 1481.64 L2162.75 1485.58 L2140.8 1485.58 L2140.8 1481.64 Q2143.46 1478.89 2148.05 1474.26 Q2152.65 1469.61 2153.83 1468.27 Q2156.08 1465.74 2156.96 1464.01 Q2157.86 1462.25 2157.86 1460.56 Q2157.86 1457.8 2155.92 1456.07 Q2154 1454.33 2150.89 1454.33 Q2148.69 1454.33 2146.24 1455.09 Q2143.81 1455.86 2141.03 1457.41 L2141.03 1452.69 Q2143.86 1451.55 2146.31 1450.97 Q2148.76 1450.39 2150.8 1450.39 Q2156.17 1450.39 2159.37 1453.08 Q2162.56 1455.77 2162.56 1460.26 Q2162.56 1462.39 2161.75 1464.31 Q2160.96 1466.2 2158.86 1468.8 Q2158.28 1469.47 2155.18 1472.69 Q2152.07 1475.88 2146.43 1481.64 Z" fill="#000000" fill-rule="evenodd" fill-opacity="1" /><path clip-path="url(#clip770)" d="M1298 1529.22 Q1298 1534.63 1296.26 1540.71 Q1294.56 1546.77 1291.85 1551.66 Q1289.15 1556.53 1285.6 1559.75 Q1282.06 1562.94 1278.68 1562.94 Q1276.52 1562.94 1274.91 1561.75 Q1273.33 1560.52 1272.46 1558.49 Q1271.59 1556.43 1271.18 1554.18 Q1270.76 1551.89 1270.76 1549.41 Q1270.76 1545.71 1271.56 1541.68 Q1272.37 1537.62 1273.72 1533.95 Q1275.07 1530.25 1276.97 1526.9 Q1278.87 1523.52 1280.97 1521.07 Q1283.09 1518.59 1285.47 1517.14 Q1287.86 1515.69 1290.08 1515.69 Q1291.69 1515.69 1292.98 1516.4 Q1294.3 1517.08 1295.14 1518.27 Q1295.97 1519.43 1296.55 1520.81 Q1297.17 1522.2 1297.46 1523.81 Q1297.75 1525.38 1297.87 1526.71 Q1298 1527.99 1298 1529.22 M1293.66 1525.13 Q1293.66 1523.48 1293.53 1522.26 Q1293.4 1521 1293.04 1519.75 Q1292.69 1518.49 1291.92 1517.82 Q1291.18 1517.14 1290.02 1517.14 Q1286.63 1517.14 1282.83 1524.06 Q1281.61 1526.22 1280.52 1529.15 Q1279.42 1532.08 1279.03 1533.47 Q1278.65 1534.85 1277.75 1538.27 L1291.53 1538.27 Q1293.66 1529.47 1293.66 1525.13 M1290.95 1540.36 L1277.23 1540.36 Q1275.1 1548.41 1275.1 1553.44 Q1275.1 1557.82 1276.01 1559.65 Q1276.94 1561.46 1278.68 1561.46 Q1280.68 1561.46 1282.54 1559.46 Q1284.41 1557.43 1286.31 1553.76 Q1288.82 1548.99 1290.95 1540.36 Z" fill="#000000" fill-rule="evenodd" fill-opacity="1" /><polyline clip-path="url(#clip772)" style="stroke:#000000; stroke-linecap:butt; stroke-linejoin:round; stroke-width:2; stroke-opacity:0.1; fill:none" points="
  219.38,1384.24 2352.76,1384.24 
  "/>
<polyline clip-path="url(#clip772)" style="stroke:#000000; stroke-linecap:butt; stroke-linejoin:round; stroke-width:2; stroke-opacity:0.1; fill:none" points="
  219.38,1031.39 2352.76,1031.39 
  "/>
<polyline clip-path="url(#clip772)" style="stroke:#000000; stroke-linecap:butt; stroke-linejoin:round; stroke-width:2; stroke-opacity:0.1; fill:none" points="
  219.38,678.544 2352.76,678.544 
  "/>
<polyline clip-path="url(#clip772)" style="stroke:#000000; stroke-linecap:butt; stroke-linejoin:round; stroke-width:2; stroke-opacity:0.1; fill:none" points="
  219.38,325.696 2352.76,325.696 
  "/>
<polyline clip-path="url(#clip770)" style="stroke:#000000; stroke-linecap:butt; stroke-linejoin:round; stroke-width:4; stroke-opacity:1; fill:none" points="
  219.38,1423.18 219.38,47.2441 
  "/>
<polyline clip-path="url(#clip770)" style="stroke:#000000; stroke-linecap:butt; stroke-linejoin:round; stroke-width:4; stroke-opacity:1; fill:none" points="
  219.38,1384.24 238.278,1384.24 
  "/>
<polyline clip-path="url(#clip770)" style="stroke:#000000; stroke-linecap:butt; stroke-linejoin:round; stroke-width:4; stroke-opacity:1; fill:none" points="
  219.38,1031.39 238.278,1031.39 
  "/>
<polyline clip-path="url(#clip770)" style="stroke:#000000; stroke-linecap:butt; stroke-linejoin:round; stroke-width:4; stroke-opacity:1; fill:none" points="
  219.38,678.544 238.278,678.544 
  "/>
<polyline clip-path="url(#clip770)" style="stroke:#000000; stroke-linecap:butt; stroke-linejoin:round; stroke-width:4; stroke-opacity:1; fill:none" points="
  219.38,325.696 238.278,325.696 
  "/>
<path clip-path="url(#clip770)" d="M126.205 1370.04 Q122.593 1370.04 120.765 1373.6 Q118.959 1377.14 118.959 1384.27 Q118.959 1391.38 120.765 1394.94 Q122.593 1398.49 126.205 1398.49 Q129.839 1398.49 131.644 1394.94 Q133.473 1391.38 133.473 1384.27 Q133.473 1377.14 131.644 1373.6 Q129.839 1370.04 126.205 1370.04 M126.205 1366.33 Q132.015 1366.33 135.07 1370.94 Q138.149 1375.52 138.149 1384.27 Q138.149 1393 135.07 1397.61 Q132.015 1402.19 126.205 1402.19 Q120.394 1402.19 117.316 1397.61 Q114.26 1393 114.26 1384.27 Q114.26 1375.52 117.316 1370.94 Q120.394 1366.33 126.205 1366.33 Z" fill="#000000" fill-rule="evenodd" fill-opacity="1" /><path clip-path="url(#clip770)" d="M146.366 1395.64 L151.251 1395.64 L151.251 1401.52 L146.366 1401.52 L146.366 1395.64 Z" fill="#000000" fill-rule="evenodd" fill-opacity="1" /><path clip-path="url(#clip770)" d="M171.436 1370.04 Q167.825 1370.04 165.996 1373.6 Q164.19 1377.14 164.19 1384.27 Q164.19 1391.38 165.996 1394.94 Q167.825 1398.49 171.436 1398.49 Q175.07 1398.49 176.876 1394.94 Q178.704 1391.38 178.704 1384.27 Q178.704 1377.14 176.876 1373.6 Q175.07 1370.04 171.436 1370.04 M171.436 1366.33 Q177.246 1366.33 180.301 1370.94 Q183.38 1375.52 183.38 1384.27 Q183.38 1393 180.301 1397.61 Q177.246 1402.19 171.436 1402.19 Q165.626 1402.19 162.547 1397.61 Q159.491 1393 159.491 1384.27 Q159.491 1375.52 162.547 1370.94 Q165.626 1366.33 171.436 1366.33 Z" fill="#000000" fill-rule="evenodd" fill-opacity="1" /><path clip-path="url(#clip770)" d="M127.431 1017.19 Q123.82 1017.19 121.992 1020.75 Q120.186 1024.3 120.186 1031.43 Q120.186 1038.53 121.992 1042.1 Q123.82 1045.64 127.431 1045.64 Q131.066 1045.64 132.871 1042.1 Q134.7 1038.53 134.7 1031.43 Q134.7 1024.3 132.871 1020.75 Q131.066 1017.19 127.431 1017.19 M127.431 1013.49 Q133.242 1013.49 136.297 1018.09 Q139.376 1022.68 139.376 1031.43 Q139.376 1040.15 136.297 1044.76 Q133.242 1049.34 127.431 1049.34 Q121.621 1049.34 118.543 1044.76 Q115.487 1040.15 115.487 1031.43 Q115.487 1022.68 118.543 1018.09 Q121.621 1013.49 127.431 1013.49 Z" fill="#000000" fill-rule="evenodd" fill-opacity="1" /><path clip-path="url(#clip770)" d="M147.593 1042.79 L152.478 1042.79 L152.478 1048.67 L147.593 1048.67 L147.593 1042.79 Z" fill="#000000" fill-rule="evenodd" fill-opacity="1" /><path clip-path="url(#clip770)" d="M163.473 1044.74 L171.112 1044.74 L171.112 1018.37 L162.802 1020.04 L162.802 1015.78 L171.065 1014.11 L175.741 1014.11 L175.741 1044.74 L183.38 1044.74 L183.38 1048.67 L163.473 1048.67 L163.473 1044.74 Z" fill="#000000" fill-rule="evenodd" fill-opacity="1" /><path clip-path="url(#clip770)" d="M127.802 664.342 Q124.191 664.342 122.362 667.907 Q120.556 671.449 120.556 678.578 Q120.556 685.685 122.362 689.25 Q124.191 692.791 127.802 692.791 Q131.436 692.791 133.242 689.25 Q135.07 685.685 135.07 678.578 Q135.07 671.449 133.242 667.907 Q131.436 664.342 127.802 664.342 M127.802 660.639 Q133.612 660.639 136.667 665.245 Q139.746 669.828 139.746 678.578 Q139.746 687.305 136.667 691.912 Q133.612 696.495 127.802 696.495 Q121.992 696.495 118.913 691.912 Q115.857 687.305 115.857 678.578 Q115.857 669.828 118.913 665.245 Q121.992 660.639 127.802 660.639 Z" fill="#000000" fill-rule="evenodd" fill-opacity="1" /><path clip-path="url(#clip770)" d="M147.964 689.944 L152.848 689.944 L152.848 695.824 L147.964 695.824 L147.964 689.944 Z" fill="#000000" fill-rule="evenodd" fill-opacity="1" /><path clip-path="url(#clip770)" d="M167.061 691.889 L183.38 691.889 L183.38 695.824 L161.436 695.824 L161.436 691.889 Q164.098 689.134 168.681 684.504 Q173.288 679.852 174.468 678.509 Q176.714 675.986 177.593 674.25 Q178.496 672.491 178.496 670.801 Q178.496 668.046 176.551 666.31 Q174.63 664.574 171.528 664.574 Q169.329 664.574 166.876 665.338 Q164.445 666.102 161.667 667.653 L161.667 662.93 Q164.491 661.796 166.945 661.217 Q169.399 660.639 171.436 660.639 Q176.806 660.639 180.001 663.324 Q183.195 666.009 183.195 670.5 Q183.195 672.629 182.385 674.551 Q181.598 676.449 179.491 679.041 Q178.913 679.713 175.811 682.93 Q172.709 686.125 167.061 691.889 Z" fill="#000000" fill-rule="evenodd" fill-opacity="1" /><path clip-path="url(#clip770)" d="M126.853 311.495 Q123.242 311.495 121.413 315.06 Q119.607 318.602 119.607 325.731 Q119.607 332.838 121.413 336.402 Q123.242 339.944 126.853 339.944 Q130.487 339.944 132.292 336.402 Q134.121 332.838 134.121 325.731 Q134.121 318.602 132.292 315.06 Q130.487 311.495 126.853 311.495 M126.853 307.791 Q132.663 307.791 135.718 312.398 Q138.797 316.981 138.797 325.731 Q138.797 334.458 135.718 339.064 Q132.663 343.648 126.853 343.648 Q121.043 343.648 117.964 339.064 Q114.908 334.458 114.908 325.731 Q114.908 316.981 117.964 312.398 Q121.043 307.791 126.853 307.791 Z" fill="#000000" fill-rule="evenodd" fill-opacity="1" /><path clip-path="url(#clip770)" d="M147.015 337.097 L151.899 337.097 L151.899 342.976 L147.015 342.976 L147.015 337.097 Z" fill="#000000" fill-rule="evenodd" fill-opacity="1" /><path clip-path="url(#clip770)" d="M176.251 324.342 Q179.607 325.06 181.482 327.328 Q183.38 329.597 183.38 332.93 Q183.38 338.046 179.862 340.847 Q176.343 343.648 169.862 343.648 Q167.686 343.648 165.371 343.208 Q163.079 342.791 160.626 341.935 L160.626 337.421 Q162.57 338.555 164.885 339.134 Q167.2 339.713 169.723 339.713 Q174.121 339.713 176.413 337.976 Q178.727 336.24 178.727 332.93 Q178.727 329.875 176.575 328.162 Q174.445 326.426 170.626 326.426 L166.598 326.426 L166.598 322.583 L170.811 322.583 Q174.26 322.583 176.089 321.217 Q177.917 319.828 177.917 317.236 Q177.917 314.574 176.019 313.162 Q174.144 311.727 170.626 311.727 Q168.704 311.727 166.505 312.143 Q164.306 312.56 161.667 313.44 L161.667 309.273 Q164.329 308.532 166.644 308.162 Q168.982 307.791 171.042 307.791 Q176.366 307.791 179.468 310.222 Q182.57 312.629 182.57 316.75 Q182.57 319.62 180.926 321.611 Q179.283 323.578 176.251 324.342 Z" fill="#000000" fill-rule="evenodd" fill-opacity="1" /><path clip-path="url(#clip770)" d="M16.4842 812.476 L16.4842 802.895 L48.8219 790.769 L16.4842 778.578 L16.4842 768.998 L64.0042 768.998 L64.0042 775.268 L22.277 775.268 L54.8694 787.522 L54.8694 793.983 L22.277 806.237 L64.0042 806.237 L64.0042 812.476 L16.4842 812.476 Z" fill="#000000" fill-rule="evenodd" fill-opacity="1" /><path clip-path="url(#clip770)" d="M46.0847 740.289 Q46.0847 747.386 47.7079 750.124 Q49.3312 752.861 53.2461 752.861 Q56.3653 752.861 58.2114 750.824 Q60.0256 748.755 60.0256 745.222 Q60.0256 740.352 56.5881 737.424 Q53.1188 734.464 47.3897 734.464 L46.0847 734.464 L46.0847 740.289 M43.6657 728.608 L64.0042 728.608 L64.0042 734.464 L58.5933 734.464 Q61.8398 736.469 63.3994 739.461 Q64.9272 742.453 64.9272 746.782 Q64.9272 752.256 61.8716 755.503 Q58.7843 758.717 53.6281 758.717 Q47.6125 758.717 44.5569 754.707 Q41.5014 750.665 41.5014 742.676 L41.5014 734.464 L40.9285 734.464 Q36.8862 734.464 34.6901 737.138 Q32.4621 739.779 32.4621 744.585 Q32.4621 747.641 33.1941 750.537 Q33.9262 753.434 35.3903 756.107 L29.9795 756.107 Q28.7381 752.893 28.1334 749.869 Q27.4968 746.845 27.4968 743.981 Q27.4968 736.246 31.5072 732.427 Q35.5176 728.608 43.6657 728.608 Z" fill="#000000" fill-rule="evenodd" fill-opacity="1" /><path clip-path="url(#clip770)" d="M29.4065 693.819 L34.9447 693.819 Q33.6716 696.302 33.035 698.975 Q32.3984 701.649 32.3984 704.513 Q32.3984 708.874 33.7352 711.07 Q35.072 713.234 37.7456 713.234 Q39.7826 713.234 40.9603 711.675 Q42.1061 710.115 43.1565 705.405 L43.6021 703.399 Q44.9389 697.161 47.3897 694.551 Q49.8086 691.909 54.1691 691.909 Q59.1344 691.909 62.0308 695.856 Q64.9272 699.771 64.9272 706.646 Q64.9272 709.51 64.3543 712.63 Q63.8132 715.717 62.6992 719.154 L56.6518 719.154 Q58.3387 715.908 59.198 712.757 Q60.0256 709.606 60.0256 706.519 Q60.0256 702.381 58.6251 700.153 Q57.1929 697.925 54.6147 697.925 Q52.2276 697.925 50.9545 699.548 Q49.6813 701.14 48.5037 706.582 L48.0262 708.619 Q46.8804 714.062 44.5251 716.481 Q42.138 718.9 38.0002 718.9 Q32.9713 718.9 30.2341 715.335 Q27.4968 711.77 27.4968 705.214 Q27.4968 701.967 27.9743 699.102 Q28.4517 696.238 29.4065 693.819 Z" fill="#000000" fill-rule="evenodd" fill-opacity="1" /><path clip-path="url(#clip770)" d="M29.4065 659.858 L34.9447 659.858 Q33.6716 662.341 33.035 665.014 Q32.3984 667.688 32.3984 670.552 Q32.3984 674.913 33.7352 677.109 Q35.072 679.273 37.7456 679.273 Q39.7826 679.273 40.9603 677.714 Q42.1061 676.154 43.1565 671.444 L43.6021 669.438 Q44.9389 663.2 47.3897 660.59 Q49.8086 657.948 54.1691 657.948 Q59.1344 657.948 62.0308 661.895 Q64.9272 665.81 64.9272 672.685 Q64.9272 675.549 64.3543 678.669 Q63.8132 681.756 62.6992 685.193 L56.6518 685.193 Q58.3387 681.947 59.198 678.796 Q60.0256 675.645 60.0256 672.558 Q60.0256 668.42 58.6251 666.192 Q57.1929 663.964 54.6147 663.964 Q52.2276 663.964 50.9545 665.587 Q49.6813 667.178 48.5037 672.621 L48.0262 674.658 Q46.8804 680.101 44.5251 682.52 Q42.138 684.939 38.0002 684.939 Q32.9713 684.939 30.2341 681.374 Q27.4968 677.809 27.4968 671.253 Q27.4968 668.006 27.9743 665.141 Q28.4517 662.277 29.4065 659.858 Z" fill="#000000" fill-rule="evenodd" fill-opacity="1" /><circle clip-path="url(#clip772)" cx="279.759" cy="86.1857" r="14.4" fill="#009af9" fill-rule="evenodd" fill-opacity="0.5" stroke="#000000" stroke-opacity="0.5" stroke-width="3.2"/>
<circle clip-path="url(#clip772)" cx="434.576" cy="86.1857" r="14.4" fill="#009af9" fill-rule="evenodd" fill-opacity="0.5" stroke="#000000" stroke-opacity="0.5" stroke-width="3.2"/>
<circle clip-path="url(#clip772)" cx="589.392" cy="735.212" r="14.4" fill="#009af9" fill-rule="evenodd" fill-opacity="0.5" stroke="#000000" stroke-opacity="0.5" stroke-width="3.2"/>
<circle clip-path="url(#clip772)" cx="744.209" cy="1167.9" r="14.4" fill="#009af9" fill-rule="evenodd" fill-opacity="0.5" stroke="#000000" stroke-opacity="0.5" stroke-width="3.2"/>
<circle clip-path="url(#clip772)" cx="899.026" cy="1330.15" r="14.4" fill="#009af9" fill-rule="evenodd" fill-opacity="0.5" stroke="#000000" stroke-opacity="0.5" stroke-width="3.2"/>
<circle clip-path="url(#clip772)" cx="1053.84" cy="1373.42" r="14.4" fill="#009af9" fill-rule="evenodd" fill-opacity="0.5" stroke="#000000" stroke-opacity="0.5" stroke-width="3.2"/>
<circle clip-path="url(#clip772)" cx="1208.66" cy="1382.44" r="14.4" fill="#009af9" fill-rule="evenodd" fill-opacity="0.5" stroke="#000000" stroke-opacity="0.5" stroke-width="3.2"/>
<polyline clip-path="url(#clip772)" style="stroke:#009af9; stroke-linecap:butt; stroke-linejoin:round; stroke-width:4; stroke-opacity:0.5; fill:none" points="
  279.759,1384.24 279.759,86.1857 
  "/>
<polyline clip-path="url(#clip772)" style="stroke:#009af9; stroke-linecap:butt; stroke-linejoin:round; stroke-width:4; stroke-opacity:0.5; fill:none" points="
  434.576,1384.24 434.576,86.1857 
  "/>
<polyline clip-path="url(#clip772)" style="stroke:#009af9; stroke-linecap:butt; stroke-linejoin:round; stroke-width:4; stroke-opacity:0.5; fill:none" points="
  589.392,1384.24 589.392,735.212 
  "/>
<polyline clip-path="url(#clip772)" style="stroke:#009af9; stroke-linecap:butt; stroke-linejoin:round; stroke-width:4; stroke-opacity:0.5; fill:none" points="
  744.209,1384.24 744.209,1167.9 
  "/>
<polyline clip-path="url(#clip772)" style="stroke:#009af9; stroke-linecap:butt; stroke-linejoin:round; stroke-width:4; stroke-opacity:0.5; fill:none" points="
  899.026,1384.24 899.026,1330.15 
  "/>
<polyline clip-path="url(#clip772)" style="stroke:#009af9; stroke-linecap:butt; stroke-linejoin:round; stroke-width:4; stroke-opacity:0.5; fill:none" points="
  1053.84,1384.24 1053.84,1373.42 
  "/>
<polyline clip-path="url(#clip772)" style="stroke:#009af9; stroke-linecap:butt; stroke-linejoin:round; stroke-width:4; stroke-opacity:0.5; fill:none" points="
  1208.66,1384.24 1208.66,1382.44 
  "/>
<circle clip-path="url(#clip772)" cx="279.759" cy="1319.61" r="14.4" fill="#e26f46" fill-rule="evenodd" fill-opacity="0.5" stroke="#000000" stroke-opacity="0.5" stroke-width="3.2"/>
<circle clip-path="url(#clip772)" cx="434.576" cy="1125.73" r="14.4" fill="#e26f46" fill-rule="evenodd" fill-opacity="0.5" stroke="#000000" stroke-opacity="0.5" stroke-width="3.2"/>
<circle clip-path="url(#clip772)" cx="589.392" cy="867.228" r="14.4" fill="#e26f46" fill-rule="evenodd" fill-opacity="0.5" stroke="#000000" stroke-opacity="0.5" stroke-width="3.2"/>
<circle clip-path="url(#clip772)" cx="744.209" cy="694.892" r="14.4" fill="#e26f46" fill-rule="evenodd" fill-opacity="0.5" stroke="#000000" stroke-opacity="0.5" stroke-width="3.2"/>
<circle clip-path="url(#clip772)" cx="899.026" cy="694.892" r="14.4" fill="#e26f46" fill-rule="evenodd" fill-opacity="0.5" stroke="#000000" stroke-opacity="0.5" stroke-width="3.2"/>
<circle clip-path="url(#clip772)" cx="1053.84" cy="832.761" r="14.4" fill="#e26f46" fill-rule="evenodd" fill-opacity="0.5" stroke="#000000" stroke-opacity="0.5" stroke-width="3.2"/>
<circle clip-path="url(#clip772)" cx="1208.66" cy="1016.59" r="14.4" fill="#e26f46" fill-rule="evenodd" fill-opacity="0.5" stroke="#000000" stroke-opacity="0.5" stroke-width="3.2"/>
<circle clip-path="url(#clip772)" cx="1363.48" cy="1174.15" r="14.4" fill="#e26f46" fill-rule="evenodd" fill-opacity="0.5" stroke="#000000" stroke-opacity="0.5" stroke-width="3.2"/>
<circle clip-path="url(#clip772)" cx="1518.29" cy="1279.19" r="14.4" fill="#e26f46" fill-rule="evenodd" fill-opacity="0.5" stroke="#000000" stroke-opacity="0.5" stroke-width="3.2"/>
<circle clip-path="url(#clip772)" cx="1673.11" cy="1337.55" r="14.4" fill="#e26f46" fill-rule="evenodd" fill-opacity="0.5" stroke="#000000" stroke-opacity="0.5" stroke-width="3.2"/>
<circle clip-path="url(#clip772)" cx="1827.93" cy="1365.56" r="14.4" fill="#e26f46" fill-rule="evenodd" fill-opacity="0.5" stroke="#000000" stroke-opacity="0.5" stroke-width="3.2"/>
<circle clip-path="url(#clip772)" cx="1982.74" cy="1377.45" r="14.4" fill="#e26f46" fill-rule="evenodd" fill-opacity="0.5" stroke="#000000" stroke-opacity="0.5" stroke-width="3.2"/>
<circle clip-path="url(#clip772)" cx="2137.56" cy="1381.97" r="14.4" fill="#e26f46" fill-rule="evenodd" fill-opacity="0.5" stroke="#000000" stroke-opacity="0.5" stroke-width="3.2"/>
<circle clip-path="url(#clip772)" cx="2292.38" cy="1383.54" r="14.4" fill="#e26f46" fill-rule="evenodd" fill-opacity="0.5" stroke="#000000" stroke-opacity="0.5" stroke-width="3.2"/>
<polyline clip-path="url(#clip772)" style="stroke:#e26f46; stroke-linecap:butt; stroke-linejoin:round; stroke-width:4; stroke-opacity:0.5; fill:none" points="
  279.759,1384.24 279.759,1319.61 
  "/>
<polyline clip-path="url(#clip772)" style="stroke:#e26f46; stroke-linecap:butt; stroke-linejoin:round; stroke-width:4; stroke-opacity:0.5; fill:none" points="
  434.576,1384.24 434.576,1125.73 
  "/>
<polyline clip-path="url(#clip772)" style="stroke:#e26f46; stroke-linecap:butt; stroke-linejoin:round; stroke-width:4; stroke-opacity:0.5; fill:none" points="
  589.392,1384.24 589.392,867.228 
  "/>
<polyline clip-path="url(#clip772)" style="stroke:#e26f46; stroke-linecap:butt; stroke-linejoin:round; stroke-width:4; stroke-opacity:0.5; fill:none" points="
  744.209,1384.24 744.209,694.892 
  "/>
<polyline clip-path="url(#clip772)" style="stroke:#e26f46; stroke-linecap:butt; stroke-linejoin:round; stroke-width:4; stroke-opacity:0.5; fill:none" points="
  899.026,1384.24 899.026,694.892 
  "/>
<polyline clip-path="url(#clip772)" style="stroke:#e26f46; stroke-linecap:butt; stroke-linejoin:round; stroke-width:4; stroke-opacity:0.5; fill:none" points="
  1053.84,1384.24 1053.84,832.761 
  "/>
<polyline clip-path="url(#clip772)" style="stroke:#e26f46; stroke-linecap:butt; stroke-linejoin:round; stroke-width:4; stroke-opacity:0.5; fill:none" points="
  1208.66,1384.24 1208.66,1016.59 
  "/>
<polyline clip-path="url(#clip772)" style="stroke:#e26f46; stroke-linecap:butt; stroke-linejoin:round; stroke-width:4; stroke-opacity:0.5; fill:none" points="
  1363.48,1384.24 1363.48,1174.15 
  "/>
<polyline clip-path="url(#clip772)" style="stroke:#e26f46; stroke-linecap:butt; stroke-linejoin:round; stroke-width:4; stroke-opacity:0.5; fill:none" points="
  1518.29,1384.24 1518.29,1279.19 
  "/>
<polyline clip-path="url(#clip772)" style="stroke:#e26f46; stroke-linecap:butt; stroke-linejoin:round; stroke-width:4; stroke-opacity:0.5; fill:none" points="
  1673.11,1384.24 1673.11,1337.55 
  "/>
<polyline clip-path="url(#clip772)" style="stroke:#e26f46; stroke-linecap:butt; stroke-linejoin:round; stroke-width:4; stroke-opacity:0.5; fill:none" points="
  1827.93,1384.24 1827.93,1365.56 
  "/>
<polyline clip-path="url(#clip772)" style="stroke:#e26f46; stroke-linecap:butt; stroke-linejoin:round; stroke-width:4; stroke-opacity:0.5; fill:none" points="
  1982.74,1384.24 1982.74,1377.45 
  "/>
<polyline clip-path="url(#clip772)" style="stroke:#e26f46; stroke-linecap:butt; stroke-linejoin:round; stroke-width:4; stroke-opacity:0.5; fill:none" points="
  2137.56,1384.24 2137.56,1381.97 
  "/>
<polyline clip-path="url(#clip772)" style="stroke:#e26f46; stroke-linecap:butt; stroke-linejoin:round; stroke-width:4; stroke-opacity:0.5; fill:none" points="
  2292.38,1384.24 2292.38,1383.54 
  "/>
<path clip-path="url(#clip770)" d="
M1929.63 248.629 L2281.64 248.629 L2281.64 93.1086 L1929.63 93.1086  Z
  " fill="#ffffff" fill-rule="evenodd" fill-opacity="1"/>
<polyline clip-path="url(#clip770)" style="stroke:#000000; stroke-linecap:butt; stroke-linejoin:round; stroke-width:4; stroke-opacity:1; fill:none" points="
  1929.63,248.629 2281.64,248.629 2281.64,93.1086 1929.63,93.1086 1929.63,248.629 
  "/>
<circle clip-path="url(#clip770)" cx="2024.44" cy="144.949" r="23.04" fill="#009af9" fill-rule="evenodd" fill-opacity="0.5" stroke="#000000" stroke-opacity="0.5" stroke-width="5.12"/>
<path clip-path="url(#clip770)" d="M2142.99 161.16 Q2142.99 161.605 2142.47 161.651 L2141.42 161.651 Q2140.34 161.651 2139.87 161.487 Q2139.4 161.323 2138.86 160.574 Q2138.54 160.106 2137.72 157.927 Q2136.92 155.726 2135.75 152.4 Q2134.6 149.074 2133.83 147.106 L2122.28 160.738 Q2121.48 161.745 2120.69 161.745 Q2120.1 161.745 2119.68 161.347 Q2119.26 160.949 2119.26 160.34 Q2119.26 159.895 2119.42 159.637 Q2119.61 159.379 2120.1 158.864 L2133.36 145.724 L2128.7 132.678 Q2127.81 130.265 2127.29 129.656 Q2126.8 129.047 2125.58 128.837 Q2125.14 128.719 2125.14 128.345 Q2125.14 127.829 2126 127.829 Q2130.64 127.829 2131.86 131.226 L2141.65 158.513 Q2142.19 160.082 2142.75 160.738 Q2142.99 161.042 2142.99 161.16 Z" fill="#000000" fill-rule="evenodd" fill-opacity="1" /><path clip-path="url(#clip770)" d="M2160.23 153.828 Q2160.28 153.243 2161.19 153.243 L2190.59 153.243 Q2191.97 153.243 2191.99 153.781 Q2191.99 154.367 2190.68 154.344 L2161.52 154.344 Q2160.23 154.367 2160.23 153.828 M2160.23 144.459 Q2160.23 143.874 2161.24 143.897 L2190.54 143.897 Q2191.97 143.897 2191.99 144.459 Q2191.99 144.998 2190.78 144.998 L2161.19 144.998 Q2160.23 144.998 2160.23 144.459 Z" fill="#000000" fill-rule="evenodd" fill-opacity="1" /><path clip-path="url(#clip770)" d="M2210.49 133.732 L2210.49 132.233 Q2216.25 132.233 2219.22 129.164 Q2220.04 129.164 2220.18 129.352 Q2220.32 129.539 2220.32 130.406 L2220.32 157.318 Q2220.32 158.747 2221.03 159.192 Q2221.73 159.637 2224.8 159.637 L2226.32 159.637 L2226.32 161.113 Q2224.63 160.972 2218.54 160.972 Q2212.45 160.972 2210.79 161.113 L2210.79 159.637 L2212.31 159.637 Q2215.33 159.637 2216.06 159.215 Q2216.79 158.77 2216.79 157.318 L2216.79 132.467 Q2214.28 133.732 2210.49 133.732 Z" fill="#000000" fill-rule="evenodd" fill-opacity="1" /><circle clip-path="url(#clip770)" cx="2024.44" cy="196.789" r="23.04" fill="#e26f46" fill-rule="evenodd" fill-opacity="0.5" stroke="#000000" stroke-opacity="0.5" stroke-width="5.12"/>
<path clip-path="url(#clip770)" d="M2142.99 213 Q2142.99 213.445 2142.47 213.491 L2141.42 213.491 Q2140.34 213.491 2139.87 213.327 Q2139.4 213.163 2138.86 212.414 Q2138.54 211.946 2137.72 209.767 Q2136.92 207.566 2135.75 204.24 Q2134.6 200.914 2133.83 198.946 L2122.28 212.578 Q2121.48 213.585 2120.69 213.585 Q2120.1 213.585 2119.68 213.187 Q2119.26 212.789 2119.26 212.18 Q2119.26 211.735 2119.42 211.477 Q2119.61 211.219 2120.1 210.704 L2133.36 197.564 L2128.7 184.518 Q2127.81 182.105 2127.29 181.496 Q2126.8 180.887 2125.58 180.677 Q2125.14 180.559 2125.14 180.185 Q2125.14 179.669 2126 179.669 Q2130.64 179.669 2131.86 183.066 L2141.65 210.353 Q2142.19 211.922 2142.75 212.578 Q2142.99 212.882 2142.99 213 Z" fill="#000000" fill-rule="evenodd" fill-opacity="1" /><path clip-path="url(#clip770)" d="M2160.23 205.668 Q2160.28 205.083 2161.19 205.083 L2190.59 205.083 Q2191.97 205.083 2191.99 205.621 Q2191.99 206.207 2190.68 206.184 L2161.52 206.184 Q2160.23 206.207 2160.23 205.668 M2160.23 196.299 Q2160.23 195.714 2161.24 195.737 L2190.54 195.737 Q2191.97 195.737 2191.99 196.299 Q2191.99 196.838 2190.78 196.838 L2161.19 196.838 Q2160.23 196.838 2160.23 196.299 Z" fill="#000000" fill-rule="evenodd" fill-opacity="1" /><path clip-path="url(#clip770)" d="M2210.49 205.036 L2210.49 203.56 L2225.22 181.051 Q2225.59 180.466 2226.18 180.489 Q2226.72 180.489 2226.83 180.7 Q2226.95 180.911 2226.95 181.731 L2226.95 203.56 L2231.75 203.56 L2231.75 205.036 L2226.95 205.036 L2226.95 209.205 Q2226.95 210.587 2227.51 211.032 Q2228.1 211.477 2230.58 211.477 L2231.59 211.477 L2231.59 212.953 Q2229.62 212.812 2225.08 212.812 Q2220.56 212.812 2218.59 212.953 L2218.59 211.477 L2219.6 211.477 Q2222.08 211.477 2222.66 211.055 Q2223.25 210.61 2223.25 209.205 L2223.25 205.036 L2210.49 205.036 M2211.84 203.56 L2223.53 203.56 L2223.53 185.666 L2211.84 203.56 Z" fill="#000000" fill-rule="evenodd" fill-opacity="1" /></svg>
