<?xml version="1.0" encoding="utf-8"?>
<svg xmlns="http://www.w3.org/2000/svg" xmlns:xlink="http://www.w3.org/1999/xlink" width="600" height="400" viewBox="0 0 2400 1600">
<defs>
  <clipPath id="clip670">
    <rect x="0" y="0" width="2400" height="1600"/>
  </clipPath>
</defs>
<path clip-path="url(#clip670)" d="
M0 1600 L2400 1600 L2400 0 L0 0  Z
  " fill="#ffffff" fill-rule="evenodd" fill-opacity="1"/>
<defs>
  <clipPath id="clip671">
    <rect x="480" y="0" width="1681" height="1600"/>
  </clipPath>
</defs>
<defs>
  <clipPath id="clip672">
    <rect x="81" y="1261" width="701" height="235"/>
  </clipPath>
</defs>
<path clip-path="url(#clip670)" d="
M219.38 1423.18 L2352.76 1423.18 L2352.76 47.2441 L219.38 47.2441  Z
  " fill="#ffffff" fill-rule="evenodd" fill-opacity="1"/>
<defs>
  <clipPath id="clip673">
    <rect x="219" y="47" width="2134" height="1377"/>
  </clipPath>
</defs>
<polyline clip-path="url(#clip673)" style="stroke:#000000; stroke-linecap:butt; stroke-linejoin:round; stroke-width:2; stroke-opacity:0.1; fill:none" points="
  316.352,1423.18 316.352,47.2441 
  "/>
<polyline clip-path="url(#clip673)" style="stroke:#000000; stroke-linecap:butt; stroke-linejoin:round; stroke-width:2; stroke-opacity:0.1; fill:none" points="
  801.21,1423.18 801.21,47.2441 
  "/>
<polyline clip-path="url(#clip673)" style="stroke:#000000; stroke-linecap:butt; stroke-linejoin:round; stroke-width:2; stroke-opacity:0.1; fill:none" points="
  1286.07,1423.18 1286.07,47.2441 
  "/>
<polyline clip-path="url(#clip673)" style="stroke:#000000; stroke-linecap:butt; stroke-linejoin:round; stroke-width:2; stroke-opacity:0.1; fill:none" points="
  1770.93,1423.18 1770.93,47.2441 
  "/>
<polyline clip-path="url(#clip673)" style="stroke:#000000; stroke-linecap:butt; stroke-linejoin:round; stroke-width:2; stroke-opacity:0.1; fill:none" points="
  2255.78,1423.18 2255.78,47.2441 
  "/>
<polyline clip-path="url(#clip670)" style="stroke:#000000; stroke-linecap:butt; stroke-linejoin:round; stroke-width:4; stroke-opacity:1; fill:none" points="
  219.38,1423.18 2352.76,1423.18 
  "/>
<polyline clip-path="url(#clip670)" style="stroke:#000000; stroke-linecap:butt; stroke-linejoin:round; stroke-width:4; stroke-opacity:1; fill:none" points="
  316.352,1423.18 316.352,1404.28 
  "/>
<polyline clip-path="url(#clip670)" style="stroke:#000000; stroke-linecap:butt; stroke-linejoin:round; stroke-width:4; stroke-opacity:1; fill:none" points="
  801.21,1423.18 801.21,1404.28 
  "/>
<polyline clip-path="url(#clip670)" style="stroke:#000000; stroke-linecap:butt; stroke-linejoin:round; stroke-width:4; stroke-opacity:1; fill:none" points="
  1286.07,1423.18 1286.07,1404.28 
  "/>
<polyline clip-path="url(#clip670)" style="stroke:#000000; stroke-linecap:butt; stroke-linejoin:round; stroke-width:4; stroke-opacity:1; fill:none" points="
  1770.93,1423.18 1770.93,1404.28 
  "/>
<polyline clip-path="url(#clip670)" style="stroke:#000000; stroke-linecap:butt; stroke-linejoin:round; stroke-width:4; stroke-opacity:1; fill:none" points="
  2255.78,1423.18 2255.78,1404.28 
  "/>
<path clip-path="url(#clip670)" d="M316.352 1454.1 Q312.741 1454.1 310.912 1457.66 Q309.106 1461.2 309.106 1468.33 Q309.106 1475.44 310.912 1479.01 Q312.741 1482.55 316.352 1482.55 Q319.986 1482.55 321.792 1479.01 Q323.62 1475.44 323.62 1468.33 Q323.62 1461.2 321.792 1457.66 Q319.986 1454.1 316.352 1454.1 M316.352 1450.39 Q322.162 1450.39 325.217 1455 Q328.296 1459.58 328.296 1468.33 Q328.296 1477.06 325.217 1481.67 Q322.162 1486.25 316.352 1486.25 Q310.542 1486.25 307.463 1481.67 Q304.407 1477.06 304.407 1468.33 Q304.407 1459.58 307.463 1455 Q310.542 1450.39 316.352 1450.39 Z" fill="#000000" fill-rule="evenodd" fill-opacity="1" /><path clip-path="url(#clip670)" d="M791.592 1481.64 L799.231 1481.64 L799.231 1455.28 L790.921 1456.95 L790.921 1452.69 L799.184 1451.02 L803.86 1451.02 L803.86 1481.64 L811.499 1481.64 L811.499 1485.58 L791.592 1485.58 L791.592 1481.64 Z" fill="#000000" fill-rule="evenodd" fill-opacity="1" /><path clip-path="url(#clip670)" d="M1280.72 1481.64 L1297.04 1481.64 L1297.04 1485.58 L1275.1 1485.58 L1275.1 1481.64 Q1277.76 1478.89 1282.34 1474.26 Q1286.95 1469.61 1288.13 1468.27 Q1290.37 1465.74 1291.25 1464.01 Q1292.16 1462.25 1292.16 1460.56 Q1292.16 1457.8 1290.21 1456.07 Q1288.29 1454.33 1285.19 1454.33 Q1282.99 1454.33 1280.54 1455.09 Q1278.11 1455.86 1275.33 1457.41 L1275.33 1452.69 Q1278.15 1451.55 1280.61 1450.97 Q1283.06 1450.39 1285.1 1450.39 Q1290.47 1450.39 1293.66 1453.08 Q1296.86 1455.77 1296.86 1460.26 Q1296.86 1462.39 1296.04 1464.31 Q1295.26 1466.2 1293.15 1468.8 Q1292.57 1469.47 1289.47 1472.69 Q1286.37 1475.88 1280.72 1481.64 Z" fill="#000000" fill-rule="evenodd" fill-opacity="1" /><path clip-path="url(#clip670)" d="M1775.17 1466.95 Q1778.53 1467.66 1780.41 1469.93 Q1782.3 1472.2 1782.3 1475.53 Q1782.3 1480.65 1778.78 1483.45 Q1775.27 1486.25 1768.78 1486.25 Q1766.61 1486.25 1764.29 1485.81 Q1762 1485.39 1759.55 1484.54 L1759.55 1480.02 Q1761.49 1481.16 1763.81 1481.74 Q1766.12 1482.32 1768.65 1482.32 Q1773.04 1482.32 1775.34 1480.58 Q1777.65 1478.84 1777.65 1475.53 Q1777.65 1472.48 1775.5 1470.77 Q1773.37 1469.03 1769.55 1469.03 L1765.52 1469.03 L1765.52 1465.19 L1769.73 1465.19 Q1773.18 1465.19 1775.01 1463.82 Q1776.84 1462.43 1776.84 1459.84 Q1776.84 1457.18 1774.94 1455.77 Q1773.07 1454.33 1769.55 1454.33 Q1767.63 1454.33 1765.43 1454.75 Q1763.23 1455.16 1760.59 1456.04 L1760.59 1451.88 Q1763.25 1451.14 1765.57 1450.77 Q1767.91 1450.39 1769.97 1450.39 Q1775.29 1450.39 1778.39 1452.83 Q1781.49 1455.23 1781.49 1459.35 Q1781.49 1462.22 1779.85 1464.21 Q1778.21 1466.18 1775.17 1466.95 Z" fill="#000000" fill-rule="evenodd" fill-opacity="1" /><path clip-path="url(#clip670)" d="M2258.79 1455.09 L2246.99 1473.54 L2258.79 1473.54 L2258.79 1455.09 M2257.57 1451.02 L2263.45 1451.02 L2263.45 1473.54 L2268.38 1473.54 L2268.38 1477.43 L2263.45 1477.43 L2263.45 1485.58 L2258.79 1485.58 L2258.79 1477.43 L2243.19 1477.43 L2243.19 1472.92 L2257.57 1451.02 Z" fill="#000000" fill-rule="evenodd" fill-opacity="1" /><path clip-path="url(#clip670)" d="M1298 1529.22 Q1298 1534.63 1296.26 1540.71 Q1294.56 1546.77 1291.85 1551.66 Q1289.15 1556.53 1285.6 1559.75 Q1282.06 1562.94 1278.68 1562.94 Q1276.52 1562.94 1274.91 1561.75 Q1273.33 1560.52 1272.46 1558.49 Q1271.59 1556.43 1271.18 1554.18 Q1270.76 1551.89 1270.76 1549.41 Q1270.76 1545.71 1271.56 1541.68 Q1272.37 1537.62 1273.72 1533.95 Q1275.07 1530.25 1276.97 1526.9 Q1278.87 1523.52 1280.97 1521.07 Q1283.09 1518.59 1285.47 1517.14 Q1287.86 1515.69 1290.08 1515.69 Q1291.69 1515.69 1292.98 1516.4 Q1294.3 1517.08 1295.14 1518.27 Q1295.97 1519.43 1296.55 1520.81 Q1297.17 1522.2 1297.46 1523.81 Q1297.75 1525.38 1297.87 1526.71 Q1298 1527.99 1298 1529.22 M1293.66 1525.13 Q1293.66 1523.48 1293.53 1522.26 Q1293.4 1521 1293.04 1519.75 Q1292.69 1518.49 1291.92 1517.82 Q1291.18 1517.14 1290.02 1517.14 Q1286.63 1517.14 1282.83 1524.06 Q1281.61 1526.22 1280.52 1529.15 Q1279.42 1532.08 1279.03 1533.47 Q1278.65 1534.85 1277.75 1538.27 L1291.53 1538.27 Q1293.66 1529.47 1293.66 1525.13 M1290.95 1540.36 L1277.23 1540.36 Q1275.1 1548.41 1275.1 1553.44 Q1275.1 1557.82 1276.01 1559.65 Q1276.94 1561.46 1278.68 1561.46 Q1280.68 1561.46 1282.54 1559.46 Q1284.41 1557.43 1286.31 1553.76 Q1288.82 1548.99 1290.95 1540.36 Z" fill="#000000" fill-rule="evenodd" fill-opacity="1" /><polyline clip-path="url(#clip673)" style="stroke:#000000; stroke-linecap:butt; stroke-linejoin:round; stroke-width:2; stroke-opacity:0.1; fill:none" points="
  219.38,1384.24 2352.76,1384.24 
  "/>
<polyline clip-path="url(#clip673)" style="stroke:#000000; stroke-linecap:butt; stroke-linejoin:round; stroke-width:2; stroke-opacity:0.1; fill:none" points="
  219.38,943.893 2352.76,943.893 
  "/>
<polyline clip-path="url(#clip673)" style="stroke:#000000; stroke-linecap:butt; stroke-linejoin:round; stroke-width:2; stroke-opacity:0.1; fill:none" points="
  219.38,503.548 2352.76,503.548 
  "/>
<polyline clip-path="url(#clip673)" style="stroke:#000000; stroke-linecap:butt; stroke-linejoin:round; stroke-width:2; stroke-opacity:0.1; fill:none" points="
  219.38,63.2027 2352.76,63.2027 
  "/>
<polyline clip-path="url(#clip670)" style="stroke:#000000; stroke-linecap:butt; stroke-linejoin:round; stroke-width:4; stroke-opacity:1; fill:none" points="
  219.38,1423.18 219.38,47.2441 
  "/>
<polyline clip-path="url(#clip670)" style="stroke:#000000; stroke-linecap:butt; stroke-linejoin:round; stroke-width:4; stroke-opacity:1; fill:none" points="
  219.38,1384.24 238.278,1384.24 
  "/>
<polyline clip-path="url(#clip670)" style="stroke:#000000; stroke-linecap:butt; stroke-linejoin:round; stroke-width:4; stroke-opacity:1; fill:none" points="
  219.38,943.893 238.278,943.893 
  "/>
<polyline clip-path="url(#clip670)" style="stroke:#000000; stroke-linecap:butt; stroke-linejoin:round; stroke-width:4; stroke-opacity:1; fill:none" points="
  219.38,503.548 238.278,503.548 
  "/>
<polyline clip-path="url(#clip670)" style="stroke:#000000; stroke-linecap:butt; stroke-linejoin:round; stroke-width:4; stroke-opacity:1; fill:none" points="
  219.38,63.2027 238.278,63.2027 
  "/>
<path clip-path="url(#clip670)" d="M126.205 1370.04 Q122.593 1370.04 120.765 1373.6 Q118.959 1377.14 118.959 1384.27 Q118.959 1391.38 120.765 1394.94 Q122.593 1398.49 126.205 1398.49 Q129.839 1398.49 131.644 1394.94 Q133.473 1391.38 133.473 1384.27 Q133.473 1377.14 131.644 1373.6 Q129.839 1370.04 126.205 1370.04 M126.205 1366.33 Q132.015 1366.33 135.07 1370.94 Q138.149 1375.52 138.149 1384.27 Q138.149 1393 135.07 1397.61 Q132.015 1402.19 126.205 1402.19 Q120.394 1402.19 117.316 1397.61 Q114.26 1393 114.26 1384.27 Q114.26 1375.52 117.316 1370.94 Q120.394 1366.33 126.205 1366.33 Z" fill="#000000" fill-rule="evenodd" fill-opacity="1" /><path clip-path="url(#clip670)" d="M146.366 1395.64 L151.251 1395.64 L151.251 1401.52 L146.366 1401.52 L146.366 1395.64 Z" fill="#000000" fill-rule="evenodd" fill-opacity="1" /><path clip-path="url(#clip670)" d="M171.436 1370.04 Q167.825 1370.04 165.996 1373.6 Q164.19 1377.14 164.19 1384.27 Q164.19 1391.38 165.996 1394.94 Q167.825 1398.49 171.436 1398.49 Q175.07 1398.49 176.876 1394.94 Q178.704 1391.38 178.704 1384.27 Q178.704 1377.14 176.876 1373.6 Q175.07 1370.04 171.436 1370.04 M171.436 1366.33 Q177.246 1366.33 180.301 1370.94 Q183.38 1375.52 183.38 1384.27 Q183.38 1393 180.301 1397.61 Q177.246 1402.19 171.436 1402.19 Q165.626 1402.19 162.547 1397.61 Q159.491 1393 159.491 1384.27 Q159.491 1375.52 162.547 1370.94 Q165.626 1366.33 171.436 1366.33 Z" fill="#000000" fill-rule="evenodd" fill-opacity="1" /><path clip-path="url(#clip670)" d="M127.2 929.692 Q123.589 929.692 121.76 933.257 Q119.955 936.798 119.955 943.928 Q119.955 951.034 121.76 954.599 Q123.589 958.141 127.2 958.141 Q130.834 958.141 132.64 954.599 Q134.468 951.034 134.468 943.928 Q134.468 936.798 132.64 933.257 Q130.834 929.692 127.2 929.692 M127.2 925.988 Q133.01 925.988 136.066 930.595 Q139.144 935.178 139.144 943.928 Q139.144 952.655 136.066 957.261 Q133.01 961.844 127.2 961.844 Q121.39 961.844 118.311 957.261 Q115.256 952.655 115.256 943.928 Q115.256 935.178 118.311 930.595 Q121.39 925.988 127.2 925.988 Z" fill="#000000" fill-rule="evenodd" fill-opacity="1" /><path clip-path="url(#clip670)" d="M147.362 955.293 L152.246 955.293 L152.246 961.173 L147.362 961.173 L147.362 955.293 Z" fill="#000000" fill-rule="evenodd" fill-opacity="1" /><path clip-path="url(#clip670)" d="M162.477 926.613 L180.834 926.613 L180.834 930.548 L166.76 930.548 L166.76 939.02 Q167.778 938.673 168.797 938.511 Q169.815 938.326 170.834 938.326 Q176.621 938.326 180.001 941.497 Q183.38 944.669 183.38 950.085 Q183.38 955.664 179.908 958.766 Q176.436 961.844 170.116 961.844 Q167.94 961.844 165.672 961.474 Q163.427 961.104 161.019 960.363 L161.019 955.664 Q163.102 956.798 165.325 957.354 Q167.547 957.909 170.024 957.909 Q174.028 957.909 176.366 955.803 Q178.704 953.696 178.704 950.085 Q178.704 946.474 176.366 944.368 Q174.028 942.261 170.024 942.261 Q168.149 942.261 166.274 942.678 Q164.422 943.094 162.477 943.974 L162.477 926.613 Z" fill="#000000" fill-rule="evenodd" fill-opacity="1" /><path clip-path="url(#clip670)" d="M117.015 516.893 L124.654 516.893 L124.654 490.527 L116.343 492.194 L116.343 487.935 L124.607 486.268 L129.283 486.268 L129.283 516.893 L136.922 516.893 L136.922 520.828 L117.015 520.828 L117.015 516.893 Z" fill="#000000" fill-rule="evenodd" fill-opacity="1" /><path clip-path="url(#clip670)" d="M146.366 514.948 L151.251 514.948 L151.251 520.828 L146.366 520.828 L146.366 514.948 Z" fill="#000000" fill-rule="evenodd" fill-opacity="1" /><path clip-path="url(#clip670)" d="M171.436 489.347 Q167.825 489.347 165.996 492.911 Q164.19 496.453 164.19 503.583 Q164.19 510.689 165.996 514.254 Q167.825 517.795 171.436 517.795 Q175.07 517.795 176.876 514.254 Q178.704 510.689 178.704 503.583 Q178.704 496.453 176.876 492.911 Q175.07 489.347 171.436 489.347 M171.436 485.643 Q177.246 485.643 180.301 490.249 Q183.38 494.833 183.38 503.583 Q183.38 512.309 180.301 516.916 Q177.246 521.499 171.436 521.499 Q165.626 521.499 162.547 516.916 Q159.491 512.309 159.491 503.583 Q159.491 494.833 162.547 490.249 Q165.626 485.643 171.436 485.643 Z" fill="#000000" fill-rule="evenodd" fill-opacity="1" /><path clip-path="url(#clip670)" d="M118.01 76.5475 L125.649 76.5475 L125.649 50.1819 L117.339 51.8486 L117.339 47.5893 L125.603 45.9227 L130.279 45.9227 L130.279 76.5475 L137.917 76.5475 L137.917 80.4827 L118.01 80.4827 L118.01 76.5475 Z" fill="#000000" fill-rule="evenodd" fill-opacity="1" /><path clip-path="url(#clip670)" d="M147.362 74.6031 L152.246 74.6031 L152.246 80.4827 L147.362 80.4827 L147.362 74.6031 Z" fill="#000000" fill-rule="evenodd" fill-opacity="1" /><path clip-path="url(#clip670)" d="M162.477 45.9227 L180.834 45.9227 L180.834 49.8579 L166.76 49.8579 L166.76 58.33 Q167.778 57.9828 168.797 57.8208 Q169.815 57.6356 170.834 57.6356 Q176.621 57.6356 180.001 60.8069 Q183.38 63.9781 183.38 69.3948 Q183.38 74.9735 179.908 78.0753 Q176.436 81.154 170.116 81.154 Q167.94 81.154 165.672 80.7836 Q163.427 80.4132 161.019 79.6725 L161.019 74.9735 Q163.102 76.1077 165.325 76.6633 Q167.547 77.2188 170.024 77.2188 Q174.028 77.2188 176.366 75.1123 Q178.704 73.0059 178.704 69.3948 Q178.704 65.7837 176.366 63.6772 Q174.028 61.5708 170.024 61.5708 Q168.149 61.5708 166.274 61.9874 Q164.422 62.4041 162.477 63.2837 L162.477 45.9227 Z" fill="#000000" fill-rule="evenodd" fill-opacity="1" /><path clip-path="url(#clip670)" d="M21.7677 848.522 L58.7206 848.522 L58.7206 840.755 Q58.7206 830.92 54.2646 826.369 Q49.8086 821.786 40.1964 821.786 Q30.6479 821.786 26.2237 826.369 Q21.7677 830.92 21.7677 840.755 L21.7677 848.522 M16.4842 854.951 L16.4842 841.742 Q16.4842 827.928 22.2451 821.467 Q27.9743 815.006 40.1964 815.006 Q52.4822 815.006 58.2432 821.499 Q64.0042 827.992 64.0042 841.742 L64.0042 854.951 L16.4842 854.951 Z" fill="#000000" fill-rule="evenodd" fill-opacity="1" /><path clip-path="url(#clip670)" d="M44.7161 774.52 L47.5806 774.52 L47.5806 801.447 Q53.6281 801.065 56.8109 797.819 Q59.9619 794.54 59.9619 788.716 Q59.9619 785.342 59.1344 782.191 Q58.3069 779.008 56.6518 775.889 L62.1899 775.889 Q63.5267 779.04 64.227 782.35 Q64.9272 785.66 64.9272 789.066 Q64.9272 797.596 59.9619 802.593 Q54.9967 807.558 46.5303 807.558 Q37.7774 807.558 32.6531 802.848 Q27.4968 798.105 27.4968 790.084 Q27.4968 782.891 32.1438 778.722 Q36.7589 774.52 44.7161 774.52 M42.9973 780.377 Q38.1912 780.44 35.3266 783.082 Q32.4621 785.692 32.4621 790.021 Q32.4621 794.922 35.2312 797.882 Q38.0002 800.811 43.0292 801.256 L42.9973 780.377 Z" fill="#000000" fill-rule="evenodd" fill-opacity="1" /><path clip-path="url(#clip670)" d="M42.4881 735.276 L64.0042 735.276 L64.0042 741.132 L42.679 741.132 Q37.6183 741.132 35.1038 743.105 Q32.5894 745.079 32.5894 749.026 Q32.5894 753.768 35.6131 756.505 Q38.6368 759.243 43.8567 759.243 L64.0042 759.243 L64.0042 765.131 L28.3562 765.131 L28.3562 759.243 L33.8944 759.243 Q30.6797 757.142 29.0883 754.309 Q27.4968 751.445 27.4968 747.721 Q27.4968 741.578 31.3163 738.427 Q35.1038 735.276 42.4881 735.276 Z" fill="#000000" fill-rule="evenodd" fill-opacity="1" /><path clip-path="url(#clip670)" d="M29.4065 700.869 L34.9447 700.869 Q33.6716 703.352 33.035 706.025 Q32.3984 708.699 32.3984 711.563 Q32.3984 715.924 33.7352 718.12 Q35.072 720.284 37.7456 720.284 Q39.7826 720.284 40.9603 718.725 Q42.1061 717.165 43.1565 712.455 L43.6021 710.449 Q44.9389 704.211 47.3897 701.601 Q49.8086 698.959 54.1691 698.959 Q59.1344 698.959 62.0308 702.906 Q64.9272 706.821 64.9272 713.696 Q64.9272 716.56 64.3543 719.68 Q63.8132 722.767 62.6992 726.204 L56.6518 726.204 Q58.3387 722.958 59.198 719.807 Q60.0256 716.656 60.0256 713.569 Q60.0256 709.431 58.6251 707.203 Q57.1929 704.975 54.6147 704.975 Q52.2276 704.975 50.9545 706.598 Q49.6813 708.19 48.5037 713.632 L48.0262 715.669 Q46.8804 721.112 44.5251 723.531 Q42.138 725.95 38.0002 725.95 Q32.9713 725.95 30.2341 722.385 Q27.4968 718.82 27.4968 712.264 Q27.4968 709.017 27.9743 706.153 Q28.4517 703.288 29.4065 700.869 Z" fill="#000000" fill-rule="evenodd" fill-opacity="1" /><path clip-path="url(#clip670)" d="M28.3562 689.634 L28.3562 683.777 L64.0042 683.777 L64.0042 689.634 L28.3562 689.634 M14.479 689.634 L14.479 683.777 L21.895 683.777 L21.895 689.634 L14.479 689.634 Z" fill="#000000" fill-rule="evenodd" fill-opacity="1" /><path clip-path="url(#clip670)" d="M18.2347 665.73 L28.3562 665.73 L28.3562 653.667 L32.9077 653.667 L32.9077 665.73 L52.2594 665.73 Q56.6199 665.73 57.8613 664.553 Q59.1026 663.343 59.1026 659.683 L59.1026 653.667 L64.0042 653.667 L64.0042 659.683 Q64.0042 666.462 61.4897 669.04 Q58.9434 671.619 52.2594 671.619 L32.9077 671.619 L32.9077 675.915 L28.3562 675.915 L28.3562 671.619 L18.2347 671.619 L18.2347 665.73 Z" fill="#000000" fill-rule="evenodd" fill-opacity="1" /><path clip-path="url(#clip670)" d="M67.3143 631.133 Q73.68 633.615 75.6216 635.971 Q77.5631 638.326 77.5631 642.273 L77.5631 646.951 L72.6615 646.951 L72.6615 643.514 Q72.6615 641.095 71.5157 639.758 Q70.3699 638.421 66.1048 636.798 L63.4312 635.748 L28.3562 650.166 L28.3562 643.96 L56.238 632.82 L28.3562 621.68 L28.3562 615.473 L67.3143 631.133 Z" fill="#000000" fill-rule="evenodd" fill-opacity="1" /><polyline clip-path="url(#clip673)" style="stroke:#009af9; stroke-linecap:butt; stroke-linejoin:round; stroke-width:12; stroke-opacity:1; fill:none" points="
  316.352,1384.24 316.837,933.115 317.321,681.096 317.806,522.031 318.291,412.327 318.776,332.797 319.261,273.323 319.746,227.942 320.231,192.87 320.716,165.57 
  321.2,144.269 321.685,127.687 322.17,114.875 322.655,105.114 323.14,97.8477 323.625,92.6407 324.11,89.1467 324.594,87.0869 325.079,86.2347 325.564,86.404 
  326.049,87.4409 326.534,89.2172 327.019,91.6251 327.504,94.5739 327.988,97.9864 328.473,101.797 328.958,105.949 329.443,110.394 329.928,115.091 330.413,120.002 
  330.898,125.098 331.382,130.349 331.867,135.733 332.352,141.227 332.837,146.815 333.322,152.479 333.807,158.206 334.292,163.983 334.776,169.798 335.261,175.642 
  335.746,181.506 336.231,187.383 336.716,193.266 337.201,199.148 337.686,205.024 338.17,210.891 338.655,216.742 339.14,222.576 339.625,228.387 340.11,234.175 
  340.595,239.935 341.08,245.666 341.564,251.366 342.049,257.032 342.534,262.664 343.019,268.26 343.504,273.819 343.989,279.34 344.474,284.822 344.958,290.265 
  345.443,295.667 345.928,301.029 346.413,306.349 346.898,311.628 347.383,316.866 347.868,322.061 348.352,327.215 348.837,332.326 349.322,337.396 349.807,342.423 
  350.292,347.409 350.777,352.353 351.262,357.255 351.746,362.116 352.231,366.935 352.716,371.714 353.201,376.451 353.686,381.148 354.171,385.805 354.656,390.422 
  355.14,394.999 355.625,399.537 356.11,404.036 356.595,408.496 357.08,412.918 357.565,417.302 358.05,421.649 358.534,425.958 359.019,430.23 359.504,434.466 
  359.989,438.666 360.474,442.829 360.959,446.958 361.444,451.051 361.928,455.11 362.413,459.135 362.898,463.125 363.383,467.082 363.868,471.006 364.353,474.897 
  364.838,478.755 365.322,482.582 365.807,486.377 366.292,490.14 366.777,493.872 367.262,497.574 367.747,501.245 368.232,504.887 368.716,508.498 369.201,512.081 
  369.686,515.634 370.171,519.159 370.656,522.655 371.141,526.124 371.626,529.564 372.11,532.978 372.595,536.364 373.08,539.724 373.565,543.057 374.05,546.364 
  374.535,549.645 375.02,552.901 375.504,556.131 375.989,559.337 376.474,562.517 376.959,565.674 377.444,568.806 377.929,571.914 378.414,574.999 378.898,578.06 
  379.383,581.099 379.868,584.114 380.353,587.107 380.838,590.078 381.323,593.026 381.808,595.953 382.292,598.858 382.777,601.742 383.262,604.605 383.747,607.447 
  384.232,610.268 384.717,613.069 385.202,615.85 385.686,618.61 386.171,621.351 386.656,624.073 387.141,626.775 387.626,629.458 388.111,632.121 388.596,634.767 
  389.081,637.393 389.565,640.002 390.05,642.592 390.535,645.165 391.02,647.719 391.505,650.256 391.99,652.776 392.475,655.278 392.959,657.764 393.444,660.232 
  393.929,662.684 394.414,665.119 394.899,667.538 395.384,669.941 395.869,672.328 396.353,674.699 396.838,677.055 397.323,679.395 397.808,681.719 398.293,684.028 
  398.778,686.323 399.263,688.602 399.747,690.866 400.232,693.116 400.717,695.352 401.202,697.573 401.687,699.78 402.172,701.973 402.657,704.152 403.141,706.317 
  403.626,708.469 404.111,710.607 404.596,712.731 405.081,714.843 405.566,716.941 406.051,719.027 406.535,721.099 407.02,723.159 407.505,725.206 407.99,727.24 
  408.475,729.263 408.96,731.272 409.445,733.27 409.929,735.256 410.414,737.23 410.899,739.191 411.384,741.142 411.869,743.08 412.354,745.007 412.839,746.923 
  413.323,748.827 413.808,750.72 414.293,752.602 414.778,754.474 415.263,756.334 415.748,758.183 416.233,760.022 416.717,761.85 417.202,763.667 417.687,765.474 
  418.172,767.271 418.657,769.058 419.142,770.834 419.627,772.601 420.111,774.357 420.596,776.104 421.081,777.84 421.566,779.567 422.051,781.285 422.536,782.992 
  423.021,784.691 423.505,786.38 423.99,788.059 424.475,789.73 424.96,791.391 425.445,793.043 425.93,794.686 426.415,796.321 426.899,797.946 427.384,799.563 
  427.869,801.171 428.354,802.77 428.839,804.361 429.324,805.943 429.809,807.517 430.293,809.083 430.778,810.64 431.263,812.189 431.748,813.73 432.233,815.263 
  432.718,816.787 433.203,818.304 433.687,819.813 434.172,821.314 434.657,822.808 435.142,824.293 435.627,825.771 436.112,827.242 436.597,828.705 437.081,830.16 
  437.566,831.609 438.051,833.049 438.536,834.483 439.021,835.909 439.506,837.328 439.991,838.74 440.475,840.145 440.96,841.543 441.445,842.934 441.93,844.318 
  442.415,845.695 442.9,847.065 443.385,848.429 443.869,849.786 444.354,851.136 444.839,852.48 445.324,853.817 445.809,855.148 446.294,856.472 446.779,857.79 
  447.263,859.101 447.748,860.406 448.233,861.705 448.718,862.998 449.203,864.284 449.688,865.565 450.173,866.839 450.657,868.107 451.142,869.37 451.627,870.626 
  452.112,871.877 452.597,873.121 453.082,874.36 453.567,875.593 454.051,876.82 454.536,878.042 455.021,879.258 455.506,880.468 455.991,881.673 456.476,882.872 
  456.961,884.066 457.445,885.254 457.93,886.437 458.415,887.614 458.9,888.786 459.385,889.953 459.87,891.115 460.355,892.271 460.84,893.422 461.324,894.568 
  461.809,895.709 462.294,896.845 462.779,897.975 463.264,899.101 463.749,900.222 464.234,901.338 464.718,902.448 465.203,903.554 465.688,904.655 466.173,905.752 
  466.658,906.843 467.143,907.93 467.628,909.012 468.112,910.089 468.597,911.162 469.082,912.23 469.567,913.293 470.052,914.352 470.537,915.406 471.022,916.456 
  471.506,917.501 471.991,918.542 472.476,919.579 472.961,920.611 473.446,921.638 473.931,922.662 474.416,923.681 474.9,924.695 475.385,925.706 475.87,926.712 
  476.355,927.714 476.84,928.712 477.325,929.706 477.81,930.695 478.294,931.681 478.779,932.662 479.264,933.64 479.749,934.613 480.234,935.583 480.719,936.548 
  481.204,937.51 481.688,938.467 482.173,939.421 482.658,940.371 483.143,941.317 483.628,942.259 484.113,943.197 484.598,944.132 485.082,945.063 485.567,945.99 
  486.052,946.913 486.537,947.833 487.022,948.749 487.507,949.661 487.992,950.57 488.476,951.475 488.961,952.377 489.446,953.275 489.931,954.17 490.416,955.061 
  490.901,955.948 491.386,956.832 491.87,957.713 492.355,958.59 492.84,959.464 493.325,960.335 493.81,961.202 494.295,962.065 494.78,962.926 495.264,963.783 
  495.749,964.637 496.234,965.487 496.719,966.335 497.204,967.179 497.689,968.02 498.174,968.857 498.658,969.692 499.143,970.523 499.628,971.351 500.113,972.176 
  500.598,972.998 501.083,973.817 501.568,974.633 502.052,975.446 502.537,976.255 503.022,977.062 503.507,977.866 503.992,978.667 504.477,979.464 504.962,980.259 
  505.446,981.051 505.931,981.84 506.416,982.626 506.901,983.41 507.386,984.19 507.871,984.967 508.356,985.742 508.84,986.514 509.325,987.283 509.81,988.049 
  510.295,988.813 510.78,989.573 511.265,990.331 511.75,991.087 512.234,991.839 512.719,992.589 513.204,993.336 513.689,994.081 514.174,994.823 514.659,995.562 
  515.144,996.298 515.628,997.032 516.113,997.764 516.598,998.493 517.083,999.219 517.568,999.943 518.053,1000.66 518.538,1001.38 519.022,1002.1 519.507,1002.81 
  519.992,1003.52 520.477,1004.23 520.962,1004.94 521.447,1005.64 521.932,1006.34 522.416,1007.04 522.901,1007.74 523.386,1008.43 523.871,1009.12 524.356,1009.81 
  524.841,1010.5 525.326,1011.18 525.81,1011.87 526.295,1012.55 526.78,1013.22 527.265,1013.9 527.75,1014.57 528.235,1015.24 528.72,1015.91 529.204,1016.58 
  529.689,1017.24 530.174,1017.9 530.659,1018.56 531.144,1019.22 531.629,1019.88 532.114,1020.53 532.599,1021.18 533.083,1021.83 533.568,1022.48 534.053,1023.12 
  534.538,1023.76 535.023,1024.4 535.508,1025.04 535.993,1025.68 536.477,1026.31 536.962,1026.94 537.447,1027.57 537.932,1028.2 538.417,1028.82 538.902,1029.45 
  539.387,1030.07 539.871,1030.69 540.356,1031.31 540.841,1031.92 541.326,1032.53 541.811,1033.15 542.296,1033.76 542.781,1034.36 543.265,1034.97 543.75,1035.57 
  544.235,1036.17 544.72,1036.77 545.205,1037.37 545.69,1037.97 546.175,1038.56 546.659,1039.15 547.144,1039.74 547.629,1040.33 548.114,1040.92 548.599,1041.5 
  549.084,1042.09 549.569,1042.67 550.053,1043.25 550.538,1043.83 551.023,1044.4 551.508,1044.98 551.993,1045.55 552.478,1046.12 552.963,1046.69 553.447,1047.25 
  553.932,1047.82 554.417,1048.38 554.902,1048.94 555.387,1049.5 555.872,1050.06 556.357,1050.62 556.841,1051.17 557.326,1051.72 557.811,1052.28 558.296,1052.83 
  558.781,1053.37 559.266,1053.92 559.751,1054.46 560.235,1055.01 560.72,1055.55 561.205,1056.09 561.69,1056.63 562.175,1057.16 562.66,1057.7 563.145,1058.23 
  563.629,1058.76 564.114,1059.29 564.599,1059.82 565.084,1060.35 565.569,1060.87 566.054,1061.4 566.539,1061.92 567.023,1062.44 567.508,1062.96 567.993,1063.47 
  568.478,1063.99 568.963,1064.51 569.448,1065.02 569.933,1065.53 570.417,1066.04 570.902,1066.55 571.387,1067.05 571.872,1067.56 572.357,1068.06 572.842,1068.57 
  573.327,1069.07 573.811,1069.57 574.296,1070.07 574.781,1070.56 575.266,1071.06 575.751,1071.55 576.236,1072.04 576.721,1072.53 577.205,1073.02 577.69,1073.51 
  578.175,1074 578.66,1074.48 579.145,1074.97 579.63,1075.45 580.115,1075.93 580.599,1076.41 581.084,1076.89 581.569,1077.37 582.054,1077.84 582.539,1078.32 
  583.024,1078.79 583.509,1079.26 583.993,1079.73 584.478,1080.2 584.963,1080.67 585.448,1081.13 585.933,1081.6 586.418,1082.06 586.903,1082.53 587.387,1082.99 
  587.872,1083.45 588.357,1083.91 588.842,1084.36 589.327,1084.82 589.812,1085.27 590.297,1085.73 590.781,1086.18 591.266,1086.63 591.751,1087.08 592.236,1087.53 
  592.721,1087.98 593.206,1088.42 593.691,1088.87 594.175,1089.31 594.66,1089.75 595.145,1090.2 595.63,1090.64 596.115,1091.07 596.6,1091.51 597.085,1091.95 
  597.569,1092.38 598.054,1092.82 598.539,1093.25 599.024,1093.68 599.509,1094.11 599.994,1094.54 600.479,1094.97 600.964,1095.4 601.448,1095.82 601.933,1096.25 
  602.418,1096.67 602.903,1097.09 603.388,1097.52 603.873,1097.94 604.358,1098.36 604.842,1098.77 605.327,1099.19 605.812,1099.61 606.297,1100.02 606.782,1100.43 
  607.267,1100.85 607.752,1101.26 608.236,1101.67 608.721,1102.08 609.206,1102.49 609.691,1102.89 610.176,1103.3 610.661,1103.7 611.146,1104.11 611.63,1104.51 
  612.115,1104.91 612.6,1105.31 613.085,1105.71 613.57,1106.11 614.055,1106.51 614.54,1106.91 615.024,1107.3 615.509,1107.7 615.994,1108.09 616.479,1108.48 
  616.964,1108.87 617.449,1109.27 617.934,1109.66 618.418,1110.04 618.903,1110.43 619.388,1110.82 619.873,1111.2 620.358,1111.59 620.843,1111.97 621.328,1112.35 
  621.812,1112.74 622.297,1113.12 622.782,1113.5 623.267,1113.87 623.752,1114.25 624.237,1114.63 624.722,1115.01 625.206,1115.38 625.691,1115.75 626.176,1116.13 
  626.661,1116.5 627.146,1116.87 627.631,1117.24 628.116,1117.61 628.6,1117.98 629.085,1118.35 629.57,1118.71 630.055,1119.08 630.54,1119.44 631.025,1119.81 
  631.51,1120.17 631.994,1120.53 632.479,1120.89 632.964,1121.25 633.449,1121.61 633.934,1121.97 634.419,1122.33 634.904,1122.69 635.388,1123.04 635.873,1123.4 
  636.358,1123.75 636.843,1124.1 637.328,1124.46 637.813,1124.81 638.298,1125.16 638.782,1125.51 639.267,1125.86 639.752,1126.21 640.237,1126.55 640.722,1126.9 
  641.207,1127.24 641.692,1127.59 642.176,1127.93 642.661,1128.28 643.146,1128.62 643.631,1128.96 644.116,1129.3 644.601,1129.64 645.086,1129.98 645.57,1130.32 
  646.055,1130.66 646.54,1130.99 647.025,1131.33 647.51,1131.66 647.995,1132 648.48,1132.33 648.964,1132.66 649.449,1132.99 649.934,1133.33 650.419,1133.66 
  650.904,1133.99 651.389,1134.31 651.874,1134.64 652.358,1134.97 652.843,1135.3 653.328,1135.62 653.813,1135.95 654.298,1136.27 654.783,1136.59 655.268,1136.92 
  655.752,1137.24 656.237,1137.56 656.722,1137.88 657.207,1138.2 657.692,1138.52 658.177,1138.83 658.662,1139.15 659.146,1139.47 659.631,1139.78 660.116,1140.1 
  660.601,1140.41 661.086,1140.73 661.571,1141.04 662.056,1141.35 662.54,1141.66 663.025,1141.97 663.51,1142.28 663.995,1142.59 664.48,1142.9 664.965,1143.21 
  665.45,1143.52 665.934,1143.82 666.419,1144.13 666.904,1144.44 667.389,1144.74 667.874,1145.04 668.359,1145.35 668.844,1145.65 669.328,1145.95 669.813,1146.25 
  670.298,1146.55 670.783,1146.85 671.268,1147.15 671.753,1147.45 672.238,1147.75 672.723,1148.04 673.207,1148.34 673.692,1148.64 674.177,1148.93 674.662,1149.22 
  675.147,1149.52 675.632,1149.81 676.117,1150.1 676.601,1150.4 677.086,1150.69 677.571,1150.98 678.056,1151.27 678.541,1151.56 679.026,1151.84 679.511,1152.13 
  679.995,1152.42 680.48,1152.71 680.965,1152.99 681.45,1153.28 681.935,1153.56 682.42,1153.85 682.905,1154.13 683.389,1154.41 683.874,1154.69 684.359,1154.98 
  684.844,1155.26 685.329,1155.54 685.814,1155.82 686.299,1156.1 686.783,1156.37 687.268,1156.65 687.753,1156.93 688.238,1157.21 688.723,1157.48 689.208,1157.76 
  689.693,1158.03 690.177,1158.31 690.662,1158.58 691.147,1158.85 691.632,1159.13 692.117,1159.4 692.602,1159.67 693.087,1159.94 693.571,1160.21 694.056,1160.48 
  694.541,1160.75 695.026,1161.02 695.511,1161.28 695.996,1161.55 696.481,1161.82 696.965,1162.09 697.45,1162.35 697.935,1162.62 698.42,1162.88 698.905,1163.14 
  699.39,1163.41 699.875,1163.67 700.359,1163.93 700.844,1164.19 701.329,1164.46 701.814,1164.72 702.299,1164.98 702.784,1165.24 703.269,1165.49 703.753,1165.75 
  704.238,1166.01 704.723,1166.27 705.208,1166.52 705.693,1166.78 706.178,1167.04 706.663,1167.29 707.147,1167.55 707.632,1167.8 708.117,1168.05 708.602,1168.31 
  709.087,1168.56 709.572,1168.81 710.057,1169.06 710.541,1169.31 711.026,1169.56 711.511,1169.81 711.996,1170.06 712.481,1170.31 712.966,1170.56 713.451,1170.81 
  713.935,1171.06 714.42,1171.3 714.905,1171.55 715.39,1171.79 715.875,1172.04 716.36,1172.28 716.845,1172.53 717.329,1172.77 717.814,1173.02 718.299,1173.26 
  718.784,1173.5 719.269,1173.74 719.754,1173.98 720.239,1174.23 720.723,1174.47 721.208,1174.71 721.693,1174.95 722.178,1175.18 722.663,1175.42 723.148,1175.66 
  723.633,1175.9 724.117,1176.13 724.602,1176.37 725.087,1176.61 725.572,1176.84 726.057,1177.08 726.542,1177.31 727.027,1177.55 727.511,1177.78 727.996,1178.01 
  728.481,1178.25 728.966,1178.48 729.451,1178.71 729.936,1178.94 730.421,1179.17 730.905,1179.4 731.39,1179.63 731.875,1179.86 732.36,1180.09 732.845,1180.32 
  733.33,1180.55 733.815,1180.78 734.299,1181 734.784,1181.23 735.269,1181.46 735.754,1181.68 736.239,1181.91 736.724,1182.13 737.209,1182.36 737.693,1182.58 
  738.178,1182.8 738.663,1183.03 739.148,1183.25 739.633,1183.47 740.118,1183.7 740.603,1183.92 741.087,1184.14 741.572,1184.36 742.057,1184.58 742.542,1184.8 
  743.027,1185.02 743.512,1185.24 743.997,1185.46 744.482,1185.67 744.966,1185.89 745.451,1186.11 745.936,1186.33 746.421,1186.54 746.906,1186.76 747.391,1186.97 
  747.876,1187.19 748.36,1187.4 748.845,1187.62 749.33,1187.83 749.815,1188.04 750.3,1188.26 750.785,1188.47 751.27,1188.68 751.754,1188.89 752.239,1189.11 
  752.724,1189.32 753.209,1189.53 753.694,1189.74 754.179,1189.95 754.664,1190.16 755.148,1190.37 755.633,1190.58 756.118,1190.78 756.603,1190.99 757.088,1191.2 
  757.573,1191.41 758.058,1191.61 758.542,1191.82 759.027,1192.03 759.512,1192.23 759.997,1192.44 760.482,1192.64 760.967,1192.85 761.452,1193.05 761.936,1193.25 
  762.421,1193.46 762.906,1193.66 763.391,1193.86 763.876,1194.06 764.361,1194.27 764.846,1194.47 765.33,1194.67 765.815,1194.87 766.3,1195.07 766.785,1195.27 
  767.27,1195.47 767.755,1195.67 768.24,1195.87 768.724,1196.06 769.209,1196.26 769.694,1196.46 770.179,1196.66 770.664,1196.85 771.149,1197.05 771.634,1197.25 
  772.118,1197.44 772.603,1197.64 773.088,1197.83 773.573,1198.03 774.058,1198.22 774.543,1198.42 775.028,1198.61 775.512,1198.8 775.997,1199 776.482,1199.19 
  776.967,1199.38 777.452,1199.57 777.937,1199.76 778.422,1199.96 778.906,1200.15 779.391,1200.34 779.876,1200.53 780.361,1200.72 780.846,1200.91 781.331,1201.1 
  781.816,1201.28 782.3,1201.47 782.785,1201.66 783.27,1201.85 783.755,1202.04 784.24,1202.22 784.725,1202.41 785.21,1202.6 785.694,1202.78 786.179,1202.97 
  786.664,1203.15 787.149,1203.34 787.634,1203.52 788.119,1203.71 788.604,1203.89 789.088,1204.08 789.573,1204.26 790.058,1204.44 790.543,1204.63 791.028,1204.81 
  791.513,1204.99 791.998,1205.17 792.482,1205.35 792.967,1205.53 793.452,1205.72 793.937,1205.9 794.422,1206.08 794.907,1206.26 795.392,1206.44 795.876,1206.61 
  796.361,1206.79 796.846,1206.97 797.331,1207.15 797.816,1207.33 798.301,1207.51 798.786,1207.68 799.27,1207.86 799.755,1208.04 800.24,1208.21 800.725,1208.39 
  801.21,1208.57 801.695,1208.74 802.18,1208.92 802.664,1209.09 803.149,1209.27 803.634,1209.44 804.119,1209.61 804.604,1209.79 805.089,1209.96 805.574,1210.13 
  806.058,1210.31 806.543,1210.48 807.028,1210.65 807.513,1210.82 807.998,1211 808.483,1211.17 808.968,1211.34 809.452,1211.51 809.937,1211.68 810.422,1211.85 
  810.907,1212.02 811.392,1212.19 811.877,1212.36 812.362,1212.53 812.847,1212.7 813.331,1212.86 813.816,1213.03 814.301,1213.2 814.786,1213.37 815.271,1213.53 
  815.756,1213.7 816.241,1213.87 816.725,1214.03 817.21,1214.2 817.695,1214.37 818.18,1214.53 818.665,1214.7 819.15,1214.86 819.635,1215.03 820.119,1215.19 
  820.604,1215.36 821.089,1215.52 821.574,1215.68 822.059,1215.85 822.544,1216.01 823.029,1216.17 823.513,1216.33 823.998,1216.5 824.483,1216.66 824.968,1216.82 
  825.453,1216.98 825.938,1217.14 826.423,1217.3 826.907,1217.46 827.392,1217.62 827.877,1217.78 828.362,1217.94 828.847,1218.1 829.332,1218.26 829.817,1218.42 
  830.301,1218.58 830.786,1218.74 831.271,1218.9 831.756,1219.05 832.241,1219.21 832.726,1219.37 833.211,1219.53 833.695,1219.68 834.18,1219.84 834.665,1220 
  835.15,1220.15 835.635,1220.31 836.12,1220.46 836.605,1220.62 837.089,1220.77 837.574,1220.93 838.059,1221.08 838.544,1221.24 839.029,1221.39 839.514,1221.55 
  839.999,1221.7 840.483,1221.85 840.968,1222.01 841.453,1222.16 841.938,1222.31 842.423,1222.46 842.908,1222.61 843.393,1222.77 843.877,1222.92 844.362,1223.07 
  844.847,1223.22 845.332,1223.37 845.817,1223.52 846.302,1223.67 846.787,1223.82 847.271,1223.97 847.756,1224.12 848.241,1224.27 848.726,1224.42 849.211,1224.57 
  849.696,1224.72 850.181,1224.87 850.665,1225.01 851.15,1225.16 851.635,1225.31 852.12,1225.46 852.605,1225.6 853.09,1225.75 853.575,1225.9 854.059,1226.04 
  854.544,1226.19 855.029,1226.34 855.514,1226.48 855.999,1226.63 856.484,1226.77 856.969,1226.92 857.453,1227.06 857.938,1227.21 858.423,1227.35 858.908,1227.5 
  859.393,1227.64 859.878,1227.78 860.363,1227.93 860.847,1228.07 861.332,1228.21 861.817,1228.36 862.302,1228.5 862.787,1228.64 863.272,1228.78 863.757,1228.92 
  864.241,1229.07 864.726,1229.21 865.211,1229.35 865.696,1229.49 866.181,1229.63 866.666,1229.77 867.151,1229.91 867.635,1230.05 868.12,1230.19 868.605,1230.33 
  869.09,1230.47 869.575,1230.61 870.06,1230.75 870.545,1230.89 871.029,1231.03 871.514,1231.16 871.999,1231.3 872.484,1231.44 872.969,1231.58 873.454,1231.72 
  873.939,1231.85 874.423,1231.99 874.908,1232.13 875.393,1232.26 875.878,1232.4 876.363,1232.54 876.848,1232.67 877.333,1232.81 877.817,1232.94 878.302,1233.08 
  878.787,1233.21 879.272,1233.35 879.757,1233.48 880.242,1233.62 880.727,1233.75 881.211,1233.89 881.696,1234.02 882.181,1234.15 882.666,1234.29 883.151,1234.42 
  883.636,1234.55 884.121,1234.69 884.606,1234.82 885.09,1234.95 885.575,1235.08 886.06,1235.22 886.545,1235.35 887.03,1235.48 887.515,1235.61 888,1235.74 
  888.484,1235.87 888.969,1236 889.454,1236.13 889.939,1236.26 890.424,1236.39 890.909,1236.52 891.394,1236.65 891.878,1236.78 892.363,1236.91 892.848,1237.04 
  893.333,1237.17 893.818,1237.3 894.303,1237.43 894.788,1237.56 895.272,1237.69 895.757,1237.81 896.242,1237.94 896.727,1238.07 897.212,1238.2 897.697,1238.32 
  898.182,1238.45 898.666,1238.58 899.151,1238.71 899.636,1238.83 900.121,1238.96 900.606,1239.08 901.091,1239.21 901.576,1239.34 902.06,1239.46 902.545,1239.59 
  903.03,1239.71 903.515,1239.84 904,1239.96 904.485,1240.09 904.97,1240.21 905.454,1240.34 905.939,1240.46 906.424,1240.58 906.909,1240.71 907.394,1240.83 
  907.879,1240.95 908.364,1241.08 908.848,1241.2 909.333,1241.32 909.818,1241.45 910.303,1241.57 910.788,1241.69 911.273,1241.81 911.758,1241.93 912.242,1242.06 
  912.727,1242.18 913.212,1242.3 913.697,1242.42 914.182,1242.54 914.667,1242.66 915.152,1242.78 915.636,1242.9 916.121,1243.02 916.606,1243.14 917.091,1243.26 
  917.576,1243.38 918.061,1243.5 918.546,1243.62 919.03,1243.74 919.515,1243.86 920,1243.98 920.485,1244.1 920.97,1244.22 921.455,1244.34 921.94,1244.45 
  922.424,1244.57 922.909,1244.69 923.394,1244.81 923.879,1244.93 924.364,1245.04 924.849,1245.16 925.334,1245.28 925.818,1245.39 926.303,1245.51 926.788,1245.63 
  927.273,1245.74 927.758,1245.86 928.243,1245.98 928.728,1246.09 929.212,1246.21 929.697,1246.32 930.182,1246.44 930.667,1246.55 931.152,1246.67 931.637,1246.78 
  932.122,1246.9 932.606,1247.01 933.091,1247.13 933.576,1247.24 934.061,1247.35 934.546,1247.47 935.031,1247.58 935.516,1247.7 936,1247.81 936.485,1247.92 
  936.97,1248.04 937.455,1248.15 937.94,1248.26 938.425,1248.37 938.91,1248.49 939.394,1248.6 939.879,1248.71 940.364,1248.82 940.849,1248.93 941.334,1249.05 
  941.819,1249.16 942.304,1249.27 942.788,1249.38 943.273,1249.49 943.758,1249.6 944.243,1249.71 944.728,1249.82 945.213,1249.93 945.698,1250.04 946.182,1250.15 
  946.667,1250.26 947.152,1250.37 947.637,1250.48 948.122,1250.59 948.607,1250.7 949.092,1250.81 949.576,1250.92 950.061,1251.03 950.546,1251.14 951.031,1251.25 
  951.516,1251.35 952.001,1251.46 952.486,1251.57 952.97,1251.68 953.455,1251.79 953.94,1251.89 954.425,1252 954.91,1252.11 955.395,1252.22 955.88,1252.32 
  956.365,1252.43 956.849,1252.54 957.334,1252.64 957.819,1252.75 958.304,1252.86 958.789,1252.96 959.274,1253.07 959.759,1253.17 960.243,1253.28 960.728,1253.38 
  961.213,1253.49 961.698,1253.6 962.183,1253.7 962.668,1253.81 963.153,1253.91 963.637,1254.01 964.122,1254.12 964.607,1254.22 965.092,1254.33 965.577,1254.43 
  966.062,1254.54 966.547,1254.64 967.031,1254.74 967.516,1254.85 968.001,1254.95 968.486,1255.05 968.971,1255.16 969.456,1255.26 969.941,1255.36 970.425,1255.46 
  970.91,1255.57 971.395,1255.67 971.88,1255.77 972.365,1255.87 972.85,1255.98 973.335,1256.08 973.819,1256.18 974.304,1256.28 974.789,1256.38 975.274,1256.48 
  975.759,1256.59 976.244,1256.69 976.729,1256.79 977.213,1256.89 977.698,1256.99 978.183,1257.09 978.668,1257.19 979.153,1257.29 979.638,1257.39 980.123,1257.49 
  980.607,1257.59 981.092,1257.69 981.577,1257.79 982.062,1257.89 982.547,1257.99 983.032,1258.09 983.517,1258.18 984.001,1258.28 984.486,1258.38 984.971,1258.48 
  985.456,1258.58 985.941,1258.68 986.426,1258.78 986.911,1258.87 987.395,1258.97 987.88,1259.07 988.365,1259.17 988.85,1259.27 989.335,1259.36 989.82,1259.46 
  990.305,1259.56 990.789,1259.65 991.274,1259.75 991.759,1259.85 992.244,1259.94 992.729,1260.04 993.214,1260.14 993.699,1260.23 994.183,1260.33 994.668,1260.43 
  995.153,1260.52 995.638,1260.62 996.123,1260.71 996.608,1260.81 997.093,1260.9 997.577,1261 998.062,1261.09 998.547,1261.19 999.032,1261.28 999.517,1261.38 
  1000,1261.47 1000.49,1261.57 1000.97,1261.66 1001.46,1261.76 1001.94,1261.85 1002.43,1261.94 1002.91,1262.04 1003.4,1262.13 1003.88,1262.23 1004.37,1262.32 
  1004.85,1262.41 1005.34,1262.51 1005.82,1262.6 1006.3,1262.69 1006.79,1262.78 1007.27,1262.88 1007.76,1262.97 1008.24,1263.06 1008.73,1263.15 1009.21,1263.25 
  1009.7,1263.34 1010.18,1263.43 1010.67,1263.52 1011.15,1263.62 1011.64,1263.71 1012.12,1263.8 1012.61,1263.89 1013.09,1263.98 1013.58,1264.07 1014.06,1264.16 
  1014.55,1264.25 1015.03,1264.35 1015.52,1264.44 1016,1264.53 1016.49,1264.62 1016.97,1264.71 1017.46,1264.8 1017.94,1264.89 1018.43,1264.98 1018.91,1265.07 
  1019.4,1265.16 1019.88,1265.25 1020.37,1265.34 1020.85,1265.43 1021.34,1265.52 1021.82,1265.61 1022.31,1265.69 1022.79,1265.78 1023.27,1265.87 1023.76,1265.96 
  1024.24,1266.05 1024.73,1266.14 1025.21,1266.23 1025.7,1266.31 1026.18,1266.4 1026.67,1266.49 1027.15,1266.58 1027.64,1266.67 1028.12,1266.75 1028.61,1266.84 
  1029.09,1266.93 1029.58,1267.02 1030.06,1267.1 1030.55,1267.19 1031.03,1267.28 1031.52,1267.37 1032,1267.45 1032.49,1267.54 1032.97,1267.63 1033.46,1267.71 
  1033.94,1267.8 1034.43,1267.89 1034.91,1267.97 1035.4,1268.06 1035.88,1268.14 1036.37,1268.23 1036.85,1268.32 1037.34,1268.4 1037.82,1268.49 1038.31,1268.57 
  1038.79,1268.66 1039.28,1268.74 1039.76,1268.83 1040.24,1268.91 1040.73,1269 1041.21,1269.08 1041.7,1269.17 1042.18,1269.25 1042.67,1269.34 1043.15,1269.42 
  1043.64,1269.51 1044.12,1269.59 1044.61,1269.67 1045.09,1269.76 1045.58,1269.84 1046.06,1269.93 1046.55,1270.01 1047.03,1270.09 1047.52,1270.18 1048,1270.26 
  1048.49,1270.34 1048.97,1270.43 1049.46,1270.51 1049.94,1270.59 1050.43,1270.67 1050.91,1270.76 1051.4,1270.84 1051.88,1270.92 1052.37,1271.01 1052.85,1271.09 
  1053.34,1271.17 1053.82,1271.25 1054.31,1271.33 1054.79,1271.42 1055.28,1271.5 1055.76,1271.58 1056.25,1271.66 1056.73,1271.74 1057.21,1271.82 1057.7,1271.91 
  1058.18,1271.99 1058.67,1272.07 1059.15,1272.15 1059.64,1272.23 1060.12,1272.31 1060.61,1272.39 1061.09,1272.47 1061.58,1272.55 1062.06,1272.63 1062.55,1272.71 
  1063.03,1272.79 1063.52,1272.87 1064,1272.95 1064.49,1273.03 1064.97,1273.11 1065.46,1273.19 1065.94,1273.27 1066.43,1273.35 1066.91,1273.43 1067.4,1273.51 
  1067.88,1273.59 1068.37,1273.67 1068.85,1273.75 1069.34,1273.83 1069.82,1273.91 1070.31,1273.98 1070.79,1274.06 1071.28,1274.14 1071.76,1274.22 1072.25,1274.3 
  1072.73,1274.38 1073.22,1274.46 1073.7,1274.53 1074.19,1274.61 1074.67,1274.69 1075.15,1274.77 1075.64,1274.85 1076.12,1274.92 1076.61,1275 1077.09,1275.08 
  1077.58,1275.16 1078.06,1275.23 1078.55,1275.31 1079.03,1275.39 1079.52,1275.46 1080,1275.54 1080.49,1275.62 1080.97,1275.69 1081.46,1275.77 1081.94,1275.85 
  1082.43,1275.92 1082.91,1276 1083.4,1276.08 1083.88,1276.15 1084.37,1276.23 1084.85,1276.3 1085.34,1276.38 1085.82,1276.46 1086.31,1276.53 1086.79,1276.61 
  1087.28,1276.68 1087.76,1276.76 1088.25,1276.83 1088.73,1276.91 1089.22,1276.98 1089.7,1277.06 1090.19,1277.13 1090.67,1277.21 1091.16,1277.28 1091.64,1277.36 
  1092.12,1277.43 1092.61,1277.51 1093.09,1277.58 1093.58,1277.66 1094.06,1277.73 1094.55,1277.81 1095.03,1277.88 1095.52,1277.95 1096,1278.03 1096.49,1278.1 
  1096.97,1278.17 1097.46,1278.25 1097.94,1278.32 1098.43,1278.4 1098.91,1278.47 1099.4,1278.54 1099.88,1278.62 1100.37,1278.69 1100.85,1278.76 1101.34,1278.83 
  1101.82,1278.91 1102.31,1278.98 1102.79,1279.05 1103.28,1279.13 1103.76,1279.2 1104.25,1279.27 1104.73,1279.34 1105.22,1279.42 1105.7,1279.49 1106.19,1279.56 
  1106.67,1279.63 1107.16,1279.7 1107.64,1279.78 1108.13,1279.85 1108.61,1279.92 1109.09,1279.99 1109.58,1280.06 1110.06,1280.13 1110.55,1280.21 1111.03,1280.28 
  1111.52,1280.35 1112,1280.42 1112.49,1280.49 1112.97,1280.56 1113.46,1280.63 1113.94,1280.7 1114.43,1280.77 1114.91,1280.84 1115.4,1280.91 1115.88,1280.99 
  1116.37,1281.06 1116.85,1281.13 1117.34,1281.2 1117.82,1281.27 1118.31,1281.34 1118.79,1281.41 1119.28,1281.48 1119.76,1281.55 1120.25,1281.62 1120.73,1281.69 
  1121.22,1281.76 1121.7,1281.83 1122.19,1281.89 1122.67,1281.96 1123.16,1282.03 1123.64,1282.1 1124.13,1282.17 1124.61,1282.24 1125.1,1282.31 1125.58,1282.38 
  1126.06,1282.45 1126.55,1282.52 1127.03,1282.58 1127.52,1282.65 1128,1282.72 1128.49,1282.79 1128.97,1282.86 1129.46,1282.93 1129.94,1282.99 1130.43,1283.06 
  1130.91,1283.13 1131.4,1283.2 1131.88,1283.27 1132.37,1283.33 1132.85,1283.4 1133.34,1283.47 1133.82,1283.54 1134.31,1283.6 1134.79,1283.67 1135.28,1283.74 
  1135.76,1283.81 1136.25,1283.87 1136.73,1283.94 1137.22,1284.01 1137.7,1284.08 1138.19,1284.14 1138.67,1284.21 1139.16,1284.28 1139.64,1284.34 1140.13,1284.41 
  1140.61,1284.48 1141.1,1284.54 1141.58,1284.61 1142.07,1284.67 1142.55,1284.74 1143.03,1284.81 1143.52,1284.87 1144,1284.94 1144.49,1285 1144.97,1285.07 
  1145.46,1285.14 1145.94,1285.2 1146.43,1285.27 1146.91,1285.33 1147.4,1285.4 1147.88,1285.46 1148.37,1285.53 1148.85,1285.59 1149.34,1285.66 1149.82,1285.72 
  1150.31,1285.79 1150.79,1285.85 1151.28,1285.92 1151.76,1285.98 1152.25,1286.05 1152.73,1286.11 1153.22,1286.18 1153.7,1286.24 1154.19,1286.31 1154.67,1286.37 
  1155.16,1286.44 1155.64,1286.5 1156.13,1286.56 1156.61,1286.63 1157.1,1286.69 1157.58,1286.76 1158.07,1286.82 1158.55,1286.88 1159.04,1286.95 1159.52,1287.01 
  1160,1287.08 1160.49,1287.14 1160.97,1287.2 1161.46,1287.27 1161.94,1287.33 1162.43,1287.39 1162.91,1287.46 1163.4,1287.52 1163.88,1287.58 1164.37,1287.64 
  1164.85,1287.71 1165.34,1287.77 1165.82,1287.83 1166.31,1287.9 1166.79,1287.96 1167.28,1288.02 1167.76,1288.08 1168.25,1288.15 1168.73,1288.21 1169.22,1288.27 
  1169.7,1288.33 1170.19,1288.4 1170.67,1288.46 1171.16,1288.52 1171.64,1288.58 1172.13,1288.64 1172.61,1288.71 1173.1,1288.77 1173.58,1288.83 1174.07,1288.89 
  1174.55,1288.95 1175.04,1289.01 1175.52,1289.07 1176.01,1289.14 1176.49,1289.2 1176.97,1289.26 1177.46,1289.32 1177.94,1289.38 1178.43,1289.44 1178.91,1289.5 
  1179.4,1289.56 1179.88,1289.62 1180.37,1289.69 1180.85,1289.75 1181.34,1289.81 1181.82,1289.87 1182.31,1289.93 1182.79,1289.99 1183.28,1290.05 1183.76,1290.11 
  1184.25,1290.17 1184.73,1290.23 1185.22,1290.29 1185.7,1290.35 1186.19,1290.41 1186.67,1290.47 1187.16,1290.53 1187.64,1290.59 1188.13,1290.65 1188.61,1290.71 
  1189.1,1290.77 1189.58,1290.83 1190.07,1290.89 1190.55,1290.95 1191.04,1291.01 1191.52,1291.06 1192.01,1291.12 1192.49,1291.18 1192.98,1291.24 1193.46,1291.3 
  1193.94,1291.36 1194.43,1291.42 1194.91,1291.48 1195.4,1291.54 1195.88,1291.6 1196.37,1291.65 1196.85,1291.71 1197.34,1291.77 1197.82,1291.83 1198.31,1291.89 
  1198.79,1291.95 1199.28,1292 1199.76,1292.06 1200.25,1292.12 1200.73,1292.18 1201.22,1292.24 1201.7,1292.29 1202.19,1292.35 1202.67,1292.41 1203.16,1292.47 
  1203.64,1292.53 1204.13,1292.58 1204.61,1292.64 1205.1,1292.7 1205.58,1292.76 1206.07,1292.81 1206.55,1292.87 1207.04,1292.93 1207.52,1292.99 1208.01,1293.04 
  1208.49,1293.1 1208.98,1293.16 1209.46,1293.21 1209.95,1293.27 1210.43,1293.33 1210.92,1293.38 1211.4,1293.44 1211.88,1293.5 1212.37,1293.55 1212.85,1293.61 
  1213.34,1293.67 1213.82,1293.72 1214.31,1293.78 1214.79,1293.84 1215.28,1293.89 1215.76,1293.95 1216.25,1294.01 1216.73,1294.06 1217.22,1294.12 1217.7,1294.17 
  1218.19,1294.23 1218.67,1294.29 1219.16,1294.34 1219.64,1294.4 1220.13,1294.45 1220.61,1294.51 1221.1,1294.56 1221.58,1294.62 1222.07,1294.68 1222.55,1294.73 
  1223.04,1294.79 1223.52,1294.84 1224.01,1294.9 1224.49,1294.95 1224.98,1295.01 1225.46,1295.06 1225.95,1295.12 1226.43,1295.17 1226.92,1295.23 1227.4,1295.28 
  1227.89,1295.34 1228.37,1295.39 1228.85,1295.45 1229.34,1295.5 1229.82,1295.55 1230.31,1295.61 1230.79,1295.66 1231.28,1295.72 1231.76,1295.77 1232.25,1295.83 
  1232.73,1295.88 1233.22,1295.94 1233.7,1295.99 1234.19,1296.04 1234.67,1296.1 1235.16,1296.15 1235.64,1296.21 1236.13,1296.26 1236.61,1296.31 1237.1,1296.37 
  1237.58,1296.42 1238.07,1296.47 1238.55,1296.53 1239.04,1296.58 1239.52,1296.63 1240.01,1296.69 1240.49,1296.74 1240.98,1296.79 1241.46,1296.85 1241.95,1296.9 
  1242.43,1296.95 1242.92,1297.01 1243.4,1297.06 1243.89,1297.11 1244.37,1297.17 1244.86,1297.22 1245.34,1297.27 1245.82,1297.32 1246.31,1297.38 1246.79,1297.43 
  1247.28,1297.48 1247.76,1297.53 1248.25,1297.59 1248.73,1297.64 1249.22,1297.69 1249.7,1297.74 1250.19,1297.8 1250.67,1297.85 1251.16,1297.9 1251.64,1297.95 
  1252.13,1298 1252.61,1298.06 1253.1,1298.11 1253.58,1298.16 1254.07,1298.21 1254.55,1298.26 1255.04,1298.32 1255.52,1298.37 1256.01,1298.42 1256.49,1298.47 
  1256.98,1298.52 1257.46,1298.57 1257.95,1298.63 1258.43,1298.68 1258.92,1298.73 1259.4,1298.78 1259.89,1298.83 1260.37,1298.88 1260.86,1298.93 1261.34,1298.98 
  1261.83,1299.03 1262.31,1299.09 1262.79,1299.14 1263.28,1299.19 1263.76,1299.24 1264.25,1299.29 1264.73,1299.34 1265.22,1299.39 1265.7,1299.44 1266.19,1299.49 
  1266.67,1299.54 1267.16,1299.59 1267.64,1299.64 1268.13,1299.69 1268.61,1299.74 1269.1,1299.79 1269.58,1299.84 1270.07,1299.89 1270.55,1299.94 1271.04,1299.99 
  1271.52,1300.04 1272.01,1300.09 1272.49,1300.14 1272.98,1300.19 1273.46,1300.24 1273.95,1300.29 1274.43,1300.34 1274.92,1300.39 1275.4,1300.44 1275.89,1300.49 
  1276.37,1300.54 1276.86,1300.59 1277.34,1300.64 1277.83,1300.69 1278.31,1300.74 1278.8,1300.79 1279.28,1300.84 1279.76,1300.89 1280.25,1300.94 1280.73,1300.99 
  1281.22,1301.03 1281.7,1301.08 1282.19,1301.13 1282.67,1301.18 1283.16,1301.23 1283.64,1301.28 1284.13,1301.33 1284.61,1301.38 1285.1,1301.42 1285.58,1301.47 
  1286.07,1301.52 1286.55,1301.57 1287.04,1301.62 1287.52,1301.67 1288.01,1301.72 1288.49,1301.76 1288.98,1301.81 1289.46,1301.86 1289.95,1301.91 1290.43,1301.96 
  1290.92,1302 1291.4,1302.05 1291.89,1302.1 1292.37,1302.15 1292.86,1302.2 1293.34,1302.24 1293.83,1302.29 1294.31,1302.34 1294.8,1302.39 1295.28,1302.44 
  1295.77,1302.48 1296.25,1302.53 1296.73,1302.58 1297.22,1302.63 1297.7,1302.67 1298.19,1302.72 1298.67,1302.77 1299.16,1302.82 1299.64,1302.86 1300.13,1302.91 
  1300.61,1302.96 1301.1,1303 1301.58,1303.05 1302.07,1303.1 1302.55,1303.14 1303.04,1303.19 1303.52,1303.24 1304.01,1303.29 1304.49,1303.33 1304.98,1303.38 
  1305.46,1303.43 1305.95,1303.47 1306.43,1303.52 1306.92,1303.57 1307.4,1303.61 1307.89,1303.66 1308.37,1303.7 1308.86,1303.75 1309.34,1303.8 1309.83,1303.84 
  1310.31,1303.89 1310.8,1303.94 1311.28,1303.98 1311.77,1304.03 1312.25,1304.07 1312.74,1304.12 1313.22,1304.17 1313.7,1304.21 1314.19,1304.26 1314.67,1304.3 
  1315.16,1304.35 1315.64,1304.4 1316.13,1304.44 1316.61,1304.49 1317.1,1304.53 1317.58,1304.58 1318.07,1304.62 1318.55,1304.67 1319.04,1304.72 1319.52,1304.76 
  1320.01,1304.81 1320.49,1304.85 1320.98,1304.9 1321.46,1304.94 1321.95,1304.99 1322.43,1305.03 1322.92,1305.08 1323.4,1305.12 1323.89,1305.17 1324.37,1305.21 
  1324.86,1305.26 1325.34,1305.3 1325.83,1305.35 1326.31,1305.39 1326.8,1305.44 1327.28,1305.48 1327.77,1305.53 1328.25,1305.57 1328.74,1305.62 1329.22,1305.66 
  1329.71,1305.7 1330.19,1305.75 1330.67,1305.79 1331.16,1305.84 1331.64,1305.88 1332.13,1305.93 1332.61,1305.97 1333.1,1306.01 1333.58,1306.06 1334.07,1306.1 
  1334.55,1306.15 1335.04,1306.19 1335.52,1306.24 1336.01,1306.28 1336.49,1306.32 1336.98,1306.37 1337.46,1306.41 1337.95,1306.45 1338.43,1306.5 1338.92,1306.54 
  1339.4,1306.59 1339.89,1306.63 1340.37,1306.67 1340.86,1306.72 1341.34,1306.76 1341.83,1306.8 1342.31,1306.85 1342.8,1306.89 1343.28,1306.93 1343.77,1306.98 
  1344.25,1307.02 1344.74,1307.06 1345.22,1307.11 1345.71,1307.15 1346.19,1307.19 1346.68,1307.24 1347.16,1307.28 1347.65,1307.32 1348.13,1307.37 1348.61,1307.41 
  1349.1,1307.45 1349.58,1307.49 1350.07,1307.54 1350.55,1307.58 1351.04,1307.62 1351.52,1307.67 1352.01,1307.71 1352.49,1307.75 1352.98,1307.79 1353.46,1307.84 
  1353.95,1307.88 1354.43,1307.92 1354.92,1307.96 1355.4,1308.01 1355.89,1308.05 1356.37,1308.09 1356.86,1308.13 1357.34,1308.17 1357.83,1308.22 1358.31,1308.26 
  1358.8,1308.3 1359.28,1308.34 1359.77,1308.38 1360.25,1308.43 1360.74,1308.47 1361.22,1308.51 1361.71,1308.55 1362.19,1308.59 1362.68,1308.64 1363.16,1308.68 
  1363.65,1308.72 1364.13,1308.76 1364.62,1308.8 1365.1,1308.84 1365.58,1308.89 1366.07,1308.93 1366.55,1308.97 1367.04,1309.01 1367.52,1309.05 1368.01,1309.09 
  1368.49,1309.13 1368.98,1309.18 1369.46,1309.22 1369.95,1309.26 1370.43,1309.3 1370.92,1309.34 1371.4,1309.38 1371.89,1309.42 1372.37,1309.46 1372.86,1309.5 
  1373.34,1309.55 1373.83,1309.59 1374.31,1309.63 1374.8,1309.67 1375.28,1309.71 1375.77,1309.75 1376.25,1309.79 1376.74,1309.83 1377.22,1309.87 1377.71,1309.91 
  1378.19,1309.95 1378.68,1309.99 1379.16,1310.03 1379.65,1310.08 1380.13,1310.12 1380.62,1310.16 1381.1,1310.2 1381.59,1310.24 1382.07,1310.28 1382.55,1310.32 
  1383.04,1310.36 1383.52,1310.4 1384.01,1310.44 1384.49,1310.48 1384.98,1310.52 1385.46,1310.56 1385.95,1310.6 1386.43,1310.64 1386.92,1310.68 1387.4,1310.72 
  1387.89,1310.76 1388.37,1310.8 1388.86,1310.84 1389.34,1310.88 1389.83,1310.92 1390.31,1310.96 1390.8,1311 1391.28,1311.04 1391.77,1311.08 1392.25,1311.11 
  1392.74,1311.15 1393.22,1311.19 1393.71,1311.23 1394.19,1311.27 1394.68,1311.31 1395.16,1311.35 1395.65,1311.39 1396.13,1311.43 1396.62,1311.47 1397.1,1311.51 
  1397.59,1311.55 1398.07,1311.59 1398.56,1311.63 1399.04,1311.66 1399.52,1311.7 1400.01,1311.74 1400.49,1311.78 1400.98,1311.82 1401.46,1311.86 1401.95,1311.9 
  1402.43,1311.94 1402.92,1311.98 1403.4,1312.01 1403.89,1312.05 1404.37,1312.09 1404.86,1312.13 1405.34,1312.17 1405.83,1312.21 1406.31,1312.25 1406.8,1312.28 
  1407.28,1312.32 1407.77,1312.36 1408.25,1312.4 1408.74,1312.44 1409.22,1312.48 1409.71,1312.51 1410.19,1312.55 1410.68,1312.59 1411.16,1312.63 1411.65,1312.67 
  1412.13,1312.71 1412.62,1312.74 1413.1,1312.78 1413.59,1312.82 1414.07,1312.86 1414.56,1312.9 1415.04,1312.93 1415.53,1312.97 1416.01,1313.01 1416.49,1313.05 
  1416.98,1313.09 1417.46,1313.12 1417.95,1313.16 1418.43,1313.2 1418.92,1313.24 1419.4,1313.27 1419.89,1313.31 1420.37,1313.35 1420.86,1313.39 1421.34,1313.42 
  1421.83,1313.46 1422.31,1313.5 1422.8,1313.54 1423.28,1313.57 1423.77,1313.61 1424.25,1313.65 1424.74,1313.69 1425.22,1313.72 1425.71,1313.76 1426.19,1313.8 
  1426.68,1313.83 1427.16,1313.87 1427.65,1313.91 1428.13,1313.95 1428.62,1313.98 1429.1,1314.02 1429.59,1314.06 1430.07,1314.09 1430.56,1314.13 1431.04,1314.17 
  1431.53,1314.2 1432.01,1314.24 1432.5,1314.28 1432.98,1314.31 1433.46,1314.35 1433.95,1314.39 1434.43,1314.42 1434.92,1314.46 1435.4,1314.5 1435.89,1314.53 
  1436.37,1314.57 1436.86,1314.61 1437.34,1314.64 1437.83,1314.68 1438.31,1314.72 1438.8,1314.75 1439.28,1314.79 1439.77,1314.82 1440.25,1314.86 1440.74,1314.9 
  1441.22,1314.93 1441.71,1314.97 1442.19,1315.01 1442.68,1315.04 1443.16,1315.08 1443.65,1315.11 1444.13,1315.15 1444.62,1315.19 1445.1,1315.22 1445.59,1315.26 
  1446.07,1315.29 1446.56,1315.33 1447.04,1315.36 1447.53,1315.4 1448.01,1315.44 1448.5,1315.47 1448.98,1315.51 1449.47,1315.54 1449.95,1315.58 1450.43,1315.61 
  1450.92,1315.65 1451.4,1315.69 1451.89,1315.72 1452.37,1315.76 1452.86,1315.79 1453.34,1315.83 1453.83,1315.86 1454.31,1315.9 1454.8,1315.93 1455.28,1315.97 
  1455.77,1316 1456.25,1316.04 1456.74,1316.07 1457.22,1316.11 1457.71,1316.14 1458.19,1316.18 1458.68,1316.21 1459.16,1316.25 1459.65,1316.28 1460.13,1316.32 
  1460.62,1316.35 1461.1,1316.39 1461.59,1316.42 1462.07,1316.46 1462.56,1316.49 1463.04,1316.53 1463.53,1316.56 1464.01,1316.6 1464.5,1316.63 1464.98,1316.67 
  1465.47,1316.7 1465.95,1316.74 1466.44,1316.77 1466.92,1316.81 1467.4,1316.84 1467.89,1316.88 1468.37,1316.91 1468.86,1316.94 1469.34,1316.98 1469.83,1317.01 
  1470.31,1317.05 1470.8,1317.08 1471.28,1317.12 1471.77,1317.15 1472.25,1317.18 1472.74,1317.22 1473.22,1317.25 1473.71,1317.29 1474.19,1317.32 1474.68,1317.36 
  1475.16,1317.39 1475.65,1317.42 1476.13,1317.46 1476.62,1317.49 1477.1,1317.53 1477.59,1317.56 1478.07,1317.59 1478.56,1317.63 1479.04,1317.66 1479.53,1317.69 
  1480.01,1317.73 1480.5,1317.76 1480.98,1317.8 1481.47,1317.83 1481.95,1317.86 1482.44,1317.9 1482.92,1317.93 1483.41,1317.96 1483.89,1318 1484.38,1318.03 
  1484.86,1318.07 1485.34,1318.1 1485.83,1318.13 1486.31,1318.17 1486.8,1318.2 1487.28,1318.23 1487.77,1318.27 1488.25,1318.3 1488.74,1318.33 1489.22,1318.37 
  1489.71,1318.4 1490.19,1318.43 1490.68,1318.46 1491.16,1318.5 1491.65,1318.53 1492.13,1318.56 1492.62,1318.6 1493.1,1318.63 1493.59,1318.66 1494.07,1318.7 
  1494.56,1318.73 1495.04,1318.76 1495.53,1318.8 1496.01,1318.83 1496.5,1318.86 1496.98,1318.89 1497.47,1318.93 1497.95,1318.96 1498.44,1318.99 1498.92,1319.02 
  1499.41,1319.06 1499.89,1319.09 1500.38,1319.12 1500.86,1319.16 1501.35,1319.19 1501.83,1319.22 1502.31,1319.25 1502.8,1319.29 1503.28,1319.32 1503.77,1319.35 
  1504.25,1319.38 1504.74,1319.42 1505.22,1319.45 1505.71,1319.48 1506.19,1319.51 1506.68,1319.54 1507.16,1319.58 1507.65,1319.61 1508.13,1319.64 1508.62,1319.67 
  1509.1,1319.71 1509.59,1319.74 1510.07,1319.77 1510.56,1319.8 1511.04,1319.83 1511.53,1319.87 1512.01,1319.9 1512.5,1319.93 1512.98,1319.96 1513.47,1319.99 
  1513.95,1320.03 1514.44,1320.06 1514.92,1320.09 1515.41,1320.12 1515.89,1320.15 1516.38,1320.18 1516.86,1320.22 1517.35,1320.25 1517.83,1320.28 1518.32,1320.31 
  1518.8,1320.34 1519.28,1320.37 1519.77,1320.41 1520.25,1320.44 1520.74,1320.47 1521.22,1320.5 1521.71,1320.53 1522.19,1320.56 1522.68,1320.6 1523.16,1320.63 
  1523.65,1320.66 1524.13,1320.69 1524.62,1320.72 1525.1,1320.75 1525.59,1320.78 1526.07,1320.81 1526.56,1320.85 1527.04,1320.88 1527.53,1320.91 1528.01,1320.94 
  1528.5,1320.97 1528.98,1321 1529.47,1321.03 1529.95,1321.06 1530.44,1321.09 1530.92,1321.13 1531.41,1321.16 1531.89,1321.19 1532.38,1321.22 1532.86,1321.25 
  1533.35,1321.28 1533.83,1321.31 1534.32,1321.34 1534.8,1321.37 1535.29,1321.4 1535.77,1321.43 1536.25,1321.46 1536.74,1321.5 1537.22,1321.53 1537.71,1321.56 
  1538.19,1321.59 1538.68,1321.62 1539.16,1321.65 1539.65,1321.68 1540.13,1321.71 1540.62,1321.74 1541.1,1321.77 1541.59,1321.8 1542.07,1321.83 1542.56,1321.86 
  1543.04,1321.89 1543.53,1321.92 1544.01,1321.95 1544.5,1321.98 1544.98,1322.01 1545.47,1322.04 1545.95,1322.07 1546.44,1322.1 1546.92,1322.13 1547.41,1322.16 
  1547.89,1322.19 1548.38,1322.22 1548.86,1322.25 1549.35,1322.28 1549.83,1322.31 1550.32,1322.34 1550.8,1322.37 1551.29,1322.4 1551.77,1322.43 1552.26,1322.46 
  1552.74,1322.49 1553.22,1322.52 1553.71,1322.55 1554.19,1322.58 1554.68,1322.61 1555.16,1322.64 1555.65,1322.67 1556.13,1322.7 1556.62,1322.73 1557.1,1322.76 
  1557.59,1322.79 1558.07,1322.82 1558.56,1322.85 1559.04,1322.88 1559.53,1322.91 1560.01,1322.94 1560.5,1322.97 1560.98,1323 1561.47,1323.03 1561.95,1323.06 
  1562.44,1323.09 1562.92,1323.12 1563.41,1323.15 1563.89,1323.18 1564.38,1323.2 1564.86,1323.23 1565.35,1323.26 1565.83,1323.29 1566.32,1323.32 1566.8,1323.35 
  1567.29,1323.38 1567.77,1323.41 1568.26,1323.44 1568.74,1323.47 1569.23,1323.5 1569.71,1323.53 1570.19,1323.55 1570.68,1323.58 1571.16,1323.61 1571.65,1323.64 
  1572.13,1323.67 1572.62,1323.7 1573.1,1323.73 1573.59,1323.76 1574.07,1323.79 1574.56,1323.82 1575.04,1323.84 1575.53,1323.87 1576.01,1323.9 1576.5,1323.93 
  1576.98,1323.96 1577.47,1323.99 1577.95,1324.02 1578.44,1324.05 1578.92,1324.07 1579.41,1324.1 1579.89,1324.13 1580.38,1324.16 1580.86,1324.19 1581.35,1324.22 
  1581.83,1324.25 1582.32,1324.27 1582.8,1324.3 1583.29,1324.33 1583.77,1324.36 1584.26,1324.39 1584.74,1324.42 1585.23,1324.44 1585.71,1324.47 1586.2,1324.5 
  1586.68,1324.53 1587.16,1324.56 1587.65,1324.59 1588.13,1324.61 1588.62,1324.64 1589.1,1324.67 1589.59,1324.7 1590.07,1324.73 1590.56,1324.75 1591.04,1324.78 
  1591.53,1324.81 1592.01,1324.84 1592.5,1324.87 1592.98,1324.9 1593.47,1324.92 1593.95,1324.95 1594.44,1324.98 1594.92,1325.01 1595.41,1325.03 1595.89,1325.06 
  1596.38,1325.09 1596.86,1325.12 1597.35,1325.15 1597.83,1325.17 1598.32,1325.2 1598.8,1325.23 1599.29,1325.26 1599.77,1325.28 1600.26,1325.31 1600.74,1325.34 
  1601.23,1325.37 1601.71,1325.4 1602.2,1325.42 1602.68,1325.45 1603.17,1325.48 1603.65,1325.51 1604.13,1325.53 1604.62,1325.56 1605.1,1325.59 1605.59,1325.62 
  1606.07,1325.64 1606.56,1325.67 1607.04,1325.7 1607.53,1325.73 1608.01,1325.75 1608.5,1325.78 1608.98,1325.81 1609.47,1325.83 1609.95,1325.86 1610.44,1325.89 
  1610.92,1325.92 1611.41,1325.94 1611.89,1325.97 1612.38,1326 1612.86,1326.02 1613.35,1326.05 1613.83,1326.08 1614.32,1326.11 1614.8,1326.13 1615.29,1326.16 
  1615.77,1326.19 1616.26,1326.21 1616.74,1326.24 1617.23,1326.27 1617.71,1326.29 1618.2,1326.32 1618.68,1326.35 1619.17,1326.38 1619.65,1326.4 1620.14,1326.43 
  1620.62,1326.46 1621.1,1326.48 1621.59,1326.51 1622.07,1326.54 1622.56,1326.56 1623.04,1326.59 1623.53,1326.62 1624.01,1326.64 1624.5,1326.67 1624.98,1326.7 
  1625.47,1326.72 1625.95,1326.75 1626.44,1326.78 1626.92,1326.8 1627.41,1326.83 1627.89,1326.86 1628.38,1326.88 1628.86,1326.91 1629.35,1326.94 1629.83,1326.96 
  1630.32,1326.99 1630.8,1327.01 1631.29,1327.04 1631.77,1327.07 1632.26,1327.09 1632.74,1327.12 1633.23,1327.15 1633.71,1327.17 1634.2,1327.2 1634.68,1327.22 
  1635.17,1327.25 1635.65,1327.28 1636.14,1327.3 1636.62,1327.33 1637.11,1327.36 1637.59,1327.38 1638.08,1327.41 1638.56,1327.43 1639.04,1327.46 1639.53,1327.49 
  1640.01,1327.51 1640.5,1327.54 1640.98,1327.56 1641.47,1327.59 1641.95,1327.62 1642.44,1327.64 1642.92,1327.67 1643.41,1327.69 1643.89,1327.72 1644.38,1327.74 
  1644.86,1327.77 1645.35,1327.8 1645.83,1327.82 1646.32,1327.85 1646.8,1327.87 1647.29,1327.9 1647.77,1327.93 1648.26,1327.95 1648.74,1327.98 1649.23,1328 
  1649.71,1328.03 1650.2,1328.05 1650.68,1328.08 1651.17,1328.1 1651.65,1328.13 1652.14,1328.16 1652.62,1328.18 1653.11,1328.21 1653.59,1328.23 1654.08,1328.26 
  1654.56,1328.28 1655.05,1328.31 1655.53,1328.33 1656.01,1328.36 1656.5,1328.38 1656.98,1328.41 1657.47,1328.44 1657.95,1328.46 1658.44,1328.49 1658.92,1328.51 
  1659.41,1328.54 1659.89,1328.56 1660.38,1328.59 1660.86,1328.61 1661.35,1328.64 1661.83,1328.66 1662.32,1328.69 1662.8,1328.71 1663.29,1328.74 1663.77,1328.76 
  1664.26,1328.79 1664.74,1328.81 1665.23,1328.84 1665.71,1328.86 1666.2,1328.89 1666.68,1328.91 1667.17,1328.94 1667.65,1328.96 1668.14,1328.99 1668.62,1329.01 
  1669.11,1329.04 1669.59,1329.06 1670.08,1329.09 1670.56,1329.11 1671.05,1329.14 1671.53,1329.16 1672.02,1329.19 1672.5,1329.21 1672.98,1329.24 1673.47,1329.26 
  1673.95,1329.28 1674.44,1329.31 1674.92,1329.33 1675.41,1329.36 1675.89,1329.38 1676.38,1329.41 1676.86,1329.43 1677.35,1329.46 1677.83,1329.48 1678.32,1329.51 
  1678.8,1329.53 1679.29,1329.56 1679.77,1329.58 1680.26,1329.6 1680.74,1329.63 1681.23,1329.65 1681.71,1329.68 1682.2,1329.7 1682.68,1329.73 1683.17,1329.75 
  1683.65,1329.77 1684.14,1329.8 1684.62,1329.82 1685.11,1329.85 1685.59,1329.87 1686.08,1329.9 1686.56,1329.92 1687.05,1329.94 1687.53,1329.97 1688.02,1329.99 
  1688.5,1330.02 1688.99,1330.04 1689.47,1330.07 1689.95,1330.09 1690.44,1330.11 1690.92,1330.14 1691.41,1330.16 1691.89,1330.19 1692.38,1330.21 1692.86,1330.23 
  1693.35,1330.26 1693.83,1330.28 1694.32,1330.31 1694.8,1330.33 1695.29,1330.35 1695.77,1330.38 1696.26,1330.4 1696.74,1330.42 1697.23,1330.45 1697.71,1330.47 
  1698.2,1330.5 1698.68,1330.52 1699.17,1330.54 1699.65,1330.57 1700.14,1330.59 1700.62,1330.62 1701.11,1330.64 1701.59,1330.66 1702.08,1330.69 1702.56,1330.71 
  1703.05,1330.73 1703.53,1330.76 1704.02,1330.78 1704.5,1330.8 1704.99,1330.83 1705.47,1330.85 1705.96,1330.87 1706.44,1330.9 1706.92,1330.92 1707.41,1330.95 
  1707.89,1330.97 1708.38,1330.99 1708.86,1331.02 1709.35,1331.04 1709.83,1331.06 1710.32,1331.09 1710.8,1331.11 1711.29,1331.13 1711.77,1331.16 1712.26,1331.18 
  1712.74,1331.2 1713.23,1331.23 1713.71,1331.25 1714.2,1331.27 1714.68,1331.3 1715.17,1331.32 1715.65,1331.34 1716.14,1331.37 1716.62,1331.39 1717.11,1331.41 
  1717.59,1331.43 1718.08,1331.46 1718.56,1331.48 1719.05,1331.5 1719.53,1331.53 1720.02,1331.55 1720.5,1331.57 1720.99,1331.6 1721.47,1331.62 1721.96,1331.64 
  1722.44,1331.66 1722.93,1331.69 1723.41,1331.71 1723.89,1331.73 1724.38,1331.76 1724.86,1331.78 1725.35,1331.8 1725.83,1331.83 1726.32,1331.85 1726.8,1331.87 
  1727.29,1331.89 1727.77,1331.92 1728.26,1331.94 1728.74,1331.96 1729.23,1331.98 1729.71,1332.01 1730.2,1332.03 1730.68,1332.05 1731.17,1332.08 1731.65,1332.1 
  1732.14,1332.12 1732.62,1332.14 1733.11,1332.17 1733.59,1332.19 1734.08,1332.21 1734.56,1332.23 1735.05,1332.26 1735.53,1332.28 1736.02,1332.3 1736.5,1332.32 
  1736.99,1332.35 1737.47,1332.37 1737.96,1332.39 1738.44,1332.41 1738.93,1332.44 1739.41,1332.46 1739.9,1332.48 1740.38,1332.5 1740.86,1332.53 1741.35,1332.55 
  1741.83,1332.57 1742.32,1332.59 1742.8,1332.61 1743.29,1332.64 1743.77,1332.66 1744.26,1332.68 1744.74,1332.7 1745.23,1332.73 1745.71,1332.75 1746.2,1332.77 
  1746.68,1332.79 1747.17,1332.81 1747.65,1332.84 1748.14,1332.86 1748.62,1332.88 1749.11,1332.9 1749.59,1332.93 1750.08,1332.95 1750.56,1332.97 1751.05,1332.99 
  1751.53,1333.01 1752.02,1333.04 1752.5,1333.06 1752.99,1333.08 1753.47,1333.1 1753.96,1333.12 1754.44,1333.15 1754.93,1333.17 1755.41,1333.19 1755.9,1333.21 
  1756.38,1333.23 1756.87,1333.25 1757.35,1333.28 1757.83,1333.3 1758.32,1333.32 1758.8,1333.34 1759.29,1333.36 1759.77,1333.39 1760.26,1333.41 1760.74,1333.43 
  1761.23,1333.45 1761.71,1333.47 1762.2,1333.49 1762.68,1333.52 1763.17,1333.54 1763.65,1333.56 1764.14,1333.58 1764.62,1333.6 1765.11,1333.62 1765.59,1333.64 
  1766.08,1333.67 1766.56,1333.69 1767.05,1333.71 1767.53,1333.73 1768.02,1333.75 1768.5,1333.77 1768.99,1333.8 1769.47,1333.82 1769.96,1333.84 1770.44,1333.86 
  1770.93,1333.88 1771.41,1333.9 1771.9,1333.92 1772.38,1333.95 1772.87,1333.97 1773.35,1333.99 1773.84,1334.01 1774.32,1334.03 1774.81,1334.05 1775.29,1334.07 
  1775.77,1334.09 1776.26,1334.12 1776.74,1334.14 1777.23,1334.16 1777.71,1334.18 1778.2,1334.2 1778.68,1334.22 1779.17,1334.24 1779.65,1334.26 1780.14,1334.29 
  1780.62,1334.31 1781.11,1334.33 1781.59,1334.35 1782.08,1334.37 1782.56,1334.39 1783.05,1334.41 1783.53,1334.43 1784.02,1334.45 1784.5,1334.47 1784.99,1334.5 
  1785.47,1334.52 1785.96,1334.54 1786.44,1334.56 1786.93,1334.58 1787.41,1334.6 1787.9,1334.62 1788.38,1334.64 1788.87,1334.66 1789.35,1334.68 1789.84,1334.7 
  1790.32,1334.73 1790.81,1334.75 1791.29,1334.77 1791.78,1334.79 1792.26,1334.81 1792.74,1334.83 1793.23,1334.85 1793.71,1334.87 1794.2,1334.89 1794.68,1334.91 
  1795.17,1334.93 1795.65,1334.95 1796.14,1334.97 1796.62,1334.99 1797.11,1335.02 1797.59,1335.04 1798.08,1335.06 1798.56,1335.08 1799.05,1335.1 1799.53,1335.12 
  1800.02,1335.14 1800.5,1335.16 1800.99,1335.18 1801.47,1335.2 1801.96,1335.22 1802.44,1335.24 1802.93,1335.26 1803.41,1335.28 1803.9,1335.3 1804.38,1335.32 
  1804.87,1335.34 1805.35,1335.36 1805.84,1335.38 1806.32,1335.4 1806.81,1335.42 1807.29,1335.45 1807.78,1335.47 1808.26,1335.49 1808.75,1335.51 1809.23,1335.53 
  1809.71,1335.55 1810.2,1335.57 1810.68,1335.59 1811.17,1335.61 1811.65,1335.63 1812.14,1335.65 1812.62,1335.67 1813.11,1335.69 1813.59,1335.71 1814.08,1335.73 
  1814.56,1335.75 1815.05,1335.77 1815.53,1335.79 1816.02,1335.81 1816.5,1335.83 1816.99,1335.85 1817.47,1335.87 1817.96,1335.89 1818.44,1335.91 1818.93,1335.93 
  1819.41,1335.95 1819.9,1335.97 1820.38,1335.99 1820.87,1336.01 1821.35,1336.03 1821.84,1336.05 1822.32,1336.07 1822.81,1336.09 1823.29,1336.11 1823.78,1336.13 
  1824.26,1336.15 1824.75,1336.17 1825.23,1336.19 1825.72,1336.21 1826.2,1336.23 1826.68,1336.25 1827.17,1336.27 1827.65,1336.29 1828.14,1336.31 1828.62,1336.33 
  1829.11,1336.35 1829.59,1336.37 1830.08,1336.39 1830.56,1336.41 1831.05,1336.42 1831.53,1336.44 1832.02,1336.46 1832.5,1336.48 1832.99,1336.5 1833.47,1336.52 
  1833.96,1336.54 1834.44,1336.56 1834.93,1336.58 1835.41,1336.6 1835.9,1336.62 1836.38,1336.64 1836.87,1336.66 1837.35,1336.68 1837.84,1336.7 1838.32,1336.72 
  1838.81,1336.74 1839.29,1336.76 1839.78,1336.78 1840.26,1336.8 1840.75,1336.82 1841.23,1336.83 1841.72,1336.85 1842.2,1336.87 1842.69,1336.89 1843.17,1336.91 
  1843.65,1336.93 1844.14,1336.95 1844.62,1336.97 1845.11,1336.99 1845.59,1337.01 1846.08,1337.03 1846.56,1337.05 1847.05,1337.07 1847.53,1337.09 1848.02,1337.11 
  1848.5,1337.12 1848.99,1337.14 1849.47,1337.16 1849.96,1337.18 1850.44,1337.2 1850.93,1337.22 1851.41,1337.24 1851.9,1337.26 1852.38,1337.28 1852.87,1337.3 
  1853.35,1337.32 1853.84,1337.33 1854.32,1337.35 1854.81,1337.37 1855.29,1337.39 1855.78,1337.41 1856.26,1337.43 1856.75,1337.45 1857.23,1337.47 1857.72,1337.49 
  1858.2,1337.51 1858.69,1337.52 1859.17,1337.54 1859.66,1337.56 1860.14,1337.58 1860.62,1337.6 1861.11,1337.62 1861.59,1337.64 1862.08,1337.66 1862.56,1337.68 
  1863.05,1337.69 1863.53,1337.71 1864.02,1337.73 1864.5,1337.75 1864.99,1337.77 1865.47,1337.79 1865.96,1337.81 1866.44,1337.83 1866.93,1337.84 1867.41,1337.86 
  1867.9,1337.88 1868.38,1337.9 1868.87,1337.92 1869.35,1337.94 1869.84,1337.96 1870.32,1337.98 1870.81,1337.99 1871.29,1338.01 1871.78,1338.03 1872.26,1338.05 
  1872.75,1338.07 1873.23,1338.09 1873.72,1338.11 1874.2,1338.12 1874.69,1338.14 1875.17,1338.16 1875.66,1338.18 1876.14,1338.2 1876.63,1338.22 1877.11,1338.24 
  1877.59,1338.25 1878.08,1338.27 1878.56,1338.29 1879.05,1338.31 1879.53,1338.33 1880.02,1338.35 1880.5,1338.36 1880.99,1338.38 1881.47,1338.4 1881.96,1338.42 
  1882.44,1338.44 1882.93,1338.46 1883.41,1338.47 1883.9,1338.49 1884.38,1338.51 1884.87,1338.53 1885.35,1338.55 1885.84,1338.57 1886.32,1338.58 1886.81,1338.6 
  1887.29,1338.62 1887.78,1338.64 1888.26,1338.66 1888.75,1338.67 1889.23,1338.69 1889.72,1338.71 1890.2,1338.73 1890.69,1338.75 1891.17,1338.77 1891.66,1338.78 
  1892.14,1338.8 1892.63,1338.82 1893.11,1338.84 1893.6,1338.86 1894.08,1338.87 1894.56,1338.89 1895.05,1338.91 1895.53,1338.93 1896.02,1338.95 1896.5,1338.96 
  1896.99,1338.98 1897.47,1339 1897.96,1339.02 1898.44,1339.04 1898.93,1339.05 1899.41,1339.07 1899.9,1339.09 1900.38,1339.11 1900.87,1339.13 1901.35,1339.14 
  1901.84,1339.16 1902.32,1339.18 1902.81,1339.2 1903.29,1339.22 1903.78,1339.23 1904.26,1339.25 1904.75,1339.27 1905.23,1339.29 1905.72,1339.3 1906.2,1339.32 
  1906.69,1339.34 1907.17,1339.36 1907.66,1339.38 1908.14,1339.39 1908.63,1339.41 1909.11,1339.43 1909.6,1339.45 1910.08,1339.46 1910.57,1339.48 1911.05,1339.5 
  1911.54,1339.52 1912.02,1339.53 1912.5,1339.55 1912.99,1339.57 1913.47,1339.59 1913.96,1339.6 1914.44,1339.62 1914.93,1339.64 1915.41,1339.66 1915.9,1339.67 
  1916.38,1339.69 1916.87,1339.71 1917.35,1339.73 1917.84,1339.75 1918.32,1339.76 1918.81,1339.78 1919.29,1339.8 1919.78,1339.81 1920.26,1339.83 1920.75,1339.85 
  1921.23,1339.87 1921.72,1339.88 1922.2,1339.9 1922.69,1339.92 1923.17,1339.94 1923.66,1339.95 1924.14,1339.97 1924.63,1339.99 1925.11,1340.01 1925.6,1340.02 
  1926.08,1340.04 1926.57,1340.06 1927.05,1340.08 1927.54,1340.09 1928.02,1340.11 1928.51,1340.13 1928.99,1340.14 1929.47,1340.16 1929.96,1340.18 1930.44,1340.2 
  1930.93,1340.21 1931.41,1340.23 1931.9,1340.25 1932.38,1340.26 1932.87,1340.28 1933.35,1340.3 1933.84,1340.32 1934.32,1340.33 1934.81,1340.35 1935.29,1340.37 
  1935.78,1340.38 1936.26,1340.4 1936.75,1340.42 1937.23,1340.44 1937.72,1340.45 1938.2,1340.47 1938.69,1340.49 1939.17,1340.5 1939.66,1340.52 1940.14,1340.54 
  1940.63,1340.56 1941.11,1340.57 1941.6,1340.59 1942.08,1340.61 1942.57,1340.62 1943.05,1340.64 1943.54,1340.66 1944.02,1340.67 1944.51,1340.69 1944.99,1340.71 
  1945.48,1340.72 1945.96,1340.74 1946.44,1340.76 1946.93,1340.77 1947.41,1340.79 1947.9,1340.81 1948.38,1340.83 1948.87,1340.84 1949.35,1340.86 1949.84,1340.88 
  1950.32,1340.89 1950.81,1340.91 1951.29,1340.93 1951.78,1340.94 1952.26,1340.96 1952.75,1340.98 1953.23,1340.99 1953.72,1341.01 1954.2,1341.03 1954.69,1341.04 
  1955.17,1341.06 1955.66,1341.08 1956.14,1341.09 1956.63,1341.11 1957.11,1341.13 1957.6,1341.14 1958.08,1341.16 1958.57,1341.18 1959.05,1341.19 1959.54,1341.21 
  1960.02,1341.23 1960.51,1341.24 1960.99,1341.26 1961.48,1341.28 1961.96,1341.29 1962.45,1341.31 1962.93,1341.33 1963.41,1341.34 1963.9,1341.36 1964.38,1341.37 
  1964.87,1341.39 1965.35,1341.41 1965.84,1341.42 1966.32,1341.44 1966.81,1341.46 1967.29,1341.47 1967.78,1341.49 1968.26,1341.51 1968.75,1341.52 1969.23,1341.54 
  1969.72,1341.56 1970.2,1341.57 1970.69,1341.59 1971.17,1341.6 1971.66,1341.62 1972.14,1341.64 1972.63,1341.65 1973.11,1341.67 1973.6,1341.69 1974.08,1341.7 
  1974.57,1341.72 1975.05,1341.73 1975.54,1341.75 1976.02,1341.77 1976.51,1341.78 1976.99,1341.8 1977.48,1341.82 1977.96,1341.83 1978.45,1341.85 1978.93,1341.86 
  1979.42,1341.88 1979.9,1341.9 1980.38,1341.91 1980.87,1341.93 1981.35,1341.94 1981.84,1341.96 1982.32,1341.98 1982.81,1341.99 1983.29,1342.01 1983.78,1342.03 
  1984.26,1342.04 1984.75,1342.06 1985.23,1342.07 1985.72,1342.09 1986.2,1342.11 1986.69,1342.12 1987.17,1342.14 1987.66,1342.15 1988.14,1342.17 1988.63,1342.19 
  1989.11,1342.2 1989.6,1342.22 1990.08,1342.23 1990.57,1342.25 1991.05,1342.27 1991.54,1342.28 1992.02,1342.3 1992.51,1342.31 1992.99,1342.33 1993.48,1342.34 
  1993.96,1342.36 1994.45,1342.38 1994.93,1342.39 1995.42,1342.41 1995.9,1342.42 1996.39,1342.44 1996.87,1342.46 1997.35,1342.47 1997.84,1342.49 1998.32,1342.5 
  1998.81,1342.52 1999.29,1342.53 1999.78,1342.55 2000.26,1342.57 2000.75,1342.58 2001.23,1342.6 2001.72,1342.61 2002.2,1342.63 2002.69,1342.64 2003.17,1342.66 
  2003.66,1342.68 2004.14,1342.69 2004.63,1342.71 2005.11,1342.72 2005.6,1342.74 2006.08,1342.75 2006.57,1342.77 2007.05,1342.79 2007.54,1342.8 2008.02,1342.82 
  2008.51,1342.83 2008.99,1342.85 2009.48,1342.86 2009.96,1342.88 2010.45,1342.89 2010.93,1342.91 2011.42,1342.93 2011.9,1342.94 2012.39,1342.96 2012.87,1342.97 
  2013.36,1342.99 2013.84,1343 2014.32,1343.02 2014.81,1343.03 2015.29,1343.05 2015.78,1343.06 2016.26,1343.08 2016.75,1343.1 2017.23,1343.11 2017.72,1343.13 
  2018.2,1343.14 2018.69,1343.16 2019.17,1343.17 2019.66,1343.19 2020.14,1343.2 2020.63,1343.22 2021.11,1343.23 2021.6,1343.25 2022.08,1343.26 2022.57,1343.28 
  2023.05,1343.29 2023.54,1343.31 2024.02,1343.33 2024.51,1343.34 2024.99,1343.36 2025.48,1343.37 2025.96,1343.39 2026.45,1343.4 2026.93,1343.42 2027.42,1343.43 
  2027.9,1343.45 2028.39,1343.46 2028.87,1343.48 2029.36,1343.49 2029.84,1343.51 2030.33,1343.52 2030.81,1343.54 2031.29,1343.55 2031.78,1343.57 2032.26,1343.58 
  2032.75,1343.6 2033.23,1343.61 2033.72,1343.63 2034.2,1343.64 2034.69,1343.66 2035.17,1343.67 2035.66,1343.69 2036.14,1343.7 2036.63,1343.72 2037.11,1343.73 
  2037.6,1343.75 2038.08,1343.76 2038.57,1343.78 2039.05,1343.79 2039.54,1343.81 2040.02,1343.82 2040.51,1343.84 2040.99,1343.85 2041.48,1343.87 2041.96,1343.88 
  2042.45,1343.9 2042.93,1343.91 2043.42,1343.93 2043.9,1343.94 2044.39,1343.96 2044.87,1343.97 2045.36,1343.99 2045.84,1344 2046.33,1344.02 2046.81,1344.03 
  2047.3,1344.05 2047.78,1344.06 2048.27,1344.08 2048.75,1344.09 2049.23,1344.11 2049.72,1344.12 2050.2,1344.14 2050.69,1344.15 2051.17,1344.17 2051.66,1344.18 
  2052.14,1344.2 2052.63,1344.21 2053.11,1344.23 2053.6,1344.24 2054.08,1344.25 2054.57,1344.27 2055.05,1344.28 2055.54,1344.3 2056.02,1344.31 2056.51,1344.33 
  2056.99,1344.34 2057.48,1344.36 2057.96,1344.37 2058.45,1344.39 2058.93,1344.4 2059.42,1344.42 2059.9,1344.43 2060.39,1344.45 2060.87,1344.46 2061.36,1344.47 
  2061.84,1344.49 2062.33,1344.5 2062.81,1344.52 2063.3,1344.53 2063.78,1344.55 2064.27,1344.56 2064.75,1344.58 2065.24,1344.59 2065.72,1344.61 2066.2,1344.62 
  2066.69,1344.63 2067.17,1344.65 2067.66,1344.66 2068.14,1344.68 2068.63,1344.69 2069.11,1344.71 2069.6,1344.72 2070.08,1344.74 2070.57,1344.75 2071.05,1344.76 
  2071.54,1344.78 2072.02,1344.79 2072.51,1344.81 2072.99,1344.82 2073.48,1344.84 2073.96,1344.85 2074.45,1344.87 2074.93,1344.88 2075.42,1344.89 2075.9,1344.91 
  2076.39,1344.92 2076.87,1344.94 2077.36,1344.95 2077.84,1344.97 2078.33,1344.98 2078.81,1344.99 2079.3,1345.01 2079.78,1345.02 2080.27,1345.04 2080.75,1345.05 
  2081.24,1345.07 2081.72,1345.08 2082.21,1345.09 2082.69,1345.11 2083.17,1345.12 2083.66,1345.14 2084.14,1345.15 2084.63,1345.16 2085.11,1345.18 2085.6,1345.19 
  2086.08,1345.21 2086.57,1345.22 2087.05,1345.24 2087.54,1345.25 2088.02,1345.26 2088.51,1345.28 2088.99,1345.29 2089.48,1345.31 2089.96,1345.32 2090.45,1345.33 
  2090.93,1345.35 2091.42,1345.36 2091.9,1345.38 2092.39,1345.39 2092.87,1345.4 2093.36,1345.42 2093.84,1345.43 2094.33,1345.45 2094.81,1345.46 2095.3,1345.47 
  2095.78,1345.49 2096.27,1345.5 2096.75,1345.52 2097.24,1345.53 2097.72,1345.54 2098.21,1345.56 2098.69,1345.57 2099.18,1345.59 2099.66,1345.6 2100.14,1345.61 
  2100.63,1345.63 2101.11,1345.64 2101.6,1345.66 2102.08,1345.67 2102.57,1345.68 2103.05,1345.7 2103.54,1345.71 2104.02,1345.73 2104.51,1345.74 2104.99,1345.75 
  2105.48,1345.77 2105.96,1345.78 2106.45,1345.79 2106.93,1345.81 2107.42,1345.82 2107.9,1345.84 2108.39,1345.85 2108.87,1345.86 2109.36,1345.88 2109.84,1345.89 
  2110.33,1345.9 2110.81,1345.92 2111.3,1345.93 2111.78,1345.95 2112.27,1345.96 2112.75,1345.97 2113.24,1345.99 2113.72,1346 2114.21,1346.01 2114.69,1346.03 
  2115.18,1346.04 2115.66,1346.06 2116.15,1346.07 2116.63,1346.08 2117.11,1346.1 2117.6,1346.11 2118.08,1346.12 2118.57,1346.14 2119.05,1346.15 2119.54,1346.16 
  2120.02,1346.18 2120.51,1346.19 2120.99,1346.21 2121.48,1346.22 2121.96,1346.23 2122.45,1346.25 2122.93,1346.26 2123.42,1346.27 2123.9,1346.29 2124.39,1346.3 
  2124.87,1346.31 2125.36,1346.33 2125.84,1346.34 2126.33,1346.35 2126.81,1346.37 2127.3,1346.38 2127.78,1346.39 2128.27,1346.41 2128.75,1346.42 2129.24,1346.44 
  2129.72,1346.45 2130.21,1346.46 2130.69,1346.48 2131.18,1346.49 2131.66,1346.5 2132.15,1346.52 2132.63,1346.53 2133.12,1346.54 2133.6,1346.56 2134.08,1346.57 
  2134.57,1346.58 2135.05,1346.6 2135.54,1346.61 2136.02,1346.62 2136.51,1346.64 2136.99,1346.65 2137.48,1346.66 2137.96,1346.68 2138.45,1346.69 2138.93,1346.7 
  2139.42,1346.72 2139.9,1346.73 2140.39,1346.74 2140.87,1346.76 2141.36,1346.77 2141.84,1346.78 2142.33,1346.8 2142.81,1346.81 2143.3,1346.82 2143.78,1346.84 
  2144.27,1346.85 2144.75,1346.86 2145.24,1346.87 2145.72,1346.89 2146.21,1346.9 2146.69,1346.91 2147.18,1346.93 2147.66,1346.94 2148.15,1346.95 2148.63,1346.97 
  2149.12,1346.98 2149.6,1346.99 2150.09,1347.01 2150.57,1347.02 2151.05,1347.03 2151.54,1347.05 2152.02,1347.06 2152.51,1347.07 2152.99,1347.08 2153.48,1347.1 
  2153.96,1347.11 2154.45,1347.12 2154.93,1347.14 2155.42,1347.15 2155.9,1347.16 2156.39,1347.18 2156.87,1347.19 2157.36,1347.2 2157.84,1347.22 2158.33,1347.23 
  2158.81,1347.24 2159.3,1347.25 2159.78,1347.27 2160.27,1347.28 2160.75,1347.29 2161.24,1347.31 2161.72,1347.32 2162.21,1347.33 2162.69,1347.34 2163.18,1347.36 
  2163.66,1347.37 2164.15,1347.38 2164.63,1347.4 2165.12,1347.41 2165.6,1347.42 2166.09,1347.44 2166.57,1347.45 2167.06,1347.46 2167.54,1347.47 2168.02,1347.49 
  2168.51,1347.5 2168.99,1347.51 2169.48,1347.53 2169.96,1347.54 2170.45,1347.55 2170.93,1347.56 2171.42,1347.58 2171.9,1347.59 2172.39,1347.6 2172.87,1347.61 
  2173.36,1347.63 2173.84,1347.64 2174.33,1347.65 2174.81,1347.67 2175.3,1347.68 2175.78,1347.69 2176.27,1347.7 2176.75,1347.72 2177.24,1347.73 2177.72,1347.74 
  2178.21,1347.75 2178.69,1347.77 2179.18,1347.78 2179.66,1347.79 2180.15,1347.81 2180.63,1347.82 2181.12,1347.83 2181.6,1347.84 2182.09,1347.86 2182.57,1347.87 
  2183.06,1347.88 2183.54,1347.89 2184.03,1347.91 2184.51,1347.92 2184.99,1347.93 2185.48,1347.94 2185.96,1347.96 2186.45,1347.97 2186.93,1347.98 2187.42,1347.99 
  2187.9,1348.01 2188.39,1348.02 2188.87,1348.03 2189.36,1348.04 2189.84,1348.06 2190.33,1348.07 2190.81,1348.08 2191.3,1348.09 2191.78,1348.11 2192.27,1348.12 
  2192.75,1348.13 2193.24,1348.14 2193.72,1348.16 2194.21,1348.17 2194.69,1348.18 2195.18,1348.19 2195.66,1348.21 2196.15,1348.22 2196.63,1348.23 2197.12,1348.24 
  2197.6,1348.26 2198.09,1348.27 2198.57,1348.28 2199.06,1348.29 2199.54,1348.31 2200.03,1348.32 2200.51,1348.33 2201,1348.34 2201.48,1348.36 2201.97,1348.37 
  2202.45,1348.38 2202.93,1348.39 2203.42,1348.41 2203.9,1348.42 2204.39,1348.43 2204.87,1348.44 2205.36,1348.45 2205.84,1348.47 2206.33,1348.48 2206.81,1348.49 
  2207.3,1348.5 2207.78,1348.52 2208.27,1348.53 2208.75,1348.54 2209.24,1348.55 2209.72,1348.57 2210.21,1348.58 2210.69,1348.59 2211.18,1348.6 2211.66,1348.61 
  2212.15,1348.63 2212.63,1348.64 2213.12,1348.65 2213.6,1348.66 2214.09,1348.68 2214.57,1348.69 2215.06,1348.7 2215.54,1348.71 2216.03,1348.72 2216.51,1348.74 
  2217,1348.75 2217.48,1348.76 2217.97,1348.77 2218.45,1348.78 2218.94,1348.8 2219.42,1348.81 2219.9,1348.82 2220.39,1348.83 2220.87,1348.85 2221.36,1348.86 
  2221.84,1348.87 2222.33,1348.88 2222.81,1348.89 2223.3,1348.91 2223.78,1348.92 2224.27,1348.93 2224.75,1348.94 2225.24,1348.95 2225.72,1348.97 2226.21,1348.98 
  2226.69,1348.99 2227.18,1349 2227.66,1349.01 2228.15,1349.03 2228.63,1349.04 2229.12,1349.05 2229.6,1349.06 2230.09,1349.07 2230.57,1349.09 2231.06,1349.1 
  2231.54,1349.11 2232.03,1349.12 2232.51,1349.13 2233,1349.15 2233.48,1349.16 2233.97,1349.17 2234.45,1349.18 2234.94,1349.19 2235.42,1349.2 2235.91,1349.22 
  2236.39,1349.23 2236.87,1349.24 2237.36,1349.25 2237.84,1349.26 2238.33,1349.28 2238.81,1349.29 2239.3,1349.3 2239.78,1349.31 2240.27,1349.32 2240.75,1349.34 
  2241.24,1349.35 2241.72,1349.36 2242.21,1349.37 2242.69,1349.38 2243.18,1349.39 2243.66,1349.41 2244.15,1349.42 2244.63,1349.43 2245.12,1349.44 2245.6,1349.45 
  2246.09,1349.47 2246.57,1349.48 2247.06,1349.49 2247.54,1349.5 2248.03,1349.51 2248.51,1349.52 2249,1349.54 2249.48,1349.55 2249.97,1349.56 2250.45,1349.57 
  2250.94,1349.58 2251.42,1349.59 2251.91,1349.61 2252.39,1349.62 2252.88,1349.63 2253.36,1349.64 2253.84,1349.65 2254.33,1349.66 2254.81,1349.68 2255.3,1349.69 
  2255.78,1349.7 
  "/>
<circle clip-path="url(#clip673)" cx="325.232" cy="86.1857" r="18" fill="#008000" fill-rule="evenodd" fill-opacity="1" stroke="#000000" stroke-opacity="1" stroke-width="3.2"/>
<path clip-path="url(#clip673)" d="
M442.175 845.014 L459.777 890.892 L477.378 929.816 L494.98 963.281 L512.582 992.377 L530.184 1017.92 L547.785 1040.52 L565.387 1060.68 L582.989 1078.76 L600.591 1095.07 
  L618.192 1109.86 L635.794 1123.34 L653.396 1135.67 L670.998 1146.98 L688.599 1157.41 L706.201 1167.05 L723.803 1175.98 L741.405 1184.28 L759.006 1192.02 L776.608 1199.24 
  L794.21 1206 L811.812 1212.33 L829.413 1218.29 L847.015 1223.89 L864.617 1229.18 L882.219 1234.16 L899.82 1238.88 L917.422 1243.35 L935.024 1247.58 L952.626 1251.6 
  L970.227 1255.42 L987.829 1259.06 L1005.43 1262.52 L1023.03 1265.83 L1040.63 1268.98 L1058.24 1271.99 L1075.84 1274.88 L1093.44 1277.64 L1111.04 1280.28 L1128.64 1282.81 
  L1146.24 1285.24 L1163.85 1287.58 L1181.45 1289.82 L1199.05 1291.98 L1216.65 1294.05 L1234.25 1296.05 L1251.86 1297.98 L1269.46 1299.83 L1287.06 1301.62 L1304.66 1303.35 
  L1322.26 1305.02 L1339.86 1306.63 L1357.47 1308.19 L1375.07 1309.69 L1392.67 1311.15 L1410.27 1312.56 L1427.87 1313.93 L1445.47 1315.25 L1463.08 1316.53 L1480.68 1317.78 
  L1498.28 1318.98 L1515.88 1320.15 L1533.48 1321.29 L1551.09 1322.39 L1568.69 1323.46 L1586.29 1324.51 L1603.89 1325.52 L1621.49 1326.5 L1639.09 1327.46 L1656.7 1328.39 
  L1674.3 1329.3 L1691.9 1330.19 L1709.5 1331.05 L1727.1 1331.88 L1744.7 1332.7 L1762.31 1333.5 L1779.91 1334.27 L1797.51 1335.03 L1815.11 1335.77 L1832.71 1336.49 
  L1850.31 1337.2 L1867.92 1337.88 L1885.52 1338.55 L1903.12 1339.21 L1920.72 1339.85 L1938.32 1340.47 L1955.93 1341.09 L1973.53 1341.68 L1991.13 1342.27 L2008.73 1342.84 
  L2026.33 1343.4 L2043.93 1343.94 L2061.54 1344.48 L2079.14 1345 L2096.74 1345.52 L2114.34 1346.02 L2131.94 1346.51 L2149.54 1346.99 L2167.15 1347.46 L2184.75 1347.93 
  L2184.75 1384.24 L2167.15 1384.24 L2149.54 1384.24 L2131.94 1384.24 L2114.34 1384.24 L2096.74 1384.24 L2079.14 1384.24 L2061.54 1384.24 L2043.93 1384.24 L2026.33 1384.24 
  L2008.73 1384.24 L1991.13 1384.24 L1973.53 1384.24 L1955.93 1384.24 L1938.32 1384.24 L1920.72 1384.24 L1903.12 1384.24 L1885.52 1384.24 L1867.92 1384.24 L1850.31 1384.24 
  L1832.71 1384.24 L1815.11 1384.24 L1797.51 1384.24 L1779.91 1384.24 L1762.31 1384.24 L1744.7 1384.24 L1727.1 1384.24 L1709.5 1384.24 L1691.9 1384.24 L1674.3 1384.24 
  L1656.7 1384.24 L1639.09 1384.24 L1621.49 1384.24 L1603.89 1384.24 L1586.29 1384.24 L1568.69 1384.24 L1551.09 1384.24 L1533.48 1384.24 L1515.88 1384.24 L1498.28 1384.24 
  L1480.68 1384.24 L1463.08 1384.24 L1445.47 1384.24 L1427.87 1384.24 L1410.27 1384.24 L1392.67 1384.24 L1375.07 1384.24 L1357.47 1384.24 L1339.86 1384.24 L1322.26 1384.24 
  L1304.66 1384.24 L1287.06 1384.24 L1269.46 1384.24 L1251.86 1384.24 L1234.25 1384.24 L1216.65 1384.24 L1199.05 1384.24 L1181.45 1384.24 L1163.85 1384.24 L1146.24 1384.24 
  L1128.64 1384.24 L1111.04 1384.24 L1093.44 1384.24 L1075.84 1384.24 L1058.24 1384.24 L1040.63 1384.24 L1023.03 1384.24 L1005.43 1384.24 L987.829 1384.24 L970.227 1384.24 
  L952.626 1384.24 L935.024 1384.24 L917.422 1384.24 L899.82 1384.24 L882.219 1384.24 L864.617 1384.24 L847.015 1384.24 L829.413 1384.24 L811.812 1384.24 L794.21 1384.24 
  L776.608 1384.24 L759.006 1384.24 L741.405 1384.24 L723.803 1384.24 L706.201 1384.24 L688.599 1384.24 L670.998 1384.24 L653.396 1384.24 L635.794 1384.24 L618.192 1384.24 
  L600.591 1384.24 L582.989 1384.24 L565.387 1384.24 L547.785 1384.24 L530.184 1384.24 L512.582 1384.24 L494.98 1384.24 L477.378 1384.24 L459.777 1384.24 L442.175 1384.24 
   Z
  " fill="#add8e6" fill-rule="evenodd" fill-opacity="0.5"/>
<polyline clip-path="url(#clip673)" style="stroke:#000000; stroke-linecap:butt; stroke-linejoin:round; stroke-width:4; stroke-opacity:0; fill:none" points="
  442.175,845.014 459.777,890.892 477.378,929.816 494.98,963.281 512.582,992.377 530.184,1017.92 547.785,1040.52 565.387,1060.68 582.989,1078.76 600.591,1095.07 
  618.192,1109.86 635.794,1123.34 653.396,1135.67 670.998,1146.98 688.599,1157.41 706.201,1167.05 723.803,1175.98 741.405,1184.28 759.006,1192.02 776.608,1199.24 
  794.21,1206 811.812,1212.33 829.413,1218.29 847.015,1223.89 864.617,1229.18 882.219,1234.16 899.82,1238.88 917.422,1243.35 935.024,1247.58 952.626,1251.6 
  970.227,1255.42 987.829,1259.06 1005.43,1262.52 1023.03,1265.83 1040.63,1268.98 1058.24,1271.99 1075.84,1274.88 1093.44,1277.64 1111.04,1280.28 1128.64,1282.81 
  1146.24,1285.24 1163.85,1287.58 1181.45,1289.82 1199.05,1291.98 1216.65,1294.05 1234.25,1296.05 1251.86,1297.98 1269.46,1299.83 1287.06,1301.62 1304.66,1303.35 
  1322.26,1305.02 1339.86,1306.63 1357.47,1308.19 1375.07,1309.69 1392.67,1311.15 1410.27,1312.56 1427.87,1313.93 1445.47,1315.25 1463.08,1316.53 1480.68,1317.78 
  1498.28,1318.98 1515.88,1320.15 1533.48,1321.29 1551.09,1322.39 1568.69,1323.46 1586.29,1324.51 1603.89,1325.52 1621.49,1326.5 1639.09,1327.46 1656.7,1328.39 
  1674.3,1329.3 1691.9,1330.19 1709.5,1331.05 1727.1,1331.88 1744.7,1332.7 1762.31,1333.5 1779.91,1334.27 1797.51,1335.03 1815.11,1335.77 1832.71,1336.49 
  1850.31,1337.2 1867.92,1337.88 1885.52,1338.55 1903.12,1339.21 1920.72,1339.85 1938.32,1340.47 1955.93,1341.09 1973.53,1341.68 1991.13,1342.27 2008.73,1342.84 
  2026.33,1343.4 2043.93,1343.94 2061.54,1344.48 2079.14,1345 2096.74,1345.52 2114.34,1346.02 2131.94,1346.51 2149.54,1346.99 2167.15,1347.46 2184.75,1347.93 
  
  "/>
</svg>
