<?xml version="1.0" encoding="utf-8"?>
<svg xmlns="http://www.w3.org/2000/svg" xmlns:xlink="http://www.w3.org/1999/xlink" width="600" height="400" viewBox="0 0 2400 1600">
<defs>
  <clipPath id="clip700">
    <rect x="0" y="0" width="2400" height="1600"/>
  </clipPath>
</defs>
<path clip-path="url(#clip700)" d="
M0 1600 L2400 1600 L2400 0 L0 0  Z
  " fill="#ffffff" fill-rule="evenodd" fill-opacity="1"/>
<defs>
  <clipPath id="clip701">
    <rect x="480" y="0" width="1681" height="1600"/>
  </clipPath>
</defs>
<defs>
  <clipPath id="clip702">
    <rect x="219" y="47" width="2134" height="1377"/>
  </clipPath>
</defs>
<path clip-path="url(#clip700)" d="
M249.542 1423.18 L2352.76 1423.18 L2352.76 47.2441 L249.542 47.2441  Z
  " fill="#ffffff" fill-rule="evenodd" fill-opacity="1"/>
<defs>
  <clipPath id="clip703">
    <rect x="249" y="47" width="2104" height="1377"/>
  </clipPath>
</defs>
<polyline clip-path="url(#clip703)" style="stroke:#000000; stroke-linecap:butt; stroke-linejoin:round; stroke-width:2; stroke-opacity:0.1; fill:none" points="
  512.444,1423.18 512.444,47.2441 
  "/>
<polyline clip-path="url(#clip703)" style="stroke:#000000; stroke-linecap:butt; stroke-linejoin:round; stroke-width:2; stroke-opacity:0.1; fill:none" points="
  1169.7,1423.18 1169.7,47.2441 
  "/>
<polyline clip-path="url(#clip703)" style="stroke:#000000; stroke-linecap:butt; stroke-linejoin:round; stroke-width:2; stroke-opacity:0.1; fill:none" points="
  1826.95,1423.18 1826.95,47.2441 
  "/>
<polyline clip-path="url(#clip700)" style="stroke:#000000; stroke-linecap:butt; stroke-linejoin:round; stroke-width:4; stroke-opacity:1; fill:none" points="
  249.542,1423.18 2352.76,1423.18 
  "/>
<polyline clip-path="url(#clip700)" style="stroke:#000000; stroke-linecap:butt; stroke-linejoin:round; stroke-width:4; stroke-opacity:1; fill:none" points="
  512.444,1423.18 512.444,1404.28 
  "/>
<polyline clip-path="url(#clip700)" style="stroke:#000000; stroke-linecap:butt; stroke-linejoin:round; stroke-width:4; stroke-opacity:1; fill:none" points="
  1169.7,1423.18 1169.7,1404.28 
  "/>
<polyline clip-path="url(#clip700)" style="stroke:#000000; stroke-linecap:butt; stroke-linejoin:round; stroke-width:4; stroke-opacity:1; fill:none" points="
  1826.95,1423.18 1826.95,1404.28 
  "/>
<path clip-path="url(#clip700)" d="M512.444 1454.1 Q508.833 1454.1 507.004 1457.66 Q505.198 1461.2 505.198 1468.33 Q505.198 1475.44 507.004 1479.01 Q508.833 1482.55 512.444 1482.55 Q516.078 1482.55 517.884 1479.01 Q519.712 1475.44 519.712 1468.33 Q519.712 1461.2 517.884 1457.66 Q516.078 1454.1 512.444 1454.1 M512.444 1450.39 Q518.254 1450.39 521.309 1455 Q524.388 1459.58 524.388 1468.33 Q524.388 1477.06 521.309 1481.67 Q518.254 1486.25 512.444 1486.25 Q506.634 1486.25 503.555 1481.67 Q500.499 1477.06 500.499 1468.33 Q500.499 1459.58 503.555 1455 Q506.634 1450.39 512.444 1450.39 Z" fill="#000000" fill-rule="evenodd" fill-opacity="1" /><path clip-path="url(#clip700)" d="M1159.98 1451.02 L1178.33 1451.02 L1178.33 1454.96 L1164.26 1454.96 L1164.26 1463.43 Q1165.28 1463.08 1166.3 1462.92 Q1167.31 1462.73 1168.33 1462.73 Q1174.12 1462.73 1177.5 1465.9 Q1180.88 1469.08 1180.88 1474.49 Q1180.88 1480.07 1177.41 1483.17 Q1173.93 1486.25 1167.61 1486.25 Q1165.44 1486.25 1163.17 1485.88 Q1160.93 1485.51 1158.52 1484.77 L1158.52 1480.07 Q1160.6 1481.2 1162.82 1481.76 Q1165.05 1482.32 1167.52 1482.32 Q1171.53 1482.32 1173.86 1480.21 Q1176.2 1478.1 1176.2 1474.49 Q1176.2 1470.88 1173.86 1468.77 Q1171.53 1466.67 1167.52 1466.67 Q1165.65 1466.67 1163.77 1467.08 Q1161.92 1467.5 1159.98 1468.38 L1159.98 1451.02 Z" fill="#000000" fill-rule="evenodd" fill-opacity="1" /><path clip-path="url(#clip700)" d="M1801.64 1481.64 L1809.28 1481.64 L1809.28 1455.28 L1800.97 1456.95 L1800.97 1452.69 L1809.23 1451.02 L1813.91 1451.02 L1813.91 1481.64 L1821.55 1481.64 L1821.55 1485.58 L1801.64 1485.58 L1801.64 1481.64 Z" fill="#000000" fill-rule="evenodd" fill-opacity="1" /><path clip-path="url(#clip700)" d="M1840.99 1454.1 Q1837.38 1454.1 1835.55 1457.66 Q1833.75 1461.2 1833.75 1468.33 Q1833.75 1475.44 1835.55 1479.01 Q1837.38 1482.55 1840.99 1482.55 Q1844.63 1482.55 1846.43 1479.01 Q1848.26 1475.44 1848.26 1468.33 Q1848.26 1461.2 1846.43 1457.66 Q1844.63 1454.1 1840.99 1454.1 M1840.99 1450.39 Q1846.8 1450.39 1849.86 1455 Q1852.94 1459.58 1852.94 1468.33 Q1852.94 1477.06 1849.86 1481.67 Q1846.8 1486.25 1840.99 1486.25 Q1835.18 1486.25 1832.1 1481.67 Q1829.05 1477.06 1829.05 1468.33 Q1829.05 1459.58 1832.1 1455 Q1835.18 1450.39 1840.99 1450.39 Z" fill="#000000" fill-rule="evenodd" fill-opacity="1" /><path clip-path="url(#clip700)" d="M1313.08 1529.22 Q1313.08 1534.63 1311.34 1540.71 Q1309.64 1546.77 1306.93 1551.66 Q1304.23 1556.53 1300.68 1559.75 Q1297.14 1562.94 1293.76 1562.94 Q1291.6 1562.94 1289.99 1561.75 Q1288.41 1560.52 1287.54 1558.49 Q1286.68 1556.43 1286.26 1554.18 Q1285.84 1551.89 1285.84 1549.41 Q1285.84 1545.71 1286.64 1541.68 Q1287.45 1537.62 1288.8 1533.95 Q1290.15 1530.25 1292.05 1526.9 Q1293.95 1523.52 1296.05 1521.07 Q1298.17 1518.59 1300.56 1517.14 Q1302.94 1515.69 1305.16 1515.69 Q1306.77 1515.69 1308.06 1516.4 Q1309.38 1517.08 1310.22 1518.27 Q1311.05 1519.43 1311.63 1520.81 Q1312.25 1522.2 1312.54 1523.81 Q1312.83 1525.38 1312.96 1526.71 Q1313.08 1527.99 1313.08 1529.22 M1308.74 1525.13 Q1308.74 1523.48 1308.61 1522.26 Q1308.48 1521 1308.12 1519.75 Q1307.77 1518.49 1307 1517.82 Q1306.26 1517.14 1305.1 1517.14 Q1301.72 1517.14 1297.91 1524.06 Q1296.69 1526.22 1295.6 1529.15 Q1294.5 1532.08 1294.11 1533.47 Q1293.73 1534.85 1292.83 1538.27 L1306.61 1538.27 Q1308.74 1529.47 1308.74 1525.13 M1306.03 1540.36 L1292.31 1540.36 Q1290.19 1548.41 1290.19 1553.44 Q1290.19 1557.82 1291.09 1559.65 Q1292.02 1561.46 1293.76 1561.46 Q1295.76 1561.46 1297.63 1559.46 Q1299.49 1557.43 1301.39 1553.76 Q1303.91 1548.99 1306.03 1540.36 Z" fill="#000000" fill-rule="evenodd" fill-opacity="1" /><polyline clip-path="url(#clip703)" style="stroke:#000000; stroke-linecap:butt; stroke-linejoin:round; stroke-width:2; stroke-opacity:0.1; fill:none" points="
  249.542,1384.24 2352.76,1384.24 
  "/>
<polyline clip-path="url(#clip703)" style="stroke:#000000; stroke-linecap:butt; stroke-linejoin:round; stroke-width:2; stroke-opacity:0.1; fill:none" points="
  249.542,1113.09 2352.76,1113.09 
  "/>
<polyline clip-path="url(#clip703)" style="stroke:#000000; stroke-linecap:butt; stroke-linejoin:round; stroke-width:2; stroke-opacity:0.1; fill:none" points="
  249.542,841.949 2352.76,841.949 
  "/>
<polyline clip-path="url(#clip703)" style="stroke:#000000; stroke-linecap:butt; stroke-linejoin:round; stroke-width:2; stroke-opacity:0.1; fill:none" points="
  249.542,570.804 2352.76,570.804 
  "/>
<polyline clip-path="url(#clip703)" style="stroke:#000000; stroke-linecap:butt; stroke-linejoin:round; stroke-width:2; stroke-opacity:0.1; fill:none" points="
  249.542,299.66 2352.76,299.66 
  "/>
<polyline clip-path="url(#clip700)" style="stroke:#000000; stroke-linecap:butt; stroke-linejoin:round; stroke-width:4; stroke-opacity:1; fill:none" points="
  249.542,1423.18 249.542,47.2441 
  "/>
<polyline clip-path="url(#clip700)" style="stroke:#000000; stroke-linecap:butt; stroke-linejoin:round; stroke-width:4; stroke-opacity:1; fill:none" points="
  249.542,1384.24 268.44,1384.24 
  "/>
<polyline clip-path="url(#clip700)" style="stroke:#000000; stroke-linecap:butt; stroke-linejoin:round; stroke-width:4; stroke-opacity:1; fill:none" points="
  249.542,1113.09 268.44,1113.09 
  "/>
<polyline clip-path="url(#clip700)" style="stroke:#000000; stroke-linecap:butt; stroke-linejoin:round; stroke-width:4; stroke-opacity:1; fill:none" points="
  249.542,841.949 268.44,841.949 
  "/>
<polyline clip-path="url(#clip700)" style="stroke:#000000; stroke-linecap:butt; stroke-linejoin:round; stroke-width:4; stroke-opacity:1; fill:none" points="
  249.542,570.804 268.44,570.804 
  "/>
<polyline clip-path="url(#clip700)" style="stroke:#000000; stroke-linecap:butt; stroke-linejoin:round; stroke-width:4; stroke-opacity:1; fill:none" points="
  249.542,299.66 268.44,299.66 
  "/>
<path clip-path="url(#clip700)" d="M126.205 1370.04 Q122.593 1370.04 120.765 1373.6 Q118.959 1377.14 118.959 1384.27 Q118.959 1391.38 120.765 1394.94 Q122.593 1398.49 126.205 1398.49 Q129.839 1398.49 131.644 1394.94 Q133.473 1391.38 133.473 1384.27 Q133.473 1377.14 131.644 1373.6 Q129.839 1370.04 126.205 1370.04 M126.205 1366.33 Q132.015 1366.33 135.07 1370.94 Q138.149 1375.52 138.149 1384.27 Q138.149 1393 135.07 1397.61 Q132.015 1402.19 126.205 1402.19 Q120.394 1402.19 117.316 1397.61 Q114.26 1393 114.26 1384.27 Q114.26 1375.52 117.316 1370.94 Q120.394 1366.33 126.205 1366.33 Z" fill="#000000" fill-rule="evenodd" fill-opacity="1" /><path clip-path="url(#clip700)" d="M146.366 1395.64 L151.251 1395.64 L151.251 1401.52 L146.366 1401.52 L146.366 1395.64 Z" fill="#000000" fill-rule="evenodd" fill-opacity="1" /><path clip-path="url(#clip700)" d="M171.436 1370.04 Q167.825 1370.04 165.996 1373.6 Q164.19 1377.14 164.19 1384.27 Q164.19 1391.38 165.996 1394.94 Q167.825 1398.49 171.436 1398.49 Q175.07 1398.49 176.876 1394.94 Q178.704 1391.38 178.704 1384.27 Q178.704 1377.14 176.876 1373.6 Q175.07 1370.04 171.436 1370.04 M171.436 1366.33 Q177.246 1366.33 180.301 1370.94 Q183.38 1375.52 183.38 1384.27 Q183.38 1393 180.301 1397.61 Q177.246 1402.19 171.436 1402.19 Q165.626 1402.19 162.547 1397.61 Q159.491 1393 159.491 1384.27 Q159.491 1375.52 162.547 1370.94 Q165.626 1366.33 171.436 1366.33 Z" fill="#000000" fill-rule="evenodd" fill-opacity="1" /><path clip-path="url(#clip700)" d="M201.598 1370.04 Q197.987 1370.04 196.158 1373.6 Q194.352 1377.14 194.352 1384.27 Q194.352 1391.38 196.158 1394.94 Q197.987 1398.49 201.598 1398.49 Q205.232 1398.49 207.037 1394.94 Q208.866 1391.38 208.866 1384.27 Q208.866 1377.14 207.037 1373.6 Q205.232 1370.04 201.598 1370.04 M201.598 1366.33 Q207.408 1366.33 210.463 1370.94 Q213.542 1375.52 213.542 1384.27 Q213.542 1393 210.463 1397.61 Q207.408 1402.19 201.598 1402.19 Q195.787 1402.19 192.709 1397.61 Q189.653 1393 189.653 1384.27 Q189.653 1375.52 192.709 1370.94 Q195.787 1366.33 201.598 1366.33 Z" fill="#000000" fill-rule="evenodd" fill-opacity="1" /><path clip-path="url(#clip700)" d="M127.2 1098.89 Q123.589 1098.89 121.76 1102.46 Q119.955 1106 119.955 1113.13 Q119.955 1120.23 121.76 1123.8 Q123.589 1127.34 127.2 1127.34 Q130.834 1127.34 132.64 1123.8 Q134.468 1120.23 134.468 1113.13 Q134.468 1106 132.64 1102.46 Q130.834 1098.89 127.2 1098.89 M127.2 1095.19 Q133.01 1095.19 136.066 1099.8 Q139.144 1104.38 139.144 1113.13 Q139.144 1121.86 136.066 1126.46 Q133.01 1131.04 127.2 1131.04 Q121.39 1131.04 118.311 1126.46 Q115.256 1121.86 115.256 1113.13 Q115.256 1104.38 118.311 1099.8 Q121.39 1095.19 127.2 1095.19 Z" fill="#000000" fill-rule="evenodd" fill-opacity="1" /><path clip-path="url(#clip700)" d="M147.362 1124.49 L152.246 1124.49 L152.246 1130.37 L147.362 1130.37 L147.362 1124.49 Z" fill="#000000" fill-rule="evenodd" fill-opacity="1" /><path clip-path="url(#clip700)" d="M172.431 1098.89 Q168.82 1098.89 166.991 1102.46 Q165.186 1106 165.186 1113.13 Q165.186 1120.23 166.991 1123.8 Q168.82 1127.34 172.431 1127.34 Q176.065 1127.34 177.871 1123.8 Q179.7 1120.23 179.7 1113.13 Q179.7 1106 177.871 1102.46 Q176.065 1098.89 172.431 1098.89 M172.431 1095.19 Q178.241 1095.19 181.297 1099.8 Q184.376 1104.38 184.376 1113.13 Q184.376 1121.86 181.297 1126.46 Q178.241 1131.04 172.431 1131.04 Q166.621 1131.04 163.542 1126.46 Q160.487 1121.86 160.487 1113.13 Q160.487 1104.38 163.542 1099.8 Q166.621 1095.19 172.431 1095.19 Z" fill="#000000" fill-rule="evenodd" fill-opacity="1" /><path clip-path="url(#clip700)" d="M192.639 1095.81 L210.996 1095.81 L210.996 1099.75 L196.922 1099.75 L196.922 1108.22 Q197.94 1107.87 198.959 1107.71 Q199.977 1107.53 200.996 1107.53 Q206.783 1107.53 210.162 1110.7 Q213.542 1113.87 213.542 1119.29 Q213.542 1124.86 210.07 1127.97 Q206.598 1131.04 200.278 1131.04 Q198.102 1131.04 195.834 1130.67 Q193.588 1130.3 191.181 1129.56 L191.181 1124.86 Q193.264 1126 195.487 1126.55 Q197.709 1127.11 200.186 1127.11 Q204.19 1127.11 206.528 1125 Q208.866 1122.9 208.866 1119.29 Q208.866 1115.67 206.528 1113.57 Q204.19 1111.46 200.186 1111.46 Q198.311 1111.46 196.436 1111.88 Q194.584 1112.3 192.639 1113.17 L192.639 1095.81 Z" fill="#000000" fill-rule="evenodd" fill-opacity="1" /><path clip-path="url(#clip700)" d="M126.205 827.748 Q122.593 827.748 120.765 831.313 Q118.959 834.854 118.959 841.984 Q118.959 849.09 120.765 852.655 Q122.593 856.197 126.205 856.197 Q129.839 856.197 131.644 852.655 Q133.473 849.09 133.473 841.984 Q133.473 834.854 131.644 831.313 Q129.839 827.748 126.205 827.748 M126.205 824.044 Q132.015 824.044 135.07 828.651 Q138.149 833.234 138.149 841.984 Q138.149 850.711 135.07 855.317 Q132.015 859.9 126.205 859.9 Q120.394 859.9 117.316 855.317 Q114.26 850.711 114.26 841.984 Q114.26 833.234 117.316 828.651 Q120.394 824.044 126.205 824.044 Z" fill="#000000" fill-rule="evenodd" fill-opacity="1" /><path clip-path="url(#clip700)" d="M146.366 853.349 L151.251 853.349 L151.251 859.229 L146.366 859.229 L146.366 853.349 Z" fill="#000000" fill-rule="evenodd" fill-opacity="1" /><path clip-path="url(#clip700)" d="M162.246 855.294 L169.885 855.294 L169.885 828.928 L161.575 830.595 L161.575 826.336 L169.839 824.669 L174.514 824.669 L174.514 855.294 L182.153 855.294 L182.153 859.229 L162.246 859.229 L162.246 855.294 Z" fill="#000000" fill-rule="evenodd" fill-opacity="1" /><path clip-path="url(#clip700)" d="M201.598 827.748 Q197.987 827.748 196.158 831.313 Q194.352 834.854 194.352 841.984 Q194.352 849.09 196.158 852.655 Q197.987 856.197 201.598 856.197 Q205.232 856.197 207.037 852.655 Q208.866 849.09 208.866 841.984 Q208.866 834.854 207.037 831.313 Q205.232 827.748 201.598 827.748 M201.598 824.044 Q207.408 824.044 210.463 828.651 Q213.542 833.234 213.542 841.984 Q213.542 850.711 210.463 855.317 Q207.408 859.9 201.598 859.9 Q195.787 859.9 192.709 855.317 Q189.653 850.711 189.653 841.984 Q189.653 833.234 192.709 828.651 Q195.787 824.044 201.598 824.044 Z" fill="#000000" fill-rule="evenodd" fill-opacity="1" /><path clip-path="url(#clip700)" d="M127.2 556.603 Q123.589 556.603 121.76 560.168 Q119.955 563.71 119.955 570.839 Q119.955 577.946 121.76 581.51 Q123.589 585.052 127.2 585.052 Q130.834 585.052 132.64 581.51 Q134.468 577.946 134.468 570.839 Q134.468 563.71 132.64 560.168 Q130.834 556.603 127.2 556.603 M127.2 552.899 Q133.01 552.899 136.066 557.506 Q139.144 562.089 139.144 570.839 Q139.144 579.566 136.066 584.172 Q133.01 588.756 127.2 588.756 Q121.39 588.756 118.311 584.172 Q115.256 579.566 115.256 570.839 Q115.256 562.089 118.311 557.506 Q121.39 552.899 127.2 552.899 Z" fill="#000000" fill-rule="evenodd" fill-opacity="1" /><path clip-path="url(#clip700)" d="M147.362 582.205 L152.246 582.205 L152.246 588.084 L147.362 588.084 L147.362 582.205 Z" fill="#000000" fill-rule="evenodd" fill-opacity="1" /><path clip-path="url(#clip700)" d="M163.241 584.149 L170.88 584.149 L170.88 557.784 L162.57 559.45 L162.57 555.191 L170.834 553.524 L175.51 553.524 L175.51 584.149 L183.149 584.149 L183.149 588.084 L163.241 588.084 L163.241 584.149 Z" fill="#000000" fill-rule="evenodd" fill-opacity="1" /><path clip-path="url(#clip700)" d="M192.639 553.524 L210.996 553.524 L210.996 557.46 L196.922 557.46 L196.922 565.932 Q197.94 565.585 198.959 565.423 Q199.977 565.237 200.996 565.237 Q206.783 565.237 210.162 568.409 Q213.542 571.58 213.542 576.997 Q213.542 582.575 210.07 585.677 Q206.598 588.756 200.278 588.756 Q198.102 588.756 195.834 588.385 Q193.588 588.015 191.181 587.274 L191.181 582.575 Q193.264 583.709 195.487 584.265 Q197.709 584.821 200.186 584.821 Q204.19 584.821 206.528 582.714 Q208.866 580.608 208.866 576.997 Q208.866 573.385 206.528 571.279 Q204.19 569.172 200.186 569.172 Q198.311 569.172 196.436 569.589 Q194.584 570.006 192.639 570.885 L192.639 553.524 Z" fill="#000000" fill-rule="evenodd" fill-opacity="1" /><path clip-path="url(#clip700)" d="M126.205 285.459 Q122.593 285.459 120.765 289.023 Q118.959 292.565 118.959 299.695 Q118.959 306.801 120.765 310.366 Q122.593 313.907 126.205 313.907 Q129.839 313.907 131.644 310.366 Q133.473 306.801 133.473 299.695 Q133.473 292.565 131.644 289.023 Q129.839 285.459 126.205 285.459 M126.205 281.755 Q132.015 281.755 135.07 286.361 Q138.149 290.945 138.149 299.695 Q138.149 308.421 135.07 313.028 Q132.015 317.611 126.205 317.611 Q120.394 317.611 117.316 313.028 Q114.26 308.421 114.26 299.695 Q114.26 290.945 117.316 286.361 Q120.394 281.755 126.205 281.755 Z" fill="#000000" fill-rule="evenodd" fill-opacity="1" /><path clip-path="url(#clip700)" d="M146.366 311.06 L151.251 311.06 L151.251 316.94 L146.366 316.94 L146.366 311.06 Z" fill="#000000" fill-rule="evenodd" fill-opacity="1" /><path clip-path="url(#clip700)" d="M165.464 313.005 L181.783 313.005 L181.783 316.94 L159.839 316.94 L159.839 313.005 Q162.501 310.25 167.084 305.62 Q171.69 300.968 172.871 299.625 Q175.116 297.102 175.996 295.366 Q176.899 293.607 176.899 291.917 Q176.899 289.162 174.954 287.426 Q173.033 285.69 169.931 285.69 Q167.732 285.69 165.278 286.454 Q162.848 287.218 160.07 288.769 L160.07 284.046 Q162.894 282.912 165.348 282.334 Q167.802 281.755 169.839 281.755 Q175.209 281.755 178.403 284.44 Q181.598 287.125 181.598 291.616 Q181.598 293.746 180.788 295.667 Q180.001 297.565 177.894 300.158 Q177.315 300.829 174.214 304.046 Q171.112 307.241 165.464 313.005 Z" fill="#000000" fill-rule="evenodd" fill-opacity="1" /><path clip-path="url(#clip700)" d="M201.598 285.459 Q197.987 285.459 196.158 289.023 Q194.352 292.565 194.352 299.695 Q194.352 306.801 196.158 310.366 Q197.987 313.907 201.598 313.907 Q205.232 313.907 207.037 310.366 Q208.866 306.801 208.866 299.695 Q208.866 292.565 207.037 289.023 Q205.232 285.459 201.598 285.459 M201.598 281.755 Q207.408 281.755 210.463 286.361 Q213.542 290.945 213.542 299.695 Q213.542 308.421 210.463 313.028 Q207.408 317.611 201.598 317.611 Q195.787 317.611 192.709 313.028 Q189.653 308.421 189.653 299.695 Q189.653 290.945 192.709 286.361 Q195.787 281.755 201.598 281.755 Z" fill="#000000" fill-rule="evenodd" fill-opacity="1" /><path clip-path="url(#clip700)" d="M21.7677 848.522 L58.7206 848.522 L58.7206 840.755 Q58.7206 830.92 54.2646 826.369 Q49.8086 821.786 40.1964 821.786 Q30.6479 821.786 26.2237 826.369 Q21.7677 830.92 21.7677 840.755 L21.7677 848.522 M16.4842 854.951 L16.4842 841.742 Q16.4842 827.928 22.2451 821.467 Q27.9743 815.006 40.1964 815.006 Q52.4822 815.006 58.2432 821.499 Q64.0042 827.992 64.0042 841.742 L64.0042 854.951 L16.4842 854.951 Z" fill="#000000" fill-rule="evenodd" fill-opacity="1" /><path clip-path="url(#clip700)" d="M44.7161 774.52 L47.5806 774.52 L47.5806 801.447 Q53.6281 801.065 56.8109 797.819 Q59.9619 794.54 59.9619 788.716 Q59.9619 785.342 59.1344 782.191 Q58.3069 779.008 56.6518 775.889 L62.1899 775.889 Q63.5267 779.04 64.227 782.35 Q64.9272 785.66 64.9272 789.066 Q64.9272 797.596 59.9619 802.593 Q54.9967 807.558 46.5303 807.558 Q37.7774 807.558 32.6531 802.848 Q27.4968 798.105 27.4968 790.084 Q27.4968 782.891 32.1438 778.722 Q36.7589 774.52 44.7161 774.52 M42.9973 780.377 Q38.1912 780.44 35.3266 783.082 Q32.4621 785.692 32.4621 790.021 Q32.4621 794.922 35.2312 797.882 Q38.0002 800.811 43.0292 801.256 L42.9973 780.377 Z" fill="#000000" fill-rule="evenodd" fill-opacity="1" /><path clip-path="url(#clip700)" d="M42.4881 735.276 L64.0042 735.276 L64.0042 741.132 L42.679 741.132 Q37.6183 741.132 35.1038 743.105 Q32.5894 745.079 32.5894 749.026 Q32.5894 753.768 35.6131 756.505 Q38.6368 759.243 43.8567 759.243 L64.0042 759.243 L64.0042 765.131 L28.3562 765.131 L28.3562 759.243 L33.8944 759.243 Q30.6797 757.142 29.0883 754.309 Q27.4968 751.445 27.4968 747.721 Q27.4968 741.578 31.3163 738.427 Q35.1038 735.276 42.4881 735.276 Z" fill="#000000" fill-rule="evenodd" fill-opacity="1" /><path clip-path="url(#clip700)" d="M29.4065 700.869 L34.9447 700.869 Q33.6716 703.352 33.035 706.025 Q32.3984 708.699 32.3984 711.563 Q32.3984 715.924 33.7352 718.12 Q35.072 720.284 37.7456 720.284 Q39.7826 720.284 40.9603 718.725 Q42.1061 717.165 43.1565 712.455 L43.6021 710.449 Q44.9389 704.211 47.3897 701.601 Q49.8086 698.959 54.1691 698.959 Q59.1344 698.959 62.0308 702.906 Q64.9272 706.821 64.9272 713.696 Q64.9272 716.56 64.3543 719.68 Q63.8132 722.767 62.6992 726.204 L56.6518 726.204 Q58.3387 722.958 59.198 719.807 Q60.0256 716.656 60.0256 713.569 Q60.0256 709.431 58.6251 707.203 Q57.1929 704.975 54.6147 704.975 Q52.2276 704.975 50.9545 706.598 Q49.6813 708.19 48.5037 713.632 L48.0262 715.669 Q46.8804 721.112 44.5251 723.531 Q42.138 725.95 38.0002 725.95 Q32.9713 725.95 30.2341 722.385 Q27.4968 718.82 27.4968 712.264 Q27.4968 709.017 27.9743 706.153 Q28.4517 703.288 29.4065 700.869 Z" fill="#000000" fill-rule="evenodd" fill-opacity="1" /><path clip-path="url(#clip700)" d="M28.3562 689.634 L28.3562 683.777 L64.0042 683.777 L64.0042 689.634 L28.3562 689.634 M14.479 689.634 L14.479 683.777 L21.895 683.777 L21.895 689.634 L14.479 689.634 Z" fill="#000000" fill-rule="evenodd" fill-opacity="1" /><path clip-path="url(#clip700)" d="M18.2347 665.73 L28.3562 665.73 L28.3562 653.667 L32.9077 653.667 L32.9077 665.73 L52.2594 665.73 Q56.6199 665.73 57.8613 664.553 Q59.1026 663.343 59.1026 659.683 L59.1026 653.667 L64.0042 653.667 L64.0042 659.683 Q64.0042 666.462 61.4897 669.04 Q58.9434 671.619 52.2594 671.619 L32.9077 671.619 L32.9077 675.915 L28.3562 675.915 L28.3562 671.619 L18.2347 671.619 L18.2347 665.73 Z" fill="#000000" fill-rule="evenodd" fill-opacity="1" /><path clip-path="url(#clip700)" d="M67.3143 631.133 Q73.68 633.615 75.6216 635.971 Q77.5631 638.326 77.5631 642.273 L77.5631 646.951 L72.6615 646.951 L72.6615 643.514 Q72.6615 641.095 71.5157 639.758 Q70.3699 638.421 66.1048 636.798 L63.4312 635.748 L28.3562 650.166 L28.3562 643.96 L56.238 632.82 L28.3562 621.68 L28.3562 615.473 L67.3143 631.133 Z" fill="#000000" fill-rule="evenodd" fill-opacity="1" /><polyline clip-path="url(#clip703)" style="stroke:#009af9; stroke-linecap:butt; stroke-linejoin:round; stroke-width:12; stroke-opacity:1; fill:none" points="
  249.542,1383.8 250.857,1383.79 252.171,1383.77 253.486,1383.75 254.8,1383.73 256.115,1383.71 257.429,1383.69 258.744,1383.66 260.058,1383.64 261.373,1383.62 
  262.687,1383.59 264.002,1383.57 265.316,1383.54 266.631,1383.51 267.945,1383.48 269.26,1383.45 270.574,1383.42 271.889,1383.39 273.203,1383.36 274.518,1383.32 
  275.832,1383.29 277.147,1383.25 278.461,1383.21 279.776,1383.17 281.09,1383.13 282.405,1383.09 283.719,1383.05 285.034,1383 286.348,1382.95 287.663,1382.91 
  288.977,1382.86 290.292,1382.8 291.606,1382.75 292.921,1382.69 294.235,1382.64 295.55,1382.58 296.864,1382.52 298.179,1382.45 299.493,1382.39 300.808,1382.32 
  302.122,1382.25 303.437,1382.17 304.751,1382.1 306.066,1382.02 307.38,1381.94 308.695,1381.86 310.009,1381.77 311.324,1381.68 312.638,1381.59 313.953,1381.5 
  315.267,1381.4 316.582,1381.3 317.896,1381.19 319.211,1381.09 320.526,1380.97 321.84,1380.86 323.155,1380.74 324.469,1380.62 325.784,1380.49 327.098,1380.36 
  328.413,1380.23 329.727,1380.09 331.042,1379.95 332.356,1379.8 333.671,1379.65 334.985,1379.49 336.3,1379.33 337.614,1379.16 338.929,1378.99 340.243,1378.82 
  341.558,1378.63 342.872,1378.45 344.187,1378.25 345.501,1378.05 346.816,1377.85 348.13,1377.64 349.445,1377.42 350.759,1377.19 352.074,1376.96 353.388,1376.73 
  354.703,1376.48 356.017,1376.23 357.332,1375.97 358.646,1375.7 359.961,1375.43 361.275,1375.15 362.59,1374.86 363.904,1374.56 365.219,1374.25 366.533,1373.93 
  367.848,1373.61 369.162,1373.27 370.477,1372.93 371.791,1372.58 373.106,1372.22 374.42,1371.84 375.735,1371.46 377.049,1371.07 378.364,1370.66 379.678,1370.25 
  380.993,1369.82 382.307,1369.38 383.622,1368.93 384.936,1368.47 386.251,1367.99 387.565,1367.51 388.88,1367.01 390.194,1366.49 391.509,1365.97 392.823,1365.42 
  394.138,1364.87 395.452,1364.3 396.767,1363.72 398.082,1363.12 399.396,1362.51 400.711,1361.88 402.025,1361.23 403.34,1360.57 404.654,1359.89 405.969,1359.2 
  407.283,1358.48 408.598,1357.75 409.912,1357.01 411.227,1356.24 412.541,1355.45 413.856,1354.65 415.17,1353.83 416.485,1352.98 417.799,1352.12 419.114,1351.24 
  420.428,1350.33 421.743,1349.41 423.057,1348.46 424.372,1347.49 425.686,1346.49 427.001,1345.48 428.315,1344.44 429.63,1343.38 430.944,1342.29 432.259,1341.18 
  433.573,1340.04 434.888,1338.88 436.202,1337.69 437.517,1336.48 438.831,1335.24 440.146,1333.97 441.46,1332.67 442.775,1331.35 444.089,1330 445.404,1328.62 
  446.718,1327.21 448.033,1325.76 449.347,1324.29 450.662,1322.79 451.976,1321.26 453.291,1319.69 454.605,1318.1 455.92,1316.46 457.234,1314.8 458.549,1313.1 
  459.863,1311.37 461.178,1309.61 462.492,1307.8 463.807,1305.97 465.121,1304.09 466.436,1302.18 467.75,1300.24 469.065,1298.25 470.379,1296.23 471.694,1294.17 
  473.009,1292.07 474.323,1289.93 475.638,1287.75 476.952,1285.53 478.267,1283.27 479.581,1280.97 480.896,1278.62 482.21,1276.23 483.525,1273.8 484.839,1271.33 
  486.154,1268.81 487.468,1266.25 488.783,1263.65 490.097,1260.99 491.412,1258.3 492.726,1255.55 494.041,1252.76 495.355,1249.93 496.67,1247.04 497.984,1244.11 
  499.299,1241.13 500.613,1238.1 501.928,1235.02 503.242,1231.89 504.557,1228.71 505.871,1225.48 507.186,1222.2 508.5,1218.87 509.815,1215.49 511.129,1212.05 
  512.444,1208.57 513.758,1205.03 515.073,1201.43 516.387,1197.79 517.702,1194.09 519.016,1190.33 520.331,1186.52 521.645,1182.66 522.96,1178.74 524.274,1174.77 
  525.589,1170.74 526.903,1166.66 528.218,1162.52 529.532,1158.32 530.847,1154.07 532.161,1149.76 533.476,1145.39 534.79,1140.97 536.105,1136.49 537.419,1131.95 
  538.734,1127.36 540.048,1122.7 541.363,1117.99 542.677,1113.22 543.992,1108.4 545.306,1103.51 546.621,1098.57 547.936,1093.57 549.25,1088.52 550.565,1083.4 
  551.879,1078.23 553.194,1073 554.508,1067.71 555.823,1062.36 557.137,1056.96 558.452,1051.5 559.766,1045.98 561.081,1040.4 562.395,1034.77 563.71,1029.08 
  565.024,1023.33 566.339,1017.53 567.653,1011.67 568.968,1005.76 570.282,999.786 571.597,993.761 572.911,987.681 574.226,981.547 575.54,975.359 576.855,969.117 
  578.169,962.822 579.484,956.475 580.798,950.075 582.113,943.624 583.427,937.121 584.742,930.568 586.056,923.965 587.371,917.312 588.685,910.611 590,903.862 
  591.314,897.065 592.629,890.221 593.943,883.331 595.258,876.396 596.572,869.417 597.887,862.393 599.201,855.327 600.516,848.219 601.83,841.069 603.145,833.879 
  604.459,826.65 605.774,819.383 607.088,812.077 608.403,804.736 609.717,797.358 611.032,789.946 612.346,782.501 613.661,775.024 614.975,767.515 616.29,759.976 
  617.604,752.408 618.919,744.813 620.233,737.19 621.548,729.543 622.862,721.871 624.177,714.176 625.492,706.46 626.806,698.723 628.121,690.968 629.435,683.194 
  630.75,675.405 632.064,667.601 633.379,659.783 634.693,651.953 636.008,644.112 637.322,636.263 638.637,628.405 639.951,620.542 641.266,612.674 642.58,604.802 
  643.895,596.93 645.209,589.057 646.524,581.186 647.838,573.317 649.153,565.454 650.467,557.597 651.782,549.749 653.096,541.909 654.411,534.082 655.725,526.267 
  657.04,518.467 658.354,510.684 659.669,502.919 660.983,495.173 662.298,487.449 663.612,479.749 664.927,472.074 666.241,464.425 667.556,456.805 668.87,449.216 
  670.185,441.659 671.499,434.135 672.814,426.648 674.128,419.197 675.443,411.787 676.757,404.417 678.072,397.09 679.386,389.808 680.701,382.572 682.015,375.384 
  683.33,368.247 684.644,361.161 685.959,354.129 687.273,347.152 688.588,340.232 689.902,333.372 691.217,326.572 692.531,319.834 693.846,313.161 695.16,306.553 
  696.475,300.014 697.789,293.543 699.104,287.144 700.419,280.818 701.733,274.566 703.048,268.39 704.362,262.292 705.677,256.273 706.991,250.336 708.306,244.481 
  709.62,238.711 710.935,233.026 712.249,227.43 713.564,221.922 714.878,216.504 716.193,211.179 717.507,205.947 718.822,200.81 720.136,195.77 721.451,190.828 
  722.765,185.985 724.08,181.242 725.394,176.602 726.709,172.065 728.023,167.632 729.338,163.305 730.652,159.086 731.967,154.975 733.281,150.973 734.596,147.082 
  735.91,143.303 737.225,139.637 738.539,136.085 739.854,132.648 741.168,129.327 742.483,126.123 743.797,123.036 745.112,120.069 746.426,117.221 747.741,114.494 
  749.055,111.889 750.37,109.405 751.684,107.045 752.999,104.808 754.313,102.695 755.628,100.707 756.942,98.8445 758.257,97.108 759.571,95.4981 760.886,94.0152 
  762.2,92.6597 763.515,91.4322 764.829,90.3328 766.144,89.362 767.458,88.5201 768.773,87.8072 770.087,87.2237 771.402,86.7697 772.716,86.4453 774.031,86.2506 
  775.346,86.1857 776.66,86.2506 777.975,86.4453 779.289,86.7697 780.604,87.2237 781.918,87.8072 783.233,88.5201 784.547,89.362 785.862,90.3328 787.176,91.4322 
  788.491,92.6597 789.805,94.0152 791.12,95.4981 792.434,97.108 793.749,98.8445 795.063,100.707 796.378,102.695 797.692,104.808 799.007,107.045 800.321,109.405 
  801.636,111.889 802.95,114.494 804.265,117.221 805.579,120.069 806.894,123.036 808.208,126.123 809.523,129.327 810.837,132.648 812.152,136.085 813.466,139.637 
  814.781,143.303 816.095,147.082 817.41,150.973 818.724,154.975 820.039,159.086 821.353,163.305 822.668,167.632 823.982,172.065 825.297,176.602 826.611,181.242 
  827.926,185.985 829.24,190.828 830.555,195.77 831.869,200.81 833.184,205.947 834.498,211.179 835.813,216.504 837.127,221.922 838.442,227.43 839.756,233.026 
  841.071,238.711 842.385,244.481 843.7,250.336 845.014,256.273 846.329,262.292 847.643,268.39 848.958,274.566 850.272,280.818 851.587,287.144 852.902,293.543 
  854.216,300.014 855.531,306.553 856.845,313.161 858.16,319.834 859.474,326.572 860.789,333.372 862.103,340.232 863.418,347.152 864.732,354.129 866.047,361.161 
  867.361,368.247 868.676,375.384 869.99,382.572 871.305,389.808 872.619,397.09 873.934,404.417 875.248,411.787 876.563,419.197 877.877,426.648 879.192,434.135 
  880.506,441.659 881.821,449.216 883.135,456.805 884.45,464.425 885.764,472.074 887.079,479.749 888.393,487.449 889.708,495.173 891.022,502.919 892.337,510.684 
  893.651,518.467 894.966,526.267 896.28,534.082 897.595,541.909 898.909,549.749 900.224,557.597 901.538,565.454 902.853,573.317 904.167,581.186 905.482,589.057 
  906.796,596.93 908.111,604.802 909.425,612.674 910.74,620.542 912.054,628.405 913.369,636.263 914.683,644.112 915.998,651.953 917.312,659.783 918.627,667.601 
  919.941,675.405 921.256,683.194 922.57,690.968 923.885,698.723 925.199,706.46 926.514,714.176 927.829,721.871 929.143,729.543 930.458,737.19 931.772,744.813 
  933.087,752.408 934.401,759.976 935.716,767.515 937.03,775.024 938.345,782.501 939.659,789.946 940.974,797.358 942.288,804.736 943.603,812.077 944.917,819.383 
  946.232,826.65 947.546,833.879 948.861,841.069 950.175,848.219 951.49,855.327 952.804,862.393 954.119,869.417 955.433,876.396 956.748,883.331 958.062,890.221 
  959.377,897.065 960.691,903.862 962.006,910.611 963.32,917.312 964.635,923.965 965.949,930.568 967.264,937.121 968.578,943.624 969.893,950.075 971.207,956.475 
  972.522,962.822 973.836,969.117 975.151,975.359 976.465,981.547 977.78,987.681 979.094,993.761 980.409,999.786 981.723,1005.76 983.038,1011.67 984.352,1017.53 
  985.667,1023.33 986.981,1029.08 988.296,1034.77 989.61,1040.4 990.925,1045.98 992.239,1051.5 993.554,1056.96 994.868,1062.36 996.183,1067.71 997.497,1073 
  998.812,1078.23 1000.13,1083.4 1001.44,1088.52 1002.76,1093.57 1004.07,1098.57 1005.38,1103.51 1006.7,1108.4 1008.01,1113.22 1009.33,1117.99 1010.64,1122.7 
  1011.96,1127.36 1013.27,1131.95 1014.59,1136.49 1015.9,1140.97 1017.22,1145.39 1018.53,1149.76 1019.84,1154.07 1021.16,1158.32 1022.47,1162.52 1023.79,1166.66 
  1025.1,1170.74 1026.42,1174.77 1027.73,1178.74 1029.05,1182.66 1030.36,1186.52 1031.67,1190.33 1032.99,1194.09 1034.3,1197.79 1035.62,1201.43 1036.93,1205.03 
  1038.25,1208.57 1039.56,1212.05 1040.88,1215.49 1042.19,1218.87 1043.51,1222.2 1044.82,1225.48 1046.13,1228.71 1047.45,1231.89 1048.76,1235.02 1050.08,1238.1 
  1051.39,1241.13 1052.71,1244.11 1054.02,1247.04 1055.34,1249.93 1056.65,1252.76 1057.96,1255.55 1059.28,1258.3 1060.59,1260.99 1061.91,1263.65 1063.22,1266.25 
  1064.54,1268.81 1065.85,1271.33 1067.17,1273.8 1068.48,1276.23 1069.8,1278.62 1071.11,1280.97 1072.42,1283.27 1073.74,1285.53 1075.05,1287.75 1076.37,1289.93 
  1077.68,1292.07 1079,1294.17 1080.31,1296.23 1081.63,1298.25 1082.94,1300.24 1084.26,1302.18 1085.57,1304.09 1086.88,1305.97 1088.2,1307.8 1089.51,1309.61 
  1090.83,1311.37 1092.14,1313.1 1093.46,1314.8 1094.77,1316.46 1096.09,1318.1 1097.4,1319.69 1098.71,1321.26 1100.03,1322.79 1101.34,1324.29 1102.66,1325.76 
  1103.97,1327.21 1105.29,1328.62 1106.6,1330 1107.92,1331.35 1109.23,1332.67 1110.55,1333.97 1111.86,1335.24 1113.17,1336.48 1114.49,1337.69 1115.8,1338.88 
  1117.12,1340.04 1118.43,1341.18 1119.75,1342.29 1121.06,1343.38 1122.38,1344.44 1123.69,1345.48 1125,1346.49 1126.32,1347.49 1127.63,1348.46 1128.95,1349.4 
  1130.26,1350.33 1131.58,1351.24 1132.89,1352.12 1134.21,1352.98 1135.52,1353.83 1136.84,1354.65 1138.15,1355.45 1139.46,1356.24 1140.78,1357 1142.09,1357.75 
  1143.41,1358.48 1144.72,1359.19 1146.04,1359.89 1147.35,1360.57 1148.67,1361.23 1149.98,1361.87 1151.29,1362.5 1152.61,1363.12 1153.92,1363.72 1155.24,1364.3 
  1156.55,1364.87 1157.87,1365.42 1159.18,1365.96 1160.5,1366.49 1161.81,1367 1163.13,1367.5 1164.44,1367.99 1165.75,1368.46 1167.07,1368.93 1168.38,1369.38 
  1169.7,1369.81 1171.01,1370.24 1172.33,1370.66 1173.64,1371.06 1174.96,1371.46 1176.27,1371.84 1177.59,1372.21 1178.9,1372.57 1180.21,1372.93 1181.53,1373.27 
  1182.84,1373.6 1184.16,1373.93 1185.47,1374.24 1186.79,1374.55 1188.1,1374.85 1189.42,1375.14 1190.73,1375.42 1192.04,1375.7 1193.36,1375.96 1194.67,1376.22 
  1195.99,1376.47 1197.3,1376.72 1198.62,1376.95 1199.93,1377.18 1201.25,1377.41 1202.56,1377.63 1203.88,1377.84 1205.19,1378.04 1206.5,1378.24 1207.82,1378.43 
  1209.13,1378.62 1210.45,1378.8 1211.76,1378.98 1213.08,1379.15 1214.39,1379.31 1215.71,1379.47 1217.02,1379.63 1218.33,1379.78 1219.65,1379.93 1220.96,1380.07 
  1222.28,1380.21 1223.59,1380.34 1224.91,1380.47 1226.22,1380.59 1227.54,1380.72 1228.85,1380.83 1230.17,1380.95 1231.48,1381.06 1232.79,1381.16 1234.11,1381.26 
  1235.42,1381.36 1236.74,1381.46 1238.05,1381.55 1239.37,1381.64 1240.68,1381.73 1242,1381.81 1243.31,1381.9 1244.63,1381.97 1245.94,1382.05 1247.25,1382.12 
  1248.57,1382.19 1249.88,1382.26 1251.2,1382.33 1252.51,1382.39 1253.83,1382.45 1255.14,1382.51 1256.46,1382.57 1257.77,1382.62 1259.08,1382.67 1260.4,1382.72 
  1261.71,1382.77 1263.03,1382.82 1264.34,1382.86 1265.66,1382.91 1266.97,1382.95 1268.29,1382.99 1269.6,1383.03 1270.92,1383.06 1272.23,1383.1 1273.54,1383.13 
  1274.86,1383.16 1276.17,1383.19 1277.49,1383.22 1278.8,1383.25 1280.12,1383.27 1281.43,1383.3 1282.75,1383.32 1284.06,1383.34 1285.37,1383.36 1286.69,1383.38 
  1288,1383.4 1289.32,1383.41 1290.63,1383.43 1291.95,1383.44 1293.26,1383.46 1294.58,1383.47 1295.89,1383.48 1297.21,1383.49 1298.52,1383.5 1299.83,1383.51 
  1301.15,1383.51 1302.46,1383.52 1303.78,1383.52 1305.09,1383.53 1306.41,1383.53 1307.72,1383.53 1309.04,1383.53 1310.35,1383.53 1311.67,1383.52 1312.98,1383.52 
  1314.29,1383.52 1315.61,1383.51 1316.92,1383.5 1318.24,1383.5 1319.55,1383.49 1320.87,1383.48 1322.18,1383.47 1323.5,1383.46 1324.81,1383.44 1326.12,1383.43 
  1327.44,1383.41 1328.75,1383.4 1330.07,1383.38 1331.38,1383.36 1332.7,1383.34 1334.01,1383.32 1335.33,1383.3 1336.64,1383.27 1337.96,1383.25 1339.27,1383.22 
  1340.58,1383.19 1341.9,1383.16 1343.21,1383.13 1344.53,1383.1 1345.84,1383.07 1347.16,1383.03 1348.47,1382.99 1349.79,1382.95 1351.1,1382.91 1352.41,1382.87 
  1353.73,1382.83 1355.04,1382.78 1356.36,1382.74 1357.67,1382.69 1358.99,1382.64 1360.3,1382.59 1361.62,1382.53 1362.93,1382.48 1364.25,1382.42 1365.56,1382.36 
  1366.87,1382.29 1368.19,1382.23 1369.5,1382.16 1370.82,1382.09 1372.13,1382.02 1373.45,1381.94 1374.76,1381.87 1376.08,1381.79 1377.39,1381.71 1378.7,1381.62 
  1380.02,1381.53 1381.33,1381.44 1382.65,1381.35 1383.96,1381.25 1385.28,1381.15 1386.59,1381.05 1387.91,1380.94 1389.22,1380.83 1390.54,1380.72 1391.85,1380.6 
  1393.16,1380.48 1394.48,1380.36 1395.79,1380.23 1397.11,1380.1 1398.42,1379.96 1399.74,1379.82 1401.05,1379.68 1402.37,1379.53 1403.68,1379.37 1405,1379.22 
  1406.31,1379.05 1407.62,1378.89 1408.94,1378.71 1410.25,1378.54 1411.57,1378.35 1412.88,1378.17 1414.2,1377.97 1415.51,1377.78 1416.83,1377.57 1418.14,1377.36 
  1419.45,1377.14 1420.77,1376.92 1422.08,1376.69 1423.4,1376.46 1424.71,1376.22 1426.03,1375.97 1427.34,1375.71 1428.66,1375.45 1429.97,1375.18 1431.29,1374.9 
  1432.6,1374.62 1433.91,1374.33 1435.23,1374.03 1436.54,1373.72 1437.86,1373.4 1439.17,1373.08 1440.49,1372.75 1441.8,1372.4 1443.12,1372.05 1444.43,1371.69 
  1445.74,1371.32 1447.06,1370.94 1448.37,1370.56 1449.69,1370.16 1451,1369.75 1452.32,1369.33 1453.63,1368.9 1454.95,1368.46 1456.26,1368 1457.58,1367.54 
  1458.89,1367.07 1460.2,1366.58 1461.52,1366.08 1462.83,1365.57 1464.15,1365.05 1465.46,1364.51 1466.78,1363.96 1468.09,1363.4 1469.41,1362.83 1470.72,1362.24 
  1472.04,1361.63 1473.35,1361.02 1474.66,1360.38 1475.98,1359.74 1477.29,1359.07 1478.61,1358.4 1479.92,1357.71 1481.24,1357 1482.55,1356.27 1483.87,1355.53 
  1485.18,1354.77 1486.49,1354 1487.81,1353.21 1489.12,1352.4 1490.44,1351.57 1491.75,1350.73 1493.07,1349.86 1494.38,1348.98 1495.7,1348.08 1497.01,1347.16 
  1498.33,1346.22 1499.64,1345.26 1500.95,1344.27 1502.27,1343.27 1503.58,1342.25 1504.9,1341.21 1506.21,1340.14 1507.53,1339.06 1508.84,1337.95 1510.16,1336.82 
  1511.47,1335.66 1512.78,1334.48 1514.1,1333.28 1515.41,1332.06 1516.73,1330.81 1518.04,1329.54 1519.36,1328.24 1520.67,1326.91 1521.99,1325.57 1523.3,1324.19 
  1524.62,1322.79 1525.93,1321.37 1527.24,1319.91 1528.56,1318.43 1529.87,1316.93 1531.19,1315.39 1532.5,1313.83 1533.82,1312.24 1535.13,1310.62 1536.45,1308.97 
  1537.76,1307.29 1539.08,1305.58 1540.39,1303.84 1541.7,1302.08 1543.02,1300.28 1544.33,1298.45 1545.65,1296.59 1546.96,1294.7 1548.28,1292.77 1549.59,1290.82 
  1550.91,1288.83 1552.22,1286.81 1553.53,1284.76 1554.85,1282.67 1556.16,1280.55 1557.48,1278.4 1558.79,1276.21 1560.11,1273.99 1561.42,1271.74 1562.74,1269.45 
  1564.05,1267.12 1565.37,1264.76 1566.68,1262.37 1567.99,1259.94 1569.31,1257.47 1570.62,1254.97 1571.94,1252.43 1573.25,1249.85 1574.57,1247.24 1575.88,1244.59 
  1577.2,1241.91 1578.51,1239.18 1579.82,1236.42 1581.14,1233.63 1582.45,1230.79 1583.77,1227.92 1585.08,1225.01 1586.4,1222.06 1587.71,1219.07 1589.03,1216.05 
  1590.34,1212.98 1591.66,1209.88 1592.97,1206.74 1594.28,1203.56 1595.6,1200.35 1596.91,1197.09 1598.23,1193.79 1599.54,1190.46 1600.86,1187.09 1602.17,1183.68 
  1603.49,1180.23 1604.8,1176.74 1606.11,1173.22 1607.43,1169.65 1608.74,1166.05 1610.06,1162.41 1611.37,1158.73 1612.69,1155.01 1614,1151.26 1615.32,1147.46 
  1616.63,1143.63 1617.95,1139.77 1619.26,1135.86 1620.57,1131.92 1621.89,1127.94 1623.2,1123.92 1624.52,1119.87 1625.83,1115.78 1627.15,1111.65 1628.46,1107.49 
  1629.78,1103.29 1631.09,1099.06 1632.41,1094.8 1633.72,1090.5 1635.03,1086.16 1636.35,1081.79 1637.66,1077.39 1638.98,1072.95 1640.29,1068.49 1641.61,1063.99 
  1642.92,1059.46 1644.24,1054.89 1645.55,1050.3 1646.86,1045.68 1648.18,1041.02 1649.49,1036.34 1650.81,1031.63 1652.12,1026.89 1653.44,1022.13 1654.75,1017.33 
  1656.07,1012.51 1657.38,1007.67 1658.7,1002.8 1660.01,997.903 1661.32,992.985 1662.64,988.044 1663.95,983.08 1665.27,978.095 1666.58,973.089 1667.9,968.063 
  1669.21,963.018 1670.53,957.954 1671.84,952.873 1673.15,947.775 1674.47,942.66 1675.78,937.53 1677.1,932.386 1678.41,927.228 1679.73,922.058 1681.04,916.876 
  1682.36,911.683 1683.67,906.48 1684.99,901.268 1686.3,896.048 1687.61,890.821 1688.93,885.588 1690.24,880.35 1691.56,875.107 1692.87,869.862 1694.19,864.614 
  1695.5,859.366 1696.82,854.117 1698.13,848.87 1699.45,843.624 1700.76,838.382 1702.07,833.144 1703.39,827.912 1704.7,822.686 1706.02,817.467 1707.33,812.258 
  1708.65,807.058 1709.96,801.869 1711.28,796.692 1712.59,791.528 1713.9,786.379 1715.22,781.245 1716.53,776.129 1717.85,771.03 1719.16,765.95 1720.48,760.89 
  1721.79,755.852 1723.11,750.836 1724.42,745.844 1725.74,740.878 1727.05,735.937 1728.36,731.024 1729.68,726.139 1730.99,721.284 1732.31,716.461 1733.62,711.669 
  1734.94,706.91 1736.25,702.187 1737.57,697.499 1738.88,692.847 1740.19,688.234 1741.51,683.661 1742.82,679.127 1744.14,674.636 1745.45,670.187 1746.77,665.782 
  1748.08,661.422 1749.4,657.108 1750.71,652.842 1752.03,648.624 1753.34,644.456 1754.65,640.339 1755.97,636.274 1757.28,632.262 1758.6,628.303 1759.91,624.4 
  1761.23,620.553 1762.54,616.764 1763.86,613.032 1765.17,609.36 1766.49,605.749 1767.8,602.199 1769.11,598.711 1770.43,595.286 1771.74,591.926 1773.06,588.631 
  1774.37,585.403 1775.69,582.241 1777,579.147 1778.32,576.123 1779.63,573.168 1780.94,570.283 1782.26,567.47 1783.57,564.729 1784.89,562.062 1786.2,559.468 
  1787.52,556.948 1788.83,554.504 1790.15,552.136 1791.46,549.845 1792.78,547.631 1794.09,545.494 1795.4,543.437 1796.72,541.459 1798.03,539.56 1799.35,537.742 
  1800.66,536.005 1801.98,534.35 1803.29,532.776 1804.61,531.285 1805.92,529.876 1807.23,528.551 1808.55,527.309 1809.86,526.151 1811.18,525.078 1812.49,524.09 
  1813.81,523.186 1815.12,522.368 1816.44,521.635 1817.75,520.987 1819.07,520.426 1820.38,519.951 1821.69,519.562 1823.01,519.259 1824.32,519.043 1825.64,518.913 
  1826.95,518.87 1828.27,518.913 1829.58,519.043 1830.9,519.259 1832.21,519.562 1833.52,519.951 1834.84,520.426 1836.15,520.987 1837.47,521.635 1838.78,522.368 
  1840.1,523.186 1841.41,524.09 1842.73,525.078 1844.04,526.151 1845.36,527.309 1846.67,528.551 1847.98,529.876 1849.3,531.285 1850.61,532.776 1851.93,534.35 
  1853.24,536.005 1854.56,537.742 1855.87,539.56 1857.19,541.459 1858.5,543.437 1859.82,545.494 1861.13,547.631 1862.44,549.845 1863.76,552.136 1865.07,554.504 
  1866.39,556.948 1867.7,559.468 1869.02,562.062 1870.33,564.729 1871.65,567.47 1872.96,570.283 1874.27,573.168 1875.59,576.123 1876.9,579.147 1878.22,582.241 
  1879.53,585.403 1880.85,588.631 1882.16,591.926 1883.48,595.286 1884.79,598.711 1886.11,602.199 1887.42,605.749 1888.73,609.36 1890.05,613.032 1891.36,616.764 
  1892.68,620.553 1893.99,624.4 1895.31,628.303 1896.62,632.262 1897.94,636.274 1899.25,640.339 1900.56,644.456 1901.88,648.624 1903.19,652.842 1904.51,657.108 
  1905.82,661.422 1907.14,665.782 1908.45,670.187 1909.77,674.636 1911.08,679.127 1912.4,683.661 1913.71,688.234 1915.02,692.847 1916.34,697.499 1917.65,702.187 
  1918.97,706.91 1920.28,711.669 1921.6,716.461 1922.91,721.284 1924.23,726.139 1925.54,731.024 1926.86,735.937 1928.17,740.878 1929.48,745.844 1930.8,750.836 
  1932.11,755.852 1933.43,760.89 1934.74,765.95 1936.06,771.03 1937.37,776.129 1938.69,781.245 1940,786.379 1941.31,791.528 1942.63,796.692 1943.94,801.869 
  1945.26,807.058 1946.57,812.258 1947.89,817.467 1949.2,822.686 1950.52,827.912 1951.83,833.144 1953.15,838.382 1954.46,843.624 1955.77,848.87 1957.09,854.117 
  1958.4,859.366 1959.72,864.614 1961.03,869.862 1962.35,875.107 1963.66,880.35 1964.98,885.588 1966.29,890.821 1967.6,896.048 1968.92,901.268 1970.23,906.48 
  1971.55,911.683 1972.86,916.876 1974.18,922.058 1975.49,927.228 1976.81,932.386 1978.12,937.53 1979.44,942.66 1980.75,947.775 1982.06,952.873 1983.38,957.954 
  1984.69,963.018 1986.01,968.063 1987.32,973.089 1988.64,978.095 1989.95,983.08 1991.27,988.044 1992.58,992.985 1993.9,997.903 1995.21,1002.8 1996.52,1007.67 
  1997.84,1012.51 1999.15,1017.33 2000.47,1022.13 2001.78,1026.89 2003.1,1031.63 2004.41,1036.34 2005.73,1041.02 2007.04,1045.68 2008.35,1050.3 2009.67,1054.89 
  2010.98,1059.46 2012.3,1063.99 2013.61,1068.49 2014.93,1072.95 2016.24,1077.39 2017.56,1081.79 2018.87,1086.16 2020.19,1090.5 2021.5,1094.8 2022.81,1099.06 
  2024.13,1103.29 2025.44,1107.49 2026.76,1111.65 2028.07,1115.78 2029.39,1119.87 2030.7,1123.92 2032.02,1127.94 2033.33,1131.92 2034.64,1135.86 2035.96,1139.77 
  2037.27,1143.63 2038.59,1147.46 2039.9,1151.26 2041.22,1155.01 2042.53,1158.73 2043.85,1162.41 2045.16,1166.05 2046.48,1169.65 2047.79,1173.22 2049.1,1176.74 
  2050.42,1180.23 2051.73,1183.68 2053.05,1187.09 2054.36,1190.46 2055.68,1193.79 2056.99,1197.09 2058.31,1200.35 2059.62,1203.56 2060.93,1206.74 2062.25,1209.88 
  2063.56,1212.98 2064.88,1216.05 2066.19,1219.07 2067.51,1222.06 2068.82,1225.01 2070.14,1227.92 2071.45,1230.79 2072.77,1233.63 2074.08,1236.42 2075.39,1239.18 
  2076.71,1241.91 2078.02,1244.59 2079.34,1247.24 2080.65,1249.85 2081.97,1252.43 2083.28,1254.97 2084.6,1257.47 2085.91,1259.94 2087.23,1262.37 2088.54,1264.76 
  2089.85,1267.12 2091.17,1269.45 2092.48,1271.74 2093.8,1273.99 2095.11,1276.21 2096.43,1278.4 2097.74,1280.55 2099.06,1282.67 2100.37,1284.76 2101.68,1286.81 
  2103,1288.83 2104.31,1290.82 2105.63,1292.77 2106.94,1294.7 2108.26,1296.59 2109.57,1298.45 2110.89,1300.28 2112.2,1302.08 2113.52,1303.84 2114.83,1305.58 
  2116.14,1307.29 2117.46,1308.97 2118.77,1310.62 2120.09,1312.24 2121.4,1313.83 2122.72,1315.39 2124.03,1316.93 2125.35,1318.43 2126.66,1319.91 2127.97,1321.37 
  2129.29,1322.79 2130.6,1324.19 2131.92,1325.57 2133.23,1326.92 2134.55,1328.24 2135.86,1329.54 2137.18,1330.81 2138.49,1332.06 2139.81,1333.28 2141.12,1334.48 
  2142.43,1335.66 2143.75,1336.82 2145.06,1337.95 2146.38,1339.06 2147.69,1340.14 2149.01,1341.21 2150.32,1342.25 2151.64,1343.27 2152.95,1344.28 2154.27,1345.26 
  2155.58,1346.22 2156.89,1347.16 2158.21,1348.08 2159.52,1348.98 2160.84,1349.86 2162.15,1350.73 2163.47,1351.57 2164.78,1352.4 2166.1,1353.21 2167.41,1354 
  2168.72,1354.77 2170.04,1355.53 2171.35,1356.27 2172.67,1357 2173.98,1357.71 2175.3,1358.4 2176.61,1359.08 2177.93,1359.74 2179.24,1360.38 2180.56,1361.02 
  2181.87,1361.63 2183.18,1362.24 2184.5,1362.83 2185.81,1363.4 2187.13,1363.96 2188.44,1364.51 2189.76,1365.05 2191.07,1365.57 2192.39,1366.08 2193.7,1366.58 
  2195.01,1367.07 2196.33,1367.54 2197.64,1368.01 2198.96,1368.46 2200.27,1368.9 2201.59,1369.33 2202.9,1369.75 2204.22,1370.16 2205.53,1370.56 2206.85,1370.95 
  2208.16,1371.33 2209.47,1371.7 2210.79,1372.06 2212.1,1372.41 2213.42,1372.75 2214.73,1373.08 2216.05,1373.41 2217.36,1373.72 2218.68,1374.03 2219.99,1374.33 
  2221.31,1374.62 2222.62,1374.91 2223.93,1375.19 2225.25,1375.46 2226.56,1375.72 2227.88,1375.97 2229.19,1376.22 2230.51,1376.46 2231.82,1376.7 2233.14,1376.93 
  2234.45,1377.15 2235.76,1377.37 2237.08,1377.58 2238.39,1377.78 2239.71,1377.98 2241.02,1378.18 2242.34,1378.37 2243.65,1378.55 2244.97,1378.73 2246.28,1378.9 
  2247.6,1379.07 2248.91,1379.23 2250.22,1379.39 2251.54,1379.54 2252.85,1379.69 2254.17,1379.84 2255.48,1379.98 2256.8,1380.11 2258.11,1380.25 2259.43,1380.38 
  2260.74,1380.5 2262.05,1380.62 2263.37,1380.74 2264.68,1380.86 2266,1380.97 2267.31,1381.07 2268.63,1381.18 2269.94,1381.28 2271.26,1381.38 2272.57,1381.47 
  2273.89,1381.57 2275.2,1381.65 2276.51,1381.74 2277.83,1381.83 2279.14,1381.91 2280.46,1381.99 2281.77,1382.06 2283.09,1382.14 2284.4,1382.21 2285.72,1382.28 
  2287.03,1382.35 2288.34,1382.41 2289.66,1382.47 2290.97,1382.53 2292.29,1382.59 2293.6,1382.65 2294.92,1382.71 2296.23,1382.76 2297.55,1382.81 2298.86,1382.86 
  2300.18,1382.91 2301.49,1382.96 2302.8,1383 2304.12,1383.05 2305.43,1383.09 2306.75,1383.13 2308.06,1383.17 2309.38,1383.21 2310.69,1383.25 2312.01,1383.28 
  2313.32,1383.32 2314.64,1383.35 2315.95,1383.38 2317.26,1383.41 2318.58,1383.44 2319.89,1383.47 2321.21,1383.5 2322.52,1383.53 2323.84,1383.56 2325.15,1383.58 
  2326.47,1383.6 2327.78,1383.63 2329.09,1383.65 2330.41,1383.67 2331.72,1383.69 2333.04,1383.72 2334.35,1383.74 2335.67,1383.75 2336.98,1383.77 2338.3,1383.79 
  2339.61,1383.81 2340.93,1383.82 2342.24,1383.84 2343.55,1383.86 2344.87,1383.87 2346.18,1383.88 2347.5,1383.9 2348.81,1383.91 2350.13,1383.92 2351.44,1383.94 
  2352.76,1383.95 
  "/>
<circle clip-path="url(#clip703)" cx="775.346" cy="86.1857" r="18" fill="#008000" fill-rule="evenodd" fill-opacity="1" stroke="#000000" stroke-opacity="1" stroke-width="3.2"/>
<path clip-path="url(#clip703)" d="
M747.249 115.5 L757.746 97.7681 L768.242 88.0794 L778.739 86.6181 L789.235 93.4121 L799.732 108.332 L810.228 131.095 L820.725 161.275 L831.221 198.314 L841.718 241.541 
  L852.215 290.19 L862.711 343.426 L873.208 400.364 L883.704 460.099 L894.201 521.725 L904.697 584.358 L915.194 647.157 L925.69 709.343 L936.187 770.21 L946.683 829.138 
  L957.18 885.601 L967.676 939.167 L978.173 989.504 L988.669 1036.37 L999.166 1079.63 L1009.66 1119.2 L1020.16 1155.09 L1030.66 1187.38 L1041.15 1216.2 L1051.65 1241.71 
  L1062.14 1264.12 L1072.64 1283.64 L1083.14 1300.53 L1093.63 1315.03 L1104.13 1327.38 L1114.63 1337.82 L1125.12 1346.58 L1135.62 1353.89 L1146.12 1359.93 L1156.61 1364.89 
  L1167.11 1368.94 L1177.61 1372.22 L1188.1 1374.85 L1198.6 1376.95 L1209.1 1378.61 L1219.59 1379.92 L1230.09 1380.94 L1240.59 1381.72 L1251.08 1382.32 L1261.58 1382.77 
  L1272.08 1383.09 L1282.57 1383.32 L1293.07 1383.46 L1303.56 1383.52 L1314.06 1383.52 L1324.56 1383.45 L1335.05 1383.3 L1345.55 1383.07 L1356.05 1382.75 L1366.54 1382.31 
  L1377.04 1381.73 L1387.54 1380.97 L1398.03 1380 L1408.53 1378.77 L1419.03 1377.22 L1429.52 1375.27 L1440.02 1372.87 L1450.52 1369.9 L1461.01 1366.27 L1471.51 1361.88 
  L1482.01 1356.58 L1492.5 1350.24 L1503 1342.71 L1513.5 1333.84 L1523.99 1323.46 L1534.49 1311.41 L1544.98 1297.53 L1555.48 1281.66 L1565.98 1263.65 L1576.47 1243.39 
  L1586.97 1220.76 L1597.47 1195.71 L1607.96 1168.19 L1618.46 1138.24 L1628.96 1105.91 L1639.45 1071.34 L1649.95 1034.71 L1660.45 996.271 L1670.94 956.343 L1681.44 915.305 
  L1691.94 873.598 L1702.43 831.716 L1712.93 790.198 L1723.43 749.62 L1733.92 710.58 L1744.42 673.683 L1754.92 639.528 L1765.41 608.693 L1775.91 581.714 L1786.4 559.075 
  L1786.4 1384.24 L1775.91 1384.24 L1765.41 1384.24 L1754.92 1384.24 L1744.42 1384.24 L1733.92 1384.24 L1723.43 1384.24 L1712.93 1384.24 L1702.43 1384.24 L1691.94 1384.24 
  L1681.44 1384.24 L1670.94 1384.24 L1660.45 1384.24 L1649.95 1384.24 L1639.45 1384.24 L1628.96 1384.24 L1618.46 1384.24 L1607.96 1384.24 L1597.47 1384.24 L1586.97 1384.24 
  L1576.47 1384.24 L1565.98 1384.24 L1555.48 1384.24 L1544.98 1384.24 L1534.49 1384.24 L1523.99 1384.24 L1513.5 1384.24 L1503 1384.24 L1492.5 1384.24 L1482.01 1384.24 
  L1471.51 1384.24 L1461.01 1384.24 L1450.52 1384.24 L1440.02 1384.24 L1429.52 1384.24 L1419.03 1384.24 L1408.53 1384.24 L1398.03 1384.24 L1387.54 1384.24 L1377.04 1384.24 
  L1366.54 1384.24 L1356.05 1384.24 L1345.55 1384.24 L1335.05 1384.24 L1324.56 1384.24 L1314.06 1384.24 L1303.56 1384.24 L1293.07 1384.24 L1282.57 1384.24 L1272.08 1384.24 
  L1261.58 1384.24 L1251.08 1384.24 L1240.59 1384.24 L1230.09 1384.24 L1219.59 1384.24 L1209.1 1384.24 L1198.6 1384.24 L1188.1 1384.24 L1177.61 1384.24 L1167.11 1384.24 
  L1156.61 1384.24 L1146.12 1384.24 L1135.62 1384.24 L1125.12 1384.24 L1114.63 1384.24 L1104.13 1384.24 L1093.63 1384.24 L1083.14 1384.24 L1072.64 1384.24 L1062.14 1384.24 
  L1051.65 1384.24 L1041.15 1384.24 L1030.66 1384.24 L1020.16 1384.24 L1009.66 1384.24 L999.166 1384.24 L988.669 1384.24 L978.173 1384.24 L967.676 1384.24 L957.18 1384.24 
  L946.683 1384.24 L936.187 1384.24 L925.69 1384.24 L915.194 1384.24 L904.697 1384.24 L894.201 1384.24 L883.704 1384.24 L873.208 1384.24 L862.711 1384.24 L852.215 1384.24 
  L841.718 1384.24 L831.221 1384.24 L820.725 1384.24 L810.228 1384.24 L799.732 1384.24 L789.235 1384.24 L778.739 1384.24 L768.242 1384.24 L757.746 1384.24 L747.249 1384.24 
   Z
  " fill="#add8e6" fill-rule="evenodd" fill-opacity="0.5"/>
<polyline clip-path="url(#clip703)" style="stroke:#000000; stroke-linecap:butt; stroke-linejoin:round; stroke-width:4; stroke-opacity:0; fill:none" points="
  747.249,115.5 757.746,97.7681 768.242,88.0794 778.739,86.6181 789.235,93.4121 799.732,108.332 810.228,131.095 820.725,161.275 831.221,198.314 841.718,241.541 
  852.215,290.19 862.711,343.426 873.208,400.364 883.704,460.099 894.201,521.725 904.697,584.358 915.194,647.157 925.69,709.343 936.187,770.21 946.683,829.138 
  957.18,885.601 967.676,939.167 978.173,989.504 988.669,1036.37 999.166,1079.63 1009.66,1119.2 1020.16,1155.09 1030.66,1187.38 1041.15,1216.2 1051.65,1241.71 
  1062.14,1264.12 1072.64,1283.64 1083.14,1300.53 1093.63,1315.03 1104.13,1327.38 1114.63,1337.82 1125.12,1346.58 1135.62,1353.89 1146.12,1359.93 1156.61,1364.89 
  1167.11,1368.94 1177.61,1372.22 1188.1,1374.85 1198.6,1376.95 1209.1,1378.61 1219.59,1379.92 1230.09,1380.94 1240.59,1381.72 1251.08,1382.32 1261.58,1382.77 
  1272.08,1383.09 1282.57,1383.32 1293.07,1383.46 1303.56,1383.52 1314.06,1383.52 1324.56,1383.45 1335.05,1383.3 1345.55,1383.07 1356.05,1382.75 1366.54,1382.31 
  1377.04,1381.73 1387.54,1380.97 1398.03,1380 1408.53,1378.77 1419.03,1377.22 1429.52,1375.27 1440.02,1372.87 1450.52,1369.9 1461.01,1366.27 1471.51,1361.88 
  1482.01,1356.58 1492.5,1350.24 1503,1342.71 1513.5,1333.84 1523.99,1323.46 1534.49,1311.41 1544.98,1297.53 1555.48,1281.66 1565.98,1263.65 1576.47,1243.39 
  1586.97,1220.76 1597.47,1195.71 1607.96,1168.19 1618.46,1138.24 1628.96,1105.91 1639.45,1071.34 1649.95,1034.71 1660.45,996.271 1670.94,956.343 1681.44,915.305 
  1691.94,873.598 1702.43,831.716 1712.93,790.198 1723.43,749.62 1733.92,710.58 1744.42,673.683 1754.92,639.528 1765.41,608.693 1775.91,581.714 1786.4,559.075 
  
  "/>
</svg>
