<?xml version="1.0" encoding="utf-8"?>
<svg xmlns="http://www.w3.org/2000/svg" xmlns:xlink="http://www.w3.org/1999/xlink" width="600" height="400" viewBox="0 0 2400 1600">
<defs>
  <clipPath id="clip190">
    <rect x="0" y="0" width="2400" height="1600"/>
  </clipPath>
</defs>
<path clip-path="url(#clip190)" d="
M0 1600 L2400 1600 L2400 0 L0 0  Z
  " fill="#ffffff" fill-rule="evenodd" fill-opacity="1"/>
<defs>
  <clipPath id="clip191">
    <rect x="480" y="0" width="1681" height="1600"/>
  </clipPath>
</defs>
<defs>
  <clipPath id="clip192">
    <rect x="219" y="47" width="2134" height="1377"/>
  </clipPath>
</defs>
<path clip-path="url(#clip190)" d="
M219.866 1423.18 L2352.76 1423.18 L2352.76 47.2441 L219.866 47.2441  Z
  " fill="#ffffff" fill-rule="evenodd" fill-opacity="1"/>
<polyline clip-path="url(#clip192)" style="stroke:#000000; stroke-linecap:butt; stroke-linejoin:round; stroke-width:2; stroke-opacity:0.1; fill:none" points="
  219.866,1423.18 219.866,47.2441 
  "/>
<polyline clip-path="url(#clip192)" style="stroke:#000000; stroke-linecap:butt; stroke-linejoin:round; stroke-width:2; stroke-opacity:0.1; fill:none" points="
  753.089,1423.18 753.089,47.2441 
  "/>
<polyline clip-path="url(#clip192)" style="stroke:#000000; stroke-linecap:butt; stroke-linejoin:round; stroke-width:2; stroke-opacity:0.1; fill:none" points="
  1286.31,1423.18 1286.31,47.2441 
  "/>
<polyline clip-path="url(#clip192)" style="stroke:#000000; stroke-linecap:butt; stroke-linejoin:round; stroke-width:2; stroke-opacity:0.1; fill:none" points="
  1819.53,1423.18 1819.53,47.2441 
  "/>
<polyline clip-path="url(#clip192)" style="stroke:#000000; stroke-linecap:butt; stroke-linejoin:round; stroke-width:2; stroke-opacity:0.1; fill:none" points="
  2352.76,1423.18 2352.76,47.2441 
  "/>
<polyline clip-path="url(#clip190)" style="stroke:#000000; stroke-linecap:butt; stroke-linejoin:round; stroke-width:4; stroke-opacity:1; fill:none" points="
  219.866,1423.18 2352.76,1423.18 
  "/>
<polyline clip-path="url(#clip190)" style="stroke:#000000; stroke-linecap:butt; stroke-linejoin:round; stroke-width:4; stroke-opacity:1; fill:none" points="
  219.866,1423.18 219.866,1404.28 
  "/>
<polyline clip-path="url(#clip190)" style="stroke:#000000; stroke-linecap:butt; stroke-linejoin:round; stroke-width:4; stroke-opacity:1; fill:none" points="
  753.089,1423.18 753.089,1404.28 
  "/>
<polyline clip-path="url(#clip190)" style="stroke:#000000; stroke-linecap:butt; stroke-linejoin:round; stroke-width:4; stroke-opacity:1; fill:none" points="
  1286.31,1423.18 1286.31,1404.28 
  "/>
<polyline clip-path="url(#clip190)" style="stroke:#000000; stroke-linecap:butt; stroke-linejoin:round; stroke-width:4; stroke-opacity:1; fill:none" points="
  1819.53,1423.18 1819.53,1404.28 
  "/>
<polyline clip-path="url(#clip190)" style="stroke:#000000; stroke-linecap:butt; stroke-linejoin:round; stroke-width:4; stroke-opacity:1; fill:none" points="
  2352.76,1423.18 2352.76,1404.28 
  "/>
<path clip-path="url(#clip190)" d="M188.767 1468.75 L218.443 1468.75 L218.443 1472.69 L188.767 1472.69 L188.767 1468.75 Z" fill="#000000" fill-rule="evenodd" fill-opacity="1" /><path clip-path="url(#clip190)" d="M241.382 1455.09 L229.577 1473.54 L241.382 1473.54 L241.382 1455.09 M240.156 1451.02 L246.035 1451.02 L246.035 1473.54 L250.966 1473.54 L250.966 1477.43 L246.035 1477.43 L246.035 1485.58 L241.382 1485.58 L241.382 1477.43 L225.781 1477.43 L225.781 1472.92 L240.156 1451.02 Z" fill="#000000" fill-rule="evenodd" fill-opacity="1" /><path clip-path="url(#clip190)" d="M723.031 1468.75 L752.707 1468.75 L752.707 1472.69 L723.031 1472.69 L723.031 1468.75 Z" fill="#000000" fill-rule="evenodd" fill-opacity="1" /><path clip-path="url(#clip190)" d="M766.827 1481.64 L783.146 1481.64 L783.146 1485.58 L761.202 1485.58 L761.202 1481.64 Q763.864 1478.89 768.447 1474.26 Q773.054 1469.61 774.234 1468.27 Q776.48 1465.74 777.359 1464.01 Q778.262 1462.25 778.262 1460.56 Q778.262 1457.8 776.318 1456.07 Q774.396 1454.33 771.295 1454.33 Q769.096 1454.33 766.642 1455.09 Q764.211 1455.86 761.434 1457.41 L761.434 1452.69 Q764.258 1451.55 766.711 1450.97 Q769.165 1450.39 771.202 1450.39 Q776.572 1450.39 779.767 1453.08 Q782.961 1455.77 782.961 1460.26 Q782.961 1462.39 782.151 1464.31 Q781.364 1466.2 779.258 1468.8 Q778.679 1469.47 775.577 1472.69 Q772.475 1475.88 766.827 1481.64 Z" fill="#000000" fill-rule="evenodd" fill-opacity="1" /><path clip-path="url(#clip190)" d="M1286.31 1454.1 Q1282.7 1454.1 1280.87 1457.66 Q1279.07 1461.2 1279.07 1468.33 Q1279.07 1475.44 1280.87 1479.01 Q1282.7 1482.55 1286.31 1482.55 Q1289.95 1482.55 1291.75 1479.01 Q1293.58 1475.44 1293.58 1468.33 Q1293.58 1461.2 1291.75 1457.66 Q1289.95 1454.1 1286.31 1454.1 M1286.31 1450.39 Q1292.12 1450.39 1295.18 1455 Q1298.26 1459.58 1298.26 1468.33 Q1298.26 1477.06 1295.18 1481.67 Q1292.12 1486.25 1286.31 1486.25 Q1280.5 1486.25 1277.42 1481.67 Q1274.37 1477.06 1274.37 1468.33 Q1274.37 1459.58 1277.42 1455 Q1280.5 1450.39 1286.31 1450.39 Z" fill="#000000" fill-rule="evenodd" fill-opacity="1" /><path clip-path="url(#clip190)" d="M1814.19 1481.64 L1830.51 1481.64 L1830.51 1485.58 L1808.56 1485.58 L1808.56 1481.64 Q1811.22 1478.89 1815.81 1474.26 Q1820.41 1469.61 1821.59 1468.27 Q1823.84 1465.74 1824.72 1464.01 Q1825.62 1462.25 1825.62 1460.56 Q1825.62 1457.8 1823.68 1456.07 Q1821.76 1454.33 1818.65 1454.33 Q1816.45 1454.33 1814 1455.09 Q1811.57 1455.86 1808.79 1457.41 L1808.79 1452.69 Q1811.62 1451.55 1814.07 1450.97 Q1816.52 1450.39 1818.56 1450.39 Q1823.93 1450.39 1827.13 1453.08 Q1830.32 1455.77 1830.32 1460.26 Q1830.32 1462.39 1829.51 1464.31 Q1828.72 1466.2 1826.62 1468.8 Q1826.04 1469.47 1822.94 1472.69 Q1819.83 1475.88 1814.19 1481.64 Z" fill="#000000" fill-rule="evenodd" fill-opacity="1" /><path clip-path="url(#clip190)" d="M2355.77 1455.09 L2343.96 1473.54 L2355.77 1473.54 L2355.77 1455.09 M2354.54 1451.02 L2360.42 1451.02 L2360.42 1473.54 L2365.35 1473.54 L2365.35 1477.43 L2360.42 1477.43 L2360.42 1485.58 L2355.77 1485.58 L2355.77 1477.43 L2340.16 1477.43 L2340.16 1472.92 L2354.54 1451.02 Z" fill="#000000" fill-rule="evenodd" fill-opacity="1" /><path clip-path="url(#clip190)" d="M1300.48 1528.8 Q1300.48 1530.61 1299.36 1531.64 Q1298.23 1532.64 1296.94 1532.64 Q1295.72 1532.64 1295.07 1531.93 Q1294.43 1531.22 1294.43 1530.32 Q1294.43 1529.09 1295.33 1528.03 Q1296.23 1526.97 1297.59 1526.74 Q1296.27 1525.91 1294.3 1525.91 Q1293.01 1525.91 1291.89 1526.58 Q1290.79 1527.26 1290.11 1528.13 Q1289.47 1529 1288.89 1530.25 Q1288.34 1531.48 1288.12 1532.22 Q1287.92 1532.93 1287.76 1533.7 L1285.51 1542.72 Q1284.41 1547 1284.41 1548.51 Q1284.41 1550.38 1285.32 1551.64 Q1286.22 1552.86 1288.02 1552.86 Q1288.73 1552.86 1289.53 1552.67 Q1290.34 1552.44 1291.37 1551.86 Q1292.43 1551.25 1293.37 1550.35 Q1294.33 1549.42 1295.27 1547.84 Q1296.2 1546.26 1296.81 1544.23 Q1297.01 1543.52 1297.65 1543.52 Q1298.46 1543.52 1298.46 1544.17 Q1298.46 1544.71 1298 1545.87 Q1297.59 1547 1296.65 1548.48 Q1295.75 1549.93 1294.56 1551.25 Q1293.37 1552.54 1291.6 1553.44 Q1289.82 1554.34 1287.89 1554.34 Q1285.12 1554.34 1283.29 1552.86 Q1281.45 1551.38 1280.77 1549.32 Q1280.61 1549.61 1280.39 1550 Q1280.16 1550.38 1279.49 1551.25 Q1278.84 1552.09 1278.1 1552.73 Q1277.36 1553.34 1276.2 1553.83 Q1275.07 1554.34 1273.85 1554.34 Q1272.3 1554.34 1270.92 1553.89 Q1269.57 1553.44 1268.6 1552.41 Q1267.63 1551.38 1267.63 1549.96 Q1267.63 1548.38 1268.7 1547.29 Q1269.79 1546.16 1271.27 1546.16 Q1272.21 1546.16 1272.95 1546.71 Q1273.72 1547.26 1273.72 1548.45 Q1273.72 1549.77 1272.82 1550.77 Q1271.92 1551.77 1270.63 1552.02 Q1271.95 1552.86 1273.91 1552.86 Q1276.04 1552.86 1277.71 1550.99 Q1279.39 1549.13 1280.19 1546 Q1282.19 1538.5 1282.96 1535.15 Q1283.74 1531.77 1283.74 1530.32 Q1283.74 1528.96 1283.38 1528.03 Q1283.03 1527.1 1282.42 1526.68 Q1281.84 1526.23 1281.29 1526.07 Q1280.77 1525.91 1280.19 1525.91 Q1279.23 1525.91 1278.13 1526.29 Q1277.07 1526.68 1275.78 1527.58 Q1274.53 1528.45 1273.33 1530.25 Q1272.14 1532.06 1271.34 1534.54 Q1271.18 1535.28 1270.47 1535.28 Q1269.7 1535.24 1269.7 1534.6 Q1269.7 1534.05 1270.11 1532.93 Q1270.57 1531.77 1271.47 1530.32 Q1272.4 1528.87 1273.59 1527.58 Q1274.82 1526.26 1276.59 1525.36 Q1278.39 1524.46 1280.32 1524.46 Q1281.19 1524.46 1282.03 1524.65 Q1282.9 1524.81 1283.93 1525.29 Q1284.99 1525.78 1285.93 1526.84 Q1286.86 1527.9 1287.44 1529.45 Q1287.83 1528.71 1288.34 1528 Q1288.89 1527.29 1289.73 1526.42 Q1290.6 1525.52 1291.79 1525 Q1293.01 1524.46 1294.37 1524.46 Q1295.69 1524.46 1296.97 1524.81 Q1298.26 1525.13 1299.36 1526.19 Q1300.48 1527.23 1300.48 1528.8 Z" fill="#000000" fill-rule="evenodd" fill-opacity="1" /><polyline clip-path="url(#clip192)" style="stroke:#000000; stroke-linecap:butt; stroke-linejoin:round; stroke-width:2; stroke-opacity:0.1; fill:none" points="
  219.866,1384.25 2352.76,1384.25 
  "/>
<polyline clip-path="url(#clip192)" style="stroke:#000000; stroke-linecap:butt; stroke-linejoin:round; stroke-width:2; stroke-opacity:0.1; fill:none" points="
  219.866,1058.83 2352.76,1058.83 
  "/>
<polyline clip-path="url(#clip192)" style="stroke:#000000; stroke-linecap:butt; stroke-linejoin:round; stroke-width:2; stroke-opacity:0.1; fill:none" points="
  219.866,733.411 2352.76,733.411 
  "/>
<polyline clip-path="url(#clip192)" style="stroke:#000000; stroke-linecap:butt; stroke-linejoin:round; stroke-width:2; stroke-opacity:0.1; fill:none" points="
  219.866,407.992 2352.76,407.992 
  "/>
<polyline clip-path="url(#clip192)" style="stroke:#000000; stroke-linecap:butt; stroke-linejoin:round; stroke-width:2; stroke-opacity:0.1; fill:none" points="
  219.866,82.5741 2352.76,82.5741 
  "/>
<polyline clip-path="url(#clip190)" style="stroke:#000000; stroke-linecap:butt; stroke-linejoin:round; stroke-width:4; stroke-opacity:1; fill:none" points="
  219.866,1423.18 219.866,47.2441 
  "/>
<polyline clip-path="url(#clip190)" style="stroke:#000000; stroke-linecap:butt; stroke-linejoin:round; stroke-width:4; stroke-opacity:1; fill:none" points="
  219.866,1384.25 238.764,1384.25 
  "/>
<polyline clip-path="url(#clip190)" style="stroke:#000000; stroke-linecap:butt; stroke-linejoin:round; stroke-width:4; stroke-opacity:1; fill:none" points="
  219.866,1058.83 238.764,1058.83 
  "/>
<polyline clip-path="url(#clip190)" style="stroke:#000000; stroke-linecap:butt; stroke-linejoin:round; stroke-width:4; stroke-opacity:1; fill:none" points="
  219.866,733.411 238.764,733.411 
  "/>
<polyline clip-path="url(#clip190)" style="stroke:#000000; stroke-linecap:butt; stroke-linejoin:round; stroke-width:4; stroke-opacity:1; fill:none" points="
  219.866,407.992 238.764,407.992 
  "/>
<polyline clip-path="url(#clip190)" style="stroke:#000000; stroke-linecap:butt; stroke-linejoin:round; stroke-width:4; stroke-opacity:1; fill:none" points="
  219.866,82.5741 238.764,82.5741 
  "/>
<path clip-path="url(#clip190)" d="M126.691 1370.05 Q123.08 1370.05 121.251 1373.61 Q119.445 1377.15 119.445 1384.28 Q119.445 1391.39 121.251 1394.95 Q123.08 1398.5 126.691 1398.5 Q130.325 1398.5 132.13 1394.95 Q133.959 1391.39 133.959 1384.28 Q133.959 1377.15 132.13 1373.61 Q130.325 1370.05 126.691 1370.05 M126.691 1366.34 Q132.501 1366.34 135.556 1370.95 Q138.635 1375.53 138.635 1384.28 Q138.635 1393.01 135.556 1397.62 Q132.501 1402.2 126.691 1402.2 Q120.88 1402.2 117.802 1397.62 Q114.746 1393.01 114.746 1384.28 Q114.746 1375.53 117.802 1370.95 Q120.88 1366.34 126.691 1366.34 Z" fill="#000000" fill-rule="evenodd" fill-opacity="1" /><path clip-path="url(#clip190)" d="M146.853 1395.65 L151.737 1395.65 L151.737 1401.53 L146.853 1401.53 L146.853 1395.65 Z" fill="#000000" fill-rule="evenodd" fill-opacity="1" /><path clip-path="url(#clip190)" d="M171.922 1370.05 Q168.311 1370.05 166.482 1373.61 Q164.677 1377.15 164.677 1384.28 Q164.677 1391.39 166.482 1394.95 Q168.311 1398.5 171.922 1398.5 Q175.556 1398.5 177.362 1394.95 Q179.19 1391.39 179.19 1384.28 Q179.19 1377.15 177.362 1373.61 Q175.556 1370.05 171.922 1370.05 M171.922 1366.34 Q177.732 1366.34 180.788 1370.95 Q183.866 1375.53 183.866 1384.28 Q183.866 1393.01 180.788 1397.62 Q177.732 1402.2 171.922 1402.2 Q166.112 1402.2 163.033 1397.62 Q159.978 1393.01 159.978 1384.28 Q159.978 1375.53 163.033 1370.95 Q166.112 1366.34 171.922 1366.34 Z" fill="#000000" fill-rule="evenodd" fill-opacity="1" /><path clip-path="url(#clip190)" d="M127.917 1044.63 Q124.306 1044.63 122.478 1048.19 Q120.672 1051.73 120.672 1058.86 Q120.672 1065.97 122.478 1069.54 Q124.306 1073.08 127.917 1073.08 Q131.552 1073.08 133.357 1069.54 Q135.186 1065.97 135.186 1058.86 Q135.186 1051.73 133.357 1048.19 Q131.552 1044.63 127.917 1044.63 M127.917 1040.92 Q133.728 1040.92 136.783 1045.53 Q139.862 1050.11 139.862 1058.86 Q139.862 1067.59 136.783 1072.2 Q133.728 1076.78 127.917 1076.78 Q122.107 1076.78 119.029 1072.2 Q115.973 1067.59 115.973 1058.86 Q115.973 1050.11 119.029 1045.53 Q122.107 1040.92 127.917 1040.92 Z" fill="#000000" fill-rule="evenodd" fill-opacity="1" /><path clip-path="url(#clip190)" d="M148.079 1070.23 L152.964 1070.23 L152.964 1076.11 L148.079 1076.11 L148.079 1070.23 Z" fill="#000000" fill-rule="evenodd" fill-opacity="1" /><path clip-path="url(#clip190)" d="M163.959 1072.17 L171.598 1072.17 L171.598 1045.81 L163.288 1047.48 L163.288 1043.22 L171.552 1041.55 L176.227 1041.55 L176.227 1072.17 L183.866 1072.17 L183.866 1076.11 L163.959 1076.11 L163.959 1072.17 Z" fill="#000000" fill-rule="evenodd" fill-opacity="1" /><path clip-path="url(#clip190)" d="M128.288 719.209 Q124.677 719.209 122.848 722.774 Q121.043 726.316 121.043 733.445 Q121.043 740.552 122.848 744.117 Q124.677 747.658 128.288 747.658 Q131.922 747.658 133.728 744.117 Q135.556 740.552 135.556 733.445 Q135.556 726.316 133.728 722.774 Q131.922 719.209 128.288 719.209 M128.288 715.506 Q134.098 715.506 137.154 720.112 Q140.232 724.696 140.232 733.445 Q140.232 742.172 137.154 746.779 Q134.098 751.362 128.288 751.362 Q122.478 751.362 119.399 746.779 Q116.343 742.172 116.343 733.445 Q116.343 724.696 119.399 720.112 Q122.478 715.506 128.288 715.506 Z" fill="#000000" fill-rule="evenodd" fill-opacity="1" /><path clip-path="url(#clip190)" d="M148.45 744.811 L153.334 744.811 L153.334 750.691 L148.45 750.691 L148.45 744.811 Z" fill="#000000" fill-rule="evenodd" fill-opacity="1" /><path clip-path="url(#clip190)" d="M167.547 746.756 L183.866 746.756 L183.866 750.691 L161.922 750.691 L161.922 746.756 Q164.584 744.001 169.167 739.371 Q173.774 734.719 174.954 733.376 Q177.2 730.853 178.079 729.117 Q178.982 727.358 178.982 725.668 Q178.982 722.913 177.038 721.177 Q175.116 719.441 172.014 719.441 Q169.815 719.441 167.362 720.205 Q164.931 720.969 162.153 722.52 L162.153 717.797 Q164.977 716.663 167.431 716.084 Q169.885 715.506 171.922 715.506 Q177.292 715.506 180.487 718.191 Q183.681 720.876 183.681 725.367 Q183.681 727.496 182.871 729.418 Q182.084 731.316 179.977 733.908 Q179.399 734.58 176.297 737.797 Q173.195 740.992 167.547 746.756 Z" fill="#000000" fill-rule="evenodd" fill-opacity="1" /><path clip-path="url(#clip190)" d="M127.339 393.791 Q123.728 393.791 121.899 397.356 Q120.093 400.898 120.093 408.027 Q120.093 415.134 121.899 418.698 Q123.728 422.24 127.339 422.24 Q130.973 422.24 132.779 418.698 Q134.607 415.134 134.607 408.027 Q134.607 400.898 132.779 397.356 Q130.973 393.791 127.339 393.791 M127.339 390.087 Q133.149 390.087 136.204 394.694 Q139.283 399.277 139.283 408.027 Q139.283 416.754 136.204 421.36 Q133.149 425.944 127.339 425.944 Q121.529 425.944 118.45 421.36 Q115.394 416.754 115.394 408.027 Q115.394 399.277 118.45 394.694 Q121.529 390.087 127.339 390.087 Z" fill="#000000" fill-rule="evenodd" fill-opacity="1" /><path clip-path="url(#clip190)" d="M147.501 419.393 L152.385 419.393 L152.385 425.272 L147.501 425.272 L147.501 419.393 Z" fill="#000000" fill-rule="evenodd" fill-opacity="1" /><path clip-path="url(#clip190)" d="M176.737 406.638 Q180.093 407.356 181.968 409.624 Q183.866 411.893 183.866 415.226 Q183.866 420.342 180.348 423.143 Q176.829 425.944 170.348 425.944 Q168.172 425.944 165.857 425.504 Q163.565 425.087 161.112 424.231 L161.112 419.717 Q163.056 420.851 165.371 421.43 Q167.686 422.009 170.209 422.009 Q174.607 422.009 176.899 420.272 Q179.214 418.536 179.214 415.226 Q179.214 412.171 177.061 410.458 Q174.931 408.722 171.112 408.722 L167.084 408.722 L167.084 404.879 L171.297 404.879 Q174.746 404.879 176.575 403.513 Q178.403 402.124 178.403 399.532 Q178.403 396.87 176.505 395.458 Q174.63 394.023 171.112 394.023 Q169.19 394.023 166.991 394.439 Q164.792 394.856 162.153 395.736 L162.153 391.569 Q164.815 390.828 167.13 390.458 Q169.468 390.087 171.528 390.087 Q176.852 390.087 179.954 392.518 Q183.056 394.925 183.056 399.046 Q183.056 401.916 181.413 403.907 Q179.769 405.874 176.737 406.638 Z" fill="#000000" fill-rule="evenodd" fill-opacity="1" /><path clip-path="url(#clip190)" d="M126.205 68.3728 Q122.593 68.3728 120.765 71.9376 Q118.959 75.4792 118.959 82.6088 Q118.959 89.7152 120.765 93.28 Q122.593 96.8217 126.205 96.8217 Q129.839 96.8217 131.644 93.28 Q133.473 89.7152 133.473 82.6088 Q133.473 75.4792 131.644 71.9376 Q129.839 68.3728 126.205 68.3728 M126.205 64.6691 Q132.015 64.6691 135.07 69.2755 Q138.149 73.8589 138.149 82.6088 Q138.149 91.3356 135.07 95.9421 Q132.015 100.525 126.205 100.525 Q120.394 100.525 117.316 95.9421 Q114.26 91.3356 114.26 82.6088 Q114.26 73.8589 117.316 69.2755 Q120.394 64.6691 126.205 64.6691 Z" fill="#000000" fill-rule="evenodd" fill-opacity="1" /><path clip-path="url(#clip190)" d="M146.366 93.9745 L151.251 93.9745 L151.251 99.8541 L146.366 99.8541 L146.366 93.9745 Z" fill="#000000" fill-rule="evenodd" fill-opacity="1" /><path clip-path="url(#clip190)" d="M174.283 69.3681 L162.477 87.8171 L174.283 87.8171 L174.283 69.3681 M173.056 65.2941 L178.936 65.2941 L178.936 87.8171 L183.866 87.8171 L183.866 91.706 L178.936 91.706 L178.936 99.8541 L174.283 99.8541 L174.283 91.706 L158.681 91.706 L158.681 87.1921 L173.056 65.2941 Z" fill="#000000" fill-rule="evenodd" fill-opacity="1" /><path clip-path="url(#clip190)" d="M21.7677 848.522 L58.7206 848.522 L58.7206 840.755 Q58.7206 830.92 54.2646 826.369 Q49.8086 821.786 40.1964 821.786 Q30.6479 821.786 26.2237 826.369 Q21.7677 830.92 21.7677 840.755 L21.7677 848.522 M16.4842 854.951 L16.4842 841.742 Q16.4842 827.928 22.2451 821.467 Q27.9743 815.006 40.1964 815.006 Q52.4822 815.006 58.2432 821.499 Q64.0042 827.992 64.0042 841.742 L64.0042 854.951 L16.4842 854.951 Z" fill="#000000" fill-rule="evenodd" fill-opacity="1" /><path clip-path="url(#clip190)" d="M44.7161 774.52 L47.5806 774.52 L47.5806 801.447 Q53.6281 801.065 56.8109 797.819 Q59.9619 794.54 59.9619 788.716 Q59.9619 785.342 59.1344 782.191 Q58.3069 779.008 56.6518 775.889 L62.1899 775.889 Q63.5267 779.04 64.227 782.35 Q64.9272 785.66 64.9272 789.066 Q64.9272 797.596 59.9619 802.593 Q54.9967 807.558 46.5303 807.558 Q37.7774 807.558 32.6531 802.848 Q27.4968 798.105 27.4968 790.084 Q27.4968 782.891 32.1438 778.722 Q36.7589 774.52 44.7161 774.52 M42.9973 780.377 Q38.1912 780.44 35.3266 783.082 Q32.4621 785.692 32.4621 790.021 Q32.4621 794.922 35.2312 797.882 Q38.0002 800.811 43.0292 801.256 L42.9973 780.377 Z" fill="#000000" fill-rule="evenodd" fill-opacity="1" /><path clip-path="url(#clip190)" d="M42.4881 735.276 L64.0042 735.276 L64.0042 741.132 L42.679 741.132 Q37.6183 741.132 35.1038 743.105 Q32.5894 745.079 32.5894 749.026 Q32.5894 753.768 35.6131 756.505 Q38.6368 759.243 43.8567 759.243 L64.0042 759.243 L64.0042 765.131 L28.3562 765.131 L28.3562 759.243 L33.8944 759.243 Q30.6797 757.142 29.0883 754.309 Q27.4968 751.445 27.4968 747.721 Q27.4968 741.578 31.3163 738.427 Q35.1038 735.276 42.4881 735.276 Z" fill="#000000" fill-rule="evenodd" fill-opacity="1" /><path clip-path="url(#clip190)" d="M29.4065 700.869 L34.9447 700.869 Q33.6716 703.352 33.035 706.025 Q32.3984 708.699 32.3984 711.563 Q32.3984 715.924 33.7352 718.12 Q35.072 720.284 37.7456 720.284 Q39.7826 720.284 40.9603 718.725 Q42.1061 717.165 43.1565 712.455 L43.6021 710.449 Q44.9389 704.211 47.3897 701.601 Q49.8086 698.959 54.1691 698.959 Q59.1344 698.959 62.0308 702.906 Q64.9272 706.821 64.9272 713.696 Q64.9272 716.56 64.3543 719.68 Q63.8132 722.767 62.6992 726.204 L56.6518 726.204 Q58.3387 722.958 59.198 719.807 Q60.0256 716.656 60.0256 713.569 Q60.0256 709.431 58.6251 707.203 Q57.1929 704.975 54.6147 704.975 Q52.2276 704.975 50.9545 706.598 Q49.6813 708.19 48.5037 713.632 L48.0262 715.669 Q46.8804 721.112 44.5251 723.531 Q42.138 725.95 38.0002 725.95 Q32.9713 725.95 30.2341 722.385 Q27.4968 718.82 27.4968 712.264 Q27.4968 709.017 27.9743 706.153 Q28.4517 703.288 29.4065 700.869 Z" fill="#000000" fill-rule="evenodd" fill-opacity="1" /><path clip-path="url(#clip190)" d="M28.3562 689.634 L28.3562 683.777 L64.0042 683.777 L64.0042 689.634 L28.3562 689.634 M14.479 689.634 L14.479 683.777 L21.895 683.777 L21.895 689.634 L14.479 689.634 Z" fill="#000000" fill-rule="evenodd" fill-opacity="1" /><path clip-path="url(#clip190)" d="M18.2347 665.73 L28.3562 665.73 L28.3562 653.667 L32.9077 653.667 L32.9077 665.73 L52.2594 665.73 Q56.6199 665.73 57.8613 664.553 Q59.1026 663.343 59.1026 659.683 L59.1026 653.667 L64.0042 653.667 L64.0042 659.683 Q64.0042 666.462 61.4897 669.04 Q58.9434 671.619 52.2594 671.619 L32.9077 671.619 L32.9077 675.915 L28.3562 675.915 L28.3562 671.619 L18.2347 671.619 L18.2347 665.73 Z" fill="#000000" fill-rule="evenodd" fill-opacity="1" /><path clip-path="url(#clip190)" d="M67.3143 631.133 Q73.68 633.615 75.6216 635.971 Q77.5631 638.326 77.5631 642.273 L77.5631 646.951 L72.6615 646.951 L72.6615 643.514 Q72.6615 641.095 71.5157 639.758 Q70.3699 638.421 66.1048 636.798 L63.4312 635.748 L28.3562 650.166 L28.3562 643.96 L56.238 632.82 L28.3562 621.68 L28.3562 615.473 L67.3143 631.133 Z" fill="#000000" fill-rule="evenodd" fill-opacity="1" /><polyline clip-path="url(#clip192)" style="stroke:#009af9; stroke-linecap:butt; stroke-linejoin:round; stroke-width:20; stroke-opacity:1; fill:none" points="
  294.78,1382.96 301.235,1382.84 307.69,1382.71 367.38,1380.83 427.07,1377.04 462.941,1373.22 498.812,1367.7 529.14,1361.24 559.468,1352.67 575.941,1346.94 
  592.414,1340.35 608.886,1332.79 625.359,1324.16 640.545,1315.16 655.731,1305.07 670.918,1293.79 686.104,1281.25 702.385,1266.29 718.666,1249.66 734.948,1231.26 
  751.229,1210.99 770.093,1185.05 788.956,1156.38 807.819,1124.88 826.683,1090.5 843.447,1057.51 860.21,1022.26 876.974,984.78 893.737,945.163 908.438,908.751 
  923.138,870.883 937.838,831.681 952.538,791.291 984.593,699.939 1016.65,605.847 1048.89,510.968 1081.14,418.75 1090.05,394.143 1098.96,370.042 1107.87,346.515 
  1116.79,323.629 1125.7,301.448 1134.61,280.038 1143.53,259.463 1152.44,239.783 1160.92,221.946 1169.4,205.024 1177.88,189.066 1186.36,174.117 1194.84,160.22 
  1203.32,147.415 1211.8,135.74 1220.28,125.229 1229.1,115.568 1237.91,107.23 1246.73,100.243 1255.55,94.6288 1264.37,90.4062 1273.18,87.5887 1282,86.1857 
  1290.82,86.2017 1298.24,87.3153 1305.66,89.4318 1313.09,92.5465 1320.51,96.652 1327.93,101.739 1335.35,107.795 1342.78,114.807 1350.2,122.759 1359.26,133.715 
  1368.32,146.006 1377.38,159.592 1386.45,174.428 1395.51,190.464 1404.57,207.648 1413.63,225.923 1422.69,245.231 1439.3,283.079 1455.9,323.791 1464.2,345.091 
  1472.5,366.95 1480.8,389.314 1489.1,412.129 1519.77,499.441 1550.44,589.497 1581.5,680.931 1612.57,770.24 1629.98,818.597 1647.39,865.363 1664.79,910.287 
  1682.2,953.164 1697.97,990.111 1713.75,1025.15 1729.52,1058.22 1745.3,1089.28 1763.36,1122.35 1781.42,1152.77 1799.48,1180.6 1817.54,1205.91 1834.26,1227.17 
  1850.98,1246.44 1867.71,1263.82 1884.43,1279.42 1900.91,1293.17 1917.4,1305.42 1933.89,1316.29 1950.37,1325.88 1966.38,1334.07 1982.39,1341.28 1998.39,1347.58 
  2014.4,1353.07 2047.22,1362.14 2080.04,1368.8 2115.99,1374 2151.95,1377.58 2204.18,1380.78 2256.41,1382.52 2267.13,1382.75 2277.84,1382.96 
  "/>
<polyline clip-path="url(#clip192)" style="stroke:#e26f46; stroke-linecap:butt; stroke-linejoin:round; stroke-width:20; stroke-opacity:1; fill:none" points="
  -17563.1,1384.24 -17317.7,1384.24 -15048.2,1384.23 -13684.4,1384.23 -12531.3,1384.22 -11278.7,1384.22 -10123.9,1384.21 -8885.82,1384.19 -7451.41,1384.16 -6176.68,1384.1 
  -5058.85,1384.01 -3840.12,1383.79 -2614.14,1383.22 -1936.41,1382.44 -1258.67,1380.63 -936.248,1378.86 -613.823,1375.76 -452.611,1373.3 -291.399,1369.8 -210.793,1367.49 
  -130.187,1364.67 -49.5807,1361.19 31.0254,1356.86 114.837,1351.16 198.649,1343.82 240.555,1339.36 282.46,1334.23 324.366,1328.33 366.272,1321.51 408.178,1313.59 
  450.084,1304.35 491.989,1293.52 533.895,1280.79 575.801,1265.74 617.707,1247.89 638.66,1237.72 659.613,1226.61 680.566,1214.47 701.519,1201.18 722.472,1186.63 
  743.424,1170.69 764.377,1153.22 785.33,1134.07 806.283,1113.08 827.236,1090.09 848.189,1064.92 869.142,1037.39 890.095,1007.33 911.048,974.581 921.524,957.15 
  932.001,938.994 942.477,920.103 952.954,900.466 963.43,880.079 973.906,858.941 984.383,837.056 994.859,814.436 1015.81,767.067 1036.77,717.071 1057.72,664.843 
  1078.67,610.956 1099.62,556.188 1120.58,501.534 1141.53,448.201 1162.48,397.58 1172.96,373.761 1183.44,351.199 1193.91,330.092 1204.39,310.636 1214.86,293.017 
  1225.34,277.415 1235.82,263.991 1246.29,252.889 1256.77,244.233 1267.25,238.118 1277.72,234.615 1288.2,233.763 1298.68,235.574 1309.15,240.025 1319.63,247.066 
  1330.11,256.617 1340.58,268.571 1351.06,282.799 1361.54,299.148 1372.01,317.45 1380.83,334.238 1389.65,352.167 1398.47,371.122 1407.29,390.983 1424.93,432.953 
  1442.56,477.155 1477.84,568.871 1513.11,660.297 1530.75,704.535 1548.39,747.275 1566.03,788.249 1583.67,827.273 1601.3,864.233 1618.94,899.076 1636.58,931.794 
  1654.22,962.416 1671.86,990.998 1689.49,1017.62 1707.13,1042.37 1724.77,1065.34 1742.41,1086.65 1760.05,1106.4 1777.68,1124.68 1795.32,1141.62 1812.96,1157.29 
  1830.6,1171.8 1848.23,1185.23 1865.87,1197.67 1883.51,1209.19 1901.15,1219.87 1918.79,1229.77 1936.42,1238.96 1971.7,1255.41 2006.98,1269.63 2042.25,1281.94 
  2077.53,1292.65 2112.8,1301.99 2148.08,1310.15 2183.35,1317.31 2218.63,1323.62 2289.18,1334.1 2359.73,1342.37 2430.29,1348.96 2500.84,1354.26 2586.97,1359.41 
  2673.11,1363.47 2759.24,1366.7 2845.38,1369.3 3017.65,1373.16 3189.92,1375.81 3534.46,1379.04 3879,1380.82 4510.25,1382.44 5141.49,1383.19 6307.5,1383.76 
  7488.62,1383.99 8812.34,1384.1 10011.8,1384.15 11385.2,1384.19 12656.8,1384.21 13910.4,1384.22 15127.6,1384.22 16375.4,1384.23 17742.4,1384.23 19728.3,1384.24 
  20135.7,1384.24 
  "/>
<path clip-path="url(#clip190)" d="
M1862.31 248.629 L2281.66 248.629 L2281.66 93.1086 L1862.31 93.1086  Z
  " fill="#ffffff" fill-rule="evenodd" fill-opacity="1"/>
<polyline clip-path="url(#clip190)" style="stroke:#000000; stroke-linecap:butt; stroke-linejoin:round; stroke-width:4; stroke-opacity:1; fill:none" points="
  1862.31,248.629 2281.66,248.629 2281.66,93.1086 1862.31,93.1086 1862.31,248.629 
  "/>
<polyline clip-path="url(#clip190)" style="stroke:#009af9; stroke-linecap:butt; stroke-linejoin:round; stroke-width:4; stroke-opacity:1; fill:none" points="
  1886.01,144.949 2028.2,144.949 
  "/>
<path clip-path="url(#clip190)" d="M2051.9 127.669 L2058.2 127.669 L2073.52 156.581 L2073.52 127.669 L2078.06 127.669 L2078.06 162.229 L2071.76 162.229 L2056.44 133.317 L2056.44 162.229 L2051.9 162.229 L2051.9 127.669 Z" fill="#000000" fill-rule="evenodd" fill-opacity="1" /><path clip-path="url(#clip190)" d="M2097.23 139.289 Q2093.8 139.289 2091.81 141.974 Q2089.82 144.636 2089.82 149.289 Q2089.82 153.942 2091.79 156.627 Q2093.78 159.289 2097.23 159.289 Q2100.63 159.289 2102.62 156.604 Q2104.61 153.918 2104.61 149.289 Q2104.61 144.682 2102.62 141.997 Q2100.63 139.289 2097.23 139.289 M2097.23 135.678 Q2102.78 135.678 2105.95 139.289 Q2109.12 142.9 2109.12 149.289 Q2109.12 155.655 2105.95 159.289 Q2102.78 162.9 2097.23 162.9 Q2091.65 162.9 2088.48 159.289 Q2085.33 155.655 2085.33 149.289 Q2085.33 142.9 2088.48 139.289 Q2091.65 135.678 2097.23 135.678 Z" fill="#000000" fill-rule="evenodd" fill-opacity="1" /><path clip-path="url(#clip190)" d="M2131.21 140.284 Q2130.49 139.868 2129.63 139.682 Q2128.8 139.474 2127.78 139.474 Q2124.17 139.474 2122.23 141.835 Q2120.3 144.173 2120.3 148.571 L2120.3 162.229 L2116.02 162.229 L2116.02 136.303 L2120.3 136.303 L2120.3 140.331 Q2121.65 137.969 2123.8 136.835 Q2125.95 135.678 2129.03 135.678 Q2129.47 135.678 2130 135.747 Q2130.54 135.794 2131.18 135.909 L2131.21 140.284 Z" fill="#000000" fill-rule="evenodd" fill-opacity="1" /><path clip-path="url(#clip190)" d="M2155.03 141.28 Q2156.62 138.409 2158.85 137.044 Q2161.07 135.678 2164.08 135.678 Q2168.13 135.678 2170.33 138.525 Q2172.53 141.349 2172.53 146.581 L2172.53 162.229 L2168.24 162.229 L2168.24 146.719 Q2168.24 142.993 2166.92 141.187 Q2165.6 139.382 2162.9 139.382 Q2159.59 139.382 2157.67 141.581 Q2155.74 143.78 2155.74 147.576 L2155.74 162.229 L2151.46 162.229 L2151.46 146.719 Q2151.46 142.969 2150.14 141.187 Q2148.82 139.382 2146.07 139.382 Q2142.8 139.382 2140.88 141.604 Q2138.96 143.803 2138.96 147.576 L2138.96 162.229 L2134.68 162.229 L2134.68 136.303 L2138.96 136.303 L2138.96 140.331 Q2140.42 137.946 2142.46 136.812 Q2144.49 135.678 2147.29 135.678 Q2150.12 135.678 2152.09 137.113 Q2154.08 138.548 2155.03 141.28 Z" fill="#000000" fill-rule="evenodd" fill-opacity="1" /><path clip-path="url(#clip190)" d="M2192.8 149.196 Q2187.64 149.196 2185.65 150.377 Q2183.66 151.557 2183.66 154.405 Q2183.66 156.673 2185.14 158.016 Q2186.65 159.335 2189.22 159.335 Q2192.76 159.335 2194.89 156.835 Q2197.04 154.312 2197.04 150.145 L2197.04 149.196 L2192.8 149.196 M2201.3 147.437 L2201.3 162.229 L2197.04 162.229 L2197.04 158.293 Q2195.58 160.655 2193.41 161.789 Q2191.23 162.9 2188.08 162.9 Q2184.1 162.9 2181.74 160.678 Q2179.4 158.432 2179.4 154.682 Q2179.4 150.307 2182.32 148.085 Q2185.26 145.863 2191.07 145.863 L2197.04 145.863 L2197.04 145.446 Q2197.04 142.507 2195.1 140.909 Q2193.17 139.289 2189.68 139.289 Q2187.46 139.289 2185.35 139.821 Q2183.24 140.354 2181.3 141.419 L2181.3 137.483 Q2183.64 136.581 2185.84 136.141 Q2188.04 135.678 2190.12 135.678 Q2195.74 135.678 2198.52 138.594 Q2201.3 141.511 2201.3 147.437 Z" fill="#000000" fill-rule="evenodd" fill-opacity="1" /><path clip-path="url(#clip190)" d="M2210.07 126.21 L2214.33 126.21 L2214.33 162.229 L2210.07 162.229 L2210.07 126.21 Z" fill="#000000" fill-rule="evenodd" fill-opacity="1" /><polyline clip-path="url(#clip190)" style="stroke:#e26f46; stroke-linecap:butt; stroke-linejoin:round; stroke-width:4; stroke-opacity:1; fill:none" points="
  1886.01,196.789 2028.2,196.789 
  "/>
<path clip-path="url(#clip190)" d="M2074.15 180.643 L2074.15 185.203 Q2071.49 183.93 2069.12 183.305 Q2066.76 182.68 2064.56 182.68 Q2060.74 182.68 2058.66 184.161 Q2056.6 185.643 2056.6 188.374 Q2056.6 190.666 2057.97 191.847 Q2059.36 193.004 2063.2 193.722 L2066.02 194.3 Q2071.25 195.296 2073.73 197.819 Q2076.23 200.319 2076.23 204.532 Q2076.23 209.555 2072.85 212.147 Q2069.49 214.74 2062.99 214.74 Q2060.54 214.74 2057.76 214.184 Q2055 213.629 2052.04 212.541 L2052.04 207.726 Q2054.89 209.323 2057.62 210.133 Q2060.35 210.944 2062.99 210.944 Q2066.99 210.944 2069.17 209.37 Q2071.35 207.796 2071.35 204.879 Q2071.35 202.333 2069.77 200.897 Q2068.22 199.462 2064.66 198.745 L2061.81 198.189 Q2056.58 197.147 2054.24 194.925 Q2051.9 192.703 2051.9 188.745 Q2051.9 184.161 2055.12 181.522 Q2058.36 178.884 2064.03 178.884 Q2066.46 178.884 2068.99 179.323 Q2071.51 179.763 2074.15 180.643 Z" fill="#000000" fill-rule="evenodd" fill-opacity="1" /><path clip-path="url(#clip190)" d="M2087.55 180.782 L2087.55 188.143 L2096.32 188.143 L2096.32 191.453 L2087.55 191.453 L2087.55 205.527 Q2087.55 208.698 2088.41 209.601 Q2089.29 210.504 2091.95 210.504 L2096.32 210.504 L2096.32 214.069 L2091.95 214.069 Q2087.02 214.069 2085.14 212.24 Q2083.27 210.388 2083.27 205.527 L2083.27 191.453 L2080.14 191.453 L2080.14 188.143 L2083.27 188.143 L2083.27 180.782 L2087.55 180.782 Z" fill="#000000" fill-rule="evenodd" fill-opacity="1" /><path clip-path="url(#clip190)" d="M2101.48 203.837 L2101.48 188.143 L2105.74 188.143 L2105.74 203.675 Q2105.74 207.356 2107.18 209.208 Q2108.61 211.036 2111.48 211.036 Q2114.93 211.036 2116.92 208.837 Q2118.94 206.638 2118.94 202.842 L2118.94 188.143 L2123.2 188.143 L2123.2 214.069 L2118.94 214.069 L2118.94 210.087 Q2117.39 212.448 2115.33 213.606 Q2113.29 214.74 2110.58 214.74 Q2106.11 214.74 2103.8 211.962 Q2101.48 209.184 2101.48 203.837 M2112.2 187.518 L2112.2 187.518 Z" fill="#000000" fill-rule="evenodd" fill-opacity="1" /><path clip-path="url(#clip190)" d="M2149.03 192.078 L2149.03 178.05 L2153.29 178.05 L2153.29 214.069 L2149.03 214.069 L2149.03 210.18 Q2147.69 212.495 2145.63 213.629 Q2143.59 214.74 2140.72 214.74 Q2136.02 214.74 2133.06 210.99 Q2130.12 207.24 2130.12 201.129 Q2130.12 195.018 2133.06 191.268 Q2136.02 187.518 2140.72 187.518 Q2143.59 187.518 2145.63 188.652 Q2147.69 189.763 2149.03 192.078 M2134.52 201.129 Q2134.52 205.828 2136.44 208.513 Q2138.38 211.175 2141.76 211.175 Q2145.14 211.175 2147.09 208.513 Q2149.03 205.828 2149.03 201.129 Q2149.03 196.43 2147.09 193.768 Q2145.14 191.083 2141.76 191.083 Q2138.38 191.083 2136.44 193.768 Q2134.52 196.43 2134.52 201.129 Z" fill="#000000" fill-rule="evenodd" fill-opacity="1" /><path clip-path="url(#clip190)" d="M2184.24 200.041 L2184.24 202.124 L2164.66 202.124 Q2164.93 206.522 2167.29 208.837 Q2169.68 211.129 2173.92 211.129 Q2176.37 211.129 2178.66 210.527 Q2180.98 209.925 2183.24 208.721 L2183.24 212.749 Q2180.95 213.721 2178.54 214.231 Q2176.14 214.74 2173.66 214.74 Q2167.46 214.74 2163.82 211.129 Q2160.21 207.518 2160.21 201.36 Q2160.21 194.995 2163.64 191.268 Q2167.09 187.518 2172.92 187.518 Q2178.15 187.518 2181.18 190.897 Q2184.24 194.254 2184.24 200.041 M2179.98 198.791 Q2179.93 195.296 2178.01 193.212 Q2176.11 191.129 2172.97 191.129 Q2169.4 191.129 2167.25 193.143 Q2165.12 195.157 2164.79 198.814 L2179.98 198.791 Z" fill="#000000" fill-rule="evenodd" fill-opacity="1" /><path clip-path="url(#clip190)" d="M2212.78 198.421 L2212.78 214.069 L2208.52 214.069 L2208.52 198.559 Q2208.52 194.879 2207.09 193.05 Q2205.65 191.222 2202.78 191.222 Q2199.33 191.222 2197.34 193.421 Q2195.35 195.62 2195.35 199.416 L2195.35 214.069 L2191.07 214.069 L2191.07 188.143 L2195.35 188.143 L2195.35 192.171 Q2196.88 189.833 2198.94 188.675 Q2201.02 187.518 2203.73 187.518 Q2208.2 187.518 2210.49 190.296 Q2212.78 193.05 2212.78 198.421 Z" fill="#000000" fill-rule="evenodd" fill-opacity="1" /><path clip-path="url(#clip190)" d="M2225.49 180.782 L2225.49 188.143 L2234.26 188.143 L2234.26 191.453 L2225.49 191.453 L2225.49 205.527 Q2225.49 208.698 2226.35 209.601 Q2227.23 210.504 2229.89 210.504 L2234.26 210.504 L2234.26 214.069 L2229.89 214.069 Q2224.96 214.069 2223.08 212.24 Q2221.21 210.388 2221.21 205.527 L2221.21 191.453 L2218.08 191.453 L2218.08 188.143 L2221.21 188.143 L2221.21 180.782 L2225.49 180.782 Z" fill="#000000" fill-rule="evenodd" fill-opacity="1" /></svg>
