<?xml version="1.0" encoding="utf-8"?>
<svg xmlns="http://www.w3.org/2000/svg" xmlns:xlink="http://www.w3.org/1999/xlink" width="600" height="400" viewBox="0 0 2400 1600">
<defs>
  <clipPath id="clip130">
    <rect x="0" y="0" width="2400" height="1600"/>
  </clipPath>
</defs>
<path clip-path="url(#clip130)" d="
M0 1600 L2400 1600 L2400 0 L0 0  Z
  " fill="#ffffff" fill-rule="evenodd" fill-opacity="1"/>
<defs>
  <clipPath id="clip131">
    <rect x="480" y="0" width="1681" height="1600"/>
  </clipPath>
</defs>
<defs>
  <clipPath id="clip132">
    <rect x="896" y="1261" width="686" height="235"/>
  </clipPath>
</defs>
<path clip-path="url(#clip130)" d="
M219.866 1423.18 L2352.76 1423.18 L2352.76 47.2441 L219.866 47.2441  Z
  " fill="#ffffff" fill-rule="evenodd" fill-opacity="1"/>
<defs>
  <clipPath id="clip133">
    <rect x="219" y="47" width="2134" height="1377"/>
  </clipPath>
</defs>
<polyline clip-path="url(#clip133)" style="stroke:#000000; stroke-linecap:butt; stroke-linejoin:round; stroke-width:2; stroke-opacity:0.1; fill:none" points="
  474.742,1423.18 474.742,47.2441 
  "/>
<polyline clip-path="url(#clip133)" style="stroke:#000000; stroke-linecap:butt; stroke-linejoin:round; stroke-width:2; stroke-opacity:0.1; fill:none" points="
  745.265,1423.18 745.265,47.2441 
  "/>
<polyline clip-path="url(#clip133)" style="stroke:#000000; stroke-linecap:butt; stroke-linejoin:round; stroke-width:2; stroke-opacity:0.1; fill:none" points="
  1015.79,1423.18 1015.79,47.2441 
  "/>
<polyline clip-path="url(#clip133)" style="stroke:#000000; stroke-linecap:butt; stroke-linejoin:round; stroke-width:2; stroke-opacity:0.1; fill:none" points="
  1286.31,1423.18 1286.31,47.2441 
  "/>
<polyline clip-path="url(#clip133)" style="stroke:#000000; stroke-linecap:butt; stroke-linejoin:round; stroke-width:2; stroke-opacity:0.1; fill:none" points="
  1556.83,1423.18 1556.83,47.2441 
  "/>
<polyline clip-path="url(#clip133)" style="stroke:#000000; stroke-linecap:butt; stroke-linejoin:round; stroke-width:2; stroke-opacity:0.1; fill:none" points="
  1827.36,1423.18 1827.36,47.2441 
  "/>
<polyline clip-path="url(#clip133)" style="stroke:#000000; stroke-linecap:butt; stroke-linejoin:round; stroke-width:2; stroke-opacity:0.1; fill:none" points="
  2097.88,1423.18 2097.88,47.2441 
  "/>
<polyline clip-path="url(#clip130)" style="stroke:#000000; stroke-linecap:butt; stroke-linejoin:round; stroke-width:4; stroke-opacity:1; fill:none" points="
  219.866,1423.18 2352.76,1423.18 
  "/>
<polyline clip-path="url(#clip130)" style="stroke:#000000; stroke-linecap:butt; stroke-linejoin:round; stroke-width:4; stroke-opacity:1; fill:none" points="
  474.742,1423.18 474.742,1404.28 
  "/>
<polyline clip-path="url(#clip130)" style="stroke:#000000; stroke-linecap:butt; stroke-linejoin:round; stroke-width:4; stroke-opacity:1; fill:none" points="
  745.265,1423.18 745.265,1404.28 
  "/>
<polyline clip-path="url(#clip130)" style="stroke:#000000; stroke-linecap:butt; stroke-linejoin:round; stroke-width:4; stroke-opacity:1; fill:none" points="
  1015.79,1423.18 1015.79,1404.28 
  "/>
<polyline clip-path="url(#clip130)" style="stroke:#000000; stroke-linecap:butt; stroke-linejoin:round; stroke-width:4; stroke-opacity:1; fill:none" points="
  1286.31,1423.18 1286.31,1404.28 
  "/>
<polyline clip-path="url(#clip130)" style="stroke:#000000; stroke-linecap:butt; stroke-linejoin:round; stroke-width:4; stroke-opacity:1; fill:none" points="
  1556.83,1423.18 1556.83,1404.28 
  "/>
<polyline clip-path="url(#clip130)" style="stroke:#000000; stroke-linecap:butt; stroke-linejoin:round; stroke-width:4; stroke-opacity:1; fill:none" points="
  1827.36,1423.18 1827.36,1404.28 
  "/>
<polyline clip-path="url(#clip130)" style="stroke:#000000; stroke-linecap:butt; stroke-linejoin:round; stroke-width:4; stroke-opacity:1; fill:none" points="
  2097.88,1423.18 2097.88,1404.28 
  "/>
<path clip-path="url(#clip130)" d="M444.209 1468.75 L473.885 1468.75 L473.885 1472.69 L444.209 1472.69 L444.209 1468.75 Z" fill="#000000" fill-rule="evenodd" fill-opacity="1" /><path clip-path="url(#clip130)" d="M498.144 1466.95 Q501.501 1467.66 503.376 1469.93 Q505.274 1472.2 505.274 1475.53 Q505.274 1480.65 501.755 1483.45 Q498.237 1486.25 491.755 1486.25 Q489.58 1486.25 487.265 1485.81 Q484.973 1485.39 482.519 1484.54 L482.519 1480.02 Q484.464 1481.16 486.779 1481.74 Q489.093 1482.32 491.617 1482.32 Q496.015 1482.32 498.306 1480.58 Q500.621 1478.84 500.621 1475.53 Q500.621 1472.48 498.468 1470.77 Q496.339 1469.03 492.519 1469.03 L488.492 1469.03 L488.492 1465.19 L492.705 1465.19 Q496.154 1465.19 497.982 1463.82 Q499.811 1462.43 499.811 1459.84 Q499.811 1457.18 497.913 1455.77 Q496.038 1454.33 492.519 1454.33 Q490.598 1454.33 488.399 1454.75 Q486.2 1455.16 483.561 1456.04 L483.561 1451.88 Q486.223 1451.14 488.538 1450.77 Q490.876 1450.39 492.936 1450.39 Q498.26 1450.39 501.362 1452.83 Q504.464 1455.23 504.464 1459.35 Q504.464 1462.22 502.82 1464.21 Q501.177 1466.18 498.144 1466.95 Z" fill="#000000" fill-rule="evenodd" fill-opacity="1" /><path clip-path="url(#clip130)" d="M715.207 1468.75 L744.883 1468.75 L744.883 1472.69 L715.207 1472.69 L715.207 1468.75 Z" fill="#000000" fill-rule="evenodd" fill-opacity="1" /><path clip-path="url(#clip130)" d="M759.003 1481.64 L775.323 1481.64 L775.323 1485.58 L753.378 1485.58 L753.378 1481.64 Q756.04 1478.89 760.624 1474.26 Q765.23 1469.61 766.411 1468.27 Q768.656 1465.74 769.536 1464.01 Q770.438 1462.25 770.438 1460.56 Q770.438 1457.8 768.494 1456.07 Q766.573 1454.33 763.471 1454.33 Q761.272 1454.33 758.818 1455.09 Q756.387 1455.86 753.61 1457.41 L753.61 1452.69 Q756.434 1451.55 758.887 1450.97 Q761.341 1450.39 763.378 1450.39 Q768.748 1450.39 771.943 1453.08 Q775.137 1455.77 775.137 1460.26 Q775.137 1462.39 774.327 1464.31 Q773.54 1466.2 771.434 1468.8 Q770.855 1469.47 767.753 1472.69 Q764.651 1475.88 759.003 1481.64 Z" fill="#000000" fill-rule="evenodd" fill-opacity="1" /><path clip-path="url(#clip130)" d="M985.545 1468.75 L1015.22 1468.75 L1015.22 1472.69 L985.545 1472.69 L985.545 1468.75 Z" fill="#000000" fill-rule="evenodd" fill-opacity="1" /><path clip-path="url(#clip130)" d="M1026.12 1481.64 L1033.76 1481.64 L1033.76 1455.28 L1025.45 1456.95 L1025.45 1452.69 L1033.72 1451.02 L1038.39 1451.02 L1038.39 1481.64 L1046.03 1481.64 L1046.03 1485.58 L1026.12 1485.58 L1026.12 1481.64 Z" fill="#000000" fill-rule="evenodd" fill-opacity="1" /><path clip-path="url(#clip130)" d="M1286.31 1454.1 Q1282.7 1454.1 1280.87 1457.66 Q1279.07 1461.2 1279.07 1468.33 Q1279.07 1475.44 1280.87 1479.01 Q1282.7 1482.55 1286.31 1482.55 Q1289.95 1482.55 1291.75 1479.01 Q1293.58 1475.44 1293.58 1468.33 Q1293.58 1461.2 1291.75 1457.66 Q1289.95 1454.1 1286.31 1454.1 M1286.31 1450.39 Q1292.12 1450.39 1295.18 1455 Q1298.26 1459.58 1298.26 1468.33 Q1298.26 1477.06 1295.18 1481.67 Q1292.12 1486.25 1286.31 1486.25 Q1280.5 1486.25 1277.42 1481.67 Q1274.37 1477.06 1274.37 1468.33 Q1274.37 1459.58 1277.42 1455 Q1280.5 1450.39 1286.31 1450.39 Z" fill="#000000" fill-rule="evenodd" fill-opacity="1" /><path clip-path="url(#clip130)" d="M1547.22 1481.64 L1554.86 1481.64 L1554.86 1455.28 L1546.54 1456.95 L1546.54 1452.69 L1554.81 1451.02 L1559.48 1451.02 L1559.48 1481.64 L1567.12 1481.64 L1567.12 1485.58 L1547.22 1485.58 L1547.22 1481.64 Z" fill="#000000" fill-rule="evenodd" fill-opacity="1" /><path clip-path="url(#clip130)" d="M1822.01 1481.64 L1838.33 1481.64 L1838.33 1485.58 L1816.39 1485.58 L1816.39 1481.64 Q1819.05 1478.89 1823.63 1474.26 Q1828.24 1469.61 1829.42 1468.27 Q1831.66 1465.74 1832.54 1464.01 Q1833.45 1462.25 1833.45 1460.56 Q1833.45 1457.8 1831.5 1456.07 Q1829.58 1454.33 1826.48 1454.33 Q1824.28 1454.33 1821.82 1455.09 Q1819.39 1455.86 1816.62 1457.41 L1816.62 1452.69 Q1819.44 1451.55 1821.89 1450.97 Q1824.35 1450.39 1826.39 1450.39 Q1831.76 1450.39 1834.95 1453.08 Q1838.14 1455.77 1838.14 1460.26 Q1838.14 1462.39 1837.33 1464.31 Q1836.55 1466.2 1834.44 1468.8 Q1833.86 1469.47 1830.76 1472.69 Q1827.66 1475.88 1822.01 1481.64 Z" fill="#000000" fill-rule="evenodd" fill-opacity="1" /><path clip-path="url(#clip130)" d="M2102.13 1466.95 Q2105.48 1467.66 2107.36 1469.93 Q2109.26 1472.2 2109.26 1475.53 Q2109.26 1480.65 2105.74 1483.45 Q2102.22 1486.25 2095.74 1486.25 Q2093.56 1486.25 2091.25 1485.81 Q2088.96 1485.39 2086.5 1484.54 L2086.5 1480.02 Q2088.45 1481.16 2090.76 1481.74 Q2093.08 1482.32 2095.6 1482.32 Q2100 1482.32 2102.29 1480.58 Q2104.61 1478.84 2104.61 1475.53 Q2104.61 1472.48 2102.45 1470.77 Q2100.32 1469.03 2096.5 1469.03 L2092.48 1469.03 L2092.48 1465.19 L2096.69 1465.19 Q2100.14 1465.19 2101.97 1463.82 Q2103.79 1462.43 2103.79 1459.84 Q2103.79 1457.18 2101.9 1455.77 Q2100.02 1454.33 2096.5 1454.33 Q2094.58 1454.33 2092.38 1454.75 Q2090.18 1455.16 2087.54 1456.04 L2087.54 1451.88 Q2090.21 1451.14 2092.52 1450.77 Q2094.86 1450.39 2096.92 1450.39 Q2102.24 1450.39 2105.35 1452.83 Q2108.45 1455.23 2108.45 1459.35 Q2108.45 1462.22 2106.8 1464.21 Q2105.16 1466.18 2102.13 1466.95 Z" fill="#000000" fill-rule="evenodd" fill-opacity="1" /><path clip-path="url(#clip130)" d="M1300.48 1528.8 Q1300.48 1530.61 1299.36 1531.64 Q1298.23 1532.64 1296.94 1532.64 Q1295.72 1532.64 1295.07 1531.93 Q1294.43 1531.22 1294.43 1530.32 Q1294.43 1529.09 1295.33 1528.03 Q1296.23 1526.97 1297.59 1526.74 Q1296.27 1525.91 1294.3 1525.91 Q1293.01 1525.91 1291.89 1526.58 Q1290.79 1527.26 1290.11 1528.13 Q1289.47 1529 1288.89 1530.25 Q1288.34 1531.48 1288.12 1532.22 Q1287.92 1532.93 1287.76 1533.7 L1285.51 1542.72 Q1284.41 1547 1284.41 1548.51 Q1284.41 1550.38 1285.32 1551.64 Q1286.22 1552.86 1288.02 1552.86 Q1288.73 1552.86 1289.53 1552.67 Q1290.34 1552.44 1291.37 1551.86 Q1292.43 1551.25 1293.37 1550.35 Q1294.33 1549.42 1295.27 1547.84 Q1296.2 1546.26 1296.81 1544.23 Q1297.01 1543.52 1297.65 1543.52 Q1298.46 1543.52 1298.46 1544.17 Q1298.46 1544.71 1298 1545.87 Q1297.59 1547 1296.65 1548.48 Q1295.75 1549.93 1294.56 1551.25 Q1293.37 1552.54 1291.6 1553.44 Q1289.82 1554.34 1287.89 1554.34 Q1285.12 1554.34 1283.29 1552.86 Q1281.45 1551.38 1280.77 1549.32 Q1280.61 1549.61 1280.39 1550 Q1280.16 1550.38 1279.49 1551.25 Q1278.84 1552.09 1278.1 1552.73 Q1277.36 1553.34 1276.2 1553.83 Q1275.07 1554.34 1273.85 1554.34 Q1272.3 1554.34 1270.92 1553.89 Q1269.57 1553.44 1268.6 1552.41 Q1267.63 1551.38 1267.63 1549.96 Q1267.63 1548.38 1268.7 1547.29 Q1269.79 1546.16 1271.27 1546.16 Q1272.21 1546.16 1272.95 1546.71 Q1273.72 1547.26 1273.72 1548.45 Q1273.72 1549.77 1272.82 1550.77 Q1271.92 1551.77 1270.63 1552.02 Q1271.95 1552.86 1273.91 1552.86 Q1276.04 1552.86 1277.71 1550.99 Q1279.39 1549.13 1280.19 1546 Q1282.19 1538.5 1282.96 1535.15 Q1283.74 1531.77 1283.74 1530.32 Q1283.74 1528.96 1283.38 1528.03 Q1283.03 1527.1 1282.42 1526.68 Q1281.84 1526.23 1281.29 1526.07 Q1280.77 1525.91 1280.19 1525.91 Q1279.23 1525.91 1278.13 1526.29 Q1277.07 1526.68 1275.78 1527.58 Q1274.53 1528.45 1273.33 1530.25 Q1272.14 1532.06 1271.34 1534.54 Q1271.18 1535.28 1270.47 1535.28 Q1269.7 1535.24 1269.7 1534.6 Q1269.7 1534.05 1270.11 1532.93 Q1270.57 1531.77 1271.47 1530.32 Q1272.4 1528.87 1273.59 1527.58 Q1274.82 1526.26 1276.59 1525.36 Q1278.39 1524.46 1280.32 1524.46 Q1281.19 1524.46 1282.03 1524.65 Q1282.9 1524.81 1283.93 1525.29 Q1284.99 1525.78 1285.93 1526.84 Q1286.86 1527.9 1287.44 1529.45 Q1287.83 1528.71 1288.34 1528 Q1288.89 1527.29 1289.73 1526.42 Q1290.6 1525.52 1291.79 1525 Q1293.01 1524.46 1294.37 1524.46 Q1295.69 1524.46 1296.97 1524.81 Q1298.26 1525.13 1299.36 1526.19 Q1300.48 1527.23 1300.48 1528.8 Z" fill="#000000" fill-rule="evenodd" fill-opacity="1" /><polyline clip-path="url(#clip133)" style="stroke:#000000; stroke-linecap:butt; stroke-linejoin:round; stroke-width:2; stroke-opacity:0.1; fill:none" points="
  219.866,1385.53 2352.76,1385.53 
  "/>
<polyline clip-path="url(#clip133)" style="stroke:#000000; stroke-linecap:butt; stroke-linejoin:round; stroke-width:2; stroke-opacity:0.1; fill:none" points="
  219.866,1059.79 2352.76,1059.79 
  "/>
<polyline clip-path="url(#clip133)" style="stroke:#000000; stroke-linecap:butt; stroke-linejoin:round; stroke-width:2; stroke-opacity:0.1; fill:none" points="
  219.866,734.049 2352.76,734.049 
  "/>
<polyline clip-path="url(#clip133)" style="stroke:#000000; stroke-linecap:butt; stroke-linejoin:round; stroke-width:2; stroke-opacity:0.1; fill:none" points="
  219.866,408.31 2352.76,408.31 
  "/>
<polyline clip-path="url(#clip133)" style="stroke:#000000; stroke-linecap:butt; stroke-linejoin:round; stroke-width:2; stroke-opacity:0.1; fill:none" points="
  219.866,82.5705 2352.76,82.5705 
  "/>
<polyline clip-path="url(#clip130)" style="stroke:#000000; stroke-linecap:butt; stroke-linejoin:round; stroke-width:4; stroke-opacity:1; fill:none" points="
  219.866,1423.18 219.866,47.2441 
  "/>
<polyline clip-path="url(#clip130)" style="stroke:#000000; stroke-linecap:butt; stroke-linejoin:round; stroke-width:4; stroke-opacity:1; fill:none" points="
  219.866,1385.53 238.764,1385.53 
  "/>
<polyline clip-path="url(#clip130)" style="stroke:#000000; stroke-linecap:butt; stroke-linejoin:round; stroke-width:4; stroke-opacity:1; fill:none" points="
  219.866,1059.79 238.764,1059.79 
  "/>
<polyline clip-path="url(#clip130)" style="stroke:#000000; stroke-linecap:butt; stroke-linejoin:round; stroke-width:4; stroke-opacity:1; fill:none" points="
  219.866,734.049 238.764,734.049 
  "/>
<polyline clip-path="url(#clip130)" style="stroke:#000000; stroke-linecap:butt; stroke-linejoin:round; stroke-width:4; stroke-opacity:1; fill:none" points="
  219.866,408.31 238.764,408.31 
  "/>
<polyline clip-path="url(#clip130)" style="stroke:#000000; stroke-linecap:butt; stroke-linejoin:round; stroke-width:4; stroke-opacity:1; fill:none" points="
  219.866,82.5705 238.764,82.5705 
  "/>
<path clip-path="url(#clip130)" d="M126.691 1371.33 Q123.08 1371.33 121.251 1374.89 Q119.445 1378.43 119.445 1385.56 Q119.445 1392.67 121.251 1396.23 Q123.08 1399.78 126.691 1399.78 Q130.325 1399.78 132.13 1396.23 Q133.959 1392.67 133.959 1385.56 Q133.959 1378.43 132.13 1374.89 Q130.325 1371.33 126.691 1371.33 M126.691 1367.62 Q132.501 1367.62 135.556 1372.23 Q138.635 1376.81 138.635 1385.56 Q138.635 1394.29 135.556 1398.9 Q132.501 1403.48 126.691 1403.48 Q120.88 1403.48 117.802 1398.9 Q114.746 1394.29 114.746 1385.56 Q114.746 1376.81 117.802 1372.23 Q120.88 1367.62 126.691 1367.62 Z" fill="#000000" fill-rule="evenodd" fill-opacity="1" /><path clip-path="url(#clip130)" d="M146.853 1396.93 L151.737 1396.93 L151.737 1402.81 L146.853 1402.81 L146.853 1396.93 Z" fill="#000000" fill-rule="evenodd" fill-opacity="1" /><path clip-path="url(#clip130)" d="M171.922 1371.33 Q168.311 1371.33 166.482 1374.89 Q164.677 1378.43 164.677 1385.56 Q164.677 1392.67 166.482 1396.23 Q168.311 1399.78 171.922 1399.78 Q175.556 1399.78 177.362 1396.23 Q179.19 1392.67 179.19 1385.56 Q179.19 1378.43 177.362 1374.89 Q175.556 1371.33 171.922 1371.33 M171.922 1367.62 Q177.732 1367.62 180.788 1372.23 Q183.866 1376.81 183.866 1385.56 Q183.866 1394.29 180.788 1398.9 Q177.732 1403.48 171.922 1403.48 Q166.112 1403.48 163.033 1398.9 Q159.978 1394.29 159.978 1385.56 Q159.978 1376.81 163.033 1372.23 Q166.112 1367.62 171.922 1367.62 Z" fill="#000000" fill-rule="evenodd" fill-opacity="1" /><path clip-path="url(#clip130)" d="M127.917 1045.59 Q124.306 1045.59 122.478 1049.15 Q120.672 1052.69 120.672 1059.82 Q120.672 1066.93 122.478 1070.49 Q124.306 1074.04 127.917 1074.04 Q131.552 1074.04 133.357 1070.49 Q135.186 1066.93 135.186 1059.82 Q135.186 1052.69 133.357 1049.15 Q131.552 1045.59 127.917 1045.59 M127.917 1041.88 Q133.728 1041.88 136.783 1046.49 Q139.862 1051.07 139.862 1059.82 Q139.862 1068.55 136.783 1073.16 Q133.728 1077.74 127.917 1077.74 Q122.107 1077.74 119.029 1073.16 Q115.973 1068.55 115.973 1059.82 Q115.973 1051.07 119.029 1046.49 Q122.107 1041.88 127.917 1041.88 Z" fill="#000000" fill-rule="evenodd" fill-opacity="1" /><path clip-path="url(#clip130)" d="M148.079 1071.19 L152.964 1071.19 L152.964 1077.07 L148.079 1077.07 L148.079 1071.19 Z" fill="#000000" fill-rule="evenodd" fill-opacity="1" /><path clip-path="url(#clip130)" d="M163.959 1073.13 L171.598 1073.13 L171.598 1046.77 L163.288 1048.43 L163.288 1044.18 L171.552 1042.51 L176.227 1042.51 L176.227 1073.13 L183.866 1073.13 L183.866 1077.07 L163.959 1077.07 L163.959 1073.13 Z" fill="#000000" fill-rule="evenodd" fill-opacity="1" /><path clip-path="url(#clip130)" d="M128.288 719.848 Q124.677 719.848 122.848 723.413 Q121.043 726.954 121.043 734.084 Q121.043 741.19 122.848 744.755 Q124.677 748.297 128.288 748.297 Q131.922 748.297 133.728 744.755 Q135.556 741.19 135.556 734.084 Q135.556 726.954 133.728 723.413 Q131.922 719.848 128.288 719.848 M128.288 716.144 Q134.098 716.144 137.154 720.751 Q140.232 725.334 140.232 734.084 Q140.232 742.811 137.154 747.417 Q134.098 752 128.288 752 Q122.478 752 119.399 747.417 Q116.343 742.811 116.343 734.084 Q116.343 725.334 119.399 720.751 Q122.478 716.144 128.288 716.144 Z" fill="#000000" fill-rule="evenodd" fill-opacity="1" /><path clip-path="url(#clip130)" d="M148.45 745.45 L153.334 745.45 L153.334 751.329 L148.45 751.329 L148.45 745.45 Z" fill="#000000" fill-rule="evenodd" fill-opacity="1" /><path clip-path="url(#clip130)" d="M167.547 747.394 L183.866 747.394 L183.866 751.329 L161.922 751.329 L161.922 747.394 Q164.584 744.639 169.167 740.01 Q173.774 735.357 174.954 734.014 Q177.2 731.491 178.079 729.755 Q178.982 727.996 178.982 726.306 Q178.982 723.551 177.038 721.815 Q175.116 720.079 172.014 720.079 Q169.815 720.079 167.362 720.843 Q164.931 721.607 162.153 723.158 L162.153 718.436 Q164.977 717.302 167.431 716.723 Q169.885 716.144 171.922 716.144 Q177.292 716.144 180.487 718.829 Q183.681 721.514 183.681 726.005 Q183.681 728.135 182.871 730.056 Q182.084 731.954 179.977 734.547 Q179.399 735.218 176.297 738.436 Q173.195 741.63 167.547 747.394 Z" fill="#000000" fill-rule="evenodd" fill-opacity="1" /><path clip-path="url(#clip130)" d="M127.339 394.109 Q123.728 394.109 121.899 397.673 Q120.093 401.215 120.093 408.345 Q120.093 415.451 121.899 419.016 Q123.728 422.557 127.339 422.557 Q130.973 422.557 132.779 419.016 Q134.607 415.451 134.607 408.345 Q134.607 401.215 132.779 397.673 Q130.973 394.109 127.339 394.109 M127.339 390.405 Q133.149 390.405 136.204 395.011 Q139.283 399.595 139.283 408.345 Q139.283 417.071 136.204 421.678 Q133.149 426.261 127.339 426.261 Q121.529 426.261 118.45 421.678 Q115.394 417.071 115.394 408.345 Q115.394 399.595 118.45 395.011 Q121.529 390.405 127.339 390.405 Z" fill="#000000" fill-rule="evenodd" fill-opacity="1" /><path clip-path="url(#clip130)" d="M147.501 419.71 L152.385 419.71 L152.385 425.59 L147.501 425.59 L147.501 419.71 Z" fill="#000000" fill-rule="evenodd" fill-opacity="1" /><path clip-path="url(#clip130)" d="M176.737 406.956 Q180.093 407.673 181.968 409.942 Q183.866 412.21 183.866 415.544 Q183.866 420.659 180.348 423.46 Q176.829 426.261 170.348 426.261 Q168.172 426.261 165.857 425.821 Q163.565 425.405 161.112 424.548 L161.112 420.034 Q163.056 421.169 165.371 421.747 Q167.686 422.326 170.209 422.326 Q174.607 422.326 176.899 420.59 Q179.214 418.854 179.214 415.544 Q179.214 412.488 177.061 410.775 Q174.931 409.039 171.112 409.039 L167.084 409.039 L167.084 405.196 L171.297 405.196 Q174.746 405.196 176.575 403.831 Q178.403 402.442 178.403 399.849 Q178.403 397.187 176.505 395.775 Q174.63 394.34 171.112 394.34 Q169.19 394.34 166.991 394.757 Q164.792 395.173 162.153 396.053 L162.153 391.886 Q164.815 391.146 167.13 390.775 Q169.468 390.405 171.528 390.405 Q176.852 390.405 179.954 392.835 Q183.056 395.243 183.056 399.363 Q183.056 402.233 181.413 404.224 Q179.769 406.192 176.737 406.956 Z" fill="#000000" fill-rule="evenodd" fill-opacity="1" /><path clip-path="url(#clip130)" d="M126.205 68.3692 Q122.593 68.3692 120.765 71.934 Q118.959 75.4757 118.959 82.6052 Q118.959 89.7117 120.765 93.2765 Q122.593 96.8181 126.205 96.8181 Q129.839 96.8181 131.644 93.2765 Q133.473 89.7117 133.473 82.6052 Q133.473 75.4757 131.644 71.934 Q129.839 68.3692 126.205 68.3692 M126.205 64.6655 Q132.015 64.6655 135.07 69.272 Q138.149 73.8553 138.149 82.6052 Q138.149 91.332 135.07 95.9385 Q132.015 100.522 126.205 100.522 Q120.394 100.522 117.316 95.9385 Q114.26 91.332 114.26 82.6052 Q114.26 73.8553 117.316 69.272 Q120.394 64.6655 126.205 64.6655 Z" fill="#000000" fill-rule="evenodd" fill-opacity="1" /><path clip-path="url(#clip130)" d="M146.366 93.9709 L151.251 93.9709 L151.251 99.8505 L146.366 99.8505 L146.366 93.9709 Z" fill="#000000" fill-rule="evenodd" fill-opacity="1" /><path clip-path="url(#clip130)" d="M174.283 69.3646 L162.477 87.8135 L174.283 87.8135 L174.283 69.3646 M173.056 65.2905 L178.936 65.2905 L178.936 87.8135 L183.866 87.8135 L183.866 91.7024 L178.936 91.7024 L178.936 99.8505 L174.283 99.8505 L174.283 91.7024 L158.681 91.7024 L158.681 87.1886 L173.056 65.2905 Z" fill="#000000" fill-rule="evenodd" fill-opacity="1" /><path clip-path="url(#clip130)" d="M21.7677 848.522 L58.7206 848.522 L58.7206 840.755 Q58.7206 830.92 54.2646 826.369 Q49.8086 821.786 40.1964 821.786 Q30.6479 821.786 26.2237 826.369 Q21.7677 830.92 21.7677 840.755 L21.7677 848.522 M16.4842 854.951 L16.4842 841.742 Q16.4842 827.928 22.2451 821.467 Q27.9743 815.006 40.1964 815.006 Q52.4822 815.006 58.2432 821.499 Q64.0042 827.992 64.0042 841.742 L64.0042 854.951 L16.4842 854.951 Z" fill="#000000" fill-rule="evenodd" fill-opacity="1" /><path clip-path="url(#clip130)" d="M44.7161 774.52 L47.5806 774.52 L47.5806 801.447 Q53.6281 801.065 56.8109 797.819 Q59.9619 794.54 59.9619 788.716 Q59.9619 785.342 59.1344 782.191 Q58.3069 779.008 56.6518 775.889 L62.1899 775.889 Q63.5267 779.04 64.227 782.35 Q64.9272 785.66 64.9272 789.066 Q64.9272 797.596 59.9619 802.593 Q54.9967 807.558 46.5303 807.558 Q37.7774 807.558 32.6531 802.848 Q27.4968 798.105 27.4968 790.084 Q27.4968 782.891 32.1438 778.722 Q36.7589 774.52 44.7161 774.52 M42.9973 780.377 Q38.1912 780.44 35.3266 783.082 Q32.4621 785.692 32.4621 790.021 Q32.4621 794.922 35.2312 797.882 Q38.0002 800.811 43.0292 801.256 L42.9973 780.377 Z" fill="#000000" fill-rule="evenodd" fill-opacity="1" /><path clip-path="url(#clip130)" d="M42.4881 735.276 L64.0042 735.276 L64.0042 741.132 L42.679 741.132 Q37.6183 741.132 35.1038 743.105 Q32.5894 745.079 32.5894 749.026 Q32.5894 753.768 35.6131 756.505 Q38.6368 759.243 43.8567 759.243 L64.0042 759.243 L64.0042 765.131 L28.3562 765.131 L28.3562 759.243 L33.8944 759.243 Q30.6797 757.142 29.0883 754.309 Q27.4968 751.445 27.4968 747.721 Q27.4968 741.578 31.3163 738.427 Q35.1038 735.276 42.4881 735.276 Z" fill="#000000" fill-rule="evenodd" fill-opacity="1" /><path clip-path="url(#clip130)" d="M29.4065 700.869 L34.9447 700.869 Q33.6716 703.352 33.035 706.025 Q32.3984 708.699 32.3984 711.563 Q32.3984 715.924 33.7352 718.12 Q35.072 720.284 37.7456 720.284 Q39.7826 720.284 40.9603 718.725 Q42.1061 717.165 43.1565 712.455 L43.6021 710.449 Q44.9389 704.211 47.3897 701.601 Q49.8086 698.959 54.1691 698.959 Q59.1344 698.959 62.0308 702.906 Q64.9272 706.821 64.9272 713.696 Q64.9272 716.56 64.3543 719.68 Q63.8132 722.767 62.6992 726.204 L56.6518 726.204 Q58.3387 722.958 59.198 719.807 Q60.0256 716.656 60.0256 713.569 Q60.0256 709.431 58.6251 707.203 Q57.1929 704.975 54.6147 704.975 Q52.2276 704.975 50.9545 706.598 Q49.6813 708.19 48.5037 713.632 L48.0262 715.669 Q46.8804 721.112 44.5251 723.531 Q42.138 725.95 38.0002 725.95 Q32.9713 725.95 30.2341 722.385 Q27.4968 718.82 27.4968 712.264 Q27.4968 709.017 27.9743 706.153 Q28.4517 703.288 29.4065 700.869 Z" fill="#000000" fill-rule="evenodd" fill-opacity="1" /><path clip-path="url(#clip130)" d="M28.3562 689.634 L28.3562 683.777 L64.0042 683.777 L64.0042 689.634 L28.3562 689.634 M14.479 689.634 L14.479 683.777 L21.895 683.777 L21.895 689.634 L14.479 689.634 Z" fill="#000000" fill-rule="evenodd" fill-opacity="1" /><path clip-path="url(#clip130)" d="M18.2347 665.73 L28.3562 665.73 L28.3562 653.667 L32.9077 653.667 L32.9077 665.73 L52.2594 665.73 Q56.6199 665.73 57.8613 664.553 Q59.1026 663.343 59.1026 659.683 L59.1026 653.667 L64.0042 653.667 L64.0042 659.683 Q64.0042 666.462 61.4897 669.04 Q58.9434 671.619 52.2594 671.619 L32.9077 671.619 L32.9077 675.915 L28.3562 675.915 L28.3562 671.619 L18.2347 671.619 L18.2347 665.73 Z" fill="#000000" fill-rule="evenodd" fill-opacity="1" /><path clip-path="url(#clip130)" d="M67.3143 631.133 Q73.68 633.615 75.6216 635.971 Q77.5631 638.326 77.5631 642.273 L77.5631 646.951 L72.6615 646.951 L72.6615 643.514 Q72.6615 641.095 71.5157 639.758 Q70.3699 638.421 66.1048 636.798 L63.4312 635.748 L28.3562 650.166 L28.3562 643.96 L56.238 632.82 L28.3562 621.68 L28.3562 615.473 L67.3143 631.133 Z" fill="#000000" fill-rule="evenodd" fill-opacity="1" /><polyline clip-path="url(#clip133)" style="stroke:#009af9; stroke-linecap:butt; stroke-linejoin:round; stroke-width:20; stroke-opacity:1; fill:none" points="
  280.231,1384.24 286.781,1384.12 293.331,1383.99 353.897,1382.11 414.462,1378.31 450.859,1374.49 487.257,1368.96 518.03,1362.49 548.804,1353.91 565.518,1348.19 
  582.232,1341.59 598.946,1334.02 615.661,1325.38 631.07,1316.37 646.479,1306.27 661.888,1294.98 677.297,1282.43 693.817,1267.45 710.338,1250.81 726.858,1232.39 
  743.378,1212.1 762.518,1186.14 781.658,1157.43 800.799,1125.9 819.939,1091.49 836.949,1058.47 853.958,1023.18 870.968,985.666 887.977,946.01 902.893,909.562 
  917.809,871.656 932.725,832.416 947.641,791.987 980.165,700.545 1012.69,606.359 1045.41,511.387 1078.13,419.078 1087.17,394.447 1096.21,370.322 1105.26,346.772 
  1114.3,323.863 1123.34,301.66 1132.39,280.229 1141.43,259.634 1150.47,239.935 1159.08,222.08 1167.68,205.142 1176.29,189.168 1184.89,174.204 1193.5,160.293 
  1202.1,147.475 1210.71,135.788 1219.31,125.267 1228.26,115.597 1237.2,107.251 1246.15,100.257 1255.1,94.6372 1264.04,90.4103 1272.99,87.5901 1281.94,86.1857 
  1290.89,86.2017 1298.42,87.3164 1305.95,89.435 1313.48,92.5528 1321.01,96.6623 1328.54,101.754 1336.07,107.817 1343.6,114.836 1351.14,122.795 1360.33,133.761 
  1369.53,146.065 1378.72,159.665 1387.92,174.515 1397.11,190.567 1406.31,207.767 1415.5,226.061 1424.69,245.387 1441.54,283.274 1458.39,324.025 1466.81,345.346 
  1475.23,367.227 1483.66,389.613 1492.08,412.451 1523.2,499.849 1554.31,589.993 1585.84,681.518 1617.36,770.914 1635.02,819.32 1652.68,866.132 1670.35,911.1 
  1688.01,954.019 1704.02,991.002 1720.02,1026.08 1736.03,1059.18 1752.03,1090.27 1770.36,1123.37 1788.68,1153.83 1807.01,1181.68 1825.33,1207.01 1842.3,1228.29 
  1859.27,1247.58 1876.24,1264.98 1893.2,1280.6 1909.93,1294.36 1926.66,1306.63 1943.39,1317.5 1960.12,1327.1 1976.36,1335.3 1992.6,1342.51 2008.84,1348.82 
  2025.08,1354.31 2058.38,1363.39 2091.68,1370.07 2128.17,1375.27 2164.65,1378.85 2217.65,1382.06 2270.65,1383.79 2281.52,1384.03 2292.39,1384.24 
  "/>
</svg>
