<?xml version="1.0" encoding="utf-8"?>
<svg xmlns="http://www.w3.org/2000/svg" xmlns:xlink="http://www.w3.org/1999/xlink" width="600" height="400" viewBox="0 0 2400 1600">
<defs>
  <clipPath id="clip250">
    <rect x="0" y="0" width="2400" height="1600"/>
  </clipPath>
</defs>
<path clip-path="url(#clip250)" d="
M0 1600 L2400 1600 L2400 0 L0 0  Z
  " fill="#ffffff" fill-rule="evenodd" fill-opacity="1"/>
<defs>
  <clipPath id="clip251">
    <rect x="480" y="0" width="1681" height="1600"/>
  </clipPath>
</defs>
<path clip-path="url(#clip250)" d="
M141.853 1486.45 L2352.76 1486.45 L2352.76 47.2441 L141.853 47.2441  Z
  " fill="#ffffff" fill-rule="evenodd" fill-opacity="1"/>
<defs>
  <clipPath id="clip252">
    <rect x="141" y="47" width="2212" height="1440"/>
  </clipPath>
</defs>
<polyline clip-path="url(#clip252)" style="stroke:#000000; stroke-linecap:butt; stroke-linejoin:round; stroke-width:2; stroke-opacity:0.1; fill:none" points="
  544.556,1486.45 544.556,47.2441 
  "/>
<polyline clip-path="url(#clip252)" style="stroke:#000000; stroke-linecap:butt; stroke-linejoin:round; stroke-width:2; stroke-opacity:0.1; fill:none" points="
  1247.3,1486.45 1247.3,47.2441 
  "/>
<polyline clip-path="url(#clip252)" style="stroke:#000000; stroke-linecap:butt; stroke-linejoin:round; stroke-width:2; stroke-opacity:0.1; fill:none" points="
  1950.05,1486.45 1950.05,47.2441 
  "/>
<polyline clip-path="url(#clip250)" style="stroke:#000000; stroke-linecap:butt; stroke-linejoin:round; stroke-width:4; stroke-opacity:1; fill:none" points="
  141.853,1486.45 2352.76,1486.45 
  "/>
<polyline clip-path="url(#clip250)" style="stroke:#000000; stroke-linecap:butt; stroke-linejoin:round; stroke-width:4; stroke-opacity:1; fill:none" points="
  544.556,1486.45 544.556,1467.55 
  "/>
<polyline clip-path="url(#clip250)" style="stroke:#000000; stroke-linecap:butt; stroke-linejoin:round; stroke-width:4; stroke-opacity:1; fill:none" points="
  1247.3,1486.45 1247.3,1467.55 
  "/>
<polyline clip-path="url(#clip250)" style="stroke:#000000; stroke-linecap:butt; stroke-linejoin:round; stroke-width:4; stroke-opacity:1; fill:none" points="
  1950.05,1486.45 1950.05,1467.55 
  "/>
<path clip-path="url(#clip250)" d="M503.422 1544.96 L503.422 1558.71 L499.14 1558.71 L499.14 1522.92 L503.422 1522.92 L503.422 1526.86 Q504.764 1524.54 506.802 1523.43 Q508.862 1522.3 511.709 1522.3 Q516.431 1522.3 519.371 1526.05 Q522.334 1529.8 522.334 1535.91 Q522.334 1542.02 519.371 1545.77 Q516.431 1549.52 511.709 1549.52 Q508.862 1549.52 506.802 1548.41 Q504.764 1547.27 503.422 1544.96 M517.913 1535.91 Q517.913 1531.21 515.968 1528.55 Q514.047 1525.86 510.667 1525.86 Q507.288 1525.86 505.343 1528.55 Q503.422 1531.21 503.422 1535.91 Q503.422 1540.61 505.343 1543.29 Q507.288 1545.95 510.667 1545.95 Q514.047 1545.95 515.968 1543.29 Q517.913 1540.61 517.913 1535.91 Z" fill="#000000" fill-rule="evenodd" fill-opacity="1" /><path clip-path="url(#clip250)" d="M544.417 1526.9 Q543.699 1526.49 542.843 1526.3 Q542.01 1526.09 540.991 1526.09 Q537.38 1526.09 535.436 1528.45 Q533.514 1530.79 533.514 1535.19 L533.514 1548.85 L529.232 1548.85 L529.232 1522.92 L533.514 1522.92 L533.514 1526.95 Q534.857 1524.59 537.01 1523.45 Q539.162 1522.3 542.241 1522.3 Q542.681 1522.3 543.213 1522.37 Q543.746 1522.41 544.394 1522.53 L544.417 1526.9 Z" fill="#000000" fill-rule="evenodd" fill-opacity="1" /><path clip-path="url(#clip250)" d="M557.889 1525.91 Q554.463 1525.91 552.473 1528.59 Q550.482 1531.26 550.482 1535.91 Q550.482 1540.56 552.449 1543.25 Q554.44 1545.91 557.889 1545.91 Q561.292 1545.91 563.283 1543.22 Q565.273 1540.54 565.273 1535.91 Q565.273 1531.3 563.283 1528.62 Q561.292 1525.91 557.889 1525.91 M557.889 1522.3 Q563.445 1522.3 566.616 1525.91 Q569.787 1529.52 569.787 1535.91 Q569.787 1542.27 566.616 1545.91 Q563.445 1549.52 557.889 1549.52 Q552.311 1549.52 549.139 1545.91 Q545.991 1542.27 545.991 1535.91 Q545.991 1529.52 549.139 1525.91 Q552.311 1522.3 557.889 1522.3 Z" fill="#000000" fill-rule="evenodd" fill-opacity="1" /><path clip-path="url(#clip250)" d="M589.972 1512.83 L589.972 1516.37 L585.898 1516.37 Q583.607 1516.37 582.704 1517.3 Q581.824 1518.22 581.824 1520.63 L581.824 1522.92 L588.838 1522.92 L588.838 1526.23 L581.824 1526.23 L581.824 1548.85 L577.542 1548.85 L577.542 1526.23 L573.468 1526.23 L573.468 1522.92 L577.542 1522.92 L577.542 1521.12 Q577.542 1516.79 579.556 1514.82 Q581.57 1512.83 585.945 1512.83 L589.972 1512.83 Z" fill="#000000" fill-rule="evenodd" fill-opacity="1" /><path clip-path="url(#clip250)" d="M1217.35 1522.92 L1221.61 1522.92 L1226.93 1543.15 L1232.24 1522.92 L1237.26 1522.92 L1242.58 1543.15 L1247.88 1522.92 L1252.14 1522.92 L1245.36 1548.85 L1240.34 1548.85 L1234.76 1527.6 L1229.16 1548.85 L1224.13 1548.85 L1217.35 1522.92 Z" fill="#000000" fill-rule="evenodd" fill-opacity="1" /><path clip-path="url(#clip250)" d="M1277.26 1523.92 L1277.26 1527.9 Q1275.45 1526.9 1273.62 1526.42 Q1271.82 1525.91 1269.97 1525.91 Q1265.82 1525.91 1263.53 1528.55 Q1261.24 1531.16 1261.24 1535.91 Q1261.24 1540.65 1263.53 1543.29 Q1265.82 1545.91 1269.97 1545.91 Q1271.82 1545.91 1273.62 1545.42 Q1275.45 1544.91 1277.26 1543.92 L1277.26 1547.85 Q1275.48 1548.69 1273.55 1549.1 Q1271.66 1549.52 1269.5 1549.52 Q1263.65 1549.52 1260.2 1545.84 Q1256.75 1542.16 1256.75 1535.91 Q1256.75 1529.57 1260.22 1525.93 Q1263.72 1522.3 1269.78 1522.3 Q1271.75 1522.3 1273.62 1522.71 Q1275.5 1523.11 1277.26 1523.92 Z" fill="#000000" fill-rule="evenodd" fill-opacity="1" /><path clip-path="url(#clip250)" d="M1944.37 1535.91 Q1944.37 1531.21 1942.43 1528.55 Q1940.5 1525.86 1937.12 1525.86 Q1933.75 1525.86 1931.8 1528.55 Q1929.88 1531.21 1929.88 1535.91 Q1929.88 1540.61 1931.8 1543.29 Q1933.75 1545.95 1937.12 1545.95 Q1940.5 1545.95 1942.43 1543.29 Q1944.37 1540.61 1944.37 1535.91 M1929.88 1526.86 Q1931.22 1524.54 1933.26 1523.43 Q1935.32 1522.3 1938.17 1522.3 Q1942.89 1522.3 1945.83 1526.05 Q1948.79 1529.8 1948.79 1535.91 Q1948.79 1542.02 1945.83 1545.77 Q1942.89 1549.52 1938.17 1549.52 Q1935.32 1549.52 1933.26 1548.41 Q1931.22 1547.27 1929.88 1544.96 L1929.88 1548.85 L1925.6 1548.85 L1925.6 1512.83 L1929.88 1512.83 L1929.88 1526.86 Z" fill="#000000" fill-rule="evenodd" fill-opacity="1" /><path clip-path="url(#clip250)" d="M1974.51 1523.92 L1974.51 1527.9 Q1972.7 1526.9 1970.87 1526.42 Q1969.07 1525.91 1967.22 1525.91 Q1963.07 1525.91 1960.78 1528.55 Q1958.49 1531.16 1958.49 1535.91 Q1958.49 1540.65 1960.78 1543.29 Q1963.07 1545.91 1967.22 1545.91 Q1969.07 1545.91 1970.87 1545.42 Q1972.7 1544.91 1974.51 1543.92 L1974.51 1547.85 Q1972.73 1548.69 1970.81 1549.1 Q1968.91 1549.52 1966.75 1549.52 Q1960.9 1549.52 1957.45 1545.84 Q1954 1542.16 1954 1535.91 Q1954 1529.57 1957.47 1525.93 Q1960.97 1522.3 1967.03 1522.3 Q1969 1522.3 1970.87 1522.71 Q1972.75 1523.11 1974.51 1523.92 Z" fill="#000000" fill-rule="evenodd" fill-opacity="1" /><polyline clip-path="url(#clip252)" style="stroke:#000000; stroke-linecap:butt; stroke-linejoin:round; stroke-width:2; stroke-opacity:0.1; fill:none" points="
  141.853,1445.72 2352.76,1445.72 
  "/>
<polyline clip-path="url(#clip252)" style="stroke:#000000; stroke-linecap:butt; stroke-linejoin:round; stroke-width:2; stroke-opacity:0.1; fill:none" points="
  141.853,1108.16 2352.76,1108.16 
  "/>
<polyline clip-path="url(#clip252)" style="stroke:#000000; stroke-linecap:butt; stroke-linejoin:round; stroke-width:2; stroke-opacity:0.1; fill:none" points="
  141.853,770.597 2352.76,770.597 
  "/>
<polyline clip-path="url(#clip252)" style="stroke:#000000; stroke-linecap:butt; stroke-linejoin:round; stroke-width:2; stroke-opacity:0.1; fill:none" points="
  141.853,433.037 2352.76,433.037 
  "/>
<polyline clip-path="url(#clip252)" style="stroke:#000000; stroke-linecap:butt; stroke-linejoin:round; stroke-width:2; stroke-opacity:0.1; fill:none" points="
  141.853,95.4776 2352.76,95.4776 
  "/>
<polyline clip-path="url(#clip250)" style="stroke:#000000; stroke-linecap:butt; stroke-linejoin:round; stroke-width:4; stroke-opacity:1; fill:none" points="
  141.853,1486.45 141.853,47.2441 
  "/>
<polyline clip-path="url(#clip250)" style="stroke:#000000; stroke-linecap:butt; stroke-linejoin:round; stroke-width:4; stroke-opacity:1; fill:none" points="
  141.853,1445.72 160.751,1445.72 
  "/>
<polyline clip-path="url(#clip250)" style="stroke:#000000; stroke-linecap:butt; stroke-linejoin:round; stroke-width:4; stroke-opacity:1; fill:none" points="
  141.853,1108.16 160.751,1108.16 
  "/>
<polyline clip-path="url(#clip250)" style="stroke:#000000; stroke-linecap:butt; stroke-linejoin:round; stroke-width:4; stroke-opacity:1; fill:none" points="
  141.853,770.597 160.751,770.597 
  "/>
<polyline clip-path="url(#clip250)" style="stroke:#000000; stroke-linecap:butt; stroke-linejoin:round; stroke-width:4; stroke-opacity:1; fill:none" points="
  141.853,433.037 160.751,433.037 
  "/>
<polyline clip-path="url(#clip250)" style="stroke:#000000; stroke-linecap:butt; stroke-linejoin:round; stroke-width:4; stroke-opacity:1; fill:none" points="
  141.853,95.4776 160.751,95.4776 
  "/>
<path clip-path="url(#clip250)" d="M93.9086 1431.51 Q90.2975 1431.51 88.4688 1435.08 Q86.6632 1438.62 86.6632 1445.75 Q86.6632 1452.86 88.4688 1456.42 Q90.2975 1459.96 93.9086 1459.96 Q97.5428 1459.96 99.3483 1456.42 Q101.177 1452.86 101.177 1445.75 Q101.177 1438.62 99.3483 1435.08 Q97.5428 1431.51 93.9086 1431.51 M93.9086 1427.81 Q99.7187 1427.81 102.774 1432.42 Q105.853 1437 105.853 1445.75 Q105.853 1454.48 102.774 1459.08 Q99.7187 1463.67 93.9086 1463.67 Q88.0984 1463.67 85.0197 1459.08 Q81.9642 1454.48 81.9642 1445.75 Q81.9642 1437 85.0197 1432.42 Q88.0984 1427.81 93.9086 1427.81 Z" fill="#000000" fill-rule="evenodd" fill-opacity="1" /><path clip-path="url(#clip250)" d="M57.7745 1121.5 L74.0939 1121.5 L74.0939 1125.44 L52.1495 1125.44 L52.1495 1121.5 Q54.8115 1118.75 59.3949 1114.12 Q64.0013 1109.46 65.1819 1108.12 Q67.4272 1105.6 68.3068 1103.86 Q69.2096 1102.1 69.2096 1100.41 Q69.2096 1097.66 67.2652 1095.92 Q65.3439 1094.19 62.2421 1094.19 Q60.043 1094.19 57.5893 1094.95 Q55.1588 1095.71 52.381 1097.27 L52.381 1092.54 Q55.2051 1091.41 57.6588 1090.83 Q60.1124 1090.25 62.1495 1090.25 Q67.5198 1090.25 70.7142 1092.94 Q73.9087 1095.62 73.9087 1100.11 Q73.9087 1102.24 73.0985 1104.16 Q72.3115 1106.06 70.205 1108.65 Q69.6263 1109.33 66.5245 1112.54 Q63.4226 1115.74 57.7745 1121.5 Z" fill="#000000" fill-rule="evenodd" fill-opacity="1" /><path clip-path="url(#clip250)" d="M93.9086 1093.95 Q90.2975 1093.95 88.4688 1097.52 Q86.6632 1101.06 86.6632 1108.19 Q86.6632 1115.3 88.4688 1118.86 Q90.2975 1122.4 93.9086 1122.4 Q97.5428 1122.4 99.3483 1118.86 Q101.177 1115.3 101.177 1108.19 Q101.177 1101.06 99.3483 1097.52 Q97.5428 1093.95 93.9086 1093.95 M93.9086 1090.25 Q99.7187 1090.25 102.774 1094.86 Q105.853 1099.44 105.853 1108.19 Q105.853 1116.92 102.774 1121.52 Q99.7187 1126.11 93.9086 1126.11 Q88.0984 1126.11 85.0197 1121.52 Q81.9642 1116.92 81.9642 1108.19 Q81.9642 1099.44 85.0197 1094.86 Q88.0984 1090.25 93.9086 1090.25 Z" fill="#000000" fill-rule="evenodd" fill-opacity="1" /><path clip-path="url(#clip250)" d="M66.5939 757.391 L54.7884 775.84 L66.5939 775.84 L66.5939 757.391 M65.367 753.317 L71.2466 753.317 L71.2466 775.84 L76.1772 775.84 L76.1772 779.729 L71.2466 779.729 L71.2466 787.877 L66.5939 787.877 L66.5939 779.729 L50.9921 779.729 L50.9921 775.215 L65.367 753.317 Z" fill="#000000" fill-rule="evenodd" fill-opacity="1" /><path clip-path="url(#clip250)" d="M93.9086 756.395 Q90.2975 756.395 88.4688 759.96 Q86.6632 763.502 86.6632 770.631 Q86.6632 777.738 88.4688 781.303 Q90.2975 784.844 93.9086 784.844 Q97.5428 784.844 99.3483 781.303 Q101.177 777.738 101.177 770.631 Q101.177 763.502 99.3483 759.96 Q97.5428 756.395 93.9086 756.395 M93.9086 752.692 Q99.7187 752.692 102.774 757.298 Q105.853 761.881 105.853 770.631 Q105.853 779.358 102.774 783.965 Q99.7187 788.548 93.9086 788.548 Q88.0984 788.548 85.0197 783.965 Q81.9642 779.358 81.9642 770.631 Q81.9642 761.881 85.0197 757.298 Q88.0984 752.692 93.9086 752.692 Z" fill="#000000" fill-rule="evenodd" fill-opacity="1" /><path clip-path="url(#clip250)" d="M64.3254 431.174 Q61.1773 431.174 59.3254 433.326 Q57.4967 435.479 57.4967 439.229 Q57.4967 442.956 59.3254 445.132 Q61.1773 447.285 64.3254 447.285 Q67.4735 447.285 69.3022 445.132 Q71.1541 442.956 71.1541 439.229 Q71.1541 435.479 69.3022 433.326 Q67.4735 431.174 64.3254 431.174 M73.6077 416.521 L73.6077 420.78 Q71.8485 419.947 70.0429 419.507 Q68.2606 419.067 66.5013 419.067 Q61.8717 419.067 59.418 422.192 Q56.9875 425.317 56.6402 431.637 Q58.006 429.623 60.0662 428.558 Q62.1263 427.47 64.6032 427.47 Q69.8115 427.47 72.8207 430.641 Q75.8531 433.789 75.8531 439.229 Q75.8531 444.553 72.705 447.771 Q69.5568 450.988 64.3254 450.988 Q58.33 450.988 55.1588 446.405 Q51.9875 441.799 51.9875 433.072 Q51.9875 424.877 55.8764 420.016 Q59.7652 415.132 66.3161 415.132 Q68.0754 415.132 69.8578 415.479 Q71.6633 415.827 73.6077 416.521 Z" fill="#000000" fill-rule="evenodd" fill-opacity="1" /><path clip-path="url(#clip250)" d="M93.9086 418.836 Q90.2975 418.836 88.4688 422.401 Q86.6632 425.942 86.6632 433.072 Q86.6632 440.178 88.4688 443.743 Q90.2975 447.285 93.9086 447.285 Q97.5428 447.285 99.3483 443.743 Q101.177 440.178 101.177 433.072 Q101.177 425.942 99.3483 422.401 Q97.5428 418.836 93.9086 418.836 M93.9086 415.132 Q99.7187 415.132 102.774 419.739 Q105.853 424.322 105.853 433.072 Q105.853 441.799 102.774 446.405 Q99.7187 450.988 93.9086 450.988 Q88.0984 450.988 85.0197 446.405 Q81.9642 441.799 81.9642 433.072 Q81.9642 424.322 85.0197 419.739 Q88.0984 415.132 93.9086 415.132 Z" fill="#000000" fill-rule="evenodd" fill-opacity="1" /><path clip-path="url(#clip250)" d="M63.7467 96.3457 Q60.4134 96.3457 58.4921 98.128 Q56.5939 99.9104 56.5939 103.035 Q56.5939 106.16 58.4921 107.943 Q60.4134 109.725 63.7467 109.725 Q67.08 109.725 69.0013 107.943 Q70.9226 106.137 70.9226 103.035 Q70.9226 99.9104 69.0013 98.128 Q67.1032 96.3457 63.7467 96.3457 M59.0708 94.3549 Q56.0615 93.6142 54.3717 91.554 Q52.7051 89.4938 52.7051 86.5309 Q52.7051 82.3874 55.6449 79.98 Q58.6078 77.5726 63.7467 77.5726 Q68.9087 77.5726 71.8485 79.98 Q74.7883 82.3874 74.7883 86.5309 Q74.7883 89.4938 73.0985 91.554 Q71.4318 93.6142 68.4457 94.3549 Q71.8253 95.142 73.7003 97.4336 Q75.5985 99.7253 75.5985 103.035 Q75.5985 108.059 72.5198 110.744 Q69.4642 113.429 63.7467 113.429 Q58.0291 113.429 54.9504 110.744 Q51.8949 108.059 51.8949 103.035 Q51.8949 99.7253 53.793 97.4336 Q55.6912 95.142 59.0708 94.3549 M57.3578 86.9707 Q57.3578 89.6559 59.0245 91.1605 Q60.7143 92.6651 63.7467 92.6651 Q66.7559 92.6651 68.4457 91.1605 Q70.1587 89.6559 70.1587 86.9707 Q70.1587 84.2855 68.4457 82.7809 Q66.7559 81.2763 63.7467 81.2763 Q60.7143 81.2763 59.0245 82.7809 Q57.3578 84.2855 57.3578 86.9707 Z" fill="#000000" fill-rule="evenodd" fill-opacity="1" /><path clip-path="url(#clip250)" d="M93.9086 81.2763 Q90.2975 81.2763 88.4688 84.8411 Q86.6632 88.3827 86.6632 95.5123 Q86.6632 102.619 88.4688 106.184 Q90.2975 109.725 93.9086 109.725 Q97.5428 109.725 99.3483 106.184 Q101.177 102.619 101.177 95.5123 Q101.177 88.3827 99.3483 84.8411 Q97.5428 81.2763 93.9086 81.2763 M93.9086 77.5726 Q99.7187 77.5726 102.774 82.1791 Q105.853 86.7624 105.853 95.5123 Q105.853 104.239 102.774 108.846 Q99.7187 113.429 93.9086 113.429 Q88.0984 113.429 85.0197 108.846 Q81.9642 104.239 81.9642 95.5123 Q81.9642 86.7624 85.0197 82.1791 Q88.0984 77.5726 93.9086 77.5726 Z" fill="#000000" fill-rule="evenodd" fill-opacity="1" /><path clip-path="url(#clip252)" d="
M263.457 87.9763 L263.457 1445.72 L825.655 1445.72 L825.655 87.9763 L263.457 87.9763 L263.457 87.9763  Z
  " fill="#009af9" fill-rule="evenodd" fill-opacity="1"/>
<polyline clip-path="url(#clip252)" style="stroke:#000000; stroke-linecap:butt; stroke-linejoin:round; stroke-width:4; stroke-opacity:1; fill:none" points="
  263.457,87.9763 263.457,1445.72 825.655,1445.72 825.655,87.9763 263.457,87.9763 
  "/>
<path clip-path="url(#clip252)" d="
M966.205 826.857 L966.205 1445.72 L1528.4 1445.72 L1528.4 826.857 L966.205 826.857 L966.205 826.857  Z
  " fill="#009af9" fill-rule="evenodd" fill-opacity="1"/>
<polyline clip-path="url(#clip252)" style="stroke:#000000; stroke-linecap:butt; stroke-linejoin:round; stroke-width:4; stroke-opacity:1; fill:none" points="
  966.205,826.857 966.205,1445.72 1528.4,1445.72 1528.4,826.857 966.205,826.857 
  "/>
<path clip-path="url(#clip252)" d="
M1668.95 1061.54 L1668.95 1445.72 L2231.15 1445.72 L2231.15 1061.54 L1668.95 1061.54 L1668.95 1061.54  Z
  " fill="#009af9" fill-rule="evenodd" fill-opacity="1"/>
<polyline clip-path="url(#clip252)" style="stroke:#000000; stroke-linecap:butt; stroke-linejoin:round; stroke-width:4; stroke-opacity:1; fill:none" points="
  1668.95,1061.54 1668.95,1445.72 2231.15,1445.72 2231.15,1061.54 1668.95,1061.54 
  "/>
<circle clip-path="url(#clip252)" style="fill:#009af9; stroke:none; fill-opacity:0" cx="544.556" cy="87.9763" r="2"/>
<circle clip-path="url(#clip252)" style="fill:#009af9; stroke:none; fill-opacity:0" cx="1247.3" cy="826.857" r="2"/>
<circle clip-path="url(#clip252)" style="fill:#009af9; stroke:none; fill-opacity:0" cx="1950.05" cy="1061.54" r="2"/>
</svg>
