<?xml version="1.0" encoding="utf-8"?>
<svg xmlns="http://www.w3.org/2000/svg" xmlns:xlink="http://www.w3.org/1999/xlink" width="600" height="400" viewBox="0 0 2400 1600">
<defs>
  <clipPath id="clip160">
    <rect x="0" y="0" width="2400" height="1600"/>
  </clipPath>
</defs>
<path clip-path="url(#clip160)" d="
M0 1600 L2400 1600 L2400 0 L0 0  Z
  " fill="#ffffff" fill-rule="evenodd" fill-opacity="1"/>
<defs>
  <clipPath id="clip161">
    <rect x="480" y="0" width="1681" height="1600"/>
  </clipPath>
</defs>
<defs>
  <clipPath id="clip162">
    <rect x="219" y="47" width="2134" height="1377"/>
  </clipPath>
</defs>
<path clip-path="url(#clip160)" d="
M219.38 1423.18 L2352.76 1423.18 L2352.76 47.2441 L219.38 47.2441  Z
  " fill="#ffffff" fill-rule="evenodd" fill-opacity="1"/>
<polyline clip-path="url(#clip162)" style="stroke:#000000; stroke-linecap:butt; stroke-linejoin:round; stroke-width:2; stroke-opacity:0.1; fill:none" points="
  219.38,1423.18 219.38,47.2441 
  "/>
<polyline clip-path="url(#clip162)" style="stroke:#000000; stroke-linecap:butt; stroke-linejoin:round; stroke-width:2; stroke-opacity:0.1; fill:none" points="
  752.724,1423.18 752.724,47.2441 
  "/>
<polyline clip-path="url(#clip162)" style="stroke:#000000; stroke-linecap:butt; stroke-linejoin:round; stroke-width:2; stroke-opacity:0.1; fill:none" points="
  1286.07,1423.18 1286.07,47.2441 
  "/>
<polyline clip-path="url(#clip162)" style="stroke:#000000; stroke-linecap:butt; stroke-linejoin:round; stroke-width:2; stroke-opacity:0.1; fill:none" points="
  1819.41,1423.18 1819.41,47.2441 
  "/>
<polyline clip-path="url(#clip162)" style="stroke:#000000; stroke-linecap:butt; stroke-linejoin:round; stroke-width:2; stroke-opacity:0.1; fill:none" points="
  2352.76,1423.18 2352.76,47.2441 
  "/>
<polyline clip-path="url(#clip160)" style="stroke:#000000; stroke-linecap:butt; stroke-linejoin:round; stroke-width:4; stroke-opacity:1; fill:none" points="
  219.38,1423.18 2352.76,1423.18 
  "/>
<polyline clip-path="url(#clip160)" style="stroke:#000000; stroke-linecap:butt; stroke-linejoin:round; stroke-width:4; stroke-opacity:1; fill:none" points="
  219.38,1423.18 219.38,1404.28 
  "/>
<polyline clip-path="url(#clip160)" style="stroke:#000000; stroke-linecap:butt; stroke-linejoin:round; stroke-width:4; stroke-opacity:1; fill:none" points="
  752.724,1423.18 752.724,1404.28 
  "/>
<polyline clip-path="url(#clip160)" style="stroke:#000000; stroke-linecap:butt; stroke-linejoin:round; stroke-width:4; stroke-opacity:1; fill:none" points="
  1286.07,1423.18 1286.07,1404.28 
  "/>
<polyline clip-path="url(#clip160)" style="stroke:#000000; stroke-linecap:butt; stroke-linejoin:round; stroke-width:4; stroke-opacity:1; fill:none" points="
  1819.41,1423.18 1819.41,1404.28 
  "/>
<polyline clip-path="url(#clip160)" style="stroke:#000000; stroke-linecap:butt; stroke-linejoin:round; stroke-width:4; stroke-opacity:1; fill:none" points="
  2352.76,1423.18 2352.76,1404.28 
  "/>
<path clip-path="url(#clip160)" d="M188.281 1468.75 L217.957 1468.75 L217.957 1472.69 L188.281 1472.69 L188.281 1468.75 Z" fill="#000000" fill-rule="evenodd" fill-opacity="1" /><path clip-path="url(#clip160)" d="M240.896 1455.09 L229.091 1473.54 L240.896 1473.54 L240.896 1455.09 M239.669 1451.02 L245.549 1451.02 L245.549 1473.54 L250.48 1473.54 L250.48 1477.43 L245.549 1477.43 L245.549 1485.58 L240.896 1485.58 L240.896 1477.43 L225.294 1477.43 L225.294 1472.92 L239.669 1451.02 Z" fill="#000000" fill-rule="evenodd" fill-opacity="1" /><path clip-path="url(#clip160)" d="M722.666 1468.75 L752.342 1468.75 L752.342 1472.69 L722.666 1472.69 L722.666 1468.75 Z" fill="#000000" fill-rule="evenodd" fill-opacity="1" /><path clip-path="url(#clip160)" d="M766.462 1481.64 L782.782 1481.64 L782.782 1485.58 L760.837 1485.58 L760.837 1481.64 Q763.499 1478.89 768.083 1474.26 Q772.689 1469.61 773.87 1468.27 Q776.115 1465.74 776.995 1464.01 Q777.898 1462.25 777.898 1460.56 Q777.898 1457.8 775.953 1456.07 Q774.032 1454.33 770.93 1454.33 Q768.731 1454.33 766.277 1455.09 Q763.847 1455.86 761.069 1457.41 L761.069 1452.69 Q763.893 1451.55 766.347 1450.97 Q768.8 1450.39 770.837 1450.39 Q776.208 1450.39 779.402 1453.08 Q782.597 1455.77 782.597 1460.26 Q782.597 1462.39 781.786 1464.31 Q780.999 1466.2 778.893 1468.8 Q778.314 1469.47 775.212 1472.69 Q772.111 1475.88 766.462 1481.64 Z" fill="#000000" fill-rule="evenodd" fill-opacity="1" /><path clip-path="url(#clip160)" d="M1286.07 1454.1 Q1282.46 1454.1 1280.63 1457.66 Q1278.82 1461.2 1278.82 1468.33 Q1278.82 1475.44 1280.63 1479.01 Q1282.46 1482.55 1286.07 1482.55 Q1289.7 1482.55 1291.51 1479.01 Q1293.34 1475.44 1293.34 1468.33 Q1293.34 1461.2 1291.51 1457.66 Q1289.7 1454.1 1286.07 1454.1 M1286.07 1450.39 Q1291.88 1450.39 1294.93 1455 Q1298.01 1459.58 1298.01 1468.33 Q1298.01 1477.06 1294.93 1481.67 Q1291.88 1486.25 1286.07 1486.25 Q1280.26 1486.25 1277.18 1481.67 Q1274.12 1477.06 1274.12 1468.33 Q1274.12 1459.58 1277.18 1455 Q1280.26 1450.39 1286.07 1450.39 Z" fill="#000000" fill-rule="evenodd" fill-opacity="1" /><path clip-path="url(#clip160)" d="M1814.06 1481.64 L1830.38 1481.64 L1830.38 1485.58 L1808.44 1485.58 L1808.44 1481.64 Q1811.1 1478.89 1815.69 1474.26 Q1820.29 1469.61 1821.47 1468.27 Q1823.72 1465.74 1824.6 1464.01 Q1825.5 1462.25 1825.5 1460.56 Q1825.5 1457.8 1823.56 1456.07 Q1821.63 1454.33 1818.53 1454.33 Q1816.33 1454.33 1813.88 1455.09 Q1811.45 1455.86 1808.67 1457.41 L1808.67 1452.69 Q1811.5 1451.55 1813.95 1450.97 Q1816.4 1450.39 1818.44 1450.39 Q1823.81 1450.39 1827 1453.08 Q1830.2 1455.77 1830.2 1460.26 Q1830.2 1462.39 1829.39 1464.31 Q1828.6 1466.2 1826.5 1468.8 Q1825.92 1469.47 1822.81 1472.69 Q1819.71 1475.88 1814.06 1481.64 Z" fill="#000000" fill-rule="evenodd" fill-opacity="1" /><path clip-path="url(#clip160)" d="M2355.77 1455.09 L2343.96 1473.54 L2355.77 1473.54 L2355.77 1455.09 M2354.54 1451.02 L2360.42 1451.02 L2360.42 1473.54 L2365.35 1473.54 L2365.35 1477.43 L2360.42 1477.43 L2360.42 1485.58 L2355.77 1485.58 L2355.77 1477.43 L2340.16 1477.43 L2340.16 1472.92 L2354.54 1451.02 Z" fill="#000000" fill-rule="evenodd" fill-opacity="1" /><path clip-path="url(#clip160)" d="M1300.24 1528.8 Q1300.24 1530.61 1299.11 1531.64 Q1297.99 1532.64 1296.7 1532.64 Q1295.47 1532.64 1294.83 1531.93 Q1294.19 1531.22 1294.19 1530.32 Q1294.19 1529.09 1295.09 1528.03 Q1295.99 1526.97 1297.34 1526.74 Q1296.02 1525.91 1294.06 1525.91 Q1292.77 1525.91 1291.64 1526.58 Q1290.55 1527.26 1289.87 1528.13 Q1289.23 1529 1288.65 1530.25 Q1288.1 1531.48 1287.87 1532.22 Q1287.68 1532.93 1287.52 1533.7 L1285.27 1542.72 Q1284.17 1547 1284.17 1548.51 Q1284.17 1550.38 1285.07 1551.64 Q1285.97 1552.86 1287.78 1552.86 Q1288.49 1552.86 1289.29 1552.67 Q1290.1 1552.44 1291.13 1551.86 Q1292.19 1551.25 1293.12 1550.35 Q1294.09 1549.42 1295.02 1547.84 Q1295.96 1546.26 1296.57 1544.23 Q1296.76 1543.52 1297.41 1543.52 Q1298.21 1543.52 1298.21 1544.17 Q1298.21 1544.71 1297.76 1545.87 Q1297.34 1547 1296.41 1548.48 Q1295.51 1549.93 1294.32 1551.25 Q1293.12 1552.54 1291.35 1553.44 Q1289.58 1554.34 1287.65 1554.34 Q1284.88 1554.34 1283.04 1552.86 Q1281.21 1551.38 1280.53 1549.32 Q1280.37 1549.61 1280.14 1550 Q1279.92 1550.38 1279.24 1551.25 Q1278.6 1552.09 1277.86 1552.73 Q1277.12 1553.34 1275.96 1553.83 Q1274.83 1554.34 1273.61 1554.34 Q1272.06 1554.34 1270.68 1553.89 Q1269.32 1553.44 1268.36 1552.41 Q1267.39 1551.38 1267.39 1549.96 Q1267.39 1548.38 1268.45 1547.29 Q1269.55 1546.16 1271.03 1546.16 Q1271.96 1546.16 1272.71 1546.71 Q1273.48 1547.26 1273.48 1548.45 Q1273.48 1549.77 1272.58 1550.77 Q1271.67 1551.77 1270.39 1552.02 Q1271.71 1552.86 1273.67 1552.86 Q1275.8 1552.86 1277.47 1550.99 Q1279.15 1549.13 1279.95 1546 Q1281.95 1538.5 1282.72 1535.15 Q1283.49 1531.77 1283.49 1530.32 Q1283.49 1528.96 1283.14 1528.03 Q1282.79 1527.1 1282.17 1526.68 Q1281.59 1526.23 1281.05 1526.07 Q1280.53 1525.91 1279.95 1525.91 Q1278.99 1525.91 1277.89 1526.29 Q1276.83 1526.68 1275.54 1527.58 Q1274.28 1528.45 1273.09 1530.25 Q1271.9 1532.06 1271.1 1534.54 Q1270.93 1535.28 1270.23 1535.28 Q1269.45 1535.24 1269.45 1534.6 Q1269.45 1534.05 1269.87 1532.93 Q1270.32 1531.77 1271.22 1530.32 Q1272.16 1528.87 1273.35 1527.58 Q1274.57 1526.26 1276.34 1525.36 Q1278.15 1524.46 1280.08 1524.46 Q1280.95 1524.46 1281.79 1524.65 Q1282.66 1524.81 1283.69 1525.29 Q1284.75 1525.78 1285.68 1526.84 Q1286.62 1527.9 1287.2 1529.45 Q1287.58 1528.71 1288.1 1528 Q1288.65 1527.29 1289.48 1526.42 Q1290.35 1525.52 1291.55 1525 Q1292.77 1524.46 1294.12 1524.46 Q1295.44 1524.46 1296.73 1524.81 Q1298.02 1525.13 1299.11 1526.19 Q1300.24 1527.23 1300.24 1528.8 Z" fill="#000000" fill-rule="evenodd" fill-opacity="1" /><polyline clip-path="url(#clip162)" style="stroke:#000000; stroke-linecap:butt; stroke-linejoin:round; stroke-width:2; stroke-opacity:0.1; fill:none" points="
  219.38,1384.25 2352.76,1384.25 
  "/>
<polyline clip-path="url(#clip162)" style="stroke:#000000; stroke-linecap:butt; stroke-linejoin:round; stroke-width:2; stroke-opacity:0.1; fill:none" points="
  219.38,1017.09 2352.76,1017.09 
  "/>
<polyline clip-path="url(#clip162)" style="stroke:#000000; stroke-linecap:butt; stroke-linejoin:round; stroke-width:2; stroke-opacity:0.1; fill:none" points="
  219.38,649.926 2352.76,649.926 
  "/>
<polyline clip-path="url(#clip162)" style="stroke:#000000; stroke-linecap:butt; stroke-linejoin:round; stroke-width:2; stroke-opacity:0.1; fill:none" points="
  219.38,282.764 2352.76,282.764 
  "/>
<polyline clip-path="url(#clip160)" style="stroke:#000000; stroke-linecap:butt; stroke-linejoin:round; stroke-width:4; stroke-opacity:1; fill:none" points="
  219.38,1423.18 219.38,47.2441 
  "/>
<polyline clip-path="url(#clip160)" style="stroke:#000000; stroke-linecap:butt; stroke-linejoin:round; stroke-width:4; stroke-opacity:1; fill:none" points="
  219.38,1384.25 238.278,1384.25 
  "/>
<polyline clip-path="url(#clip160)" style="stroke:#000000; stroke-linecap:butt; stroke-linejoin:round; stroke-width:4; stroke-opacity:1; fill:none" points="
  219.38,1017.09 238.278,1017.09 
  "/>
<polyline clip-path="url(#clip160)" style="stroke:#000000; stroke-linecap:butt; stroke-linejoin:round; stroke-width:4; stroke-opacity:1; fill:none" points="
  219.38,649.926 238.278,649.926 
  "/>
<polyline clip-path="url(#clip160)" style="stroke:#000000; stroke-linecap:butt; stroke-linejoin:round; stroke-width:4; stroke-opacity:1; fill:none" points="
  219.38,282.764 238.278,282.764 
  "/>
<path clip-path="url(#clip160)" d="M126.205 1370.05 Q122.593 1370.05 120.765 1373.61 Q118.959 1377.15 118.959 1384.28 Q118.959 1391.39 120.765 1394.95 Q122.593 1398.5 126.205 1398.5 Q129.839 1398.5 131.644 1394.95 Q133.473 1391.39 133.473 1384.28 Q133.473 1377.15 131.644 1373.61 Q129.839 1370.05 126.205 1370.05 M126.205 1366.34 Q132.015 1366.34 135.07 1370.95 Q138.149 1375.53 138.149 1384.28 Q138.149 1393.01 135.07 1397.62 Q132.015 1402.2 126.205 1402.2 Q120.394 1402.2 117.316 1397.62 Q114.26 1393.01 114.26 1384.28 Q114.26 1375.53 117.316 1370.95 Q120.394 1366.34 126.205 1366.34 Z" fill="#000000" fill-rule="evenodd" fill-opacity="1" /><path clip-path="url(#clip160)" d="M146.366 1395.65 L151.251 1395.65 L151.251 1401.53 L146.366 1401.53 L146.366 1395.65 Z" fill="#000000" fill-rule="evenodd" fill-opacity="1" /><path clip-path="url(#clip160)" d="M171.436 1370.05 Q167.825 1370.05 165.996 1373.61 Q164.19 1377.15 164.19 1384.28 Q164.19 1391.39 165.996 1394.95 Q167.825 1398.5 171.436 1398.5 Q175.07 1398.5 176.876 1394.95 Q178.704 1391.39 178.704 1384.28 Q178.704 1377.15 176.876 1373.61 Q175.07 1370.05 171.436 1370.05 M171.436 1366.34 Q177.246 1366.34 180.301 1370.95 Q183.38 1375.53 183.38 1384.28 Q183.38 1393.01 180.301 1397.62 Q177.246 1402.2 171.436 1402.2 Q165.626 1402.2 162.547 1397.62 Q159.491 1393.01 159.491 1384.28 Q159.491 1375.53 162.547 1370.95 Q165.626 1366.34 171.436 1366.34 Z" fill="#000000" fill-rule="evenodd" fill-opacity="1" /><path clip-path="url(#clip160)" d="M127.431 1002.89 Q123.82 1002.89 121.992 1006.45 Q120.186 1009.99 120.186 1017.12 Q120.186 1024.23 121.992 1027.79 Q123.82 1031.33 127.431 1031.33 Q131.066 1031.33 132.871 1027.79 Q134.7 1024.23 134.7 1017.12 Q134.7 1009.99 132.871 1006.45 Q131.066 1002.89 127.431 1002.89 M127.431 999.182 Q133.242 999.182 136.297 1003.79 Q139.376 1008.37 139.376 1017.12 Q139.376 1025.85 136.297 1030.46 Q133.242 1035.04 127.431 1035.04 Q121.621 1035.04 118.543 1030.46 Q115.487 1025.85 115.487 1017.12 Q115.487 1008.37 118.543 1003.79 Q121.621 999.182 127.431 999.182 Z" fill="#000000" fill-rule="evenodd" fill-opacity="1" /><path clip-path="url(#clip160)" d="M147.593 1028.49 L152.478 1028.49 L152.478 1034.37 L147.593 1034.37 L147.593 1028.49 Z" fill="#000000" fill-rule="evenodd" fill-opacity="1" /><path clip-path="url(#clip160)" d="M163.473 1030.43 L171.112 1030.43 L171.112 1004.07 L162.802 1005.73 L162.802 1001.47 L171.065 999.807 L175.741 999.807 L175.741 1030.43 L183.38 1030.43 L183.38 1034.37 L163.473 1034.37 L163.473 1030.43 Z" fill="#000000" fill-rule="evenodd" fill-opacity="1" /><path clip-path="url(#clip160)" d="M127.802 635.724 Q124.191 635.724 122.362 639.289 Q120.556 642.831 120.556 649.96 Q120.556 657.067 122.362 660.632 Q124.191 664.173 127.802 664.173 Q131.436 664.173 133.242 660.632 Q135.07 657.067 135.07 649.96 Q135.07 642.831 133.242 639.289 Q131.436 635.724 127.802 635.724 M127.802 632.021 Q133.612 632.021 136.667 636.627 Q139.746 641.21 139.746 649.96 Q139.746 658.687 136.667 663.294 Q133.612 667.877 127.802 667.877 Q121.992 667.877 118.913 663.294 Q115.857 658.687 115.857 649.96 Q115.857 641.21 118.913 636.627 Q121.992 632.021 127.802 632.021 Z" fill="#000000" fill-rule="evenodd" fill-opacity="1" /><path clip-path="url(#clip160)" d="M147.964 661.326 L152.848 661.326 L152.848 667.206 L147.964 667.206 L147.964 661.326 Z" fill="#000000" fill-rule="evenodd" fill-opacity="1" /><path clip-path="url(#clip160)" d="M167.061 663.271 L183.38 663.271 L183.38 667.206 L161.436 667.206 L161.436 663.271 Q164.098 660.516 168.681 655.886 Q173.288 651.234 174.468 649.891 Q176.714 647.368 177.593 645.632 Q178.496 643.872 178.496 642.183 Q178.496 639.428 176.551 637.692 Q174.63 635.956 171.528 635.956 Q169.329 635.956 166.876 636.72 Q164.445 637.484 161.667 639.035 L161.667 634.312 Q164.491 633.178 166.945 632.599 Q169.399 632.021 171.436 632.021 Q176.806 632.021 180.001 634.706 Q183.195 637.391 183.195 641.882 Q183.195 644.011 182.385 645.933 Q181.598 647.831 179.491 650.423 Q178.913 651.095 175.811 654.312 Q172.709 657.507 167.061 663.271 Z" fill="#000000" fill-rule="evenodd" fill-opacity="1" /><path clip-path="url(#clip160)" d="M126.853 268.563 Q123.242 268.563 121.413 272.128 Q119.607 275.669 119.607 282.799 Q119.607 289.905 121.413 293.47 Q123.242 297.012 126.853 297.012 Q130.487 297.012 132.292 293.47 Q134.121 289.905 134.121 282.799 Q134.121 275.669 132.292 272.128 Q130.487 268.563 126.853 268.563 M126.853 264.859 Q132.663 264.859 135.718 269.466 Q138.797 274.049 138.797 282.799 Q138.797 291.526 135.718 296.132 Q132.663 300.716 126.853 300.716 Q121.043 300.716 117.964 296.132 Q114.908 291.526 114.908 282.799 Q114.908 274.049 117.964 269.466 Q121.043 264.859 126.853 264.859 Z" fill="#000000" fill-rule="evenodd" fill-opacity="1" /><path clip-path="url(#clip160)" d="M147.015 294.165 L151.899 294.165 L151.899 300.044 L147.015 300.044 L147.015 294.165 Z" fill="#000000" fill-rule="evenodd" fill-opacity="1" /><path clip-path="url(#clip160)" d="M176.251 281.41 Q179.607 282.128 181.482 284.396 Q183.38 286.665 183.38 289.998 Q183.38 295.114 179.862 297.915 Q176.343 300.716 169.862 300.716 Q167.686 300.716 165.371 300.276 Q163.079 299.859 160.626 299.003 L160.626 294.489 Q162.57 295.623 164.885 296.202 Q167.2 296.78 169.723 296.78 Q174.121 296.78 176.413 295.044 Q178.727 293.308 178.727 289.998 Q178.727 286.942 176.575 285.229 Q174.445 283.493 170.626 283.493 L166.598 283.493 L166.598 279.651 L170.811 279.651 Q174.26 279.651 176.089 278.285 Q177.917 276.896 177.917 274.304 Q177.917 271.642 176.019 270.23 Q174.144 268.794 170.626 268.794 Q168.704 268.794 166.505 269.211 Q164.306 269.628 161.667 270.507 L161.667 266.341 Q164.329 265.6 166.644 265.23 Q168.982 264.859 171.042 264.859 Q176.366 264.859 179.468 267.29 Q182.57 269.697 182.57 273.818 Q182.57 276.688 180.926 278.679 Q179.283 280.646 176.251 281.41 Z" fill="#000000" fill-rule="evenodd" fill-opacity="1" /><path clip-path="url(#clip160)" d="M21.7677 848.522 L58.7206 848.522 L58.7206 840.755 Q58.7206 830.92 54.2646 826.369 Q49.8086 821.786 40.1964 821.786 Q30.6479 821.786 26.2237 826.369 Q21.7677 830.92 21.7677 840.755 L21.7677 848.522 M16.4842 854.951 L16.4842 841.742 Q16.4842 827.928 22.2451 821.467 Q27.9743 815.006 40.1964 815.006 Q52.4822 815.006 58.2432 821.499 Q64.0042 827.992 64.0042 841.742 L64.0042 854.951 L16.4842 854.951 Z" fill="#000000" fill-rule="evenodd" fill-opacity="1" /><path clip-path="url(#clip160)" d="M44.7161 774.52 L47.5806 774.52 L47.5806 801.447 Q53.6281 801.065 56.8109 797.819 Q59.9619 794.54 59.9619 788.716 Q59.9619 785.342 59.1344 782.191 Q58.3069 779.008 56.6518 775.889 L62.1899 775.889 Q63.5267 779.04 64.227 782.35 Q64.9272 785.66 64.9272 789.066 Q64.9272 797.596 59.9619 802.593 Q54.9967 807.558 46.5303 807.558 Q37.7774 807.558 32.6531 802.848 Q27.4968 798.105 27.4968 790.084 Q27.4968 782.891 32.1438 778.722 Q36.7589 774.52 44.7161 774.52 M42.9973 780.377 Q38.1912 780.44 35.3266 783.082 Q32.4621 785.692 32.4621 790.021 Q32.4621 794.922 35.2312 797.882 Q38.0002 800.811 43.0292 801.256 L42.9973 780.377 Z" fill="#000000" fill-rule="evenodd" fill-opacity="1" /><path clip-path="url(#clip160)" d="M42.4881 735.276 L64.0042 735.276 L64.0042 741.132 L42.679 741.132 Q37.6183 741.132 35.1038 743.105 Q32.5894 745.079 32.5894 749.026 Q32.5894 753.768 35.6131 756.505 Q38.6368 759.243 43.8567 759.243 L64.0042 759.243 L64.0042 765.131 L28.3562 765.131 L28.3562 759.243 L33.8944 759.243 Q30.6797 757.142 29.0883 754.309 Q27.4968 751.445 27.4968 747.721 Q27.4968 741.578 31.3163 738.427 Q35.1038 735.276 42.4881 735.276 Z" fill="#000000" fill-rule="evenodd" fill-opacity="1" /><path clip-path="url(#clip160)" d="M29.4065 700.869 L34.9447 700.869 Q33.6716 703.352 33.035 706.025 Q32.3984 708.699 32.3984 711.563 Q32.3984 715.924 33.7352 718.12 Q35.072 720.284 37.7456 720.284 Q39.7826 720.284 40.9603 718.725 Q42.1061 717.165 43.1565 712.455 L43.6021 710.449 Q44.9389 704.211 47.3897 701.601 Q49.8086 698.959 54.1691 698.959 Q59.1344 698.959 62.0308 702.906 Q64.9272 706.821 64.9272 713.696 Q64.9272 716.56 64.3543 719.68 Q63.8132 722.767 62.6992 726.204 L56.6518 726.204 Q58.3387 722.958 59.198 719.807 Q60.0256 716.656 60.0256 713.569 Q60.0256 709.431 58.6251 707.203 Q57.1929 704.975 54.6147 704.975 Q52.2276 704.975 50.9545 706.598 Q49.6813 708.19 48.5037 713.632 L48.0262 715.669 Q46.8804 721.112 44.5251 723.531 Q42.138 725.95 38.0002 725.95 Q32.9713 725.95 30.2341 722.385 Q27.4968 718.82 27.4968 712.264 Q27.4968 709.017 27.9743 706.153 Q28.4517 703.288 29.4065 700.869 Z" fill="#000000" fill-rule="evenodd" fill-opacity="1" /><path clip-path="url(#clip160)" d="M28.3562 689.634 L28.3562 683.777 L64.0042 683.777 L64.0042 689.634 L28.3562 689.634 M14.479 689.634 L14.479 683.777 L21.895 683.777 L21.895 689.634 L14.479 689.634 Z" fill="#000000" fill-rule="evenodd" fill-opacity="1" /><path clip-path="url(#clip160)" d="M18.2347 665.73 L28.3562 665.73 L28.3562 653.667 L32.9077 653.667 L32.9077 665.73 L52.2594 665.73 Q56.6199 665.73 57.8613 664.553 Q59.1026 663.343 59.1026 659.683 L59.1026 653.667 L64.0042 653.667 L64.0042 659.683 Q64.0042 666.462 61.4897 669.04 Q58.9434 671.619 52.2594 671.619 L32.9077 671.619 L32.9077 675.915 L28.3562 675.915 L28.3562 671.619 L18.2347 671.619 L18.2347 665.73 Z" fill="#000000" fill-rule="evenodd" fill-opacity="1" /><path clip-path="url(#clip160)" d="M67.3143 631.133 Q73.68 633.615 75.6216 635.971 Q77.5631 638.326 77.5631 642.273 L77.5631 646.951 L72.6615 646.951 L72.6615 643.514 Q72.6615 641.095 71.5157 639.758 Q70.3699 638.421 66.1048 636.798 L63.4312 635.748 L28.3562 650.166 L28.3562 643.96 L56.238 632.82 L28.3562 621.68 L28.3562 615.473 L67.3143 631.133 Z" fill="#000000" fill-rule="evenodd" fill-opacity="1" /><polyline clip-path="url(#clip162)" style="stroke:#009af9; stroke-linecap:butt; stroke-linejoin:round; stroke-width:20; stroke-opacity:1; fill:none" points="
  -17567.7,1384.24 -17322.2,1384.24 -15052.2,1384.23 -13688,1384.23 -12534.7,1384.22 -11281.8,1384.21 -10126.7,1384.2 -8888.38,1384.18 -7453.65,1384.14 -6178.62,1384.08 
  -5060.54,1383.98 -3841.53,1383.74 -2615.28,1383.09 -1937.39,1382.21 -1259.5,1380.16 -936.997,1378.18 -614.499,1374.68 -453.251,1371.9 -292.002,1367.95 -211.377,1365.34 
  -130.753,1362.16 -50.1282,1358.23 30.4963,1353.35 114.327,1346.92 198.158,1338.64 240.073,1333.6 281.989,1327.82 323.904,1321.16 365.819,1313.46 407.735,1304.53 
  449.65,1294.1 491.565,1281.89 533.481,1267.52 575.396,1250.54 617.312,1230.4 638.269,1218.93 659.227,1206.39 680.185,1192.69 701.142,1177.7 722.1,1161.28 
  743.058,1143.29 764.015,1123.58 784.973,1101.98 805.931,1078.3 826.888,1052.36 847.846,1023.96 868.804,992.9 889.761,958.985 910.719,922.032 921.198,902.365 
  931.677,881.88 942.156,860.565 952.634,838.41 963.113,815.408 973.592,791.558 984.071,766.867 994.55,741.345 1015.51,687.899 1036.47,631.49 1057.42,572.562 
  1078.38,511.763 1099.34,449.97 1120.3,388.305 1141.25,328.13 1162.21,271.017 1172.69,244.142 1183.17,218.686 1193.65,194.872 1204.13,172.919 1214.61,153.041 
  1225.08,135.437 1235.56,120.291 1246.04,107.765 1256.52,97.9979 1267,91.0988 1277.48,87.1462 1287.96,86.1857 1298.44,88.2283 1308.92,93.2505 1319.39,101.195 
  1329.87,111.971 1340.35,125.459 1350.83,141.511 1361.31,159.957 1371.79,180.607 1380.61,199.549 1389.43,219.778 1398.25,241.164 1407.07,263.573 1424.71,310.927 
  1442.36,360.799 1477.64,464.279 1512.92,567.433 1530.57,617.346 1548.21,665.568 1565.85,711.798 1583.49,755.828 1601.13,797.53 1618.77,836.842 1636.42,873.757 
  1654.06,908.306 1671.7,940.555 1689.34,970.59 1706.98,998.513 1724.63,1024.44 1742.27,1048.48 1759.91,1070.76 1777.55,1091.39 1795.19,1110.49 1812.84,1128.18 
  1830.48,1144.55 1848.12,1159.7 1865.76,1173.74 1883.4,1186.74 1901.05,1198.79 1918.69,1209.96 1936.33,1220.33 1971.61,1238.89 2006.9,1254.93 2042.18,1268.82 
  2077.46,1280.9 2112.75,1291.43 2148.03,1300.65 2183.32,1308.73 2218.6,1315.84 2289.17,1327.67 2359.74,1337 2430.3,1344.43 2500.87,1350.42 2587.03,1356.23 
  2673.18,1360.81 2759.34,1364.45 2845.49,1367.39 3017.8,1371.74 3190.11,1374.73 3534.73,1378.37 3879.35,1380.38 4510.74,1382.21 5142.13,1383.05 6308.4,1383.7 
  7489.8,1383.96 8813.81,1384.09 10013.6,1384.14 11387.2,1384.18 12659.1,1384.2 13913,1384.21 15130.5,1384.22 16378.6,1384.23 17745.9,1384.23 19732.3,1384.24 
  20139.8,1384.24 
  "/>
</svg>
