<?xml version="1.0" encoding="utf-8"?>
<svg xmlns="http://www.w3.org/2000/svg" xmlns:xlink="http://www.w3.org/1999/xlink" width="600" height="400" viewBox="0 0 2400 1600">
<defs>
  <clipPath id="clip550">
    <rect x="0" y="0" width="2400" height="1600"/>
  </clipPath>
</defs>
<path clip-path="url(#clip550)" d="
M0 1600 L2400 1600 L2400 0 L0 0  Z
  " fill="#ffffff" fill-rule="evenodd" fill-opacity="1"/>
<defs>
  <clipPath id="clip551">
    <rect x="480" y="0" width="1681" height="1600"/>
  </clipPath>
</defs>
<path clip-path="url(#clip550)" d="
M210.376 175.389 L2053.48 175.389 L2053.48 47.2441 L210.376 47.2441  Z
  " fill="#ffffff" fill-rule="evenodd" fill-opacity="1"/>
<defs>
  <clipPath id="clip552">
    <rect x="210" y="47" width="1844" height="129"/>
  </clipPath>
</defs>
<polyline clip-path="url(#clip550)" style="stroke:#000000; stroke-linecap:butt; stroke-linejoin:round; stroke-width:4; stroke-opacity:1; fill:none" points="
  210.376,175.389 2053.48,175.389 
  "/>
<polyline clip-path="url(#clip550)" style="stroke:#000000; stroke-linecap:butt; stroke-linejoin:round; stroke-width:4; stroke-opacity:1; fill:none" points="
  210.376,175.389 210.376,47.2441 
  "/>
<polyline clip-path="url(#clip552)" style="stroke:#009af9; stroke-linecap:butt; stroke-linejoin:round; stroke-width:4; stroke-opacity:1; fill:none" points="
  -332.304,175.389 -319.373,175.389 -306.442,175.388 -293.512,175.388 -280.581,175.388 -267.65,175.387 -254.719,175.386 -241.788,175.385 -228.858,175.383 -215.927,175.38 
  -202.996,175.376 -190.065,175.37 -177.134,175.362 -164.204,175.351 -151.273,175.337 -138.342,175.317 -125.411,175.291 -112.481,175.258 -99.5497,175.215 -86.6189,175.162 
  -73.6881,175.097 -60.7573,175.017 -47.8266,174.921 -34.8958,174.807 -21.965,174.673 -9.03419,174.518 3.89661,174.34 16.8274,174.138 29.7582,173.911 42.689,173.658 
  55.6198,173.379 68.5506,173.072 81.4813,172.736 94.4121,172.372 107.343,171.978 120.274,171.554 133.205,171.098 146.135,170.609 159.066,170.087 171.997,169.53 
  184.928,168.937 197.858,168.307 210.789,167.639 223.72,166.93 236.651,166.178 249.582,165.383 262.512,164.54 275.443,163.648 288.374,162.702 301.305,161.699 
  314.236,160.637 327.166,159.512 340.097,158.323 353.028,157.068 365.959,155.748 378.89,154.367 391.82,152.929 404.751,151.441 417.682,149.911 430.613,148.351 
  443.543,146.772 456.474,145.186 469.405,143.606 482.336,142.042 495.267,140.506 508.197,139.004 521.128,137.543 534.059,136.125 546.99,134.753 559.921,133.426 
  572.851,132.141 585.782,130.896 598.713,129.688 611.644,128.516 624.575,127.38 637.505,126.282 650.436,125.227 663.367,124.223 676.298,123.281 689.229,122.414 
  702.159,121.636 715.09,120.963 728.021,120.411 740.952,119.994 753.882,119.723 766.813,119.61 779.744,119.659 792.675,119.873 805.606,120.251 818.536,120.787 
  831.467,121.472 844.398,122.296 857.329,123.246 870.26,124.31 883.19,125.473 896.121,126.723 909.052,128.049 921.983,129.441 934.914,130.89 947.844,132.388 
  960.775,133.932 973.706,135.515 986.637,137.135 999.567,138.786 1012.5,140.463 1025.43,142.163 1038.36,143.877 1051.29,145.597 1064.22,147.313 1077.15,149.012 
  1090.08,150.679 1103.01,152.296 1115.94,153.843 1128.88,155.298 1141.81,156.636 1154.74,157.83 1167.67,158.851 1180.6,159.669 1193.53,160.252 1206.46,160.566 
  1219.39,160.576 1232.32,160.246 1245.25,159.539 1258.18,158.419 1271.11,156.849 1284.04,154.796 1296.98,152.227 1309.91,149.119 1322.84,145.455 1335.77,141.227 
  1348.7,136.445 1361.63,131.132 1374.56,125.332 1387.49,119.111 1400.42,112.557 1413.35,105.779 1426.28,98.9088 1439.21,92.0962 1452.15,85.5038 1465.08,79.3023 
  1478.01,73.6632 1490.94,68.7513 1503.87,64.7166 1516.8,61.687 1529.73,59.7618 1542.66,59.006 1555.59,59.4471 1568.52,61.0738 1581.45,63.8362 1594.38,67.6491 
  1607.31,72.3965 1620.25,77.9376 1633.18,84.1143 1646.11,90.7588 1659.04,97.7014 1671.97,104.777 1684.9,111.834 1697.83,118.735 1710.76,125.363 1723.69,131.627 
  1736.62,137.454 1749.55,142.798 1762.48,147.632 1775.41,151.948 1788.35,155.756 1801.28,159.075 1814.21,161.937 1827.14,164.379 1840.07,166.442 1853,168.169 
  1865.93,169.601 1878.86,170.78 1891.79,171.742 1904.72,172.521 1917.65,173.148 1930.58,173.65 1943.52,174.048 1956.45,174.362 1969.38,174.608 1982.31,174.8 
  1995.24,174.948 2008.17,175.062 2021.1,175.148 2034.03,175.214 2046.96,175.263 2059.89,175.299 2072.82,175.325 2085.75,175.345 2098.68,175.358 2111.62,175.368 
  2124.55,175.375 2137.48,175.38 2150.41,175.383 2163.34,175.385 2176.27,175.386 2189.2,175.387 2202.13,175.388 2215.06,175.388 2227.99,175.388 2240.92,175.389 
  
  "/>
<path clip-path="url(#clip550)" d="
M210.376 1423.18 L2053.48 1423.18 L2053.48 269.877 L210.376 269.877  Z
  " fill="#ffffff" fill-rule="evenodd" fill-opacity="1"/>
<defs>
  <clipPath id="clip553">
    <rect x="210" y="269" width="1844" height="1154"/>
  </clipPath>
</defs>
<polyline clip-path="url(#clip553)" style="stroke:#000000; stroke-linecap:butt; stroke-linejoin:round; stroke-width:2; stroke-opacity:0.1; fill:none" points="
  332.332,1423.18 332.332,269.877 
  "/>
<polyline clip-path="url(#clip553)" style="stroke:#000000; stroke-linecap:butt; stroke-linejoin:round; stroke-width:2; stroke-opacity:0.1; fill:none" points="
  739.988,1423.18 739.988,269.877 
  "/>
<polyline clip-path="url(#clip553)" style="stroke:#000000; stroke-linecap:butt; stroke-linejoin:round; stroke-width:2; stroke-opacity:0.1; fill:none" points="
  1147.65,1423.18 1147.65,269.877 
  "/>
<polyline clip-path="url(#clip553)" style="stroke:#000000; stroke-linecap:butt; stroke-linejoin:round; stroke-width:2; stroke-opacity:0.1; fill:none" points="
  1555.3,1423.18 1555.3,269.877 
  "/>
<polyline clip-path="url(#clip553)" style="stroke:#000000; stroke-linecap:butt; stroke-linejoin:round; stroke-width:2; stroke-opacity:0.1; fill:none" points="
  1962.96,1423.18 1962.96,269.877 
  "/>
<polyline clip-path="url(#clip550)" style="stroke:#000000; stroke-linecap:butt; stroke-linejoin:round; stroke-width:4; stroke-opacity:1; fill:none" points="
  210.376,1423.18 2053.48,1423.18 
  "/>
<polyline clip-path="url(#clip550)" style="stroke:#000000; stroke-linecap:butt; stroke-linejoin:round; stroke-width:4; stroke-opacity:1; fill:none" points="
  332.332,1423.18 332.332,1404.28 
  "/>
<polyline clip-path="url(#clip550)" style="stroke:#000000; stroke-linecap:butt; stroke-linejoin:round; stroke-width:4; stroke-opacity:1; fill:none" points="
  739.988,1423.18 739.988,1404.28 
  "/>
<polyline clip-path="url(#clip550)" style="stroke:#000000; stroke-linecap:butt; stroke-linejoin:round; stroke-width:4; stroke-opacity:1; fill:none" points="
  1147.65,1423.18 1147.65,1404.28 
  "/>
<polyline clip-path="url(#clip550)" style="stroke:#000000; stroke-linecap:butt; stroke-linejoin:round; stroke-width:4; stroke-opacity:1; fill:none" points="
  1555.3,1423.18 1555.3,1404.28 
  "/>
<polyline clip-path="url(#clip550)" style="stroke:#000000; stroke-linecap:butt; stroke-linejoin:round; stroke-width:4; stroke-opacity:1; fill:none" points="
  1962.96,1423.18 1962.96,1404.28 
  "/>
<path clip-path="url(#clip550)" d="M301.973 1468.75 L331.649 1468.75 L331.649 1472.69 L301.973 1472.69 L301.973 1468.75 Z" fill="#000000" fill-rule="evenodd" fill-opacity="1" /><path clip-path="url(#clip550)" d="M341.788 1451.02 L360.144 1451.02 L360.144 1454.96 L346.07 1454.96 L346.07 1463.43 Q347.088 1463.08 348.107 1462.92 Q349.125 1462.73 350.144 1462.73 Q355.931 1462.73 359.311 1465.9 Q362.69 1469.08 362.69 1474.49 Q362.69 1480.07 359.218 1483.17 Q355.746 1486.25 349.426 1486.25 Q347.251 1486.25 344.982 1485.88 Q342.737 1485.51 340.329 1484.77 L340.329 1480.07 Q342.413 1481.2 344.635 1481.76 Q346.857 1482.32 349.334 1482.32 Q353.338 1482.32 355.676 1480.21 Q358.014 1478.1 358.014 1474.49 Q358.014 1470.88 355.676 1468.77 Q353.338 1466.67 349.334 1466.67 Q347.459 1466.67 345.584 1467.08 Q343.732 1467.5 341.788 1468.38 L341.788 1451.02 Z" fill="#000000" fill-rule="evenodd" fill-opacity="1" /><path clip-path="url(#clip550)" d="M739.988 1454.1 Q736.377 1454.1 734.549 1457.66 Q732.743 1461.2 732.743 1468.33 Q732.743 1475.44 734.549 1479.01 Q736.377 1482.55 739.988 1482.55 Q743.623 1482.55 745.428 1479.01 Q747.257 1475.44 747.257 1468.33 Q747.257 1461.2 745.428 1457.66 Q743.623 1454.1 739.988 1454.1 M739.988 1450.39 Q745.798 1450.39 748.854 1455 Q751.933 1459.58 751.933 1468.33 Q751.933 1477.06 748.854 1481.67 Q745.798 1486.25 739.988 1486.25 Q734.178 1486.25 731.099 1481.67 Q728.044 1477.06 728.044 1468.33 Q728.044 1459.58 731.099 1455 Q734.178 1450.39 739.988 1450.39 Z" fill="#000000" fill-rule="evenodd" fill-opacity="1" /><path clip-path="url(#clip550)" d="M1137.92 1451.02 L1156.28 1451.02 L1156.28 1454.96 L1142.21 1454.96 L1142.21 1463.43 Q1143.22 1463.08 1144.24 1462.92 Q1145.26 1462.73 1146.28 1462.73 Q1152.07 1462.73 1155.45 1465.9 Q1158.83 1469.08 1158.83 1474.49 Q1158.83 1480.07 1155.35 1483.17 Q1151.88 1486.25 1145.56 1486.25 Q1143.39 1486.25 1141.12 1485.88 Q1138.87 1485.51 1136.46 1484.77 L1136.46 1480.07 Q1138.55 1481.2 1140.77 1481.76 Q1142.99 1482.32 1145.47 1482.32 Q1149.47 1482.32 1151.81 1480.21 Q1154.15 1478.1 1154.15 1474.49 Q1154.15 1470.88 1151.81 1468.77 Q1149.47 1466.67 1145.47 1466.67 Q1143.59 1466.67 1141.72 1467.08 Q1139.87 1467.5 1137.92 1468.38 L1137.92 1451.02 Z" fill="#000000" fill-rule="evenodd" fill-opacity="1" /><path clip-path="url(#clip550)" d="M1529.99 1481.64 L1537.63 1481.64 L1537.63 1455.28 L1529.32 1456.95 L1529.32 1452.69 L1537.58 1451.02 L1542.26 1451.02 L1542.26 1481.64 L1549.9 1481.64 L1549.9 1485.58 L1529.99 1485.58 L1529.99 1481.64 Z" fill="#000000" fill-rule="evenodd" fill-opacity="1" /><path clip-path="url(#clip550)" d="M1569.34 1454.1 Q1565.73 1454.1 1563.9 1457.66 Q1562.1 1461.2 1562.1 1468.33 Q1562.1 1475.44 1563.9 1479.01 Q1565.73 1482.55 1569.34 1482.55 Q1572.98 1482.55 1574.78 1479.01 Q1576.61 1475.44 1576.61 1468.33 Q1576.61 1461.2 1574.78 1457.66 Q1572.98 1454.1 1569.34 1454.1 M1569.34 1450.39 Q1575.15 1450.39 1578.21 1455 Q1581.29 1459.58 1581.29 1468.33 Q1581.29 1477.06 1578.21 1481.67 Q1575.15 1486.25 1569.34 1486.25 Q1563.53 1486.25 1560.45 1481.67 Q1557.4 1477.06 1557.4 1468.33 Q1557.4 1459.58 1560.45 1455 Q1563.53 1450.39 1569.34 1450.39 Z" fill="#000000" fill-rule="evenodd" fill-opacity="1" /><path clip-path="url(#clip550)" d="M1938.14 1481.64 L1945.78 1481.64 L1945.78 1455.28 L1937.47 1456.95 L1937.47 1452.69 L1945.74 1451.02 L1950.41 1451.02 L1950.41 1481.64 L1958.05 1481.64 L1958.05 1485.58 L1938.14 1485.58 L1938.14 1481.64 Z" fill="#000000" fill-rule="evenodd" fill-opacity="1" /><path clip-path="url(#clip550)" d="M1967.54 1451.02 L1985.9 1451.02 L1985.9 1454.96 L1971.82 1454.96 L1971.82 1463.43 Q1972.84 1463.08 1973.86 1462.92 Q1974.88 1462.73 1975.9 1462.73 Q1981.69 1462.73 1985.06 1465.9 Q1988.44 1469.08 1988.44 1474.49 Q1988.44 1480.07 1984.97 1483.17 Q1981.5 1486.25 1975.18 1486.25 Q1973 1486.25 1970.74 1485.88 Q1968.49 1485.51 1966.08 1484.77 L1966.08 1480.07 Q1968.17 1481.2 1970.39 1481.76 Q1972.61 1482.32 1975.09 1482.32 Q1979.09 1482.32 1981.43 1480.21 Q1983.77 1478.1 1983.77 1474.49 Q1983.77 1470.88 1981.43 1468.77 Q1979.09 1466.67 1975.09 1466.67 Q1973.21 1466.67 1971.34 1467.08 Q1969.49 1467.5 1967.54 1468.38 L1967.54 1451.02 Z" fill="#000000" fill-rule="evenodd" fill-opacity="1" /><path clip-path="url(#clip550)" d="M1159.26 1517.53 Q1159.26 1518.11 1159.03 1518.43 Q1158.84 1518.72 1158.61 1518.79 Q1158.39 1518.82 1157.81 1518.85 Q1153.2 1519.07 1149.43 1522.2 Q1148.5 1523 1146.15 1525.52 Q1143.83 1528.03 1140.74 1531.38 Q1137.68 1534.73 1135.91 1536.53 L1144.41 1556.88 Q1144.76 1557.69 1144.89 1558.04 Q1145.05 1558.37 1145.38 1558.78 Q1145.73 1559.2 1145.99 1559.33 Q1146.28 1559.46 1146.89 1559.62 Q1147.53 1559.75 1148.18 1559.78 Q1148.85 1559.78 1150.08 1559.82 Q1150.46 1559.82 1150.63 1559.85 Q1150.82 1559.85 1151.04 1560.04 Q1151.27 1560.2 1151.27 1560.59 Q1151.27 1561.17 1151.01 1561.49 Q1150.79 1561.78 1150.56 1561.81 Q1150.37 1561.84 1150.01 1561.84 Q1149.18 1561.84 1146.34 1561.75 Q1143.51 1561.65 1142.7 1561.65 L1134.39 1561.84 Q1133.4 1561.84 1133.4 1561.04 Q1133.4 1560.62 1133.46 1560.4 Q1133.56 1560.14 1133.78 1560.04 Q1134.01 1559.91 1134.17 1559.88 Q1134.33 1559.85 1134.72 1559.82 Q1135.91 1559.69 1136.81 1559.33 Q1137.74 1558.95 1138.13 1558.56 Q1138.55 1558.17 1138.55 1557.88 L1138.23 1556.95 L1131.56 1541.2 L1125.6 1547.67 L1118.87 1554.79 Q1117.1 1556.69 1117.1 1557.75 Q1117.1 1559.53 1119.74 1559.82 Q1120.55 1559.88 1120.55 1560.52 Q1120.55 1561.14 1120.29 1561.46 Q1120.06 1561.75 1119.84 1561.81 Q1119.64 1561.84 1119.35 1561.84 Q1118.16 1561.84 1115.65 1561.75 Q1113.17 1561.65 1111.95 1561.65 Q1110.92 1561.65 1108.82 1561.75 Q1106.73 1561.84 1105.76 1561.84 Q1105.38 1561.84 1105.15 1561.65 Q1104.93 1561.46 1104.93 1561.26 L1104.89 1561.1 Q1104.89 1560.65 1104.96 1560.4 Q1105.05 1560.14 1105.31 1560.01 Q1105.6 1559.88 1105.73 1559.88 Q1105.86 1559.85 1106.34 1559.82 Q1109.08 1559.65 1111.4 1558.59 Q1113.75 1557.53 1116.04 1555.05 Q1116.23 1554.89 1116.45 1554.69 Q1116.71 1554.5 1116.91 1554.34 L1130.82 1539.36 L1123.02 1520.94 Q1122.67 1520.11 1122.35 1519.75 Q1122.03 1519.36 1121.03 1519.11 Q1120.03 1518.85 1118.1 1518.85 Q1117.55 1518.85 1117.29 1518.82 Q1117.03 1518.79 1116.81 1518.62 Q1116.58 1518.46 1116.58 1518.11 Q1116.58 1517.5 1116.81 1517.21 Q1117.07 1516.88 1117.26 1516.85 Q1117.49 1516.79 1117.78 1516.79 Q1118.58 1516.79 1121.45 1516.88 Q1124.31 1516.98 1125.15 1516.98 Q1126.54 1516.98 1129.31 1516.88 Q1132.11 1516.79 1133.46 1516.79 Q1134.46 1516.79 1134.46 1517.59 Q1134.46 1518.11 1134.23 1518.4 Q1134.01 1518.69 1133.78 1518.75 Q1133.56 1518.82 1133.14 1518.85 Q1131.88 1518.98 1130.92 1519.4 Q1129.98 1519.78 1129.59 1520.17 Q1129.24 1520.52 1129.24 1520.75 L1129.56 1521.62 L1135.1 1534.73 L1145.79 1523.26 Q1147.05 1521.84 1147.05 1520.88 Q1147.05 1519.14 1144.41 1518.85 Q1143.6 1518.72 1143.6 1518.11 Q1143.6 1517.5 1143.86 1517.21 Q1144.12 1516.88 1144.31 1516.85 Q1144.54 1516.79 1144.86 1516.79 Q1146.05 1516.79 1148.5 1516.88 Q1150.98 1516.98 1152.2 1516.98 Q1153.23 1516.98 1155.33 1516.88 Q1157.42 1516.79 1158.39 1516.79 Q1158.77 1516.79 1159 1516.98 Q1159.22 1517.14 1159.22 1517.34 L1159.26 1517.53 Z" fill="#000000" fill-rule="evenodd" fill-opacity="1" /><polyline clip-path="url(#clip553)" style="stroke:#000000; stroke-linecap:butt; stroke-linejoin:round; stroke-width:2; stroke-opacity:0.1; fill:none" points="
  210.376,1185.28 2053.48,1185.28 
  "/>
<polyline clip-path="url(#clip553)" style="stroke:#000000; stroke-linecap:butt; stroke-linejoin:round; stroke-width:2; stroke-opacity:0.1; fill:none" points="
  210.376,939.566 2053.48,939.566 
  "/>
<polyline clip-path="url(#clip553)" style="stroke:#000000; stroke-linecap:butt; stroke-linejoin:round; stroke-width:2; stroke-opacity:0.1; fill:none" points="
  210.376,693.848 2053.48,693.848 
  "/>
<polyline clip-path="url(#clip553)" style="stroke:#000000; stroke-linecap:butt; stroke-linejoin:round; stroke-width:2; stroke-opacity:0.1; fill:none" points="
  210.376,448.131 2053.48,448.131 
  "/>
<polyline clip-path="url(#clip550)" style="stroke:#000000; stroke-linecap:butt; stroke-linejoin:round; stroke-width:4; stroke-opacity:1; fill:none" points="
  210.376,1423.18 210.376,269.877 
  "/>
<polyline clip-path="url(#clip550)" style="stroke:#000000; stroke-linecap:butt; stroke-linejoin:round; stroke-width:4; stroke-opacity:1; fill:none" points="
  210.376,1185.28 229.273,1185.28 
  "/>
<polyline clip-path="url(#clip550)" style="stroke:#000000; stroke-linecap:butt; stroke-linejoin:round; stroke-width:4; stroke-opacity:1; fill:none" points="
  210.376,939.566 229.273,939.566 
  "/>
<polyline clip-path="url(#clip550)" style="stroke:#000000; stroke-linecap:butt; stroke-linejoin:round; stroke-width:4; stroke-opacity:1; fill:none" points="
  210.376,693.848 229.273,693.848 
  "/>
<polyline clip-path="url(#clip550)" style="stroke:#000000; stroke-linecap:butt; stroke-linejoin:round; stroke-width:4; stroke-opacity:1; fill:none" points="
  210.376,448.131 229.273,448.131 
  "/>
<path clip-path="url(#clip550)" d="M114.26 1185.73 L143.936 1185.73 L143.936 1189.67 L114.26 1189.67 L114.26 1185.73 Z" fill="#000000" fill-rule="evenodd" fill-opacity="1" /><path clip-path="url(#clip550)" d="M158.056 1198.63 L174.376 1198.63 L174.376 1202.56 L152.431 1202.56 L152.431 1198.63 Q155.093 1195.87 159.677 1191.24 Q164.283 1186.59 165.464 1185.25 Q167.709 1182.73 168.589 1180.99 Q169.491 1179.23 169.491 1177.54 Q169.491 1174.79 167.547 1173.05 Q165.626 1171.31 162.524 1171.31 Q160.325 1171.31 157.871 1172.08 Q155.44 1172.84 152.663 1174.39 L152.663 1169.67 Q155.487 1168.54 157.94 1167.96 Q160.394 1167.38 162.431 1167.38 Q167.802 1167.38 170.996 1170.06 Q174.19 1172.75 174.19 1177.24 Q174.19 1179.37 173.38 1181.29 Q172.593 1183.19 170.487 1185.78 Q169.908 1186.45 166.806 1189.67 Q163.704 1192.86 158.056 1198.63 Z" fill="#000000" fill-rule="evenodd" fill-opacity="1" /><path clip-path="url(#clip550)" d="M162.431 925.364 Q158.82 925.364 156.991 928.929 Q155.186 932.471 155.186 939.601 Q155.186 946.707 156.991 950.272 Q158.82 953.813 162.431 953.813 Q166.065 953.813 167.871 950.272 Q169.7 946.707 169.7 939.601 Q169.7 932.471 167.871 928.929 Q166.065 925.364 162.431 925.364 M162.431 921.661 Q168.241 921.661 171.297 926.267 Q174.376 930.851 174.376 939.601 Q174.376 948.327 171.297 952.934 Q168.241 957.517 162.431 957.517 Q156.621 957.517 153.542 952.934 Q150.487 948.327 150.487 939.601 Q150.487 930.851 153.542 926.267 Q156.621 921.661 162.431 921.661 Z" fill="#000000" fill-rule="evenodd" fill-opacity="1" /><path clip-path="url(#clip550)" d="M158.056 707.193 L174.376 707.193 L174.376 711.128 L152.431 711.128 L152.431 707.193 Q155.093 704.439 159.677 699.809 Q164.283 695.156 165.464 693.814 Q167.709 691.29 168.589 689.554 Q169.491 687.795 169.491 686.105 Q169.491 683.351 167.547 681.615 Q165.626 679.878 162.524 679.878 Q160.325 679.878 157.871 680.642 Q155.44 681.406 152.663 682.957 L152.663 678.235 Q155.487 677.101 157.94 676.522 Q160.394 675.943 162.431 675.943 Q167.802 675.943 170.996 678.628 Q174.19 681.314 174.19 685.804 Q174.19 687.934 173.38 689.855 Q172.593 691.753 170.487 694.346 Q169.908 695.017 166.806 698.235 Q163.704 701.429 158.056 707.193 Z" fill="#000000" fill-rule="evenodd" fill-opacity="1" /><path clip-path="url(#clip550)" d="M164.792 434.925 L152.987 453.374 L164.792 453.374 L164.792 434.925 M163.565 430.851 L169.445 430.851 L169.445 453.374 L174.376 453.374 L174.376 457.263 L169.445 457.263 L169.445 465.411 L164.792 465.411 L164.792 457.263 L149.191 457.263 L149.191 452.749 L163.565 430.851 Z" fill="#000000" fill-rule="evenodd" fill-opacity="1" /><path clip-path="url(#clip550)" d="M27.8098 817.538 Q28.2285 817.538 28.4861 817.634 Q28.7438 817.699 28.8726 817.956 Q28.9692 818.182 29.0014 818.343 Q29.0336 818.472 29.0658 818.858 Q29.1947 820.436 29.6133 821.757 Q29.9998 823.077 30.7727 824.204 Q31.5457 825.299 32.061 825.911 Q32.5763 826.491 33.6069 827.521 L34.5408 828.423 L53.3168 844.784 Q53.961 845.363 55.378 845.718 L64.6855 848.037 Q68.5502 848.938 68.8401 848.938 Q69.4198 848.938 69.613 848.616 Q69.774 848.262 69.8707 847.167 L70.0317 844.655 Q70.0317 843.173 70.2893 842.948 Q70.4504 842.819 70.7402 842.819 Q71.3521 842.819 71.6742 843.077 Q71.964 843.302 72.0285 843.528 Q72.0607 843.721 72.0607 844.075 L71.8674 852.513 L72.0607 860.822 Q72.0607 861.756 71.3199 861.756 Q70.8368 861.756 70.5792 861.692 Q70.2893 861.595 70.1927 861.305 Q70.0639 861.015 70.0639 860.79 Q70.0317 860.565 70.0317 859.953 Q69.9995 858.471 69.9995 857.73 Q69.9673 856.958 69.774 856.217 Q69.5808 855.476 69.452 855.218 Q69.291 854.929 68.7435 854.607 Q68.1637 854.252 67.7129 854.156 Q67.262 854.027 66.1348 853.769 Q65.1364 853.512 59.6936 852.159 Q54.2508 850.806 54.122 850.806 Q53.7677 850.806 52.9948 851.064 L31.288 859.18 Q30.3219 859.534 29.9354 859.824 Q29.5489 860.114 29.3235 861.08 Q29.0658 862.046 29.0658 863.978 Q29.0658 864.526 29.0336 864.784 Q29.0014 865.041 28.8404 865.267 Q28.6794 865.492 28.3251 865.492 Q27.7132 865.492 27.4233 865.234 Q27.1013 864.977 27.0691 864.784 Q27.0047 864.558 27.0047 864.236 Q27.0047 863.431 27.1013 860.565 Q27.1979 857.698 27.1979 856.861 L27.0047 848.552 Q27.0047 847.553 27.7454 847.553 Q28.6472 847.553 28.8726 847.908 Q29.0658 848.262 29.0658 849.132 Q29.0658 853.028 30.6439 853.028 Q30.8372 853.028 31.7711 852.642 L51.3523 845.396 L33.7357 830.098 L33.478 829.872 Q33.2204 829.679 33.0272 829.518 Q32.8339 829.357 32.4797 829.099 Q32.1254 828.842 31.8355 828.713 Q31.5457 828.552 31.1914 828.423 Q30.8372 828.294 30.5795 828.294 Q30.0964 828.294 29.7744 828.584 Q29.4201 828.874 29.2913 829.325 Q29.1625 829.776 29.1302 830.098 Q29.0658 830.42 29.0658 830.678 Q29.0658 831.676 28.2607 831.676 Q27.681 831.676 27.3911 831.418 Q27.0691 831.161 27.0369 830.967 Q27.0047 830.742 27.0047 830.42 Q27.0047 829.357 27.1013 827.135 Q27.1979 824.913 27.1979 823.818 Q27.1979 822.916 27.1013 821.08 Q27.0047 819.244 27.0047 818.407 Q27.0047 817.538 27.8098 817.538 Z" fill="#000000" fill-rule="evenodd" fill-opacity="1" /><polyline clip-path="url(#clip553)" style="stroke:#1a0b40; stroke-linecap:butt; stroke-linejoin:round; stroke-width:4; stroke-opacity:1; fill:none" points="
  390.984,1187.5 394.254,1189.04 404.093,1193 404.345,1193.09 414.437,1196.34 422.361,1198.5 424.528,1199.06 434.619,1201.37 444.71,1203.38 448.278,1204 
  454.801,1205.13 464.892,1206.67 474.983,1208.01 485.074,1209.16 488.713,1209.51 495.165,1210.13 505.256,1210.89 515.347,1211.45 525.438,1211.77 535.53,1211.84 
  545.621,1211.64 555.712,1211.15 565.803,1210.34 573.438,1209.51 575.894,1209.22 585.985,1207.74 596.076,1205.95 605.557,1204 606.167,1203.87 616.258,1201.5 
  626.349,1198.99 628.292,1198.5 636.44,1196.39 646.532,1193.85 650.115,1193 656.623,1191.48 666.714,1189.35 676.732,1187.5 676.805,1187.49 686.896,1185.95 
  696.987,1184.66 707.078,1183.59 717.169,1182.68 725.693,1182 727.26,1181.89 737.351,1181.17 747.442,1180.46 757.534,1179.7 767.625,1178.85 777.716,1177.86 
  787.807,1176.69 789.189,1176.5 797.898,1175.31 807.989,1173.66 818.08,1171.68 821.015,1171 828.171,1169.32 838.262,1166.53 841.504,1165.5 848.353,1163.22 
  856.785,1160 858.444,1159.33 868.535,1154.72 868.969,1154.5 878.627,1149.26 879.074,1149 887.755,1143.5 888.718,1142.85 895.446,1138 898.809,1135.45 
  902.508,1132.5 908.9,1127.25 909.199,1127 915.725,1121.5 918.991,1118.81 922.336,1116 929.082,1110.6 929.207,1110.5 936.54,1105 939.173,1103.18 
  944.485,1099.5 949.264,1096.48 953.179,1094 959.355,1090.44 962.742,1088.5 969.446,1084.99 973.255,1082.99 979.537,1079.98 984.728,1077.49 989.629,1075.32 
  997.076,1071.99 999.72,1070.88 1009.81,1066.61 1010.09,1066.49 1019.9,1062.49 1023.51,1060.99 1029.99,1058.34 1036.8,1055.49 1040.08,1054.1 1049.49,1049.99 
  1050.18,1049.68 1060.27,1044.95 1061.2,1044.49 1070.36,1039.69 1071.64,1038.99 1080.45,1033.63 1080.67,1033.49 1088.35,1027.99 1090.54,1026.13 1094.7,1022.49 
  1099.82,1016.99 1100.63,1015.9 1103.9,1011.49 1107.01,1005.99 1109.25,1000.49 1110.72,995.124 1110.76,994.987 1111.68,989.487 1112.09,983.986 1112.11,978.486 
  1111.89,972.985 1111.57,967.485 1111.31,961.985 1111.26,956.484 1111.58,950.984 1112.37,945.483 1113.75,939.983 1115.77,934.482 1118.45,928.982 1120.81,925.075 
  1121.84,923.481 1126.03,917.981 1130.75,912.48 1130.9,912.322 1136.28,906.98 1140.99,902.532 1142.18,901.479 1148.59,895.979 1151.09,893.841 1155.26,890.479 
  1161.18,885.553 1161.92,884.978 1168.69,879.478 1171.27,877.196 1175.2,873.977 1181.12,868.477 1181.36,868.221 1186.82,862.976 1191.45,857.476 1191.45,857.475 
  1195.71,851.975 1198.83,846.475 1200.93,840.974 1201.54,838.18 1202.25,835.474 1202.69,829.974 1202.19,824.473 1201.54,821.86 1200.95,818.973 1199.15,813.472 
  1196.71,807.972 1193.65,802.471 1191.45,799.089 1190.24,796.971 1186.78,791.47 1183.01,785.97 1181.36,783.598 1179.37,780.469 1175.94,774.969 1172.61,769.468 
  1171.27,766.997 1169.74,763.968 1167.35,758.468 1165.34,752.967 1163.7,747.467 1162.35,741.966 1161.18,736.618 1161.15,736.466 1160,730.965 1158.44,725.465 
  1156.06,719.964 1152.31,714.464 1151.09,713.216 1147.15,708.963 1140.99,704.263 1139.97,703.463 1130.9,698.005 1130.83,697.963 1120.81,693.039 1119.61,692.462 
  1110.72,688.795 1106.11,686.962 1100.63,685.015 1090.54,681.587 1090.15,681.461 1080.45,678.522 1071.44,675.961 1070.36,675.667 1060.27,673.07 1050.18,670.662 
  1049.25,670.46 1040.08,668.47 1029.99,666.482 1021.31,664.96 1019.9,664.711 1009.81,663.173 999.72,661.892 989.629,660.89 979.537,660.192 969.446,659.823 
  959.355,659.808 949.264,660.169 939.173,660.927 929.082,662.099 918.991,663.696 912.63,664.96 908.9,665.721 898.809,668.16 890.594,670.46 888.718,670.988 
  878.627,674.107 873.098,675.961 868.535,677.444 858.444,680.893 856.832,681.461 848.353,684.252 840.233,686.962 838.262,687.562 828.171,690.614 821.98,692.462 
  818.08,693.505 807.989,696.14 800.829,697.963 797.898,698.626 787.807,700.847 777.716,703.015 775.581,703.463 767.625,704.952 757.534,706.814 747.442,708.67 
  745.841,708.963 737.351,710.363 727.26,712.049 717.169,713.779 713.27,714.464 707.078,715.455 696.987,717.134 686.896,718.903 681.14,719.964 676.805,720.706 
  666.714,722.53 656.623,724.497 651.966,725.465 646.532,726.536 636.44,728.681 626.642,730.965 626.349,731.032 616.258,733.468 606.167,736.18 605.172,736.466 
  596.076,739.085 587.098,741.966 585.985,742.333 575.894,745.919 571.912,747.467 565.803,749.976 559.128,752.967 555.712,754.617 548.311,758.468 545.621,760 
  539.067,763.968 535.53,766.335 531.062,769.468 525.438,773.833 524.022,774.969 517.627,780.469 515.347,782.553 511.665,785.97 505.998,791.47 505.256,792.188 
  500.324,796.971 495.165,802.019 494.701,802.471 488.846,807.972 485.074,811.466 482.885,813.472 476.743,818.973 474.983,820.518 470.415,824.473 464.892,829.27 
  464.069,829.974 457.598,835.474 454.801,837.897 451.174,840.974 444.894,846.475 444.71,846.64 438.598,851.975 434.619,855.61 432.52,857.476 426.564,862.976 
  424.528,864.93 420.721,868.477 415.061,873.977 414.437,874.6 409.396,879.478 404.345,884.528 403.881,884.978 398.292,890.479 394.254,894.513 392.746,895.979 
  387.101,901.479 384.163,904.336 381.374,906.98 375.535,912.48 374.072,913.841 369.514,917.981 363.981,922.957 363.385,923.481 357.039,928.982 353.89,931.689 
  350.566,934.482 343.997,939.983 343.799,940.148 337.267,945.483 333.708,948.414 330.514,950.984 323.782,956.484 323.617,956.623 317.033,961.985 313.526,964.942 
  310.423,967.485 304.005,972.985 303.435,973.505 297.773,978.486 293.343,982.678 291.909,983.986 286.417,989.487 283.252,993.043 281.448,994.987 277.052,1000.49 
  273.395,1005.99 273.161,1006.45 270.471,1011.49 268.437,1016.99 267.354,1022.49 267.269,1027.99 268.212,1033.49 270.193,1038.99 273.161,1044.42 273.198,1044.49 
  277.055,1049.99 281.759,1055.49 283.252,1057.02 287.028,1060.99 292.754,1066.49 293.343,1067.03 298.562,1071.99 303.435,1076.53 304.416,1077.49 309.995,1082.99 
  313.526,1086.57 315.315,1088.5 320.221,1094 323.617,1098.03 324.784,1099.5 328.907,1105 332.749,1110.5 333.708,1111.96 336.236,1116 339.476,1121.5 
  342.541,1127 343.799,1129.38 345.435,1132.5 348.226,1138 351.008,1143.5 353.858,1149 353.89,1149.06 356.844,1154.5 360.135,1160 363.913,1165.5 
  363.981,1165.59 368.438,1171 374.055,1176.5 374.072,1176.52 381.329,1182 384.163,1183.78 390.984,1187.5 
  "/>
<polyline clip-path="url(#clip553)" style="stroke:#370961; stroke-linecap:butt; stroke-linejoin:round; stroke-width:4; stroke-opacity:1; fill:none" points="
  474.983,1140.33 466.952,1138 464.892,1137.34 454.801,1132.94 454,1132.5 445.158,1127 444.71,1126.69 438.496,1121.5 434.619,1117.85 432.899,1116 
  428.209,1110.5 424.528,1105.82 423.936,1105 420.096,1099.5 416.335,1094 414.437,1091.24 412.625,1088.5 408.878,1082.99 405.002,1077.49 404.345,1076.6 
  401.009,1071.99 396.899,1066.49 394.254,1063.01 392.715,1060.99 388.521,1055.49 384.46,1049.99 384.163,1049.57 380.574,1044.49 377.07,1038.99 374.076,1033.49 
  374.072,1033.48 371.64,1027.99 369.932,1022.49 369.012,1016.99 368.916,1011.49 369.654,1005.99 371.211,1000.49 373.55,994.987 374.072,994.059 376.583,989.487 
  380.267,983.986 384.163,978.967 384.53,978.486 389.246,972.985 394.254,967.615 394.374,967.485 399.779,961.985 404.345,957.538 405.413,956.484 411.164,950.984 
  414.437,947.903 416.973,945.483 422.76,939.983 424.528,938.294 428.46,934.482 434.034,928.982 434.619,928.394 439.42,923.481 444.624,917.981 444.71,917.888 
  449.601,912.48 454.406,906.98 454.801,906.52 459.025,901.479 463.547,895.979 464.892,894.349 468,890.479 472.473,884.978 474.983,881.984 477.031,879.478 
  481.734,873.977 485.074,870.274 486.662,868.477 491.837,862.976 495.165,859.654 497.32,857.476 503.103,851.975 505.256,850.035 509.186,846.475 515.347,841.154 
  515.555,840.974 522.123,835.474 525.438,832.763 528.865,829.974 535.53,824.614 535.707,824.473 542.574,818.973 545.621,816.525 549.466,813.472 555.712,808.503 
  556.391,807.972 563.402,802.471 565.803,800.612 570.637,796.971 575.894,793.141 578.276,791.47 585.985,786.337 586.565,785.97 595.837,780.469 596.076,780.337 
  606.167,775.136 606.516,774.969 616.258,770.648 619.162,769.468 626.349,766.746 634.455,763.968 636.44,763.325 646.532,760.317 653.412,758.468 656.623,757.635 
  666.714,755.231 676.805,753.068 677.314,752.967 686.896,751.08 696.987,749.272 707.078,747.622 708.099,747.467 717.169,746.062 727.26,744.62 737.351,743.284 
  747.442,742.039 748.074,741.966 757.534,740.821 767.625,739.669 777.716,738.574 787.807,737.522 797.898,736.502 798.273,736.466 807.989,735.452 818.08,734.414 
  828.171,733.378 838.262,732.336 848.353,731.282 851.416,730.965 858.444,730.175 868.535,729.04 878.627,727.9 888.718,726.768 898.809,725.659 900.716,725.465 
  908.9,724.562 918.991,723.548 929.082,722.661 939.173,721.946 949.264,721.452 959.355,721.231 969.446,721.342 979.537,721.844 989.629,722.803 999.72,724.294 
  1005.45,725.465 1009.81,726.392 1019.9,729.203 1024.9,730.965 1029.99,732.84 1038.01,736.466 1040.08,737.437 1048.24,741.966 1050.18,743.063 1056.9,747.467 
  1060.27,749.685 1064.67,752.967 1070.36,757.175 1071.93,758.468 1078.79,763.968 1080.45,765.265 1085.38,769.468 1090.54,773.856 1091.76,774.969 1097.82,780.469 
  1100.63,783.08 1103.57,785.97 1108.88,791.47 1110.72,793.532 1113.68,796.971 1117.86,802.471 1120.81,807.109 1121.35,807.972 1124.09,813.472 1126,818.973 
  1127.05,824.473 1127.21,829.974 1126.45,835.474 1124.78,840.974 1122.21,846.475 1120.81,848.722 1118.8,851.975 1114.6,857.476 1110.72,861.814 1109.68,862.976 
  1104.21,868.477 1100.63,871.793 1098.28,873.977 1092.09,879.478 1090.54,880.828 1085.83,884.978 1080.45,889.751 1079.64,890.479 1073.76,895.979 1070.36,899.34 
  1068.25,901.479 1063.25,906.98 1060.27,910.61 1058.78,912.48 1054.93,917.981 1051.61,923.481 1050.18,926.316 1048.88,928.982 1046.71,934.482 1045.02,939.983 
  1043.79,945.483 1042.95,950.984 1042.43,956.484 1042.15,961.985 1041.99,967.485 1041.8,972.985 1041.44,978.486 1040.71,983.986 1040.08,986.776 1039.47,989.487 
  1037.54,994.987 1034.7,1000.49 1030.79,1005.99 1029.99,1006.86 1025.68,1011.49 1019.9,1016.4 1019.18,1016.99 1011.21,1022.49 1009.81,1023.33 1001.69,1027.99 
  999.72,1029 990.645,1033.49 989.629,1033.95 979.537,1038.43 978.225,1038.99 969.446,1042.6 964.721,1044.49 959.355,1046.6 950.499,1049.99 949.264,1050.47 
  939.173,1054.31 936.027,1055.49 929.082,1058.17 921.653,1060.99 918.991,1062.05 908.9,1066 907.639,1066.49 898.809,1070.11 894.129,1071.99 888.718,1074.31 
  881.091,1077.49 878.627,1078.59 868.535,1082.96 868.444,1082.99 858.444,1087.46 855.998,1088.5 848.353,1091.94 843.481,1094 838.262,1096.32 830.51,1099.5 
  828.171,1100.5 818.08,1104.42 816.402,1105 807.989,1108.01 799.878,1110.5 797.898,1111.12 787.807,1113.83 777.823,1116 777.716,1116.02 767.625,1117.86 
  757.534,1119.27 747.442,1120.32 737.351,1121.07 728.882,1121.5 727.26,1121.58 717.169,1121.92 707.078,1122.12 696.987,1122.22 686.896,1122.27 676.805,1122.34 
  666.714,1122.46 656.623,1122.68 646.532,1123.04 636.44,1123.58 626.349,1124.34 616.258,1125.33 606.167,1126.57 603.213,1127 596.076,1128.12 585.985,1129.92 
  575.894,1131.91 573.006,1132.5 565.803,1134.07 555.712,1136.27 547.398,1138 545.621,1138.38 535.53,1140.29 525.438,1141.84 515.347,1142.92 505.256,1143.42 
  495.165,1143.23 485.074,1142.24 474.983,1140.33 
  "/>
<polyline clip-path="url(#clip553)" style="stroke:#530e6d; stroke-linecap:butt; stroke-linejoin:round; stroke-width:4; stroke-opacity:1; fill:none" points="
  575.894,1083.75 565.803,1083.24 562.281,1082.99 555.712,1082.53 545.621,1081.53 535.53,1080.11 525.438,1078.13 522.966,1077.49 515.347,1075.43 505.744,1071.99 
  505.256,1071.81 495.165,1067.1 494.086,1066.49 485.074,1061.07 484.955,1060.99 477.481,1055.49 474.983,1053.46 471.086,1049.99 465.57,1044.49 464.892,1043.72 
  460.92,1038.99 457.021,1033.49 454.801,1029.62 453.895,1027.99 451.574,1022.49 450.05,1016.99 449.339,1011.49 449.44,1005.99 450.335,1000.49 451.99,994.987 
  454.351,989.487 454.801,988.667 457.363,983.986 460.936,978.486 464.892,973.111 464.984,972.985 469.43,967.485 474.163,961.985 474.983,961.078 479.101,956.484 
  484.144,950.984 485.074,949.982 489.2,945.483 494.187,939.983 495.165,938.884 499.019,934.482 503.642,928.982 505.256,926.97 508,923.481 512.077,917.981 
  515.347,913.269 515.884,912.48 519.437,906.98 522.815,901.479 525.438,897.093 526.094,895.979 529.374,890.479 532.764,884.978 535.53,880.765 536.369,879.478 
  540.305,873.977 544.628,868.477 545.621,867.336 549.438,862.976 554.726,857.476 555.712,856.535 560.55,851.975 565.803,847.356 566.822,846.475 573.542,840.974 
  575.894,839.122 580.611,835.474 585.985,831.414 587.93,829.974 595.457,824.473 596.076,824.024 603.209,818.973 606.167,816.897 611.187,813.472 616.258,810.077 
  619.515,807.972 626.349,803.704 628.413,802.471 636.44,797.924 638.218,796.971 646.532,792.812 649.402,791.47 656.623,788.352 662.609,785.97 666.714,784.464 
  676.805,781.083 678.807,780.469 686.896,778.172 696.987,775.599 699.724,774.969 707.078,773.375 717.169,771.421 727.26,769.692 728.733,769.468 737.351,768.206 
  747.442,766.913 757.534,765.791 767.625,764.831 777.716,764.021 778.534,763.968 787.807,763.363 797.898,762.837 807.989,762.436 818.08,762.153 828.171,761.982 
  838.262,761.917 848.353,761.954 858.444,762.089 868.535,762.321 878.627,762.649 888.718,763.078 898.809,763.614 904.365,763.968 908.9,764.268 918.991,765.051 
  929.082,765.986 939.173,767.099 949.264,768.423 956.039,769.468 959.355,769.988 969.446,771.819 979.537,773.977 983.539,774.969 989.629,776.489 999.72,779.407 
  1002.92,780.469 1009.81,782.792 1018.02,785.97 1019.9,786.722 1029.99,791.313 1030.3,791.47 1040.08,796.812 1040.34,796.971 1048.5,802.471 1050.18,803.774 
  1055.03,807.972 1060.14,813.472 1060.27,813.649 1063.66,818.973 1065.84,824.473 1066.68,829.974 1066.24,835.474 1064.57,840.974 1061.8,846.475 1060.27,848.722 
  1057.99,851.975 1053.32,857.476 1050.18,860.746 1048.01,862.976 1042.26,868.477 1040.08,870.48 1036.32,873.977 1030.44,879.478 1029.99,879.908 1024.81,884.978 
  1019.9,890.128 1019.58,890.479 1014.84,895.979 1010.6,901.479 1009.81,902.607 1006.88,906.98 1003.63,912.48 1000.79,917.981 999.72,920.361 998.354,923.481 
  996.26,928.982 994.454,934.482 992.899,939.983 991.555,945.483 990.379,950.984 989.629,954.873 989.318,956.484 988.3,961.985 987.219,967.485 985.951,972.985 
  984.349,978.486 982.239,983.986 979.537,989.282 979.429,989.487 975.713,994.987 970.884,1000.49 969.446,1001.82 964.73,1005.99 959.355,1009.91 957.093,1011.49 
  949.264,1016.18 947.855,1016.99 939.173,1021.42 936.997,1022.49 929.082,1026.05 924.635,1027.99 918.991,1030.31 911.03,1033.49 908.9,1034.31 898.809,1038.14 
  896.525,1038.99 888.718,1041.86 881.479,1044.49 878.627,1045.53 868.535,1049.15 866.142,1049.99 858.444,1052.74 850.591,1055.49 848.353,1056.29 838.262,1059.79 
  834.671,1060.99 828.171,1063.21 818.08,1066.49 818.054,1066.49 807.989,1069.64 799.78,1071.99 797.898,1072.55 787.807,1075.24 778.214,1077.49 777.716,1077.61 
  767.625,1079.74 757.534,1081.52 747.442,1082.98 747.281,1082.99 737.351,1084.17 727.26,1085.07 717.169,1085.72 707.078,1086.13 696.987,1086.35 686.896,1086.42 
  676.805,1086.36 666.714,1086.22 656.623,1086.01 646.532,1085.76 636.44,1085.5 626.349,1085.23 616.258,1084.97 606.167,1084.71 596.076,1084.44 585.985,1084.13 
  575.894,1083.75 
  "/>
<polyline clip-path="url(#clip553)" style="stroke:#6e186e; stroke-linecap:butt; stroke-linejoin:round; stroke-width:4; stroke-opacity:1; fill:none" points="
  636.44,1053.88 626.349,1052.74 616.258,1051.43 606.541,1049.99 606.167,1049.93 596.076,1048.06 585.985,1045.88 580.409,1044.49 575.894,1043.18 565.803,1039.8 
  563.704,1038.99 555.712,1035.28 552.349,1033.49 545.621,1028.99 544.289,1027.99 538.656,1022.49 535.53,1018.16 534.754,1016.99 532.378,1011.49 531.178,1005.99 
  530.99,1000.49 531.661,994.987 533.051,989.487 535.03,983.986 535.53,982.896 537.528,978.486 540.403,972.985 543.56,967.485 545.621,964.163 546.938,961.985 
  550.466,956.484 554.071,950.984 555.712,948.54 557.701,945.483 561.299,939.983 564.828,934.482 565.803,932.936 568.237,928.982 571.508,923.481 574.638,917.981 
  575.894,915.684 577.627,912.48 580.511,906.98 583.346,901.479 585.985,896.405 586.208,895.979 589.213,890.479 592.457,884.978 596.044,879.478 596.076,879.433 
  600.158,873.977 604.806,868.477 606.167,867.035 610.134,862.976 616.073,857.476 616.258,857.318 622.743,851.975 626.349,849.182 629.97,846.475 636.44,841.833 
  637.68,840.974 645.84,835.474 646.532,835.017 654.435,829.974 656.623,828.601 663.466,824.473 666.714,822.562 673.108,818.973 676.805,816.979 683.701,813.472 
  686.896,811.941 695.811,807.972 696.987,807.487 707.078,803.685 710.656,802.471 717.169,800.454 727.26,797.702 730.358,796.971 737.351,795.466 747.442,793.637 
  757.534,792.147 763.424,791.47 767.625,791.024 777.716,790.247 787.807,789.755 797.898,789.537 807.989,789.582 818.08,789.876 828.171,790.406 838.262,791.157 
  841.623,791.47 848.353,792.146 858.444,793.342 868.535,794.705 878.627,796.215 883.329,796.971 888.718,797.899 898.809,799.735 908.9,801.68 912.839,802.471 
  918.991,803.807 929.082,806.112 936.736,807.972 939.173,808.63 949.264,811.543 955.362,813.472 959.355,814.95 969.053,818.973 969.446,819.178 978.405,824.473 
  979.537,825.425 984.285,829.974 987.504,835.474 988.528,840.974 987.809,846.475 985.811,851.975 982.96,857.476 979.623,862.976 979.537,863.101 976.016,868.477 
  972.462,873.977 969.446,878.886 969.101,879.478 965.992,884.978 963.203,890.479 960.722,895.979 959.355,899.326 958.509,901.479 956.519,906.98 954.706,912.48 
  953.021,917.981 951.418,923.481 949.858,928.982 949.264,931.083 948.299,934.482 946.713,939.983 945.072,945.483 943.338,950.984 941.461,956.484 939.376,961.985 
  939.173,962.466 936.953,967.485 934.106,972.985 930.701,978.486 929.082,980.691 926.509,983.986 921.363,989.487 918.991,991.628 915.024,994.987 908.9,999.422 
  907.334,1000.49 898.809,1005.59 898.104,1005.99 888.718,1010.78 887.251,1011.49 878.627,1015.36 874.837,1016.99 868.535,1019.55 861.053,1022.49 858.444,1023.47 
  848.353,1027.17 846.054,1027.99 838.262,1030.69 829.955,1033.49 828.171,1034.08 818.08,1037.29 812.534,1038.99 807.989,1040.36 797.898,1043.23 793.164,1044.49 
  787.807,1045.89 777.716,1048.31 769.866,1049.99 767.625,1050.46 757.534,1052.31 747.442,1053.87 737.351,1055.13 733.555,1055.49 727.26,1056.08 717.169,1056.73 
  707.078,1057.11 696.987,1057.24 686.896,1057.14 676.805,1056.84 666.714,1056.35 656.623,1055.71 653.885,1055.49 646.532,1054.88 636.44,1053.88 
  "/>
<polyline clip-path="url(#clip553)" style="stroke:#85206a; stroke-linecap:butt; stroke-linejoin:round; stroke-width:4; stroke-opacity:1; fill:none" points="
  686.896,1024.57 676.805,1023.07 673.699,1022.49 666.714,1020.95 656.623,1018.19 652.903,1016.99 646.532,1014.49 640.015,1011.49 636.44,1009.43 631.212,1005.99 
  626.349,1001.83 624.961,1000.49 620.55,994.987 617.361,989.487 616.258,986.869 615.166,983.986 613.748,978.486 612.954,972.985 612.709,967.485 612.955,961.985 
  613.645,956.484 614.735,950.984 616.181,945.483 616.258,945.25 617.961,939.983 620.005,934.482 622.273,928.982 624.734,923.481 626.349,920.125 627.387,917.981 
  630.238,912.48 633.28,906.98 636.44,901.663 636.553,901.479 640.193,895.979 644.206,890.479 646.532,887.583 648.742,884.978 653.91,879.478 656.623,876.864 
  659.821,873.977 666.51,868.477 666.714,868.321 674.182,862.976 676.805,861.207 682.743,857.476 686.896,854.963 692.213,851.975 696.987,849.346 702.628,846.475 
  707.078,844.231 714.127,840.974 717.169,839.579 727.078,835.474 727.26,835.399 737.351,831.767 743.149,829.974 747.442,828.69 757.534,826.208 766.6,824.473 
  767.625,824.288 777.716,822.996 787.807,822.232 797.898,821.982 807.989,822.22 818.08,822.918 828.171,824.046 831.01,824.473 838.262,825.654 848.353,827.705 
  857.707,829.974 858.444,830.171 868.535,833.29 874.685,835.474 878.627,837.09 886.875,840.974 888.718,842.025 895.521,846.475 898.809,849.28 901.571,851.975 
  905.675,857.476 908.44,862.976 908.9,864.285 910.201,868.477 911.319,873.977 912.015,879.478 912.423,884.978 912.62,890.479 912.642,895.979 912.496,901.479 
  912.173,906.98 911.654,912.48 910.914,917.981 909.931,923.481 908.9,928.018 908.674,928.982 907.077,934.482 905.158,939.983 902.893,945.483 900.25,950.984 
  898.809,953.601 897.103,956.484 893.379,961.985 889.082,967.485 888.718,967.9 883.845,972.985 878.627,977.749 877.739,978.486 870.36,983.986 868.535,985.209 
  861.557,989.487 858.444,991.229 851.14,994.987 848.353,996.319 838.937,1000.49 838.262,1000.77 828.171,1004.69 824.566,1005.99 818.08,1008.24 808.06,1011.49 
  807.989,1011.51 797.898,1014.41 788.256,1016.99 787.807,1017.11 777.716,1019.43 767.625,1021.5 761.933,1022.49 757.534,1023.23 747.442,1024.58 737.351,1025.58 
  727.26,1026.21 717.169,1026.43 707.078,1026.24 696.987,1025.62 686.896,1024.57 
  "/>
<polyline clip-path="url(#clip553)" style="stroke:#a02a62; stroke-linecap:butt; stroke-linejoin:round; stroke-width:4; stroke-opacity:1; fill:none" points="
  787.807,967.511 777.716,969.18 767.625,970.115 757.534,970.29 747.442,969.651 737.351,968.117 734.748,967.485 727.26,965.437 718.529,961.985 717.169,961.346 
  709.27,956.484 707.078,954.746 703.245,950.984 699.328,945.483 697.025,939.983 696.987,939.752 696.234,934.482 696.589,928.982 696.987,927.436 698.076,923.481 
  700.64,917.981 704.174,912.48 707.078,908.921 708.837,906.98 714.874,901.479 717.169,899.687 722.618,895.979 727.26,893.197 732.634,890.479 737.351,888.317 
  746.317,884.978 747.442,884.587 757.534,881.887 767.625,879.994 772.532,879.478 777.716,878.949 787.807,878.753 797.898,879.451 798.066,879.478 807.989,881.239 
  818.08,884.269 819.746,884.978 828.171,889.148 830.198,890.479 837.08,895.979 838.262,897.187 841.676,901.479 844.801,906.98 846.72,912.48 847.488,917.981 
  847.141,923.481 845.703,928.982 843.189,934.482 839.612,939.983 838.262,941.597 834.495,945.483 828.171,950.848 827.981,950.984 819.058,956.484 818.08,957.022 
  807.989,961.585 806.871,961.985 797.898,964.966 787.913,967.485 787.807,967.511 
  "/>
<polyline clip-path="url(#clip553)" style="stroke:#1a0b40; stroke-linecap:butt; stroke-linejoin:round; stroke-width:4; stroke-opacity:1; fill:none" points="
  1241.42,730.965 1241.91,731.582 1244.88,736.466 1248.74,741.966 1252,746.174 1252.79,747.467 1256.27,752.967 1259.91,758.468 1262.09,761.745 1263.29,763.968 
  1266.16,769.468 1268.99,774.969 1271.78,780.469 1272.18,781.346 1273.94,785.97 1275.89,791.47 1277.72,796.971 1279.44,802.471 1281.05,807.972 1282.27,812.46 
  1282.5,813.472 1283.6,818.973 1284.67,824.473 1285.78,829.974 1286.99,835.474 1288.38,840.974 1290.03,846.475 1292.04,851.975 1292.36,852.703 1294.1,857.476 
  1296.58,862.976 1299.62,868.477 1302.45,872.694 1303.21,873.977 1307.09,879.478 1311.79,884.978 1312.54,885.74 1316.87,890.479 1322.63,895.777 1322.84,895.979 
  1329.27,901.479 1332.73,904.047 1336.52,906.98 1342.82,911.263 1344.56,912.48 1352.91,917.703 1353.34,917.981 1362.86,923.481 1363,923.557 1373.09,928.963 
  1373.13,928.982 1383.18,934.002 1384.15,934.482 1393.27,938.732 1396.02,939.983 1403.36,943.18 1408.85,945.483 1413.45,947.354 1422.86,950.984 1423.55,951.243 
  1433.64,954.896 1438.38,956.484 1443.73,958.264 1453.82,961.328 1456.18,961.985 1463.91,964.144 1474,966.621 1478.01,967.485 1484.09,968.828 1494.18,970.728 
  1504.27,972.285 1509.94,972.985 1514.37,973.557 1524.46,974.549 1534.55,975.22 1544.64,975.58 1554.73,975.635 1564.82,975.383 1574.91,974.816 1585,973.918 
  1592.58,972.985 1595.09,972.688 1605.18,971.148 1615.28,969.205 1622.61,967.485 1625.37,966.839 1635.46,964.058 1641.85,961.985 1645.55,960.757 1655.64,956.902 
  1656.62,956.484 1665.73,952.449 1668.71,950.984 1675.82,947.301 1679.05,945.483 1685.91,941.397 1688.14,939.983 1696,934.681 1696.29,934.482 1703.77,928.982 
  1706.1,927.166 1710.71,923.481 1716.19,918.806 1717.15,917.981 1723.31,912.48 1726.28,909.671 1729.14,906.98 1734.69,901.479 1736.37,899.747 1740.08,895.979 
  1745.18,890.479 1746.46,889.048 1750.19,884.978 1754.95,879.478 1756.55,877.56 1759.63,873.977 1764.12,868.477 1766.64,865.251 1768.48,862.976 1772.78,857.476 
  1776.73,852.084 1776.82,851.975 1780.97,846.475 1784.87,840.974 1786.82,838.11 1788.72,835.474 1792.51,829.974 1796.08,824.473 1796.92,823.138 1799.7,818.973 
  1803.17,813.472 1806.41,807.972 1807.01,806.905 1809.7,802.471 1812.8,796.971 1815.66,791.47 1817.1,788.466 1818.4,785.97 1821,780.469 1823.3,774.969 
  1825.28,769.468 1826.92,763.968 1827.19,762.847 1828.33,758.468 1829.36,752.967 1829.96,747.467 1830.13,741.966 1829.86,736.466 1829.14,730.965 1828,725.465 
  1827.19,722.569 1826.52,719.964 1824.8,714.464 1822.78,708.963 1820.53,703.463 1818.12,697.963 1817.1,695.676 1815.78,692.462 1813.56,686.962 1811.41,681.461 
  1809.39,675.961 1807.55,670.46 1807.01,668.643 1806.02,664.96 1804.73,659.459 1803.58,653.959 1802.56,648.458 1801.6,642.958 1800.68,637.457 1799.74,631.957 
  1798.74,626.457 1797.65,620.956 1796.92,617.574 1796.5,615.456 1795.32,609.955 1794.01,604.455 1792.56,598.954 1790.96,593.454 1789.2,587.953 1787.26,582.453 
  1786.82,581.292 1785.33,576.952 1783.25,571.452 1780.97,565.952 1778.43,560.451 1776.73,557.087 1775.73,554.951 1772.92,549.45 1769.77,543.95 1766.64,539.048 
  1766.28,538.449 1762.71,532.949 1758.7,527.448 1756.55,524.733 1754.42,521.948 1749.84,516.447 1746.46,512.721 1744.88,510.947 1739.66,505.446 1736.37,502.215 
  1734.06,499.946 1728.15,494.446 1726.28,492.779 1721.94,488.945 1716.19,484.157 1715.32,483.445 1708.43,477.944 1706.1,476.139 1701.17,472.444 1696,468.689 
  1693.51,466.943 1685.91,461.772 1685.41,461.443 1676.84,455.942 1675.82,455.295 1667.69,450.442 1665.73,449.293 1657.78,444.941 1655.64,443.785 1646.91,439.441 
  1645.55,438.77 1635.46,434.233 1634.74,433.941 1625.37,430.131 1620.64,428.44 1615.28,426.51 1605.18,423.356 1603.66,422.94 1595.09,420.571 1585,418.237 
  1580.86,417.439 1574.91,416.265 1564.82,414.662 1554.73,413.442 1544.64,412.582 1534.55,412.067 1527.21,411.939 1524.46,411.888 1521.46,411.939 1514.37,412.054 
  1504.27,412.568 1494.18,413.453 1484.09,414.739 1474,416.468 1469.49,417.439 1463.91,418.648 1453.82,421.35 1448.88,422.94 1443.73,424.637 1434.04,428.44 
  1433.64,428.605 1423.55,433.28 1422.28,433.941 1413.45,438.75 1412.31,439.441 1403.5,444.941 1403.36,445.031 1395.46,450.442 1393.27,451.986 1387.92,455.942 
  1383.18,459.538 1380.74,461.443 1373.8,466.943 1373.09,467.508 1366.93,472.444 1363,475.684 1360.24,477.944 1353.72,483.445 1352.91,484.143 1347.24,488.945 
  1342.82,492.938 1341.1,494.446 1335.19,499.946 1332.73,502.438 1329.65,505.446 1324.57,510.947 1322.63,513.289 1319.91,516.447 1315.74,521.948 1312.54,526.873 
  1312.15,527.448 1308.79,532.949 1305.93,538.449 1303.49,543.95 1302.45,546.572 1301.23,549.45 1299.1,554.951 1297.17,560.451 1295.36,565.952 1293.62,571.452 
  1292.36,575.431 1291.83,576.952 1289.84,582.453 1287.8,587.953 1285.7,593.454 1283.54,598.954 1282.27,602.067 1281.19,604.455 1278.59,609.955 1275.98,615.456 
  1273.36,620.956 1272.18,623.4 1270.53,626.457 1267.55,631.957 1264.63,637.457 1262.09,642.36 1261.73,642.958 1258.48,648.458 1255.34,653.959 1252.32,659.459 
  1252,660.077 1248.94,664.96 1245.72,670.46 1242.76,675.961 1241.91,677.769 1239.69,681.461 1236.87,686.962 1234.62,692.462 1233.03,697.963 1232.2,703.463 
  1232.2,708.963 1233.1,714.464 1234.93,719.964 1237.7,725.465 1241.42,730.965 
  "/>
<polyline clip-path="url(#clip553)" style="stroke:#370961; stroke-linecap:butt; stroke-linejoin:round; stroke-width:4; stroke-opacity:1; fill:none" points="
  1290.9,714.464 1292.36,718.916 1292.67,719.964 1294.57,725.465 1296.79,730.965 1299.29,736.466 1302.05,741.966 1302.45,742.731 1304.7,747.467 1307.46,752.967 
  1310.37,758.468 1312.54,762.421 1313.32,763.968 1316.1,769.468 1318.98,774.969 1321.95,780.469 1322.63,781.739 1324.74,785.97 1327.51,791.47 1330.35,796.971 
  1332.73,801.523 1333.19,802.471 1335.81,807.972 1338.47,813.472 1341.17,818.973 1342.82,822.328 1343.81,824.473 1346.34,829.974 1348.95,835.474 1351.68,840.974 
  1352.91,843.38 1354.43,846.475 1357.27,851.975 1360.4,857.476 1363,861.643 1363.81,862.976 1367.43,868.477 1371.56,873.977 1373.09,875.82 1376.08,879.478 
  1381.17,884.978 1383.18,886.934 1386.82,890.479 1393.19,895.979 1393.27,896.041 1400.19,901.479 1403.36,903.731 1408.03,906.98 1413.45,910.427 1416.79,912.48 
  1423.55,916.335 1426.56,917.981 1433.64,921.59 1437.57,923.481 1443.73,926.282 1450.13,928.982 1453.82,930.466 1463.91,934.176 1464.83,934.482 1474,937.451 
  1482.98,939.983 1484.09,940.288 1494.18,942.73 1504.27,944.754 1508.76,945.483 1514.37,946.393 1524.46,947.646 1534.55,948.504 1544.64,948.97 1554.73,949.041 
  1564.82,948.708 1574.91,947.955 1585,946.757 1592.73,945.483 1595.09,945.091 1605.18,942.943 1615.28,940.235 1616.07,939.983 1625.37,936.965 1631.84,934.482 
  1635.46,933.047 1644.4,928.982 1645.55,928.442 1654.97,923.481 1655.64,923.115 1664.22,917.981 1665.73,917.038 1672.55,912.48 1675.82,910.197 1680.19,906.98 
  1685.91,902.585 1687.3,901.479 1693.98,895.979 1696,894.255 1700.33,890.479 1706.1,885.196 1706.33,884.978 1712.16,879.478 1716.19,875.485 1717.7,873.977 
  1723.08,868.477 1726.28,865.057 1728.23,862.976 1733.23,857.476 1736.37,853.865 1738.03,851.975 1742.7,846.475 1746.46,841.785 1747.12,840.974 1751.5,835.474 
  1755.58,829.974 1756.55,828.619 1759.61,824.473 1763.42,818.973 1766.64,813.99 1766.99,813.472 1770.55,807.972 1773.83,802.471 1776.73,797.193 1776.86,796.971 
  1779.87,791.47 1782.59,785.97 1785.03,780.469 1786.82,775.884 1787.21,774.969 1789.21,769.468 1790.87,763.968 1792.16,758.468 1793.06,752.967 1793.57,747.467 
  1793.67,741.966 1793.36,736.466 1792.65,730.965 1791.54,725.465 1790.07,719.964 1788.28,714.464 1786.82,710.567 1786.27,708.963 1784.22,703.463 1782.05,697.963 
  1779.86,692.462 1777.7,686.962 1776.73,684.347 1775.75,681.461 1774.05,675.961 1772.54,670.46 1771.22,664.96 1770.1,659.459 1769.13,653.959 1768.3,648.458 
  1767.55,642.958 1766.83,637.457 1766.64,636.065 1766.14,631.957 1765.42,626.457 1764.6,620.956 1763.66,615.456 1762.58,609.955 1761.33,604.455 1759.9,598.954 
  1758.26,593.454 1756.55,588.361 1756.42,587.953 1754.52,582.453 1752.38,576.952 1749.97,571.452 1747.27,565.952 1746.46,564.434 1744.42,560.451 1741.29,554.951 
  1737.77,549.45 1736.37,547.437 1734,543.95 1729.88,538.449 1726.28,534.116 1725.32,532.949 1720.46,527.448 1716.19,523.068 1715.09,521.948 1709.35,516.447 
  1706.1,513.546 1703.12,510.947 1696.36,505.446 1696,505.167 1689.15,499.946 1685.91,497.603 1681.35,494.446 1675.82,490.765 1672.93,488.945 1665.73,484.528 
  1663.84,483.445 1655.64,478.814 1653.97,477.944 1645.55,473.574 1643.15,472.444 1635.46,468.789 1631.13,466.943 1625.37,464.457 1617.46,461.443 1615.28,460.593 
  1605.18,457.132 1601.15,455.942 1595.09,454.104 1585,451.528 1579.82,450.442 1574.91,449.371 1564.82,447.623 1554.73,446.331 1544.64,445.477 1534.55,445.05 
  1524.46,445.056 1514.37,445.506 1504.27,446.425 1494.18,447.853 1484.09,449.841 1481.69,450.442 1474,452.34 1463.91,455.475 1462.63,455.942 1453.82,459.173 
  1448.56,461.443 1443.73,463.534 1436.83,466.943 1433.64,468.538 1426.59,472.444 1423.55,474.161 1417.36,477.944 1413.45,480.383 1408.85,483.445 1403.36,487.203 
  1400.93,488.945 1393.53,494.446 1393.27,494.645 1386.52,499.946 1383.18,502.741 1379.99,505.446 1373.95,510.947 1373.09,511.779 1368.27,516.447 1363.19,521.948 
  1363,522.168 1358.41,527.448 1354.2,532.949 1352.91,534.822 1350.34,538.449 1346.87,543.95 1343.82,549.45 1342.82,551.437 1340.97,554.951 1338.32,560.451 
  1335.9,565.952 1333.65,571.452 1332.73,573.769 1331.37,576.952 1329.07,582.453 1326.79,587.953 1324.5,593.454 1322.63,597.898 1322.16,598.954 1319.59,604.455 
  1317.01,609.955 1314.45,615.456 1312.54,619.566 1311.85,620.956 1309.1,626.457 1306.46,631.957 1303.95,637.457 1302.45,640.919 1301.48,642.958 1299.03,648.458 
  1296.78,653.959 1294.75,659.459 1292.98,664.96 1292.36,667.186 1291.34,670.46 1289.94,675.961 1288.88,681.461 1288.19,686.962 1287.89,692.462 1288,697.963 
  1288.54,703.463 1289.51,708.963 1290.9,714.464 
  "/>
<polyline clip-path="url(#clip553)" style="stroke:#530e6d; stroke-linecap:butt; stroke-linejoin:round; stroke-width:4; stroke-opacity:1; fill:none" points="
  1321.43,719.964 1322.63,723.279 1323.36,725.465 1325.43,730.965 1327.75,736.466 1330.29,741.966 1332.73,746.828 1333.02,747.467 1335.7,752.967 1338.55,758.468 
  1341.57,763.968 1342.82,766.161 1344.59,769.468 1347.65,774.969 1350.86,780.469 1352.91,783.882 1354.11,785.97 1357.33,791.47 1360.68,796.971 1363,800.693 
  1364.07,802.471 1367.4,807.972 1370.84,813.472 1373.09,817.034 1374.29,818.973 1377.71,824.473 1381.25,829.974 1383.18,832.926 1384.83,835.474 1388.48,840.974 
  1392.35,846.475 1393.27,847.746 1396.34,851.975 1400.61,857.476 1403.36,860.795 1405.2,862.976 1410.14,868.477 1413.45,871.866 1415.57,873.977 1421.52,879.478 
  1423.55,881.211 1428.11,884.978 1433.64,889.162 1435.47,890.479 1443.71,895.979 1443.73,895.989 1453.08,901.479 1453.82,901.884 1463.9,906.98 1463.91,906.985 
  1474,911.386 1476.85,912.48 1484.09,915.152 1493.05,917.981 1494.18,918.328 1504.27,920.955 1514.37,923.046 1517.12,923.481 1524.46,924.628 1534.55,925.704 
  1544.64,926.275 1554.73,926.34 1564.82,925.888 1574.91,924.902 1584.19,923.481 1585,923.356 1595.09,921.247 1605.18,918.51 1606.79,917.981 1615.28,915.147 
  1621.96,912.48 1625.37,911.1 1634.15,906.98 1635.46,906.353 1644.5,901.479 1645.55,900.901 1653.65,895.979 1655.64,894.744 1661.97,890.479 1665.73,887.882 
  1669.67,884.978 1675.82,880.309 1676.86,879.478 1683.63,873.977 1685.91,872.069 1690.05,868.477 1696,863.101 1696.14,862.976 1701.98,857.476 1706.1,853.413 
  1707.53,851.975 1712.85,846.475 1716.19,842.846 1717.9,840.974 1722.74,835.474 1726.28,831.212 1727.31,829.974 1731.71,824.473 1735.8,818.973 1736.37,818.174 
  1739.77,813.472 1743.46,807.972 1746.46,803.13 1746.88,802.471 1750.19,796.971 1753.21,791.47 1755.93,785.97 1756.55,784.59 1758.49,780.469 1760.77,774.969 
  1762.72,769.468 1764.32,763.968 1765.57,758.468 1766.44,752.967 1766.64,750.704 1766.95,747.467 1767.06,741.966 1766.74,736.466 1766.64,735.739 1766.06,730.965 
  1765.02,725.465 1763.65,719.964 1761.99,714.464 1760.11,708.963 1758.06,703.463 1756.55,699.582 1755.97,697.963 1753.99,692.462 1752.07,686.962 1750.27,681.461 
  1748.64,675.961 1747.2,670.46 1746.46,667.121 1746.02,664.96 1745.07,659.459 1744.28,653.959 1743.61,648.458 1743.02,642.958 1742.45,637.457 1741.86,631.957 
  1741.21,626.457 1740.44,620.956 1739.54,615.456 1738.46,609.955 1737.18,604.455 1736.37,601.457 1735.73,598.954 1734.11,593.454 1732.24,587.953 1730.1,582.453 
  1727.65,576.952 1726.28,574.182 1724.97,571.452 1722.02,565.952 1718.7,560.451 1716.19,556.724 1715.01,554.951 1711,549.45 1706.49,543.95 1706.1,543.495 
  1701.63,538.449 1696.2,532.949 1696,532.761 1690.32,527.448 1685.91,523.678 1683.82,521.948 1676.69,516.447 1675.82,515.806 1668.88,510.947 1665.73,508.849 
  1660.27,505.446 1655.64,502.66 1650.76,499.946 1645.55,497.118 1640.15,494.446 1635.46,492.148 1628.17,488.945 1625.37,487.71 1615.28,483.769 1614.33,483.445 
  1605.18,480.245 1597.43,477.944 1595.09,477.232 1585,474.625 1574.91,472.53 1574.38,472.444 1564.82,470.813 1554.73,469.58 1544.64,468.823 1534.55,468.541 
  1524.46,468.741 1514.37,469.445 1504.27,470.682 1494.46,472.444 1494.18,472.493 1484.09,474.801 1474,477.77 1473.5,477.944 1463.91,481.287 1458.68,483.445 
  1453.82,485.467 1446.52,488.945 1443.73,490.301 1436.07,494.446 1433.64,495.799 1426.8,499.946 1423.55,502.001 1418.44,505.446 1413.45,508.997 1410.85,510.947 
  1403.95,516.447 1403.36,516.94 1397.61,521.948 1393.27,526.109 1391.9,527.448 1386.69,532.949 1383.18,537.076 1382.02,538.449 1377.75,543.95 1373.97,549.45 
  1373.09,550.844 1370.46,554.951 1367.28,560.451 1364.39,565.952 1363,568.772 1361.64,571.452 1358.96,576.952 1356.4,582.453 1353.92,587.953 1352.91,590.175 
  1351.35,593.454 1348.72,598.954 1346.1,604.455 1343.49,609.955 1342.82,611.359 1340.74,615.456 1337.99,620.956 1335.33,626.457 1332.77,631.957 1332.73,632.063 
  1330.15,637.457 1327.7,642.958 1325.46,648.458 1323.45,653.959 1322.63,656.464 1321.58,659.459 1319.92,664.96 1318.57,670.46 1317.52,675.961 1316.8,681.461 
  1316.41,686.962 1316.37,692.462 1316.69,697.963 1317.35,703.463 1318.37,708.963 1319.74,714.464 1321.43,719.964 
  "/>
<polyline clip-path="url(#clip553)" style="stroke:#6e186e; stroke-linecap:butt; stroke-linejoin:round; stroke-width:4; stroke-opacity:1; fill:none" points="
  1342.71,719.964 1342.82,720.266 1344.54,725.465 1346.62,730.965 1348.95,736.466 1351.51,741.966 1352.91,744.755 1354.19,747.467 1356.98,752.967 1359.96,758.468 
  1363,763.711 1363.14,763.968 1366.31,769.468 1369.67,774.969 1373.09,780.258 1373.22,780.469 1376.76,785.97 1380.47,791.47 1383.18,795.341 1384.31,796.971 
  1388.17,802.471 1392.19,807.972 1393.27,809.452 1396.23,813.472 1400.37,818.973 1403.36,822.858 1404.62,824.473 1408.94,829.974 1413.45,835.468 1413.46,835.474 
  1418.09,840.974 1422.99,846.475 1423.55,847.083 1428.15,851.975 1433.64,857.41 1433.71,857.476 1439.7,862.976 1443.73,866.426 1446.27,868.477 1453.53,873.977 
  1453.82,874.183 1461.74,879.478 1463.91,880.849 1471.13,884.978 1474,886.537 1482.19,890.479 1484.09,891.357 1494.18,895.392 1495.93,895.979 1504.27,898.708 
  1514.37,901.334 1515.09,901.479 1524.46,903.324 1534.55,904.681 1544.64,905.42 1554.73,905.548 1564.82,905.063 1574.91,903.954 1585,902.201 1588.04,901.479 
  1595.09,899.808 1605.18,896.736 1607.23,895.979 1615.28,892.997 1621.02,890.479 1625.37,888.557 1632.42,884.978 1635.46,883.421 1642.31,879.478 1645.55,877.59 
  1651.18,873.977 1655.64,871.062 1659.3,868.477 1665.73,863.813 1666.82,862.976 1673.8,857.476 1675.82,855.843 1680.37,851.975 1685.91,847.06 1686.55,846.475 
  1692.37,840.974 1696,837.364 1697.86,835.474 1703.03,829.974 1706.1,826.524 1707.89,824.473 1712.47,818.973 1716.19,814.183 1716.74,813.472 1720.78,807.972 
  1724.5,802.471 1726.28,799.641 1727.98,796.971 1731.21,791.47 1734.12,785.97 1736.37,781.2 1736.72,780.469 1739.11,774.969 1741.16,769.468 1742.84,763.968 
  1744.15,758.468 1745.08,752.967 1745.61,747.467 1745.75,741.966 1745.49,736.466 1744.86,730.965 1743.87,725.465 1742.56,719.964 1740.98,714.464 1739.18,708.963 
  1737.23,703.463 1736.37,701.121 1735.28,697.963 1733.4,692.462 1731.58,686.962 1729.89,681.461 1728.36,675.961 1727.03,670.46 1726.28,666.806 1725.92,664.96 
  1725.05,659.459 1724.32,653.959 1723.72,648.458 1723.18,642.958 1722.67,637.457 1722.13,631.957 1721.52,626.457 1720.79,620.956 1719.9,615.456 1718.81,609.955 
  1717.5,604.455 1716.19,599.8 1715.96,598.954 1714.22,593.454 1712.19,587.953 1709.84,582.453 1707.14,576.952 1706.1,575.041 1704.15,571.452 1700.8,565.952 
  1697,560.451 1696,559.14 1692.81,554.951 1688.12,549.45 1685.91,547.09 1682.9,543.95 1677.11,538.449 1675.82,537.31 1670.67,532.949 1665.73,529.089 
  1663.5,527.448 1655.64,522.027 1655.52,521.948 1646.54,516.447 1645.55,515.867 1636.37,510.947 1635.46,510.47 1625.37,505.731 1624.68,505.446 1615.28,501.558 
  1610.77,499.946 1605.18,497.94 1595.09,494.862 1593.47,494.446 1585,492.234 1574.91,490.128 1567.46,488.945 1564.82,488.51 1554.73,487.347 1544.64,486.694 
  1534.55,486.552 1524.46,486.933 1514.37,487.861 1507.06,488.945 1504.27,489.35 1494.18,491.386 1484.09,494.073 1482.94,494.446 1474,497.351 1467.37,499.946 
  1463.91,501.324 1454.99,505.446 1453.82,506.003 1444.6,510.947 1443.73,511.436 1435.59,516.447 1433.64,517.723 1427.63,521.948 1423.55,525.03 1420.52,527.448 
  1414.19,532.949 1413.45,533.635 1408.49,538.449 1403.42,543.95 1403.36,544.02 1398.81,549.45 1394.7,554.951 1393.27,557.038 1390.94,560.451 1387.49,565.952 
  1384.34,571.452 1383.18,573.572 1381.31,576.952 1378.4,582.453 1375.61,587.953 1373.09,593.031 1372.87,593.454 1370.04,598.954 1367.24,604.455 1364.46,609.955 
  1363,612.861 1361.64,615.456 1358.79,620.956 1356.03,626.457 1353.39,631.957 1352.91,632.995 1350.75,637.457 1348.28,642.958 1346.02,648.458 1344.01,653.959 
  1342.82,657.691 1342.22,659.459 1340.62,664.96 1339.34,670.46 1338.38,675.961 1337.75,681.461 1337.45,686.962 1337.49,692.462 1337.88,697.963 1338.59,703.463 
  1339.65,708.963 1341.02,714.464 1342.71,719.964 
  "/>
<polyline clip-path="url(#clip553)" style="stroke:#85206a; stroke-linecap:butt; stroke-linejoin:round; stroke-width:4; stroke-opacity:1; fill:none" points="
  1360.16,725.465 1362.34,730.965 1363,732.466 1364.67,736.466 1367.19,741.966 1369.95,747.467 1372.94,752.967 1373.09,753.224 1375.99,758.468 1379.26,763.968 
  1382.76,769.468 1383.18,770.102 1386.34,774.969 1390.12,780.469 1393.27,784.822 1394.1,785.97 1398.17,791.47 1402.45,796.971 1403.36,798.133 1406.82,802.471 
  1411.35,807.972 1413.45,810.478 1416.02,813.472 1420.82,818.973 1423.55,822.032 1425.79,824.473 1430.93,829.974 1433.64,832.795 1436.32,835.474 1441.98,840.974 
  1443.73,842.636 1448.02,846.475 1453.82,851.436 1454.5,851.975 1461.62,857.476 1463.91,859.172 1469.55,862.976 1474,865.845 1478.57,868.477 1484.09,871.528 
  1489.19,873.977 1494.18,876.293 1502.36,879.478 1504.27,880.205 1514.37,883.33 1521.37,884.978 1524.46,885.693 1534.55,887.343 1544.64,888.285 1554.73,888.536 
  1564.82,888.104 1574.91,886.985 1585,885.168 1585.77,884.978 1595.09,882.682 1605.16,879.478 1605.18,879.469 1615.28,875.582 1618.8,873.977 1625.37,870.975 
  1630.13,868.477 1635.46,865.651 1639.96,862.976 1645.55,859.599 1648.74,857.476 1655.64,852.788 1656.75,851.975 1664.06,846.475 1665.73,845.18 1670.83,840.974 
  1675.82,836.667 1677.14,835.474 1682.99,829.974 1685.91,827.081 1688.45,824.473 1693.53,818.973 1696,816.131 1698.26,813.472 1702.66,807.972 1706.1,803.306 
  1706.71,802.471 1710.48,796.971 1713.91,791.47 1716.19,787.433 1717.02,785.97 1719.86,780.469 1722.35,774.969 1724.47,769.468 1726.23,763.968 1726.28,763.781 
  1727.67,758.468 1728.71,752.967 1729.33,747.467 1729.54,741.966 1729.34,736.466 1728.74,730.965 1727.78,725.465 1726.5,719.964 1726.28,719.194 1725.01,714.464 
  1723.33,708.963 1721.52,703.463 1719.64,697.963 1717.77,692.462 1716.19,687.642 1715.98,686.962 1714.39,681.461 1712.97,675.961 1711.73,670.46 1710.68,664.96 
  1709.8,659.459 1709.09,653.959 1708.48,648.458 1707.95,642.958 1707.44,637.457 1706.9,631.957 1706.27,626.457 1706.1,625.185 1705.54,620.956 1704.64,615.456 
  1703.54,609.955 1702.19,604.455 1700.58,598.954 1698.66,593.454 1696.41,587.953 1696,587.093 1693.86,582.453 1690.94,576.952 1687.59,571.452 1685.91,568.984 
  1683.82,565.952 1679.58,560.451 1675.82,556.104 1674.79,554.951 1669.43,549.45 1665.73,546.012 1663.4,543.95 1656.62,538.449 1655.64,537.704 1648.94,532.949 
  1645.55,530.7 1640.21,527.448 1635.46,524.702 1630.17,521.948 1625.37,519.534 1618.41,516.447 1615.28,515.084 1605.18,511.28 1604.15,510.947 1595.09,508.033 
  1585.25,505.446 1585,505.381 1574.91,503.215 1564.82,501.603 1554.73,500.523 1544.64,499.968 1535.51,499.946 1534.55,499.944 1534.5,499.946 1524.46,500.463 
  1514.37,501.552 1504.27,503.246 1494.79,505.446 1494.18,505.588 1484.09,508.549 1477.47,510.947 1474,512.234 1464.41,516.447 1463.91,516.677 1453.82,521.948 
  1453.82,521.95 1444.86,527.448 1443.73,528.189 1437.07,532.949 1433.64,535.611 1430.21,538.449 1424.16,543.95 1423.55,544.551 1418.77,549.45 1413.97,554.951 
  1413.45,555.592 1409.63,560.451 1405.7,565.952 1403.36,569.5 1402.09,571.452 1398.7,576.952 1395.51,582.453 1393.27,586.492 1392.45,587.953 1389.42,593.454 
  1386.45,598.954 1383.54,604.455 1383.18,605.12 1380.55,609.955 1377.59,615.456 1374.71,620.956 1373.09,624.107 1371.85,626.457 1369.03,631.957 1366.38,637.457 
  1363.92,642.958 1363,645.183 1361.59,648.458 1359.48,653.959 1357.64,659.459 1356.1,664.96 1354.86,670.46 1353.95,675.961 1353.35,681.461 1353.09,686.962 
  1353.15,692.462 1353.55,697.963 1354.26,703.463 1355.29,708.963 1356.62,714.464 1358.25,719.964 1360.16,725.465 
  "/>
<polyline clip-path="url(#clip553)" style="stroke:#a02a62; stroke-linecap:butt; stroke-linejoin:round; stroke-width:4; stroke-opacity:1; fill:none" points="
  1379.15,730.965 1381.59,736.466 1383.18,739.724 1384.25,741.966 1387.08,747.467 1390.18,752.967 1393.27,758.055 1393.52,758.468 1397.01,763.968 1400.76,769.468 
  1403.36,773.065 1404.75,774.969 1408.93,780.469 1413.37,785.97 1413.45,786.069 1418,791.47 1422.87,796.971 1423.55,797.727 1427.94,802.471 1433.24,807.972 
  1433.64,808.385 1438.77,813.472 1443.73,818.234 1444.54,818.973 1450.62,824.473 1453.82,827.304 1457.05,829.974 1463.88,835.474 1463.91,835.497 1471.38,840.974 
  1474,842.84 1479.68,846.475 1484.09,849.229 1489.12,851.975 1494.18,854.678 1500.36,857.476 1504.27,859.212 1514.37,862.858 1514.78,862.976 1524.46,865.683 
  1534.55,867.678 1541.2,868.477 1544.64,868.89 1554.73,869.342 1564.82,869.034 1570.12,868.477 1574.91,867.983 1585,866.201 1595.09,863.663 1597.21,862.976 
  1605.18,860.399 1612.52,857.476 1615.28,856.375 1624.56,851.975 1625.37,851.59 1634.66,846.475 1635.46,846.025 1643.47,840.974 1645.55,839.631 1651.38,835.474 
  1655.64,832.317 1658.56,829.974 1665.12,824.473 1665.73,823.942 1671.08,818.973 1675.82,814.27 1676.59,813.472 1681.61,807.972 1685.91,802.866 1686.24,802.471 
  1690.46,796.971 1694.29,791.47 1696,788.781 1697.77,785.97 1700.88,780.469 1703.61,774.969 1705.95,769.468 1706.1,769.062 1707.94,763.968 1709.52,758.468 
  1710.68,752.967 1711.42,747.467 1711.74,741.966 1711.64,736.466 1711.15,730.965 1710.3,725.465 1709.13,719.964 1707.69,714.464 1706.1,709.131 1706.05,708.963 
  1704.34,703.463 1702.57,697.963 1700.8,692.462 1699.1,686.962 1697.52,681.461 1696.08,675.961 1696,675.609 1694.88,670.46 1693.86,664.96 1693.01,659.459 
  1692.31,653.959 1691.71,648.458 1691.18,642.958 1690.66,637.457 1690.1,631.957 1689.44,626.457 1688.64,620.956 1687.65,615.456 1686.43,609.955 1685.91,608.057 
  1684.95,604.455 1683.17,598.954 1681.06,593.454 1678.56,587.953 1675.82,582.762 1675.66,582.453 1672.32,576.952 1668.49,571.452 1665.73,567.929 1664.12,565.952 
  1659.13,560.451 1655.64,556.99 1653.45,554.951 1646.99,549.45 1645.55,548.318 1639.53,543.95 1635.46,541.211 1630.92,538.449 1625.37,535.268 1620.8,532.949 
  1615.28,530.267 1608.57,527.448 1605.18,526.068 1595.09,522.582 1592.86,521.948 1585,519.733 1574.91,517.508 1568.35,516.447 1564.82,515.869 1554.73,514.802 
  1544.64,514.321 1534.55,514.432 1524.46,515.151 1514.79,516.447 1514.37,516.505 1504.27,518.497 1494.18,521.205 1491.96,521.948 1484.09,524.662 1477.44,527.448 
  1474,528.957 1466.21,532.949 1463.91,534.198 1457,538.449 1453.82,540.561 1449.19,543.95 1443.73,548.313 1442.41,549.45 1436.51,554.951 1433.64,557.894 
  1431.27,560.451 1426.59,565.952 1423.55,569.856 1422.34,571.452 1418.44,576.952 1414.8,582.453 1413.45,584.577 1411.34,587.953 1408.01,593.454 1404.78,598.954 
  1403.36,601.405 1401.59,604.455 1398.43,609.955 1395.33,615.456 1393.27,619.168 1392.27,620.956 1389.25,626.457 1386.35,631.957 1383.61,637.457 1383.18,638.372 
  1380.98,642.958 1378.57,648.458 1376.42,653.959 1374.55,659.459 1373.09,664.571 1372.98,664.96 1371.66,670.46 1370.69,675.961 1370.06,681.461 1369.78,686.962 
  1369.84,692.462 1370.25,697.963 1371,703.463 1372.07,708.963 1373.09,712.976 1373.45,714.464 1375.07,719.964 1376.97,725.465 1379.15,730.965 
  "/>
<polyline clip-path="url(#clip553)" style="stroke:#d14643; stroke-linecap:butt; stroke-linejoin:round; stroke-width:4; stroke-opacity:1; fill:none" points="
  1412.21,736.466 1413.45,738.798 1415.15,741.966 1418.38,747.467 1421.93,752.967 1423.55,755.293 1425.8,758.468 1430.02,763.968 1433.64,768.352 1434.59,769.468 
  1439.56,774.969 1443.73,779.312 1444.9,780.469 1450.69,785.97 1453.82,788.825 1456.93,791.47 1463.61,796.971 1463.91,797.216 1470.95,802.471 1474,804.711 
  1478.93,807.972 1484.09,811.353 1487.75,813.472 1494.18,817.18 1497.8,818.973 1504.27,822.192 1509.8,824.473 1514.37,826.367 1524.46,829.683 1525.64,829.974 
  1534.55,832.174 1544.64,833.795 1554.73,834.563 1564.82,834.489 1574.91,833.572 1585,831.802 1592.01,829.974 1595.09,829.167 1605.18,825.651 1607.89,824.473 
  1615.28,821.199 1619.46,818.973 1625.37,815.729 1628.91,813.472 1635.46,809.106 1636.97,807.972 1643.9,802.471 1645.55,801.083 1649.98,796.971 1655.41,791.47 
  1655.64,791.217 1660.12,785.97 1664.31,780.469 1665.73,778.373 1667.94,774.969 1671.05,769.468 1673.66,763.968 1675.77,758.468 1675.82,758.305 1677.4,752.967 
  1678.53,747.467 1679.2,741.966 1679.41,736.466 1679.19,730.965 1678.58,725.465 1677.63,719.964 1676.39,714.464 1675.82,712.341 1674.94,708.963 1673.36,703.463 
  1671.69,697.963 1670.01,692.462 1668.37,686.962 1666.83,681.461 1665.73,677.215 1665.41,675.961 1664.16,670.46 1663.06,664.96 1662.12,659.459 1661.3,653.959 
  1660.58,648.458 1659.91,642.958 1659.23,637.457 1658.49,631.957 1657.63,626.457 1656.58,620.956 1655.64,616.887 1655.3,615.456 1653.7,609.955 1651.75,604.455 
  1649.39,598.954 1646.58,593.454 1645.55,591.723 1643.18,587.953 1639.17,582.453 1635.46,578.024 1634.48,576.952 1628.86,571.452 1625.37,568.4 1622.23,565.952 
  1615.28,561.034 1614.33,560.451 1605.18,555.265 1604.53,554.951 1595.09,550.724 1591.58,549.45 1585,547.177 1574.91,544.501 1571.97,543.95 1564.82,542.64 
  1554.73,541.545 1544.64,541.197 1534.55,541.603 1524.46,542.786 1518.51,543.95 1514.37,544.794 1504.27,547.702 1499.61,549.45 1494.18,551.611 1487.37,554.951 
  1484.09,556.673 1477.99,560.451 1474,563.125 1470.29,565.952 1463.91,571.252 1463.69,571.452 1458.06,576.952 1453.82,581.447 1452.94,582.453 1448.34,587.953 
  1444.01,593.454 1443.73,593.828 1439.99,598.954 1436.13,604.455 1433.64,608.079 1432.39,609.955 1428.79,615.456 1425.28,620.956 1423.55,623.729 1421.88,626.457 
  1418.62,631.957 1415.53,637.457 1413.45,641.37 1412.62,642.958 1409.95,648.458 1407.54,653.959 1405.43,659.459 1403.64,664.96 1403.36,666.015 1402.18,670.46 
  1401.08,675.961 1400.34,681.461 1399.97,686.962 1399.97,692.462 1400.33,697.963 1401.05,703.463 1402.12,708.963 1403.36,713.834 1403.52,714.464 1405.23,719.964 
  1407.25,725.465 1409.58,730.965 1412.21,736.466 
  "/>
<polyline clip-path="url(#clip553)" style="stroke:#f88a0b; stroke-linecap:butt; stroke-linejoin:round; stroke-width:4; stroke-opacity:1; fill:none" points="
  1452.87,736.466 1453.82,737.928 1456.61,741.966 1460.85,747.467 1463.91,751.066 1465.66,752.967 1471.17,758.468 1474,761.08 1477.46,763.968 1484.09,769.136 
  1484.58,769.468 1492.99,774.969 1494.18,775.715 1503.03,780.469 1504.27,781.119 1514.37,785.487 1515.78,785.97 1524.46,788.901 1534.55,791.386 1535.1,791.47 
  1544.64,792.953 1554.73,793.581 1564.82,793.241 1574.91,791.884 1576.66,791.47 1585,789.418 1594.48,785.97 1595.09,785.73 1605.18,780.561 1605.33,780.469 
  1613.27,774.969 1615.28,773.399 1619.55,769.468 1624.69,763.968 1625.37,763.119 1628.65,758.468 1631.79,752.967 1634.18,747.467 1635.46,743.36 1635.86,741.966 
  1636.85,736.466 1637.28,730.965 1637.21,725.465 1636.69,719.964 1635.8,714.464 1635.46,712.906 1634.58,708.963 1633.12,703.463 1631.51,697.963 1629.81,692.462 
  1628.09,686.962 1626.4,681.461 1625.37,677.962 1624.75,675.961 1623.14,670.46 1621.63,664.96 1620.22,659.459 1618.88,653.959 1617.59,648.458 1616.29,642.958 
  1615.28,638.835 1614.9,637.457 1613.28,631.957 1611.42,626.457 1609.23,620.956 1606.63,615.456 1605.18,612.86 1603.31,609.955 1599.1,604.455 1595.09,600.022 
  1593.91,598.954 1586.9,593.454 1585,592.151 1576.98,587.953 1574.91,586.985 1564.82,583.735 1557.56,582.453 1554.73,581.992 1544.64,581.644 1535.93,582.453 
  1534.55,582.589 1524.46,584.928 1516.17,587.953 1514.37,588.651 1505.2,593.454 1504.27,593.967 1497.04,598.954 1494.18,601.015 1490.15,604.455 1484.09,609.816 
  1483.95,609.955 1478.64,615.456 1474,620.371 1473.5,620.956 1468.92,626.457 1464.46,631.957 1463.91,632.652 1460.44,637.457 1456.64,642.958 1453.82,647.287 
  1453.11,648.458 1450.03,653.959 1447.25,659.459 1444.84,664.96 1443.73,667.956 1442.86,670.46 1441.34,675.961 1440.23,681.461 1439.56,686.962 1439.33,692.462 
  1439.53,697.963 1440.15,703.463 1441.2,708.963 1442.66,714.464 1443.73,717.61 1444.56,719.964 1446.92,725.465 1449.68,730.965 1452.87,736.466 
  "/>
<polyline clip-path="url(#clip553)" style="stroke:#f8cb34; stroke-linecap:butt; stroke-linejoin:round; stroke-width:4; stroke-opacity:1; fill:none" points="
  1483.45,730.965 1484.09,731.826 1488.01,736.466 1493.29,741.966 1494.18,742.797 1500.09,747.467 1504.27,750.474 1508.53,752.967 1514.37,756.119 1520.04,758.468 
  1524.46,760.183 1534.55,762.88 1542.15,763.968 1544.64,764.31 1554.73,764.43 1558.62,763.968 1564.82,763.149 1574.91,760.217 1578.74,758.468 1585,755.082 
  1587.87,752.967 1593.9,747.467 1595.09,746.052 1597.89,741.966 1600.59,736.466 1602.31,730.965 1603.17,725.465 1603.29,719.964 1602.8,714.464 1601.81,708.963 
  1600.44,703.463 1598.77,697.963 1596.9,692.462 1595.09,687.528 1594.86,686.962 1592.51,681.461 1590.11,675.961 1587.69,670.46 1585.26,664.96 1585,664.38 
  1582.41,659.459 1579.42,653.959 1576.28,648.458 1574.91,646.199 1572.34,642.958 1567.53,637.457 1564.82,634.705 1560.67,631.957 1554.73,628.531 1546.7,626.457 
  1544.64,625.986 1534.55,626.206 1533.56,626.457 1524.46,628.758 1517.45,631.957 1514.37,633.362 1508.12,637.457 1504.27,639.988 1500.8,642.958 1494.5,648.458 
  1494.18,648.742 1489.53,653.959 1484.93,659.459 1484.09,660.552 1481.26,664.96 1478.17,670.46 1475.6,675.961 1474,680.342 1473.65,681.461 1472.42,686.962 
  1471.75,692.462 1471.64,697.963 1472.09,703.463 1473.09,708.963 1474,712.184 1474.72,714.464 1477.05,719.964 1479.96,725.465 1483.45,730.965 
  "/>
<path clip-path="url(#clip550)" d="
M2147.97 1423.18 L2352.76 1423.18 L2352.76 269.877 L2147.97 269.877  Z
  " fill="#ffffff" fill-rule="evenodd" fill-opacity="1"/>
<defs>
  <clipPath id="clip554">
    <rect x="2147" y="269" width="206" height="1154"/>
  </clipPath>
</defs>
<polyline clip-path="url(#clip550)" style="stroke:#000000; stroke-linecap:butt; stroke-linejoin:round; stroke-width:4; stroke-opacity:1; fill:none" points="
  2147.97,1423.18 2352.76,1423.18 
  "/>
<polyline clip-path="url(#clip550)" style="stroke:#000000; stroke-linecap:butt; stroke-linejoin:round; stroke-width:4; stroke-opacity:1; fill:none" points="
  2147.97,1423.18 2147.97,269.877 
  "/>
<polyline clip-path="url(#clip554)" style="stroke:#009af9; stroke-linecap:butt; stroke-linejoin:round; stroke-width:4; stroke-opacity:1; fill:none" points="
  2147.97,1572.54 2147.97,1565.49 2147.97,1558.44 2147.97,1551.39 2147.97,1544.34 2147.97,1537.29 2147.98,1530.25 2147.98,1523.2 2147.99,1516.15 2148.01,1509.1 
  2148.03,1502.05 2148.06,1495 2148.09,1487.96 2148.14,1480.91 2148.2,1473.86 2148.27,1466.81 2148.36,1459.76 2148.46,1452.71 2148.56,1445.67 2148.67,1438.62 
  2148.79,1431.57 2148.9,1424.52 2149.02,1417.47 2149.12,1410.42 2149.22,1403.38 2149.31,1396.33 2149.41,1389.28 2149.51,1382.23 2149.62,1375.18 2149.76,1368.13 
  2149.93,1361.09 2150.16,1354.04 2150.46,1346.99 2150.84,1339.94 2151.34,1332.89 2151.95,1325.84 2152.71,1318.8 2153.61,1311.75 2154.67,1304.7 2155.89,1297.65 
  2157.26,1290.6 2158.77,1283.55 2160.4,1276.51 2162.14,1269.46 2163.96,1262.41 2165.83,1255.36 2167.74,1248.31 2169.65,1241.26 2171.54,1234.22 2173.4,1227.17 
  2175.22,1220.12 2176.98,1213.07 2178.7,1206.02 2180.39,1198.97 2182.05,1191.93 2183.73,1184.88 2185.43,1177.83 2187.19,1170.78 2189.04,1163.73 2190.99,1156.68 
  2193.07,1149.64 2195.29,1142.59 2197.67,1135.54 2200.23,1128.49 2202.98,1121.44 2205.94,1114.39 2209.12,1107.35 2212.53,1100.3 2216.19,1093.25 2220.07,1086.2 
  2224.14,1079.15 2228.37,1072.1 2232.69,1065.06 2237.03,1058.01 2241.3,1050.96 2245.42,1043.91 2249.33,1036.86 2252.96,1029.81 2256.3,1022.77 2259.34,1015.72 
  2262.1,1008.67 2264.64,1001.62 2267.01,994.573 2269.27,987.524 2271.49,980.476 2273.72,973.428 2275.98,966.379 2278.31,959.331 2280.7,952.283 2283.15,945.234 
  2285.65,938.186 2288.19,931.138 2290.75,924.089 2293.33,917.041 2295.93,909.993 2298.53,902.944 2301.14,895.896 2303.75,888.848 2306.35,881.799 2308.93,874.751 
  2311.46,867.703 2313.92,860.654 2316.28,853.606 2318.52,846.558 2320.62,839.509 2322.58,832.461 2324.39,825.413 2326.06,818.365 2327.59,811.316 2329,804.268 
  2330.28,797.22 2331.43,790.171 2332.42,783.123 2333.22,776.075 2333.79,769.026 2334.09,761.978 2334.05,754.93 2333.65,747.881 2332.84,740.833 2331.6,733.785 
  2329.92,726.736 2327.83,719.688 2325.34,712.64 2322.5,705.591 2319.35,698.543 2315.97,691.495 2312.39,684.446 2308.69,677.398 2304.89,670.35 2301.04,663.301 
  2297.15,656.253 2293.23,649.205 2289.29,642.156 2285.33,635.108 2281.35,628.06 2277.33,621.011 2273.28,613.963 2269.19,606.915 2265.05,599.866 2260.84,592.818 
  2256.57,585.77 2252.22,578.721 2247.77,571.673 2243.23,564.625 2238.59,557.576 2233.87,550.528 2229.07,543.48 2224.22,536.431 2219.36,529.383 2214.53,522.335 
  2209.77,515.287 2205.12,508.238 2200.62,501.19 2196.31,494.142 2192.23,487.093 2188.39,480.045 2184.81,472.997 2181.51,465.948 2178.47,458.9 2175.68,451.852 
  2173.14,444.803 2170.8,437.755 2168.65,430.707 2166.65,423.658 2164.79,416.61 2163.04,409.562 2161.41,402.513 2159.88,395.465 2158.46,388.417 2157.15,381.368 
  2155.96,374.32 2154.89,367.272 2153.94,360.223 2153.1,353.175 2152.37,346.127 2151.73,339.078 2151.17,332.03 2150.69,324.982 2150.25,317.933 2149.87,310.885 
  2149.54,303.837 2149.24,296.788 2148.98,289.74 2148.76,282.692 2148.57,275.643 2148.42,268.595 2148.3,261.547 2148.2,254.498 2148.13,247.45 2148.08,240.402 
  2148.04,233.353 2148.01,226.305 2148,219.257 2147.98,212.209 2147.98,205.16 2147.97,198.112 2147.97,191.064 2147.97,184.015 2147.97,176.967 2147.97,169.919 
  
  "/>
</svg>
