<?xml version="1.0" encoding="utf-8"?>
<svg xmlns="http://www.w3.org/2000/svg" xmlns:xlink="http://www.w3.org/1999/xlink" width="600" height="400" viewBox="0 0 2400 1600">
<defs>
  <clipPath id="clip040">
    <rect x="0" y="0" width="2400" height="1600"/>
  </clipPath>
</defs>
<path clip-path="url(#clip040)" d="
M0 1600 L2400 1600 L2400 0 L0 0  Z
  " fill="#ffffff" fill-rule="evenodd" fill-opacity="1"/>
<defs>
  <clipPath id="clip041">
    <rect x="480" y="0" width="1681" height="1600"/>
  </clipPath>
</defs>
<defs>
  <clipPath id="clip042">
    <rect x="235" y="47" width="2118" height="1377"/>
  </clipPath>
</defs>
<path clip-path="url(#clip040)" d="
M265.445 1423.18 L2352.76 1423.18 L2352.76 47.2441 L265.445 47.2441  Z
  " fill="#ffffff" fill-rule="evenodd" fill-opacity="1"/>
<defs>
  <clipPath id="clip043">
    <rect x="265" y="47" width="2088" height="1377"/>
  </clipPath>
</defs>
<polyline clip-path="url(#clip043)" style="stroke:#000000; stroke-linecap:butt; stroke-linejoin:round; stroke-width:2; stroke-opacity:0.1; fill:none" points="
  265.445,1423.18 265.445,47.2441 
  "/>
<polyline clip-path="url(#clip043)" style="stroke:#000000; stroke-linecap:butt; stroke-linejoin:round; stroke-width:2; stroke-opacity:0.1; fill:none" points="
  682.907,1423.18 682.907,47.2441 
  "/>
<polyline clip-path="url(#clip043)" style="stroke:#000000; stroke-linecap:butt; stroke-linejoin:round; stroke-width:2; stroke-opacity:0.1; fill:none" points="
  1100.37,1423.18 1100.37,47.2441 
  "/>
<polyline clip-path="url(#clip043)" style="stroke:#000000; stroke-linecap:butt; stroke-linejoin:round; stroke-width:2; stroke-opacity:0.1; fill:none" points="
  1517.83,1423.18 1517.83,47.2441 
  "/>
<polyline clip-path="url(#clip043)" style="stroke:#000000; stroke-linecap:butt; stroke-linejoin:round; stroke-width:2; stroke-opacity:0.1; fill:none" points="
  1935.29,1423.18 1935.29,47.2441 
  "/>
<polyline clip-path="url(#clip043)" style="stroke:#000000; stroke-linecap:butt; stroke-linejoin:round; stroke-width:2; stroke-opacity:0.1; fill:none" points="
  2352.76,1423.18 2352.76,47.2441 
  "/>
<polyline clip-path="url(#clip040)" style="stroke:#000000; stroke-linecap:butt; stroke-linejoin:round; stroke-width:4; stroke-opacity:1; fill:none" points="
  265.445,1423.18 2352.76,1423.18 
  "/>
<polyline clip-path="url(#clip040)" style="stroke:#000000; stroke-linecap:butt; stroke-linejoin:round; stroke-width:4; stroke-opacity:1; fill:none" points="
  265.445,1423.18 265.445,1404.28 
  "/>
<polyline clip-path="url(#clip040)" style="stroke:#000000; stroke-linecap:butt; stroke-linejoin:round; stroke-width:4; stroke-opacity:1; fill:none" points="
  682.907,1423.18 682.907,1404.28 
  "/>
<polyline clip-path="url(#clip040)" style="stroke:#000000; stroke-linecap:butt; stroke-linejoin:round; stroke-width:4; stroke-opacity:1; fill:none" points="
  1100.37,1423.18 1100.37,1404.28 
  "/>
<polyline clip-path="url(#clip040)" style="stroke:#000000; stroke-linecap:butt; stroke-linejoin:round; stroke-width:4; stroke-opacity:1; fill:none" points="
  1517.83,1423.18 1517.83,1404.28 
  "/>
<polyline clip-path="url(#clip040)" style="stroke:#000000; stroke-linecap:butt; stroke-linejoin:round; stroke-width:4; stroke-opacity:1; fill:none" points="
  1935.29,1423.18 1935.29,1404.28 
  "/>
<polyline clip-path="url(#clip040)" style="stroke:#000000; stroke-linecap:butt; stroke-linejoin:round; stroke-width:4; stroke-opacity:1; fill:none" points="
  2352.76,1423.18 2352.76,1404.28 
  "/>
<path clip-path="url(#clip040)" d="M197.586 1454.1 Q193.975 1454.1 192.147 1457.66 Q190.341 1461.2 190.341 1468.33 Q190.341 1475.44 192.147 1479.01 Q193.975 1482.55 197.586 1482.55 Q201.221 1482.55 203.026 1479.01 Q204.855 1475.44 204.855 1468.33 Q204.855 1461.2 203.026 1457.66 Q201.221 1454.1 197.586 1454.1 M197.586 1450.39 Q203.396 1450.39 206.452 1455 Q209.531 1459.58 209.531 1468.33 Q209.531 1477.06 206.452 1481.67 Q203.396 1486.25 197.586 1486.25 Q191.776 1486.25 188.697 1481.67 Q185.642 1477.06 185.642 1468.33 Q185.642 1459.58 188.697 1455 Q191.776 1450.39 197.586 1450.39 Z" fill="#000000" fill-rule="evenodd" fill-opacity="1" /><path clip-path="url(#clip040)" d="M217.748 1479.7 L222.632 1479.7 L222.632 1485.58 L217.748 1485.58 L217.748 1479.7 Z" fill="#000000" fill-rule="evenodd" fill-opacity="1" /><path clip-path="url(#clip040)" d="M242.818 1454.1 Q239.206 1454.1 237.378 1457.66 Q235.572 1461.2 235.572 1468.33 Q235.572 1475.44 237.378 1479.01 Q239.206 1482.55 242.818 1482.55 Q246.452 1482.55 248.257 1479.01 Q250.086 1475.44 250.086 1468.33 Q250.086 1461.2 248.257 1457.66 Q246.452 1454.1 242.818 1454.1 M242.818 1450.39 Q248.628 1450.39 251.683 1455 Q254.762 1459.58 254.762 1468.33 Q254.762 1477.06 251.683 1481.67 Q248.628 1486.25 242.818 1486.25 Q237.007 1486.25 233.929 1481.67 Q230.873 1477.06 230.873 1468.33 Q230.873 1459.58 233.929 1455 Q237.007 1450.39 242.818 1450.39 Z" fill="#000000" fill-rule="evenodd" fill-opacity="1" /><path clip-path="url(#clip040)" d="M272.979 1454.1 Q269.368 1454.1 267.54 1457.66 Q265.734 1461.2 265.734 1468.33 Q265.734 1475.44 267.54 1479.01 Q269.368 1482.55 272.979 1482.55 Q276.614 1482.55 278.419 1479.01 Q280.248 1475.44 280.248 1468.33 Q280.248 1461.2 278.419 1457.66 Q276.614 1454.1 272.979 1454.1 M272.979 1450.39 Q278.79 1450.39 281.845 1455 Q284.924 1459.58 284.924 1468.33 Q284.924 1477.06 281.845 1481.67 Q278.79 1486.25 272.979 1486.25 Q267.169 1486.25 264.091 1481.67 Q261.035 1477.06 261.035 1468.33 Q261.035 1459.58 264.091 1455 Q267.169 1450.39 272.979 1450.39 Z" fill="#000000" fill-rule="evenodd" fill-opacity="1" /><path clip-path="url(#clip040)" d="M303.141 1454.1 Q299.53 1454.1 297.701 1457.66 Q295.896 1461.2 295.896 1468.33 Q295.896 1475.44 297.701 1479.01 Q299.53 1482.55 303.141 1482.55 Q306.776 1482.55 308.581 1479.01 Q310.41 1475.44 310.41 1468.33 Q310.41 1461.2 308.581 1457.66 Q306.776 1454.1 303.141 1454.1 M303.141 1450.39 Q308.951 1450.39 312.007 1455 Q315.086 1459.58 315.086 1468.33 Q315.086 1477.06 312.007 1481.67 Q308.951 1486.25 303.141 1486.25 Q297.331 1486.25 294.252 1481.67 Q291.197 1477.06 291.197 1468.33 Q291.197 1459.58 294.252 1455 Q297.331 1450.39 303.141 1450.39 Z" fill="#000000" fill-rule="evenodd" fill-opacity="1" /><path clip-path="url(#clip040)" d="M333.303 1454.1 Q329.692 1454.1 327.863 1457.66 Q326.058 1461.2 326.058 1468.33 Q326.058 1475.44 327.863 1479.01 Q329.692 1482.55 333.303 1482.55 Q336.937 1482.55 338.743 1479.01 Q340.572 1475.44 340.572 1468.33 Q340.572 1461.2 338.743 1457.66 Q336.937 1454.1 333.303 1454.1 M333.303 1450.39 Q339.113 1450.39 342.169 1455 Q345.248 1459.58 345.248 1468.33 Q345.248 1477.06 342.169 1481.67 Q339.113 1486.25 333.303 1486.25 Q327.493 1486.25 324.414 1481.67 Q321.359 1477.06 321.359 1468.33 Q321.359 1459.58 324.414 1455 Q327.493 1450.39 333.303 1450.39 Z" fill="#000000" fill-rule="evenodd" fill-opacity="1" /><path clip-path="url(#clip040)" d="M615.847 1454.1 Q612.236 1454.1 610.407 1457.66 Q608.602 1461.2 608.602 1468.33 Q608.602 1475.44 610.407 1479.01 Q612.236 1482.55 615.847 1482.55 Q619.481 1482.55 621.287 1479.01 Q623.116 1475.44 623.116 1468.33 Q623.116 1461.2 621.287 1457.66 Q619.481 1454.1 615.847 1454.1 M615.847 1450.39 Q621.657 1450.39 624.713 1455 Q627.792 1459.58 627.792 1468.33 Q627.792 1477.06 624.713 1481.67 Q621.657 1486.25 615.847 1486.25 Q610.037 1486.25 606.958 1481.67 Q603.903 1477.06 603.903 1468.33 Q603.903 1459.58 606.958 1455 Q610.037 1450.39 615.847 1450.39 Z" fill="#000000" fill-rule="evenodd" fill-opacity="1" /><path clip-path="url(#clip040)" d="M636.009 1479.7 L640.893 1479.7 L640.893 1485.58 L636.009 1485.58 L636.009 1479.7 Z" fill="#000000" fill-rule="evenodd" fill-opacity="1" /><path clip-path="url(#clip040)" d="M661.078 1454.1 Q657.467 1454.1 655.639 1457.66 Q653.833 1461.2 653.833 1468.33 Q653.833 1475.44 655.639 1479.01 Q657.467 1482.55 661.078 1482.55 Q664.713 1482.55 666.518 1479.01 Q668.347 1475.44 668.347 1468.33 Q668.347 1461.2 666.518 1457.66 Q664.713 1454.1 661.078 1454.1 M661.078 1450.39 Q666.889 1450.39 669.944 1455 Q673.023 1459.58 673.023 1468.33 Q673.023 1477.06 669.944 1481.67 Q666.889 1486.25 661.078 1486.25 Q655.268 1486.25 652.19 1481.67 Q649.134 1477.06 649.134 1468.33 Q649.134 1459.58 652.19 1455 Q655.268 1450.39 661.078 1450.39 Z" fill="#000000" fill-rule="evenodd" fill-opacity="1" /><path clip-path="url(#clip040)" d="M691.24 1454.1 Q687.629 1454.1 685.8 1457.66 Q683.995 1461.2 683.995 1468.33 Q683.995 1475.44 685.8 1479.01 Q687.629 1482.55 691.24 1482.55 Q694.874 1482.55 696.68 1479.01 Q698.509 1475.44 698.509 1468.33 Q698.509 1461.2 696.68 1457.66 Q694.874 1454.1 691.24 1454.1 M691.24 1450.39 Q697.05 1450.39 700.106 1455 Q703.185 1459.58 703.185 1468.33 Q703.185 1477.06 700.106 1481.67 Q697.05 1486.25 691.24 1486.25 Q685.43 1486.25 682.351 1481.67 Q679.296 1477.06 679.296 1468.33 Q679.296 1459.58 682.351 1455 Q685.43 1450.39 691.24 1450.39 Z" fill="#000000" fill-rule="evenodd" fill-opacity="1" /><path clip-path="url(#clip040)" d="M721.402 1454.1 Q717.791 1454.1 715.962 1457.66 Q714.157 1461.2 714.157 1468.33 Q714.157 1475.44 715.962 1479.01 Q717.791 1482.55 721.402 1482.55 Q725.036 1482.55 726.842 1479.01 Q728.671 1475.44 728.671 1468.33 Q728.671 1461.2 726.842 1457.66 Q725.036 1454.1 721.402 1454.1 M721.402 1450.39 Q727.212 1450.39 730.268 1455 Q733.347 1459.58 733.347 1468.33 Q733.347 1477.06 730.268 1481.67 Q727.212 1486.25 721.402 1486.25 Q715.592 1486.25 712.513 1481.67 Q709.458 1477.06 709.458 1468.33 Q709.458 1459.58 712.513 1455 Q715.592 1450.39 721.402 1450.39 Z" fill="#000000" fill-rule="evenodd" fill-opacity="1" /><path clip-path="url(#clip040)" d="M745.592 1481.64 L761.911 1481.64 L761.911 1485.58 L739.967 1485.58 L739.967 1481.64 Q742.629 1478.89 747.212 1474.26 Q751.819 1469.61 752.999 1468.27 Q755.245 1465.74 756.124 1464.01 Q757.027 1462.25 757.027 1460.56 Q757.027 1457.8 755.083 1456.07 Q753.161 1454.33 750.059 1454.33 Q747.86 1454.33 745.407 1455.09 Q742.976 1455.86 740.198 1457.41 L740.198 1452.69 Q743.022 1451.55 745.476 1450.97 Q747.93 1450.39 749.967 1450.39 Q755.337 1450.39 758.532 1453.08 Q761.726 1455.77 761.726 1460.26 Q761.726 1462.39 760.916 1464.31 Q760.129 1466.2 758.022 1468.8 Q757.444 1469.47 754.342 1472.69 Q751.24 1475.88 745.592 1481.64 Z" fill="#000000" fill-rule="evenodd" fill-opacity="1" /><path clip-path="url(#clip040)" d="M1032.27 1454.1 Q1028.66 1454.1 1026.83 1457.66 Q1025.02 1461.2 1025.02 1468.33 Q1025.02 1475.44 1026.83 1479.01 Q1028.66 1482.55 1032.27 1482.55 Q1035.9 1482.55 1037.71 1479.01 Q1039.54 1475.44 1039.54 1468.33 Q1039.54 1461.2 1037.71 1457.66 Q1035.9 1454.1 1032.27 1454.1 M1032.27 1450.39 Q1038.08 1450.39 1041.13 1455 Q1044.21 1459.58 1044.21 1468.33 Q1044.21 1477.06 1041.13 1481.67 Q1038.08 1486.25 1032.27 1486.25 Q1026.46 1486.25 1023.38 1481.67 Q1020.32 1477.06 1020.32 1468.33 Q1020.32 1459.58 1023.38 1455 Q1026.46 1450.39 1032.27 1450.39 Z" fill="#000000" fill-rule="evenodd" fill-opacity="1" /><path clip-path="url(#clip040)" d="M1052.43 1479.7 L1057.31 1479.7 L1057.31 1485.58 L1052.43 1485.58 L1052.43 1479.7 Z" fill="#000000" fill-rule="evenodd" fill-opacity="1" /><path clip-path="url(#clip040)" d="M1077.5 1454.1 Q1073.89 1454.1 1072.06 1457.66 Q1070.25 1461.2 1070.25 1468.33 Q1070.25 1475.44 1072.06 1479.01 Q1073.89 1482.55 1077.5 1482.55 Q1081.13 1482.55 1082.94 1479.01 Q1084.77 1475.44 1084.77 1468.33 Q1084.77 1461.2 1082.94 1457.66 Q1081.13 1454.1 1077.5 1454.1 M1077.5 1450.39 Q1083.31 1450.39 1086.36 1455 Q1089.44 1459.58 1089.44 1468.33 Q1089.44 1477.06 1086.36 1481.67 Q1083.31 1486.25 1077.5 1486.25 Q1071.69 1486.25 1068.61 1481.67 Q1065.55 1477.06 1065.55 1468.33 Q1065.55 1459.58 1068.61 1455 Q1071.69 1450.39 1077.5 1450.39 Z" fill="#000000" fill-rule="evenodd" fill-opacity="1" /><path clip-path="url(#clip040)" d="M1107.66 1454.1 Q1104.05 1454.1 1102.22 1457.66 Q1100.42 1461.2 1100.42 1468.33 Q1100.42 1475.44 1102.22 1479.01 Q1104.05 1482.55 1107.66 1482.55 Q1111.3 1482.55 1113.1 1479.01 Q1114.93 1475.44 1114.93 1468.33 Q1114.93 1461.2 1113.1 1457.66 Q1111.3 1454.1 1107.66 1454.1 M1107.66 1450.39 Q1113.47 1450.39 1116.53 1455 Q1119.61 1459.58 1119.61 1468.33 Q1119.61 1477.06 1116.53 1481.67 Q1113.47 1486.25 1107.66 1486.25 Q1101.85 1486.25 1098.77 1481.67 Q1095.72 1477.06 1095.72 1468.33 Q1095.72 1459.58 1098.77 1455 Q1101.85 1450.39 1107.66 1450.39 Z" fill="#000000" fill-rule="evenodd" fill-opacity="1" /><path clip-path="url(#clip040)" d="M1137.82 1454.1 Q1134.21 1454.1 1132.38 1457.66 Q1130.58 1461.2 1130.58 1468.33 Q1130.58 1475.44 1132.38 1479.01 Q1134.21 1482.55 1137.82 1482.55 Q1141.46 1482.55 1143.26 1479.01 Q1145.09 1475.44 1145.09 1468.33 Q1145.09 1461.2 1143.26 1457.66 Q1141.46 1454.1 1137.82 1454.1 M1137.82 1450.39 Q1143.63 1450.39 1146.69 1455 Q1149.77 1459.58 1149.77 1468.33 Q1149.77 1477.06 1146.69 1481.67 Q1143.63 1486.25 1137.82 1486.25 Q1132.01 1486.25 1128.93 1481.67 Q1125.88 1477.06 1125.88 1468.33 Q1125.88 1459.58 1128.93 1455 Q1132.01 1450.39 1137.82 1450.39 Z" fill="#000000" fill-rule="evenodd" fill-opacity="1" /><path clip-path="url(#clip040)" d="M1170.83 1455.09 L1159.03 1473.54 L1170.83 1473.54 L1170.83 1455.09 M1169.6 1451.02 L1175.48 1451.02 L1175.48 1473.54 L1180.42 1473.54 L1180.42 1477.43 L1175.48 1477.43 L1175.48 1485.58 L1170.83 1485.58 L1170.83 1477.43 L1155.23 1477.43 L1155.23 1472.92 L1169.6 1451.02 Z" fill="#000000" fill-rule="evenodd" fill-opacity="1" /><path clip-path="url(#clip040)" d="M1449.89 1454.1 Q1446.28 1454.1 1444.45 1457.66 Q1442.65 1461.2 1442.65 1468.33 Q1442.65 1475.44 1444.45 1479.01 Q1446.28 1482.55 1449.89 1482.55 Q1453.53 1482.55 1455.33 1479.01 Q1457.16 1475.44 1457.16 1468.33 Q1457.16 1461.2 1455.33 1457.66 Q1453.53 1454.1 1449.89 1454.1 M1449.89 1450.39 Q1455.7 1450.39 1458.76 1455 Q1461.84 1459.58 1461.84 1468.33 Q1461.84 1477.06 1458.76 1481.67 Q1455.7 1486.25 1449.89 1486.25 Q1444.08 1486.25 1441 1481.67 Q1437.95 1477.06 1437.95 1468.33 Q1437.95 1459.58 1441 1455 Q1444.08 1450.39 1449.89 1450.39 Z" fill="#000000" fill-rule="evenodd" fill-opacity="1" /><path clip-path="url(#clip040)" d="M1470.05 1479.7 L1474.94 1479.7 L1474.94 1485.58 L1470.05 1485.58 L1470.05 1479.7 Z" fill="#000000" fill-rule="evenodd" fill-opacity="1" /><path clip-path="url(#clip040)" d="M1495.12 1454.1 Q1491.51 1454.1 1489.68 1457.66 Q1487.88 1461.2 1487.88 1468.33 Q1487.88 1475.44 1489.68 1479.01 Q1491.51 1482.55 1495.12 1482.55 Q1498.76 1482.55 1500.56 1479.01 Q1502.39 1475.44 1502.39 1468.33 Q1502.39 1461.2 1500.56 1457.66 Q1498.76 1454.1 1495.12 1454.1 M1495.12 1450.39 Q1500.93 1450.39 1503.99 1455 Q1507.07 1459.58 1507.07 1468.33 Q1507.07 1477.06 1503.99 1481.67 Q1500.93 1486.25 1495.12 1486.25 Q1489.31 1486.25 1486.23 1481.67 Q1483.18 1477.06 1483.18 1468.33 Q1483.18 1459.58 1486.23 1455 Q1489.31 1450.39 1495.12 1450.39 Z" fill="#000000" fill-rule="evenodd" fill-opacity="1" /><path clip-path="url(#clip040)" d="M1525.29 1454.1 Q1521.67 1454.1 1519.85 1457.66 Q1518.04 1461.2 1518.04 1468.33 Q1518.04 1475.44 1519.85 1479.01 Q1521.67 1482.55 1525.29 1482.55 Q1528.92 1482.55 1530.72 1479.01 Q1532.55 1475.44 1532.55 1468.33 Q1532.55 1461.2 1530.72 1457.66 Q1528.92 1454.1 1525.29 1454.1 M1525.29 1450.39 Q1531.1 1450.39 1534.15 1455 Q1537.23 1459.58 1537.23 1468.33 Q1537.23 1477.06 1534.15 1481.67 Q1531.1 1486.25 1525.29 1486.25 Q1519.47 1486.25 1516.4 1481.67 Q1513.34 1477.06 1513.34 1468.33 Q1513.34 1459.58 1516.4 1455 Q1519.47 1450.39 1525.29 1450.39 Z" fill="#000000" fill-rule="evenodd" fill-opacity="1" /><path clip-path="url(#clip040)" d="M1555.45 1454.1 Q1551.84 1454.1 1550.01 1457.66 Q1548.2 1461.2 1548.2 1468.33 Q1548.2 1475.44 1550.01 1479.01 Q1551.84 1482.55 1555.45 1482.55 Q1559.08 1482.55 1560.89 1479.01 Q1562.72 1475.44 1562.72 1468.33 Q1562.72 1461.2 1560.89 1457.66 Q1559.08 1454.1 1555.45 1454.1 M1555.45 1450.39 Q1561.26 1450.39 1564.31 1455 Q1567.39 1459.58 1567.39 1468.33 Q1567.39 1477.06 1564.31 1481.67 Q1561.26 1486.25 1555.45 1486.25 Q1549.64 1486.25 1546.56 1481.67 Q1543.5 1477.06 1543.5 1468.33 Q1543.5 1459.58 1546.56 1455 Q1549.64 1450.39 1555.45 1450.39 Z" fill="#000000" fill-rule="evenodd" fill-opacity="1" /><path clip-path="url(#clip040)" d="M1586.19 1466.44 Q1583.04 1466.44 1581.19 1468.59 Q1579.36 1470.74 1579.36 1474.49 Q1579.36 1478.22 1581.19 1480.39 Q1583.04 1482.55 1586.19 1482.55 Q1589.34 1482.55 1591.16 1480.39 Q1593.02 1478.22 1593.02 1474.49 Q1593.02 1470.74 1591.16 1468.59 Q1589.34 1466.44 1586.19 1466.44 M1595.47 1451.78 L1595.47 1456.04 Q1593.71 1455.21 1591.91 1454.77 Q1590.12 1454.33 1588.36 1454.33 Q1583.73 1454.33 1581.28 1457.45 Q1578.85 1460.58 1578.5 1466.9 Q1579.87 1464.89 1581.93 1463.82 Q1583.99 1462.73 1586.47 1462.73 Q1591.67 1462.73 1594.68 1465.9 Q1597.72 1469.05 1597.72 1474.49 Q1597.72 1479.82 1594.57 1483.03 Q1591.42 1486.25 1586.19 1486.25 Q1580.19 1486.25 1577.02 1481.67 Q1573.85 1477.06 1573.85 1468.33 Q1573.85 1460.14 1577.74 1455.28 Q1581.63 1450.39 1588.18 1450.39 Q1589.94 1450.39 1591.72 1450.74 Q1593.53 1451.09 1595.47 1451.78 Z" fill="#000000" fill-rule="evenodd" fill-opacity="1" /><path clip-path="url(#clip040)" d="M1867.48 1454.1 Q1863.87 1454.1 1862.04 1457.66 Q1860.24 1461.2 1860.24 1468.33 Q1860.24 1475.44 1862.04 1479.01 Q1863.87 1482.55 1867.48 1482.55 Q1871.12 1482.55 1872.92 1479.01 Q1874.75 1475.44 1874.75 1468.33 Q1874.75 1461.2 1872.92 1457.66 Q1871.12 1454.1 1867.48 1454.1 M1867.48 1450.39 Q1873.29 1450.39 1876.35 1455 Q1879.43 1459.58 1879.43 1468.33 Q1879.43 1477.06 1876.35 1481.67 Q1873.29 1486.25 1867.48 1486.25 Q1861.67 1486.25 1858.59 1481.67 Q1855.54 1477.06 1855.54 1468.33 Q1855.54 1459.58 1858.59 1455 Q1861.67 1450.39 1867.48 1450.39 Z" fill="#000000" fill-rule="evenodd" fill-opacity="1" /><path clip-path="url(#clip040)" d="M1887.64 1479.7 L1892.53 1479.7 L1892.53 1485.58 L1887.64 1485.58 L1887.64 1479.7 Z" fill="#000000" fill-rule="evenodd" fill-opacity="1" /><path clip-path="url(#clip040)" d="M1912.71 1454.1 Q1909.1 1454.1 1907.27 1457.66 Q1905.47 1461.2 1905.47 1468.33 Q1905.47 1475.44 1907.27 1479.01 Q1909.1 1482.55 1912.71 1482.55 Q1916.35 1482.55 1918.15 1479.01 Q1919.98 1475.44 1919.98 1468.33 Q1919.98 1461.2 1918.15 1457.66 Q1916.35 1454.1 1912.71 1454.1 M1912.71 1450.39 Q1918.52 1450.39 1921.58 1455 Q1924.66 1459.58 1924.66 1468.33 Q1924.66 1477.06 1921.58 1481.67 Q1918.52 1486.25 1912.71 1486.25 Q1906.9 1486.25 1903.82 1481.67 Q1900.77 1477.06 1900.77 1468.33 Q1900.77 1459.58 1903.82 1455 Q1906.9 1450.39 1912.71 1450.39 Z" fill="#000000" fill-rule="evenodd" fill-opacity="1" /><path clip-path="url(#clip040)" d="M1942.87 1454.1 Q1939.26 1454.1 1937.43 1457.66 Q1935.63 1461.2 1935.63 1468.33 Q1935.63 1475.44 1937.43 1479.01 Q1939.26 1482.55 1942.87 1482.55 Q1946.51 1482.55 1948.31 1479.01 Q1950.14 1475.44 1950.14 1468.33 Q1950.14 1461.2 1948.31 1457.66 Q1946.51 1454.1 1942.87 1454.1 M1942.87 1450.39 Q1948.68 1450.39 1951.74 1455 Q1954.82 1459.58 1954.82 1468.33 Q1954.82 1477.06 1951.74 1481.67 Q1948.68 1486.25 1942.87 1486.25 Q1937.06 1486.25 1933.99 1481.67 Q1930.93 1477.06 1930.93 1468.33 Q1930.93 1459.58 1933.99 1455 Q1937.06 1450.39 1942.87 1450.39 Z" fill="#000000" fill-rule="evenodd" fill-opacity="1" /><path clip-path="url(#clip040)" d="M1973.04 1454.1 Q1969.43 1454.1 1967.6 1457.66 Q1965.79 1461.2 1965.79 1468.33 Q1965.79 1475.44 1967.6 1479.01 Q1969.43 1482.55 1973.04 1482.55 Q1976.67 1482.55 1978.48 1479.01 Q1980.31 1475.44 1980.31 1468.33 Q1980.31 1461.2 1978.48 1457.66 Q1976.67 1454.1 1973.04 1454.1 M1973.04 1450.39 Q1978.85 1450.39 1981.9 1455 Q1984.98 1459.58 1984.98 1468.33 Q1984.98 1477.06 1981.9 1481.67 Q1978.85 1486.25 1973.04 1486.25 Q1967.23 1486.25 1964.15 1481.67 Q1961.09 1477.06 1961.09 1468.33 Q1961.09 1459.58 1964.15 1455 Q1967.23 1450.39 1973.04 1450.39 Z" fill="#000000" fill-rule="evenodd" fill-opacity="1" /><path clip-path="url(#clip040)" d="M2003.2 1469.17 Q1999.87 1469.17 1997.94 1470.95 Q1996.05 1472.73 1996.05 1475.86 Q1996.05 1478.98 1997.94 1480.77 Q1999.87 1482.55 2003.2 1482.55 Q2006.53 1482.55 2008.45 1480.77 Q2010.37 1478.96 2010.37 1475.86 Q2010.37 1472.73 2008.45 1470.95 Q2006.55 1469.17 2003.2 1469.17 M1998.52 1467.18 Q1995.51 1466.44 1993.82 1464.38 Q1992.16 1462.32 1992.16 1459.35 Q1992.16 1455.21 1995.1 1452.8 Q1998.06 1450.39 2003.2 1450.39 Q2008.36 1450.39 2011.3 1452.8 Q2014.24 1455.21 2014.24 1459.35 Q2014.24 1462.32 2012.55 1464.38 Q2010.88 1466.44 2007.9 1467.18 Q2011.28 1467.96 2013.15 1470.26 Q2015.05 1472.55 2015.05 1475.86 Q2015.05 1480.88 2011.97 1483.57 Q2008.92 1486.25 2003.2 1486.25 Q1997.48 1486.25 1994.4 1483.57 Q1991.35 1480.88 1991.35 1475.86 Q1991.35 1472.55 1993.24 1470.26 Q1995.14 1467.96 1998.52 1467.18 M1996.81 1459.79 Q1996.81 1462.48 1998.48 1463.98 Q2000.17 1465.49 2003.2 1465.49 Q2006.21 1465.49 2007.9 1463.98 Q2009.61 1462.48 2009.61 1459.79 Q2009.61 1457.11 2007.9 1455.6 Q2006.21 1454.1 2003.2 1454.1 Q2000.17 1454.1 1998.48 1455.6 Q1996.81 1457.11 1996.81 1459.79 Z" fill="#000000" fill-rule="evenodd" fill-opacity="1" /><path clip-path="url(#clip040)" d="M2284.9 1454.1 Q2281.29 1454.1 2279.46 1457.66 Q2277.65 1461.2 2277.65 1468.33 Q2277.65 1475.44 2279.46 1479.01 Q2281.29 1482.55 2284.9 1482.55 Q2288.53 1482.55 2290.34 1479.01 Q2292.17 1475.44 2292.17 1468.33 Q2292.17 1461.2 2290.34 1457.66 Q2288.53 1454.1 2284.9 1454.1 M2284.9 1450.39 Q2290.71 1450.39 2293.76 1455 Q2296.84 1459.58 2296.84 1468.33 Q2296.84 1477.06 2293.76 1481.67 Q2290.71 1486.25 2284.9 1486.25 Q2279.09 1486.25 2276.01 1481.67 Q2272.95 1477.06 2272.95 1468.33 Q2272.95 1459.58 2276.01 1455 Q2279.09 1450.39 2284.9 1450.39 Z" fill="#000000" fill-rule="evenodd" fill-opacity="1" /><path clip-path="url(#clip040)" d="M2305.06 1479.7 L2309.94 1479.7 L2309.94 1485.58 L2305.06 1485.58 L2305.06 1479.7 Z" fill="#000000" fill-rule="evenodd" fill-opacity="1" /><path clip-path="url(#clip040)" d="M2330.13 1454.1 Q2326.52 1454.1 2324.69 1457.66 Q2322.88 1461.2 2322.88 1468.33 Q2322.88 1475.44 2324.69 1479.01 Q2326.52 1482.55 2330.13 1482.55 Q2333.76 1482.55 2335.57 1479.01 Q2337.4 1475.44 2337.4 1468.33 Q2337.4 1461.2 2335.57 1457.66 Q2333.76 1454.1 2330.13 1454.1 M2330.13 1450.39 Q2335.94 1450.39 2338.99 1455 Q2342.07 1459.58 2342.07 1468.33 Q2342.07 1477.06 2338.99 1481.67 Q2335.94 1486.25 2330.13 1486.25 Q2324.32 1486.25 2321.24 1481.67 Q2318.18 1477.06 2318.18 1468.33 Q2318.18 1459.58 2321.24 1455 Q2324.32 1450.39 2330.13 1450.39 Z" fill="#000000" fill-rule="evenodd" fill-opacity="1" /><path clip-path="url(#clip040)" d="M2360.29 1454.1 Q2356.68 1454.1 2354.85 1457.66 Q2353.05 1461.2 2353.05 1468.33 Q2353.05 1475.44 2354.85 1479.01 Q2356.68 1482.55 2360.29 1482.55 Q2363.92 1482.55 2365.73 1479.01 Q2367.56 1475.44 2367.56 1468.33 Q2367.56 1461.2 2365.73 1457.66 Q2363.92 1454.1 2360.29 1454.1 M2360.29 1450.39 Q2366.1 1450.39 2369.16 1455 Q2372.23 1459.58 2372.23 1468.33 Q2372.23 1477.06 2369.16 1481.67 Q2366.1 1486.25 2360.29 1486.25 Q2354.48 1486.25 2351.4 1481.67 Q2348.35 1477.06 2348.35 1468.33 Q2348.35 1459.58 2351.4 1455 Q2354.48 1450.39 2360.29 1450.39 Z" fill="#000000" fill-rule="evenodd" fill-opacity="1" /><path clip-path="url(#clip040)" d="M2381.26 1481.64 L2388.9 1481.64 L2388.9 1455.28 L2380.59 1456.95 L2380.59 1452.69 L2388.86 1451.02 L2393.53 1451.02 L2393.53 1481.64 L2401.17 1481.64 L2401.17 1485.58 L2381.26 1485.58 L2381.26 1481.64 Z" fill="#000000" fill-rule="evenodd" fill-opacity="1" /><path clip-path="url(#clip040)" d="M2420.61 1454.1 Q2417 1454.1 2415.17 1457.66 Q2413.37 1461.2 2413.37 1468.33 Q2413.37 1475.44 2415.17 1479.01 Q2417 1482.55 2420.61 1482.55 Q2424.25 1482.55 2426.05 1479.01 Q2427.88 1475.44 2427.88 1468.33 Q2427.88 1461.2 2426.05 1457.66 Q2424.25 1454.1 2420.61 1454.1 M2420.61 1450.39 Q2426.42 1450.39 2429.48 1455 Q2432.56 1459.58 2432.56 1468.33 Q2432.56 1477.06 2429.48 1481.67 Q2426.42 1486.25 2420.61 1486.25 Q2414.8 1486.25 2411.73 1481.67 Q2408.67 1477.06 2408.67 1468.33 Q2408.67 1459.58 2411.73 1455 Q2414.8 1450.39 2420.61 1450.39 Z" fill="#000000" fill-rule="evenodd" fill-opacity="1" /><path clip-path="url(#clip040)" d="M1324.23 1538.21 Q1324.23 1541.46 1322.56 1544.71 Q1320.88 1547.96 1318.14 1550.48 Q1315.41 1552.96 1311.67 1554.57 Q1307.94 1556.18 1304.04 1556.31 L1301.53 1566.13 Q1301.04 1568.51 1300.79 1568.77 Q1300.53 1569.03 1300.14 1569.03 Q1299.34 1569.03 1299.34 1568.29 Q1299.34 1568.06 1300.79 1562.49 L1302.33 1556.31 Q1296.47 1555.98 1293.06 1552.6 Q1289.64 1549.22 1289.64 1544.36 Q1289.64 1541.07 1291.32 1537.82 Q1293.02 1534.53 1295.76 1532.05 Q1298.53 1529.57 1302.27 1528 Q1306 1526.42 1309.84 1526.29 L1313.67 1511.06 Q1313.86 1510.19 1314.02 1509.96 Q1314.18 1509.74 1314.67 1509.74 Q1315.02 1509.74 1315.21 1509.9 Q1315.41 1510.06 1315.41 1510.22 L1315.44 1510.38 L1315.25 1511.31 L1311.54 1526.29 Q1314.83 1526.52 1317.37 1527.67 Q1319.92 1528.83 1321.37 1530.57 Q1322.81 1532.28 1323.52 1534.21 Q1324.23 1536.14 1324.23 1538.21 M1309.45 1527.74 Q1305.91 1528.06 1302.91 1529.8 Q1299.92 1531.54 1297.98 1534.12 Q1296.05 1536.66 1294.99 1539.72 Q1293.93 1542.75 1293.93 1545.74 Q1293.93 1548.09 1294.7 1549.9 Q1295.5 1551.7 1296.82 1552.73 Q1298.14 1553.73 1299.59 1554.28 Q1301.08 1554.79 1302.65 1554.86 L1309.45 1527.74 M1319.92 1536.82 Q1319.92 1532.63 1317.5 1530.28 Q1315.08 1527.93 1311.16 1527.74 L1304.36 1554.86 Q1307.23 1554.63 1309.74 1553.44 Q1312.28 1552.22 1314.12 1550.41 Q1315.95 1548.58 1317.27 1546.32 Q1318.6 1544.04 1319.24 1541.62 Q1319.92 1539.17 1319.92 1536.82 Z" fill="#000000" fill-rule="evenodd" fill-opacity="1" /><polyline clip-path="url(#clip043)" style="stroke:#000000; stroke-linecap:butt; stroke-linejoin:round; stroke-width:2; stroke-opacity:0.1; fill:none" points="
  265.445,1384.24 2352.76,1384.24 
  "/>
<polyline clip-path="url(#clip043)" style="stroke:#000000; stroke-linecap:butt; stroke-linejoin:round; stroke-width:2; stroke-opacity:0.1; fill:none" points="
  265.445,1153.13 2352.76,1153.13 
  "/>
<polyline clip-path="url(#clip043)" style="stroke:#000000; stroke-linecap:butt; stroke-linejoin:round; stroke-width:2; stroke-opacity:0.1; fill:none" points="
  265.445,922.02 2352.76,922.02 
  "/>
<polyline clip-path="url(#clip043)" style="stroke:#000000; stroke-linecap:butt; stroke-linejoin:round; stroke-width:2; stroke-opacity:0.1; fill:none" points="
  265.445,690.91 2352.76,690.91 
  "/>
<polyline clip-path="url(#clip043)" style="stroke:#000000; stroke-linecap:butt; stroke-linejoin:round; stroke-width:2; stroke-opacity:0.1; fill:none" points="
  265.445,459.8 2352.76,459.8 
  "/>
<polyline clip-path="url(#clip043)" style="stroke:#000000; stroke-linecap:butt; stroke-linejoin:round; stroke-width:2; stroke-opacity:0.1; fill:none" points="
  265.445,228.689 2352.76,228.689 
  "/>
<polyline clip-path="url(#clip040)" style="stroke:#000000; stroke-linecap:butt; stroke-linejoin:round; stroke-width:4; stroke-opacity:1; fill:none" points="
  265.445,1423.18 265.445,47.2441 
  "/>
<polyline clip-path="url(#clip040)" style="stroke:#000000; stroke-linecap:butt; stroke-linejoin:round; stroke-width:4; stroke-opacity:1; fill:none" points="
  265.445,1384.24 284.342,1384.24 
  "/>
<polyline clip-path="url(#clip040)" style="stroke:#000000; stroke-linecap:butt; stroke-linejoin:round; stroke-width:4; stroke-opacity:1; fill:none" points="
  265.445,1153.13 284.342,1153.13 
  "/>
<polyline clip-path="url(#clip040)" style="stroke:#000000; stroke-linecap:butt; stroke-linejoin:round; stroke-width:4; stroke-opacity:1; fill:none" points="
  265.445,922.02 284.342,922.02 
  "/>
<polyline clip-path="url(#clip040)" style="stroke:#000000; stroke-linecap:butt; stroke-linejoin:round; stroke-width:4; stroke-opacity:1; fill:none" points="
  265.445,690.91 284.342,690.91 
  "/>
<polyline clip-path="url(#clip040)" style="stroke:#000000; stroke-linecap:butt; stroke-linejoin:round; stroke-width:4; stroke-opacity:1; fill:none" points="
  265.445,459.8 284.342,459.8 
  "/>
<polyline clip-path="url(#clip040)" style="stroke:#000000; stroke-linecap:butt; stroke-linejoin:round; stroke-width:4; stroke-opacity:1; fill:none" points="
  265.445,228.689 284.342,228.689 
  "/>
<path clip-path="url(#clip040)" d="M217.5 1370.04 Q213.889 1370.04 212.061 1373.6 Q210.255 1377.15 210.255 1384.28 Q210.255 1391.38 212.061 1394.95 Q213.889 1398.49 217.5 1398.49 Q221.135 1398.49 222.94 1394.95 Q224.769 1391.38 224.769 1384.28 Q224.769 1377.15 222.94 1373.6 Q221.135 1370.04 217.5 1370.04 M217.5 1366.34 Q223.31 1366.34 226.366 1370.94 Q229.445 1375.53 229.445 1384.28 Q229.445 1393 226.366 1397.61 Q223.31 1402.19 217.5 1402.19 Q211.69 1402.19 208.612 1397.61 Q205.556 1393 205.556 1384.28 Q205.556 1375.53 208.612 1370.94 Q211.69 1366.34 217.5 1366.34 Z" fill="#000000" fill-rule="evenodd" fill-opacity="1" /><path clip-path="url(#clip040)" d="M117.825 1166.48 L125.464 1166.48 L125.464 1140.11 L117.154 1141.78 L117.154 1137.52 L125.418 1135.85 L130.093 1135.85 L130.093 1166.48 L137.732 1166.48 L137.732 1170.41 L117.825 1170.41 L117.825 1166.48 Z" fill="#000000" fill-rule="evenodd" fill-opacity="1" /><path clip-path="url(#clip040)" d="M157.177 1138.93 Q153.566 1138.93 151.737 1142.49 Q149.931 1146.04 149.931 1153.17 Q149.931 1160.27 151.737 1163.84 Q153.566 1167.38 157.177 1167.38 Q160.811 1167.38 162.616 1163.84 Q164.445 1160.27 164.445 1153.17 Q164.445 1146.04 162.616 1142.49 Q160.811 1138.93 157.177 1138.93 M157.177 1135.23 Q162.987 1135.23 166.042 1139.83 Q169.121 1144.42 169.121 1153.17 Q169.121 1161.89 166.042 1166.5 Q162.987 1171.08 157.177 1171.08 Q151.366 1171.08 148.288 1166.5 Q145.232 1161.89 145.232 1153.17 Q145.232 1144.42 148.288 1139.83 Q151.366 1135.23 157.177 1135.23 Z" fill="#000000" fill-rule="evenodd" fill-opacity="1" /><path clip-path="url(#clip040)" d="M187.338 1138.93 Q183.727 1138.93 181.899 1142.49 Q180.093 1146.04 180.093 1153.17 Q180.093 1160.27 181.899 1163.84 Q183.727 1167.38 187.338 1167.38 Q190.973 1167.38 192.778 1163.84 Q194.607 1160.27 194.607 1153.17 Q194.607 1146.04 192.778 1142.49 Q190.973 1138.93 187.338 1138.93 M187.338 1135.23 Q193.149 1135.23 196.204 1139.83 Q199.283 1144.42 199.283 1153.17 Q199.283 1161.89 196.204 1166.5 Q193.149 1171.08 187.338 1171.08 Q181.528 1171.08 178.45 1166.5 Q175.394 1161.89 175.394 1153.17 Q175.394 1144.42 178.45 1139.83 Q181.528 1135.23 187.338 1135.23 Z" fill="#000000" fill-rule="evenodd" fill-opacity="1" /><path clip-path="url(#clip040)" d="M217.5 1138.93 Q213.889 1138.93 212.061 1142.49 Q210.255 1146.04 210.255 1153.17 Q210.255 1160.27 212.061 1163.84 Q213.889 1167.38 217.5 1167.38 Q221.135 1167.38 222.94 1163.84 Q224.769 1160.27 224.769 1153.17 Q224.769 1146.04 222.94 1142.49 Q221.135 1138.93 217.5 1138.93 M217.5 1135.23 Q223.31 1135.23 226.366 1139.83 Q229.445 1144.42 229.445 1153.17 Q229.445 1161.89 226.366 1166.5 Q223.31 1171.08 217.5 1171.08 Q211.69 1171.08 208.612 1166.5 Q205.556 1161.89 205.556 1153.17 Q205.556 1144.42 208.612 1139.83 Q211.69 1135.23 217.5 1135.23 Z" fill="#000000" fill-rule="evenodd" fill-opacity="1" /><path clip-path="url(#clip040)" d="M121.043 935.365 L137.362 935.365 L137.362 939.3 L115.418 939.3 L115.418 935.365 Q118.08 932.611 122.663 927.981 Q127.269 923.328 128.45 921.986 Q130.695 919.463 131.575 917.726 Q132.478 915.967 132.478 914.277 Q132.478 911.523 130.533 909.787 Q128.612 908.051 125.51 908.051 Q123.311 908.051 120.857 908.814 Q118.427 909.578 115.649 911.129 L115.649 906.407 Q118.473 905.273 120.927 904.694 Q123.38 904.115 125.418 904.115 Q130.788 904.115 133.982 906.801 Q137.177 909.486 137.177 913.976 Q137.177 916.106 136.367 918.027 Q135.579 919.925 133.473 922.518 Q132.894 923.189 129.792 926.407 Q126.691 929.601 121.043 935.365 Z" fill="#000000" fill-rule="evenodd" fill-opacity="1" /><path clip-path="url(#clip040)" d="M157.177 907.819 Q153.566 907.819 151.737 911.384 Q149.931 914.925 149.931 922.055 Q149.931 929.162 151.737 932.726 Q153.566 936.268 157.177 936.268 Q160.811 936.268 162.616 932.726 Q164.445 929.162 164.445 922.055 Q164.445 914.925 162.616 911.384 Q160.811 907.819 157.177 907.819 M157.177 904.115 Q162.987 904.115 166.042 908.722 Q169.121 913.305 169.121 922.055 Q169.121 930.782 166.042 935.388 Q162.987 939.972 157.177 939.972 Q151.366 939.972 148.288 935.388 Q145.232 930.782 145.232 922.055 Q145.232 913.305 148.288 908.722 Q151.366 904.115 157.177 904.115 Z" fill="#000000" fill-rule="evenodd" fill-opacity="1" /><path clip-path="url(#clip040)" d="M187.338 907.819 Q183.727 907.819 181.899 911.384 Q180.093 914.925 180.093 922.055 Q180.093 929.162 181.899 932.726 Q183.727 936.268 187.338 936.268 Q190.973 936.268 192.778 932.726 Q194.607 929.162 194.607 922.055 Q194.607 914.925 192.778 911.384 Q190.973 907.819 187.338 907.819 M187.338 904.115 Q193.149 904.115 196.204 908.722 Q199.283 913.305 199.283 922.055 Q199.283 930.782 196.204 935.388 Q193.149 939.972 187.338 939.972 Q181.528 939.972 178.45 935.388 Q175.394 930.782 175.394 922.055 Q175.394 913.305 178.45 908.722 Q181.528 904.115 187.338 904.115 Z" fill="#000000" fill-rule="evenodd" fill-opacity="1" /><path clip-path="url(#clip040)" d="M217.5 907.819 Q213.889 907.819 212.061 911.384 Q210.255 914.925 210.255 922.055 Q210.255 929.162 212.061 932.726 Q213.889 936.268 217.5 936.268 Q221.135 936.268 222.94 932.726 Q224.769 929.162 224.769 922.055 Q224.769 914.925 222.94 911.384 Q221.135 907.819 217.5 907.819 M217.5 904.115 Q223.31 904.115 226.366 908.722 Q229.445 913.305 229.445 922.055 Q229.445 930.782 226.366 935.388 Q223.31 939.972 217.5 939.972 Q211.69 939.972 208.612 935.388 Q205.556 930.782 205.556 922.055 Q205.556 913.305 208.612 908.722 Q211.69 904.115 217.5 904.115 Z" fill="#000000" fill-rule="evenodd" fill-opacity="1" /><path clip-path="url(#clip040)" d="M131.181 689.556 Q134.538 690.273 136.413 692.542 Q138.311 694.81 138.311 698.144 Q138.311 703.259 134.792 706.06 Q131.274 708.861 124.793 708.861 Q122.617 708.861 120.302 708.421 Q118.01 708.005 115.556 707.148 L115.556 702.634 Q117.501 703.769 119.816 704.347 Q122.13 704.926 124.654 704.926 Q129.052 704.926 131.343 703.19 Q133.658 701.454 133.658 698.144 Q133.658 695.088 131.505 693.375 Q129.376 691.639 125.556 691.639 L121.529 691.639 L121.529 687.797 L125.742 687.797 Q129.191 687.797 131.019 686.431 Q132.848 685.042 132.848 682.449 Q132.848 679.787 130.95 678.375 Q129.075 676.94 125.556 676.94 Q123.635 676.94 121.436 677.357 Q119.237 677.773 116.598 678.653 L116.598 674.486 Q119.26 673.746 121.575 673.375 Q123.913 673.005 125.973 673.005 Q131.297 673.005 134.399 675.436 Q137.501 677.843 137.501 681.963 Q137.501 684.834 135.857 686.824 Q134.214 688.792 131.181 689.556 Z" fill="#000000" fill-rule="evenodd" fill-opacity="1" /><path clip-path="url(#clip040)" d="M157.177 676.709 Q153.566 676.709 151.737 680.273 Q149.931 683.815 149.931 690.945 Q149.931 698.051 151.737 701.616 Q153.566 705.158 157.177 705.158 Q160.811 705.158 162.616 701.616 Q164.445 698.051 164.445 690.945 Q164.445 683.815 162.616 680.273 Q160.811 676.709 157.177 676.709 M157.177 673.005 Q162.987 673.005 166.042 677.611 Q169.121 682.195 169.121 690.945 Q169.121 699.671 166.042 704.278 Q162.987 708.861 157.177 708.861 Q151.366 708.861 148.288 704.278 Q145.232 699.671 145.232 690.945 Q145.232 682.195 148.288 677.611 Q151.366 673.005 157.177 673.005 Z" fill="#000000" fill-rule="evenodd" fill-opacity="1" /><path clip-path="url(#clip040)" d="M187.338 676.709 Q183.727 676.709 181.899 680.273 Q180.093 683.815 180.093 690.945 Q180.093 698.051 181.899 701.616 Q183.727 705.158 187.338 705.158 Q190.973 705.158 192.778 701.616 Q194.607 698.051 194.607 690.945 Q194.607 683.815 192.778 680.273 Q190.973 676.709 187.338 676.709 M187.338 673.005 Q193.149 673.005 196.204 677.611 Q199.283 682.195 199.283 690.945 Q199.283 699.671 196.204 704.278 Q193.149 708.861 187.338 708.861 Q181.528 708.861 178.45 704.278 Q175.394 699.671 175.394 690.945 Q175.394 682.195 178.45 677.611 Q181.528 673.005 187.338 673.005 Z" fill="#000000" fill-rule="evenodd" fill-opacity="1" /><path clip-path="url(#clip040)" d="M217.5 676.709 Q213.889 676.709 212.061 680.273 Q210.255 683.815 210.255 690.945 Q210.255 698.051 212.061 701.616 Q213.889 705.158 217.5 705.158 Q221.135 705.158 222.94 701.616 Q224.769 698.051 224.769 690.945 Q224.769 683.815 222.94 680.273 Q221.135 676.709 217.5 676.709 M217.5 673.005 Q223.31 673.005 226.366 677.611 Q229.445 682.195 229.445 690.945 Q229.445 699.671 226.366 704.278 Q223.31 708.861 217.5 708.861 Q211.69 708.861 208.612 704.278 Q205.556 699.671 205.556 690.945 Q205.556 682.195 208.612 677.611 Q211.69 673.005 217.5 673.005 Z" fill="#000000" fill-rule="evenodd" fill-opacity="1" /><path clip-path="url(#clip040)" d="M129.862 446.594 L118.056 465.043 L129.862 465.043 L129.862 446.594 M128.635 442.52 L134.515 442.52 L134.515 465.043 L139.445 465.043 L139.445 468.931 L134.515 468.931 L134.515 477.08 L129.862 477.08 L129.862 468.931 L114.26 468.931 L114.26 464.418 L128.635 442.52 Z" fill="#000000" fill-rule="evenodd" fill-opacity="1" /><path clip-path="url(#clip040)" d="M157.177 445.598 Q153.566 445.598 151.737 449.163 Q149.931 452.705 149.931 459.834 Q149.931 466.941 151.737 470.506 Q153.566 474.047 157.177 474.047 Q160.811 474.047 162.616 470.506 Q164.445 466.941 164.445 459.834 Q164.445 452.705 162.616 449.163 Q160.811 445.598 157.177 445.598 M157.177 441.895 Q162.987 441.895 166.042 446.501 Q169.121 451.084 169.121 459.834 Q169.121 468.561 166.042 473.168 Q162.987 477.751 157.177 477.751 Q151.366 477.751 148.288 473.168 Q145.232 468.561 145.232 459.834 Q145.232 451.084 148.288 446.501 Q151.366 441.895 157.177 441.895 Z" fill="#000000" fill-rule="evenodd" fill-opacity="1" /><path clip-path="url(#clip040)" d="M187.338 445.598 Q183.727 445.598 181.899 449.163 Q180.093 452.705 180.093 459.834 Q180.093 466.941 181.899 470.506 Q183.727 474.047 187.338 474.047 Q190.973 474.047 192.778 470.506 Q194.607 466.941 194.607 459.834 Q194.607 452.705 192.778 449.163 Q190.973 445.598 187.338 445.598 M187.338 441.895 Q193.149 441.895 196.204 446.501 Q199.283 451.084 199.283 459.834 Q199.283 468.561 196.204 473.168 Q193.149 477.751 187.338 477.751 Q181.528 477.751 178.45 473.168 Q175.394 468.561 175.394 459.834 Q175.394 451.084 178.45 446.501 Q181.528 441.895 187.338 441.895 Z" fill="#000000" fill-rule="evenodd" fill-opacity="1" /><path clip-path="url(#clip040)" d="M217.5 445.598 Q213.889 445.598 212.061 449.163 Q210.255 452.705 210.255 459.834 Q210.255 466.941 212.061 470.506 Q213.889 474.047 217.5 474.047 Q221.135 474.047 222.94 470.506 Q224.769 466.941 224.769 459.834 Q224.769 452.705 222.94 449.163 Q221.135 445.598 217.5 445.598 M217.5 441.895 Q223.31 441.895 226.366 446.501 Q229.445 451.084 229.445 459.834 Q229.445 468.561 226.366 473.168 Q223.31 477.751 217.5 477.751 Q211.69 477.751 208.612 473.168 Q205.556 468.561 205.556 459.834 Q205.556 451.084 208.612 446.501 Q211.69 441.895 217.5 441.895 Z" fill="#000000" fill-rule="evenodd" fill-opacity="1" /><path clip-path="url(#clip040)" d="M117.061 211.409 L135.417 211.409 L135.417 215.344 L121.343 215.344 L121.343 223.816 Q122.362 223.469 123.38 223.307 Q124.399 223.122 125.418 223.122 Q131.205 223.122 134.584 226.293 Q137.964 229.465 137.964 234.881 Q137.964 240.46 134.492 243.562 Q131.019 246.64 124.7 246.64 Q122.524 246.64 120.255 246.27 Q118.01 245.9 115.603 245.159 L115.603 240.46 Q117.686 241.594 119.908 242.15 Q122.13 242.705 124.607 242.705 Q128.612 242.705 130.95 240.599 Q133.288 238.492 133.288 234.881 Q133.288 231.27 130.95 229.164 Q128.612 227.057 124.607 227.057 Q122.732 227.057 120.857 227.474 Q119.006 227.891 117.061 228.77 L117.061 211.409 Z" fill="#000000" fill-rule="evenodd" fill-opacity="1" /><path clip-path="url(#clip040)" d="M157.177 214.488 Q153.566 214.488 151.737 218.053 Q149.931 221.594 149.931 228.724 Q149.931 235.83 151.737 239.395 Q153.566 242.937 157.177 242.937 Q160.811 242.937 162.616 239.395 Q164.445 235.83 164.445 228.724 Q164.445 221.594 162.616 218.053 Q160.811 214.488 157.177 214.488 M157.177 210.784 Q162.987 210.784 166.042 215.391 Q169.121 219.974 169.121 228.724 Q169.121 237.451 166.042 242.057 Q162.987 246.64 157.177 246.64 Q151.366 246.64 148.288 242.057 Q145.232 237.451 145.232 228.724 Q145.232 219.974 148.288 215.391 Q151.366 210.784 157.177 210.784 Z" fill="#000000" fill-rule="evenodd" fill-opacity="1" /><path clip-path="url(#clip040)" d="M187.338 214.488 Q183.727 214.488 181.899 218.053 Q180.093 221.594 180.093 228.724 Q180.093 235.83 181.899 239.395 Q183.727 242.937 187.338 242.937 Q190.973 242.937 192.778 239.395 Q194.607 235.83 194.607 228.724 Q194.607 221.594 192.778 218.053 Q190.973 214.488 187.338 214.488 M187.338 210.784 Q193.149 210.784 196.204 215.391 Q199.283 219.974 199.283 228.724 Q199.283 237.451 196.204 242.057 Q193.149 246.64 187.338 246.64 Q181.528 246.64 178.45 242.057 Q175.394 237.451 175.394 228.724 Q175.394 219.974 178.45 215.391 Q181.528 210.784 187.338 210.784 Z" fill="#000000" fill-rule="evenodd" fill-opacity="1" /><path clip-path="url(#clip040)" d="M217.5 214.488 Q213.889 214.488 212.061 218.053 Q210.255 221.594 210.255 228.724 Q210.255 235.83 212.061 239.395 Q213.889 242.937 217.5 242.937 Q221.135 242.937 222.94 239.395 Q224.769 235.83 224.769 228.724 Q224.769 221.594 222.94 218.053 Q221.135 214.488 217.5 214.488 M217.5 210.784 Q223.31 210.784 226.366 215.391 Q229.445 219.974 229.445 228.724 Q229.445 237.451 226.366 242.057 Q223.31 246.64 217.5 246.64 Q211.69 246.64 208.612 242.057 Q205.556 237.451 205.556 228.724 Q205.556 219.974 208.612 215.391 Q211.69 210.784 217.5 210.784 Z" fill="#000000" fill-rule="evenodd" fill-opacity="1" /><path clip-path="url(#clip040)" d="M21.7677 848.522 L58.7206 848.522 L58.7206 840.755 Q58.7206 830.92 54.2646 826.369 Q49.8086 821.786 40.1964 821.786 Q30.6479 821.786 26.2237 826.369 Q21.7677 830.92 21.7677 840.755 L21.7677 848.522 M16.4842 854.951 L16.4842 841.742 Q16.4842 827.928 22.2451 821.467 Q27.9743 815.006 40.1964 815.006 Q52.4822 815.006 58.2432 821.499 Q64.0042 827.992 64.0042 841.742 L64.0042 854.951 L16.4842 854.951 Z" fill="#000000" fill-rule="evenodd" fill-opacity="1" /><path clip-path="url(#clip040)" d="M44.7161 774.52 L47.5806 774.52 L47.5806 801.447 Q53.6281 801.065 56.8109 797.819 Q59.9619 794.54 59.9619 788.716 Q59.9619 785.342 59.1344 782.191 Q58.3069 779.008 56.6518 775.889 L62.1899 775.889 Q63.5267 779.04 64.227 782.35 Q64.9272 785.66 64.9272 789.066 Q64.9272 797.596 59.9619 802.593 Q54.9967 807.558 46.5303 807.558 Q37.7774 807.558 32.6531 802.848 Q27.4968 798.105 27.4968 790.084 Q27.4968 782.891 32.1438 778.722 Q36.7589 774.52 44.7161 774.52 M42.9973 780.377 Q38.1912 780.44 35.3266 783.082 Q32.4621 785.692 32.4621 790.021 Q32.4621 794.922 35.2312 797.882 Q38.0002 800.811 43.0292 801.256 L42.9973 780.377 Z" fill="#000000" fill-rule="evenodd" fill-opacity="1" /><path clip-path="url(#clip040)" d="M42.4881 735.276 L64.0042 735.276 L64.0042 741.132 L42.679 741.132 Q37.6183 741.132 35.1038 743.105 Q32.5894 745.079 32.5894 749.026 Q32.5894 753.768 35.6131 756.505 Q38.6368 759.243 43.8567 759.243 L64.0042 759.243 L64.0042 765.131 L28.3562 765.131 L28.3562 759.243 L33.8944 759.243 Q30.6797 757.142 29.0883 754.309 Q27.4968 751.445 27.4968 747.721 Q27.4968 741.578 31.3163 738.427 Q35.1038 735.276 42.4881 735.276 Z" fill="#000000" fill-rule="evenodd" fill-opacity="1" /><path clip-path="url(#clip040)" d="M29.4065 700.869 L34.9447 700.869 Q33.6716 703.352 33.035 706.025 Q32.3984 708.699 32.3984 711.563 Q32.3984 715.924 33.7352 718.12 Q35.072 720.284 37.7456 720.284 Q39.7826 720.284 40.9603 718.725 Q42.1061 717.165 43.1565 712.455 L43.6021 710.449 Q44.9389 704.211 47.3897 701.601 Q49.8086 698.959 54.1691 698.959 Q59.1344 698.959 62.0308 702.906 Q64.9272 706.821 64.9272 713.696 Q64.9272 716.56 64.3543 719.68 Q63.8132 722.767 62.6992 726.204 L56.6518 726.204 Q58.3387 722.958 59.198 719.807 Q60.0256 716.656 60.0256 713.569 Q60.0256 709.431 58.6251 707.203 Q57.1929 704.975 54.6147 704.975 Q52.2276 704.975 50.9545 706.598 Q49.6813 708.19 48.5037 713.632 L48.0262 715.669 Q46.8804 721.112 44.5251 723.531 Q42.138 725.95 38.0002 725.95 Q32.9713 725.95 30.2341 722.385 Q27.4968 718.82 27.4968 712.264 Q27.4968 709.017 27.9743 706.153 Q28.4517 703.288 29.4065 700.869 Z" fill="#000000" fill-rule="evenodd" fill-opacity="1" /><path clip-path="url(#clip040)" d="M28.3562 689.634 L28.3562 683.777 L64.0042 683.777 L64.0042 689.634 L28.3562 689.634 M14.479 689.634 L14.479 683.777 L21.895 683.777 L21.895 689.634 L14.479 689.634 Z" fill="#000000" fill-rule="evenodd" fill-opacity="1" /><path clip-path="url(#clip040)" d="M18.2347 665.73 L28.3562 665.73 L28.3562 653.667 L32.9077 653.667 L32.9077 665.73 L52.2594 665.73 Q56.6199 665.73 57.8613 664.553 Q59.1026 663.343 59.1026 659.683 L59.1026 653.667 L64.0042 653.667 L64.0042 659.683 Q64.0042 666.462 61.4897 669.04 Q58.9434 671.619 52.2594 671.619 L32.9077 671.619 L32.9077 675.915 L28.3562 675.915 L28.3562 671.619 L18.2347 671.619 L18.2347 665.73 Z" fill="#000000" fill-rule="evenodd" fill-opacity="1" /><path clip-path="url(#clip040)" d="M67.3143 631.133 Q73.68 633.615 75.6216 635.971 Q77.5631 638.326 77.5631 642.273 L77.5631 646.951 L72.6615 646.951 L72.6615 643.514 Q72.6615 641.095 71.5157 639.758 Q70.3699 638.421 66.1048 636.798 L63.4312 635.748 L28.3562 650.166 L28.3562 643.96 L56.238 632.82 L28.3562 621.68 L28.3562 615.473 L67.3143 631.133 Z" fill="#000000" fill-rule="evenodd" fill-opacity="1" /><polyline clip-path="url(#clip043)" style="stroke:#009af9; stroke-linecap:butt; stroke-linejoin:round; stroke-width:8; stroke-opacity:1; fill:none" points="
  268.87,86.1857 272.295,730.806 275.72,946.92 279.145,1055.36 282.57,1120.59 285.995,1164.17 289.42,1195.35 292.845,1218.77 296.27,1237 299.695,1251.61 
  303.12,1263.57 306.545,1273.55 309.97,1282 313.395,1289.25 316.82,1295.53 320.245,1301.04 323.67,1305.9 327.095,1310.22 330.52,1314.09 333.945,1317.57 
  340.795,1323.6 347.645,1328.62 354.495,1332.87 361.346,1336.52 368.196,1339.69 375.046,1342.46 381.896,1344.91 388.746,1347.08 395.596,1349.03 402.446,1350.79 
  416.146,1353.82 429.846,1356.35 443.546,1358.49 457.246,1360.33 470.946,1361.92 484.647,1363.32 498.347,1364.55 512.047,1365.64 525.747,1366.62 539.447,1367.51 
  566.847,1369.03 594.247,1370.31 621.648,1371.39 649.048,1372.31 662.748,1372.73 676.448,1373.11 690.148,1373.48 703.848,1373.82 830.526,1376.18 957.203,1377.68 
  1083.88,1378.72 1210.56,1379.48 1337.24,1380.07 1463.91,1380.53 1590.59,1380.9 1717.27,1381.21 1970.62,1381.68 2223.98,1382.04 2477.33,1382.31 2730.69,1382.53 
  3237.4,1382.85 3744.1,1383.08 4250.81,1383.25 4757.52,1383.38 5366.55,1383.51 5975.57,1383.6 6584.59,1383.68 7193.61,1383.74 8223.45,1383.83 9253.3,1383.89 
  10372,1383.95 11490.7,1383.99 12522,1384.02 13553.4,1384.05 15764.8,1384.09 18326.9,1384.13 20603.8,1384.15 22600.5,1384.17 24777.4,1384.18 26967.2,1384.19 
  29388.3,1384.2 31692,1384.21 34087.3,1384.21 36103.6,1384.22 38565.2,1384.22 40820.3,1384.22 42903,1384.23 45012.7,1384.23 47377.1,1384.23 49519.7,1384.23 
  51972.7,1384.23 54244,1384.23 56483.3,1384.24 58657.4,1384.24 60886.1,1384.24 63328,1384.24 66875.2,1384.24 67602.9,1384.24 
  "/>
</svg>
